<svg xmlns="http://www.w3.org/2000/svg" width="17.294" height="20.581" viewBox="289.344 622 17.294 20.581"><path d="M18.46 42.876c-.01-1.687.753-2.96 2.297-3.897-.864-1.236-2.169-1.916-3.892-2.049-1.63-.129-3.414.951-4.066.951-.69 0-2.27-.905-3.51-.905C6.725 37.017 4 39.021 4 43.096c0 1.204.22 2.448.662 3.731.588 1.686 2.71 5.822 4.925 5.753 1.158-.028 1.976-.823 3.483-.823 1.461 0 2.22.823 3.51.823 2.233-.032 4.154-3.79 4.714-5.482-2.995-1.41-2.834-4.135-2.834-4.222Zm-2.601-7.545c1.254-1.489 1.14-2.844 1.103-3.331-1.108.064-2.39.754-3.12 1.604-.804.91-1.277 2.035-1.176 3.303 1.199.092 2.292-.524 3.193-1.576Z" fill="#bfbcbc" fill-rule="evenodd" style="--darkreader-inline-fill:#c9c2ba" transform="translate(285.344 590)" data-name="apple"/></svg>