<svg xmlns="http://www.w3.org/2000/svg" width="179.049" height="79.841" viewBox="236 444.03 179.049 79.841"><g data-name="Group 4459"><path d="M238.095 514.78a88.477 9.04 0 1 1 0 .1z" fill="#adb0c7" fill-rule="evenodd" data-name="Ellipse 99"/><path d="M731.024 245.962h39.04v-3.2l-39.04.8v2.4Z" fill-rule="evenodd" fill="url(&quot;#a&quot;)" transform="translate(-395.492 212.597)" data-name="Path 1495"/><path d="M401.854 482.974v.034l-1.044 25.32-.162 3.942h-3.553v.048l-.002.052-.065 3.72h-2.011l-.738-3.687h-22.524l-.469 3.687h-1.676l-.804-3.485h-45.92l-.335 3.485h-1.878l-.672-2.95-.18-.786-.007-.03-.001-.006-.01-.048h-29.698l-.004.035-.002.013-.002.008-.528 3.764-1.944.068-.845-3.836v-.004l-.004-.015-.022-.1h-2.347l-.365-4.322-.17-2.03-.16-1.87-2.79-33.072 1.81-.402 3.282.132 1.12 11.76 31.279-2.24.087-8.442.819.028 2.994.102h.036l-1.12 20.202-.086.981h45.92v-10.056h34.791Z" fill="#495276" fill-rule="evenodd" data-name="Path 1496"/><path d="m282.698 470.54 3.016 25.34 35.396-2.883 1.206-21.183-2.996-.096-.027 8.92-32.08 2.32-1.2-12.32-3.315-.097Z" fill="#171732" fill-rule="evenodd" data-name="Path 1497"/><path d="M287.773 497.678c-.034-.884-.145-5.857 3.68-9.68 2.478-2.475 5.342-3.204 6.56-3.44 4.438.566 7.901 3.231 8.4 6.32.707 4.38-4.773 8.21-9.2 9.04-4.706.881-8.487-1.58-9.44-2.24Z" fill="#495276" fill-rule="evenodd" data-name="Path 1498"/><path d="M367.086 500.358c.005.746-.195 1.354-.94 1.355l-78.508.064a1.345 1.345 0 0 1-1.342-1.249l-.287-4.068a1.344 1.344 0 0 1 1.223-1.434l5.493-.48 13.334-1.169 16.522-1.447c.047-.004.094-.005.141-.005l43.4.78c.728.013.911.605.917 1.334l.04 5.222v.002l.007 1.095Z" fill="#7d82ac" fill-rule="evenodd" data-name="Path 1499"/><path d="M367.086 500.358c.005.746-.195 1.354-.94 1.355l-78.508.064c-.63 0-1.166-.435-1.308-1.03a.71.71 0 0 1-.016-.113c-.08-1.123-.16-2.247-.238-3.37-.052-.731.647-.962 1.378-1.026 11.782-1.032 79.672-.489 79.677.24.007.887-.075 2.48-.053 2.783v.002l.008 1.095Z" fill="#bc979d" fill-rule="evenodd" data-name="Path 1500"/><path d="M285.854 475.359c5.224-1.119 8.835-2.373 11.36-3.44 1.375-.582 3.65-1.625 5.36-.64 1.236.712 1.464 2.073 2.4 2.08 1.137.008 1.17-2.007 2.639-2.64 1.874-.808 3.696 1.665 8.24 3.12 1.597.511 2.951.71 3.76.8l.08 2.8-33.28.88-.56-2.96Z" fill="#495276" fill-rule="evenodd" data-name="Path 1501"/><path d="M285.854 475.359c5.224-1.119 8.835-2.373 11.36-3.44 1.375-.582 3.65-1.625 5.36-.64 1.236.712 1.464 2.073 2.4 2.08 1.137.008 1.17-2.007 2.639-2.64 1.874-.808 3.696 1.665 8.24 3.12 1.597.511 2.951.71 3.76.8l.08 2.8-33.28.88-.56-2.96Z" fill="#171732" fill-rule="evenodd" data-name="Path 1502"/><path d="M290.493 475.839c.008-.264 1.853.117 4.56-.8 3.466-1.175 4.41-3.146 6.24-2.8.752.142 1.746.693 2.72 2.56-.637-.778-1.638-1.746-2.8-1.68-1.498.085-1.874 1.81-3.68 2.88-2.927 1.735-7.051.235-7.04-.16Z" fill="#cad290" fill-rule="evenodd" data-name="Path 1503"/><path d="M318.333 475.393c-.007-.238-1.667.105-4.101-.72-3.118-1.057-3.967-2.83-5.613-2.518-.676.128-1.57.623-2.446 2.302.573-.7 1.473-1.57 2.518-1.51 1.348.076 1.686 1.627 3.31 2.59 2.633 1.56 6.342.211 6.332-.144Z" fill="#cad290" fill-rule="evenodd" data-name="Path 1504"/><path d="m370.491 506.878-86.62-1.027-.158-1.87 86.698-.863.08 3.76Z" fill="#495276" fill-rule="evenodd" data-name="Path 1505"/><path d="m370.651 510.638.08 1.68-50.91.036-29.724-.028-3.317-.004-.004-.019-.022-.1h-2.347l-.365-4.322 86.61 2.757Z" fill="#495276" fill-rule="evenodd" data-name="Path 1506"/><path d="m401.888 483.008-1.078 26.167-.129 3.128h-29.965l-1.1-29.329h.02l32.217.034h.035Z" fill="#171732" fill-rule="evenodd" data-name="Path 1507"/><path d="M400.81 483.998h-29.599l-1.575-1.024h32.218v.034h.034l-1.078 26.167v-25.177Z" fill="#cad290" fill-rule="evenodd" data-name="Path 1508"/><path d="m369.611 482.958 1.6 1.04 3.04 26.72 26.08.56.32 1.04h-29.92l-1.12-29.36Z" fill="#495276" fill-rule="evenodd" data-name="Path 1509"/><path d="M286.78 512.318h3.32l-.003.008-.528 3.764-1.944.068-.845-3.836v-.004Z" fill="#29314b" fill-rule="evenodd" data-name="Path 1510"/><path d="m397.094 512.318-.001.052-.065 3.72h-2.011l-.738-3.687h-22.524l-.469 3.687h-1.676l-.804-3.485h-45.92l-.335 3.485h-1.878l-.672-2.95-.18-.786-.007-.03-.001-.006h77.281Z" fill="#29314b" fill-rule="evenodd" data-name="Path 1511"/><path d="M325.566 487.212c-1.07-1.246-2.014-1.891-2.753-2.254-.385-.188-1.47-.67-2.48-1.76a7.225 7.225 0 0 1-.8-1.04 18.587 18.587 0 0 0-5.167.31 20.643 20.643 0 0 1 6.047-.87c.701 1.51 2.48 2.481 4.265 4.487.044.05.09.101.134.153.288.332.536.657.754.974Z" fill="#e2ffc0" fill-rule="evenodd" data-name="Path 1512"/><path d="M367.131 501.758c-4.165-.008-8.694.217-13.52.8-12.947 1.564-23.727 5.19-31.918 8.8-3.747-3.658-6.248-6.452-7.896-8.593a31.208 31.208 0 0 1-1.17-1.614 47.978 47.978 0 0 0 5.546 5.807c1.332 1.179 2.89 2.932 4.16 3.84 1.978-.952 4.976-2.236 8.56-3.76 11.19-4.758 17.167-6.582 24.159-6.8 2.945-.092 5.92 0 12.08.88.007.328-.009.312 0 .64Z" fill="#9997bc" fill-rule="evenodd" data-name="Path 1513"/><path d="M369.611 482.958v28.4l-79.89.945 81.01.015-1.12-29.36Z" fill="#495276" fill-rule="evenodd" data-name="Path 1514"/><path d="M316.973 504.638c-.287 1.676 2.566 4.529 8.56 7.28 3.49-1.476 7.279-3.529 11.36-4.8 11.84-3.69 21.2-4.962 30.238-5.36-33.794-1.823-49.5-.97-50.158 2.88Z" fill="#495276" fill-rule="evenodd" data-name="Path 1515"/><path d="m282.418 470.847 3.436 31.63 81.277-.72h-79.61a1.172 1.172 0 0 1-1.162-1.018l-3.941-29.892Z" fill="#495276" fill-rule="evenodd" data-name="Path 1516"/><g data-name="Group 4438"><path d="M328.092 491.518c-7.706 1.654-15.413 2.507-23.119 4.16a13.185 13.185 0 0 1-6-4.4 13.186 13.186 0 0 1-2.63-6.896l-.01-.144c4.825-.693 9.206-.614 13.12-.08.187.026.374.052.56.08 3.808-1.975 7.218-2.616 10.08-2.64h.32c.701 1.51 2.48 2.481 4.265 4.487.044.05.09.101.134.153 1.41 1.628 1.883 3.106 2.403 4.14.234.467.479.844.825 1.103l.052.037Z" fill="#8e91c2" fill-rule="evenodd" data-name="Path 1517"/><path d="M327.215 490.378c0 .009-.001.016-.003.02-.036.082-2.4-4.56-2.821-3.675-.403.848-.798 1.611-1.098 1.995-1.44 1.84-2.798 1.983-4.08 1.84-3.6-.4-4.644-4.315-10.88-6-2.766-.747-10.085-.394-11.99-.176l-.01-.144c4.825-.693 9.206-.614 13.12-.08.187.026.374.052.56.08a24.591 24.591 0 0 1 4.353-1.77 20.643 20.643 0 0 1 6.047-.87c.701 1.51 2.48 2.481 4.265 4.487.044.05.09.101.134.153.288.332.536.657.754.974.851 1.237 1.234 2.342 1.649 3.166Z" fill="#c0dbff" fill-rule="evenodd" data-name="Path 1518"/><path d="M301.853 484.958c-.03.267 1.55.363 3.84 1.2 5.705 2.088 8.071 5.948 9.2 5.2.253-.167.159-.377 0-5.2-.025-.753-.052-1.624-.32-1.68-.453-.094-.75 2.305-2.08 2.72-1.072.335-1.832-.924-3.68-1.84-3.186-1.578-6.915-.803-6.96-.4Z" fill="#bc979d" fill-rule="evenodd" data-name="Path 1519"/><path d="M328.092 491.518c-7.706 1.654-15.413 2.507-23.119 4.16a13.185 13.185 0 0 1-6-4.4 13.186 13.186 0 0 1-2.626-6.859c.851.331 1.842.807 2.866 1.5 4.553 3.074 6.637 8.298 6.08 8.72-.474.357-2.993-2.658-3.28-2.4-.218.195.781 2.362 2.48 2.8 1.298.333 2.429-.491 3.44-1.04 1.692-.92 2.637-.848 8.56-1.36 2.845-.247 6.552-.603 11.547-1.158l.052.037Z" fill="#bc979d" fill-rule="evenodd" data-name="Path 1520"/></g><g data-name="Group 4440"><path d="M320.361 486.57c-.09 2.09-1.69 4.45-3.854 4.762a3.37 3.37 0 0 1-.768.022 3.63 3.63 0 0 1-.814-.16 5.048 5.048 0 0 1-1.136-.52c-.1-.061-.194-.122-.283-.182-.242-.164-.442-.32-.593-.44-.43-.337-2.817-1.842-2.777-4.489.005-.317.046-.634.12-.946.247-1.059.86-2.055 1.669-2.78a4.908 4.908 0 0 1 .693-.523 4.24 4.24 0 0 1 1.094-.491c2.1-.592 4.592.81 5.846 2.862a5.114 5.114 0 0 1 .251.453 5.223 5.223 0 0 1 .437 1.206l.007.033a4.546 4.546 0 0 1 .108 1.193Z" fill="#765c1c" fill-rule="evenodd" data-name="Path 1521"/><path d="M324.572 492.289c-.678.72-1.351 1.443-2.031 2.163-.056.059-.112.117-.166.177-.266-.308-.535-.615-.8-.922l-.01-.01c-.024-.03-.05-.058-.073-.086l-.868-.998-.443-.507-.006-.012-.007-.006a.07.07 0 0 0-.008-.009c-.183-.209-.365-.42-.547-.626l-.083-.096c-.145-.17-.29-.336-.435-.503.071-.096.145-.193.216-.292l.009-.012c.309-.414.617-.83.927-1.25l.006.005.56.388.583.401.295.204.742.513.96.66c.393.276.786.546 1.18.818Z" fill="#f0c55e" fill-rule="evenodd" data-name="Path 1522"/><path d="M321.69 490.298c-.103.646-.3 1.138-.505 1.345-.15.153-.521.318-1.025.436-1.09.257-2.806.3-4.278-.458a4.798 4.798 0 0 1-.533-.32l-.023-.016a4.635 4.635 0 0 1-.604-.503 15.676 15.676 0 0 1-.216-.216 18.01 18.01 0 0 1-.437-.458c-.2-.217-.392-.437-.573-.658a10.02 10.02 0 0 1-.484-.643c-.57-.828-.944-1.678-.962-2.534-.019-.846.31-1.697 1.138-2.535 1.751-1.772 3.554-1.254 5.272.027l.121.091a12.867 12.867 0 0 1 .824.688l.038.035.085.077.168.155c.168.158.335.319.5.483l.05.05.04.04c.055.058.11.118.161.178a5.036 5.036 0 0 1 .544.754c.786 1.337.878 2.881.7 3.982Z" fill="#ffde78" fill-rule="evenodd" data-name="Path 1523"/><path d="M320.991 486.316c0 .113-.01.175-.05.197-.078.042-.25-.061-.588-.446-.236-.27-.556-.68-.98-1.276l.016-.062a1.722 1.722 0 0 1 .085-.22c.087-.186.205-.321.335-.371a.288.288 0 0 1 .09-.022c.248-.02.595.28.834.666.1.16.214.639.25 1.316.004.087.007.159.008.218Z" fill="#ffde78" fill-rule="evenodd" data-name="Path 1524"/><path d="M319.864 484.435c-.122.035-.172.238-.17.363.006.253.229.463.423.541.13.052.194.026.268.103.077.081.051.155.135.333.034.072.121.235.159.223.053-.015.03-.381-.09-.714-.156-.431-.511-.91-.725-.85Z" fill="#f0c55e" fill-rule="evenodd" data-name="Path 1525"/><path d="M315.882 491.62c-.001.006-.004.012-.006.017-.032.061-.16.056-.414.046-.028 0-.054-.002-.08-.004a6.224 6.224 0 0 1-.384-.03c-.432-.046-.733-.126-.854-.2-.39-.235-.694-.578-.676-.827a.327.327 0 0 1 .038-.13c.084-.16.294-.3.563-.384l.068-.02c.184.129.35.247.5.357.232.168.424.314.583.441.249.2.415.352.52.468.116.13.154.214.142.267Z" fill="#ffde78" fill-rule="evenodd" data-name="Path 1526"/><path d="M313.786 490.584c.033-.122.236-.174.361-.173.253.002.465.222.546.416.054.128.028.193.107.266.08.076.155.05.334.132.072.033.236.118.225.156-.015.053-.381.034-.716-.082-.433-.15-.915-.5-.857-.715Z" fill="#f0c55e" fill-rule="evenodd" data-name="Path 1527"/><path d="M317.1 486.858c.017-.014.279.389.805.767.365.262.823.328 1.07.414l-.188 1.13c-.025-.162-.067-.786-.092-.948a3.18 3.18 0 0 1-.739-.403c-.571-.42-.875-.945-.856-.96Z" fill="#f0c55e" fill-rule="evenodd" data-name="Path 1528"/><path d="M314.89 489.436c.102.033.175-.617.694-.995a1.36 1.36 0 0 1 .369-.19c-.13-.002-.379.011-.633.151-.31.17-.449.431-.501.546-.002.38.035.477.071.488Z" fill="#f0c55e" fill-rule="evenodd" data-name="Path 1529"/><path d="M315.345 486.776c-.349-.095-1.22.62-1.463.933-.62.803-.26 1.454-.26 1.454s.13-.681.74-1.2c.61-.521 1.307-.49 1.315-.81.004-.16-.168-.332-.332-.377Z" fill="#765c1c" fill-rule="evenodd" data-name="Path 1530"/><path d="M314.907 489.684a1.73 1.73 0 0 0 .755-.315c.146-.108.484-.359.576-.806.048-.233 0-.243-.087-.046-.152.344-.31.34-.768.723a6.164 6.164 0 0 0-.476.444Z" fill="#150a06" fill-rule="evenodd" data-name="Path 1531"/><path d="M318.625 485.312c.043.099-.595.24-.917.795a1.364 1.364 0 0 0-.15.387 1.267 1.267 0 0 1 .084-.645 1.18 1.18 0 0 1 .49-.556c.378-.042.478-.016.493.02Z" fill="#f0c55e" fill-rule="evenodd" data-name="Path 1532"/><path d="M318.873 485.303c-.01.187-.055.481-.233.784-.093.157-.306.52-.742.658-.226.072-.24.025-.055-.082.327-.187.306-.344.639-.84.102-.152.231-.33.39-.52Z" fill="#150a06" fill-rule="evenodd" data-name="Path 1533"/><g data-name="Group 4439"><path d="M316.378 485.67c-.113-.343.557-1.25.857-1.509.77-.66 1.439-.334 1.439-.334s-.673.165-1.161.8c-.49.636-.422 1.331-.741 1.355-.16.013-.34-.15-.394-.312Z" fill="#765c1c" fill-rule="evenodd" data-name="Path 1534"/></g><path d="M319.542 484.696c-.323.077-.81.155-1.386.089-.89-.104-1.524-.498-2.029-.883-.399-.302-.72-.6-1.03-.744-.187-.09-.371-.124-.564-.067-1.037.304-.791 2.731-2.114 3.13-.338.101-.66.034-.87-.034a4.205 4.205 0 0 1 .298-2.335c.551-1.235 1.722-2.166 2.998-2.368a3.528 3.528 0 0 1 1.384.058c.478.11.944.313 1.372.6.85.561 1.56 1.442 1.941 2.554Z" fill="#765c1c" fill-rule="evenodd" data-name="Path 1535"/><path d="M319.662 483.86a2.693 2.693 0 0 1-.257.684c-.04.073-.084.142-.132.207a1.69 1.69 0 0 1-.657.55 1.791 1.791 0 0 1-.694.15 2.578 2.578 0 0 1-.779-.109 3.3 3.3 0 0 1-.616-.245 3.16 3.16 0 0 1-.86-.642c-.374-.405-.43-.746-.775-.797-.46-.07-.974.448-1.302.937a3.818 3.818 0 0 0-.179.3c-.237.447-.27.789-.315.78-.065-.013-.13-.76.27-1.411.025-.042.255-.406.608-.657.2-.141.44-.247.704-.237.458.016.61.361 1.203.808.099.075.437.33.873.552.17.088.355.17.547.235.396.133.817.189 1.19.056.143-.051.272-.128.386-.222.138-.114.255-.255.354-.408.04-.062.078-.127.113-.193.09-.17.16-.346.214-.513.127-.384.173-.718.183-.794a3.43 3.43 0 0 1-.079.97Z" fill="#937126" fill-rule="evenodd" data-name="Path 1536"/><path d="M318.78 490.816c.067.074.551-.229.87-.553.451-.46.706-1.104.615-1.165-.164-.112-1.618 1.572-1.485 1.718Z" fill="#f0c55e" fill-rule="evenodd" data-name="Path 1537"/><path d="M312.166 481.634c-.001.118-.005.23-.01.33-.006.131-.015.243-.021.325-.044.585-.096 1.148-.535 1.64-.467.523-1.091.65-1.341.686-.001 0-.003 0-.004.002-.441.199-.803.325-1.1.4-.616.155-.95.085-1.136-.016a.59.59 0 0 1-.134-.095c-.723-.676.126-3.036 1.6-4.343.313-.277 1.323-1.172 2.02-.852.495.225.633.967.658 1.619.003.105.004.206.003.304Z" fill="#765c1c" fill-rule="evenodd" data-name="Path 1538"/><path d="M312.791 480.68a1.9 1.9 0 0 1-.173.634 2.276 2.276 0 0 1-.462.65c-.245.243-.474.363-.507.339-.032-.024.114-.189.276-.466.081-.14.168-.311.237-.507.036-.104.068-.214.092-.331.184-.901-.19-1.732-.516-2.274.712.422 1.124 1.185 1.053 1.954Z" fill="#765c1c" fill-rule="evenodd" data-name="Path 1539"/><path d="M314.902 493.34c-.488.203-1.325-.73-1.314-.746.01-.013.635.654 1.015.487.287-.127.456-.739.395-1.432a2.857 2.857 0 0 0-.036-.267 3.012 3.012 0 0 0-.037-.188l-.01-.041a2.72 2.72 0 0 0-.077-.259 2.66 2.66 0 0 0-.298-.61c-.302-.451-.669-.662-1.044-.834-.53-.245-1.077-.414-1.476-1.083-.52-.871-.391-1.917-.28-1.94.107-.023.138.953.838 1.9.145.196.29.352.434.48.683.607 1.335.587 1.871 1.382.146.216.257.453.337.697.044.131.08.265.106.399l.002.012a.714.714 0 0 1 .009.047l.008.05c.017.095.029.19.037.285.07.798-.137 1.517-.48 1.66Z" fill="#937126" fill-rule="evenodd" data-name="Path 1540"/><path d="M310.99 480.95c-.313.212-1.424 1.017-1.777 2.51a4.043 4.043 0 0 0-.058 1.557c-.616.155-.95.085-1.136-.016.016-.5.12-1.227.532-1.982.775-1.425 2.089-1.943 2.44-2.069Z" fill="#937126" fill-rule="evenodd" data-name="Path 1541"/><path d="M312.035 484.725c-.015-.134-.17-1.688.932-2.588 1.306-1.067 3.14-.208 3.353-.104.49.238.83.546 1.036.765-1.251-1.081-2.959-1.207-4.09-.403-1.092.776-1.214 2.113-1.23 2.33Z" fill="#937126" fill-rule="evenodd" data-name="Path 1542"/><path d="M324.572 492.289c-.678.72-1.351 1.443-2.031 2.163-.056.059-.112.117-.166.177-.266-.308-.535-.615-.8-.922l-.01-.01c-.024-.03-.05-.058-.073-.086l-.868-.998-.443-.507-.006-.012-.007-.006a.076.076 0 0 0-.008-.009c-1.09.257-2.806.3-4.278-.458l-.006.016c-.032.061-.16.056-.414.046-.028 0-.054-.002-.08-.004.07.798-.137 1.517-.48 1.66-.488.204-1.325-.729-1.314-.745.01-.013.635.654 1.015.487.287-.127.456-.739.395-1.432-.432-.046-.733-.126-.854-.2-.39-.235-.694-.578-.676-.827a.328.328 0 0 1 .038-.13c-.242-.164-.442-.321-.593-.44-.43-.337-2.817-1.842-2.777-4.489.005-.317.046-.634.12-.946-.442.2-.804.325-1.1.4-.617.155-.95.085-1.137-.016a.59.59 0 0 1-.134-.094c-.723-.677.126-3.037 1.6-4.344.313-.277 1.323-1.172 2.02-.852.495.225.633.967.658 1.619.036-.104.067-.214.091-.331.184-.901-.19-1.732-.516-2.274.712.422 1.124 1.185 1.053 1.954a1.9 1.9 0 0 1-.173.635 4.241 4.241 0 0 1 1.094-.491c2.1-.592 4.592.81 5.846 2.862a4.41 4.41 0 0 0 .183-.794c.019.336-.008.665-.079.97.052.091.101.183.147.277a.288.288 0 0 1 .09-.022c.248-.02.595.28.834.666.1.16.214.639.25 1.316.004.087.007.159.008.218.786 1.337.878 2.881.7 3.982l.742.513.96.66c.393.276.786.546 1.18.818Z" fill="#7e99e5" fill-rule="evenodd" data-name="Path 1543"/></g><g data-name="Group 4441"><path d="M367.131 501.758c-4.165-.008-8.694.217-13.52.8-12.947 1.564-23.727 5.19-31.918 8.8-3.747-3.658-6.248-6.452-7.896-8.593-2.756-3.577-3.131-5.33-2.957-6.227a1.517 1.517 0 0 1 .213-.54c.2-.313.425-.922 6.48-2.24 2.534-.552 4.345-1.474 5.78-2.5 2.081-1.488 3.374-3.193 4.942-4.305.736-.523 1.532-.914 2.499-1.09a3.89 3.89 0 0 1 .138-.025c4.212-.67 7.752-.219 11.52.56l.269.056a202.088 202.088 0 0 0 3.588.676c2.872.523 6.45 1.164 10.154 1.95 3.545.751 7.204 1.637 10.468 2.678l.143 5.937.01.405.087 3.658Z" fill="#8e91c2" fill-rule="evenodd" data-name="Path 1544"/><path d="m321.84 492.631.181-.06a.81.81 0 0 1-.182.06Z" fill="#c0dbff" fill-rule="evenodd" data-name="Path 1545"/><path d="M328.255 486.953c.23-.098.444-.19.67-.279-2.234 1.575-3.746 4.794-6.904 5.896.399-.182.834-.689 1.292-1.312 2.081-1.488 3.374-3.193 4.942-4.305Z" fill="#c0dbff" fill-rule="evenodd" data-name="Path 1546"/><path d="M356.891 489.678c-.512.995-10.27-1.666-18.079-3.2-3.937-.772-6.616-.946-9.36 0-.188.066-.361.13-.528.196.553-.39 1.152-.68 1.83-.812a3.87 3.87 0 0 1 .138-.024c4.212-.67 7.752-.219 11.52.56l.269.056a87.2 87.2 0 0 0 3.588.676c2.872.523 6.45 1.164 10.154 1.95.332.267.53.478.468.598Z" fill="#c0dbff" fill-rule="evenodd" data-name="Path 1547"/><path d="M314.656 495.89c.099-.48 2.418.308 6.453-.403 5.133-.905 6.613-6.82 11.04-6.849 2.489-.016 5.003.648 5.025 1.276.038 1.04-6.997 5.41-6.964 6.311.044 1.21 12.314 1.141 12.362 2.149.035.736-6.442 2.306-13.72 1.746-7.683-.592-14.366-3.411-14.196-4.23Z" fill="#bc979d" fill-rule="evenodd" data-name="Path 1548"/><path d="M367.131 501.758c-4.165-.008-8.694.217-13.52.8-12.947 1.564-23.727 5.19-31.918 8.8-3.747-3.658-6.248-6.452-7.896-8.593a31.224 31.224 0 0 1-1.17-1.614c-1.694-2.514-1.933-3.863-1.787-4.613a1.518 1.518 0 0 1 .168-.465c.335.89.907 2.201 2.045 3.525 4.473 5.21 12.751 4.873 14.56 4.8 6.571-.266 10.342-1.918 14.96-4.8 27.307-17.049.997-5.787 24.46-1.903l.01.405a3177.364 3177.364 0 0 1 .088 3.658Z" fill="#bc979d" fill-rule="evenodd" data-name="Path 1549"/></g><path d="M0 18.105a26.626 18.205 0 1 1 0 .1z" fill-rule="evenodd" fill="url(&quot;#b&quot;)" transform="translate(236 444.08)" data-name="Ellipse 101"/><g data-name="Group 4444"><g data-name="Group 4443"><path d="m292.493 485.518-.56 2.56h-2.72l-2.64 24.96h-2.64l-.003.017-.601 3.008-.035.175h-1.68l-.48-3.12-8.48.08-.64 3.04h-1.68l-.88-3.04h-6.32l-.72 3.04h-1.68l-1.04-3.12h-5.84l-.88 3.12h-1.36l-.88-3.12-1.36-.08-3.6-24.96h-3.12l-.72-2.56h50.56Z" fill="#495276" fill-rule="evenodd" data-name="Path 1551"/><path d="M265.471 513.198h-2.337l-.72 3.04h-1.68l-1.026-3.079-.014-.041h-5.84l-.003.014-.876 3.106h-1.36l-.88-3.12-1.36-.08-3.6-24.96h16.48l3.197 24.968.019.152Z" fill="#495276" fill-rule="evenodd" data-name="Path 1552"/><path d="m283.93 513.055-.601 3.008-.035.175h-1.68l-.48-3.12-8.48.08-.64 3.04h-1.68l-.88-3.04h-3.983l18.46-.143Z" fill="#29314b" fill-rule="evenodd" data-name="Path 1553"/><path d="m241.935 485.518.72 2.56h17.628l-.49-2.56h-17.858Z" fill="#495276" fill-rule="evenodd" data-name="Path 1554"/><path d="M262.254 488.078h26.96l-.1.933-26.411 2.57-.449-3.503Z" fill="#495276" fill-rule="evenodd" data-name="Path 1555"/><path d="m266.014 489.838 1.6 21.68 17.92-.08 2.56-21.6-3.04 20.64h-15.68l-2-19.84-1.36-.8Z" fill="#495276" fill-rule="evenodd" data-name="Path 1556"/><path d="M267.214 490.638h20.762l.118-.8h-22.08l1.2.8Z" fill="#cad290" fill-rule="evenodd" data-name="Path 1557"/><path d="m268.22 499.038 19.072-3.76.802-4.64h-20.88l1.007 8.4Z" fill="#cad290" fill-rule="evenodd" data-name="Path 1558"/><path d="m282.522 494.944-.014.033a.233.233 0 0 0-.027-.033.07.07 0 0 0 .029 0c.01-.001.013-.004.012 0Z" fill="#f6ffa9" fill-rule="evenodd" data-name="Path 1559"/><g data-name="Group 4442"><path d="M272.654 495.478c0 .031 0 .063-.002.094a1.969 1.969 0 0 1-.123.613 1.006 1.006 0 0 1-.16.281c-.093.11-.2.172-.315.172-.331 0-.6-.519-.6-1.16 0-.625.256-1.134.575-1.158.008-.002.017-.002.025-.002.038 0 .074.007.11.02.186.067.341.299.424.614.024.088.042.184.053.285l.005.051v.008c.006.06.008.12.008.182Z" fill="#883e0c" fill-rule="evenodd" data-name="Path 1560"/><path d="M283.214 495.105c0 .41-.144.76-.344.89a.335.335 0 0 1-.176.057c-.147 0-.28-.111-.375-.29a1.37 1.37 0 0 1-.142-.55 1.556 1.556 0 0 1-.003-.107v-.016a1.43 1.43 0 0 1 .095-.531l.002-.001c.09-.23.235-.385.4-.397.008-.002.015-.002.023-.002.073 0 .143.027.206.078.169.133.291.424.311.77.002.032.003.065.003.099Z" fill="#883e0c" fill-rule="evenodd" data-name="Path 1561"/><path d="M282.686 495.01c-.006-.038-.056-.022-.119.007-.033.016-.07.036-.105.052h-.001a.514.514 0 0 1-.046.021c-.064.027-.119.037-.14-.006l-.026-.046-.015-.022a.404.404 0 0 0-.019-.022l-.001-.001c-.011-.012-.022-.024-.034-.033l-.011-.01a.278.278 0 0 0-.059-.029l-.004-.001a.177.177 0 0 0-.141.01.319.319 0 0 0-.1.083c-.09.118-.12.213-.161.306-.036.093-.068.181-.1.269-.122.346-.243.666-.397.92h-.001c-.08.124-.161.23-.256.318-.045.049-.1.082-.148.123-.055.033-.103.073-.161.1a2.094 2.094 0 0 1-.726.215c-.256.03-.522.027-.79 0a6.693 6.693 0 0 1-.81-.121 10.91 10.91 0 0 1-.815-.2 19.422 19.422 0 0 1-.819-.245l-.823-.263c-.5-.166-1-.355-1.503-.549l-.125-.049c-.273-.105-.548-.212-.827-.31a7.676 7.676 0 0 0-.757-.23l-.006-.002-.047-.01a1.52 1.52 0 0 0-.16-.028 1.626 1.626 0 0 0-.2-.017.362.362 0 0 1 .071-.076c.022-.017-.081.024-.19.07l-.02.01-.02.001a.841.841 0 0 0-.25.068c-.004.003-.008.003-.01.006.005 0 .023-.006.05-.013.059-.018.16-.05.228-.062-.114.05-.224.1-.198.096a.594.594 0 0 1 .175.007l.031.006a.863.863 0 0 0-.096.32 2.11 2.11 0 0 0 .092.441c0-.007 0-.014.002-.022 0-.012 0-.022-.002-.033a2.362 2.362 0 0 1 .023-.499 1.022 1.022 0 0 1 .05-.19c.075.02.152.05.23.083l.05.022.023.01.067.031a3.596 3.596 0 0 1 .253.13c.144.076.288.16.432.242.26.148.523.3.788.447a15.38 15.38 0 0 0 1.635.792c.281.115.553.211.834.314.28.098.562.187.849.269.286.078.577.146.87.2.295.046.592.083.895.087.302.004.608-.011.918-.085.153-.032.306-.081.457-.144l.006-.002c.109-.05.218-.102.324-.168.043-.027.086-.056.128-.088.075-.049.145-.114.215-.175.067-.071.136-.136.197-.217.126-.154.237-.336.32-.526.11-.246.186-.5.246-.75.033-.136.06-.27.086-.4.02-.093.037-.183.056-.267.011-.052.026-.105.037-.143a1.117 1.117 0 0 1 .06.138.085.085 0 0 0 .032.042c.054.037.154.016.245.008l.01-.001c.085-.007.159-.002.176.075.044.182.08.369.12.555 0-.057.002-.114.004-.172 0-.024 0-.05.002-.076a4.727 4.727 0 0 0-.048-.59Zm-10.571.231a.088.088 0 0 1 .029 0l-.03.001h-.013.014Z" fill="#883e0c" fill-rule="evenodd" data-name="Path 1562"/><path d="M272.814 495.318v.02a2.245 2.245 0 0 1-.067.547l-.013.048a1.19 1.19 0 0 1-.042.131c-.08.213-.194.361-.324.402a.235.235 0 0 1-.074.012c-.287 0-.52-.52-.52-1.16a2.354 2.354 0 0 1 .01-.228v-.004l.012-.1c0-.009.002-.016.004-.024.003-.026.007-.052.012-.077l.012-.06a1.622 1.622 0 0 1 .097-.313.927.927 0 0 1 .108-.192.397.397 0 0 1 .187-.148.217.217 0 0 1 .078-.014c.206 0 .384.268.469.656a2.274 2.274 0 0 1 .048.371c.002.044.003.088.003.133Z" fill="#f6ffa9" fill-rule="evenodd" data-name="Path 1563"/><path d="m272.747 495.885-.013.047a1.19 1.19 0 0 1-.042.132c-.08.213-.194.361-.324.402a.235.235 0 0 1-.074.012c-.287 0-.52-.52-.52-1.16a2.353 2.353 0 0 1 .01-.228v-.004l.012-.1c0-.009.002-.016.004-.024a1.31 1.31 0 0 1 .012-.077l.012-.06a2.328 2.328 0 0 0 .04.472v.01c.026.29.1.54.204.709.01.015.018.03.028.043.08.114.176.18.278.18a.262.262 0 0 0 .155-.054.464.464 0 0 0 .109-.108.915.915 0 0 0 .109-.192Z" fill="#f6ffa9" fill-rule="evenodd" data-name="Path 1564"/><path d="M272.814 495.318v.02a2.245 2.245 0 0 1-.067.547l-.013.048c-.012.046-.026.09-.042.131a.217.217 0 0 1-.054.013l-.024.001a.29.29 0 0 1-.046-.004.271.271 0 0 1-.078-.03.271.271 0 0 1-.043-.027c-.131-.099-.24-.312-.3-.587l-.014-.07-.009-.05-.01-.068v-.008a2.482 2.482 0 0 1 .05-.896c.016-.059.033-.114.052-.166a.217.217 0 0 1 .078-.014c.206 0 .384.268.469.656a2.278 2.278 0 0 1 .048.371c.002.044.003.088.003.133Z" fill="#f6ffa9" fill-rule="evenodd" data-name="Path 1565"/><path d="M283.274 495.032v.006c0 .511-.179.929-.404.958a.135.135 0 0 1-.054 0 .19.19 0 0 1-.021-.004c-.182-.047-.33-.347-.37-.737a1.334 1.334 0 0 1-.01-.165l-.001-.052c0-.098.006-.193.018-.282.018-.127.047-.243.085-.34a.715.715 0 0 1 .154-.256.247.247 0 0 1 .173-.082.2.2 0 0 1 .05.007c.213.054.379.456.38.947Z" fill="#f6ffa9" fill-rule="evenodd" data-name="Path 1566"/><path d="M283.274 495.032a.25.25 0 0 1-.063-.027c-.16-.097-.284-.397-.31-.77a1.826 1.826 0 0 1-.007-.15c.213.054.379.456.38.947Z" fill="#f6ffa9" fill-rule="evenodd" data-name="Path 1567"/><path d="M282.775 494.911c-.017-.103-.032-.207-.086-.326l-.026-.046-.013-.022-.02-.024a.367.367 0 0 0-.043-.042.289.289 0 0 0-.06-.031l-.01-.004a.18.18 0 0 0-.123.016.303.303 0 0 0-.094.082.958.958 0 0 0-.03.043c-.064.099-.09.182-.124.263a6.23 6.23 0 0 0-.094.269c-.116.346-.232.667-.38.92-.074.124-.152.23-.242.318-.043.049-.094.082-.14.123-.029.018-.056.038-.083.058a1.838 1.838 0 0 1-.758.257c-.06.007-.12.012-.18.015h-.003a3.483 3.483 0 0 1-.568-.015 6.036 6.036 0 0 1-.769-.121 9.568 9.568 0 0 1-.774-.201c-.26-.073-.518-.157-.778-.244l-.782-.263a32.884 32.884 0 0 1-1.546-.598c-.26-.105-.52-.212-.785-.31a8.42 8.42 0 0 0-.152-.056 4.528 4.528 0 0 0-.668-.197 1.502 1.502 0 0 0-.443-.029.76.76 0 0 0-.237.067l-.001.001a.58.58 0 0 0-.216.19.88.88 0 0 0-.115.253l-.012.05a1.4 1.4 0 0 0-.017.445c.01.092.024.18.044.265.012.06.028.12.045.177l.002.008v-.03a3.27 3.27 0 0 1-.004-.128c-.003-.139.002-.275.023-.404.007-.043.015-.084.026-.124a.628.628 0 0 1 .101-.221l.006-.006a.296.296 0 0 1 .043-.045.302.302 0 0 1 .122-.059.126.126 0 0 1 .02-.005.531.531 0 0 1 .167.007c.116.022.238.07.36.128.243.113.489.264.736.413.087.052.174.104.261.158.162.097.325.194.488.289l.022.013a18.917 18.917 0 0 0 .756.414c.255.13.513.253.774.365.267.115.525.211.792.314.265.098.534.187.806.27.272.077.547.145.826.198.28.047.562.084.85.088a3.425 3.425 0 0 0 .871-.084c.147-.034.295-.084.44-.147a2.915 2.915 0 0 0 .271-.145l.003-.001a1.047 1.047 0 0 0 .078-.052.992.992 0 0 0 .078-.058c.07-.049.137-.114.204-.175.064-.071.13-.136.187-.217.12-.154.225-.336.304-.526.093-.22.16-.447.214-.67.04-.163.071-.325.101-.48l.005-.027.007-.036.027-.14.003-.01a1.052 1.052 0 0 1 .02-.093l.008-.035.018-.07c.02.04.04.09.057.14l.002.006c.055.159.095.337.134.517.011.047.022.095.031.143.022.104.042.21.063.315l.007.039.012.058.001-.064.001-.03.004-.154c.006-.304 0-.61-.045-.93Zm-.3-.086c-.023-.018-.01-.017.001-.004l.005.005h-.007Z" fill="#f6ffa9" fill-rule="evenodd" data-name="Path 1568"/><path d="M279.698 496.765a6.026 6.026 0 0 1-.77-.121 9.526 9.526 0 0 1-.773-.201c-.26-.073-.518-.157-.778-.244l-.782-.263a32.9 32.9 0 0 1-1.546-.598c-.26-.105-.52-.212-.785-.31-.05-.02-.101-.038-.152-.056.136.081.273.163.41.243.505.294 1.023.565 1.553.792.267.115.525.211.792.314.265.098.534.187.806.269.272.079.547.146.826.2.28.046.562.083.85.087a3.359 3.359 0 0 0 .917-.096 3.49 3.49 0 0 1-.568-.016Z" fill="#f6ffa9" fill-rule="evenodd" data-name="Path 1569"/><path d="M282.82 495.841c0 .052-.002.104-.004.155v.03l-.002.063a32.302 32.302 0 0 1-.02-.097c-.02-.105-.04-.21-.062-.315a4.086 4.086 0 0 0-.031-.143 4.551 4.551 0 0 0-.134-.517l-.002-.007c-.018-.05-.038-.1-.057-.138l-.018.069-.008.035a.847.847 0 0 0-.02.093h-.001c0 .004 0 .007-.002.01l-.027.14a2.503 2.503 0 0 0-.007.036l-.005.027c-.03.155-.061.317-.1.48a4.19 4.19 0 0 1-.215.67c-.08.19-.185.372-.304.526-.058.081-.123.146-.187.217-.067.06-.134.126-.204.175a1.015 1.015 0 0 1-.117.084 1.075 1.075 0 0 1-.04.026l-.002.001a2.89 2.89 0 0 1-.271.145 2.526 2.526 0 0 1-.51.163c-.27.06-.537.072-.802.068a5.66 5.66 0 0 1-.849-.088 9.077 9.077 0 0 1-.826-.199c-.272-.082-.54-.171-.806-.269-.267-.103-.525-.199-.792-.314a12.86 12.86 0 0 1-1.203-.594c-.11-.06-.218-.122-.327-.185l-.022-.013a49.768 49.768 0 0 1-.749-.447c-.247-.15-.493-.3-.736-.413a1.523 1.523 0 0 0-.36-.128.532.532 0 0 0-.166-.007.132.132 0 0 0-.021.005.303.303 0 0 0-.122.059.302.302 0 0 0-.043.045l-.006.006a.628.628 0 0 0-.101.221c-.01.04-.02.081-.026.125a2.157 2.157 0 0 0-.023.403c0 .043.002.085.003.128l-.001.022a2.071 2.071 0 0 1-.045-.177 1.979 1.979 0 0 1-.043-.265c.004-.035.01-.07.016-.106a.902.902 0 0 1 .127-.302.69.69 0 0 1 .094-.107.539.539 0 0 1 .166-.103.796.796 0 0 1 .194-.049c.155-.017.301.004.443.03.285.058.554.152.82.252.265.098.526.206.785.31.519.21 1.031.419 1.546.598l.782.263c.26.087.519.171.778.245.258.077.516.145.774.2.258.057.514.098.769.121.254.027.506.03.75 0 .042-.006.083-.012.124-.02.2-.035.391-.095.565-.195.054-.027.1-.067.153-.1.046-.04.097-.074.14-.123.09-.088.168-.193.243-.317a3.51 3.51 0 0 0 .233-.507c.05-.131.098-.27.146-.414l.091-.261.004-.008c.01-.023.018-.046.027-.07.012-.03.025-.062.041-.095a.853.853 0 0 1 .084-.14.302.302 0 0 1 .095-.083.2.2 0 0 1 .038-.015.143.143 0 0 1 .095.004c.021.007.042.017.06.03.015.012.03.027.043.043l.02.024.013.021.026.047c.054.118.069.222.086.325.028.202.041.398.045.591Z" fill="#f6ffa9" fill-rule="evenodd" data-name="Path 1570"/><path d="m281.254 497.46-.003.001a2.864 2.864 0 0 1-.271.145 2.518 2.518 0 0 1-.44.146 3.423 3.423 0 0 1-.872.085 5.657 5.657 0 0 1-.849-.088 9.064 9.064 0 0 1-.826-.199 14.73 14.73 0 0 1-.806-.269c-.267-.103-.525-.199-.792-.314a12.867 12.867 0 0 1-1.203-.594c-.11-.06-.218-.122-.327-.185.934.45 1.76.775 2.429 1.01 1.403.492 2.225.627 3.12.48a4.925 4.925 0 0 0 .84-.218Z" fill="#f6ffa9" fill-rule="evenodd" data-name="Path 1571"/><path d="M283.274 495.032v.006c0 .511-.179.929-.404.958a.332.332 0 0 1-.055.03l-.001.063-.012-.058a.297.297 0 0 1-.108.02c-.147 0-.28-.11-.375-.29a4.19 4.19 0 0 1-.214.67c-.08.191-.185.373-.304.527-.058.081-.123.146-.187.217-.067.06-.134.126-.204.175a1.04 1.04 0 0 1-.117.084 1.013 1.013 0 0 1-.04.026l-.002.001a2.896 2.896 0 0 1-.271.145 2.52 2.52 0 0 1-.51.163 2.686 2.686 0 0 1-.457.143c-.31.074-.616.09-.918.085a6.278 6.278 0 0 1-.895-.088 9.947 9.947 0 0 1-.87-.199c-.287-.082-.57-.171-.849-.269-.28-.103-.553-.199-.834-.314a15.364 15.364 0 0 1-1.635-.792c-.265-.147-.528-.299-.788-.447-.144-.083-.288-.166-.432-.242a2.058 2.058 0 0 1-.045.24l-.013.047a1.19 1.19 0 0 1-.043.131c-.08.213-.193.361-.323.402-.092.11-.199.172-.314.172-.331 0-.6-.52-.6-1.16 0-.625.256-1.134.575-1.158a.397.397 0 0 1 .187-.148.217.217 0 0 1 .078-.014c.206 0 .384.268.469.656h.001a.76.76 0 0 1 .237-.068c.154-.017.301.003.443.029.23.046.452.118.668.197l.152.056c.265.098.526.205.785.31.519.21 1.031.419 1.546.598l.782.263c.26.087.518.171.778.244.258.077.516.146.774.2.258.058.514.1.769.122.192.02.382.027.569.016h.001c.06-.004.121-.01.18-.016a1.839 1.839 0 0 0 .759-.257c.154-.254.275-.574.398-.92.031-.087.063-.176.1-.269.04-.093.07-.188.16-.306a.319.319 0 0 1 .1-.082.177.177 0 0 1 .14-.011l.006.001c.01-.033.023-.067.036-.101.033-.081.06-.164.123-.263.09-.23.236-.385.4-.397a.247.247 0 0 1 .174-.082c.017 0 .034.003.05.007.213.054.379.456.38.947Z" fill="#36383b" fill-rule="evenodd" data-name="Path 1572"/></g><path d="m292.136 485.518-.523 2.24-31.359.32-.624-2.56h32.506Z" fill="#cad290" fill-rule="evenodd" data-name="Path 1573"/><path d="m245.775 488.078.468 3.248 16.491.272-.48-3.52h-16.48Z" fill="#495276" fill-rule="evenodd" data-name="Path 1574"/></g><path d="m249.375 513.038 16.08.16-3.2-25.12 2.4 24.32-15.28.64Z" fill="#495276" fill-rule="evenodd" data-name="Path 1575"/></g><g data-name="Group 4457"><path d="M280.493 480.14c0 2.594-2.005 4.696-4.479 4.696-2.475 0-4.48-2.102-4.48-4.696s2.005-4.698 4.48-4.698c2.474 0 4.48 2.104 4.48 4.698Z" fill="#a95371" fill-rule="evenodd" data-name="Path 1590"/><path d="M274.583 484.37c0 .038-.008.08-.026.119l-.421.94c-.045.1-.134.154-.212.134a.125.125 0 0 1-.03-.012c-.053-.03-.083-.096-.083-.17 0-.039.008-.079.026-.118l.421-.942a.22.22 0 0 1 .145-.132.131.131 0 0 1 .096.012c.054.03.084.096.084.169Z" fill="#ffe3a9" fill-rule="evenodd" data-name="Path 1591"/><path d="M274.517 484.37c0 .038-.009.08-.027.119l-.42.94c-.033.073-.088.121-.146.134a.123.123 0 0 1-.03-.012c-.053-.03-.083-.096-.083-.17 0-.039.008-.079.026-.118l.421-.942a.22.22 0 0 1 .145-.132.12.12 0 0 1 .03.012c.054.03.084.096.084.169Z" fill="#ffe3a9" fill-rule="evenodd" data-name="Path 1592"/><path d="M279.85 485.427c0 .074-.023.134-.067.159a.078.078 0 0 1-.017.007c-.081.028-.195-.06-.264-.206l-.611-1.307a.506.506 0 0 1-.051-.212c0-.037.006-.07.017-.098a.12.12 0 0 1 .05-.06c.081-.046.207.042.28.199l.612 1.307a.51.51 0 0 1 .05.211Z" fill="#ffe3a9" fill-rule="evenodd" data-name="Path 1593"/><path d="M279.783 485.494a.267.267 0 0 1-.017.1c-.081.027-.195-.06-.264-.207l-.611-1.307a.506.506 0 0 1-.051-.211c0-.038.006-.071.017-.1.082-.026.196.06.264.206l.611 1.308a.509.509 0 0 1 .051.21Z" fill="#ffe3a9" fill-rule="evenodd" data-name="Path 1594"/><path d="M273.851 476.9a.727.727 0 0 1-.056.044.785.785 0 0 1-.43.163c-.08 0-.147-.025-.184-.076l-.767-1.077c-.064-.09-.023-.237.091-.378a.979.979 0 0 1 .188-.175.79.79 0 0 1 .43-.162c.081 0 .147.025.185.076l.767 1.078c.085.118-.015.337-.224.508Z" fill="#ffe3a9" fill-rule="evenodd" data-name="Path 1595"/><path d="M273.851 476.9a.72.72 0 0 1-.056.044.785.785 0 0 1-.43.163c-.08 0-.147-.025-.184-.076l-.767-1.077c-.064-.09-.023-.237.091-.378a.872.872 0 0 1 .055-.042.79.79 0 0 1 .43-.162c.081 0 .148.024.185.076l.767 1.077c.064.09.023.236-.09.376Z" fill="#ffe3a9" fill-rule="evenodd" data-name="Path 1596"/><path d="m280.088 476.182-.55.818c-.021.033-.064.048-.12.048a.33.33 0 0 1-.036-.002.982.982 0 0 1-.42-.175c-.25-.17-.402-.385-.335-.483l.548-.818c.018-.026.05-.041.091-.046a.215.215 0 0 1 .031-.002c.115 0 .286.063.455.177.25.169.4.385.336.483Z" fill="#ffe3a9" fill-rule="evenodd" data-name="Path 1597"/><path d="m280.021 476.182-.549.818c-.017.026-.049.041-.09.046a.982.982 0 0 1-.42-.175c-.25-.17-.402-.385-.335-.483l.548-.818c.018-.026.05-.041.091-.046a.99.99 0 0 1 .42.175c.25.169.4.385.335.483Z" fill="#ffe3a9" fill-rule="evenodd" data-name="Path 1598"/><path d="M281.147 480.194c0 2.594-1.895 4.697-4.234 4.697s-4.235-2.103-4.235-4.697 1.896-4.697 4.235-4.697c2.339 0 4.234 2.103 4.234 4.697Z" fill="#d57491" fill-rule="evenodd" data-name="Path 1599"/><g data-name="Group 4456"><path d="M279.386 477.915c-.593-.78-1.48-1.277-2.473-1.277-1.785 0-3.232 1.604-3.232 3.584 0 1.417.742 2.642 1.819 3.223.426.232.906.361 1.413.361 1.784 0 3.23-1.605 3.23-3.584a3.81 3.81 0 0 0-.757-2.307Z" fill="#efefef" fill-rule="evenodd" data-name="Path 1600"/><path d="M280.193 480.222c0 1.915-1.353 3.479-3.057 3.579 1.391-.4 2.418-1.801 2.418-3.47 0-.88-.285-1.682-.758-2.307-.592-.78-1.48-1.277-2.472-1.277-.059 0-.117.002-.175.006a2.94 2.94 0 0 1 .813-.115c.993 0 1.88.497 2.473 1.277.473.625.758 1.428.758 2.307Z" fill="#d6d6d6" fill-rule="evenodd" data-name="Path 1601"/><path d="M276.978 478.05c0 .02-.03.035-.065.035-.036 0-.065-.016-.065-.035v-1.004c0-.02.03-.036.065-.036.036 0 .065.016.065.036v1.004Z" fill="#51463d" fill-rule="evenodd" data-name="Path 1602"/><path d="M276.978 483.467c0 .02-.03.036-.065.036-.036 0-.065-.016-.065-.036v-1.004c0-.02.03-.036.065-.036.036 0 .065.016.065.036v1.004Z" fill="#51463d" fill-rule="evenodd" data-name="Path 1603"/><path d="M278.932 480.329c-.017 0-.032-.033-.032-.073 0-.04.015-.072.032-.072h.906c.017 0 .031.032.031.072 0 .04-.014.073-.031.073h-.906Z" fill="#51463d" fill-rule="evenodd" data-name="Path 1604"/><path d="M274.001 480.329c-.017 0-.032-.033-.032-.073 0-.04.015-.072.032-.072h.905c.019 0 .033.032.033.072 0 .04-.014.073-.033.073h-.905Z" fill="#51463d" fill-rule="evenodd" data-name="Path 1605"/><g data-name="Group 4455"><path d="m276.883 480.157.095.165-1.88 1.329-.202.03.106-.195 1.881-1.329Z" fill="#f13030" fill-rule="evenodd" data-name="Path 1606"/><g data-name="Group 4454"><path d="M276.92 479.89c.171-.012.32.132.33.323.01.191-.12.356-.291.368-.173.012-.321-.134-.332-.325-.01-.19.12-.354.293-.367Z" fill="#51463d" fill-rule="evenodd" data-name="Path 1607"/><path d="m276.894 479.918-.248.275-.847-.95-.017-.315.265.039.847.95Z" fill="#51463d" fill-rule="evenodd" data-name="Path 1608"/><path d="m276.99 480.42.07-.288 2.158.639.145.191-.214.098-2.16-.64Z" fill="#51463d" fill-rule="evenodd" data-name="Path 1609"/></g></g></g><path d="M275.152 475.23c-.014-.045-.024-.093-.045-.136-.342-.675-1.434-.809-2.44-.299-1.005.51-1.543 1.47-1.201 2.145.022.043.054.077.083.116l3.603-1.825Z" fill="#d57491" fill-rule="evenodd" data-name="Path 1610"/><path d="M277.51 475.083c.017-.045.028-.092.052-.134.375-.657 1.472-.737 2.45-.179.98.56 1.47 1.544 1.096 2.202-.024.042-.059.074-.09.112l-3.508-2Z" fill="#d57491" fill-rule="evenodd" data-name="Path 1611"/><path d="M274.723 474.957c.025.254-.466.51-1.095.57-.629.06-1.159-.098-1.183-.352-.025-.255.466-.51 1.095-.57.63-.06 1.159.097 1.183.352Z" fill="#c4a8c8" fill-rule="evenodd" data-name="Path 1612"/><path d="M281.044 476.343c-.16.2-.69.04-1.182-.357-.492-.396-.761-.879-.6-1.078.16-.2.689-.04 1.181.356.492.397.761.88.601 1.079Z" fill="#c4a8c8" fill-rule="evenodd" data-name="Path 1613"/></g><g data-name="Group 4458"><path d="M256.374 477.337a6.009 8.081 0 1 1 0 .1z" fill="#e9c7bf" fill-rule="evenodd" data-name="Ellipse 105"/><path d="M260.789 477.58a4.946 3.678 77.674 1 1 .02.098z" fill="#e9c7bf" fill-rule="evenodd" data-name="Ellipse 106"/><path d="M267.032 482.455c-1.103 1.807-2.776 2.96-4.65 2.96-3.318 0-6.008-3.618-6.008-8.081 0-3.057 1.26-5.716 3.121-7.09-.85 1.395-1.36 3.178-1.36 5.121 0 4.463 2.69 8.081 6.01 8.081 1.045 0 2.03-.36 2.887-.991Z" fill="#e9c7bf" fill-rule="evenodd" data-name="Path 1614"/><path d="m256.685 453.92-8.91 17.923 29.32-.207-9.325-17.717h-11.085Z" fill="#dd9680" fill-rule="evenodd" data-name="Path 1615"/><path d="M256.685 453.92h9.983l-6.054.435-3.619 17.488h-9.22l8.91-17.924Z" fill="#dd9680" fill-rule="evenodd" data-name="Path 1616"/><path d="m262.072 454.54-1.966 17.216 2.575-.019-.609-17.196Z" fill="#dd9680" fill-rule="evenodd" data-name="Path 1617"/><path d="m267.045 454.54 5.017 17.131 5.032-.035-8.91-16.991-1.14-.104Z" fill="#dd9680" fill-rule="evenodd" data-name="Path 1618"/></g><path d="m156.647 356.71 6.72-13.68 27.971-.168 5.948 13.848h-40.64Z" fill-rule="evenodd" fill="url(&quot;#c&quot;)" transform="translate(85.288 128.809)" data-name="Path 1619"/><path d="m250.735 513.118 3.116.014-.876 3.106h-1.36l-.88-3.12Z" fill="#294b3a" fill-rule="evenodd" data-name="Path 1620"/><path d="M263.259 513.198h-.125l-.72 3.04h-1.68l-1.026-3.079 3.547.017.004.022Z" fill="#294b3a" fill-rule="evenodd" data-name="Path 1621"/></g><defs><radialGradient fx=".5" fy=".5" cx=".5" cy=".5" fr="0" r="4.328" gradientTransform="matrix(.08197 0 0 1 .459 0)" id="a"><stop stop-color="#ff9569" offset="0"/><stop stop-color="#a15e42" offset=".348"/><stop stop-color="#2e1b13" offset=".8"/><stop offset="1"/></radialGradient><radialGradient fx=".5" fy=".5" cx=".5" cy=".5" fr="0" r=".682" gradientTransform="matrix(.68372 0 0 .796 .158 -.121)" id="b"><stop stop-color="#ffe861" offset="0"/><stop stop-color="#a1933d" offset=".348"/><stop stop-color="#2e2a11" offset=".8"/><stop offset="1"/></radialGradient><linearGradient x1=".474" y1="2.588" x2=".524" y2="-.471" id="c"><stop offset=".38"/><stop stop-color="#ffdb63" offset="1"/></linearGradient></defs></svg>