<svg xmlns="http://www.w3.org/2000/svg" width="90.003" height="98.222" viewBox="290 570.778 90.003 98.222"><g data-name="Group 4437"><g data-name="Background Complete"><g data-name="Group 4403"><path d="M302.95 655.235h18.223v5.337h0-18.222 0v-5.337h0z" stroke-linejoin="round" stroke-linecap="round" stroke="#ebebeb" fill="transparent" data-name="Rectangle 184"/><path d="M292.786 648.505h18.222v5.337h0-18.222 0v-5.337h0z" stroke-linejoin="round" stroke-linecap="round" stroke="#ebebeb" fill="transparent" data-name="Rectangle 185"/><path d="M359.368 648.505h18.222v5.337h0-18.222 0v-5.337h0z" stroke-linejoin="round" stroke-linecap="round" stroke="#ebebeb" fill="transparent" data-name="Rectangle 186"/><path d="M313.116 648.505h18.222v5.337h-18.222v-5.337z" fill="#ebebeb" fill-rule="evenodd" data-name="Rectangle 187"/><path d="M367.426 577.574h-18.223v-5.337h18.223v5.337z" fill="#ebebeb" fill-rule="evenodd" data-name="Rectangle 188"/><path d="M311.008 577.574h-18.222 0v-5.337h18.222v5.337h0z" stroke-linejoin="round" stroke-linecap="round" stroke="#ebebeb" fill="transparent" data-name="Rectangle 189"/><path d="M377.59 584.304h-18.222 0v-5.337h18.222v5.337h0z" stroke-linejoin="round" stroke-linecap="round" stroke="#ebebeb" fill="transparent" data-name="Rectangle 190"/></g></g><g data-name="Switch"><g data-name="Group 4419"><g data-name="Group 4406"><g data-name="Group 4404"><path d="M311.008 585.939h48.36v53.567h-48.36v-53.567z" fill="#ffc727" fill-rule="evenodd" data-name="Rectangle 191"/></g><g data-name="Group 4405"><path d="M311.008 585.939h48.36v53.567h-48.36v-53.567z" fill="#fff" fill-rule="evenodd" data-name="Rectangle 192"/></g></g><g data-name="Group 4408"><g data-name="Group 4407"><path d="M311.008 639.506h48.36v2.189h-48.36v-2.19z" fill="#ffc727" fill-rule="evenodd" data-name="Rectangle 193"/></g></g><g data-name="Group 4415"><path d="M325.287 593.135h19.803v39.175h-19.803v-39.175z" fill="#ffc727" fill-rule="evenodd" data-name="Rectangle 194"/><g data-name="Group 4414"><g data-name="Group 4409"><path d="M326.325 594.173h17.727v37.099h-17.727v-37.1z" fill="#ffc727" fill-rule="evenodd" data-name="Rectangle 195"/><path d="M326.325 594.173h17.727v37.099h-17.727v-37.1z" fill="#fff" fill-rule="evenodd" data-name="Rectangle 196"/></g><g data-name="Group 4413"><g data-name="Group 4410"><path d="M326.325 597.212h17.727v34.06h-17.727v-34.06z" fill="#ffc727" fill-rule="evenodd" data-name="Rectangle 197"/><path d="M326.325 597.212h17.727v34.06h-17.727v-34.06z" fill="#fff" fill-rule="evenodd" data-name="Rectangle 198"/></g><path d="M326.325 612.722h17.727v18.55h-17.727v-18.55z" fill="#fff" fill-rule="evenodd" data-name="Rectangle 199"/><g data-name="Group 4411"><path d="M334.568 601.134a1.61 1.61 0 0 1 0 2.217 1.435 1.435 0 0 1-1.047.469 1.48 1.48 0 0 1-1.074-.469 1.594 1.594 0 0 1-.434-1.109c0-.433.162-.819.434-1.108.267-.29.653-.469 1.074-.469.402 0 .788.18 1.047.469Zm-.057 1.108c0-.298-.119-.573-.298-.766a.945.945 0 0 0-1.402 0 1.115 1.115 0 0 0-.298.766c0 .298.114.574.298.763.184.197.429.315.71.315a.95.95 0 0 0 .692-.315c.18-.189.298-.465.298-.763Z" fill="#fff" fill-rule="evenodd" data-name="Path 1466"/><path d="M336.242 603.579c0 .131-.11.24-.236.24a.24.24 0 0 1-.241-.24v-2.55a.237.237 0 0 1 .096-.202.242.242 0 0 1 .333.053l1.416 1.958v-1.805a.238.238 0 0 1 .477 0v2.546c0 .131-.11.24-.24.24a.238.238 0 0 1-.18-.087c-.01-.008-.018-.017-.022-.026l-1.403-1.945v1.818Z" fill="#fff" fill-rule="evenodd" data-name="Path 1467"/></g><g data-name="Group 4412"><path d="M333.549 624.425a1.608 1.608 0 0 1 0 2.217 1.434 1.434 0 0 1-1.048.469c-.42 0-.806-.184-1.073-.469a1.595 1.595 0 0 1-.434-1.108c0-.434.162-.82.434-1.109.267-.29.653-.469 1.073-.469.403 0 .79.18 1.048.47Zm-.057 1.109c0-.298-.119-.574-.298-.767a.944.944 0 0 0-1.403 0 1.115 1.115 0 0 0-.297.767c0 .298.113.574.297.762.185.197.43.316.71.316a.949.949 0 0 0 .693-.316c.18-.188.298-.464.298-.762Z" fill="#ffc727" fill-rule="evenodd" data-name="Path 1468"/><path d="M334.855 626.87v-2.585a.24.24 0 0 1 .241-.241H336.53c.127 0 .241.11.241.24a.247.247 0 0 1-.24.246h-1.188v.802h1.02c.132 0 .242.114.242.241 0 .136-.11.245-.241.245h-1.021v1.052c0 .131-.11.241-.246.241a.24.24 0 0 1-.24-.24Z" fill="#ffc727" fill-rule="evenodd" data-name="Path 1469"/><path d="M337.507 626.87v-2.585a.24.24 0 0 1 .24-.241h1.434c.127 0 .24.11.24.24a.247.247 0 0 1-.24.246h-1.188v.802h1.021c.132 0 .241.114.241.241 0 .136-.11.245-.24.245h-1.022v1.052c0 .131-.11.241-.245.241a.24.24 0 0 1-.241-.24Z" fill="#ffc727" fill-rule="evenodd" data-name="Path 1470"/></g></g></g></g><g data-name="Group 4418"><g data-name="Group 4416"><path d="M335.188 636.754c-.712 0-1.291-.579-1.291-1.291s.579-1.292 1.291-1.292 1.292.58 1.292 1.292c0 .712-.58 1.291-1.292 1.291Zm0-2.322a1.032 1.032 0 0 0 0 2.062c.569 0 1.031-.463 1.031-1.031 0-.569-.462-1.031-1.03-1.031Z" fill="#ffc727" fill-rule="evenodd" data-name="Path 1471"/><path d="m334.277 636.19 1.639-1.639.184.184-1.64 1.64-.183-.185z" fill="#ffc727" fill-rule="evenodd" data-name="Rectangle 200"/></g><g data-name="Group 4417"><path d="M335.19 591.273a1.293 1.293 0 0 1-1.194-1.788c.133-.318.381-.566.7-.697.32-.132.67-.131.989.002.318.132.566.38.697.7.132.319.131.67-.001.988a1.287 1.287 0 0 1-1.19.795Zm-.002-2.323a1.03 1.03 0 0 0-.952.636 1.032 1.032 0 0 0 1.345 1.35c.255-.106.453-.303.56-.558.105-.254.106-.534 0-.789a1.024 1.024 0 0 0-.953-.639Z" fill="#ffc727" fill-rule="evenodd" data-name="Path 1472"/><path d="m334.068 589.656.1-.24 2.14.891-.1.24-2.14-.89z" fill="#ffc727" fill-rule="evenodd" data-name="Rectangle 201"/></g></g></g></g><g data-name="Light bulb"><g data-name="Group 4426"><path d="M310.494 663.1h19.847a5.897 5.897 0 0 0 5.89-5.89v-16.047h-2.072v16.048a3.822 3.822 0 0 1-3.818 3.818h-19.847a3.822 3.822 0 0 1-3.818-3.818v-45.112h-2.072v45.112a5.896 5.896 0 0 0 5.89 5.89Z" fill="#263238" fill-rule="evenodd" data-name="Path 1473"/><g data-name="Group 4420"><path d="M290.04 587.405c.771 9.654 8.814 12.564 8.814 12.564.592 1.468 1.362 5.2 1.362 5.2h10.737s.77-3.732 1.362-5.2c0 0 8.043-2.91 8.814-12.564.535-6.708-4.242-16.624-15.486-16.627h-.117c-11.244.003-16.021 9.919-15.486 16.627Z" fill="#c7c7c7" fill-rule="evenodd" data-name="Path 1474"/></g><g data-name="Group 4421"><path d="M291.367 587.453c.705 8.83 8.062 11.492 8.062 11.492.54 1.342 1.246 6.224 1.246 6.224h9.82s.704-4.882 1.245-6.224c0 0 7.357-2.662 8.061-11.492.49-6.135-3.878-15.205-14.163-15.207h-.107c-10.285.002-14.653 9.072-14.164 15.207Z" fill="#c7c7c7" fill-rule="evenodd" data-name="Path 1475"/></g><g data-name="Group 4424"><path d="M312.53 610.727H298.64v-7.645h13.891v7.645z" fill="#455a64" fill-rule="evenodd" data-name="Rectangle 202"/><g data-name="Group 4422"><path d="M300.214 610.727c.816 1.449 2.383 2.744 5.37 2.744 2.988 0 4.554-1.295 5.371-2.744h-10.741Z" fill="#455a64" fill-rule="evenodd" data-name="Path 1476"/><path d="M300.214 610.727c.233.414.527.815.9 1.176l9.564-.734c.101-.146.194-.292.277-.442h-10.741Z" fill="#37474f" fill-rule="evenodd" data-name="Path 1477"/></g><g data-name="Group 4423"><path d="m298.232 604.54 14.704 1.36v-.667l-14.704-1.36v.667Z" fill="#37474f" fill-rule="evenodd" data-name="Path 1478"/><path d="m298.232 606.558 14.704 1.36v-.667l-14.704-1.36v.667Z" fill="#37474f" fill-rule="evenodd" data-name="Path 1479"/><path d="m298.232 608.577 14.704 1.36v-.668l-14.704-1.36v.668Z" fill="#37474f" fill-rule="evenodd" data-name="Path 1480"/></g></g><g data-name="Group 4425"><path d="M317.74 585.15c-.493.082-1.131-2.463-3.868-5.409-1.215-1.308-5.827-2.945-5.495-4.455.333-1.51 4.447.042 6.516 2.44 3.33 3.858 3.301 7.347 2.847 7.423Z" fill="#fff" fill-rule="evenodd" data-name="Path 1481"/><path d="M293.477 585.679c-.907 0-.909-1.41 0-1.41.907 0 .908 1.41 0 1.41Z" fill="#fff" fill-rule="evenodd" data-name="Path 1482"/><path d="M297.915 596.28c-.496.378-2.903-1.842-3.988-4.493-.9-2.199-1.056-4.98-.45-5.141.605-.161.998 3.654 1.726 5.06.92 1.773 3.242 4.17 2.712 4.574Z" fill="#fff" fill-rule="evenodd" data-name="Path 1483"/></g></g></g><g data-name="Hand"><g data-name="Group 4431"><g data-name="Group 4430"><g data-name="Group 4427"><path d="M343.269 669h-16.565c-2.27-3.838-9.29-10.222-7.384-12.505 4.601-5.514 17.332 2.238 23.949 12.505Z" fill="#eb9481" fill-rule="evenodd" data-name="Path 1484"/></g><g data-name="Group 4429"><path d="M334.158 625.428c5.226-1.845 8.774 15.692 8.774 15.692s.895-2.607 3.258-3.802c2.707-1.369 6.717 2.12 6.717 2.12s1.516-3.108 4.486-3.424c2.901-.31 5.83 2.306 5.83 2.306s2.299-1.584 5.193-.831c4.948 1.286 7.289 8.736 8.824 13.456 1.536 4.72 2.49 15.228 2.763 18.055h-43.677s-.664-4.727-1.682-10.533c-.857-4.892-6.237-31.01-.486-33.04Z" fill="#eb9481" fill-rule="evenodd" data-name="Path 1485"/><g data-name="Group 4428"><path d="M342.807 641.203c-.125 5.428 1.05 10.876 2.24 16.12.027.117.21.074.182-.043-1.245-5.202-1.13-10.862-2.165-16.103-.029-.145-.254-.12-.257.026Z" fill="#263238" fill-rule="evenodd" data-name="Path 1486"/><path d="M352.838 639.6c-.04 1.229.327 2.466.61 3.652.304 1.276.63 2.545.977 3.811.693 2.533 1.444 5.051 2.269 7.545.036.11.215.082.183-.036a186.487 186.487 0 0 1-2.755-11.454c-.252-1.192-.418-2.47-.931-3.585-.076-.165-.347-.118-.353.068Z" fill="#263238" fill-rule="evenodd" data-name="Path 1487"/><path d="M363.222 638.32c-.077 1.066.425 2.247.724 3.258.34 1.148.674 2.297 1 3.448.655 2.303 1.308 4.605 1.881 6.929.03.116.211.08.183-.036-.57-2.364-1.109-4.736-1.7-7.094-.291-1.159-.588-2.316-.891-3.47-.258-.983-.469-2.24-1.083-3.072-.034-.047-.11-.016-.114.037Z" fill="#263238" fill-rule="evenodd" data-name="Path 1488"/></g></g></g><path d="m334.86 659.685 1.466 8.772" stroke-linejoin="round" stroke-linecap="round" stroke-width="3" stroke="#263238" fill="transparent" data-name="Line 15"/></g></g><g data-name="Lines"><g data-name="Group 4432"><path d="m337.267 621.276 1.707-4.16" stroke-linejoin="round" stroke-linecap="round" stroke-width="3" stroke="#263238" fill="transparent" data-name="Line 16"/><path d="m333.075 621.29-1.736-4.148" stroke-linejoin="round" stroke-linecap="round" stroke-width="3" stroke="#263238" fill="transparent" data-name="Line 17"/><path d="m330.12 624.265-4.16-1.706" stroke-linejoin="round" stroke-linecap="round" stroke-width="3" stroke="#263238" fill="transparent" data-name="Line 18"/><path d="m330.135 628.458-4.15 1.735" stroke-linejoin="round" stroke-linecap="round" stroke-width="3" stroke="#263238" fill="transparent" data-name="Line 19"/><path d="m340.256 628.423 4.161 1.707" stroke-linejoin="round" stroke-linecap="round" stroke-width="3" stroke="#263238" fill="transparent" data-name="Line 20"/><path d="m340.242 624.23 4.149-1.735" stroke-linejoin="round" stroke-linecap="round" stroke-width="3" stroke="#263238" fill="transparent" data-name="Line 21"/></g></g><g data-name="Plant"><g data-name="Group 4436"><path d="M306.308 603.081h.758l1.6-12.638a.375.375 0 1 0-.744-.096l-1.614 12.734Z" fill="#455a64" fill-rule="evenodd" data-name="Path 1489"/><path d="m302.503 590.443 1.602 12.638h.756l-1.614-12.734a.375.375 0 1 0-.744.096Z" fill="#455a64" fill-rule="evenodd" data-name="Path 1490"/><g data-name="Group 4435"><g data-name="Group 4433"><path d="M305.584 592.274s.572-2.63-1.942-3.948c-1.094-.573-2.778-.866-3.875-1.239-1.427-.485-2.863-1.408-2.863-1.408s.7 8.447 8.37 7.276c0 0-.21-1.086-1.913-2.65-.938-.861-2.78-1.798-2.78-1.798 3.789 1.169 5.003 3.767 5.003 3.767Z" fill="#455a64" fill-rule="evenodd" data-name="Path 1491"/></g><g data-name="Group 4434"><path d="M305.585 592.274s-.572-2.63 1.942-3.948c1.093-.573 2.778-.866 3.875-1.239 1.427-.485 2.863-1.408 2.863-1.408s-.7 8.447-8.37 7.276c0 0 .21-1.086 1.913-2.65.938-.861 2.78-1.798 2.78-1.798-3.789 1.169-5.003 3.767-5.003 3.767Z" fill="#455a64" fill-rule="evenodd" data-name="Path 1492"/></g></g></g></g></g></svg>