<?xml version="1.0" encoding="iso-8859-1"?>
<!-- Uploaded to: SVG Repo, www.svgrepo.com, Generator: SVG Repo Mixer Tools -->
<svg height="800px" width="800px" version="1.1" id="Layer_1" xmlns="http://www.w3.org/2000/svg" xmlns:xlink="http://www.w3.org/1999/xlink" 
	 viewBox="0 0 512 512" xml:space="preserve">
<g>
	<path style="fill:#808285;" d="M126.81,0H81.004c-9.425,0-17.067,7.641-17.067,17.067s7.641,17.067,17.067,17.067h5.836v30.529
		c0,9.425,7.641,17.067,17.067,17.067s17.067-7.641,17.067-17.067V34.133h5.837c9.425,0,17.067-7.641,17.067-17.067
		S136.235,0,126.81,0z"/>
	<path style="fill:#808285;" d="M391.459,512c-41.123,0-74.577-33.454-74.577-74.577V262.191c0-22.302-18.143-40.445-40.443-40.445
		c-22.3,0-40.443,18.143-40.443,40.445v175.233c0,41.123-33.455,74.577-74.577,74.577s-74.577-33.454-74.577-74.577V156.769
		c0-9.425,7.641-17.067,17.067-17.067s17.067,7.641,17.067,17.067v280.655c0,22.3,18.143,40.443,40.443,40.443
		c22.302,0,40.443-18.143,40.443-40.443V262.191c0-41.123,33.455-74.578,74.577-74.578s74.577,33.455,74.577,74.578v175.233
		c0,22.3,18.143,40.443,40.443,40.443c22.302,0,40.443-18.143,40.443-40.443V156.769c0-9.425,7.641-17.067,17.067-17.067
		s17.067,7.641,17.067,17.067v280.655C466.036,478.546,432.58,512,391.459,512z"/>
</g>
<path style="fill:#FEE856;" d="M131.412,173.835H76.4c-9.425,0-17.067-7.641-17.067-17.067V64.662
	c0-9.425,7.641-17.067,17.067-17.067h55.012c9.425,0,17.067,7.641,17.067,17.067v92.107
	C148.478,166.194,140.837,173.835,131.412,173.835z"/>
<path style="fill:#FFCE3E;" d="M147.35,81.729H60.463c-9.425,0-17.067-7.641-17.067-17.067c0-9.425,7.641-17.067,17.067-17.067
	h86.888c9.425,0,17.067,7.641,17.067,17.067S156.775,81.729,147.35,81.729z"/>
<path style="fill:#808285;" d="M4.594,140.363c-4.5-8.282-1.432-18.644,6.851-23.144c27.749-15.074,59.23-23.223,91.042-23.566
	c32.403-0.325,64.594,7.438,93.124,22.519c8.333,4.405,11.518,14.731,7.112,23.064c-4.404,8.333-14.733,11.515-23.064,7.113
	c-23.52-12.435-50.082-18.908-76.806-18.565c-26.264,0.282-52.24,7-75.116,19.428C19.452,151.714,9.093,148.645,4.594,140.363z"/>
<g>
	<path style="fill:#414042;" d="M448.969,139.702c-9.425,0-17.067,7.641-17.067,17.067v280.655c0,22.3-18.143,40.443-40.443,40.443
		c-22.3,0-40.443-18.143-40.443-40.443V262.191c0-41.123-33.455-74.578-74.577-74.578l0,0v34.133l0,0
		c22.3,0,40.443,18.143,40.443,40.445v175.233c0,41.123,33.455,74.577,74.577,74.577s74.577-33.454,74.577-74.577V156.769
		C466.036,147.343,458.394,139.702,448.969,139.702z"/>
	<path style="fill:#414042;" d="M448.969,81.729c-9.425,0-17.067-7.641-17.067-17.067V17.067C431.902,7.641,439.544,0,448.969,0
		s17.067,7.641,17.067,17.067v47.596C466.036,74.088,458.394,81.729,448.969,81.729z"/>
</g>
<path style="fill:#FFCE3E;" d="M476.475,173.835h-55.012c-9.425,0-17.067-7.641-17.067-17.067V64.662
	c0-9.425,7.641-17.067,17.067-17.067h55.012c9.425,0,17.067,7.641,17.067,17.067v92.107
	C493.541,166.194,485.9,173.835,476.475,173.835z"/>
<path style="fill:#F59D00;" d="M492.413,81.729h-86.886c-9.425,0-17.067-7.641-17.067-17.067c0-9.425,7.641-17.067,17.067-17.067
	h86.886c9.425,0,17.067,7.641,17.067,17.067S501.838,81.729,492.413,81.729z"/>
</svg>