<svg xmlns="http://www.w3.org/2000/svg" width="146.664" height="96.038" viewBox="281.336 695.981 146.664 96.038"><g data-name="Group 4402"><path d="M416.847 745.272c-3.272.435-6.072 1.137-8.561 2.147-2.474 1.002-4.752 2.354-6.965 4.132-1.978 1.588-3.982 3.57-6.308 6.24-3.653 4.19-6.309 8.84-8.878 13.337-2.826 4.948-5.495 9.621-9.274 13.387-2.022 2.015-5.223 2.963-9.015 2.671a19.11 19.11 0 0 1-7.218-2.06c2.288-1.448 4.08-2.965 5.329-4.515.832-1.033 1.44-2.101 1.807-3.176a7.595 7.595 0 0 0 .318-3.787c-.583-3.368-2.903-5.798-6.206-6.501-1.725-.367-3.617-.219-5.326.419-1.83.681-3.34 1.854-4.372 3.39-.99 1.477-1.656 3.004-1.977 4.54-.314 1.501-.302 3.008.035 4.48.33 1.447.976 2.846 1.907 4.152-2.271.954-4.255 1.586-5.343 1.864-6.77 1.732-11.654.475-15.369-3.956-2.89-3.448-4.898-8.507-6.7-13.756l1.667-.5a1.357 1.357 0 0 0-.515-2.652l-.743-2.474 4.07-15.187-.127-.422-26.608.618 2.156 7.183 11.761 10.434.743 2.475a1.358 1.358 0 0 0 1.031 2.496l1.982-.595c1.961 5.737 4.178 11.347 7.619 15.452 1.126 1.343 2.357 2.488 3.66 3.403a16.271 16.271 0 0 0 4.613 2.255c1.714.522 3.575.777 5.535.76 1.99-.02 4.147-.322 6.41-.901 1.612-.413 4.586-1.384 7.804-2.881 1.46 1.061 3.156 1.976 4.963 2.675 2.15.83 4.476 1.36 6.726 1.534.57.044 1.131.066 1.684.066 1.807 0 3.527-.233 5.13-.698 2.351-.68 4.351-1.831 5.944-3.42 4.236-4.22 7.193-9.396 10.051-14.402 2.453-4.294 4.99-8.735 8.33-12.567 7.63-8.753 12.679-11.479 29.383-11.479v-4.781c-4.525 0-8.07.19-11.153.6ZM356.535 782c-1.748-2.03-2.744-4.864-.386-8.378.78-1.162 2.313-1.892 3.819-1.892.307 0 .614.031.912.095.963.205 2.177.829 2.49 2.64.167.961-.205 1.99-1.136 3.146-.986 1.223-2.52 2.475-4.558 3.721-.376.23-.758.453-1.141.668Z" fill="#9dd0f8" fill-rule="evenodd" data-name="Path 1437"/><path d="M336.248 722.353c.018-8.457-.214-16.688-.771-20.969-.2-1.737-.44-2.862-.719-3.141-.91-.91-10.809-1.353-21.648-1.41a416.963 416.963 0 0 0-3.98-.004c-7.843-.027-15.67.167-20.523.624-2.717.213-4.494.478-4.805.79-.083.083-.164.273-.243.557a4.794 4.794 0 0 0-.154.545c-.839 3.144-1.172 13.226-1.137 23.53-.003.8-.004 1.604-.002 2.405-.018 8.457.214 16.688.771 20.969.2 1.738-.49 2.017-.21 2.297.908.909 11.73 2.197 22.564 2.255a397.065 397.065 0 0 0 3.866.004c12.237.036 24.485-.398 25.501-1.414 1.02-1.02 1.505-13.313 1.49-25.574v-1.464Z" fill="#43a8ae" fill-rule="evenodd" data-name="Path 1438"/><g data-name="Group 4393"><path d="M335.318 721.508c.018-8.457-.213-16.688-.77-20.969-.2-1.738-.44-2.862-.72-3.142-.909-.91-10.808-1.352-21.647-1.41a416.921 416.921 0 0 0-3.98-.003c-7.844-.028-15.67.167-20.524.624-2.717.213-4.493.478-4.804.79-.084.083-.165.272-.243.557-.053.146-.105.329-.155.545-.838 3.144-1.172 13.226-1.137 23.53-.003.8-.003 1.604-.002 2.405-.018 8.457.214 16.688.772 20.969.2 1.738.439 2.862.718 3.142.91.909 10.801 1.352 21.635 1.41a397.097 397.097 0 0 0 3.866.004c12.238.036 24.485-.398 25.501-1.414 1.021-1.021 1.505-13.313 1.491-25.575v-1.463Z" fill="#fdfdfc" fill-rule="evenodd" data-name="Path 1439"/><g data-name="Group 4381"><path d="M321.017 718.968c-1.699-5.39-6.738-9.3-12.69-9.3-7.347 0-13.303 5.956-13.303 13.304 0 .714.057 1.415.165 2.1a26.715 26.715 0 0 1 18.266-7.186c2.626 0 5.164.378 7.562 1.082Z" fill="#979697" fill-rule="evenodd" data-name="Path 1440"/><path d="M308.327 736.274c7.347 0 13.303-5.956 13.303-13.302 0-1.396-.215-2.74-.613-4.004a26.817 26.817 0 0 0-7.562-1.082 26.714 26.714 0 0 0-18.266 7.185c1.007 6.35 6.506 11.203 13.138 11.203Z" fill="#aaa" fill-rule="evenodd" data-name="Path 1441"/></g><path d="M325.283 742.757h-33.911c-1.56 0-2.83-1.27-2.83-2.83v-33.911c0-1.56 1.27-2.83 2.83-2.83h33.91c1.561 0 2.831 1.27 2.831 2.83v33.91c0 1.561-1.27 2.831-2.83 2.831Zm-33.911-39.26a2.521 2.521 0 0 0-2.519 2.519v33.91a2.521 2.521 0 0 0 2.519 2.52h33.91a2.522 2.522 0 0 0 2.52-2.52v-33.91a2.521 2.521 0 0 0-2.52-2.519h-33.91Z" fill="#9b9ca2" fill-rule="evenodd" data-name="Path 1442"/><g data-name="Group 4384"><g data-name="Group 4382"><path d="M315.055 724.904a1.988 1.988 0 1 1 .098.02z" fill="#1d1a1b" fill-rule="evenodd" data-name="Ellipse 97"/><path d="M315.53 725.046a2.077 2.077 0 0 1-2.075-2.074c0-1.144.93-2.075 2.074-2.075 1.144 0 2.075.93 2.075 2.075 0 1.143-.931 2.074-2.075 2.074Zm0-3.975a1.903 1.903 0 0 0-1.902 1.9c0 1.049.853 1.902 1.901 1.902a1.903 1.903 0 0 0 1.901-1.901 1.903 1.903 0 0 0-1.9-1.901Z" fill="#fff" fill-rule="evenodd" data-name="Path 1443"/></g><g data-name="Group 4383"><path d="M299.251 723.64a1.988 1.988 0 1 1 .038.092z" fill="#1d1a1b" fill-rule="evenodd" data-name="Ellipse 98"/><path d="M301.126 725.046a2.077 2.077 0 0 1-2.075-2.074c0-1.144.93-2.075 2.075-2.075 1.143 0 2.074.93 2.074 2.075 0 1.143-.93 2.074-2.074 2.074Zm0-3.976a1.903 1.903 0 0 0-1.901 1.902c0 1.048.852 1.9 1.9 1.9a1.903 1.903 0 0 0 1.902-1.9 1.903 1.903 0 0 0-1.901-1.902Z" fill="#fff" fill-rule="evenodd" data-name="Path 1444"/></g></g><g data-name="Group 4386"><g data-name="Group 4385"><path d="M310.355 722.971a2.027 2.027 0 1 1-4.055 0 2.027 2.027 0 0 1 4.055 0Z" fill="#717171" fill-rule="evenodd" data-name="Path 1445"/><path d="M308.327 725.068a2.099 2.099 0 0 1-2.096-2.096 2.1 2.1 0 0 1 2.096-2.097 2.1 2.1 0 0 1 2.097 2.097c0 1.156-.94 2.096-2.097 2.096Zm0-4.054a1.96 1.96 0 0 0-1.958 1.958 1.96 1.96 0 0 0 1.958 1.958 1.96 1.96 0 0 0 1.958-1.958 1.96 1.96 0 0 0-1.958-1.958Z" fill="#1d1a1b" fill-rule="evenodd" data-name="Path 1446"/></g><path d="M308.169 720.91h.317v4.123h-.317v-4.123z" fill="#1d1a1b" fill-rule="evenodd" data-name="Rectangle 175"/><path d="M306.233 722.813h4.19v.317h-4.19v-.317z" fill="#1d1a1b" fill-rule="evenodd" data-name="Rectangle 176"/></g><g data-name="Group 4389"><g data-name="Group 4387"><path d="M307.063 709.621h2.529v4.348h-2.53v-4.348z" fill="#1d1a1b" fill-rule="evenodd" data-name="Rectangle 177"/><path d="M307.498 710.017h1.66v4.347h-1.66v-4.347z" fill="#c2a87c" fill-rule="evenodd" data-name="Rectangle 178"/></g><g data-name="Group 4388"><path d="M307.063 731.974h2.529v4.348h-2.53v-4.348z" fill="#1d1a1b" fill-rule="evenodd" data-name="Rectangle 179"/><path d="M307.498 731.58h1.66v4.346h-1.66v-4.347z" fill="#c2a87c" fill-rule="evenodd" data-name="Rectangle 180"/></g></g><g data-name="Group 4392"><g data-name="Group 4390"><path d="M297.488 715.506c-.4.601-2.354 4.61-2.354 4.61l-.011.15h2.365v-4.76Z" fill="#eaeaea" fill-rule="evenodd" data-name="Path 1447"/><path d="m295.184 726.078 2.304 4.359v-4.66h-2.33l.026.3Z" fill="#eaeaea" fill-rule="evenodd" data-name="Path 1448"/></g><g data-name="Group 4391"><path d="M319.166 715.506c.401.601 2.355 4.61 2.355 4.61l.011.15h-2.366v-4.76Z" fill="#eaeaea" fill-rule="evenodd" data-name="Path 1449"/><path d="m321.471 726.078-2.305 4.359v-4.66h2.33l-.025.3Z" fill="#eaeaea" fill-rule="evenodd" data-name="Path 1450"/></g></g><path d="M308.327 736.708a13.688 13.688 0 0 1-9.713-4.023 13.69 13.69 0 0 1-4.023-9.713 13.694 13.694 0 0 1 4.023-9.713 13.69 13.69 0 0 1 9.713-4.024 13.69 13.69 0 0 1 9.713 4.023 13.692 13.692 0 0 1 4.023 9.714 13.688 13.688 0 0 1-4.023 9.713 13.688 13.688 0 0 1-9.713 4.023Zm0-26.606c-7.096 0-12.87 5.773-12.87 12.87 0 7.096 5.774 12.87 12.87 12.87 7.097 0 12.87-5.774 12.87-12.87 0-7.097-5.773-12.87-12.87-12.87Z" fill="#fff" fill-rule="evenodd" data-name="Path 1451"/></g><path d="M369.163 790.055c-.554 0-1.115-.021-1.684-.065a24.056 24.056 0 0 1-6.727-1.535 21.964 21.964 0 0 1-4.963-2.675c-3.218 1.498-6.192 2.469-7.804 2.88-2.263.58-4.42.883-6.41.901-1.96.018-3.82-.237-5.535-.759a16.264 16.264 0 0 1-4.613-2.255c-1.303-.915-2.534-2.06-3.66-3.403-4.157-4.959-6.527-12.116-8.819-19.037l4.54-1.503c2.15 6.495 4.374 13.21 7.943 17.469 3.715 4.43 8.598 5.687 15.37 3.955 1.088-.278 3.07-.91 5.342-1.864-.93-1.306-1.576-2.704-1.907-4.152a10.392 10.392 0 0 1-.035-4.479c.321-1.536.987-3.064 1.977-4.54 1.031-1.537 2.543-2.71 4.372-3.391 1.71-.638 3.601-.786 5.326-.419 3.303.703 5.623 3.133 6.206 6.501a7.594 7.594 0 0 1-.318 3.788c-.367 1.074-.974 2.142-1.807 3.175-1.25 1.55-3.04 3.067-5.329 4.515a19.114 19.114 0 0 0 7.218 2.06c3.792.292 6.993-.656 9.015-2.67 3.779-3.767 6.448-8.44 9.274-13.388 2.57-4.497 5.225-9.147 8.878-13.338 2.326-2.668 4.33-4.65 6.308-6.239 2.213-1.778 4.49-3.13 6.965-4.132 2.489-1.01 5.29-1.711 8.56-2.146 3.085-.41 6.629-.601 11.154-.601v4.782c-16.704 0-21.752 2.725-29.383 11.479-3.34 3.832-5.877 8.272-8.33 12.567-2.859 5.005-5.815 10.18-10.05 14.403-1.594 1.587-3.594 2.737-5.945 3.418-1.603.465-3.323.698-5.13.698Zm-9.195-20.29c-1.505 0-3.04.73-3.819 1.892-2.358 3.514-1.362 6.348.386 8.378.383-.215.765-.437 1.141-.668 2.039-1.246 3.572-2.498 4.558-3.721.931-1.155 1.303-2.184 1.137-3.146-.314-1.81-1.528-2.435-2.49-2.64a4.373 4.373 0 0 0-.913-.094Z" fill="#3c4d54" fill-rule="evenodd" data-name="Path 1452"/><path d="m326.427 741.16-4.016 1.206-3.67-12.227a1.578 1.578 0 0 0-2.914-.277 1.576 1.576 0 0 0-.113 1.185l3.556 11.845-10.494 3.15-3.556-11.844a1.578 1.578 0 0 0-1.968-1.059 1.575 1.575 0 0 0-.946.782 1.573 1.573 0 0 0-.112 1.186l3.67 12.227-4.015 1.205.42 1.399 25.844.024-1.686-8.802Z" fill="#b4b4b3" fill-rule="evenodd" data-name="Path 1454"/><g data-name="Group 4401"><path d="m308.097 741.321 12.562-3.771.784 2.612-12.562 3.771-.784-2.612z" fill="#d9d9d9" fill-rule="evenodd" data-name="Rectangle 181"/><g data-name="Group 4398"><g data-name="Group 4395"><path d="m309 741.865-3.78-12.592a1.579 1.579 0 0 0-1.058-1.059l4.159 13.855.68-.204Z" fill="#9da1a5" fill-rule="evenodd" data-name="Path 1455"/><g data-name="Group 4394"><path d="m308.32 742.068-4.158-13.854a1.576 1.576 0 0 0-1.855.782l4.097 13.648 1.917-.576Z" fill="#c8cacc" fill-rule="evenodd" data-name="Path 1456"/><path d="m305.974 742.773.43-.129-4.097-13.648a1.574 1.574 0 0 0-.113 1.185l3.78 12.592Z" fill="#d9d9d9" fill-rule="evenodd" data-name="Path 1457"/></g></g><g data-name="Group 4397"><path d="m322.52 737.806-3.78-12.592a1.579 1.579 0 0 0-1.058-1.059l4.16 13.855.679-.204Z" fill="#9da1a5" fill-rule="evenodd" data-name="Path 1458"/><g data-name="Group 4396"><path d="m321.842 738.01-4.16-13.855a1.575 1.575 0 0 0-1.855.782l4.098 13.648 1.917-.576Z" fill="#c8cacc" fill-rule="evenodd" data-name="Path 1459"/><path d="m319.495 738.714.43-.13-4.098-13.647a1.576 1.576 0 0 0-.113 1.185l3.78 12.592Z" fill="#d9d9d9" fill-rule="evenodd" data-name="Path 1460"/></g></g></g><path d="m322.403 742.495-6.733 2.533-7.014 1.594-4.024 6.261 11.76 10.433 4.374-1.313 4.374-1.313 4.07-15.186-6.807-3.009Z" fill="#3c4d54" fill-rule="evenodd" data-name="Path 1461"/><path d="m311 745.356 8.748-2.627 6.82 22.718-8.747 2.627-6.82-22.718z" fill="#425661" fill-rule="evenodd" data-name="Rectangle 182"/><path d="M327.307 764.126a1.357 1.357 0 0 1-.91 1.69l-8.23 2.472a1.357 1.357 0 1 1-.78-2.6l8.23-2.471a1.357 1.357 0 0 1 1.69.909Z" fill="#425661" fill-rule="evenodd" data-name="Path 1462"/><path d="m301.849 743.614 24.578-7.38 2.783 9.27-24.578 7.379-2.783-9.27z" fill="#425661" fill-rule="evenodd" data-name="Rectangle 183"/><g data-name="Group 4400"><path d="m312.272 740.484 4.661 15.525c.196.65.7 1.123 1.305 1.306l-5.128-17.082-.838.251Z" fill="#9da1a5" fill-rule="evenodd" data-name="Path 1463"/><g data-name="Group 4399"><path d="m313.11 740.233 5.128 17.082a1.944 1.944 0 0 0 2.287-.964l-5.052-16.828-2.363.71Z" fill="#c8cacc" fill-rule="evenodd" data-name="Path 1464"/><path d="m316.004 739.364-.53.16 5.051 16.827a1.94 1.94 0 0 0 .14-1.462l-4.661-15.525Z" fill="#d9d9d9" fill-rule="evenodd" data-name="Path 1465"/></g></g></g></g></svg>