<svg id="Category" xmlns="http://www.w3.org/2000/svg" width="18.513" height="18.513" viewBox="0 0 18.513 18.513">
  <path id="Category-2" data-name="Category" d="M12.946,18.513a2.766,2.766,0,0,1-2.754-2.772V12.9a2.767,2.767,0,0,1,2.754-2.773h2.813A2.766,2.766,0,0,1,18.513,12.9V15.74a2.766,2.766,0,0,1-2.753,2.772ZM11.483,12.9V15.74a1.474,1.474,0,0,0,1.463,1.481h2.813a1.473,1.473,0,0,0,1.462-1.481V12.9a1.474,1.474,0,0,0-1.462-1.482H12.946A1.474,1.474,0,0,0,11.483,12.9ZM2.754,18.513A2.766,2.766,0,0,1,0,15.74V12.9a2.767,2.767,0,0,1,2.754-2.773H5.567A2.767,2.767,0,0,1,8.321,12.9V15.74a2.766,2.766,0,0,1-2.754,2.772ZM1.291,12.9V15.74a1.474,1.474,0,0,0,1.463,1.481H5.567A1.474,1.474,0,0,0,7.03,15.74V12.9a1.474,1.474,0,0,0-1.463-1.482H2.754A1.474,1.474,0,0,0,1.291,12.9ZM12.946,8.382a2.766,2.766,0,0,1-2.754-2.772V2.772A2.766,2.766,0,0,1,12.946,0h2.813a2.766,2.766,0,0,1,2.753,2.772V5.609a2.766,2.766,0,0,1-2.753,2.772ZM11.483,2.772V5.609A1.474,1.474,0,0,0,12.946,7.09h2.813a1.473,1.473,0,0,0,1.462-1.481V2.772a1.473,1.473,0,0,0-1.462-1.481H12.946A1.474,1.474,0,0,0,11.483,2.772ZM2.754,8.382A2.766,2.766,0,0,1,0,5.609V2.772A2.766,2.766,0,0,1,2.754,0H5.567A2.766,2.766,0,0,1,8.321,2.772V5.609A2.766,2.766,0,0,1,5.567,8.382ZM1.291,2.772V5.609A1.474,1.474,0,0,0,2.754,7.09H5.567A1.474,1.474,0,0,0,7.03,5.609V2.772A1.474,1.474,0,0,0,5.567,1.291H2.754A1.474,1.474,0,0,0,1.291,2.772Z" fill="#bfbcbc"/>
</svg>
