<svg xmlns="http://www.w3.org/2000/svg" width="380.173" height="405.366" viewBox="-425 112.861 380.173 405.366"><g data-name="CompositeLayer"><path d="M-61.28 406.413c43.232-77.318-7.167-158.678-54.089-224.417-57.076-79.964-177.355-90.578-246.275-31.754-44.626 38.088-51.05 129.652-60.77 168.295-11.398 45.303 15.976 86.97 60.77 116.175 42.554 27.745 101.074 44.087 156.55 41.1 75.66-4.076 126.616-38.645 143.814-69.4Z" fill="#1bb0dd" fill-rule="evenodd" data-name="Path 594"/><g data-name="Switches-cuate"><g data-name="freepik--background-complete--inject-11"><path d="m-377.711 439.186 10.181-.214 5.014-.083c1.67-.039 3.323 0 4.992-.046l-.343.343v-8.528l.381.381-10.158-.046c-3.369 0-6.73-.091-10.098-.13l.214-.205c0 1.395-.069 2.797-.1 4.222l-.083 4.306Zm0 0-.107-4.222c0-1.418-.084-2.858-.099-4.306v-.206h.206c3.368-.038 6.729-.121 10.097-.13l10.09-.045h.381v9.252h-.335c-1.707 0-3.407 0-5.106-.046l-5.076-.084-10.051-.213Z" fill="#ebebeb" fill-rule="evenodd" data-name="Path 1"/><path d="m-205.918 230.38 10.181-.214 5.014-.084h4.992l-.343.335-.038-8.527.38.38-10.096-.045c-3.361 0-6.722-.084-10.09-.122l.213-.213c0 1.394-.068 2.804-.099 4.222l-.114 4.267Zm0 0-.107-4.215c0-1.425-.084-2.865-.099-4.313v-.206h.206c3.368-.038 6.729-.122 10.09-.122l10.097-.053h.381v.38l-.038 8.528v.343h-.335c-1.707 0-3.407 0-5.106-.046l-5.076-.083-10.013-.214Z" fill="#ebebeb" fill-rule="evenodd" data-name="Path 3"/><path d="m-194.655 241.132 10.174-.213 5.014-.084c1.67-.038 3.323 0 4.992-.038l-.366.335v-8.528l.38.381-10.089-.045c-3.368 0-6.729-.084-10.09-.122l.206-.214c0 1.395-.068 2.805-.099 4.222l-.122 4.306Zm0 0-.114-4.214c0-1.425-.084-2.866-.1-4.314v-.205h.214c3.36-.038 6.722-.122 10.09-.122l10.09-.054h.38v.381l-.045 8.528v.343h-.335c-1.7 0-3.407 0-5.106-.046l-5.076-.084-9.998-.213Z" fill="#ebebeb" fill-rule="evenodd" data-name="Path 4"/><path d="M-95.16 441.41h20.18v8.528h-20.18v-8.527z" fill="#ebebeb" fill-rule="evenodd" data-name="Rectangle 5"/><path d="M-357.585 186.08h-20.18v-8.527h20.18v8.527z" fill="#ebebeb" fill-rule="evenodd" data-name="Rectangle 6"/><path d="m-388.982 196.84 10.173-.213 5.015-.091h4.991l-.343.343v-8.528l.382.374-10.159-.084c-3.368 0-6.729-.092-10.06-.092l.207-.205c0 1.394-.069 2.796-.1 4.214l-.106 4.283Zm0 0-.114-4.221c0-1.425-.084-2.866-.1-4.306v-.206h.214c3.36 0 6.721-.122 10.09-.122l10.09-.045h.38v.388l-.045 8.528v.335H-373.908l-5.076-.091-9.998-.26Z" fill="#ebebeb" fill-rule="evenodd" data-name="Path 5"/><path d="m-95.16 186.095 10.182-.213 5.014-.084c1.67 0 3.323 0 4.984-.046l-.335.343-.038-8.527.373.38-10.09-.068c-3.36 0-6.721-.084-10.09-.122l.214-.205c0 1.394-.069 2.796-.099 4.214l-.114 4.328Zm0 0-.106-4.221c0-1.426-.084-2.858-.1-4.306v-.206h.207c3.368-.038 6.729-.114 10.09-.122l10.059-.053h.388v.38l-.038 8.528v.343H-80.108l-5.076-.083-9.975-.26Z" fill="#ebebeb" fill-rule="evenodd" data-name="Path 6"/><path d="M-319.459 360.335h20.18v8.527h-20.18v-8.527z" fill="#fff" fill-rule="evenodd" data-name="Rectangle 7"/><path d="m-310.535 349.582-10.181.213-5.015.084c-1.66.038-3.322 0-4.983.046l.335-.343.076 8.527-.381-.38 10.09.053c3.36 0 6.729.083 10.09.122l-.206.205c0-1.394.06-2.796.099-4.214l.076-4.313Zm0 0 .107 4.222c0 1.425.084 2.857.099 4.305v.206h-.206c-3.36.038-6.729.114-10.09.122l-10.09.046h-.35v-.381l.038-8.528v-.343h.335c1.7 0 3.407 0 5.099.038l5.075.084 9.983.229Z" fill="#ebebeb" fill-rule="evenodd" data-name="Path 7"/><path d="M-70.72 222.75h-111.666v-6.63H-70.72v6.63z" fill="#fcfbfb" fill-rule="evenodd" data-name="Rectangle 8"/><path d="M-85.824 222.75h6.63v21.933h-6.63v-21.932z" fill="#fcfbfb" fill-rule="evenodd" data-name="Rectangle 9"/><path d="M-85.824 222.75h6.63v6.776h-6.63v-6.775z" fill="#dbdbdb" fill-rule="evenodd" data-name="Rectangle 10"/><path d="M-173.904 222.75h6.63v21.933h-6.63v-21.932z" fill="#fcfbfb" fill-rule="evenodd" data-name="Rectangle 11"/><path d="M-173.904 222.75h6.63v6.776h-6.63v-6.775z" fill="#dbdbdb" fill-rule="evenodd" data-name="Rectangle 12"/><path d="M-98.94 173.857v42.256h-10.638v-42.256h10.639z" fill="#fff" fill-rule="evenodd" data-name="Rectangle 13"/><path d="M-98.94 171.6v4.642h-10.638V171.6h10.639z" fill="#dbdbdb" fill-rule="evenodd" data-name="Rectangle 14"/><path d="M-98.94 182.194v1.722h-10.638v-1.722h10.639z" fill="#dbdbdb" fill-rule="evenodd" data-name="Rectangle 15"/><path d="M-98.94 205.932v4.641h-11.964v-4.641h11.965z" fill="#dbdbdb" fill-rule="evenodd" data-name="Rectangle 16"/><path d="M-109.585 166.83v49.29h-7.438v-49.29h7.438z" fill="#dbdbdb" fill-rule="evenodd" data-name="Rectangle 17"/><path d="M-111.04 171.456v18.96h-4.467v-18.96h4.466z" fill="#ebebeb" fill-rule="evenodd" data-name="Rectangle 18"/><path d="m-129.63 181.49-35.053 34.652-5.229-5.29 35.054-34.652 5.229 5.29z" fill="#fff" fill-rule="evenodd" data-name="Rectangle 19"/><path d="m-144.04 193.606-13.483 13.33-3.14-3.176 13.484-13.33 3.14 3.176z" fill="#dbdbdb" fill-rule="evenodd" data-name="Rectangle 20"/><path d="M-117.008 178.68v37.44h-12.627v-37.44h12.627z" fill="#fff" fill-rule="evenodd" data-name="Rectangle 21"/><path d="M-117.008 208.668v3.49h-12.627v-3.49h12.627z" fill="#c7c7c7" fill-rule="evenodd" data-name="Rectangle 22"/><path d="M-117.015 205.025v1.357h-12.628v-1.357h12.628z" fill="#c7c7c7" fill-rule="evenodd" data-name="Rectangle 23"/><path d="M-90.221 180.944v35.184h-8.726v-35.184h8.726z" fill="#dbdbdb" fill-rule="evenodd" data-name="Rectangle 24"/><path d="M-90.221 209.117v3.277h-8.726v-3.277h8.726z" fill="#c7c7c7" fill-rule="evenodd" data-name="Rectangle 25"/><path d="M-90.214 188.191v3.277h-8.725v-3.277h8.725z" fill="#c7c7c7" fill-rule="evenodd" data-name="Rectangle 26"/><path d="M-90.214 193.716v1.273h-8.725v-1.273h8.725z" fill="#c7c7c7" fill-rule="evenodd" data-name="Rectangle 27"/></g><g data-name="freepik--Plant--inject-11"><path d="M-314.454 381.26c.678 4.811.42 9.707-.762 14.42a39.87 39.87 0 0 1-2.21 6.37c-1.143 2.637-2.347 5.213-2.057 8.1.282.184-.679.153-.71-.129-7.711-4.39-17.603-5.19-23.54-12.376-2.811-3.398-4.229-7.704-4.9-12.017-.761-4.695-.93-9.907.283-14.518 1.013-3.91 3.3-7.681 6.98-9.602 3.68-1.92 8.764-1.806 12.757-.564 8.65 2.675 12.94 11.98 14.16 20.317Z" fill="#d8f4e0" fill-rule="evenodd" data-name="Path 8"/><path d="M-310.499 438.355a1198.708 1198.708 0 0 0-3.185-10.516c-2.119-6.86-4.313-13.718-6.752-20.44a295.557 295.557 0 0 0-4.618-12.01c.183-2.498.49-4.985.922-7.452.648-2.988 1.585-5.876 2.454-8.802a.168.168 0 0 0-.313-.107c-1.73 4.031-3.985 9.19-4.046 13.961a218.228 218.228 0 0 0-6.097-13.267 57.1 57.1 0 0 1 .336-11.05.132.132 0 1 0-.26-.054 39.4 39.4 0 0 0-.762 9.762 190.078 190.078 0 0 0-5.258-9.693c-.167-.29-.564 0-.419.29 2.896 5.578 5.586 11.278 8.108 17.054a37.03 37.03 0 0 0-12.094-7.003c-.19-.068-.335.206-.137.29a44.032 44.032 0 0 1 13.077 8.657 339.746 339.746 0 0 1 5.182 12.787c-4.823-4.732-11.43-7.841-17.817-9.51-.213-.061-.274.274-.068.335 7.392 2.225 13.138 6.417 18.762 11.43a339.475 339.475 0 0 1 1.92 5.221 582.999 582.999 0 0 1 6.805 19.943c1.017 3.206 2.033 6.417 3.049 9.633 1.074 3.46 1.92 7.11 3.322 10.448.138.32.71.251.64-.137-.571-3.285-1.783-6.539-2.75-9.77Z" fill="#263238" fill-rule="evenodd" data-name="Path 9"/><path d="M-323.294 374.509a19.182 19.182 0 0 0-2.774 6.92c0 .068.084.106.107 0a60.68 60.68 0 0 1 3.048-6.79c.084-.19-.251-.328-.38-.13Z" fill="#263238" fill-rule="evenodd" data-name="Path 10"/><path d="M-337.049 390.573a20.301 20.301 0 0 0-6.92-2.324c-.068 0-.106.084 0 .107 1.113.465 2.287.762 3.407 1.22 1.12.456 2.233.96 3.376 1.356a.198.198 0 0 0 .137-.359Z" fill="#263238" fill-rule="evenodd" data-name="Path 11"/><path d="M-340.928 371.247a14.03 14.03 0 0 0-2.225-1.379.122.122 0 0 0-.13.198 13.542 13.542 0 0 0 2.195 1.425c.145.084.297-.152.16-.244Z" fill="#263238" fill-rule="evenodd" data-name="Path 12"/><path d="M-288.444 407.453c-5.556 1.654-11.142 3.178-16.697 4.801-.48.145-9.907-17.847-6.478-27.114 3.14-8.581 10.319-15.005 18.884-17.916 3.963-1.35 8.84-2.485 13.032-1.525 3.726.824 6.355 3.872 7.567 7.377 1.646 4.763 1.097 10.44.198 15.303-.83 4.511-2.484 8.946-5.464 12.49-2.98 3.544-6.721 5.304-11.042 6.584Z" fill="#a4dcb6" fill-rule="evenodd" data-name="Path 13"/><path d="M-280.404 390.352a73.971 73.971 0 0 1-10.89 4.29 45.134 45.134 0 0 0-7.27 2.63c2.347-5.228 4.922-10.349 7.62-15.424 3.59-1.037 7.362-2.66 10.075-5.198a.16.16 0 0 0-.206-.236c-2.957 2.096-6.226 3.353-9.495 4.763.762-1.364 1.478-2.728 2.24-4.092.213-.374-.312-.762-.564-.381a117.104 117.104 0 0 0-7.895 13.252 60.965 60.965 0 0 1-.572-12.147c0-.1-.144-.107-.16 0a40.39 40.39 0 0 0 .138 13.344 158.384 158.384 0 0 0-5.335 11.903c-.632-2.423-1.455-4.809-2.004-7.247a33.463 33.463 0 0 1-.762-10.67c0-.106-.145-.113-.16 0a37.76 37.76 0 0 0 2.332 19.632 164.07 164.07 0 0 0-2.622 7.308 145.478 145.478 0 0 0-7.377 38.538.237.237 0 1 0 .473.038 190.708 190.708 0 0 1 8.276-38.104c1.608-4.846 3.467-9.548 5.502-14.159 3.277-.975 6.546-2.286 9.77-3.406 3.223-1.12 6.363-2.347 9.007-4.413a.126.126 0 1 0-.121-.22Z" fill="#263238" fill-rule="evenodd" data-name="Path 14"/><path d="M-275.222 385.125c-3.4 1.211-6.615 2.903-10.014 4.122-.152.061-.061.313.1.282 3.588-.762 7.147-1.851 10.043-4.206.114-.092-.008-.237-.13-.198Z" fill="#263238" fill-rule="evenodd" data-name="Path 15"/><path d="M-302.924 377.794c0-.176-.22-.282-.274-.1-.937 3.133-1.577 6.455-.67 9.656a.122.122 0 0 0 .236 0c.13-3.239-.054-6.379.708-9.556Z" fill="#263238" fill-rule="evenodd" data-name="Path 16"/><path d="M-288.924 370.561a8.307 8.307 0 0 0-1.471 5.335c0 .114.19.19.228.046.412-1.791 1.105-3.422 1.654-5.167a.236.236 0 0 0-.411-.214Z" fill="#263238" fill-rule="evenodd" data-name="Path 17"/><path d="M-354.53 415.394c1.63 5.167 5.501 12.315 11.628 12.368 3.97.038 7.972-.434 11.957-.487 4.26-.069 8.535-.061 12.788.198.35 0-.51-12.773-10.76-18.999-2.866-1.745-6.38-2.286-9.64-3.002a44.429 44.429 0 0 0-11.386-1.189c-2.355.091-4.313.594-5.152 3.003-.876 2.522-.213 5.646.564 8.108Z" fill="#a4dcb6" fill-rule="evenodd" data-name="Path 18"/><path d="M-350.118 408.924c2.492.64 4.999 1.38 7.498 2.172a25.847 25.847 0 0 0-2.065-2.02c-1.074-.891-2.286-1.6-3.406-2.385-.092-.06 0-.251.083-.198a14.068 14.068 0 0 1 6.051 4.801 123.77 123.77 0 0 1 9.145 3.338 34.668 34.668 0 0 1 5.876 3.094 23.96 23.96 0 0 0-2.127-3.696c-1.364-1.768-3.2-2.744-4.983-4a.16.16 0 0 1 .16-.275 14.586 14.586 0 0 1 7.994 8.672 34.1 34.1 0 0 1 5.814 5.281c6.783 7.697 12.117 17.947 12.14 28.402 0 .252-.396.32-.45.061-1.92-10.387-6.028-19.714-12.955-27.777a21.846 21.846 0 0 0-1.524-1.623 45.95 45.95 0 0 0-5.609-.42c-2.18 0-4.344.32-6.515.496-3.575.297-7.537.335-10.76-1.463-.146-.084-.047-.328.113-.267 7.194 2.614 14.739-.709 21.948.854a33.639 33.639 0 0 0-10.669-6.859l-.663-.267c-4.618.557-9.495 1.76-13.991.26a.114.114 0 0 1 .06-.214c4.344 1.09 8.513-.282 12.803-.495-4.671-1.822-9.427-3.262-14.113-5.068-.275-.16-.282-.51.145-.404Z" fill="#263238" fill-rule="evenodd" data-name="Path 19"/><path d="M-352.16 413.466a60.31 60.31 0 0 0 6.72.51c.054 0 .07.084 0 .1a13.938 13.938 0 0 1-6.782-.435c-.091-.03-.045-.19.061-.175Z" fill="#263238" fill-rule="evenodd" data-name="Path 20"/><path d="M-336.98 409.038a10.979 10.979 0 0 1 3.33 2.286c.114.107-.038.313-.168.221-.564-.411-1.15-.762-1.73-1.173a15.393 15.393 0 0 1-1.623-1.029.198.198 0 0 1 .19-.305Z" fill="#263238" fill-rule="evenodd" data-name="Path 21"/><path d="M-300.79 425.674c-.076.176.168.336.267.153a.275.275 0 0 0 .16.106c4.125.983 8.306 1.711 12.52 2.18 3.392.305 7.294.488 10.266-1.479 4.016-2.66 6.66-9.792 4.488-14.319-2.568-5.372-10.318-2.454-14.205-.54a28.517 28.517 0 0 0-13.496 13.9Z" fill="#a4dcb6" fill-rule="evenodd" data-name="Path 22"/><path d="M-303.792 428.166a39.736 39.736 0 0 1 7.476-5.692 25.377 25.377 0 0 1 7.62-7.728c.145-.099.267.13.137.236a34.002 34.002 0 0 0-6.393 6.722 70.344 70.344 0 0 1 9.38-4.268 12.513 12.513 0 0 1 5.038-5.052c.046 0 .099 0 .053.068a20.804 20.804 0 0 0-4.572 4.779c1.905-.71 3.81-1.372 5.753-2.012.176-.061.244.205.077.266-3.422 1.342-6.927 2.751-10.319 4.382a39.75 39.75 0 0 0 12.498-.038.091.091 0 0 1 .046.175 24.569 24.569 0 0 1-13.26.199 63.239 63.239 0 0 0-6.287 3.52 15.796 15.796 0 0 1 5.083.42 38.78 38.78 0 0 0 8.916 1.028c.114 0 .145.183 0 .198-5.182.892-10.082-1.463-15.241-.845a38.673 38.673 0 0 0-5.335 4.366 40.39 40.39 0 0 0-7.803 11.005c-2.157 4.404-3.33 9.068-5.076 13.61a.168.168 0 0 1-.32-.084c1.532-8.985 5.998-18.869 12.529-25.255Z" fill="#263238" fill-rule="evenodd" data-name="Path 23"/><path d="M-288.162 415.866a5.844 5.844 0 0 1 1.326-1.608c.435-.469.951-.856 1.524-1.143.053 0 .084.054.053.084-.427.48-1.013.838-1.47 1.296-.458.457-.847 1.013-1.319 1.47-.061.061-.152-.015-.114-.099Z" fill="#263238" fill-rule="evenodd" data-name="Path 24"/><path d="M-279.62 418.656c.762-.199 1.586-.183 2.363-.343a22.02 22.02 0 0 0 2.286-.686.091.091 0 0 1 .069.167 7.621 7.621 0 0 1-4.725 1.098.122.122 0 0 1 .007-.236Z" fill="#263238" fill-rule="evenodd" data-name="Path 25"/><path d="m-325.146 442.356.679 7.727 2.309 26.078h20.423l2.888-26.078.846-7.727h-27.145Z" fill="#74472c" fill-rule="evenodd" data-name="Path 26"/><path d="m-325.146 442.356.679 7.727h25.62l.846-7.727h-27.145Z" fill="#263238" fill-rule="evenodd" data-name="Path 27"/><path d="M-295.981 446.517h-31.192v-6.264h31.192v6.264z" fill="#74472c" fill-rule="evenodd" data-name="Rectangle 28"/></g><g data-name="freepik--Lamps--inject-11"><path d="M-345.018 137.49h.762v86.473h-.762V137.49z" fill="#263238" fill-rule="evenodd" data-name="Rectangle 29"/><path d="m-311.457 255.954-2.667 5.868h-61.042l-2.66-5.868 25.987-17.985h14.395l25.987 17.985Z" fill="#455a64" fill-rule="evenodd" data-name="Path 28"/><path d="m-335.637 220.64-1.807 17.33h-14.395l-1.806-17.33h18.008Z" fill="#455a64" fill-rule="evenodd" data-name="Path 29"/><path d="m-311.457 255.954-2.675 5.868h-61.034l-2.66-5.868h66.369Z" fill="#37474f" fill-rule="evenodd" data-name="Path 30"/><path d="m-351.839 237.97-.366-3.514 15.287-1.554-.526 5.067h-14.395Z" fill-rule="evenodd" data-name="Path 32"/><path d="M-282.117 115.49h.763v52.416h-.763V115.49z" fill="#263238" fill-rule="evenodd" data-name="Rectangle 30"/><path d="m-248.555 199.89-2.667 5.868h-61.042l-2.66-5.868 25.987-17.985h14.395l25.987 17.985Z" fill="#455a64" fill-rule="evenodd" data-name="Path 33"/><path d="m-272.735 164.576-1.807 17.329h-14.395l-1.806-17.33h18.008Z" fill="#455a64" fill-rule="evenodd" data-name="Path 34"/><path d="m-284.937 203.905-.366-3.513 15.287-1.555-.526 5.068h-14.395Z" fill-rule="evenodd" data-name="Path 35"/><path d="m-248.555 199.897-2.675 5.86h-61.034l-2.66-5.86h66.369Z" fill="#37474f" fill-rule="evenodd" data-name="Path 36"/><path d="M-296.01 276.606s-12.665 25.103-48.635 25.103-48.635-25.103-48.635-25.103l18.137-14.776h60.965l18.168 14.776Z" fill="#fff" fill-rule="evenodd" data-name="Path 38"/><path d="M-304.606 274.16s-5.741 10.319-20.938 15.73c-5.056 1.802-11.433 3.063-19.093 3.063-29.576 0-40.04-18.793-40.04-18.793l14.93-12.33h50.212l14.929 12.33Z" fill="#fff" fill-rule="evenodd" data-name="Path 39"/></g><g data-name="freepik--Table--inject-11"><path d="m-393.273 475.78 40.321-.183 40.314-.068 80.642-.13 80.642.13 40.32.068 40.314.183-40.313.183-40.321.069-80.642.13-80.642-.13-40.314-.069-40.32-.183Z" fill="#263238" fill-rule="evenodd" data-name="Path 40"/></g><g data-name="freepik--Switches--inject-11"><path d="M-283.698 240.736h103.455v114.588h-103.455V240.736z" fill="#fff" fill-rule="evenodd" data-name="Rectangle 31"/><path d="M-271.537 258.35h37.925v79.36h-37.925v-79.36z" fill="#ffede9" fill-rule="evenodd" data-name="Rectangle 32"/><path d="M-230.336 258.35h37.925v79.36h-37.925v-79.36z" fill="#a6a6a6" fill-rule="evenodd" data-name="Rectangle 33"/><path d="M-270.479 260.557h35.815v74.947h-35.815v-74.947z" fill="#c7c7c7" fill-rule="evenodd" data-name="Rectangle 34"/><path d="M-270.479 298.027h35.815v37.477h-35.815v-37.477z" fill="#dbdbdb" fill-rule="evenodd" data-name="Rectangle 35"/><path d="M-266.457 292.533a515.545 515.545 0 0 1-.283-7.25c-.069-2.414-.152-4.829-.203-7.248l-.148-7.25c-.037-2.414-.093-4.829-.111-7.244v-.735h.75l6.938-.088 6.94-.033 6.939.033c2.313 0 4.626.055 6.939.083h.75v.763c0 2.415-.075 4.83-.112 7.245a758.726 758.726 0 0 1-.153 7.249c-.06 2.415-.129 4.834-.198 7.249-.07 2.415-.172 4.834-.283 7.25a567.402 567.402 0 0 1-.286-7.25c-.07-2.415-.148-4.83-.2-7.25-.05-2.418-.12-4.829-.152-7.248-.032-2.42-.093-4.83-.111-7.245l.75.745c-2.314.028-4.627.074-6.94.084l-6.939.032-6.939-.032-6.94-.088.746-.74c0 2.414-.079 4.83-.111 7.244l-.153 7.249c-.05 2.42-.134 4.834-.199 7.249s-.18 4.811-.291 7.226Z" fill="#dbdbdb" fill-rule="evenodd" data-name="Path 41"/><path d="M-236.889 321.322c.108.974.192 1.949.27 2.923.077.975.149 1.944.197 2.918.048.975.113 1.95.15 2.924.035.974.089 1.943.107 2.918v.711h-.735l-7.845.078-7.838.036h-7.845l-7.838-.084h-.736v-.717c0-.975.072-1.95.102-2.918.03-.969.095-1.95.15-2.924.113-1.95.25-3.892.466-5.841.22 1.949.358 3.892.472 5.841.054.975.114 1.95.15 2.924.035.974.09 1.943.101 2.918l-.717-.724 7.838-.084h15.683l7.845.084-.724.724c0-.975.072-1.95.108-2.918.036-.969.095-1.95.15-2.924.053-.975.125-1.95.19-2.918.066-.968.192-1.973.3-2.947Z" fill="#fff" fill-rule="evenodd" data-name="Path 42"/><path d="M-267.202 298.027c2.44-.346 4.879-.526 7.312-.645 1.196-.078 2.44-.096 3.66-.144l3.658-.042c2.434 0 4.873.06 7.313.18 2.44.12 4.879.305 7.312.651-2.433.347-4.873.532-7.312.652-2.44.12-4.879.191-7.313.185l-3.659-.047c-1.195-.048-2.44-.06-3.659-.138-2.433-.125-4.873-.305-7.312-.652Z" fill="#fff" fill-rule="evenodd" data-name="Path 43"/><path d="M-252.572 279.797a5.746 5.746 0 1 1-.011-11.491 5.746 5.746 0 0 1 .012 11.491Zm0-9.261a3.522 3.522 0 1 0-.011 7.043 3.522 3.522 0 0 0 .011-7.043Z" fill="#a6a6a6" fill-rule="evenodd" data-name="Path 44"/><path d="M-253.69 314.697h2.23v10.523h-2.23v-10.523z" fill="#fff" fill-rule="evenodd" data-name="Rectangle 36"/><path d="M-193.463 335.498h-35.814V260.55h35.814v74.947z" fill="#c7c7c7" fill-rule="evenodd" data-name="Rectangle 37"/><path d="M-193.463 298.027h-35.814v-37.476h35.814v37.476z" fill="#dbdbdb" fill-rule="evenodd" data-name="Rectangle 38"/><path d="M-193.469 298.027c.144 3.121.265 6.244.365 9.37.09 3.12.197 6.248.263 9.369l.191 9.369c.048 3.12.12 6.242.144 9.369v.95h-.969l-8.968.108-8.969.042-8.969-.042c-2.989 0-5.979-.072-8.968-.108h-.969v-.95c0-3.127.096-6.248.144-9.37.048-3.12.12-6.247.197-9.368.078-3.122.168-6.249.257-9.37.09-3.12.222-6.248.365-9.369.144 3.121.267 6.244.37 9.37.09 3.12.192 6.247.258 9.369.066 3.12.155 6.248.197 9.369.042 3.12.12 6.242.144 9.369l-.969-.963c2.99-.036 5.979-.101 8.969-.113l8.968-.036 8.969.036 8.968.113-.962.963c0-3.127.101-6.248.143-9.37l.197-9.368c.066-3.122.174-6.249.257-9.37.084-3.12.234-6.248.377-9.369Z" fill="#dbdbdb" fill-rule="evenodd" data-name="Path 45"/><path d="M-227.059 274.733a95.908 95.908 0 0 1-.27-2.918c-.077-.974-.149-1.949-.196-2.923-.048-.975-.114-1.944-.15-2.918-.036-.975-.09-1.95-.102-2.924v-.711h.736l7.844-.084 7.839-.03 7.844.03 7.845.078h.73v.711c0 .975-.072 1.95-.102 2.924s-.096 1.943-.15 2.918c-.113 1.949-.251 3.898-.466 5.841-.221-1.943-.359-3.892-.473-5.841-.053-.975-.113-1.944-.15-2.918-.035-.975-.089-1.95-.1-2.924l.723.724-7.845.083-7.844.03-7.839-.03-7.844-.083.723-.724c0 .975-.071 1.95-.107 2.924-.036.974-.096 1.943-.15 2.918-.054.974-.125 1.949-.191 2.923-.066.975-.197 1.932-.305 2.924Z" fill="#fff" fill-rule="evenodd" data-name="Path 46"/><path d="M-196.745 298.027c-2.44.347-4.88.527-7.313.652-1.196.078-2.44.09-3.659.138l-3.66.047c-2.432 0-4.872-.065-7.311-.185-2.44-.12-4.88-.305-7.313-.652 2.434-.346 4.873-.526 7.313-.651 2.44-.126 4.879-.186 7.312-.18l3.66.042c1.195.048 2.439.066 3.658.144 2.434.12 4.873.275 7.313.645Z" fill="#fff" fill-rule="evenodd" data-name="Path 47"/><path d="M-211.376 281.208a5.746 5.746 0 1 1 0-11.491 5.746 5.746 0 0 1 0 11.491Zm0-9.261a3.522 3.522 0 1 0 0 7.043 3.522 3.522 0 0 0 0-7.043Z" fill="#fff" fill-rule="evenodd" data-name="Path 48"/><path d="M-212.488 314.697h2.23v10.523h-2.23v-10.523z" fill="#a6a6a6" fill-rule="evenodd" data-name="Rectangle 39"/><path d="M-283.698 318.613c.113 3.061.215 6.117.28 9.178l.24 9.178.185 9.178.138 9.177-.843-.867c8.621-.101 17.237-.143 25.859-.197l25.865-.066 25.865.06c8.622.06 17.238.096 25.86.203l-.85.85.144-9.178.18-9.178.22-9.16c.066-3.061.168-6.117.282-9.178.113 3.061.215 6.117.287 9.178l.239 9.178.185 9.178.138 9.177v.837h-.861c-8.622.108-17.238.138-25.86.198l-25.865.065-25.865-.065c-8.622-.06-17.237-.096-25.86-.204h-.86v-.83l.143-9.178.18-9.178.239-9.178c.12-3.061.221-6.117.335-9.178Z" fill="#dbdbdb" fill-rule="evenodd" data-name="Path 49"/><path d="M-231.996 388.668a3.52 3.52 0 1 1 0-7.041 3.52 3.52 0 0 1 0 7.041Zm0-6.333a2.812 2.812 0 1 0 2.812 2.812 2.82 2.82 0 0 0-2.812-2.812Z" fill="#dbdbdb" fill-rule="evenodd" data-name="Path 50"/><path d="m-234.477 387.135 4.467-4.467.501.501-4.467 4.467-.501-.5z" fill="#dbdbdb" fill-rule="evenodd" data-name="Rectangle 40"/><path d="M-231.3 252.665a3.536 3.536 0 1 1 1.334-.267 3.445 3.445 0 0 1-1.333.267Zm0-6.333a2.721 2.721 0 0 0-1.066.213 2.812 2.812 0 1 0 2.141 5.197 2.82 2.82 0 0 0 0-5.197 2.827 2.827 0 0 0-1.074-.213Z" fill="#dbdbdb" fill-rule="evenodd" data-name="Path 51"/><path d="m-234.361 248.257.272-.655 5.832 2.43-.273.654-5.831-2.43z" fill="#dbdbdb" fill-rule="evenodd" data-name="Rectangle 41"/></g></g><g data-name="Group 4532"><g data-name="Group 4525"><g data-name="Group 4523"><path d="M-137.212 518.227c1.648-.624 3.304-2.207 5.144-2.223l.454 2.223h5.338l-2.807-13.824-1.91-.098-21.866.201s.182 4.385.02 4.92c-.479 1.593-6.324 3.968-8.931 5.339-1.37.72-2.243 2.868-1.938 3.462h26.496Z" fill="#211f20" fill-rule="evenodd" data-name="Path 1755"/><path d="m-132.988 511.704-1.325-7.125" stroke-linejoin="round" stroke-linecap="round" stroke="#000" fill="transparent" data-name="Line 34"/></g><g data-name="Group 4524"><path d="M-83.816 482.203c.538-1.679.333-3.96 1.467-5.408l2.022 1.03L-77 473.65l-12.56-6.421-1.267 1.431-13.472 17.227s3.542 2.589 3.86 3.049c.947 1.368-.84 7.42-1.392 10.312-.29 1.52.846 3.542 1.5 3.674l16.515-20.72Z" fill="#383336" fill-rule="evenodd" data-name="Path 1756"/><path d="M-85.604 473.416-92 470.011" stroke-linejoin="round" stroke-linecap="round" stroke="#000" fill="transparent" data-name="Line 35"/></g><path d="M-171.359 397.306c-.683 8.273-.01 39.034 1.364 52.318.978 9.455 9.356 56.573 9.356 56.573h33.005l-10.526-64.345 1.524-48.159" fill="#fe7f54" fill-rule="evenodd" data-name="Path 1757"/><path d="m-131.715 506.197-10.526-64.345 1.524-48.159" stroke-linejoin="round" stroke-linecap="round" stroke="#935035" fill="transparent" data-name="Path 1758"/><path d="M-147.678 468.424a119.886 119.886 0 0 0 11.472 8.114" stroke-linejoin="round" stroke-linecap="round" stroke="#000" fill="transparent" data-name="Path 1759"/><path d="m-142.78 475.789 6.406 7.135" stroke-linejoin="round" stroke-linecap="round" stroke="#000" fill="transparent" data-name="Path 1760"/><path d="M-152.921 381.95s-4.561 55.524-.687 64.445c3.874 8.92 12.174 16.971 17.272 21.976 5.097 5.005 27.073 25.24 27.073 25.24l20.018-26.328-36.99-33.29 6.061-45.46" fill="#fe7f54" fill-rule="evenodd" data-name="Path 1761"/><path d="M-152.921 381.95s-4.561 55.524-.687 64.445c3.874 8.92 14.8 19.491 19.896 24.496" stroke-linejoin="round" stroke-linecap="round" stroke="#000" fill="transparent" data-name="Path 1762"/><path d="m-126.325 433.992-.194 3.533" stroke-linejoin="round" stroke-linecap="round" stroke-width=".75" stroke="#000" fill="transparent" data-name="Line 36"/><path d="m-92.631 471.736-26.428-24.333c-6.018-5.54-9.505-9.596-9.601-10.928-.442-6.085 6.523-45.366 6.523-45.366" stroke-linejoin="round" stroke-linecap="round" stroke="#935035" fill="transparent" data-name="Path 1763"/><path d="M-123.048 441.603a162.724 162.724 0 0 1 6.752 34.935" stroke-linejoin="round" stroke-linecap="round" stroke="#000" fill="transparent" data-name="Path 1764"/><path d="M-119.127 444.852a258.942 258.942 0 0 1 10.393 22.378" stroke-linejoin="round" stroke-linecap="round" stroke="#000" fill="transparent" data-name="Path 1765"/><path d="m-125.225 426.42-33.067-2.918 33.893-3.742-.826 6.66Z" fill-rule="evenodd" data-name="Path 1766"/></g><g data-name="Group 4530"><g data-name="Group 4528"><g data-name="Group 4526"><path d="m-187.147 312.102-8.986-9.254s-6.912-8.669-8.09-10.822c-1.48-2.7-5.97-12.594-6.672-13.075-.703-.481-1.528 1.44-1.227 2.439 0 0-.916-3.1-1.182-3.1-.53-.003-1.356 1.071-1.12 2.442.116.678.664 2.494.664 2.494s-1.301-2.094-1.402-2.06c-.324.106-.787.843-.543 1.9.435 1.895.795 5.12.98 6.62.363 2.929 1.798 6.792 1.81 8.079.019 2.108.874 7.769 6.021 12.447l9.958 13.617" fill="#ce7159" fill-rule="evenodd" data-name="Path 1767"/><path d="m-187.147 312.102-8.986-9.254s-6.912-8.669-8.09-10.822c-1.48-2.7-5.97-12.594-6.672-13.075-.703-.481-1.528 1.44-1.227 2.439 0 0-.916-3.1-1.182-3.1-.53-.003-1.356 1.071-1.12 2.442.116.678.664 2.494.664 2.494s-1.301-2.094-1.402-2.06c-.324.106-.787.843-.543 1.9.435 1.895.795 5.12.98 6.62.363 2.929 1.798 6.792 1.81 8.079.019 2.108.874 7.769 6.021 12.447l9.958 13.617" fill="#f1a262" fill-rule="evenodd" data-name="Path 1768"/></g><path d="M-159.072 324.058s-10.437 7.76-18.384 13.494c-7.948 5.734-14.737.68-19.816-5.285-3.249-3.817-12.83-16.332-12.83-16.332l14.302-13.256 12.89 13.792s9.216-8.149 14.943-13.764c6.088-5.97 12.92-6.624 20.36-2.5" fill="#22b0ec" fill-rule="evenodd" data-name="Path 1769"/><path d="m-182.91 316.472 5.993 6.063" stroke-linejoin="round" stroke-linecap="round" stroke="#000" fill="transparent" data-name="Line 37"/><path d="m-192.889 305.794-14.208 14.046" stroke-linejoin="round" stroke-linecap="round" stroke="#d69536" fill="transparent" data-name="Line 38"/><path d="m-213.947 282.622 3.043 9.385" stroke-linejoin="round" stroke-linecap="round" stroke-width=".75" stroke="#000" fill="transparent" data-name="Line 39"/><path d="m-212.209 281.134 3.75 10.734" stroke-linejoin="round" stroke-linecap="round" stroke-width=".75" stroke="#000" fill="transparent" data-name="Line 40"/><path d="m-215.579 283.792 2.798 8.71" stroke-linejoin="round" stroke-linecap="round" stroke-width=".75" stroke="#000" fill="transparent" data-name="Line 41"/><g data-name="Group 4527"><path d="M-207.835 294.68s-6.349-4.079-7.018-4.465c-.668-.385-1.047 1.116.117 2.543 1.163 1.426 4.036 5.34 4.036 5.34s.188 4.076 2.349 7.277" fill="#ce7159" fill-rule="evenodd" data-name="Path 1770"/><path d="M-207.835 294.68s-6.349-4.079-7.018-4.465c-.668-.385-1.047 1.116.117 2.543 1.163 1.426 4.036 5.34 4.036 5.34s.188 4.076 2.349 7.277" fill="#f1a262" fill-rule="evenodd" data-name="Path 1771"/></g><path d="M-214.063 290.705c.182.114 5.91 3.77 5.91 3.77" stroke-linejoin="round" stroke-linecap="round" stroke-width=".75" stroke="#000" fill="transparent" data-name="Path 1772"/><path d="M-213.36 294.53c.101.13 2.66 3.567 2.66 3.567s.173 3.939 1.941 6.624" stroke-linejoin="round" stroke-linecap="round" stroke-width=".75" stroke="#000" fill="transparent" data-name="Path 1773"/></g><path d="M-170.294 312.512c-4.58 7.727-5.772 17.383-3.213 25.992l1.142 88.545 63.035-7.516s-14.533-91.888-15.897-98.142c-1.363-6.255-9.23-17.43-17.382-23.812" fill="#22b0ec" fill-rule="evenodd" data-name="Path 1774"/><path d="M-125.482 390.742c-23.768 0-26.088-16.283-26.088-16.283l-21.448 1.943" stroke-linejoin="round" stroke-linecap="round" stroke="#d69536" fill="transparent" data-name="Path 1775"/><path d="m-121.242 420.953-13.214-94.135" stroke-linejoin="round" stroke-linecap="round" stroke="#d69536" fill="transparent" data-name="Line 42"/><path d="M-162.394 307.698s-5.92 8.139-3.824 27.276c2.095 19.137 4.574 90.796 4.574 90.796" stroke-linejoin="round" stroke-linecap="round" stroke="#d69536" fill="transparent" data-name="Path 1776"/><path d="M-170.294 312.512c-4.58 7.727-5.772 17.383-3.213 25.992" stroke-linejoin="round" stroke-linecap="round" stroke="#000" fill="transparent" data-name="Path 1777"/><g data-name="Group 4529"><path d="m-158.333 336.515-12.836 1.285s-10.652-1.306-13.071-1.721c-3.035-.521-13.162-1.898-13.976-1.647-.814.251-.2 1.158.77 1.543 0 0-2.87-.332-2.96-.082-.106.297.051 1.264 1.26 1.797.63.278 1.044.467 2.208.667-1.165-.2-2.283-.15-2.319-.05-.118.32.171 1.141 1.15 1.607 1.756.838 4.091 1.802 5.38 2.589 2.519 1.537 5.898 3.876 6.913 4.667 1.663 1.296 6.857 4.758 13.722 3.635l16.856.67" fill="#f1a262" fill-rule="evenodd" data-name="Path 1778"/><path d="m-197.361 338.261 8.833 2.011" stroke-linejoin="round" stroke-linecap="round" stroke-width=".75" stroke="#000" fill="transparent" data-name="Line 43"/><path d="m-197.446 335.975 9.307.752" stroke-linejoin="round" stroke-linecap="round" stroke-width=".75" stroke="#000" fill="transparent" data-name="Line 44"/><path d="m-152.671 316.438-5.677 17.79-24.232 2.406-3.234 21.99s17.694.112 26.76-.275c5.935-.253 16.917-1.38 19.933-10.974 2.94-9.349 7.79-21.111 9.577-27.94" fill="#22b0ec" fill-rule="evenodd" data-name="Path 1779"/><path d="M-131.716 326.785s-5.068 13.156-7.405 20.59c-3.016 9.593-13.998 10.721-19.933 10.974l-12.564.45" stroke-linejoin="round" stroke-linecap="round" stroke="#000" fill="transparent" data-name="Path 1780"/><path d="m-154.16 321.103-4.188 13.125-24.232 2.406" stroke-linejoin="round" stroke-linecap="round" stroke="#000" fill="transparent" data-name="Path 1781"/><path d="m-177.007 336.08-2.836 22.56" stroke-linejoin="round" stroke-linecap="round" stroke="#000" fill="transparent" data-name="Line 45"/><path d="m-127.415 323.142-4.8 4.067" stroke-linejoin="round" stroke-linecap="round" stroke="#000" fill="transparent" data-name="Line 46"/></g></g><g data-name="Group 4531"><path d="M-111.342 316.82c-5.949-5.948-15.677-14.105-23.707-18.244-.243-5.624-.239-10.154-.45-16.758-.288-9.071-4.726-18.495-14.787-19.543-11.622-1.212-17.546 6.394-19.593 13.77-1.797 6.48-2.228 15.091.257 22.097 3.563 10.047 11.478 14.99 17.685 18.313 19.136 10.246 32.965 25.645 32.965 25.645s7.921-18.535 7.63-25.28Z" fill="#481505" fill-rule="evenodd" data-name="Path 1782"/><path d="M-163.762 293.427c2.287 3.428 8.015 3.65 11.585 4.911a54.37 54.37 0 0 1 20.386 12.9c3.536 3.561 7.131 7.08 10.313 10.977" stroke-linejoin="round" stroke-linecap="round" stroke="#72301e" fill="transparent" data-name="Path 1783"/><path d="M-141.795 275.196c.127 4.737.243 9.572-1.145 14.103" stroke-linejoin="round" stroke-linecap="round" stroke="#72301e" fill="transparent" data-name="Path 1784"/><path d="M-160.059 296.863c-2.2-.758-4.061-1.396-5.896-2.88-1.743-1.41-3.073-3.317-2.767-6.766.303-3.415 1.587-11.713 1.997-12.371 1.518-2.436 4.406-4.194 7.372-4.216 3.011-.023 5.913 1.697 6.867 4.553" fill-rule="evenodd" data-name="Path 1785"/><path d="M-165.25 287.291c-.113-.4-.379-.67-.88-.66-1.14.025-2.095 1.084-2.373 2.127-.143.536-.131 1.137.125 1.638.143.281.376.525.67.64.706.28 1.47-.198 1.853-.776.346-.52.859-2.072.605-2.969Z" stroke-linejoin="round" stroke-linecap="round" stroke="#df8d2c" fill="transparent" data-name="Path 1786"/><path d="M-155.13 296.74s5.435-1.47 11.93-.486c6.771 1.024 10.184 3.666 10.184 3.666" stroke-linejoin="round" stroke-linecap="round" stroke="#000" fill="transparent" data-name="Path 1787"/><path d="M-145.882 282.094c.02 5.998-.636 9.287-3.04 11.659-2.87 2.83-7.26 4.384-11.496 3.39-3.666-.86-7.343-4.397-5.665-10.908.32-3.047.366-4.358.507-8.057.128-3.354 5.33-9.012 9.827-6.834 9.155 4.327 9.867 10.75 9.867 10.75Z" fill="#f1a262" fill-rule="evenodd" data-name="Path 1788"/><path d="M-164.274 283.245a.957.957 0 1 0 1.913.072.957.957 0 0 0-1.913-.072Z" fill-rule="evenodd" data-name="Path 1789"/><path d="M-155.198 284.232a.956.956 0 1 0 1.911.073.956.956 0 0 0-1.911-.073Z" fill-rule="evenodd" data-name="Path 1790"/><path d="M-155.487 287.931a2.317 2.317 0 1 0 4.63.176 2.317 2.317 0 0 0-4.63-.176Z" fill="#ef8050" fill-rule="evenodd" data-name="Path 1791"/><path d="M-165.387 286.658a1.855 1.855 0 1 0 3.708.142 1.855 1.855 0 0 0-3.708-.142Z" fill="#ef8050" fill-rule="evenodd" data-name="Path 1792"/><path d="M-162.932 290.385c.095-.337 1.142-.217 2.304-.157 1.033.053 2.315-.043 2.479.294.205.423.011 2.305-1.113 2.931-.888.494-1.837.372-2.602-.099-.765-.472-1.396-1.807-1.068-2.969Z" fill="#fff" fill-rule="evenodd" data-name="Path 1793"/><path d="M-152.851 272.893c2.512 1.605 4.39 3.885 5.401 5.52.593.96 1.138 1.96 1.504 3.033" stroke-linejoin="round" stroke-linecap="round" stroke="#000" fill="transparent" data-name="Path 1794"/><path d="M-146.79 273.353a52.425 52.425 0 0 1 .195 18.167" stroke-linejoin="round" stroke-linecap="round" stroke="#000" fill="transparent" data-name="Path 1795"/><g data-name="Path 1796"><path d="m-161.244 284.37-.734 1.882a1.214 1.214 0 0 0 1.084 1.654l1.082.04" fill="#f1a262" fill-rule="evenodd"/><path d="m-161.244 284.37-.734 1.882a1.214 1.214 0 0 0 1.084 1.654l1.082.04" stroke-linejoin="round" stroke-linecap="round" stroke-width=".5" stroke="#000" fill="transparent"/></g><path d="M-152.1 280.904c-.378-.577-1.395-.863-1.947-.973-.253-.05-.524-.077-.763.02-.447.18-.504.697-.104.968.3.203.725.222 1.065.336.388.13.763.292 1.15.424.3.103.782.035.742-.38a.873.873 0 0 0-.143-.395Z" fill-rule="evenodd" data-name="Path 1797"/><path d="M-162.015 279.058c-.177-.167-.407-.228-.629-.26-.483-.071-1.391-.122-1.835.303a.811.811 0 0 0-.209.328c-.128.38.257.595.528.594.351-.003.7-.037 1.051-.037.308-.001.665.115.96.02.393-.13.463-.637.134-.948Z" fill-rule="evenodd" data-name="Path 1798"/><path d="M-146.446 289.841c-.244-.337-.586-.5-1.053-.319-1.064.414-1.599 1.736-1.503 2.81.05.553.266 1.113.678 1.497.23.215.533.363.849.372.758.021 1.313-.689 1.475-1.364.147-.607.098-2.24-.446-2.996Z" stroke-linejoin="round" stroke-linecap="round" stroke="#df8d2c" fill="transparent" data-name="Path 1799"/></g></g></g></svg>