<svg xmlns="http://www.w3.org/2000/svg" width="124" height="124" viewBox="4639 120.95 124 124"><g data-name="CompositeLayer"><g data-name="Group 5255"><path d="M4639 182.9a62 62 0 1 1 0 .1z" fill="#fff" fill-rule="evenodd" data-name="Ellipse 112"/></g><g data-name="Group 5239"><path d="M4711.648 235.018h-.17c-.435-.205-1.006-.116-1.311-.605l.063.06c-.482-.269-.362-.85-.637-1.227.03-7.855.065-15.71.08-23.566 0-.363-.185-.726-.283-1.09-.627-.528-1.61-.472-2.08-1.262l.042.044c-.301-.102-.5-.314-.634-.595l.038.038c-.285-.14-.508-.335-.576-.664l.063.063c-.522-.2-.387-.796-.683-1.132l.016.031c-.59-.479-.138-1.297-.591-1.82l.038-2.494c.15-.481.162-1.012.517-1.418l-.004.008c.331-.312.204-.891.66-1.131l-.05.053c.114-.28.328-.473.565-.645l-.015.015c.162-.235.357-.437.603-.586l-.022.022c.168-.251.355-.479.674-.543l-.063.057c.256-.541.849-.421 1.266-.646.645-.327.533-.942.53-1.487-.013-3.501-.045-7.003-.071-10.504.108-.633.604-.962 1.043-1.336l.053-.026c.571-.347 1.141-.353 1.71.005l.047.024c.454.374.961.707 1.043 1.365-.03 3.492-.065 6.984-.083 10.476-.003.545-.107 1.157.534 1.483.296.054.514.252.752.411.08.16.205.216.376.168.347.062.587.27.765.562l-.032-.027a1.7 1.7 0 0 1 .61.592l-.022-.023c.247.168.464.362.567.655l-.055-.059c.473.233.347.815.664 1.138l-.01-.018c.55.5.128 1.302.567 1.837l-.009 2.037c-.426.544.014 1.366-.592 1.853l.021-.039c-.285.344-.149.944-.686 1.134l.064-.065c-.055.342-.28.535-.577.668l.042-.042c-.124.293-.325.505-.637.6l.05-.05c-.185.482-.79.324-1.052.689l-.054.027c-.287.256-.735.228-.981.557-.102.361-.292.723-.291 1.084.016 7.848.054 15.695.087 23.543-.255.396-.138.98-.637 1.252l.067-.066c-.296.503-.873.41-1.31.615Z" fill="#22b0ec" fill-rule="evenodd" data-name="Path 4803"/><path d="m4693.195 235.014-.132.007c-.439-.195-.976-.147-1.332-.544l.014.013c-.24-.174-.462-.364-.551-.663l.06.081c-1.05-1.601.162-3.505-.684-5.134l-.052-.025c-.274-.36-.812-.226-1.088-.583l-.02-.013c-.939-.605-1.805-1.279-2.236-2.366l.031.052c-.483-.344-.435-.917-.6-1.398l.064-.167-.127-.125c-.483-.952-.407-1.912-.045-2.877.138-.126.166-.273.083-.44.24-.403.18-.928.522-1.29l.005-.01c.354-.287.212-.886.688-1.097l-.057.059c.102-.302.318-.5.588-.65l-.035.036c.147-.27.345-.484.644-.586l-.052.051c.208-.473.8-.328 1.086-.676l.028-.015c1.276-.765.833-2.03.837-3.113.029-8.973.008-17.947.029-26.92.002-.935-.248-1.912.272-2.803v-.002c.355-.282.2-.907.725-1.074l-.087.076c.7-.721 1.452-.514 2.216-.127l-.006-.005c.222.162.41.36.59.566l-.003-.002c.542.886.282 1.867.284 2.801.021 9.08.005 18.16.024 27.239.003.938-.233 1.914.262 2.812l-.002-.002c.313.324.895.192 1.12.664l-.045-.042c.29.07.452.314.668.485l.038.025c.43.306.793.685 1.141 1.078l.048.064c.152.215.313.423.485.622l-.012-.019c.376.29.267.835.597 1.15l-.003-.007c.422 1.725.55 3.446-.082 5.154l.03-.06c-.25.371-.13.952-.657 1.167l.063-.066c-.061.328-.289.519-.558.675l.03-.03c-.14.26-.343.46-.6.606l.026-.025c-.156.263-.345.486-.665.55l.05-.051c-.207.518-.783.388-1.138.646l.015-.007c-1.072.717-.716 1.837-.842 2.842-.124.978.5 2.077-.439 2.93l.083-.12c-.23.613-.85.483-1.296.683Z" fill="#22b0ec" fill-rule="evenodd" data-name="Path 4807"/><path d="M4697.516 141.735a.96.96 0 0 0-.077.532c-.486.503-.042 1.29-.543 1.788a.606.606 0 0 0-.06.444c-.238.392-.187.89-.466 1.268a.96.96 0 0 0-.081.533c-.486.503-.045 1.288-.542 1.787-.09.176-.129.362-.119.558.62.575 1.259.336 1.899.046l1.118-.118c.387-.228.863-.197 1.246-.434l1.05-.109c.958-.24 1.918-.494 2.843.112l-.042-.035c.387.35.385.727.081 1.127a.493.493 0 0 0-.081.394c-.092.325-.299.562-.569.752l.027-.029c-.154.233-.366.414-.545.624l-.006.01c-.365.284-.232.862-.655 1.112l.041-.032c-.141.257-.35.45-.584.62l.025-.025c-.157.226-.368.404-.533.624l-.013.02c-.38.272-.242.851-.656 1.102l.039-.033c-.145.25-.357.441-.577.623l.019-.02c-.165.214-.376.388-.524.615l-.022.033c-.393.257-.25.84-.66 1.088l.039-.033c-.147.248-.358.438-.572.624l.014-.016a6.603 6.603 0 0 0-.512.61l-.03.046c-.405.245-.257.83-.661 1.076l.036-.033c-.147.245-.36.43-.564.625l.008-.01a5.63 5.63 0 0 0-.495.568.538.538 0 0 0-.13.4c-.088.33-.295.569-.571.757l.029-.031c-.15.238-.365.42-.552.625l-.002.002a3.274 3.274 0 0 0-.486.548.58.58 0 0 0-.142.413c-.094.322-.3.56-.57.75l.027-.03c-.153.233-.366.414-.544.624l-.006.01c-.366.284-.233.862-.656 1.112l.042-.032c-.142.256-.351.45-.585.62l.025-.025c-.156.226-.368.403-.529.624l-.015.024c-.384.268-.244.848-.658 1.098l.04-.033c-.146.25-.357.441-.577.623l.018-.02c-.165.214-.376.388-.523.615l-.022.033c-.394.257-.25.841-.662 1.087l.043-.033a1.294 1.294 0 0 1-.742.58l-.817.014a1.611 1.611 0 0 1-.703-.584l.037.03c-.392-.357-.39-.736-.063-1.133a.652.652 0 0 0 .056-.456c.429-.542.017-1.338.558-1.847l-.012.02c.502-.482.051-1.26.542-1.747a.662.662 0 0 0 .062-.462c.43-.541.022-1.335.553-1.845l-.01.017c.507-.479.06-1.252.537-1.74a.73.73 0 0 0 .065-.48c.445-.532.028-1.325.555-1.831l-.008.015c.386-.575.438-1.147-.01-1.716l-.606.06c-.377.236-.857.187-1.226.446l-1.075.126c-.379.241-.861.195-1.236.447l-1.068.127c-.583.227-1.16.375-1.681-.142l.042.042c-.495-.56-.454-1.13-.031-1.708l-.017.02c.171-.184.333-.377.485-.578a.56.56 0 0 0 .132-.41c.093-.322.3-.559.565-.752l-.025.026c.156-.224.369-.4.525-.624l.018-.028c.388-.264.249-.842.65-1.098l-.034.033c.146-.241.362-.423.55-.628v-.002c.357-.295.23-.866.645-1.127l-.04.034c.145-.25.357-.44.573-.625l-.016.018c.173-.186.337-.38.493-.58a.551.551 0 0 0 .126-.406c.091-.324.299-.561.566-.754l-.026.027c.154-.226.368-.402.525-.626l.017-.026c.386-.266.248-.844.652-1.1l-.036.034c.146-.242.361-.424.55-.628h.001c.354-.297.228-.869.648-1.127l-.041.033c.142-.253.354-.442.572-.626l-.017.018c.181-.194.35-.4.506-.615l.032-.05c.411-.241.262-.823.652-1.076l-.03.03c.151-.23.366-.408.533-.626l.012-.018c.376-.276.242-.851.65-1.108l-.037.033c.145-.245.36-.428.555-.628l-.002.003c.348-.3.223-.872.645-1.13l-.041.032c.14-.254.353-.443.571-.626l-.017.018c.181-.195.35-.4.508-.615l.031-.05c.41-.241.26-.824.655-1.075l-.032.032c.148-.235.364-.412.533-.63l.01-.017c.378-.277.254-.92.788-1.083l1.37-.017c.733.69.452 1.474.208 2.255a.974.974 0 0 0-.075.534c-.487.503-.043 1.29-.544 1.788a.606.606 0 0 0-.06.444c-.24.392-.185.894-.471 1.27Z" fill="#f4d772" fill-rule="evenodd" data-name="Path 4808"/><path d="M4668.055 196.502c.147-.12.183-.266.109-.44.247-.402.15-.966.599-1.274l-.039.05c.11-.26.343-.428.495-.657l.03-.041c.329-.414.69-.797 1.115-1.115l.049-.035c.222-.153.388-.38.642-.49l-.034.028c.265-.426.818-.312 1.149-.614l.001-.003c.836-2.836-.401-5.828.654-8.646l-.057.08c.111-.3.323-.504.61-.635l-.055.046c.744-.562 1.49-.55 2.238-.008l-.05-.042c.278.135.487.34.61.627l-.052-.072c1.033 2.82-.2 5.809.647 8.641l.005.006c.322.312.874.197 1.142.613l-.03-.026c.218.154.43.316.638.485l.057.041c.406.332.775.7 1.11 1.104l.038.052c.138.235.365.403.488.648l-.032-.04c.414.293.326.832.588 1.2l-.025-.054c.588 1.524.566 3.049.011 4.575l.02-.044c-.272.359-.181.895-.582 1.19l.015-.023c-.527 1.008-1.301 1.77-2.297 2.31l.002-.001c-.27.39-.815.267-1.117.598l-.026.02c-.621 4.84-.095 9.701-.274 14.55-.183 4.939.386 9.894-.295 14.824v-.002c-1.143 1.329-2.282 1.351-3.417-.01l.006.009c-.644-1.369-.28-2.82-.289-4.225-.042-7.448-.01-14.895-.031-22.343-.002-.938.228-1.912-.256-2.812l-.02-.017c-.312-.32-.857-.2-1.128-.599l.008.006c-1.002-.537-1.783-1.294-2.296-2.317l.018.03c-.413-.293-.326-.83-.581-1.2l.025.052c-.665-1.312-.4-2.656-.136-4Z" fill="#22b0ec" fill-rule="evenodd" data-name="Path 4809"/><path d="m4688.796 140.157-.012.899c-.265.387-.172.94-.584 1.26l.02-.032c-.293.347-.197.89-.596 1.183l.021-.03c-.293.346-.198.89-.597 1.183l.033-.034c-.141.23-.363.4-.495.637l-.046.054c-.219.153-.428.32-.623.502l-.889-.036c-.854-.682-.556-1.466-.197-2.255l-.013.022c.318-.33.218-.87.589-1.173l-.011.022c.132-.118.173-.23.123-.34-.05-.108-.097-.162-.144-.162l-2.158-.141a1.571 1.571 0 0 1-.699-.59l.04.034c-.406-.36-.387-.739-.055-1.134l-.002.004c.342-.311.243-.836.56-1.16l.005-.011c.363-.294.253-.824.57-1.141l.006-.012c.362-.294.252-.824.57-1.14l.006-.012c.368-.286.245-.9.738-1.102l1.371.007c.775.453.48 1.065.247 1.668a.536.536 0 0 0-.096.42c-.09.287-.279.512-.472.733a.597.597 0 0 0-.12.428c-.145.229-.131.441.066.634l2.2.132c.286.16.507.382.644.683Z" fill="#e3a27f" fill-rule="evenodd" data-name="Path 4839"/><path d="M4699.673 167.129c.078-.763-.4-.733-.919-.648-.547-.425-1.354-.007-1.858-.574l.038.035c-.467-.569-.465-1.138-.001-1.708l-.019.03c.303-.34.206-.884.597-1.18l-.02.031c.3-.343.205-.886.596-1.183l-.02.03c.3-.342.202-.89.607-1.179l-.038.039c.152-.247.361-.44.582-.621l-.02.018c.363-.365.75-.345 1.15-.065l.045.024c.153.213.329.404.528.574l.007.013c.312.4.334.782-.07 1.138l.025-.032c-.292.348-.196.892-.595 1.187l.007-.023c-.38 1.196.786.72 1.173 1.087l1.025.132c.702.72.508 1.49.13 2.271l.009-.015c-.328.323-.23.856-.577 1.168l.005-.009c-.335.316-.233.851-.58 1.162l.005-.009c-.338.312-.226.866-.615 1.152l.032-.033a1.554 1.554 0 0 1-.72.579l-.741-.008c-.627-.18-.507-.833-.782-1.236l.014-.229c.057-.302.256-.525.424-.765a.487.487 0 0 0 .14-.435c.08-.279.277-.487.436-.718Z" fill="#f1c947" fill-rule="evenodd" data-name="Path 4842"/><path d="M4691.135 183.818c.014 10.228.033 20.456.03 30.683 0 .89.322 2.037-1.168 2.153.675-1.14.56-2.4.56-3.644-.002-8.734-.013-17.468.015-26.202.003-1.011-.366-2.136.563-2.99Z" fill="#ecf2fe" fill-rule="evenodd" data-name="Path 4847"/><path d="M4695.14 216.102c-.699-.836-.363-1.832-.366-2.75-.028-8.795-.009-17.59-.025-26.386-.002-1.239-.116-2.478-.179-3.717.888.743.58 1.768.582 2.687.012 10.056-.004 20.11-.011 30.166Z" fill="#ecf2fe" fill-rule="evenodd" data-name="Path 4848"/><path d="M4672.165 204.547c.937.74.475 1.772.481 2.658.06 8.907.07 17.815.095 26.722-.826-.64-.596-1.558-.597-2.39-.003-8.997.011-17.994.02-26.99Z" fill="#ecf2fe" fill-rule="evenodd" data-name="Path 4852"/><path d="M4676.152 233.93c.024-8.905.033-17.81.094-26.716.006-.886-.454-1.916.476-2.659.008 8.897.023 17.794.01 26.69-.001.919.307 1.942-.58 2.685Z" fill="#ecf2fe" fill-rule="evenodd" data-name="Path 4853"/><path d="M4672.825 183.265c-.052 2.19-.076 4.38-.172 6.567-.031.705.356 1.547-.482 2.079-.011-2.2-.03-4.4-.03-6.6 0-.75-.131-1.561.684-2.046Z" fill="#ecf2fe" fill-rule="evenodd" data-name="Path 4874"/><path d="M4676.716 191.902c-.834-.533-.445-1.374-.476-2.078-.096-2.186-.12-4.375-.172-6.563.905.583.66 1.511.667 2.339.018 2.1-.01 4.201-.019 6.302Z" fill="#ecf2fe" fill-rule="evenodd" data-name="Path 4875"/><path d="M4694.408 234.45c.479-1.43.332-2.91.35-4.375.008-.678.05-1.312.93-1.396-.55 1.131-.533 2.342-.537 3.561-.003.799.262 1.732-.743 2.21Z" fill="#ecf2fe" fill-rule="evenodd" data-name="Path 4882"/><path d="M4690.57 228.774c.979.427.53 1.305.589 1.993.09 1.042.068 2.094.094 3.141-1.343-1.562-.442-3.424-.684-5.134Z" fill="#ecf2fe" fill-rule="evenodd" data-name="Path 4887"/><path d="M4699.093 225.274c.331-1.713.368-3.43.082-5.154.902 1.733 1.038 3.453-.082 5.154Z" fill="#ecf2fe" fill-rule="evenodd" data-name="Path 4890"/><path d="M4680.706 200.506c.167-1.525.17-3.05-.01-4.575 1 1.523.985 3.048.01 4.575Z" fill="#ecf2fe" fill-rule="evenodd" data-name="Path 4893"/><path d="M4672.735 233.917c1.136 1.049 2.275 1.06 3.417.011-1.17 1.64-2.273 1.636-3.417-.01Z" fill="#ecf2fe" fill-rule="evenodd" data-name="Path 4895"/><path d="m4668.055 196.502.135 4c-1.09-1.298-.901-2.64-.135-4Z" fill="#ecf2fe" fill-rule="evenodd" data-name="Path 4896"/><path d="M4687.174 225.787c.745.79 1.49 1.578 2.236 2.366-1.41-.16-2.209-.897-2.236-2.366Z" fill="#ecf2fe" fill-rule="evenodd" data-name="Path 4901"/><path d="m4677.862 203.94 2.297-2.31c-.107 1.425-.868 2.2-2.297 2.31Z" fill="#ecf2fe" fill-rule="evenodd" data-name="Path 4906"/><path d="m4668.729 201.62 2.297 2.317c-1.437-.106-2.203-.877-2.297-2.317Z" fill="#ecf2fe" fill-rule="evenodd" data-name="Path 4907"/><path d="m4686.497 221.272.044 2.877c-.86-.945-.829-1.905-.044-2.877Z" fill="#ecf2fe" fill-rule="evenodd" data-name="Path 4923"/><path d="M4707.31 207.328c.763.307 1.552.57 2.08 1.263-.964.027-1.804-.152-2.08-1.263Z" fill="#ecf2fe" fill-rule="evenodd" data-name="Path 4946"/><path d="M4703.785 148.142c-.949-.037-1.896-.075-2.845-.111.979-.727 1.932-.82 2.845.11Z" fill="#ecf2fe" fill-rule="evenodd" data-name="Path 4948"/><path d="m4698.666 137.7-.207-2.255c1.046.662.926 1.43.207 2.255Z" fill="#ecf2fe" fill-rule="evenodd" data-name="Path 4957"/><path d="m4675.56 182.748-2.237.007c.743-.948 1.489-.94 2.237-.007Z" fill="#ecf2fe" fill-rule="evenodd" data-name="Path 4958"/><path d="m4693.989 182.691-2.216.126c.68-1.068 1.428-.952 2.216-.126Z" fill="#ecf2fe" fill-rule="evenodd" data-name="Path 4959"/><path d="M4684.83 143.487c-.077.765-.138 1.527.196 2.256-1.157-.656-1.024-1.425-.195-2.256Z" fill="#ecf2fe" fill-rule="evenodd" data-name="Path 4962"/><path d="M4697.527 148.691c-.642.387-1.293 1.13-1.898-.046l1.898.046Z" fill="#ecf2fe" fill-rule="evenodd" data-name="Path 4968"/><path d="M4702.624 166.525c.096-.765.21-1.53-.13-2.271 1.042.7.945 1.465.13 2.271Z" fill="#ecf2fe" fill-rule="evenodd" data-name="Path 4974"/><path d="M4701.469 164.122c-.574-.166-2.215.824-1.174-1.087l1.174 1.087Z" fill="#ecf2fe" fill-rule="evenodd" data-name="Path 4978"/><path d="m4686.574 137.127-.246-1.668c.955.426.918 1 .246 1.668Z" fill="#ecf2fe" fill-rule="evenodd" data-name="Path 4992"/><path d="M4698.047 140.022c-.025-.659-.008-1.304.544-1.788.01.654.118 1.338-.544 1.788Z" fill="#ecf2fe" fill-rule="evenodd" data-name="Path 4993"/><path d="M4696.896 144.055c-.022-.657-.006-1.304.544-1.788.01.655.119 1.339-.544 1.788Z" fill="#ecf2fe" fill-rule="evenodd" data-name="Path 4994"/><path d="M4695.747 148.087c-.02-.656-.008-1.303.542-1.786.01.653.12 1.336-.542 1.786Z" fill="#ecf2fe" fill-rule="evenodd" data-name="Path 4995"/><path d="m4712.418 182.637-1.709-.005c.572-.692 1.142-.694 1.71.005Z" fill="#ecf2fe" fill-rule="evenodd" data-name="Path 4997"/><path d="m4710.656 182.658-1.044 1.336c-.067-.77.224-1.26 1.044-1.336Z" fill="#ecf2fe" fill-rule="evenodd" data-name="Path 4999"/><path d="m4713.51 184.026-1.044-1.365c.842.077 1.119.586 1.043 1.365Z" fill="#ecf2fe" fill-rule="evenodd" data-name="Path 5000"/><path d="M4670.364 193.025c-.248.496-.618.87-1.115 1.115.043-.701.41-1.076 1.115-1.115Z" fill="#ecf2fe" fill-rule="evenodd" data-name="Path 5008"/><path d="M4679.638 194.125a2.402 2.402 0 0 1-1.11-1.104c.693.043 1.06.414 1.11 1.104Z" fill="#ecf2fe" fill-rule="evenodd" data-name="Path 5009"/><path d="M4687.132 166.534c.004.673-.007 1.34-.558 1.846-.03-.68-.164-1.393.558-1.846Z" fill="#ecf2fe" fill-rule="evenodd" data-name="Path 5041"/><path d="m4696.896 165.907 1.858.574c-.687.029-1.409.172-1.858-.574Z" fill="#ecf2fe" fill-rule="evenodd" data-name="Path 5043"/><path d="M4704.985 203.293c.429.53.56 1.16.59 1.82-.745-.428-.61-1.143-.59-1.82Z" fill="#ecf2fe" fill-rule="evenodd" data-name="Path 5044"/><path d="M4687.661 164.807c.026.647.016 1.282-.541 1.748-.005-.64-.106-1.31.541-1.748Z" fill="#ecf2fe" fill-rule="evenodd" data-name="Path 5049"/><path d="M4696.933 164.234v1.708c-.788-.568-.786-1.138 0-1.708Z" fill="#ecf2fe" fill-rule="evenodd" data-name="Path 5054"/><path d="M4698.06 218.31c-.488-.246-.895-.577-1.142-1.078.698.022 1.08.381 1.142 1.078Z" fill="#ecf2fe" fill-rule="evenodd" data-name="Path 5056"/><path d="M4688.277 162.5c.009.672-.005 1.338-.553 1.844-.029-.678-.16-1.388.553-1.844Z" fill="#ecf2fe" fill-rule="evenodd" data-name="Path 5057"/><path d="M4688.804 160.777c.03.645.02 1.276-.536 1.74-.001-.636-.103-1.302.536-1.74Z" fill="#ecf2fe" fill-rule="evenodd" data-name="Path 5063"/><path d="M4689.424 158.466c.006.667-.009 1.329-.555 1.83-.024-.673-.15-1.378.555-1.83Z" fill="#ecf2fe" fill-rule="evenodd" data-name="Path 5066"/><path d="m4682.514 157.83 1.682.141c-.619.637-1.183.64-1.682-.142Z" fill="#ecf2fe" fill-rule="evenodd" data-name="Path 5067"/><path d="M4689.405 156.765c.883.566.495 1.14.011 1.715l-.01-1.715Z" fill="#ecf2fe" fill-rule="evenodd" data-name="Path 5070"/><path d="m4682.525 156.163.03 1.708c-.806-.555-.788-1.125-.03-1.708Z" fill="#ecf2fe" fill-rule="evenodd" data-name="Path 5072"/><path d="M4684.956 135.452c-.15.431-.327.845-.738 1.102.035-.51.166-.953.738-1.102Z" fill="#ecf2fe" fill-rule="evenodd" data-name="Path 5079"/><path d="M4697.088 135.462c-.165.432-.35.85-.787 1.084.044-.52.191-.965.787-1.084Z" fill="#ecf2fe" fill-rule="evenodd" data-name="Path 5080"/><path d="M4684.211 136.565c-.009.471-.158.872-.568 1.141.02-.465.133-.883.568-1.14Z" fill="#ecf2fe" fill-rule="evenodd" data-name="Path 5081"/><path d="M4695.79 137.16c-.044.465-.221.85-.656 1.076.05-.462.182-.873.655-1.076Z" fill="#ecf2fe" fill-rule="evenodd" data-name="Path 5082"/><path d="M4683.636 137.718c-.009.47-.158.871-.57 1.14.021-.464.134-.883.57-1.14Z" fill="#ecf2fe" fill-rule="evenodd" data-name="Path 5083"/><path d="M4683.06 138.87c-.008.473-.16.876-.559 1.16.01-.473.119-.896.56-1.16Z" fill="#ecf2fe" fill-rule="evenodd" data-name="Path 5084"/><path d="M4694.082 139.476c-.022.487-.21.88-.645 1.13.017-.49.139-.92.645-1.13Z" fill="#ecf2fe" fill-rule="evenodd" data-name="Path 5085"/><path d="m4682.503 140.026.054 1.133c-.63-.347-.636-.726-.054-1.133Z" fill="#ecf2fe" fill-rule="evenodd" data-name="Path 5086"/><path d="M4697.516 141.735c-.042-.497.077-.934.472-1.268.04.496-.02.955-.472 1.268Z" fill="#ecf2fe" fill-rule="evenodd" data-name="Path 5087"/><path d="M4688.2 142.315c.025-.498.162-.944.584-1.258.032.524-.041 1-.584 1.258Z" fill="#ecf2fe" fill-rule="evenodd" data-name="Path 5088"/><path d="M4692.921 141.198c-.038.474-.218.865-.65 1.108.033-.478.16-.9.65-1.108Z" fill="#ecf2fe" fill-rule="evenodd" data-name="Path 5089"/><path d="M4685.407 142.337c-.027.476-.158.9-.59 1.173-.002-.491.11-.925.59-1.173Z" fill="#ecf2fe" fill-rule="evenodd" data-name="Path 5090"/><path d="M4687.624 143.467c.029-.48.146-.916.597-1.183.016.503-.095.942-.597 1.183Z" fill="#ecf2fe" fill-rule="evenodd" data-name="Path 5091"/><path d="M4691.757 142.92c-.048.462-.215.851-.653 1.076.051-.46.183-.87.653-1.076Z" fill="#ecf2fe" fill-rule="evenodd" data-name="Path 5092"/><path d="M4687.048 144.62c.03-.481.147-.916.598-1.183.016.502-.095.941-.598 1.182Z" fill="#ecf2fe" fill-rule="evenodd" data-name="Path 5093"/><path d="M4696.37 145.767c-.043-.496.071-.933.466-1.267.04.494-.016.953-.466 1.267Z" fill="#ecf2fe" fill-rule="evenodd" data-name="Path 5094"/><path d="M4690.052 145.236c-.025.486-.207.88-.648 1.126.02-.488.144-.916.648-1.126Z" fill="#ecf2fe" fill-rule="evenodd" data-name="Path 5095"/><path d="M4688.89 146.958c-.04.472-.212.865-.653 1.1.038-.474.167-.893.652-1.1Z" fill="#ecf2fe" fill-rule="evenodd" data-name="Path 5096"/><path d="M4699.891 148.139c-.334.378-.759.496-1.246.434.318-.423.767-.472 1.246-.434Z" fill="#ecf2fe" fill-rule="evenodd" data-name="Path 5097"/><path d="m4703.824 149.234-.082-1.127c.608.333.642.708.082 1.127Z" fill="#ecf2fe" fill-rule="evenodd" data-name="Path 5098"/><path d="M4686.019 150.995c-.03.481-.2.883-.645 1.127.021-.487.145-.914.645-1.127Z" fill="#ecf2fe" fill-rule="evenodd" data-name="Path 5099"/><path d="M4701.994 152.097c.025-.486.216-.872.655-1.113-.027.484-.152.91-.655 1.113Z" fill="#ecf2fe" fill-rule="evenodd" data-name="Path 5100"/><path d="M4684.86 152.72c-.04.47-.213.863-.652 1.097.038-.472.168-.89.651-1.098Z" fill="#ecf2fe" fill-rule="evenodd" data-name="Path 5101"/><path d="M4700.274 154.406c.034-.477.214-.868.656-1.102-.035.477-.163.898-.656 1.102Z" fill="#ecf2fe" fill-rule="evenodd" data-name="Path 5102"/><path d="M4698.55 156.712c.037-.473.216-.861.659-1.089-.042.472-.173.888-.659 1.09Z" fill="#ecf2fe" fill-rule="evenodd" data-name="Path 5103"/><path d="M4687.574 157.271c.325-.38.743-.503 1.226-.446-.31.421-.752.477-1.226.446Z" fill="#ecf2fe" fill-rule="evenodd" data-name="Path 5107"/><path d="M4685.263 157.844c.328-.383.75-.504 1.236-.448-.312.426-.758.482-1.236.448Z" fill="#ecf2fe" fill-rule="evenodd" data-name="Path 5108"/><path d="M4696.827 159.019c.042-.468.22-.854.661-1.076-.048.464-.181.877-.66 1.076Z" fill="#ecf2fe" fill-rule="evenodd" data-name="Path 5110"/><path d="m4700.349 160.154-1.152.065c.352-.596.736-.602 1.152-.065Z" fill="#ecf2fe" fill-rule="evenodd" data-name="Path 5111"/><path d="M4698.674 160.783c-.04.477-.166.91-.607 1.18-.011-.503.102-.942.607-1.18Z" fill="#ecf2fe" fill-rule="evenodd" data-name="Path 5112"/><path d="m4700.859 161.903.069-1.138c.565.415.556.795-.07 1.138Z" fill="#ecf2fe" fill-rule="evenodd" data-name="Path 5113"/><path d="M4698.087 161.932c-.03.48-.154.911-.596 1.183-.012-.5.1-.939.596-1.183Z" fill="#ecf2fe" fill-rule="evenodd" data-name="Path 5114"/><path d="M4700.289 163.058c.029-.48.15-.914.594-1.187.017.503-.094.943-.594 1.187Z" fill="#ecf2fe" fill-rule="evenodd" data-name="Path 5115"/><path d="M4697.511 163.085c-.029.48-.159.908-.597 1.18-.01-.5.102-.937.597-1.18Z" fill="#ecf2fe" fill-rule="evenodd" data-name="Path 5116"/><path d="M4692.21 165.349c.024-.486.215-.872.655-1.113-.027.484-.153.91-.656 1.113Z" fill="#ecf2fe" fill-rule="evenodd" data-name="Path 5117"/><path d="M4690.49 167.658c.034-.477.22-.863.657-1.098-.037.476-.165.896-.658 1.098Z" fill="#ecf2fe" fill-rule="evenodd" data-name="Path 5121"/><path d="M4702.055 167.678c.018-.476.153-.893.577-1.168-.002.483-.113.913-.577 1.168Z" fill="#ecf2fe" fill-rule="evenodd" data-name="Path 5122"/><path d="M4701.48 168.83c.018-.474.163-.886.58-1.161-.006.48-.118.908-.58 1.162Z" fill="#ecf2fe" fill-rule="evenodd" data-name="Path 5124"/><path d="m4686.518 168.837.063 1.133c-.62-.344-.634-.723-.063-1.133Z" fill="#ecf2fe" fill-rule="evenodd" data-name="Path 5127"/><path d="M4688.763 169.963c.04-.472.219-.86.662-1.088-.042.472-.173.888-.662 1.088Z" fill="#ecf2fe" fill-rule="evenodd" data-name="Path 5128"/><path d="M4700.87 169.974c.06-.462.196-.883.615-1.152-.01.489-.128.919-.615 1.152Z" fill="#ecf2fe" fill-rule="evenodd" data-name="Path 5129"/><path d="m4698.659 169.275.78 1.237c-.673-.15-.8-.646-.78-1.237Z" fill="#ecf2fe" fill-rule="evenodd" data-name="Path 5130"/><path d="m4691.86 182.742-.724 1.074c.023-.505.157-.935.724-1.074Z" fill="#ecf2fe" fill-rule="evenodd" data-name="Path 5137"/><path d="M4672.17 191.914c-.232.488-.677.575-1.149.614.219-.512.65-.627 1.149-.614Z" fill="#ecf2fe" fill-rule="evenodd" data-name="Path 5146"/><path d="M4677.863 192.52c-.471-.035-.914-.124-1.143-.613.495-.007.922.11 1.143.614Z" fill="#ecf2fe" fill-rule="evenodd" data-name="Path 5147"/><path d="M4668.763 194.788c-.04.5-.18.953-.6 1.274-.033-.535.037-1.02.6-1.274Z" fill="#ecf2fe" fill-rule="evenodd" data-name="Path 5150"/><path d="M4680.72 195.985c-.425-.288-.553-.72-.587-1.2.533.234.62.687.587 1.2Z" fill="#ecf2fe" fill-rule="evenodd" data-name="Path 5151"/><path d="M4709.154 195.985c-.304.447-.769.58-1.266.646.212-.626.713-.688 1.266-.646Z" fill="#ecf2fe" fill-rule="evenodd" data-name="Path 5152"/><path d="M4706.195 198.258c-.067.466-.234.874-.659 1.131.007-.502.132-.933.66-1.131Z" fill="#ecf2fe" fill-rule="evenodd" data-name="Path 5155"/><path d="M4705.54 199.38c-.013.531-.075 1.044-.517 1.418-.05-.553-.032-1.082.517-1.417Z" fill="#ecf2fe" fill-rule="evenodd" data-name="Path 5157"/><path d="M4668.166 200.45c.427.286.547.722.581 1.2-.534-.235-.62-.688-.581-1.2Z" fill="#ecf2fe" fill-rule="evenodd" data-name="Path 5158"/><path d="M4680.144 201.652c.03-.477.165-.903.582-1.19.028.505-.078.946-.582 1.19Z" fill="#ecf2fe" fill-rule="evenodd" data-name="Path 5159"/><path d="M4671.017 203.931c.465.032.897.125 1.127.6-.486.007-.905-.11-1.127-.6Z" fill="#ecf2fe" fill-rule="evenodd" data-name="Path 5160"/><path d="M4676.746 204.536c.228-.47.655-.568 1.118-.598-.221.484-.637.601-1.118.598Z" fill="#ecf2fe" fill-rule="evenodd" data-name="Path 5161"/><path d="M4705.56 205.082c.447.244.605.664.682 1.132-.594-.155-.693-.61-.683-1.132Z" fill="#ecf2fe" fill-rule="evenodd" data-name="Path 5162"/><path d="M4714.766 208.006c.236-.407.594-.624 1.052-.69-.153.531-.563.67-1.052.69Z" fill="#ecf2fe" fill-rule="evenodd" data-name="Path 5164"/><path d="M4713.73 208.59c.148-.503.557-.546.983-.557-.199.413-.562.534-.982.557Z" fill="#ecf2fe" fill-rule="evenodd" data-name="Path 5165"/><path d="M4696.259 216.764c-.47-.058-.96-.082-1.122-.664.503.004.936.125 1.122.664Z" fill="#ecf2fe" fill-rule="evenodd" data-name="Path 5166"/><path d="M4689.968 216.669c-.243.415-.625.609-1.085.676.172-.53.59-.665 1.085-.676Z" fill="#ecf2fe" fill-rule="evenodd" data-name="Path 5167"/><path d="M4687.795 218.435c-.074.464-.274.848-.689 1.098.02-.498.154-.924.689-1.098Z" fill="#ecf2fe" fill-rule="evenodd" data-name="Path 5168"/><path d="M4699.178 220.127c-.381-.288-.57-.677-.598-1.15.481.237.595.665.598 1.15Z" fill="#ecf2fe" fill-rule="evenodd" data-name="Path 5169"/><path d="M4687.102 219.541c-.006.499-.11.957-.523 1.29-.037-.515.022-.992.523-1.29Z" fill="#ecf2fe" fill-rule="evenodd" data-name="Path 5170"/><path d="M4686.606 224.44c.438.364.548.869.599 1.399-.62-.285-.645-.827-.6-1.398Z" fill="#ecf2fe" fill-rule="evenodd" data-name="Path 5171"/><path d="M4698.466 226.381c.073-.471.2-.912.657-1.167.039.534-.05.997-.657 1.167Z" fill="#ecf2fe" fill-rule="evenodd" data-name="Path 5172"/><path d="M4689.43 228.166c.457.02.834.187 1.089.583-.462-.009-.866-.125-1.089-.583Z" fill="#ecf2fe" fill-rule="evenodd" data-name="Path 5173"/><path d="M4695.674 228.686c.237-.468.675-.579 1.139-.646-.164.597-.614.686-1.139.646Z" fill="#ecf2fe" fill-rule="evenodd" data-name="Path 5174"/><path d="m4709.592 233.246.637 1.227c-.579-.218-.659-.696-.637-1.227Z" fill="#ecf2fe" fill-rule="evenodd" data-name="Path 5175"/><path d="m4712.89 234.47.637-1.253c.03.54-.041 1.03-.637 1.252Z" fill="#ecf2fe" fill-rule="evenodd" data-name="Path 5176"/><path d="m4691.73 234.477 1.332.544c-.539.051-1.04.01-1.331-.544Z" fill="#ecf2fe" fill-rule="evenodd" data-name="Path 5177"/><path d="m4693.195 235.014 1.296-.683c-.19.689-.723.724-1.296.683Z" fill="#ecf2fe" fill-rule="evenodd" data-name="Path 5178"/><path d="m4710.166 234.413 1.312.605c-.553.05-1.06-.002-1.312-.605Z" fill="#ecf2fe" fill-rule="evenodd" data-name="Path 5179"/><path d="m4711.648 235.018 1.31-.615c-.246.613-.755.664-1.31.615Z" fill="#ecf2fe" fill-rule="evenodd" data-name="Path 5180"/><path d="M4691.194 233.827c.326.102.482.346.551.663a.844.844 0 0 1-.551-.663Z" fill="#ecf2fe" fill-rule="evenodd" data-name="Path 5689"/><path d="M4696.762 228.091c.086-.347.329-.505.664-.55-.112.314-.331.501-.664.55Z" fill="#ecf2fe" fill-rule="evenodd" data-name="Path 5695"/><path d="M4697.401 227.566c.07-.332.268-.534.6-.607l-.6.607Z" fill="#ecf2fe" fill-rule="evenodd" data-name="Path 5698"/><path d="M4697.971 226.99c.048-.34.214-.58.558-.675a.795.795 0 0 1-.558.675Z" fill="#ecf2fe" fill-rule="evenodd" data-name="Path 5700"/><path d="M4698.593 218.996c-.303-.097-.47-.3-.485-.622l.485.622Z" fill="#ecf2fe" fill-rule="evenodd" data-name="Path 5745"/><path d="M4688.326 217.844c-.065.336-.245.565-.587.65a.838.838 0 0 1 .587-.65Z" fill="#ecf2fe" fill-rule="evenodd" data-name="Path 5746"/><path d="M4688.936 217.294c-.082.342-.31.523-.645.586a.832.832 0 0 1 .645-.586Z" fill="#ecf2fe" fill-rule="evenodd" data-name="Path 5747"/><path d="M4696.881 217.207c-.324-.022-.566-.156-.668-.486l.668.486Z" fill="#ecf2fe" fill-rule="evenodd" data-name="Path 5748"/><path d="M4706.718 206.777c.336.066.559.251.633.595a.807.807 0 0 1-.633-.595Z" fill="#ecf2fe" fill-rule="evenodd" data-name="Path 5750"/><path d="M4706.18 206.151c.345.088.519.325.576.664a.783.783 0 0 1-.576-.664Z" fill="#ecf2fe" fill-rule="evenodd" data-name="Path 5752"/><path d="M4694.1 162.47Z" fill="#ecf2fe" fill-rule="evenodd" data-name="Path 5769"/><path d="M4706.711 197.666c-.055.332-.231.558-.565.645l.565-.645Z" fill="#ecf2fe" fill-rule="evenodd" data-name="Path 5776"/><path d="M4707.3 197.095c-.077.324-.283.515-.604.586.201-.195.403-.39.603-.586Z" fill="#ecf2fe" fill-rule="evenodd" data-name="Path 5782"/><path d="M4715.853 197.126c-.357-.048-.615-.23-.765-.562a.921.921 0 0 1 .765.562Z" fill="#ecf2fe" fill-rule="evenodd" data-name="Path 5795"/><path d="M4707.95 196.574c-.094.343-.338.5-.673.543a.805.805 0 0 1 .673-.543Z" fill="#ecf2fe" fill-rule="evenodd" data-name="Path 5796"/><path d="M4714.712 196.397c-.335.017-.59-.113-.753-.412l.753.412Z" fill="#ecf2fe" fill-rule="evenodd" data-name="Path 5798"/><path d="M4680.164 194.825c-.307-.107-.461-.33-.488-.648l.488.648Z" fill="#ecf2fe" fill-rule="evenodd" data-name="Path 5802"/><path d="M4669.219 194.181c-.028.323-.181.55-.495.657l.495-.657Z" fill="#ecf2fe" fill-rule="evenodd" data-name="Path 5803"/><path d="M4678.47 192.98c-.316-.023-.536-.176-.637-.485l.638.485Z" fill="#ecf2fe" fill-rule="evenodd" data-name="Path 5804"/><path d="M4671.055 192.5c-.1.313-.322.467-.642.49l.642-.49Z" fill="#ecf2fe" fill-rule="evenodd" data-name="Path 5806"/><path d="m4694.572 183.252-.59-.566.59.566Z" fill="#ecf2fe" fill-rule="evenodd" data-name="Path 5830"/><path d="M4676.12 183.333c-.329-.087-.528-.3-.61-.627.32.095.524.304.61.627Z" fill="#ecf2fe" fill-rule="evenodd" data-name="Path 5831"/><path d="M4673.378 182.71c-.081.329-.278.546-.61.634a.825.825 0 0 1 .61-.634Z" fill="#ecf2fe" fill-rule="evenodd" data-name="Path 5832"/><path d="M4697.518 157.898c.17-.204.342-.407.513-.61l-.513.61Z" fill="#ecf2fe" fill-rule="evenodd" data-name="Path 5843"/><path d="m4700.182 170.52.72-.578a.933.933 0 0 1-.72.578Z" fill="#ecf2fe" fill-rule="evenodd" data-name="Path 5871"/><path d="m4688.064 170.51.742-.58a.9.9 0 0 1-.742.58Z" fill="#ecf2fe" fill-rule="evenodd" data-name="Path 5872"/><path d="m4686.544 169.94.703.584a.913.913 0 0 1-.703-.584Z" fill="#ecf2fe" fill-rule="evenodd" data-name="Path 5873"/><path d="m4699.098 168.282-.425.765.425-.765Z" fill="#ecf2fe" fill-rule="evenodd" data-name="Path 5875"/><path d="m4689.447 168.843.523-.614-.523.614Z" fill="#ecf2fe" fill-rule="evenodd" data-name="Path 5876"/><path d="M4689.952 168.248c.084-.308.26-.53.576-.623l-.576.623Z" fill="#ecf2fe" fill-rule="evenodd" data-name="Path 5877"/><path d="m4699.673 167.129-.436.717.436-.717Z" fill="#ecf2fe" fill-rule="evenodd" data-name="Path 5879"/><path d="M4691.162 166.536a.765.765 0 0 1 .53-.624l-.53.624Z" fill="#ecf2fe" fill-rule="evenodd" data-name="Path 5884"/><path d="M4691.666 165.938c.084-.312.259-.537.585-.621l-.585.62Z" fill="#ecf2fe" fill-rule="evenodd" data-name="Path 5887"/><path d="M4692.87 164.227c.182-.208.364-.415.545-.624l-.544.624Z" fill="#ecf2fe" fill-rule="evenodd" data-name="Path 5890"/><path d="m4693.39 163.632.568-.748a.914.914 0 0 1-.569.748Z" fill="#ecf2fe" fill-rule="evenodd" data-name="Path 5892"/><path d="m4694.588 161.92.552-.625-.552.625Z" fill="#ecf2fe" fill-rule="evenodd" data-name="Path 5899"/><path d="m4695.111 161.326.571-.755a.912.912 0 0 1-.57.755Z" fill="#ecf2fe" fill-rule="evenodd" data-name="Path 5902"/><path d="M4700.92 160.752c-.176-.19-.351-.382-.527-.574l.528.574Z" fill="#ecf2fe" fill-rule="evenodd" data-name="Path 5905"/><path d="m4699.218 160.2-.582.622.582-.621Z" fill="#ecf2fe" fill-rule="evenodd" data-name="Path 5906"/><path d="m4695.812 160.17.495-.568-.495.567Z" fill="#ecf2fe" fill-rule="evenodd" data-name="Path 5909"/><path d="M4696.299 159.61c.08-.305.256-.525.564-.624l-.564.625Z" fill="#ecf2fe" fill-rule="evenodd" data-name="Path 5913"/><path d="M4698.016 157.303c.082-.307.26-.528.572-.624l-.572.624Z" fill="#ecf2fe" fill-rule="evenodd" data-name="Path 5925"/><path d="m4682.993 155.605-.486.578.486-.578Z" fill="#ecf2fe" fill-rule="evenodd" data-name="Path 5926"/><path d="m4699.231 155.591.524-.614-.524.614Z" fill="#ecf2fe" fill-rule="evenodd" data-name="Path 5931"/><path d="M4699.737 154.996c.083-.308.26-.53.576-.623l-.576.623Z" fill="#ecf2fe" fill-rule="evenodd" data-name="Path 5933"/><path d="m4683.69 154.443-.564.752a.92.92 0 0 1 .564-.752Z" fill="#ecf2fe" fill-rule="evenodd" data-name="Path 5934"/><path d="M4684.19 153.845a.761.761 0 0 1-.525.624l.525-.624Z" fill="#ecf2fe" fill-rule="evenodd" data-name="Path 5935"/><path d="M4700.943 153.283Z" fill="#ecf2fe" fill-rule="evenodd" data-name="Path 5936"/><path d="M4701.451 152.686c.084-.312.26-.537.584-.621l-.584.621Z" fill="#ecf2fe" fill-rule="evenodd" data-name="Path 5939"/><path d="m4685.373 152.124-.55.628.55-.628Z" fill="#ecf2fe" fill-rule="evenodd" data-name="Path 5940"/><path d="m4702.655 150.975.545-.624-.545.624Z" fill="#ecf2fe" fill-rule="evenodd" data-name="Path 5942"/><path d="M4686.552 150.404c-.08.31-.255.532-.572.625l.572-.625Z" fill="#ecf2fe" fill-rule="evenodd" data-name="Path 5943"/><path d="m4703.174 150.38.568-.75a.914.914 0 0 1-.568.75Z" fill="#ecf2fe" fill-rule="evenodd" data-name="Path 5945"/><path d="m4687.029 149.842-.492.58.492-.58Z" fill="#ecf2fe" fill-rule="evenodd" data-name="Path 5946"/><path d="m4687.72 148.682-.565.753a.918.918 0 0 1 .565-.753Z" fill="#ecf2fe" fill-rule="evenodd" data-name="Path 5947"/><path d="M4688.22 148.083a.765.765 0 0 1-.525.626l.525-.626Z" fill="#ecf2fe" fill-rule="evenodd" data-name="Path 5948"/><path d="M4689.404 146.363c-.073.306-.245.525-.55.628l.55-.628Z" fill="#ecf2fe" fill-rule="evenodd" data-name="Path 5949"/><path d="m4685.917 145.78.623-.503-.623.502Z" fill="#ecf2fe" fill-rule="evenodd" data-name="Path 5952"/><path d="M4690.583 144.643c-.081.309-.251.536-.572.626l.572-.626Z" fill="#ecf2fe" fill-rule="evenodd" data-name="Path 5953"/><path d="M4686.585 145.223c.05-.303.2-.526.496-.637l-.496.637Z" fill="#ecf2fe" fill-rule="evenodd" data-name="Path 5954"/><path d="M4691.072 144.046c-.046.306-.223.505-.506.615l.506-.615Z" fill="#ecf2fe" fill-rule="evenodd" data-name="Path 5959"/><path d="m4692.26 142.324-.534.626.534-.626Z" fill="#ecf2fe" fill-rule="evenodd" data-name="Path 5960"/><path d="M4685.375 141.857c.242.02.333.138.233.336-.037.072-.14.111-.213.165-.01-.166-.018-.334-.02-.501Z" fill="#ecf2fe" fill-rule="evenodd" data-name="Path 5964"/><path d="M4682.518 141.127c.232.196.464.393.698.589a.911.911 0 0 1-.698-.59Z" fill="#ecf2fe" fill-rule="evenodd" data-name="Path 5966"/><path d="M4693.439 140.603c-.073.309-.246.529-.555.628l.555-.628Z" fill="#ecf2fe" fill-rule="evenodd" data-name="Path 5968"/><path d="m4688.796 140.157-.643-.683a.906.906 0 0 1 .643.683Z" fill="#ecf2fe" fill-rule="evenodd" data-name="Path 5969"/><path d="M4694.613 138.882c-.082.308-.25.538-.572.626l.572-.626Z" fill="#ecf2fe" fill-rule="evenodd" data-name="Path 5971"/><path d="M4685.952 139.342c-.632-.147-.34-.39-.066-.633l.066.633Z" fill="#ecf2fe" fill-rule="evenodd" data-name="Path 5972"/><path d="M4695.103 138.284c-.046.308-.223.507-.508.616l.508-.616Z" fill="#ecf2fe" fill-rule="evenodd" data-name="Path 5974"/><path d="m4686.006 138.28.472-.732-.472.732Z" fill="#ecf2fe" fill-rule="evenodd" data-name="Path 5975"/><path d="m4696.29 136.563-.533.629.533-.63Z" fill="#ecf2fe" fill-rule="evenodd" data-name="Path 5976"/></g></g></svg>