<svg xmlns="http://www.w3.org/2000/svg" width="380.173" height="376.754" viewBox="-940.565 112.328 380.173 376.754"><g data-name="CompositeLayer"><path d="M-576.846 400.548c43.233-75.914-7.166-155.796-54.088-220.34-57.077-78.512-177.355-88.933-246.275-31.178-44.626 37.397-51.05 127.297-60.771 165.238-11.398 44.481 15.977 85.39 60.77 114.065 42.555 27.241 101.075 43.286 156.55 40.353 75.661-4.002 126.617-37.943 143.814-68.138Z" fill="#1bb0dd" fill-rule="evenodd" data-name="Path 594"/><g data-name="World water day-cuate"><g data-name="freepik--background-complete--inject-2"><path d="M-612.033 318.782h-89.103s8.841-24.129 22.427-24.129c13.585 0 17.866 16.636 17.866 16.636s9.173-9.054 16.71-9.054c7.536 0 14.086 11.957 14.086 11.957s10.646-6.424 18.014 4.59Z" fill="#ebebeb" fill-rule="evenodd" data-name="Path 595"/><path d="M-687.05 266.473h-41.648s9.306-13.483 16.636-13.483 9.497 8.989 9.497 8.989 5.157-4.193 9.968-3.448c4.811.744 5.548 7.942 5.548 7.942Z" fill="#ebebeb" fill-rule="evenodd" data-name="Path 596"/><path d="M-830.354 347.515h-41.641s9.283-13.512 16.65-13.512c7.368 0 9.497 8.989 9.497 8.989s5.157-4.2 9.968-3.448c4.811.751 5.526 7.971 5.526 7.971Z" fill="#ebebeb" fill-rule="evenodd" data-name="Path 597"/><path d="M-836.307 276.655h-81.109s11.103-24.8 23.023-26.354c11.921-1.554 17.565 18.419 17.565 18.419s7.67-7.066 13.696-7.066 10.675 9.298 10.675 9.298 12.017-6.35 16.15 5.703Z" fill="#ebebeb" fill-rule="evenodd" data-name="Path 598"/><path d="M-746.932 219.895h-54.8s9.416-17.969 19.627-18.256c10.212-.288 15.575 13.593 15.575 13.593s15.885-12.716 19.598 4.663Z" fill="#ebebeb" fill-rule="evenodd" data-name="Path 599"/></g><g data-name="freepik--Shadow--inject-2"><path d="M-628.485 483.29c0 3.198-23.686 5.792-52.899 5.792-29.212 0-52.906-2.594-52.906-5.791 0-3.198 23.687-5.798 52.906-5.798 29.22 0 52.899 2.593 52.899 5.798Z" fill="#fff" fill-rule="evenodd" data-name="Path 600"/></g><g data-name="freepik--Plant--inject-2"><path d="M-888.012 441.775c-4.207.147-8.9.383-12.385-2.343-3.22-2.52-6.093-6.277-5.666-10.587.126-1.23.406-1.99 1.724-1.474 2.004.796 3.551 3.014 4.944 4.568a43.18 43.18 0 0 0 5.835 5.533c1.473 1.15 3.116 2.144 4.642 3.257l.574.42.214.162h.118c.07-.003.136.03.177.088a.236.236 0 0 1-.177.354Z" fill="#75c28e" fill-rule="evenodd" data-name="Path 601"/><path d="M-887.806 441.495c-3.684-.066-7.692.103-10.646-2.41a17.174 17.174 0 0 1-3.44-4.17c-.428-.7-1.71-2.777-1.18-3.602.966-1.473 5.371 4.597 5.983 5.157a18.124 18.124 0 0 0 8.17 4.244l.575.42a20.119 20.119 0 0 1-6.137-2.358c-2.63-1.562-4.089-3.875-6.144-6.041-.442-.472-1.783-2.04-2.284-1.06-.332.64.906 2.673 1.171 3.108a17.04 17.04 0 0 0 3.25 3.971c2.946 2.579 6.925 2.483 10.653 2.638a.221.221 0 0 1 .029.103Z" fill="#fff" fill-rule="evenodd" data-name="Path 602"/><path d="M-885.692 444.339c0 .162-.066.324-.103.486a.14.14 0 0 1-.08.088.184.184 0 0 1-.222-.088.11.11 0 0 1 0-.096v-.066l.044-.147v-.052c-.736-2.785-1.031-5.68-1.82-8.465-.736-2.66-1.68-5.268-2.21-7.98-.338-1.716-1.525-10.314 2.255-9.23 1.68.478 2.829 2.902 3.463 4.354a17.6 17.6 0 0 1 1.377 6.151c.28 5.26-1.643 10.027-2.704 15.045Z" fill="#75c28e" fill-rule="evenodd" data-name="Path 603"/><path d="M-884.476 433.649a20.702 20.702 0 0 0-.611-5.828c-.17-.656-.988-3.816-2.063-3.735-.685.044-.803 1.407-.862 1.856-.243 1.908.375 3.86.736 5.725a78.096 78.096 0 0 1 1.393 11.464c0 .243-.074.493-.096.736-.022.243-.051.405-.08.612a1.769 1.769 0 0 0 0 .206v.162c.039.082.135.12.22.089l.066-.472v.383c0-.133.052-.265.074-.398v-.729a85.815 85.815 0 0 0 1.223-10.071Zm-1.282 8.671a68.353 68.353 0 0 0-.648-6.726c-.25-1.805-.59-3.581-.973-5.357-.243-.999-.404-2.017-.479-3.042-.036-.781.081-3.684 1.57-1.886 1.075 1.304 1.34 4.081 1.473 5.68a28.616 28.616 0 0 1-.103 5.327c-.206 2.01-.538 4.03-.84 6.004Z" fill="#fff" fill-rule="evenodd" data-name="Path 604"/><path d="M-883.422 455.884h-.155c-3.846-.192-8.974.17-12.171-2.38-2.365-1.879-4.686-5.6-3.942-8.745.848-3.559 5.651.736 6.918 1.738a117.575 117.575 0 0 1 9.43 9.195l.052.066c.03.06-.051.11-.132.126Z" fill="#75c28e" fill-rule="evenodd" data-name="Path 605"/><path d="m-883.29 455.773-.67-.412a97.338 97.338 0 0 1-7.368-5.12c-.604-.458-4.936-4.31-5.584-2.948-.39.833 1.039 2.527 1.473 3.102a11.898 11.898 0 0 0 2.947 2.615c2.564 1.6 5.68 1.938 8.583 2.712.137.027.272.061.406.103l.073.044c.089 0 .17-.052.14-.096Zm-7.618-2.21a12.03 12.03 0 0 1-3.315-2.247c-.648-.612-2.947-2.947-2.32-3.86.323-.502.589-.237 1.2.066.283.138.556.295.818.471.648.42 1.238.914 1.842 1.393a85.218 85.218 0 0 0 8.723 6.144c-2.328-.678-4.745-.958-6.948-1.923Z" fill="#fff" fill-rule="evenodd" data-name="Path 606"/><path d="M-876.394 447.956a22.84 22.84 0 0 1-6.63 11.523l-.074.044a.192.192 0 0 1-.2-.073.162.162 0 0 1 0-.222l.192-.198c.641-5.231 1.341-10.433 1.88-15.678.124-1.238 1.097-9.107 3.513-7.825 1.474.789 1.592 4.016 1.717 5.467a23.03 23.03 0 0 1-.398 6.962Z" fill="#75c28e" fill-rule="evenodd" data-name="Path 607"/><path d="M-877.794 440.95c-.132-.442-.36-.892-.847-.582-.936.582-1.311 4.288-1.473 5.312-.649 4.214-1.643 8.273-2.66 12.407-.088.346-.17.692-.258 1.046l-.236.317a.162.162 0 0 0 .2.066.736.736 0 0 1 0-.103l.316-.42a26.973 26.973 0 0 0 3.831-7.434 25.786 25.786 0 0 0 1.12-5.157c.199-1.636.501-3.846.007-5.452Zm-4.936 17.755c-.044.074-.096.133-.147.207.054-.143.098-.283.132-.42a76.784 76.784 0 0 0 2.358-9.578c.28-1.65.457-3.315.796-4.95.14-.694.479-2.668 1.053-2.985.575-.317.56.45.62.892.043.316.043.899.05 1.2a26.523 26.523 0 0 1-4.862 15.634Z" fill="#fff" fill-rule="evenodd" data-name="Path 608"/><path d="M-882.354 470.759h-.737l-.044-2.026a339.021 339.021 0 0 0-.368-8.2 95.372 95.372 0 0 0-.369-4.642 1.092 1.092 0 0 1 0-.155c0-.125 0-.25-.051-.375a3.81 3.81 0 0 0-.052-.406 33.073 33.073 0 0 0-2.637-10.049 56.64 56.64 0 0 0-1.584-3.131l-.17-.295a.199.199 0 0 0-.044-.073c-.052-.11-.11-.207-.17-.31-.059-.103-.08-.147-.132-.228-1.776-3.131-3.817-6.123-5.747-9.143a223.147 223.147 0 0 1-1.746-2.748c-.044-.06-.081-.126-.125-.192-2.424-3.831-4.811-7.692-7.33-11.449-.097-.133.132-.258.22-.125 1.702 2.497 3.463 4.943 5.216 7.411.229.325.457.663.693.988.464.648.92 1.296 1.378 1.952a206.097 206.097 0 0 1 2.696 3.934 110.085 110.085 0 0 1 7.08 11.457c.155.302.295.604.442.906.148.302.185.383.258.567.074.184.206.442.302.663a35.438 35.438 0 0 1 2.586 12.12c0 .287.044.582.06.877v1.105c0 .25 0 .493.036.736.11 2.734.184 5.467.243 8.193.03.892.066 1.76.096 2.638Z" fill="#75c28e" fill-rule="evenodd" data-name="Path 609"/><path d="M-905.319 421.242c-2.107-2.83-4.81-8.68-1.701-11.715a3.3 3.3 0 0 1 4.42-.324c1.643 1.186 2.38 3.426 2.947 5.283 1.422 4.958 2.365 10.005 4.14 14.867 0 0 .148.413.192.516.044.103-.125.147-.162.044l-.177-.471c-3.41-2.432-7.161-4.84-9.659-8.2Z" fill="#75c28e" fill-rule="evenodd" data-name="Path 610"/><path d="m-895.542 429.36-.051-.08a35.933 35.933 0 0 1-1.975-3.684 71.92 71.92 0 0 1-3.028-8.104c-.339-1.061-1.85-6.27-3.684-4.192-.788.876-.678 2.423-.552 3.492a13.158 13.158 0 0 0 1.62 4.877c1.673 3.006 4.266 5.283 6.992 7.309l.354.316c0 .045.052.081.074.133l.051.081c.01.017.026.03.044.037a.125.125 0 0 0 .17-.066.162.162 0 0 0-.015-.118Zm-.825-.574a27.996 27.996 0 0 1-5.894-5.946 15.073 15.073 0 0 1-1.93-3.941 11.98 11.98 0 0 1-.413-1.916 8.045 8.045 0 0 1-.088-1.473c.037-1.069.479-2.21 1.112-2.35.781-.14 1.039.316 1.555 1.215.172.303.327.615.464.936.346.803.611 1.643.877 2.468a89.358 89.358 0 0 0 1.377 4.104c.332.92.686 1.834 1.083 2.726a36.31 36.31 0 0 0 2.306 4.486l-.449-.309Z" fill="#fff" fill-rule="evenodd" data-name="Path 611"/><path d="M-641.076 429.162c-.354 2.807-.884 5.592-1.473 8.354-.317 1.577-.656 3.146-.973 4.723-.354 1.731-.87 3.492-.398 5.246.01.08.01.162 0 .243a.206.206 0 0 1-.36-.06.915.915 0 0 1 0-.117v-.037a6.688 6.688 0 0 1-.605-1.473 37.167 37.167 0 0 1-1.4-4.06 35.54 35.54 0 0 1-1.363-8.664c-.076-2.61.194-5.219.803-7.758.501-2.033 1.209-5.076 2.734-6.63 1.377-1.408 2.527.847 2.947 1.996.847 2.586.412 5.577.088 8.237Z" fill="#a4dcb6" fill-rule="evenodd" data-name="Path 612"/><path d="M-643.596 423.201c-1.024 0-1.768 3.308-2.129 4.738a28.575 28.575 0 0 0-.877 6.888c.013 4.17.73 8.307 2.122 12.238.052.154.103.324.162.479v.036a.613.613 0 0 0 0 .111.214.214 0 0 0 .369.066 16.648 16.648 0 0 1-.25-1.96c-.28-3.36.205-6.792.625-10.13.553-3.912 1.341-12.458-.022-12.466Zm-.736 23.26c.051.456.125.906.213 1.348-.103-.324-.213-.648-.31-.98a40.78 40.78 0 0 1-1.93-10.793 29.404 29.404 0 0 1 .45-6.174c.2-1.09.466-2.168.796-3.227.147-.442.891-3.212 1.517-3.073.45.096.553 2.586.56 2.638v1.474c0 1.031-.08 2.062-.17 3.086-.19 2.21-.515 4.421-.78 6.631a38.442 38.442 0 0 0-.346 9.07Z" fill="#fff" fill-rule="evenodd" data-name="Path 613"/><path d="M-624.956 436.92c-1.879 3.683-5.047 6.476-8.31 8.84-1.754 1.29-3.566 2.498-5.35 3.743a29.225 29.225 0 0 0-4.619 3.552l-.177.191a7.797 7.797 0 0 0-.957 1.319.103.103 0 0 1-.089.059c-.015.055-.035.11-.059.162a.037.037 0 0 1-.073 0v-.184a.118.118 0 0 1 0-.14.452.452 0 0 0 0-.06 1.473 1.473 0 0 1 0-.176c.53-4.288 3.529-8.62 6.063-11.92 2.535-3.301 5.666-6.219 9.578-7.73.987-.375 3.227-1.421 4.221-.618.995.803.177 2.18-.228 2.962Z" fill="#a4dcb6" fill-rule="evenodd" data-name="Path 614"/><path d="M-627.859 436.934c-.891-.891-3.521 1.312-4.177 1.828a43.979 43.979 0 0 0-5.445 5.29 39.203 39.203 0 0 0-6.947 10.056l-.089.118v.184a.219.219 0 0 0 0 .06.118.118 0 0 0 0 .146c.052-.051.089-.11.133-.154.324-.405.67-.796 1.024-1.18l.177-.19a85.992 85.992 0 0 1 8.104-7.184 40.163 40.163 0 0 0 5.415-5.26c.39-.494 2.557-2.962 1.805-3.714Zm-.818 1.938c-2.21 3.684-6.063 6.366-9.327 9.047a44.498 44.498 0 0 0-6.188 5.894 41.775 41.775 0 0 1 6.424-9.047 56 56 0 0 1 4.42-4.546 22.22 22.22 0 0 1 2.682-2.144 8.754 8.754 0 0 1 1.813-.98c1.245-.353.552 1.172.176 1.776Z" fill="#fff" fill-rule="evenodd" data-name="Path 615"/><path d="M-644.966 463.34a.206.206 0 0 1-.192.103l.052.066a.066.066 0 0 1 0 .096.059.059 0 0 1-.088 0c-3.478-3.537-6.823-7.832-8.554-12.525a19.428 19.428 0 0 1-1.245-6.167c-.037-1.473-.11-4.346 1.12-5.4 2.483-2.114 4.752 6.852 5.083 8.2.619 2.468 1.024 4.98 1.592 7.449.626 2.71 1.473 5.37 2.254 8.023a.17.17 0 0 1-.022.155Z" fill="#a4dcb6" fill-rule="evenodd" data-name="Path 616"/><path d="M-644.966 463.332c-.133-.228-.265-.45-.39-.685a41.994 41.994 0 0 1-4.436-12.046 38.31 38.31 0 0 0-1.65-6.27c-.206-.493-.825-2.409-1.643-1.473-.427.508-.074 4.126.096 5.061a26.343 26.343 0 0 0 2.018 6.16 43.628 43.628 0 0 0 5.696 9.246l.191.25a.066.066 0 0 0 0-.095l-.044-.06a.228.228 0 0 0 .162-.088Zm-5.04-7.699a30.745 30.745 0 0 1-2.386-5.975 22.345 22.345 0 0 1-.524-2.512 14.236 14.236 0 0 1-.169-2.004c0-1.636.147-2.063.42-2.122.273-.059.405.147.884 1.12.299.64.533 1.31.7 1.996.25.966.479 1.938.685 2.91.42 1.953.818 3.92 1.385 5.828a32.18 32.18 0 0 0 3.456 7.832 49.676 49.676 0 0 1-4.45-7.073Z" fill="#fff" fill-rule="evenodd" data-name="Path 617"/><path d="M-633.82 454.742a12.185 12.185 0 0 1-2.276 4.737c-2.062 2.851-4.7 5.216-6.955 7.913-.331.398-.663.81-.98 1.23-.036.044-.294.641-.287.59.008-.052.037-.236.11-.62.37-1.886 1.548-7.58 3.029-10.498a25.17 25.17 0 0 1 3.293-5.157c.634-.737 2.137-2.284 3.264-1.945 1.127.339.98 2.843.803 3.75Z" fill="#a4dcb6" fill-rule="evenodd" data-name="Path 618"/><path d="M-635.654 453.607c-1.208-.737-4.317 4.804-4.737 5.526a35.04 35.04 0 0 0-3.507 8.472c-.103.332-.184.663-.272 1.002l-.118.62s.265-.539.295-.59l.162-.221.817-1.01c1.349-2.018 2.741-4.022 4.052-6.078.96-1.47 1.8-3.015 2.513-4.62.118-.375 1.326-2.791.795-3.1Zm-.346 1.562c-1.716 4.833-5.216 8.642-7.89 12.937l-.133.207.11-.376c.722-2.437 1.671-4.8 2.837-7.058a39.474 39.474 0 0 1 2.387-3.979c.446-.72.938-1.412 1.474-2.07.25-.272.957-.995 1.2-.877.244.118.126.884.015 1.201Z" fill="#fff" fill-rule="evenodd" data-name="Path 619"/><path d="M-621.7 414.847c-3.587 8.237-12.996 12.075-17.077 20.017v.037c-.126.243-.243.486-.361.737a.162.162 0 0 1-.273.044.118.118 0 0 1 0-.133l.088-.184c.634-4.95 2.668-10.05 5.032-14.418 2.063-3.802 4.885-7.367 8.79-9.35.965-.493 2.844-1.54 3.92-.736 1.075.803.324 2.962-.118 3.986Z" fill="#a4dcb6" fill-rule="evenodd" data-name="Path 620"/><path d="M-624.926 415.2c-.457-.339-1.15.067-1.54.273a13.75 13.75 0 0 0-2.719 1.857 22.618 22.618 0 0 0-4.34 5.157 46.659 46.659 0 0 0-5.12 10.366 45.065 45.065 0 0 0-.737 2.512c0 .103-.044.206-.073.31a.17.17 0 0 0 .272-.037c.11-.25.229-.48.34-.737l.036-.066a27.37 27.37 0 0 1 2.557-4.693 64.093 64.093 0 0 1 5.37-6.366c.76-.788 7.53-7.426 5.954-8.576Zm-.575 1.901c-1.09 1.938-2.778 3.522-4.259 5.157-1.48 1.636-2.99 3.308-4.42 4.988a31.083 31.083 0 0 0-3.139 4.288 24.209 24.209 0 0 0-1.967 3.964 33.89 33.89 0 0 1 1.407-4.119v-.051a61.427 61.427 0 0 1 3.478-6.926.498.498 0 0 0 .044-.088 28.536 28.536 0 0 1 3.971-5.533 15.968 15.968 0 0 1 2.822-2.402c1.179-.737 2.21-1.26 2.505-.884.295.376-.118 1.039-.42 1.606Z" fill="#fff" fill-rule="evenodd" data-name="Path 621"/><path d="M-634.224 424.498a287.682 287.682 0 0 0-3.124 7.043c-.486 1.106-.958 2.21-1.43 3.316l-.036.066-.509 1.201c-1.554 3.617-3.263 7.316-4.214 11.147a33.16 33.16 0 0 0-.854 6.189c0 .213 0 .427-.037.648v.354a1.795 1.795 0 0 0 0 .199c-.067 1.805-.037 3.617 0 5.378.051 2.46.258 4.9.493 7.367a1.108 1.108 0 0 0 0 .214V468.431c.081.788.155 1.569.214 2.357h-.737a47.557 47.557 0 0 1-.906-7.25 6.437 6.437 0 0 0-.044-.891v-.877c0-.736-.044-1.4-.059-2.092a51.63 51.63 0 0 1 .862-12.149c0-.11.052-.214.081-.324a.478.478 0 0 1 0-.14c0-.074 0-.155.052-.236l.095-.368c.06-.221.126-.442.192-.663l.059-.192a79.175 79.175 0 0 1 4.14-10.005c.273-.59.553-1.179.833-1.768l.464-.973.737-1.473v-.052c1.15-2.313 2.343-4.604 3.477-6.925.155-.103.302-.022.25.088Z" fill="#a4dcb6" fill-rule="evenodd" data-name="Path 622"/></g><g data-name="freepik--Table--inject-2"><path d="m-610.457 470.759-38.561.176-38.569.067-77.138.125-77.137-.125-38.57-.06-38.568-.183 38.569-.177 38.569-.066 77.137-.126 77.138.126 38.569.066 38.561.177Z" fill="#263238" fill-rule="evenodd" data-name="Path 623"/></g><g data-name="freepik--Character--inject-2"><path d="M-794.195 339.941c7.98 21.75 28.638 63.928 43.977 70.33 13.018 5.43 44.087 6.093 53.363 5.688 4.906-.213-3.684-41.943-8.93-41.855-5.385.089-29.963-.633-33.816-1.37-3.854-.737-24.962-26.722-38.113-40.521-16.598-17.328-23.038-10.086-16.48 7.728Z" fill="#eca89f" fill-rule="evenodd" data-name="Path 624"/><path d="M-703.11 415.628c4.95.545 28.166 1.193 34.575-.096 6.41-1.29 24.586-6.35 24.092-11.36-.494-5.01-5.93-3.95-5.93-3.95s7.367-3.352 6.38-8.347c-.988-4.995-9.357-3.08-9.357-3.08s7.279-3.993 5.975-8.907c-1.304-4.914-9.445-1.57-9.445-1.57s6.83-3.337 4.052-6.94c-3.345-4.324-15.244 3.25-22.427 4.148-1.635.207-33.36 1.769-33.36 1.769l5.445 38.333Z" fill="#eca89f" fill-rule="evenodd" data-name="Path 625"/><path d="M-656.113 378.046c-8.76 5.548-13.556 6.461-23.768 6.476-.199 0-.243.295-.036.317 10.005.891 16.208.619 24.091-6.388.39-.339.14-.67-.287-.405Z" fill="#263238" fill-rule="evenodd" data-name="Path 626"/><path d="M-652.665 388.338c-9.578 4.974-14.794 6.005-25.484 6.815-.155 0-.148.266 0 .266 10.557.088 16.717-.332 25.66-6.557.406-.28.266-.752-.176-.524Z" fill="#263238" fill-rule="evenodd" data-name="Path 627"/><path d="M-650.919 400.244c-9.644 4.14-15.288 5.519-25.786 4.966a.192.192 0 1 0-.037.383c10.631 1.606 17.682-.066 25.904-5.047.575-.339.523-.567-.081-.302Z" fill="#263238" fill-rule="evenodd" data-name="Path 628"/><path d="M-715.075 377.184s9.504-8.84 14.536-11.832c5.032-2.991 27.871-7.154 29.057-2.27 1.525 6.3-11.184 11.31-17.726 12.945 0 0 3.544 14.58-4.803 20.15-8.348 5.57-21.064-18.993-21.064-18.993Z" fill="#eca89f" fill-rule="evenodd" data-name="Path 629"/><path d="M-671.629 364.954c-2.755 6.749-11.486 8.347-17.719 10.41a.604.604 0 0 0-.324.936c1.083 6.203.796 15.28-3.934 19.959a.15.15 0 0 0 .191.228c5.754-4.325 6.764-13.217 5.158-19.944 6.424-2.019 15.103-4 16.702-11.567 0-.044-.06-.066-.074-.022Z" fill="#263238" fill-rule="evenodd" data-name="Path 630"/><path d="m-780.933 377.516 42.385-8.841s-29.838-32.793-44.735-44.11c-15.524-11.788-22.375-9.297-13.439 14.927 9.003 24.379 15.789 38.024 15.789 38.024Z" fill="#21b0ee" fill-rule="evenodd" data-name="Path 631"/><path d="M-776.115 363.598a2.21 2.21 0 0 1-.95-.331 1.783 1.783 0 0 1-.825-1.57 2.446 2.446 0 0 0-1.54-2.21 2.497 2.497 0 0 0-1.282-.073c-.4.06-.796.14-1.186.243.405.088.78.14 1.186.213.341.034.672.137.972.303.531.326.86.901.87 1.525 0 .966.581 1.838 1.473 2.21.404.173.85.222 1.282.14.405-.096.781-.14 1.164-.236a8.57 8.57 0 0 0-1.164-.214Zm-22.868-36.712a2.04 2.04 0 0 1-.98-.331 1.879 1.879 0 0 1-.487-.48c.052.377.11.774.192 1.187.408.15.848.185 1.274.103.39-.056.777-.137 1.157-.243-.38-.1-.767-.178-1.156-.236Zm37.5 17.682a2.21 2.21 0 0 1-.287.862 1.776 1.776 0 0 1-1.518.884 2.35 2.35 0 0 0-2.21 1.474 1.879 1.879 0 0 0-.118 1.274c.066.398.118.781.206 1.157a9.75 9.75 0 0 0 .243-1.157 2.21 2.21 0 0 1 .332-.95 1.76 1.76 0 0 1 1.584-.818 2.402 2.402 0 0 0 2.21-1.54c.076-.21.116-.432.118-.655l-.56-.53Zm-17.977-10.226c-.262.218-.573.37-.906.442a1.746 1.746 0 0 1-1.68-.516 2.417 2.417 0 0 0-2.63-.449c-.4.184-.738.481-.972.855-.221.331-.472.64-.663.994.353-.213.663-.45.994-.663.252-.235.562-.398.9-.471a1.783 1.783 0 0 1 1.708.42 2.336 2.336 0 0 0 2.579.545c.412-.173.767-.46 1.024-.825.214-.332.45-.641.641-1.002-.383.22-.693.456-.995.67Zm32.307 27.098a2.033 2.033 0 0 1-.899.45 1.746 1.746 0 0 1-1.68-.517 2.424 2.424 0 0 0-2.63-.449c-.4.184-.739.481-.973.855-.22.331-.471.64-.67.994.361-.213.67-.45 1.002-.663.25-.237.562-.4.899-.471a1.79 1.79 0 0 1 1.71.42 2.336 2.336 0 0 0 2.578.545c.412-.173.767-.46 1.024-.825.213-.34.45-.649.64-1.002-.382.22-.692.456-1.03.663Z" fill="#fff" fill-rule="evenodd" data-name="Path 632"/><path d="M-779.578 369.618c.988-.332 2.02-.516 3.028-.737l3.11-.737c2.1-.493 4.206-.95 6.314-1.4 4.214-.891 8.428-1.797 12.657-2.622a193.1 193.1 0 0 1 3.492-.641c1.164-.2 2.476-.325 3.684-.53.08 0 .088.102 0 .117-1.032.25-2.056.59-3.087.847-1.032.258-2.13.516-3.205.737-2.102.467-4.21.916-6.321 1.348-4.156.848-8.31 1.71-12.488 2.468l-3.492.627c-1.223.22-2.454.515-3.684.626-.037.022-.074-.103-.008-.103Z" fill="#263238" fill-rule="evenodd" data-name="Path 633"/><path d="m-760.356 373.235-20.577 4.28s-6.8-13.644-15.796-38.016c-3.787-10.314-4.737-16.643-3.382-19.663l39.755 53.4Z" fill-rule="evenodd" data-name="Path 634"/><path d="M-766.198 470.759h-65.475c-.538-2.107-1.061-4.185-1.584-6.226-.597-2.343-1.186-4.634-1.746-6.866-.125-.494-.258-.995-.383-1.474l-1.267-4.995c-.251-.987-.501-1.952-.737-2.947-.236-.995-.494-1.938-.737-2.873-.066-.25-.125-.501-.192-.737l-.198-.803a91.876 91.876 0 0 0-.244-.965c-.095-.34-.176-.67-.257-1.002a76.587 76.587 0 0 1-.472-1.857c-.236-.899-.457-1.775-.678-2.63-.088-.368-.191-.737-.28-1.113-.154-.596-.31-1.171-.45-1.746l-.28-1.12c-.39-1.473-.736-2.91-1.075-4.229-.096-.346-.177-.692-.265-1.024-.14-.567-.287-1.12-.42-1.65-.088-.331-.17-.648-.243-.965-.295-1.127-.56-2.159-.781-3.065-.066-.236-.125-.471-.184-.692-.148-.597-.288-1.128-.405-1.6-.052-.19-.089-.375-.14-.544-.052-.17-.096-.361-.133-.516a4.771 4.771 0 0 0-.088-.332 8.119 8.119 0 0 1-.111-.45c-.03-.132-.037-.14-.052-.198-.103-.39-.147-.59-.147-.59h63.7s2.092 7.228 5.451 18.89c.678 2.373 1.422 4.937 2.21 7.656a6515.658 6515.658 0 0 0 7.663 26.663Z" fill="#37474f" fill-rule="evenodd" data-name="Path 635"/><path d="M-820.96 470.759h-1.629a1970.495 1970.495 0 0 1-7.043-30.133c-.545-2.456-1.088-4.912-1.629-7.368-.044-.228-.095-.457-.147-.685a.1.1 0 1 1 .192-.052l.066.221c.737 2.628 1.474 5.263 2.21 7.906a1625.168 1625.168 0 0 1 7.98 30.11Z" fill="#263238" fill-rule="evenodd" data-name="Path 636"/><path d="m-783.6 417.55-2.807 14.073-2.306 11.544-3.927 19.672-.405 2.01-.67 3.36-.51 2.55h-37.455c-.53-2.115-1.061-4.192-1.577-6.226-.597-2.343-1.186-4.634-1.746-6.866-.125-.494-.258-.995-.383-1.474l-1.268-4.995c-.25-.987-.5-1.952-.736-2.947-.236-.995-.494-1.938-.737-2.873-.066-.25-.125-.501-.192-.737l-.198-.803c-.082-.332-.163-.649-.244-.965-.095-.34-.176-.67-.257-1.002a76.517 76.517 0 0 1-.472-1.857c-.236-.899-.457-1.775-.678-2.63-.096-.383-.191-.737-.28-1.113-.155-.596-.31-1.171-.45-1.746l-.28-1.12c-.39-1.473-.736-2.91-1.075-4.228-.096-.347-.177-.693-.265-1.025-.14-.567-.287-1.12-.42-1.65a30.94 30.94 0 0 1-.243-.965c-.295-1.127-.56-2.159-.781-3.065-.066-.236-.125-.471-.184-.692-.148-.597-.288-1.128-.405-1.6-.052-.19-.089-.375-.14-.544-.052-.17-.096-.361-.133-.516a4.777 4.777 0 0 0-.088-.332 8.097 8.097 0 0 1-.111-.45c-.03-.132-.037-.139-.052-.198-.103-.39-.147-.59-.147-.59h61.622Z" fill="#263238" fill-rule="evenodd" data-name="Path 637"/><path d="M-783.593 417.506c0 .347-.265 4.148-.877 9.94a400.302 400.302 0 0 1-.618 5.54c-.376 3.145-.84 6.63-1.415 10.277-.98 6.395-2.254 13.365-3.912 20.187a168.92 168.92 0 0 1-1.923 7.264h-82.229c.973-12.524 1.864-23.863 2.564-32.8.988-12.569 1.621-20.437 1.621-20.437h74.581l12.208.03Z" fill="#37474f" fill-rule="evenodd" data-name="Path 638"/><path d="M-783.762 425.08a295.75 295.75 0 0 1-.405 8.841 142.644 142.644 0 0 1-.907 9.512c0 .117 0 .235-.044.353a241.8 241.8 0 0 1-1.333 8.878c-.472 2.755-.818 5.725-2.041 8.266a8.104 8.104 0 0 1-1.923 2.601 5.666 5.666 0 0 1-2.63 1.356c-.16.04-.323.07-.487.088h-.14c.06.036.093.101.089.17-.037.987 0 1.989-.118 2.947v.125a42.656 42.656 0 0 1-.413 2.549h-1.414v-.052c.243-.928.457-1.864.685-2.807.228-.943.567-1.886.788-2.858a.2.2 0 0 1 .067-.089 4.376 4.376 0 0 1-4.244-2.667 7.61 7.61 0 0 1-.066-3.86c.258-1.687.5-3.367.736-5.054.48-3.087 1.106-6.152 1.65-9.224.082-.465.17-.943.251-1.408 1.105-6.255 2.255-12.524 3.64-18.72.051-.258.11-.516.17-.737.058-.221.309-.125.294.044-.037.413-.081.833-.133 1.253-.243 2.38-.523 4.752-.854 7.11-.398 2.784-.67 5.576-1.061 8.354-.133.943-.265 1.893-.405 2.836-.641 4.568-1.304 9.136-2.085 13.69-.361 2.114-1.68 5.893 1.363 6.564.697.15 1.424.059 2.062-.258a6.461 6.461 0 0 0 2.83-3.573c.862-2.424 1.171-5.099 1.62-7.618.492-2.785.934-5.573 1.327-8.363.49-3.487 1.009-6.972 1.554-10.454l.84-5.327.398-2.46c.066-.214.339-.214.339-.008Z" fill="#263238" fill-rule="evenodd" data-name="Path 639"/><path d="M-856.524 446.976a41.687 41.687 0 0 0 10.138-1.363c1.532-.398 3.043-.884 4.538-1.377a11.788 11.788 0 0 0 4.097-2.056c2.306-1.99 3.381-5.12 4.376-7.898a74.591 74.591 0 0 0 2.66-9.578c0-.162.272-.11.28.045a37.294 37.294 0 0 1-1.385 10.889c-.826 3.006-1.938 6.365-4.37 8.472-2.556 2.21-6.026 2.992-9.297 3.397-3.675.427-7.39.375-11.051-.155a.188.188 0 0 1 .014-.376Z" fill="#263238" fill-rule="evenodd" data-name="Path 640"/><path d="M-862.226 424.749c-.177 4.607-.368 9.211-.575 13.814a6417.31 6417.31 0 0 1-1.554 32.196h-1.54a4384.974 4384.974 0 0 1 2.21-32.248c.344-4.592.693-9.182 1.046-13.77a.206.206 0 1 1 .413.008Z" fill="#263238" fill-rule="evenodd" data-name="Path 641"/><path d="m-769.432 451.581-111.552-8.458s22.442-88.94 66.757-121.637c11.324-8.355 23.723-2.991 29.308 3.249 14.175 15.862 15.818 126.492 15.487 126.846Z" fill="#21b0ee" fill-rule="evenodd" data-name="Path 642"/><path d="M-819.546 361.41a2.121 2.121 0 0 1-.95-.331 1.754 1.754 0 0 1-.826-1.57 2.299 2.299 0 0 0-2.829-2.21c-.397.058-.79.136-1.179.236.398.096.781.14 1.18.221.344.029.678.132.979.302.529.325.856.897.87 1.518a2.402 2.402 0 0 0 1.473 2.21c.405.168.85.217 1.282.14.405-.096.78-.14 1.157-.243a9.458 9.458 0 0 0-1.157-.273Zm43.431 2.21a2.21 2.21 0 0 1-.95-.331 1.783 1.783 0 0 1-.825-1.57 2.446 2.446 0 0 0-1.54-2.21 2.498 2.498 0 0 0-1.282-.073c-.4.06-.796.14-1.186.243.405.088.78.14 1.186.214.341.033.672.136.972.302.531.326.86.901.87 1.525 0 .966.581 1.838 1.473 2.21.404.173.85.222 1.282.14.405-.096.781-.14 1.164-.236a8.571 8.571 0 0 0-1.164-.236Zm-20.88 73.61a2.115 2.115 0 0 1-.964-.332 1.812 1.812 0 0 1-.84-1.57 2.365 2.365 0 0 0-1.54-2.21 2.446 2.446 0 0 0-1.275-.074c-.375.074-.78.126-1.156.221.38.101.766.178 1.156.229.34.037.668.142.965.31.548.311.891.887.907 1.517a2.336 2.336 0 0 0 1.473 2.21c.41.18.865.232 1.304.148.376-.089.737-.148 1.164-.236-.434-.096-.818-.14-1.193-.214Zm-1.989-110.344a2.04 2.04 0 0 1-.98-.331 1.886 1.886 0 0 1-.825-1.562 2.313 2.313 0 0 0-1.517-2.159 2.21 2.21 0 0 0-1.304-.096c-.383.074-.781.126-1.164.236.383.096.78.14 1.164.243.341.022.674.12.972.288.54.315.879.886.9 1.51.01.963.588 1.829 1.473 2.21.417.161.871.202 1.311.118.39-.056.777-.137 1.157-.243a10.733 10.733 0 0 0-1.187-.214Zm-29.101 100.581a2.41 2.41 0 0 1-.973-.324 1.812 1.812 0 0 1-.825-1.57 2.387 2.387 0 0 0-1.54-2.21 2.52 2.52 0 0 0-1.289-.095c-.398.096-.78.14-1.157.243.381.1.767.176 1.157.228.347.02.684.126.98.31.542.316.882.89.899 1.517-.015.971.572 1.85 1.473 2.21.411.168.862.212 1.297.126.383-.074.737-.125 1.164-.243-.45-.067-.818-.118-1.186-.192Zm-39.203 10.381a2.409 2.409 0 0 1-.972-.324 1.835 1.835 0 0 1-.825-1.57 2.372 2.372 0 0 0-1.54-2.21 2.497 2.497 0 0 0-1.282-.095c-.405.095-.78.14-1.164.243.382.103.771.179 1.164.228.344.024.678.13.973.31.544.315.886.889.906 1.517a2.336 2.336 0 0 0 1.473 2.21c.411.168.862.211 1.297.126.392-.059.781-.14 1.164-.243-.45-.067-.825-.11-1.208-.192Zm58.484-45.119a2.299 2.299 0 0 1-.95-.309 1.798 1.798 0 0 1-.826-1.562 2.402 2.402 0 0 0-1.54-2.21 2.159 2.159 0 0 0-1.282-.096c-.405.096-.78.14-1.186.236.39.107.786.186 1.186.236.341.025.673.123.973.287.532.323.863.895.877 1.518a2.417 2.417 0 0 0 1.473 2.21c.405.169.853.21 1.282.118.4-.055.795-.131 1.186-.229-.427-.059-.803-.103-1.208-.199Zm29.565 21.875a1.974 1.974 0 0 1-.95-.332 1.768 1.768 0 0 1-.833-1.562 2.402 2.402 0 0 0-1.54-2.21 2.556 2.556 0 0 0-1.303-.066c-.376.066-.737.117-1.157.206.376.1.757.179 1.142.236.351.022.692.128.994.31.54.315.872.892.877 1.517 0 .966.581 1.838 1.474 2.21.414.175.87.223 1.311.14.398-.096.781-.14 1.157-.236a7.484 7.484 0 0 0-1.186-.213Zm-71.759-18.802a1.953 1.953 0 0 1-.958-.332 1.776 1.776 0 0 1-.825-1.562 2.394 2.394 0 0 0-1.54-2.21 2.57 2.57 0 0 0-1.304-.074c-.383.074-.737.118-1.164.214.383.101.772.18 1.164.236.351.024.692.13.995.31.539.316.872.892.877 1.517 0 .967.58 1.838 1.473 2.21.414.175.87.224 1.311.14.398-.096.781-.14 1.157-.236a8.463 8.463 0 0 0-1.2-.213Zm69.593-4.244c-.269.22-.576.39-.906.501a1.842 1.842 0 0 1-1.71-.457 2.394 2.394 0 0 0-2.585-.538 2.21 2.21 0 0 0-1.01.826c-.22.331-.456.64-.67.994.361-.213.67-.45 1.002-.663.265-.212.57-.365.899-.45.62-.12 1.26.073 1.71.516a2.387 2.387 0 0 0 2.63.457c.393-.195.728-.49.972-.854.206-.332.45-.634.633-.995-.346.214-.648.45-.98.663Zm-39.534-59.212c-.073-.406-.125-.789-.213-1.165a11.21 11.21 0 0 0-.243 1.165 2.365 2.365 0 0 1-.303.972c-.315.54-.892.873-1.517.877a2.424 2.424 0 0 0-2.21 1.473c-.169.41-.217.86-.14 1.297.095.383.14.737.243 1.164.118-.405.162-.78.235-1.164.025-.345.14-.678.332-.965.34-.534.936-.85 1.57-.833a2.372 2.372 0 0 0 2.173-1.54c.144-.411.17-.856.073-1.281Zm-9.246 68.289a9.739 9.739 0 0 0-.236-1.157c-.088.376-.147.737-.235 1.157a2.328 2.328 0 0 1-.288.972 1.76 1.76 0 0 1-1.517.877 2.446 2.446 0 0 0-2.21 1.474c-.152.41-.193.851-.119 1.282.055.396.131.79.229 1.178.11-.386.19-.78.243-1.178.028-.34.142-.667.332-.95a1.76 1.76 0 0 1 1.561-.833 2.424 2.424 0 0 0 2.21-1.54c.13-.416.14-.86.03-1.282Zm-12.782-39.122a9.452 9.452 0 0 0-.229-1.156c-.096.375-.147.736-.243 1.156-.02.342-.119.675-.287.973-.312.54-.887.874-1.51.877a2.46 2.46 0 0 0-2.21 1.473 2.52 2.52 0 0 0-.119 1.29c.058.396.136.79.236 1.178a9.58 9.58 0 0 0 .243-1.179c.024-.34.138-.668.332-.95a1.76 1.76 0 0 1 1.562-.832 2.424 2.424 0 0 0 2.21-1.54c.13-.42.135-.867.015-1.29Zm63.699 84.086a9.863 9.863 0 0 0-.236-1.164c-.088.383-.147.736-.236 1.164a2.394 2.394 0 0 1-.287.972 1.776 1.776 0 0 1-1.518.877 2.439 2.439 0 0 0-2.21 1.473c-.15.41-.191.852-.118 1.282 0 .096 0 .2.052.295h.368c0-.11.037-.214.052-.324.03-.34.143-.666.331-.95a1.775 1.775 0 0 1 1.547-.774 2.424 2.424 0 0 0 2.21-1.54c.14-.424.156-.879.045-1.311Zm-16.238-73.771c-.096-.383-.14-.737-.236-1.164-.101.383-.18.772-.236 1.164-.028.35-.133.69-.309.995-.313.542-.89.879-1.518.884a2.335 2.335 0 0 0-2.21 1.473c-.18.4-.22.849-.118 1.275.074.405.118.78.214 1.164a9.87 9.87 0 0 0 .236-1.164c.044-.334.156-.655.331-.943a1.776 1.776 0 0 1 1.562-.825 2.394 2.394 0 0 0 2.21-1.54c.131-.427.157-.88.074-1.32Zm-49.804 69.166c-.089-.405-.14-.781-.236-1.157-.103.38-.181.767-.236 1.157-.017.346-.124.68-.31.972-.307.545-.884.88-1.51.877a2.424 2.424 0 0 0-2.21 1.474 2.21 2.21 0 0 0-.14 1.179v.132c0 .06 0 .133.037.192h.39c0-.06 0-.118.052-.177a.368.368 0 0 1 0-.089c.022-.314.123-.619.295-.884a1.76 1.76 0 0 1 1.562-.832 2.365 2.365 0 0 0 2.306-2.859Zm-21.992-34.17c-.089-.406-.14-.781-.236-1.165-.102.383-.18.772-.236 1.165-.018.345-.125.68-.31.972-.3.533-.86.867-1.473.877a1.7 1.7 0 0 0-.272 0l-.398 1.068c.22-.088.456-.128.692-.118a2.365 2.365 0 0 0 2.21-1.54 2.41 2.41 0 0 0 .023-1.26Zm69.166-57.032a2.21 2.21 0 0 1-.906.45 1.768 1.768 0 0 1-1.68-.524 2.41 2.41 0 0 0-2.623-.45 2.328 2.328 0 0 0-.98.855c-.214.332-.471.641-.663.995.354-.214.663-.45.995-.663.251-.236.562-.399.898-.472a1.768 1.768 0 0 1 1.71.428 2.335 2.335 0 0 0 3.602-.288c.221-.331.45-.64.649-1.002-.361.221-.67.457-1.002.67Zm17.94-15.067-.221.06a1.746 1.746 0 0 1-1.68-.517 2.417 2.417 0 0 0-2.63-.449c-.4.184-.739.481-.973.855-.221.331-.471.64-.663.994.354-.213.663-.45.995-.663.251-.235.562-.398.898-.471a1.783 1.783 0 0 1 1.71.42 2.335 2.335 0 0 0 2.578.545.906.906 0 0 0 .192-.089 4.398 4.398 0 0 0-.206-.685Zm-49.363 43.535a1.82 1.82 0 0 1-.898.45 1.753 1.753 0 0 1-1.688-.517 2.394 2.394 0 0 0-2.63-.449c-.4.181-.738.476-.972.847-.207.332-.472.641-.663 1.002.353-.22.663-.457.994-.67.257-.232.57-.394.906-.472a1.76 1.76 0 0 1 1.702.428 2.336 2.336 0 0 0 2.579.545 2.387 2.387 0 0 0 1.024-.833c.214-.331.45-.64.641-.994-.361.213-.67.45-.995.663Zm-21.292 41.936a1.923 1.923 0 0 1-2.608-.052 2.343 2.343 0 0 0-2.608-.472 2.534 2.534 0 0 0-.972.848 9.13 9.13 0 0 0-.67 1.002c.35-.199.684-.423 1.001-.67a2.13 2.13 0 0 1 .899-.472 1.812 1.812 0 0 1 1.687.45 2.41 2.41 0 0 0 2.6.552c.404-.183.75-.47 1.003-.833.206-.331.471-.64.663-.994-.332.162-.663.427-.995.64Zm34.37 24.88a1.923 1.923 0 0 1-2.608-.052 2.35 2.35 0 0 0-2.608-.472c-.39.196-.725.488-.973.848-.242.32-.464.654-.663 1.002.346-.198.679-.42.995-.663.253-.233.563-.396.898-.472a1.812 1.812 0 0 1 1.688.442 2.41 2.41 0 0 0 2.6.553c.402-.18.749-.465 1.002-.825.207-.332.472-.641.663-1.002-.353.184-.663.427-.994.64Zm13.445-29.213a2.13 2.13 0 0 1-.928.45 1.835 1.835 0 0 1-1.68-.516 2.328 2.328 0 0 0-2.637-.457 2.38 2.38 0 0 0-.965.855c-.221.31-.45.611-.67.972.347-.198.682-.42 1.001-.663a3.25 3.25 0 0 1 .899-.478c.61-.15 1.255.022 1.71.456a2.32 2.32 0 0 0 3.602-.287c.206-.332.45-.641.634-.995-.303.192-.605.428-.966.663Zm33.154 13.483a1.886 1.886 0 0 1-.899-.501 2.358 2.358 0 0 0-2.608-.45 2.13 2.13 0 0 0-.972.848 9.078 9.078 0 0 0-.663 1.002c.353-.221.663-.45.994-.67.262-.23.571-.4.906-.494.6-.155 1.238.015 1.68.45.424.429.99.69 1.592.736.007-.324-.03-.619-.03-.921Z" fill="#fff" fill-rule="evenodd" data-name="Path 643"/><path d="M-787.932 340.472c-6.506.096-15.037-11.678-17.55-20.246-.162-.59 6.631-21.071 7.56-25.27.191-.87 24.968 12.207 24.968 12.207s-4.531 8.23-6.1 15.56c-.126.62-2.616 17.653-8.878 17.749Z" fill="#eca89f" fill-rule="evenodd" data-name="Path 644"/><path d="M-772.954 307.156s-4.531 8.237-6.108 15.568c0 .147-.184 1.208-.493 2.755-12.275-3.92-18.56-13.365-21.528-19.819 1.473-4.641 2.792-9.003 3.16-10.704.192-.862 24.969 12.2 24.969 12.2Z" fill="#263238" fill-rule="evenodd" data-name="Path 645"/><path d="M-803.279 266.944c-3.684 9.313-.737 37.25 5.54 43.918 9.144 9.673 25.197 11.788 33.7.552 8.236-10.881 3.83-47.225-3.323-53.4-10.528-9.09-30.516-4.803-35.917 8.93Z" fill="#eca89f" fill-rule="evenodd" data-name="Path 646"/><path d="M-779.46 282.077c-.78.346-1.562.545-2.365.818-.913.302-1.606.633-2.57.368a1.282 1.282 0 0 1-.804-1.348c.214-1.2 1.238-1.85 2.313-2.254a4.664 4.664 0 0 1 3.382-.096 1.378 1.378 0 0 1 .044 2.512Z" fill="#263238" fill-rule="evenodd" data-name="Path 647"/><path d="M-778.79 286.1c0-.067-.132.11-.124.184.331 1.871.39 4.06-1.216 4.929-.052 0 0 .118 0 .103 2.055-.59 1.952-3.478 1.34-5.216Z" fill="#263238" fill-rule="evenodd" data-name="Path 648"/><path d="M-780.749 284.383c-3.043.2-2.416 6.285.405 6.093 2.822-.191 2.152-6.262-.405-6.093Z" fill="#263238" fill-rule="evenodd" data-name="Path 649"/><path d="M-767.93 284.715c0-.074.155.073.163.154.132 1.894.611 4.03 2.38 4.48.05 0 .058.11 0 .11-2.115-.08-2.72-2.932-2.543-4.744Z" fill="#263238" fill-rule="evenodd" data-name="Path 650"/><path d="M-766.449 282.578c3.006-.545 3.868 5.511 1.083 6.012-2.785.501-3.602-5.555-1.083-6.012Z" fill="#263238" fill-rule="evenodd" data-name="Path 651"/><path d="M-764.548 278.776c-.854-.051-1.643-.243-2.483-.375-.95-.155-1.724-.184-2.46-.87a1.304 1.304 0 0 1-.089-1.576c.737-.973 1.967-1.069 3.117-.929a4.737 4.737 0 0 1 3.05 1.474 1.385 1.385 0 0 1-1.135 2.276Z" fill="#263238" fill-rule="evenodd" data-name="Path 652"/><path d="M-779.32 303.207c.501.39 1.01.95 1.702.936a4.892 4.892 0 0 0 1.975-.678.066.066 0 0 1 .095.088 2.556 2.556 0 0 1-2.29 1.268 2.004 2.004 0 0 1-1.622-1.51c-.073-.111.067-.163.14-.104Z" fill="#263238" fill-rule="evenodd" data-name="Path 653"/><path d="M-777.92 297.357a6.432 6.432 0 0 0 4.575 2.41c.776.07 1.558.025 2.321-.133.148-.016.294-.048.435-.096l.405-.103a.479.479 0 0 0 .339-.464.816.816 0 0 0 0-.184v-.17c-.11-1.473-.479-3.684-.479-3.684.56.214 3.39 1.15 3.264.398-1.017-6.24-2.159-13.173-4.494-19.155a.177.177 0 0 0-.34.08c.738 6.035 2.55 11.9 3.397 17.94a11.318 11.318 0 0 0-3.124-.603c-.199.08.789 4.221.789 4.884a.458.458 0 0 1 0 .066c-2.41.568-4.318 0-6.86-1.37-.22-.096-.36.044-.228.184Z" fill="#263238" fill-rule="evenodd" data-name="Path 654"/><path d="M-771.952 298.993a7.72 7.72 0 0 1-2.807 2.674 3.433 3.433 0 0 1-2.063.347c-1.547-.244-1.731-1.621-1.577-2.83a8.392 8.392 0 0 1 .487-1.878 9.953 9.953 0 0 0 5.96 1.687Z" fill="#263238" fill-rule="evenodd" data-name="Path 655"/><path d="M-774.76 301.667a3.433 3.433 0 0 1-2.062.347c-1.547-.244-1.731-1.621-1.577-2.83 1.628 0 3.36.929 3.64 2.483Z" fill="#ff97b8" fill-rule="evenodd" data-name="Path 656"/><path d="M-805.128 292.259c5.224-1.474 7.832-19.038 7.832-19.038s0 7.434 1.363 7.25c1.363-.184 7.072-10.314 7.699-17.535 0 0 6.63 4.465 13.261 6.417 6.63 1.953 13.94 1.474 13.94.369 0-3.345-3.088-12.09-7.64-15.177-5.254-3.551-12.746-6.985-23.577-2.815-10.83 4.17-13.585 11.059-15.17 16.481-1.583 5.423.376 24.564 2.292 24.048Z" fill="#263238" fill-rule="evenodd" data-name="Path 657"/><path d="M-798.807 291.28s-5.643-9.336-9.843-7.368c-4.2 1.967-.368 15.184 4.266 17.276a4.848 4.848 0 0 0 6.63-2.166l-1.053-7.743Z" fill="#eca89f" fill-rule="evenodd" data-name="Path 658"/><path d="M-807.456 287.662c-.074 0-.096.095 0 .125 3.242 1.57 4.789 4.781 5.805 8.06-.913-1.297-2.21-2.063-3.949-.995-.088.06 0 .2.082.185a2.999 2.999 0 0 1 3.204 1.252c.56.866 1.024 1.79 1.385 2.755.14.303.686.185.597-.169v-.081c.317-4.236-2.586-10.396-7.124-11.132Z" fill="#263238" fill-rule="evenodd" data-name="Path 659"/><path d="M-774.428 252.187a40.389 40.389 0 0 0-10.874-4.546c-4.295-1.009-18.124-1.407-21.712.988-3.588 2.394-5.828 15.236-6.115 17.122-.287 1.886-.663 13.401 3.183 16.599 3.846 3.197 6.306-16.209 13.534-21.919 7.227-5.71 21.984-8.244 21.984-8.244Z" fill="#fe7f54" fill-rule="evenodd" data-name="Path 660"/><path d="M-774.42 252.195s-14.772 2.49-21.985 8.236c-7.213 5.747-9.688 25.124-13.541 21.926-1.695-1.414-2.387-3.315-2.815-6.432 1.474-5.577 4.708-14.138 10.086-19.737 5.04-5.239 12.975-7.316 21.226-7.368a45.68 45.68 0 0 1 7.029 3.375Z" fill="#7772bd" fill-rule="evenodd" data-name="Path 661"/><path d="M-810.042 294.005c.92-5.157 7.655-18.419 13.998-25.786 6.344-7.368 23.09-10.263 25.352-9.895 5.474.907 7.16 2.778 8.104 2.373.943-.406-4.31-5.158-5.761-6.233-1.452-1.076-5.386-3.728-7.788-3.927-2.402-.2-17.32-.273-23.355 5.422-6.034 5.695-15.508 22.56-14.595 27.26.214 1.12 1.584 1.967 1.879 3.559.39 2.077.567 4.42 1.024 5.894.368 1.2 1.06 1.797 1.142 1.333Z" fill="#da663e" fill-rule="evenodd" data-name="Path 662"/><path d="M-794.371 264.793a26.596 26.596 0 0 1-3.301-3.013 19.26 19.26 0 0 1-2.711-3.596.088.088 0 1 0-.155.074 14.241 14.241 0 0 0 2.394 3.964 12.407 12.407 0 0 0 3.625 2.821.147.147 0 0 0 .148-.25Z" fill="#263238" fill-rule="evenodd" data-name="Path 663"/><path d="M-809.541 288.826c-.103-.383-.317-.737-.457-1.12a6.462 6.462 0 0 1-.346-1.334 12.038 12.038 0 0 0-.317-2.57 9.577 9.577 0 0 0-1.031-1.858 3.448 3.448 0 0 1-.796-2.21c0-.11-.162-.132-.17 0-.176 1.577.737 2.8 1.304 4.192.354.884.229 1.842.428 2.763a4.037 4.037 0 0 0 1.134 2.306c.126.052.288-.03.25-.17Z" fill="#263238" fill-rule="evenodd" data-name="Path 664"/><path d="M-807.161 283.418a22.677 22.677 0 0 1-1.268-1.916 15.87 15.87 0 0 1-.906-2.048c-.258-.692-.457-1.407-.7-2.1-.287-.825-.67-1.62-.92-2.453 0-.11-.192 0-.155.066.25.87.36 1.776.582 2.653.198.751.444 1.49.736 2.21a11.05 11.05 0 0 0 1.024 1.99 5.6 5.6 0 0 0 1.51 1.657.056.056 0 0 0 .097-.059Z" fill="#263238" fill-rule="evenodd" data-name="Path 665"/><path d="M-804.745 278.563a15.008 15.008 0 0 1-2.475-3.478c-.627-1.245-1.187-2.534-1.724-3.823 0-.081-.192-.052-.162.051a17.682 17.682 0 0 0 1.363 4.119 9.35 9.35 0 0 0 1.141 1.775 9.828 9.828 0 0 0 1.732 1.474c.08.066.199-.037.125-.118Z" fill="#263238" fill-rule="evenodd" data-name="Path 666"/><path d="M-802.174 273.943a5.157 5.157 0 0 1-1.23-1.532c-.383-.634-.737-1.267-1.105-1.916-.368-.648-.693-1.237-1.032-1.856a5.158 5.158 0 0 1-.736-2.004.088.088 0 0 0-.17 0 5.334 5.334 0 0 0 .376 2.085c.257.743.577 1.463.958 2.151.374.675.792 1.325 1.252 1.945.371.587.91 1.05 1.547 1.326.14.045.25-.118.14-.199Z" fill="#263238" fill-rule="evenodd" data-name="Path 667"/><path d="M-800.044 267.946c-.428-.523-.855-1.046-1.246-1.598-.39-.553-.736-1.12-1.09-1.695a52.092 52.092 0 0 1-1.083-1.827.084.084 0 1 0-.155.066c.194.679.44 1.341.737 1.982.319.625.678 1.228 1.076 1.805a17.03 17.03 0 0 0 1.26 1.643 5.349 5.349 0 0 0 1.562 1.348.118.118 0 0 0 .154-.154 10.133 10.133 0 0 0-1.215-1.57Z" fill="#263238" fill-rule="evenodd" data-name="Path 668"/><path d="M-790.09 262.273a20.208 20.208 0 0 0-3.036-3.89 22.581 22.581 0 0 0-3.728-3.13c-.081-.053-.2.043-.126.124 2.21 2.35 4.554 4.62 6.756 7a.084.084 0 0 0 .133-.104Z" fill="#263238" fill-rule="evenodd" data-name="Path 669"/><path d="M-786.488 258.177a10.836 10.836 0 0 0-1.577-1.857 23.516 23.516 0 0 0-4.17-2.947c-.096-.051-.199.067-.11.14 1.252 1.032 2.512 2.049 3.683 3.154a20.502 20.502 0 0 1 1.688 1.709c.53.611.906 1.319 1.4 1.945a.066.066 0 0 0 .117-.052 6.04 6.04 0 0 0-1.031-2.092Z" fill="#263238" fill-rule="evenodd" data-name="Path 670"/><path d="M-781.965 256.6a11.146 11.146 0 0 0-1.473-1.834 13.062 13.062 0 0 0-3.544-2.623c-.088-.044-.162.096-.088.155a25.135 25.135 0 0 1 3.293 2.947c.508.545.987 1.112 1.474 1.672.486.56.869 1.238 1.407 1.746.044.037.103 0 .088-.066-.322-.7-.71-1.369-1.157-1.997Z" fill="#263238" fill-rule="evenodd" data-name="Path 671"/><path d="M-778.576 254.353c-.493-.493-1.016-.972-1.54-1.473a6.838 6.838 0 0 0-1.694-1.209c-.096-.036-.147.089-.08.155.964.95 1.922 1.93 2.865 2.903.817.96 1.528 2.005 2.122 3.116a.053.053 0 0 0 .096-.044 6.63 6.63 0 0 0-1.769-3.448Z" fill="#263238" fill-rule="evenodd" data-name="Path 672"/><path d="M-774.597 253.948a10.867 10.867 0 0 0-3.227-2.52c-.088-.044-.17.096-.088.148a13.218 13.218 0 0 1 2.888 2.696 18.544 18.544 0 0 1 2.15 3.338c0 .059.134.044.119 0a8.951 8.951 0 0 0-1.842-3.662Z" fill="#263238" fill-rule="evenodd" data-name="Path 673"/><path d="M-769.757 256.792a7.475 7.475 0 0 0-.36-.833 9.135 9.135 0 0 0-1.003-1.532 19.362 19.362 0 0 0-2.696-2.571c-.089-.074-.192.066-.11.14a15.046 15.046 0 0 1 2.504 2.615c.356.468.678.96.965 1.474.14.25.258.515.376.78.096.256.214.503.354.737a.088.088 0 0 0 .154 0 2.564 2.564 0 0 0-.184-.81Z" fill="#263238" fill-rule="evenodd" data-name="Path 674"/><path d="M-766.677 257.403c-.25-.435-.526-.856-.825-1.26a11.05 11.05 0 0 0-.965-1.149c-.354-.376-.737-.737-1.069-1.12-.08-.088-.206 0-.117.126.36.371.688.773.98 1.2.28.398.567.789.854 1.187l.847 1.186c.264.424.55.835.855 1.23a.074.074 0 0 0 .118-.073 6.632 6.632 0 0 0-.678-1.327Z" fill="#263238" fill-rule="evenodd" data-name="Path 675"/><path d="M-821.889 347.898c3.956 22.84 16.79 67.428 29.043 78.656 9.106 8.347 57.827 11.272 64.37 12.075 4.877.604 5.636-40.521.456-41.383-5.312-.877-42.37-5.894-46.04-7.301-3.668-1.408-19.766-30.767-30.206-46.666-13.232-20.077-20.872-14.08-17.623 4.62Z" fill="#eca89f" fill-rule="evenodd" data-name="Path 676"/><path d="M-727.283 439.086c10.499 2.276 33.154 3.684 45.222 2.21 15.899-1.857 36.483-15.626 34.236-19.465-2.475-4.236-11.788-1.665-20.46.236-13.71 3.006-18.042-1.201-22.529-5.26-18.419-16.658-38.628-19.628-38.628-19.628s-8.686 39.557 2.159 41.907Z" fill="#eca89f" fill-rule="evenodd" data-name="Path 677"/><path d="M-691.676 419.606c-4.634-4.2 13.166 0 18.25-4.995 5.083-4.995-1.474-8.104-8.245-8.885-23.377-2.778-27.672-12.62-43.8-9.46-16.127 3.16 33.795 23.34 33.795 23.34Z" fill="#eca89f" fill-rule="evenodd" data-name="Path 678"/><path d="M-703.685 418.376c-.096.037-.155-.126-.059-.17a22.47 22.47 0 0 1 6.557-1.694 56.214 56.214 0 0 1 6.778 0c2.314.096 4.62.236 6.933.236 1.179 0 2.343-.089 3.522-.185 1.179-.095 2.284-.339 3.418-.353.14 0 .148.184.052.25-.98.552-2.05.924-3.16 1.098-1.055.186-2.121.3-3.191.339-2.349.087-4.701.03-7.043-.17-2.292-.162-4.59-.316-6.889-.272" fill="#263238" fill-rule="evenodd" data-name="Path 679"/><path d="m-771.436 390.586 10.889 1.473c3.625.486 7.257.987 10.874 1.51l10.875 1.54 5.437.737 2.711.39 1.356.192.677.096.627.073-.295.052a22.191 22.191 0 0 1 5.157-1.356 26.79 26.79 0 0 1 5.268-.257 33.294 33.294 0 0 1 10.211 2.335c3.235 1.267 6.322 2.763 9.504 3.934 1.577.6 3.191 1.092 4.833 1.474 1.65.383 3.338.67 5.025.958 3.41.489 6.794 1.15 10.138 1.981a17.75 17.75 0 0 1 4.892 2.034 4.98 4.98 0 0 1 1.878 2.122c.34.92.34 1.93 0 2.85a5.195 5.195 0 0 1-1.672 2.211 9.414 9.414 0 0 1-2.335 1.319 18.912 18.912 0 0 1-5.099 1.142c-3.446.28-6.913.106-10.314-.516l.051-.11 1.68 1.591-1.768-1.473-.214-.118h.214c3.392.449 6.828.471 10.226.066a19.222 19.222 0 0 0 4.87-1.282c1.473-.641 2.947-1.658 3.455-3.124a3.213 3.213 0 0 0 0-2.21 4.038 4.038 0 0 0-1.547-1.628 16.571 16.571 0 0 0-4.634-1.776c-3.279-.803-6.675-1.297-10.064-1.842-1.695-.272-3.396-.545-5.106-.928a39.18 39.18 0 0 1-5.017-1.474c-3.271-1.171-6.388-2.652-9.578-3.86a31.334 31.334 0 0 0-9.754-2.32 25.24 25.24 0 0 0-5.003.198c-1.644.211-3.257.62-4.803 1.216l-.177.066h-.118l-.737-.088-.685-.096-1.363-.206-2.711-.413c-1.813-.273-3.618-.582-5.423-.877l-10.837-1.812c-3.61-.6-7.218-1.22-10.823-1.864a756.223 756.223 0 0 1-10.771-1.93Z" fill="#263238" fill-rule="evenodd" data-name="Path 680"/><path d="m-782.598 376.086-31.813 29.367s-9.357-43.343-9.91-62.041c-.567-19.488 5.438-23.613 19.96-2.27 14.587 21.477 21.763 34.944 21.763 34.944Z" fill="#21b0ee" fill-rule="evenodd" data-name="Path 681"/><path d="M-798.446 350.005a2.21 2.21 0 0 1-.596.236 1.768 1.768 0 0 1-1.68-.523 2.41 2.41 0 0 0-2.623-.45 2.328 2.328 0 0 0-.98.855c-.214.332-.471.641-.663.995.354-.214.663-.45.995-.663.251-.236.562-.399.898-.472a1.768 1.768 0 0 1 1.71.428c.668.696 1.695.91 2.586.537.255-.1.487-.251.685-.442l-.332-.5Zm2.947 21.808c-.095-.383-.14-.737-.235-1.164-.102.383-.18.772-.236 1.164-.028.35-.134.69-.31.995-.313.543-.89.88-1.517.884a2.335 2.335 0 0 0-2.21 1.473c-.18.4-.221.849-.118 1.275.073.405.117.78.213 1.164.102-.383.18-.772.236-1.164.044-.328.154-.644.324-.928a1.776 1.776 0 0 1 1.562-.825 2.394 2.394 0 0 0 2.21-1.54c.131-.427.157-.88.074-1.32Zm-25.44-39.467c-.073-.406-.125-.789-.213-1.165-.102.384-.183.772-.243 1.165a2.365 2.365 0 0 1-.302.972c-.316.54-.893.873-1.518.877-.25.003-.5.045-.737.125-.044.346-.088.7-.125 1.068.275-.158.59-.234.906-.22a2.372 2.372 0 0 0 2.173-1.54c.14-.414.16-.858.06-1.282Zm12.12 60.413a2.298 2.298 0 0 1-.95-.31 1.798 1.798 0 0 1-.826-1.561 2.402 2.402 0 0 0-1.54-2.21 2.159 2.159 0 0 0-1.281-.096c-.406.095-.781.14-1.187.235.39.107.786.186 1.187.236.34.025.672.123.972.287.533.323.863.896.877 1.518a2.416 2.416 0 0 0 1.473 2.21c.406.17.853.21 1.282.118.4-.054.795-.13 1.186-.228-.412-.089-.788-.133-1.193-.229Zm-10.727-31.32a2.122 2.122 0 0 1-.95-.33 1.754 1.754 0 0 1-.826-1.57 2.453 2.453 0 0 0-1.54-2.21l-.184-.06c0 .31.081.62.126.936.386.337.61.822.618 1.334a2.402 2.402 0 0 0 1.474 2.21c.405.169.85.217 1.282.14.405-.096.78-.14 1.157-.243a9.46 9.46 0 0 0-1.157-.236Z" fill="#fff" fill-rule="evenodd" data-name="Path 682"/><path d="M-789.774 372.565c-.833.611-1.592 1.34-2.365 2.026l-2.402 2.107a299.35 299.35 0 0 0-4.804 4.325c-3.175 2.947-6.365 5.812-9.489 8.782-.862.81-1.716 1.628-2.556 2.468-.84.84-1.702 1.827-2.579 2.704-.059.051 0 .125.088.073.803-.692 1.673-1.326 2.483-2.018a129.99 129.99 0 0 0 2.468-2.166c1.606-1.444 3.198-2.9 4.775-4.37 3.101-2.887 6.225-5.768 9.268-8.723.847-.825 1.687-1.657 2.542-2.482.854-.825 1.841-1.695 2.645-2.638.022-.03-.037-.088-.074-.088Z" fill="#263238" fill-rule="evenodd" data-name="Path 683"/><path d="M-792.81 355.62c0-.082-.169 0-.147.058a33.697 33.697 0 0 0 1.746 4.73c-.42-.648-.825-1.304-1.245-1.945-1.37-2.077-2.77-4.133-4.133-6.218a.074.074 0 0 0-.125.074c2.129 3.787 4.096 7.67 6.343 11.397 2.247 3.728 6.329 10.072 7.603 12.098-.795.98-2.018 2.026-2.895 3.065-.081.095.081.206.17.125 1.046-.958 2.482-1.916 3.499-3.036.125-.14-4.369-7.95-8.325-14.167a92.417 92.417 0 0 0-2.49-6.182Z" fill="#263238" fill-rule="evenodd" data-name="Path 684"/><path d="M-807.721 399.28c-2.07 2.21-4.207 4.42-6.359 6.534l-.582.582-.235-.825c-.848-3.02-1.621-6.049-2.343-9.091l-1.046-4.583-.958-4.597a205.75 205.75 0 0 1-1.614-9.254c-.464-3.102-.832-6.218-1.009-9.35l4.008 18.316 1.99 9.15 1.93 9.173-.818-.25c2.32-1.967 4.641-3.927 7.036-5.806Z" fill="#263238" fill-rule="evenodd" data-name="Path 685"/><path d="M-823.267 372.565c.346.655.62 1.318.9 1.982l.832 1.967c.265.663.552 1.311.832 1.974.28.663.575 1.304.825 1.997a11.854 11.854 0 0 1-2.335-3.684 13.557 13.557 0 0 1-1.054-4.236Z" fill="#263238" fill-rule="evenodd" data-name="Path 686"/><path d="M-778.428 329.833a51.143 51.143 0 0 1-1.186 5.209 25.954 25.954 0 0 1-1.6 4.538c-1.296 2.623-3.543 4.959-6.762 5.43a11.191 11.191 0 0 1-8.348-2.52c-2.475-1.937-4.317-4.553-5.99-7.08a65.011 65.011 0 0 1-2.895-4.81c-.45-.833-.906-1.658-1.319-2.513-.412-.855-.737-1.717-1.23-2.542-.037-.066-.177 0-.148.045.862 1.93 3.441 8.023 4.347 9.577 1.643 2.785 3.456 5.644 6.005 7.817a12.525 12.525 0 0 0 8.878 3.212 9.239 9.239 0 0 0 7.514-4.936 18.824 18.824 0 0 0 1.79-5.297c.428-2.019.738-4.06.988-6.1.007-.074-.037-.074-.044-.03Z" fill="#263238" fill-rule="evenodd" data-name="Path 687"/></g><g data-name="freepik--drop-of-water--inject-2"><path d="M-649.387 342.608c0 12.378-9.732 28.24-28.247 28.24-18.514 0-28.246-15.862-28.246-28.24 0-7.971 3.565-15.965 8.163-23.428.243 12.03 11.198 17.55 20.481 13.85 6.366-2.534 7.5-8.104 11.545-10.822 4.045-2.719 9.187-1.275 11.604 3.153 2.822 5.622 4.7 11.434 4.7 17.247Z" fill="#263238" fill-rule="evenodd" data-name="Path 688"/><path d="M-649.387 342.608c0 12.378-9.732 28.24-28.247 28.24-18.514 0-28.246-15.862-28.246-28.24 0-22.426 28.246-45.008 28.246-55.72v.302c.148 5.555.958 12.083-2.21 21.123-1.068 3.941-2.151 8.318-2.21 11.301 0 3.522 1.636 4.65 1.952 6.255.634 3.25-2.38 4.9-4.553 2.837-1.01-.95-1.473-3.043-1.156-5.894-2.947 9.939-1.474 18.36 6.962 22.883 14.094 7.567 28.166-6.807 24.747-20.304 2.837 5.592 4.715 11.412 4.715 17.217Z" fill="#455a64" fill-rule="evenodd" data-name="Path 689"/><path d="M-680.094 330.57a2.46 2.46 0 1 1-.015 4.921 2.46 2.46 0 0 1 .015-4.921" fill="#455a64" fill-rule="evenodd" data-name="Path 690"/><path d="M-672.38 317.894a1.06 1.06 0 1 1 0 .1z" fill="#455a64" fill-rule="evenodd" data-name="Ellipse 40"/><path d="M-668.535 308.467c3.485-.405 6.992 3.913 10.963 10.845a10.314 10.314 0 0 0-4.988-2.947c-2.541-.567-3.89 0-6.903-1.134a3.5 3.5 0 0 1 .928-6.764Z" fill="#455a64" fill-rule="evenodd" data-name="Path 691"/><path d="M-652.12 354.625s-7.53 13.814-22.257 12.65c-9.15-.737-12.738-5.209-14.521-9.18-1.54-3.426-5.298-2.652-5.298.457s4.472 6.483 4.472 6.483a12.945 12.945 0 0 1-8.104-9.408c-1.473-6.196-7.124-5.592-6.395-.184.958 7.102 8.981 16.879 25.97 16.518 19.127-.42 26.133-17.336 26.133-17.336Z" fill="#37474f" fill-rule="evenodd" data-name="Path 692"/><path d="M-692.147 350.661a2.46 2.46 0 1 1-2.461-2.46 2.453 2.453 0 0 1 2.46 2.46Z" fill="#37474f" fill-rule="evenodd" data-name="Path 693"/><path d="M-671.54 355.796c-.354.95.235.987.272 1.385.037.398 0 1.142-1.142 2.292-1.142 1.149-3.05.913-3.448 1.385-.398.471-1.068 2.49-2.019 3.168-.95.678-1.105.272-2.453.552-1.348.28-2.372 2.019-2.77 2.852-.398.832.08 2.21-.87 2.254-.95.044-1.385-2.019-2.254-3.124a7.368 7.368 0 0 1-1.422-3.404c-.28-1.311.155-4.037 0-5.105-.155-1.069-3.006-2.947-4.037-4.273-1.032-1.327-2.454-3.92-2.38-4.79a3.566 3.566 0 0 1 1.194-2.21c.471-.353.272-.552.353-.869.081-.317.472-.398.553-.788a2.402 2.402 0 0 0-.634-1.783c-.39-.2-.67.471-.906.353-.236-.117-.95-.95-1.23-1.024-.28-.073-.2.509-.59-.243-.39-.751-.597-2.652-.913-2.947-.317-.294-.553.553-1.304 0-.752-.552-1.069-1.628-1.386-1.783-.316-.154-.736.037-1.075-.596-.34-.634.28-1.783 0-1.658s-.906 1.024-1.061.155c-.155-.87.788-3.795.634-5.379a6.277 6.277 0 0 1 1.473-4.59s.155-.876.317-1.429c.162-.552 3.558-2.77 3.956-3.404a3.11 3.11 0 0 0 .28-1.127 28.093 28.093 0 0 1 13.011-5.238c-.08.39-.155.737-.228 1.15-.45.117-.737.25-.737.39s.287.132.656.154a27.715 27.715 0 0 0-.288 2.137c-.368-.214-.825-.737-1.318-.788-.494-.052-1.054.397-1.415.449-.361.052-.796-.398-1.356-.287-.56.11-.685.574-.972.736-.287.162-.98.185-1.054.612-.073.427.87.656 1.105.92.236.266-.287 1.165-.051 1.35.236.183 1.716-1.113 2.085-1.43.368-.317.685-1.687 1.473-1.658.789.03 1.061 1.37 1.32 1.474a.295.295 0 0 0 .11 0 8.32 8.32 0 0 0 .5 2.947h-.051c-.376.11-1.348-1.002-1.613-.686-.266.317.265 1.327.53 1.562.265.236 1.238.369 1.319.634.08.265-.663.84-1.555.788-.891-.051-1.635-.736-1.982-.45-.346.288-.162 1.054-.397 1.32a.928.928 0 0 1-.516.162 12.413 12.413 0 0 1 0-3.227 39.026 39.026 0 0 0-.84 3.381 1.643 1.643 0 0 0-.81.45c-.634.685-.929 1.716-1.562 2.298-.634.583-.921-.162-1.769.656-.847.818-.972 2.638-1.002 3.271-.029.634 0 1.135-.206 1.054-.206-.081-.508-.634-.582-.973-.074-.339.184-.92.184-1.134a3.735 3.735 0 0 0-1.923-1.4c-.736-.103-1.348.472-1.878.899-.53.427-1.474.339-1.82.685-.346.346-.604 3.374-.339 4.089.265.715.604.737 1.473.346.87-.39.369-1.083.87-.928.45.184.743.626.737 1.112 0 .42-1.002 1.422-.877 1.71.125.287 1.01-.052 1.43.08.42.133.633.399.5 1.474-.132 1.076-.051 1.923.582 2.284.634.361.987-.516 1.267-.398.28.118.67.737 1.061.737.39 0 .2-.39.95-.634.752-.243.48-.39.642-.869a.862.862 0 0 1 1.142-.634c.515.244.162.597.199.995.036.398.95.435 1.665.67.714.236 1.105 0 2.527.472 1.422.472 1.473 1.9 2.1 2.137.554.1 1.116.147 1.68.14.485.324 1.009.64 1.554.935.545.295 1.039.523 1.562.737.493.987.42 2.13.943 2.534.736.553 3.36 1.312 4.42 1.474 1.061.162 1.186-.516 2.019-.317.838.084 1.5.746 1.584 1.584.25 1.12-2.814 3.279-3.198 4.192Z" fill="#75c28e" fill-rule="evenodd" data-name="Path 694"/><path d="M-692.803 335.558c0 .22.685.317 1.473.736.789.42 1.083 1.769 1.474 1.74.39-.03.295-.634.45-.79a.516.516 0 0 0 0-.846c-.42-.34-.833-1.083-1.607-1.187-.773-.103-.899-.42-1.245-.397a.597.597 0 0 0-.545.744Z" fill="#21b0ee" fill-rule="evenodd" data-name="Path 695"/><path d="M-688.449 337.775c-.118.325 0 .553.84.737.84.184 1.636-.214 1.37-.383-.265-.17-.655-.096-.5-.383.154-.287.102-.737-.583-.634-.685.103-1.024.369-1.127.663Z" fill="#21b0ee" fill-rule="evenodd" data-name="Path 696"/><path d="M-685.708 338.674a.67.67 0 0 1-.081-.184c.022.044.051.103.08.184Z" fill="#21b0ee" fill-rule="evenodd" data-name="Path 697"/><path d="M-649.387 342.454V344.413a28.107 28.107 0 0 1-5.157 14.367l-.199.287c2.69-4.11 3.213-9.577 3.286-10.425.074-.847-.339-.898.081-2.453a4.516 4.516 0 0 0-.737-3.558c-.316-.347-1.002-.236-1.554.103-.553.339-.162.611-.53.736-.369.126-.737-.073-1.076-.051-.34.022-.663.899-1.4.87-.737-.03-1.216-1.084-1.768-1.835a2.555 2.555 0 0 0-.184-.214 18.588 18.588 0 0 0 5.002-14.735c1.35 2.16 2.4 4.491 3.124 6.933v.074a28.32 28.32 0 0 1 1.112 7.942Z" fill="#75c28e" fill-rule="evenodd" data-name="Path 698"/><path d="M-703.493 337.422c1.053-13.122 19.892-36.212 19.892-36.212s-10.978 15.472-12.215 25.647c-.634 5.282.044 8.951-.818 13.062-1.046 5.025-7.545 5.997-6.86-2.497Z" fill="#fff" fill-rule="evenodd" data-name="Path 699"/><path d="M-687.322 368.004c1.06.297 2.138.523 3.227.678a35.9 35.9 0 0 0 3.271.332 31.45 31.45 0 0 0 6.557-.332 26.263 26.263 0 0 0 3.198-.685 23.782 23.782 0 0 0 3.08-1.068 24.136 24.136 0 0 0 5.591-3.301 27.327 27.327 0 0 0 4.56-4.62 33.891 33.891 0 0 0 3.471-5.48 36.726 36.726 0 0 0 2.417-6.05c.316-1.046.596-2.107.817-3.175.242-1.072.421-2.157.538-3.25h.103a26.686 26.686 0 0 1-.736 6.632 30.666 30.666 0 0 1-.921 3.212 36.713 36.713 0 0 1-1.275 3.109 28.545 28.545 0 0 1-1.62 2.947 29.814 29.814 0 0 1-1.975 2.726c-.177.214-.369.427-.553.634l-.272.324-.288.302-.582.611-.604.582c-.39.398-.825.737-1.245 1.128-.206.184-.435.353-.648.53-.214.177-.428.361-.664.516a24.483 24.483 0 0 1-5.842 3.27c-1.036.416-2.1.758-3.183 1.025a25.996 25.996 0 0 1-3.278.626c-2.2.27-4.422.312-6.631.125a33.775 33.775 0 0 1-3.293-.442 26.607 26.607 0 0 1-3.264-.766l.044-.14Z" fill="#fff" fill-rule="evenodd" data-name="Path 700"/></g><g data-name="freepik--Birds--inject-2"><path d="M-741.149 222.673a17.328 17.328 0 0 1 2.152-.92 9.275 9.275 0 0 1 2.35-.539c.248-.022.499.006.737.081.08.024.157.058.228.103l.14.104c.096.066.17.14.258.206.31.28.582.567.855.862.53.597.994 1.215 1.473 1.856l-.582-.206c.788-.225 1.59-.395 2.402-.508a9.827 9.827 0 0 1 1.252-.089c.222.003.444.02.663.052.123.016.245.046.361.088.125.048.245.104.361.17.361.25.68.556.943.906.258.324.487.663.737 1.002.43.681.804 1.396 1.12 2.137-.516-.612-1.017-1.238-1.54-1.82-.265-.295-.53-.582-.81-.84a3.837 3.837 0 0 0-.84-.656 2.284 2.284 0 0 0-.943-.096c-.376.031-.75.083-1.12.155-.737.14-1.518.324-2.262.523l-.368.103-.214-.309a33.346 33.346 0 0 0-1.37-1.812 10.03 10.03 0 0 0-.737-.84c-.059-.052-.125-.126-.184-.17l-.081-.073a1.127 1.127 0 0 0-.413-.081c-.742-.003-1.482.069-2.21.213-.84.103-1.62.258-2.358.398Z" fill="#263238" fill-rule="evenodd" data-name="Path 701"/><path d="M-732.683 245.571a25.785 25.785 0 0 1 2.895-1.982 13.52 13.52 0 0 1 3.293-1.473c.357-.1.73-.132 1.098-.096.124.014.245.044.361.088l.243.111c.162.074.287.155.427.228.52.316 1.025.658 1.51 1.024.951.737 1.828 1.474 2.705 2.292l-.921-.133a26.809 26.809 0 0 1 3.381-1.473 15.185 15.185 0 0 1 1.813-.494c.328-.066.66-.108.994-.125.184-.01.369-.01.553 0 .195.035.387.084.575.147a6.285 6.285 0 0 1 1.657 1.061c.468.395.913.816 1.334 1.26.827.88 1.583 1.823 2.262 2.822-.936-.737-1.842-1.525-2.793-2.21-.471-.354-.943-.737-1.429-1.003a5.666 5.666 0 0 0-1.437-.736 3.279 3.279 0 0 0-1.407.132 13.71 13.71 0 0 0-1.599.553c-1.068.42-2.144.92-3.168 1.43l-.515.257-.406-.39c-.81-.781-1.68-1.54-2.534-2.27-.417-.36-.852-.7-1.304-1.016-.11-.067-.221-.148-.324-.2l-.148-.08h-.058a1.731 1.731 0 0 0-.627 0c-1.094.22-2.165.546-3.197.972-1.076.42-2.122.84-3.234 1.304Z" fill="#263238" fill-rule="evenodd" data-name="Path 702"/><path d="M-868.208 306.066a18.417 18.417 0 0 1 1.981-1.26 8.841 8.841 0 0 1 2.21-.921c.242-.055.492-.068.737-.037.081.014.16.036.236.066l.162.081c.103.052.184.11.28.162.343.227.673.473.987.737.62.501 1.18 1.032 1.754 1.584l-.612-.103c.74-.35 1.503-.649 2.284-.891.4-.126.81-.225 1.223-.295.22-.035.441-.055.663-.059.123-.007.246-.007.369 0 .13.03.257.067.383.11.397.189.762.437 1.083.737.31.28.59.575.862.87a15.37 15.37 0 0 1 1.473 1.93c-.611-.523-1.2-1.054-1.82-1.54a9.363 9.363 0 0 0-.935-.737 3.927 3.927 0 0 0-.936-.508 2.136 2.136 0 0 0-.943.059c-.366.091-.728.202-1.083.331-.737.258-1.473.568-2.144.892l-.346.155-.258-.266a36.797 36.797 0 0 0-1.65-1.569c-.27-.26-.552-.506-.847-.737l-.214-.14-.096-.059a1.245 1.245 0 0 0-.42 0 11.67 11.67 0 0 0-2.151.575c-.774.287-1.496.567-2.232.833Z" fill="#263238" fill-rule="evenodd" data-name="Path 703"/><path d="M-887.4 302.957a25.87 25.87 0 0 1 2.21-2.756 13.697 13.697 0 0 1 2.703-2.387c.31-.202.655-.345 1.017-.42.125-.012.25-.012.376 0l.265.037c.17 0 .317.059.479.088a17.12 17.12 0 0 1 1.739.53c1.127.406 2.21.885 3.263 1.386l-.913.147a26.029 26.029 0 0 1 2.792-2.38c.507-.371 1.039-.709 1.592-1.009.29-.163.593-.304.906-.42a3.82 3.82 0 0 1 .538-.14c.198-.011.398-.011.596 0a6.38 6.38 0 0 1 1.894.516c.563.244 1.114.517 1.65.818a22.95 22.95 0 0 1 2.999 2.019c-1.12-.45-2.21-.907-3.33-1.297a18.13 18.13 0 0 0-1.665-.53 5.835 5.835 0 0 0-1.585-.266c-.466.09-.908.28-1.296.553-.477.306-.934.64-1.37 1.002-.892.736-1.769 1.473-2.601 2.306l-.413.398-.5-.25a48.873 48.873 0 0 0-3.103-1.415 13.74 13.74 0 0 0-1.547-.583 2.266 2.266 0 0 0-.368-.095h-.222c-.211.024-.416.089-.603.191a17.01 17.01 0 0 0-2.763 1.864c-.95.612-1.835 1.356-2.74 2.093Z" fill="#263238" fill-rule="evenodd" data-name="Path 704"/><path d="M-760.076 239.95a26.071 26.071 0 0 1 2.174-2.756 13.8 13.8 0 0 1 2.71-2.394c.311-.2.656-.34 1.018-.413.122-.011.245-.011.368 0h.265c.177 0 .324.06.48.089.59.146 1.173.323 1.745.53 1.12.405 2.21.884 3.257 1.385l-.914.148a26.098 26.098 0 0 1 2.8-2.38 14.92 14.92 0 0 1 1.584-1.017c.295-.158.6-.296.913-.412.173-.06.35-.108.53-.14.2-.019.399-.019.597 0 .655.07 1.294.243 1.894.515.575.244 1.12.523 1.65.81a23.244 23.244 0 0 1 2.999 2.027c-1.12-.45-2.21-.906-3.33-1.297-.545-.208-1.1-.385-1.665-.53a5.519 5.519 0 0 0-1.577-.266c-.47.086-.915.275-1.304.553-.475.305-.93.64-1.363 1.002-.899.737-1.776 1.474-2.6 2.306l-.42.398-.502-.25a55.648 55.648 0 0 0-3.094-1.423 15.927 15.927 0 0 0-1.547-.574 2.734 2.734 0 0 0-.369-.096h-.228c-.21.026-.415.089-.604.184-.97.51-1.89 1.11-2.748 1.79-.928.737-1.813 1.474-2.719 2.21Z" fill="#263238" fill-rule="evenodd" data-name="Path 705"/></g><g data-name="freepik--Faucet--inject-2"><path d="M-600.396 197.358c-.14 5.157-5.04 11.611-11.567 11.486-6.528-.125-10.771-5.894-12.289-6.888-.472-.295-2.365-.568-4.774-.803-2.41-.236-5.342-.34-7.81-.376h-.265c-2.468 0-5.37.132-7.802.376-2.431.243-4.31.508-4.782.803-1.517.972-5.761 6.756-12.289 6.888-6.527.133-11.427-6.329-11.567-11.486-.14-5.157 3.684-11.648 9.18-12.237 5.496-.59 10.381 4.074 13.173 5.673.9.516 2.91.796 5.364.92 1.938.104 5.828.155 9.07.178 3.241.022 6.792-.081 8.641-.177 2.454-.125 4.465-.405 5.364-.921 2.792-1.599 7.655-6.263 13.173-5.673 5.518.59 9.313 7.073 9.18 12.237Z" fill="#455a64" fill-rule="evenodd" data-name="Path 706"/><path d="M-627.332 191.67v9.667a60.162 60.162 0 0 0-1.694-.184c-2.439-.244-5.342-.34-7.81-.376h-.265c-2.468 0-5.37.132-7.802.376a63.98 63.98 0 0 0-1.702.184v-9.666l.78.044c1.939.103 5.829.154 9.07.177 3.242.022 6.793-.081 8.642-.177l.781-.044Z" fill="#37474f" fill-rule="evenodd" data-name="Path 707"/><path d="M-644.048 189.188h14.152v24.556h-14.152v-24.556z" fill="#455a64" fill-rule="evenodd" data-name="Rectangle 62"/><path d="M-582.537 222.172v31.629s-77.3.257-78.538 1.083l-.353.258c-3.426 1.517-4.045 13.814-3.979 17.402h-27.93c.133-6.337.737-28.38 2.6-32.233 1.415-2.947 7.692-9.077 13.638-13.18a37.324 37.324 0 0 1 1.834-1.209c.492-.314.983-.609 1.474-.884a13.998 13.998 0 0 1 5.349-1.96c1.503-.11 74.802-.87 85.905-.906Z" fill="#455a64" fill-rule="evenodd" data-name="Path 708"/><path d="M-690.987 259.466a74.187 74.187 0 0 1 .737-11.913c.27-2 .72-3.973 1.34-5.894l.266-.737c.052-.118.081-.236.14-.368.059-.133.14-.28.214-.398.278-.453.59-.884.935-1.29a27.02 27.02 0 0 1 2.07-2.21 80.814 80.814 0 0 1 9.18-7.72c.811-.583 1.636-1.15 2.483-1.688a15.862 15.862 0 0 1 2.675-1.436c.132-.045.287-.082.412-.111l.376-.066c.243-.045.494-.074.737-.11.493-.067.994-.119 1.473-.156.996-.07 1.996-.07 2.992 0-.988.133-1.96.317-2.947.53-.48.104-.958.215-1.43.34l-.736.191-.354.096-.295.11c-.853.438-1.666.948-2.431 1.526a59.451 59.451 0 0 0-2.343 1.783 123.265 123.265 0 0 0-4.538 3.78 93.018 93.018 0 0 0-4.34 3.985 35.652 35.652 0 0 0-1.996 2.107 9.615 9.615 0 0 0-.818 1.098c-.205.402-.387.815-.545 1.238a39.315 39.315 0 0 0-1.525 5.628c-.67 3.824-1.216 7.744-1.732 11.685Z" fill="#fff" fill-rule="evenodd" data-name="Path 709"/><path d="M-678.197 234.815a33.153 33.153 0 0 1 4.671-4.251 30.317 30.317 0 0 1 2.623-1.776 9.004 9.004 0 0 1 2.947-1.252c-.471.224-.918.495-1.334.81-.427.295-.847.611-1.267.92l-2.497 1.887c-1.702 1.245-3.36 2.512-5.143 3.662Z" fill="#fff" fill-rule="evenodd" data-name="Path 710"/><path d="M-652.352 219.748h30.767v37.972h-30.767v-37.972z" fill="#37474f" fill-rule="evenodd" data-name="Rectangle 63"/><path d="M-696.756 267.482h34.245v13.04h-34.245v-13.04z" fill="#37474f" fill-rule="evenodd" data-name="Rectangle 64"/><path d="M-647.268 213.744h20.607v6.004h-20.607v-6.004z" fill="#37474f" fill-rule="evenodd" data-name="Rectangle 65"/><path d="M-626.669 219.748h-20.6v-2.144l20.6.715v1.43Z" fill="#263238" fill-rule="evenodd" data-name="Path 711"/></g></g></g></svg>