<svg xmlns="http://www.w3.org/2000/svg" width="380.173" height="363.3" viewBox="0 0 380.173 363.3">
  <g id="Group_8988" data-name="Group 8988" transform="translate(-24 -112.861)">
    <g id="Group_8987" data-name="Group 8987">
      <path id="Path_594" data-name="Path 594" d="M561.65,367.144c43.233-77.318-7.167-158.678-54.088-224.416C450.485,62.764,330.207,52.15,261.287,110.973c-44.626,38.089-51.049,129.652-60.771,168.3-11.4,45.3,15.977,86.97,60.771,116.175,42.554,27.745,101.074,44.087,156.549,41.1C493.5,432.467,544.453,397.9,561.65,367.144Z" transform="translate(-173.931 39.269)" fill="#1bb0dd" opacity="0.12"/>
      <g id="Switches-cuate" transform="translate(17.36 137.491)">
        <g id="freepik--background-complete--inject-11" transform="translate(66.445 20.34)">
          <path id="Path_1" data-name="Path 1" d="M58.7,391.989l8.9-.187,4.384-.073c1.459-.033,2.9,0,4.364-.04l-.3.3v-7.456l.333.333-8.881-.04c-2.945,0-5.883-.08-8.828-.113l.187-.18c0,1.219-.06,2.445-.087,3.691Zm0,0-.093-3.691c0-1.239-.073-2.5-.087-3.764v-.18h.18c2.945-.033,5.883-.107,8.828-.113l8.821-.04h.333v8.089h-.293c-1.492,0-2.978,0-4.464-.04l-4.437-.073Z" transform="translate(-48.659 -153.872)" fill="#ebebeb"/>
          <path id="Path_3" data-name="Path 3" d="M284.13,117.989l8.9-.187,4.384-.073h4.364l-.3.293-.033-7.456.333.333-8.828-.04c-2.938,0-5.876-.073-8.821-.107l.187-.187c0,1.219-.06,2.452-.087,3.691Zm0,0-.093-3.684c0-1.246-.073-2.505-.087-3.771v-.18h.18c2.945-.033,5.883-.107,8.821-.107l8.828-.047h.333v.333l-.033,7.456v.3h-.293c-1.492,0-2.978,0-4.464-.04l-4.437-.073Z" transform="translate(-123.893 -62.429)" fill="#ebebeb"/>
          <path id="Path_4" data-name="Path 4" d="M298.907,132.1l8.895-.187,4.384-.073c1.459-.033,2.9,0,4.364-.033l-.32.293v-7.455l.333.333-8.821-.04c-2.945,0-5.883-.073-8.821-.107l.18-.187c0,1.219-.06,2.452-.087,3.691Zm0,0-.1-3.684c0-1.246-.073-2.505-.087-3.771v-.18h.187c2.938-.033,5.876-.107,8.821-.107l8.821-.047h.333v.333l-.04,7.455v.3h-.293c-1.486,0-2.978,0-4.464-.04l-4.437-.073Z" transform="translate(-128.822 -67.138)" fill="#ebebeb"/>
          <rect id="Rectangle_5" data-name="Rectangle 5" width="17.643" height="7.456" transform="translate(257.072 240.062)" fill="#ebebeb"/>
          <rect id="Rectangle_6" data-name="Rectangle 6" width="17.643" height="7.456" transform="translate(27.637 16.83) rotate(180)" fill="#ebebeb"/>
          <path id="Path_5" data-name="Path 5" d="M43.907,73.982,52.8,73.8l4.384-.08h4.364l-.3.3V66.56l.333.326L52.7,66.813c-2.945,0-5.883-.08-8.795-.08l.18-.18c0,1.219-.06,2.445-.087,3.684Zm0,0-.1-3.691c0-1.246-.073-2.505-.087-3.764v-.18h.187c2.938,0,5.876-.107,8.821-.107l8.821-.04h.333v.34L61.842,74v.293H57.085l-4.437-.08Z" transform="translate(-43.72 -47.744)" fill="#ebebeb"/>
          <path id="Path_6" data-name="Path 6" d="M429.47,59.879l8.9-.187,4.384-.073c1.459,0,2.9,0,4.357-.04l-.293.3-.033-7.456.326.333-8.821-.06c-2.938,0-5.876-.073-8.821-.107l.187-.18c0,1.219-.06,2.445-.087,3.684Zm0,0-.093-3.691c0-1.246-.073-2.5-.087-3.764v-.18h.18c2.945-.033,5.883-.1,8.821-.107l8.795-.047h.34v.333l-.033,7.456v.3h-4.764l-4.437-.073Z" transform="translate(-172.398 -43.035)" fill="#ebebeb"/>
          <rect id="Rectangle_7" data-name="Rectangle 7" width="17.643" height="7.456" transform="translate(60.97 169.178)" fill="#fff"/>
          <path id="Path_7" data-name="Path 7" d="M137.949,278.156l-8.9.187-4.384.073c-1.452.033-2.9,0-4.357.04l.293-.3.067,7.456-.333-.333,8.821.047c2.938,0,5.883.073,8.821.107l-.18.18c0-1.219.053-2.445.087-3.684Zm0,0,.093,3.691c0,1.246.073,2.5.087,3.764v.18h-.18c-2.938.033-5.883.1-8.821.107l-8.821.04H120v-.333l.033-7.456v-.3h.293c1.486,0,2.978,0,4.457.033l4.437.073Z" transform="translate(-69.177 -118.379)" fill="#ebebeb"/>
          <rect id="Rectangle_8" data-name="Rectangle 8" width="97.628" height="5.797" transform="translate(278.439 48.891) rotate(180)" fill="#fcfbfb"/>
          <rect id="Rectangle_9" data-name="Rectangle 9" width="5.797" height="19.175" transform="translate(265.234 48.891)" fill="#fcfbfb"/>
          <rect id="Rectangle_10" data-name="Rectangle 10" width="5.797" height="5.923" transform="translate(265.234 48.891)" fill="#dbdbdb"/>
          <rect id="Rectangle_11" data-name="Rectangle 11" width="5.797" height="19.175" transform="translate(188.227 48.891)" fill="#fcfbfb"/>
          <rect id="Rectangle_12" data-name="Rectangle 12" width="5.797" height="5.923" transform="translate(188.227 48.891)" fill="#dbdbdb"/>
          <rect id="Rectangle_13" data-name="Rectangle 13" width="36.944" height="9.301" transform="translate(253.767 6.143) rotate(90)" fill="#fff"/>
          <rect id="Rectangle_14" data-name="Rectangle 14" width="4.058" height="9.301" transform="translate(253.767 4.171) rotate(90)" fill="#dbdbdb"/>
          <rect id="Rectangle_15" data-name="Rectangle 15" width="1.506" height="9.301" transform="translate(253.767 13.432) rotate(90)" fill="#dbdbdb"/>
          <rect id="Rectangle_16" data-name="Rectangle 16" width="4.058" height="10.46" transform="translate(253.767 34.186) rotate(90)" fill="#dbdbdb"/>
          <rect id="Rectangle_17" data-name="Rectangle 17" width="43.094" height="6.503" transform="translate(244.46) rotate(90)" fill="#dbdbdb"/>
          <rect id="Rectangle_18" data-name="Rectangle 18" width="16.577" height="3.904" transform="translate(243.187 4.044) rotate(90)" fill="#ebebeb"/>
          <rect id="Rectangle_19" data-name="Rectangle 19" width="43.094" height="6.503" transform="matrix(-0.711, 0.703, -0.703, -0.711, 226.936, 12.816)" fill="#fff"/>
          <rect id="Rectangle_20" data-name="Rectangle 20" width="16.577" height="3.904" transform="matrix(-0.711, 0.703, -0.703, -0.711, 214.337, 23.41)" fill="#dbdbdb"/>
          <rect id="Rectangle_21" data-name="Rectangle 21" width="32.734" height="11.04" transform="translate(237.97 10.36) rotate(90)" fill="#fff"/>
          <rect id="Rectangle_22" data-name="Rectangle 22" width="3.051" height="11.04" transform="translate(237.97 36.578) rotate(90)" fill="#c7c7c7"/>
          <rect id="Rectangle_23" data-name="Rectangle 23" width="1.186" height="11.04" transform="translate(237.964 33.393) rotate(90)" fill="#c7c7c7"/>
          <rect id="Rectangle_24" data-name="Rectangle 24" width="30.762" height="7.629" transform="translate(261.389 12.339) rotate(90)" fill="#dbdbdb"/>
          <rect id="Rectangle_25" data-name="Rectangle 25" width="2.865" height="7.629" transform="translate(261.389 36.971) rotate(90)" fill="#c7c7c7"/>
          <rect id="Rectangle_26" data-name="Rectangle 26" width="2.865" height="7.629" transform="translate(261.396 18.675) rotate(90)" fill="#c7c7c7"/>
          <rect id="Rectangle_27" data-name="Rectangle 27" width="1.113" height="7.629" transform="translate(261.396 23.506) rotate(90)" fill="#c7c7c7"/>
        </g>
        <g id="freepik--Plant--inject-11" transform="translate(76.129 222.543)">
          <path id="Path_8" data-name="Path 8" d="M85.011,312.753a37.669,37.669,0,0,1-.762,14.418,39.871,39.871,0,0,1-2.21,6.371c-1.143,2.637-2.347,5.213-2.058,8.1.282.183-.678.152-.709-.13-7.712-4.39-17.6-5.19-23.54-12.376a24.552,24.552,0,0,1-4.9-12.018,35.954,35.954,0,0,1,.282-14.517c1.014-3.909,3.3-7.682,6.981-9.6s8.764-1.806,12.757-.564C79.5,295.111,83.792,304.416,85.011,312.753Z" transform="translate(-43.954 -291.526)" fill="#d8f4e0"/>
          <path id="Path_9" data-name="Path 9" d="M91,372.494c-1.052-3.513-2.1-7.019-3.185-10.517-2.119-6.859-4.313-13.717-6.752-20.439q-2.18-6.059-4.618-12.01a75.083,75.083,0,0,1,.922-7.453c.648-2.987,1.585-5.876,2.454-8.8a.168.168,0,0,0-.312-.107c-1.73,4.031-3.986,9.191-4.047,13.961q-2.82-6.721-6.1-13.268a57.1,57.1,0,0,1,.335-11.05.132.132,0,0,0-.259-.053,39.4,39.4,0,0,0-.762,9.762q-2.484-4.915-5.258-9.693c-.168-.29-.564,0-.419.29,2.9,5.578,5.586,11.279,8.108,17.055a37.029,37.029,0,0,0-12.094-7c-.191-.069-.335.206-.137.29a44.032,44.032,0,0,1,13.077,8.657q2.721,6.34,5.182,12.787c-4.824-4.732-11.431-7.842-17.817-9.511-.213-.061-.274.274-.069.335,7.392,2.225,13.138,6.417,18.762,11.431q.983,2.606,1.92,5.22,3.582,9.907,6.805,19.943,1.524,4.809,3.048,9.633c1.075,3.46,1.92,7.11,3.323,10.448.137.32.709.251.64-.137A86.811,86.811,0,0,0,91,372.494Z" transform="translate(-45.989 -294.173)" fill="#263238"/>
          <path id="Path_10" data-name="Path 10" d="M83.4,310.49a19.182,19.182,0,0,0-2.774,6.92c0,.069.084.107.107,0a60.681,60.681,0,0,1,3.048-6.79C83.869,310.429,83.533,310.292,83.4,310.49Z" transform="translate(-51.187 -296.015)" fill="#263238"/>
          <path id="Path_11" data-name="Path 11" d="M64.039,330.874a20.3,20.3,0,0,0-6.92-2.324c-.069,0-.107.084,0,.107,1.113.465,2.286.762,3.406,1.219s2.233.96,3.376,1.356a.2.2,0,0,0,.137-.358Z" transform="translate(-45.577 -300.335)" fill="#263238"/>
          <path id="Path_12" data-name="Path 12" d="M60.385,305.807a14.029,14.029,0,0,0-2.225-1.379.122.122,0,0,0-.13.2,13.542,13.542,0,0,0,2.195,1.425C60.369,306.135,60.522,305.9,60.385,305.807Z" transform="translate(-45.802 -294.594)" fill="#263238"/>
          <path id="Path_13" data-name="Path 13" d="M122.531,340.6c-5.555,1.654-11.141,3.178-16.7,4.8-.48.145-9.907-17.848-6.478-27.114a30.253,30.253,0,0,1,18.884-17.916c3.963-1.349,8.84-2.484,13.031-1.524,3.727.823,6.356,3.871,7.567,7.377,1.646,4.763,1.1,10.44.2,15.3a26.73,26.73,0,0,1-5.464,12.49C130.593,337.562,126.851,339.322,122.531,340.6Z" transform="translate(-55.464 -293.183)" fill="#a4dcb6"/>
          <path id="Path_14" data-name="Path 14" d="M130.276,326.952a73.971,73.971,0,0,1-10.89,4.29,45.134,45.134,0,0,0-7.27,2.629c2.347-5.228,4.923-10.349,7.621-15.424a25,25,0,0,0,10.075-5.2.16.16,0,0,0-.206-.236,50.085,50.085,0,0,1-9.5,4.763c.762-1.364,1.478-2.728,2.24-4.092.213-.373-.312-.762-.564-.381a117.1,117.1,0,0,0-7.9,13.252,60.965,60.965,0,0,1-.572-12.147.08.08,0,0,0-.16,0,40.39,40.39,0,0,0,.137,13.344c-1.943,3.887-3.719,7.872-5.334,11.9-.633-2.423-1.456-4.809-2-7.247a33.463,33.463,0,0,1-.762-10.669.08.08,0,1,0-.16,0,37.76,37.76,0,0,0,2.332,19.631c-.93,2.423-1.814,4.862-2.622,7.308a145.478,145.478,0,0,0-7.377,38.538.237.237,0,0,0,.472.038,190.708,190.708,0,0,1,8.276-38.1c1.608-4.847,3.467-9.549,5.5-14.159,3.277-.975,6.546-2.286,9.77-3.406a30.6,30.6,0,0,0,9.008-4.412.126.126,0,1,0-.122-.221Z" transform="translate(-55.17 -296.634)" fill="#263238"/>
          <path id="Path_15" data-name="Path 15" d="M144.2,324.448c-3.4,1.212-6.615,2.9-10.014,4.123-.152.061-.061.312.1.282,3.589-.762,7.148-1.852,10.044-4.207C144.443,324.555,144.321,324.41,144.2,324.448Z" transform="translate(-63.911 -299.358)" fill="#263238"/>
          <path id="Path_16" data-name="Path 16" d="M110.568,314.769c0-.175-.221-.282-.274-.1-.937,3.132-1.577,6.455-.671,9.655a.122.122,0,0,0,.236,0C109.989,321.087,109.806,317.947,110.568,314.769Z" transform="translate(-57.981 -297.01)" fill="#263238"/>
          <path id="Path_17" data-name="Path 17" d="M128.9,305.312a8.307,8.307,0,0,0-1.471,5.334c0,.114.191.191.229.046.411-1.791,1.1-3.422,1.654-5.167a.236.236,0,0,0-.412-.213Z" transform="translate(-62.318 -294.785)" fill="#263238"/>
          <path id="Path_18" data-name="Path 18" d="M42.974,360.7c1.631,5.167,5.5,12.315,11.629,12.368,3.97.038,7.971-.434,11.957-.488,4.26-.069,8.535-.061,12.787.2.351,0-.511-12.772-10.76-19-2.865-1.745-6.378-2.286-9.64-3a44.429,44.429,0,0,0-11.385-1.189c-2.355.091-4.313.594-5.152,3C41.534,355.111,42.2,358.235,42.974,360.7Z" transform="translate(-41.994 -305.337)" fill="#a4dcb6"/>
          <path id="Path_19" data-name="Path 19" d="M48.965,354.918c2.492.64,5,1.379,7.5,2.172a25.847,25.847,0,0,0-2.065-2.019c-1.075-.892-2.286-1.6-3.406-2.385-.091-.061,0-.251.084-.2a14.068,14.068,0,0,1,6.051,4.8c3.109,1.006,6.2,2.119,9.145,3.338a34.668,34.668,0,0,1,5.876,3.094,23.96,23.96,0,0,0-2.126-3.7c-1.364-1.768-3.2-2.743-4.984-4a.16.16,0,0,1,.16-.274,14.586,14.586,0,0,1,7.994,8.672,34.1,34.1,0,0,1,5.815,5.281c6.782,7.7,12.117,17.947,12.14,28.4,0,.251-.4.32-.45.061A57.763,57.763,0,0,0,77.74,370.388a21.846,21.846,0,0,0-1.524-1.623,45.949,45.949,0,0,0-5.609-.419c-2.18,0-4.344.32-6.516.5-3.574.3-7.537.335-10.76-1.463-.145-.084-.046-.328.114-.267,7.194,2.614,14.738-.709,21.948.854a33.639,33.639,0,0,0-10.669-6.859l-.663-.267c-4.618.556-9.5,1.76-13.992.259a.114.114,0,0,1,.061-.213c4.344,1.09,8.512-.282,12.8-.5-4.671-1.821-9.427-3.262-14.113-5.068C48.545,355.162,48.538,354.811,48.965,354.918Z" transform="translate(-43.572 -306.028)" fill="#263238"/>
          <path id="Path_20" data-name="Path 20" d="M46.356,361.64a60.311,60.311,0,0,0,6.721.511.05.05,0,0,1,0,.1,13.938,13.938,0,0,1-6.782-.434C46.2,361.785,46.249,361.625,46.356,361.64Z" transform="translate(-43.006 -308.208)" fill="#263238"/>
          <path id="Path_21" data-name="Path 21" d="M66.24,355.83a10.979,10.979,0,0,1,3.33,2.286c.114.107-.038.312-.168.221-.564-.412-1.151-.762-1.73-1.174a15.393,15.393,0,0,1-1.623-1.029.2.2,0,0,1,.191-.3Z" transform="translate(-47.71 -306.826)" fill="#263238"/>
          <path id="Path_22" data-name="Path 22" d="M113.8,372.53c-.076.175.168.335.267.152h0a.275.275,0,0,0,.16.107,103.181,103.181,0,0,0,12.521,2.18c3.391.3,7.293.488,10.265-1.478,4.016-2.66,6.66-9.793,4.489-14.319-2.568-5.373-10.318-2.454-14.2-.541a28.517,28.517,0,0,0-13.5,13.9Z" transform="translate(-59.074 -306.89)" fill="#a4dcb6"/>
          <path id="Path_23" data-name="Path 23" d="M105.948,376a39.736,39.736,0,0,1,7.476-5.693,25.377,25.377,0,0,1,7.621-7.727c.145-.1.267.13.137.236a34,34,0,0,0-6.394,6.721,70.344,70.344,0,0,1,9.381-4.268,12.513,12.513,0,0,1,5.037-5.053c.046,0,.1,0,.053.069a20.8,20.8,0,0,0-4.572,4.778c1.905-.709,3.81-1.372,5.754-2.012.175-.061.244.206.076.267-3.422,1.341-6.927,2.751-10.318,4.382a39.749,39.749,0,0,0,12.5-.038.091.091,0,0,1,.046.175,24.569,24.569,0,0,1-13.26.2,63.239,63.239,0,0,0-6.287,3.521,15.8,15.8,0,0,1,5.083.419,38.78,38.78,0,0,0,8.916,1.029.1.1,0,0,1,0,.2c-5.182.892-10.082-1.463-15.241-.846a38.673,38.673,0,0,0-5.334,4.367,40.39,40.39,0,0,0-7.8,11c-2.157,4.4-3.33,9.069-5.075,13.611a.168.168,0,0,1-.32-.084C94.952,392.273,99.417,382.389,105.948,376Z" transform="translate(-54.23 -307.87)" fill="#263238"/>
          <path id="Path_24" data-name="Path 24" d="M130.367,363.931a5.844,5.844,0,0,1,1.326-1.608,5.335,5.335,0,0,1,1.524-1.143c.053,0,.084.053.053.084-.427.48-1.014.838-1.471,1.3s-.846,1.013-1.318,1.471C130.421,364.091,130.329,364.015,130.367,363.931Z" transform="translate(-63.019 -308.099)" fill="#263238"/>
          <path id="Path_25" data-name="Path 25" d="M141.55,368.128c.762-.2,1.585-.183,2.362-.343a22.02,22.02,0,0,0,2.286-.686.091.091,0,0,1,.069.168,7.621,7.621,0,0,1-4.725,1.1.122.122,0,0,1,.008-.236Z" transform="translate(-65.659 -309.507)" fill="#263238"/>
          <path id="Path_26" data-name="Path 26" d="M81.84,399.55l.678,7.727,2.309,26.078h20.423l2.888-26.078.846-7.727Z" transform="translate(-51.475 -317.228)" fill="#74472c"/>
          <path id="Path_27" data-name="Path 27" d="M81.84,399.55l.678,7.727h25.621l.846-7.727Z" transform="translate(-51.475 -317.228)" fill="#263238"/>
          <rect id="Rectangle_28" data-name="Rectangle 28" width="31.191" height="6.264" transform="translate(59.53 86.483) rotate(180)" fill="#74472c"/>
        </g>
        <g id="freepik--Table--inject-11" transform="translate(38.368 337.908)">
          <path id="Path_40" data-name="Path 40" d="M38.37,443.791l40.321-.183L119,443.54l80.642-.13,80.642.13,40.321.069,40.313.183-40.313.183-40.321.069-80.642.13L119,444.043l-40.313-.069Z" transform="translate(-38.37 -443.41)" fill="#263238"/>
        </g>
      </g>
    </g>
    <g id="Group_8881" data-name="Group 8881" transform="translate(-21 -31)">
      <g id="Group_8859" data-name="Group 8859" transform="translate(114.114 147.961)">
        <path id="Path_7828" data-name="Path 7828" d="M63.008,0A63.008,63.008,0,1,1,0,63.008,63.008,63.008,0,0,1,63.008,0Z" transform="translate(0 123.735) rotate(-79.071)" fill="#95deff"/>
      </g>
      <g id="Group_8880" data-name="Group 8880" transform="translate(118.155 149.333)">
        <g id="Group_8862" data-name="Group 8862" transform="translate(26.663 28.141)">
          <g id="Group_8860" data-name="Group 8860" transform="translate(0 45.707)">
            <path id="Path_7725" data-name="Path 7725" d="M146.314,286.675c2.006-2.591,3.873-4.647,4.948-4.954,2.965-.847,17.459,1.794,28.715-5.077,0,0-6.631-17.074-10.744-15.948s-9.964-1.839-12.867-2.831c-3.678-1.259-11.63,2.881-12.967,5.522-.775,1.538-7.467,7.133-14.84,13.017V286.68h17.754Z" transform="translate(-128.56 -243.735)" fill="#fab587"/>
            <path id="Path_7726" data-name="Path 7726" d="M200.63,252.116s5.907-2.7,6.932-3.594,4.235-6.8,5.65-9.5,5.779-1.922,4.876,2.313a30.684,30.684,0,0,1-5.132,11.407c-1.376,1.705-9.5,4.893-9.5,4.893Z" transform="translate(-160.469 -234.799)" fill="#fab587"/>
            <path id="Path_7727" data-name="Path 7727" d="M210.371,248.636c2.1-2.452,1.488-5.879,3.433-8.342a9.167,9.167,0,0,1,3.109-2.535,2.737,2.737,0,0,0-3.7,1.265c-1.41,2.7-4.62,8.6-5.65,9.5s-6.932,3.594-6.932,3.594l.3.585C204.419,252.453,208.036,251.367,210.371,248.636Z" transform="translate(-160.469 -234.801)" fill="#ddd0c9"/>
            <path id="Path_7728" data-name="Path 7728" d="M201.12,253.934s11.518-7.261,12.716-8.309,4.948-7.946,6.6-11.095,6.748-2.251,5.7,2.7a36.08,36.08,0,0,1-6,13.324c-3.226,4.023-15.163,9.93-15.163,9.93Z" transform="translate(-160.686 -232.693)" fill="#fab587"/>
            <path id="Path_7729" data-name="Path 7729" d="M214.711,247.786a17.035,17.035,0,0,0,7.267-10.521,11.984,11.984,0,0,1,2.145-4.536,3.272,3.272,0,0,0-3.193,1.817c-1.649,3.148-5.4,10.047-6.6,11.095-1.031.9-9.679,6.392-12.092,7.913C206.726,253.381,211.072,250.355,214.711,247.786Z" transform="translate(-161.182 -232.703)" fill="#ddd0c9"/>
            <path id="Path_7730" data-name="Path 7730" d="M204.86,259.064s11.518-7.261,12.716-8.309,4.948-7.946,6.6-11.095,6.748-2.251,5.7,2.7a36.082,36.082,0,0,1-6,13.324c-3.226,4.023-15.163,9.93-15.163,9.93Z" transform="translate(-162.342 -234.964)" fill="#fab587"/>
            <path id="Path_7731" data-name="Path 7731" d="M218.451,252.907a17.035,17.035,0,0,0,7.267-10.521,12.025,12.025,0,0,1,2.145-4.536,3.281,3.281,0,0,0-3.193,1.817c-1.649,3.148-5.4,10.047-6.6,11.095-1.031.9-9.685,6.392-12.092,7.913C210.466,258.508,214.812,255.482,218.451,252.907Z" transform="translate(-162.838 -234.971)" fill="#ddd0c9"/>
            <path id="Path_7732" data-name="Path 7732" d="M209.7,265.3s11.518-7.261,12.716-8.309,4.948-7.946,6.6-11.095,6.748-2.246,5.7,2.7a36.081,36.081,0,0,1-6,13.324c-3.226,4.023-15.163,9.93-15.163,9.93Z" transform="translate(-164.485 -237.728)" fill="#fab587"/>
            <path id="Path_7733" data-name="Path 7733" d="M223.291,259.147a17.035,17.035,0,0,0,7.267-10.521,12.024,12.024,0,0,1,2.145-4.536,3.281,3.281,0,0,0-3.193,1.817c-1.649,3.148-5.4,10.047-6.6,11.095-1.031.9-9.685,6.392-12.092,7.913C215.306,264.748,219.652,261.722,223.291,259.147Z" transform="translate(-164.981 -237.734)" fill="#ddd0c9"/>
            <path id="Path_7734" data-name="Path 7734" d="M154.1,274.151s2.112-6.4,10.749-7.935,10.749.513,13.864,0,8.147-3.02,12.092-4.4c4.5-1.571,8.2,1.482,8.192,4.107-.006,1.064-5.918,1.3-7.712,3.277s-6.637,4.207-7.551,7.027-6.275,6.258-7.941,5.745" transform="translate(-139.868 -245.398)" fill="#fab587"/>
            <path id="Path_7735" data-name="Path 7735" d="M178.163,267.069c2.859.228,5.879,1.22,8.721.557a46.415,46.415,0,0,0,9.245-3.6c1.722-.819,4.04-2.012,5.99-1.248a13.358,13.358,0,0,1,4.168,2.424c-.162-2.58-3.784-5.455-8.175-3.923-3.945,1.376-8.983,3.884-12.092,4.4-2.452.407-4.28-.78-9.161-.557-1.321.061-5.065,1.644-6.319,3.65C172.908,266.729,175.633,266.863,178.163,267.069Z" transform="translate(-147.147 -245.16)" fill="#ddd0c9"/>
          </g>
          <g id="Group_8861" data-name="Group 8861" transform="translate(19.501)">
            <path id="Path_7736" data-name="Path 7736" d="M239.179,150.67c-3.316,2.875-6.252,5.155-7.411,5.333-3.048.468-17.091-3.984-29.127,1.415,0,0,4.425,17.776,8.643,17.174s9.652,3.082,12.41,4.436c3.488,1.711,11.9-1.388,13.558-3.839.791-1.176,6.158-4.675,12.761-8.7V150.676H239.179Z" transform="translate(-180.86 -150.67)" fill="#fab587"/>
            <path id="Path_7737" data-name="Path 7737" d="M204.065,188.449s-6.2,1.928-7.333,2.692-5.06,6.213-6.8,8.71-5.974,1.181-4.547-2.909a30.679,30.679,0,0,1,6.531-10.666c1.577-1.516,10.042-3.656,10.042-3.656Z" transform="translate(-173.09 -164.816)" fill="#fab587"/>
            <path id="Path_7738" data-name="Path 7738" d="M194.763,194.782c-2.391,2.168-2.218,5.645-4.458,7.84a9.232,9.232,0,0,1-3.4,2.123,2.739,2.739,0,0,0,3.834-.791c1.744-2.5,5.673-7.946,6.8-8.71s7.333-2.692,7.333-2.692l-.223-.619C201.149,191.745,197.421,192.369,194.763,194.782Z" transform="translate(-173.891 -168.926)" fill="#ddd0c9"/>
            <path id="Path_7739" data-name="Path 7739" d="M197.883,180.482s-12.343,5.745-13.664,6.637-5.912,7.261-7.946,10.175-6.977,1.382-5.311-3.4a36.109,36.109,0,0,1,7.629-12.46c3.706-3.583,16.294-7.935,16.294-7.935Z" transform="translate(-166.685 -160.778)" fill="#fab587"/>
            <path id="Path_7740" data-name="Path 7740" d="M185.91,190.7a17.012,17.012,0,0,0-8.537,9.523,11.96,11.96,0,0,1-2.7,4.224,3.282,3.282,0,0,0,3.4-1.4c2.034-2.914,6.626-9.284,7.946-10.175,1.137-.763,10.409-5.116,13-6.325C194.536,186.157,189.844,188.6,185.91,190.7Z" transform="translate(-168.476 -166.536)" fill="#ddd0c9"/>
            <path id="Path_7741" data-name="Path 7741" d="M194.823,174.927s-12.343,5.745-13.664,6.637-5.912,7.261-7.946,10.175-6.977,1.382-5.311-3.394a36.031,36.031,0,0,1,7.634-12.46c3.706-3.583,16.294-7.935,16.294-7.935Z" transform="translate(-165.33 -158.321)" fill="#fab587"/>
            <path id="Path_7742" data-name="Path 7742" d="M182.84,185.139a17.019,17.019,0,0,0-8.537,9.518,12.036,12.036,0,0,1-2.7,4.23,3.291,3.291,0,0,0,3.4-1.4c2.034-2.914,6.62-9.284,7.946-10.175,1.137-.763,10.409-5.116,13-6.325C191.471,180.6,186.779,183.043,182.84,185.139Z" transform="translate(-167.117 -164.075)" fill="#ddd0c9"/>
            <path id="Path_7743" data-name="Path 7743" d="M190.813,168.122s-12.343,5.745-13.664,6.637-5.912,7.261-7.946,10.175-6.977,1.382-5.311-3.4a36.109,36.109,0,0,1,7.629-12.46c3.706-3.583,16.294-7.935,16.294-7.935Z" transform="translate(-163.555 -155.306)" fill="#fab587"/>
            <path id="Path_7744" data-name="Path 7744" d="M178.83,178.339a17.019,17.019,0,0,0-8.537,9.518,12.035,12.035,0,0,1-2.7,4.23,3.282,3.282,0,0,0,3.4-1.4c2.034-2.914,6.626-9.284,7.946-10.175,1.137-.763,10.409-5.116,13-6.325C187.461,173.8,182.769,176.243,178.83,178.339Z" transform="translate(-165.341 -161.064)" fill="#ddd0c9"/>
            <path id="Path_7745" data-name="Path 7745" d="M231.654,170.166s-2.9,6.08-11.669,6.514-10.6-1.867-13.753-1.75-8.465,1.967-12.555,2.836c-4.659.992-7.946-2.508-7.606-5.11.139-1.059,6.035-.541,8.063-2.274s7.116-3.332,8.375-6.018,7.016-5.416,8.6-4.7" transform="translate(-173.513 -154.602)" fill="#fab587"/>
            <path id="Path_7746" data-name="Path 7746" d="M214.1,185.63c-2.809-.591-5.678-1.95-8.582-1.649a46.707,46.707,0,0,0-9.624,2.4c-1.811.6-4.263,1.482-6.1.479a13.327,13.327,0,0,1-3.828-2.931c-.167,2.58,3.065,5.89,7.612,4.926,4.09-.869,9.4-2.719,12.555-2.836,2.48-.095,4.146,1.315,9.016,1.705,1.321.106,5.233-.992,6.732-2.825C219.271,186.627,216.59,186.148,214.1,185.63Z" transform="translate(-173.479 -165.396)" fill="#ddd0c9"/>
          </g>
        </g>
        <g id="Group_8876" data-name="Group 8876" transform="translate(51.672 48.113)">
          <g id="Group_8875" data-name="Group 8875">
            <g id="Group_8867" data-name="Group 8867">
              <g id="Group_8863" data-name="Group 8863">
                <path id="Path_7747" data-name="Path 7747" d="M202.372,200.976a14.466,14.466,0,1,0-28.932,0c0,5.182,4.246,9.925,5.422,12.232a18.553,18.553,0,0,1,1.4,6h15.285a16.94,16.94,0,0,1,.708-6C197.2,210.806,202.372,206.159,202.372,200.976Z" transform="translate(-173.44 -186.51)" fill="#ffc520"/>
                <path id="Path_7748" data-name="Path 7748" d="M200.553,189.328a4.337,4.337,0,0,0,1.521,1.282,24.013,24.013,0,0,0,3.622,1.41,11.452,11.452,0,0,1,6.124,4.157,6.75,6.75,0,0,1,1.271,3.9c-.111,1.677-.68,3.293.268,4.792a9.9,9.9,0,0,0,.858-3.845,14.459,14.459,0,0,0-13.2-14.4A2.013,2.013,0,0,0,200.553,189.328Z" transform="translate(-185.295 -186.559)" fill="#fff"/>
                <path id="Path_7749" data-name="Path 7749" d="M195.74,216.967a19.538,19.538,0,0,1-5.21.123,9.97,9.97,0,0,1-6.7-2.942,23.961,23.961,0,0,1-5.433-16.082,19.98,19.98,0,0,1,1.934-7.7,14.459,14.459,0,0,0-6.876,12.315c0,5.182,4.246,9.925,5.422,12.232a18.552,18.552,0,0,1,1.4,6h15.285A20.359,20.359,0,0,1,195.74,216.967Z" transform="translate(-173.444 -188.219)" fill="#ecddd5"/>
                <path id="Path_7750" data-name="Path 7750" d="M195.6,223.484a14.91,14.91,0,0,1-10.482-.184c-4.151-1.917-6.821-6.787-8.37-10.76a40.515,40.515,0,0,1-1.828-7.172,13.806,13.806,0,0,1-.3-3.1,14.421,14.421,0,0,0-1.165,5.689c0,5.182,4.246,9.925,5.422,12.232a18.553,18.553,0,0,1,1.4,6h15.285A19.421,19.421,0,0,1,195.6,223.484Z" transform="translate(-173.449 -193.488)" fill="#ecddd5"/>
              </g>
              <g id="Group_8864" data-name="Group 8864" transform="translate(5.851 31.518)">
                <path id="Path_7751" data-name="Path 7751" d="M201.276,244.246a1.211,1.211,0,0,1-1.248,1.176h-14.84a1.215,1.215,0,0,1-1.248-1.176h0a1.211,1.211,0,0,1,1.248-1.176h14.84a1.214,1.214,0,0,1,1.248,1.176Z" transform="translate(-183.94 -243.07)" fill="#bbbdbf"/>
                <path id="Path_7752" data-name="Path 7752" d="M201.253,243.895a1.235,1.235,0,0,0-1.187-.825h-14.84a1.247,1.247,0,0,0-1.187.825Z" transform="translate(-183.984 -243.07)" fill="#fff"/>
              </g>
              <rect id="Rectangle_2980" data-name="Rectangle 2980" width="15.096" height="5.093" transform="translate(7.2 33.87)" fill="#a6a8ab"/>
              <g id="Group_8865" data-name="Group 8865" transform="translate(5.851 34.928)">
                <path id="Path_7753" data-name="Path 7753" d="M201.276,250.366a1.211,1.211,0,0,1-1.248,1.176h-14.84a1.211,1.211,0,0,1-1.248-1.176h0a1.211,1.211,0,0,1,1.248-1.176h14.84a1.214,1.214,0,0,1,1.248,1.176Z" transform="translate(-183.94 -249.19)" fill="#bbbdbf"/>
                <path id="Path_7754" data-name="Path 7754" d="M201.253,250.015a1.235,1.235,0,0,0-1.187-.825h-14.84a1.24,1.24,0,0,0-1.187.825Z" transform="translate(-183.984 -249.19)" fill="#fff"/>
              </g>
              <g id="Group_8866" data-name="Group 8866" transform="translate(5.851 38.378)">
                <path id="Path_7755" data-name="Path 7755" d="M201.276,256.556a1.211,1.211,0,0,1-1.248,1.176h-14.84a1.215,1.215,0,0,1-1.248-1.176h0a1.211,1.211,0,0,1,1.248-1.176h14.84a1.215,1.215,0,0,1,1.248,1.176Z" transform="translate(-183.94 -255.38)" fill="#bbbdbf"/>
                <path id="Path_7756" data-name="Path 7756" d="M201.253,256.2a1.235,1.235,0,0,0-1.187-.825h-14.84a1.247,1.247,0,0,0-1.187.825Z" transform="translate(-183.984 -255.38)" fill="#fff"/>
              </g>
              <path id="Path_7757" data-name="Path 7757" d="M201.049,259.55c0,2.274-3.288,4.118-7.345,4.118s-7.345-1.844-7.345-4.118Z" transform="translate(-179.16 -218.849)" fill="#a6a8ab"/>
              <path id="Path_7758" data-name="Path 7758" d="M199.8,266.4a1.992,1.992,0,0,1-3.845,0Z" transform="translate(-183.406 -221.881)" fill="#a6a8ab"/>
            </g>
            <g id="Group_8868" data-name="Group 8868" transform="translate(2.892 7.432)">
              <path id="Path_7759" data-name="Path 7759" d="M188.638,202.068c1.939,1.844,2.168,5.338.2,6.514-.925,2.318-5.038,1.527-6.514.123-2.9-2.764-3.689-8.8-3.689-8.8S185.735,199.3,188.638,202.068Z" transform="translate(-178.63 -199.849)" fill="#8ca348"/>
              <path id="Path_7760" data-name="Path 7760" d="M189.159,201.637c-2.257-1.622-6.141-1.811-8.169-1.789,1.51.724,3.344.334,4.937.953C186.707,201.108,188.257,201.911,189.159,201.637Z" transform="translate(-179.675 -199.847)" fill="#9ead45"/>
              <path id="Path_7761" data-name="Path 7761" d="M189.22,205.34a3.543,3.543,0,0,1-.624,2.329,3.434,3.434,0,0,1-3.99.78,7.167,7.167,0,0,1-3.494-2.658c-.635-.986-.975-2.118-1.56-3.126-.2-.334-.407-.719-.652-1.075.346,1.789,1.326,5.784,3.539,7.885,1.477,1.4,5.589,2.2,6.514-.123,1.889-1.126,1.761-4.374.045-6.269C188.981,203.83,189.22,204.711,189.22,205.34Z" transform="translate(-178.75 -200.619)" fill="#808f40"/>
              <path id="Path_7762" data-name="Path 7762" d="M190.166,209.4a5.392,5.392,0,0,0-1.4-2.335,33.99,33.99,0,0,0-7.122-5.366s4.865,1.895,7.69,4.842A3.6,3.6,0,0,1,190.166,209.4Z" transform="translate(-179.963 -200.667)" fill="#67863d"/>
            </g>
            <g id="Group_8869" data-name="Group 8869" transform="translate(16.176 10.467)">
              <path id="Path_7763" data-name="Path 7763" d="M204.855,205.692c-1.962.88-3.065,3.461-1.889,4.876.084,2,3.4,2.5,4.9,1.833,2.937-1.321,5.138-5.673,5.138-5.673S207.787,204.377,204.855,205.692Z" transform="translate(-202.476 -205.293)" fill="#8ca348"/>
              <path id="Path_7764" data-name="Path 7764" d="M207.66,205.509c2.14-.63,5.132.267,6.659.83-1.337.145-2.619-.641-3.99-.6C209.655,205.765,208.267,205.955,207.66,205.509Z" transform="translate(-204.767 -205.293)" fill="#9ead45"/>
              <path id="Path_7765" data-name="Path 7765" d="M203.829,207.875a2.844,2.844,0,0,0-.15,1.928,2.761,2.761,0,0,0,2.814,1.655,5.729,5.729,0,0,0,3.349-1.081c.747-.574,1.3-1.337,2.012-1.95.24-.2.5-.435.78-.641-.741,1.265-2.547,4.018-4.781,5.021-1.493.669-4.815.167-4.9-1.833-1.131-1.36-.162-3.778,1.638-4.753C204.414,206.8,204,207.4,203.829,207.875Z" transform="translate(-202.469 -205.703)" fill="#808f40"/>
              <path id="Path_7766" data-name="Path 7766" d="M203.35,211.94a4.331,4.331,0,0,1,1.683-1.393,27.365,27.365,0,0,1,6.821-2.157,20.112,20.112,0,0,0-7.111,1.61A2.9,2.9,0,0,0,203.35,211.94Z" transform="translate(-202.859 -206.664)" fill="#67863d"/>
            </g>
            <g id="Group_8870" data-name="Group 8870" transform="translate(6.38 28.36)">
              <path id="Path_7767" data-name="Path 7767" d="M200.744,238.226c-.786-.017-1.766.652-2.591.256-.992-.479-1.5-1.209-2.658-.39-.958.68-2.051-.117-3.07.357a1.513,1.513,0,0,1-1.271.033c-1.092-.619-1.46-1.583-2.987-.763a4.442,4.442,0,0,1-1.95.741c-.8,0-.992-.2-1.326.178.15.713.256,1.382.323,1.923h15.38A19.963,19.963,0,0,1,200.744,238.226Z" transform="translate(-184.89 -237.404)" fill="#603813"/>
            </g>
            <g id="Group_8871" data-name="Group 8871" transform="translate(6.576 29.53)">
              <path id="Path_7768" data-name="Path 7768" d="M197.683,240.543c-1.41-.2.072-1.633-2.669-.763a9.244,9.244,0,0,1-1.989.546,4.687,4.687,0,0,1-2.079-.312c-1.376-.485-2.541-.061-3.845.323a5.31,5.31,0,0,1-1.861.245c.056.329.095.635.134.9h15.38c.006-.4.022-.886.056-1.4C199.94,240.109,198.319,240.633,197.683,240.543Z" transform="translate(-185.24 -239.503)" fill="#54300a"/>
            </g>
            <g id="Group_8873" data-name="Group 8873" transform="translate(11.702 13.97)">
              <g id="Group_8872" data-name="Group 8872">
                <path id="Path_7769" data-name="Path 7769" d="M197.2,227.138s.006-.262.017-.713.039-1.092.067-1.867c.011-.385.028-.8.039-1.237s.017-.9.028-1.371,0-.964-.017-1.454-.033-1-.095-1.471a13.581,13.581,0,0,0-.234-1.449c-.106-.468-.228-.936-.368-1.376s-.3-.864-.462-1.265-.334-.769-.5-1.115c-.334-.68-.641-1.243-.869-1.633s-.368-.607-.368-.607a5.214,5.214,0,0,1,.552.468c.167.156.368.357.58.6s.446.518.68.836c.117.162.234.329.357.507s.223.373.346.568a10.342,10.342,0,0,1,.641,1.293,10.785,10.785,0,0,1,.5,1.466,10.112,10.112,0,0,1,.284,1.577,12.934,12.934,0,0,1,.067,1.594c-.011.518-.05,1.025-.095,1.516s-.117.958-.184,1.4-.156.858-.24,1.237c-.167.763-.351,1.388-.49,1.822S197.2,227.138,197.2,227.138Z" transform="translate(-194.44 -211.58)" fill="#8ca348"/>
              </g>
            </g>
            <g id="Group_8874" data-name="Group 8874" transform="translate(14.194 14.968)">
              <path id="Path_7770" data-name="Path 7770" d="M199.713,219.745s-.072-.111-.173-.306c-.05-.1-.117-.217-.178-.357a2.6,2.6,0,0,1-.189-.479c-.056-.184-.106-.39-.162-.613a4.037,4.037,0,0,1-.084-.7,3.247,3.247,0,0,1,.017-.769,3.073,3.073,0,0,1,.05-.4l.106-.4a3.83,3.83,0,0,1,.323-.763,2.829,2.829,0,0,1,.234-.34,1.7,1.7,0,0,1,.256-.306c.095-.089.184-.184.279-.267s.2-.145.3-.212a3.243,3.243,0,0,1,.591-.3c.095-.033.189-.061.273-.089l.256-.05a1.911,1.911,0,0,1,.412-.033,1.556,1.556,0,0,1,.357.033s-.117.067-.3.184c-.089.061-.2.134-.312.217a3.421,3.421,0,0,0-.362.306,1.465,1.465,0,0,0-.189.184,2.168,2.168,0,0,0-.189.2l-.184.217c-.056.078-.106.162-.162.24a3.887,3.887,0,0,0-.513,1.109l-.095.306c-.028.1-.039.212-.061.318s-.045.212-.067.318-.022.212-.039.318c-.017.212-.072.418-.067.613-.011.2-.028.385-.045.563s-.022.351-.033.507-.017.29-.028.4A2.764,2.764,0,0,1,199.713,219.745Z" transform="translate(-198.912 -213.37)" fill="#8ca348"/>
            </g>
          </g>
        </g>
        <g id="Group_8879" data-name="Group 8879" transform="translate(0 0)">
          <g id="Group_8877" data-name="Group 8877" transform="translate(70.73)">
            <path id="Path_7771" data-name="Path 7771" d="M238.679,105.737l1.884-5.567-28.7,8.543,15.514,30.42,2.758-8.147c8.409,4.252,31.8,18.261,31.284,42.407-1.131,53.095-53.774,62.228-53.774,62.228s63.905,4,68.7-62.952C279.185,133.109,248.113,111.387,238.679,105.737Z" transform="translate(-207.64 -100.17)" fill="#22b0ec"/>
            <path id="Path_7772" data-name="Path 7772" d="M241.065,145.1c-3.644-1.148-7.59-1.995-10.839-4.436a30.207,30.207,0,0,1-4.347-4.269l9.579,18.779,2.758-8.147c6.8,3.438,23.4,13.262,29.222,29.673a36.226,36.226,0,0,0-6.057-16.272A38.327,38.327,0,0,0,241.065,145.1Z" transform="translate(-215.716 -116.211)" fill="#12729a"/>
            <path id="Path_7773" data-name="Path 7773" d="M242.942,105.737l1.883-5.567-27.556,8.2a76.614,76.614,0,0,1,8.1,2.485c4.514,1.388,8.916.507,13.463,1.148,6.943.981,11.658,6.085,16.194,12.181,9.668,12.978,17.988,27.573,18.8,45.666.814,18.033-6.024,33.7-15.709,46.887a91.3,91.3,0,0,1-8.42,9.886c14.789-8.264,28.765-24.012,30.911-53.964C283.449,133.109,252.377,111.387,242.942,105.737Z" transform="translate(-211.904 -100.17)" fill="#1989b8"/>
          </g>
          <g id="Group_8878" data-name="Group 8878" transform="translate(0 9.428)">
            <path id="Path_7774" data-name="Path 7774" d="M118.565,247.023l-1.883,5.567,28.7-8.543-15.514-30.42-2.758,8.147c-8.409-4.252-31.8-18.261-31.284-42.407,1.131-53.095,53.774-62.233,53.774-62.233s-63.911-4-68.709,62.958C78.059,219.651,109.131,241.372,118.565,247.023Z" transform="translate(-80.713 -117.088)" fill="#22b0ec"/>
            <path id="Path_7775" data-name="Path 7775" d="M137.895,283.292c3.644,1.148,7.59,1.995,10.838,4.436A29.915,29.915,0,0,1,153.08,292L143.5,273.216l-2.758,8.147c-6.8-3.438-23.4-13.268-29.222-29.673a36.226,36.226,0,0,0,6.057,16.272A38.307,38.307,0,0,0,137.895,283.292Z" transform="translate(-94.353 -176.684)" fill="#12729a"/>
            <path id="Path_7776" data-name="Path 7776" d="M118.565,254.209l-1.883,5.567,27.556-8.2a75.324,75.324,0,0,1-8.1-2.485c-4.514-1.388-8.916-.507-13.463-1.148-6.943-.981-11.658-6.091-16.194-12.181-9.668-12.978-17.988-27.573-18.807-45.666-.814-18.033,6.024-33.7,15.709-46.887a91.289,91.289,0,0,1,8.42-9.886c-14.789,8.264-28.765,24.012-30.911,53.958C78.059,226.837,109.131,248.559,118.565,254.209Z" transform="translate(-80.713 -124.275)" fill="#1989b8"/>
          </g>
        </g>
      </g>
    </g>
    <g id="XMLID_818_" transform="translate(179.498 193.425)">
      <g id="XMLID_1976_">
        <g id="XMLID_2276_" transform="translate(58.05 5.329)">
          <g id="XMLID_2283_">
            <path id="XMLID_2294_" d="M392.473,353.935c-7.567-6.216-15.009-6.655-10.867-20.976l-13.688-1.879c-1.381,10.762-.713,11.579-5.658,15.218-1.087.8-7.881,3.943-7.881,3.943C364.04,359.991,382.987,360.684,392.473,353.935Z" transform="translate(-354.38 -302.094)" fill="#fd9883"/>
            <path id="XMLID_2293_" d="M394.569,336.716a18.879,18.879,0,0,0-.648,7.347c-4.875-4.018-12.083-2.173-12.871-8.554C387.111,338.984,392.276,338.331,394.569,336.716Z" transform="translate(-367.756 -304.316)" fill="#ee7952"/>
            <path id="XMLID_2291_" d="M372.077,282.735c-4.4,21.135,13.07,34.519,20.916,17.9C407.154,270.642,375.656,265.533,372.077,282.735Z" transform="translate(-362.905 -272.931)" fill="#ffc08d"/>
            <path id="XMLID_2290_" d="M382.6,307.752c-.723-.055-1.077-2.856.683-2.717C384.223,305.11,383.789,307.846,382.6,307.752Z" transform="translate(-368.237 -289.029)" fill="#382823"/>
            <path id="XMLID_2289_" d="M406.813,309.652c-.723-.055-1.077-2.856.683-2.717C408.433,307.01,408,309.746,406.813,309.652Z" transform="translate(-380.379 -289.982)" fill="#382823"/>
            <path id="XMLID_2288_" d="M381.985,298.065c1.161.164,1.032,1.092.16,1.251-1.171.214-1.381-.224-3.913.439C375.43,300.487,378.884,297.631,381.985,298.065Z" transform="translate(-365.824 -285.514)"/>
            <path id="XMLID_2287_" d="M404,300.047c-1.171-.065-1.226.872-.394,1.2,1.112.439,1.57.11,3.753,1.186C409.948,303.706,407.147,300.221,404,300.047Z" transform="translate(-378.784 -286.529)"/>
            <path id="XMLID_2286_" d="M394.378,327.46a.18.18,0,0,1,.169.264c-3.808,6.4-8.2-.469-7.4-.683C388.825,326.593,390.749,327.7,394.378,327.46Z" transform="translate(-370.765 -300.015)" fill="#fff"/>
            <g id="XMLID_2284_" transform="translate(18.848 17.083)">
              <path id="Path_7777" data-name="Path 7777" d="M394.07,313.127a.242.242,0,0,1-.06-.005c-.339-.07-.618-.11-.842-.135-.439-.055-.728-.095-.887-.349-.189-.3-.065-.688.279-1.725.244-.738.608-1.854,1.052-3.494a.3.3,0,0,1,.364-.209.3.3,0,0,1,.209.364c-.444,1.66-.812,2.781-1.057,3.529a5.157,5.157,0,0,0-.334,1.236c.03.01.259.04.459.065.234.03.523.07.887.145a.3.3,0,0,1,.229.349A.31.31,0,0,1,394.07,313.127Z" transform="translate(-392.192 -307.201)" fill="#eb7957"/>
            </g>
          </g>
          <g id="XMLID_2281_" transform="translate(31.051 18.202)">
            <path id="XMLID_2282_" d="M419.383,309.538c-2.044-.778-2.522,3.589-2.7,5.767C416.342,319.587,422.6,310.764,419.383,309.538Z" transform="translate(-416.672 -309.446)" fill="#fd9883"/>
          </g>
          <g id="XMLID_2279_" transform="translate(6.593 16.008)">
            <path id="XMLID_2280_" d="M368.8,305.078c2.138-.449,1.929,3.943,1.765,6.116C370.235,315.481,365.43,305.786,368.8,305.078Z" transform="translate(-367.607 -305.046)" fill="#fd9883"/>
          </g>
          <g id="XMLID_2278_" transform="translate(31.941 19.795)">
            <path id="Path_7778" data-name="Path 7778" d="M418.753,316.006a.287.287,0,0,1-.209-.09.3.3,0,0,1,0-.419,2.975,2.975,0,0,0,.962-2.029.391.391,0,0,0-.065-.239.312.312,0,0,1-.384-.194.285.285,0,0,1,.184-.364.6.6,0,0,1,.718.274c.349.588.025,1.954-1,2.976A.312.312,0,0,1,418.753,316.006Z" transform="translate(-418.457 -312.642)" fill="#ee7952"/>
          </g>
          <g id="XMLID_2277_" transform="translate(7.415 17.889)">
            <path id="Path_7779" data-name="Path 7779" d="M370.28,312.258a.3.3,0,0,1-.239-.12c-.857-1.166-.972-2.562-.538-3.091a.606.606,0,0,1,.753-.164.3.3,0,0,1-.254.533.087.087,0,0,0-.035-.01.48.48,0,0,0-.095.224,2.97,2.97,0,0,0,.643,2.153.291.291,0,0,1-.065.414A.271.271,0,0,1,370.28,312.258Z" transform="translate(-369.256 -308.818)" fill="#ee7952"/>
          </g>
        </g>
        <g id="XMLID_2269_" transform="translate(98.925 238.627)">
          <path id="XMLID_2275_" d="M445.981,755.73c-1.884,1.854-5.129,1.884-8.265.548l-1.336-14.451,9.321-.867Z" transform="translate(-436.38 -740.96)" fill="#fd9883"/>
          <g id="XMLID_2274_" transform="translate(0.266 13.085)">
            <path id="Path_7780" data-name="Path 7780" d="M453.448,776.1c2.791,2.687,3.6,4.456,4.182,6.749.429,1.69.234,3.091-1.545,3.43-3.564.678-6.939,1.1-9.316.553-1.281-.294-2.722-.673-7.323-4.646-2.687-2.313-1.76-2.034-1.844-12.576a.649.649,0,0,1,.807-.633c3.17.743,6.525-.488,7.926-1.112a.651.651,0,0,1,.887.429C448.328,772.431,447.376,770.258,453.448,776.1Z" transform="translate(-437.215 -767.512)" fill="#30323e"/>
            <path id="Path_7781" data-name="Path 7781" d="M449.025,787.07a11.975,11.975,0,0,1-2.622-.254c-1.266-.289-2.707-.618-7.452-4.711-2.108-1.819-2.1-2.183-2-6.655.035-1.465.08-3.474.055-6.141a.935.935,0,0,1,.354-.743.961.961,0,0,1,.817-.185c3.115.728,6.45-.523,7.741-1.092a.946.946,0,0,1,1.3.618q.127.486.224.867c.5,1.934.5,1.934,2.108,3.33.793.688,1.994,1.73,3.808,3.474,2.8,2.7,3.659,4.5,4.267,6.889a3.527,3.527,0,0,1-.154,2.806,2.332,2.332,0,0,1-1.625.987A38.108,38.108,0,0,1,449.025,787.07ZM437.954,768.95a.344.344,0,0,0-.224.08.348.348,0,0,0-.13.274c.02,2.677-.025,4.691-.055,6.161-.1,4.387-.1,4.556,1.794,6.191,4.636,3.993,6,4.307,7.2,4.581,2.522.573,6.236,0,9.192-.558a1.761,1.761,0,0,0,1.236-.723,3.054,3.054,0,0,0,.08-2.343c-.578-2.283-1.406-4.013-4.1-6.6-1.8-1.735-3-2.772-3.783-3.454-1.715-1.49-1.76-1.555-2.3-3.629-.065-.254-.14-.538-.224-.862a.349.349,0,0,0-.189-.229.344.344,0,0,0-.289-.005c-1.346.593-4.825,1.894-8.115,1.127C438.014,768.955,437.984,768.95,437.954,768.95Z" transform="translate(-436.914 -767.211)" fill="#5c5f70"/>
          </g>
          <g id="XMLID_2273_" transform="translate(1.645 25.282)">
            <path id="Path_7782" data-name="Path 7782" d="M450.337,798.713a9.26,9.26,0,0,1-4.9-1.251,25.36,25.36,0,0,1-3.873-3.021c-.469-.419-.987-.882-1.615-1.426a.76.76,0,1,1,.992-1.152c.638.548,1.161,1.017,1.635,1.446a23.556,23.556,0,0,0,3.669,2.866,8.224,8.224,0,0,0,4.935.987l.169-.01c1.63-.12,5.02-.374,6.161-1.2a.76.76,0,1,1,.892,1.231c-1.376,1-4.307,1.291-6.939,1.49l-.169.015C450.97,798.7,450.651,798.713,450.337,798.713Z" transform="translate(-439.68 -791.68)" fill="#fff"/>
          </g>
          <g id="XMLID_2272_" transform="translate(9.9 23.64)">
            <path id="Path_7783" data-name="Path 7783" d="M456.544,790.825a.3.3,0,0,1,0-.608c1.51,0,4.267-.723,4.84-1.685a.307.307,0,0,1,.419-.1.3.3,0,0,1,.1.414c-.778,1.3-3.9,1.979-5.364,1.984Z" transform="translate(-456.24 -788.385)" fill="#fff"/>
          </g>
          <g id="XMLID_2271_" transform="translate(5.741 20.19)">
            <path id="Path_7784" data-name="Path 7784" d="M448.97,784.3c-.284,0-.548-.01-.8-.035a.307.307,0,0,1-.274-.334.3.3,0,0,1,.334-.274c2.308.229,5.8-.663,6.585-2.039a.3.3,0,1,1,.528.3C454.449,783.491,451.253,784.3,448.97,784.3Z" transform="translate(-447.898 -781.464)" fill="#fff"/>
          </g>
          <g id="XMLID_2270_" transform="translate(3.853 17.142)">
            <path id="Path_7785" data-name="Path 7785" d="M445.066,777.563c-.334,0-.573-.01-.668-.015a.3.3,0,0,1,.03-.608c1.765.085,5.069-.135,6.291-1.49a.3.3,0,0,1,.429-.02.306.306,0,0,1,.025.429C449.8,777.383,446.522,777.563,445.066,777.563Z" transform="translate(-444.109 -775.349)" fill="#fff"/>
          </g>
        </g>
        <g id="XMLID_2082_" transform="translate(42.303 238.403)">
          <path id="XMLID_2268_" d="M342.262,755.245c2.039,1.68,5.274,1.426,8.285-.179l.055-14.51-9.361-.045Z" transform="translate(-332.043 -740.51)" fill="#fd9883"/>
          <g id="XMLID_2267_" transform="translate(0 13.059)">
            <path id="Path_7786" data-name="Path 7786" d="M327.045,776.163c-2.542,2.921-3.2,4.755-3.574,7.088-.279,1.72.04,3.1,1.844,3.28,3.609.359,7.009.479,9.326-.269,1.251-.4,2.652-.912,6.884-5.274,2.472-2.542,1.575-2.178.723-12.691a.652.652,0,0,0-.857-.563c-3.1,1.017-6.545.09-8-.409a.645.645,0,0,0-.842.5C331.82,772.06,332.573,769.812,327.045,776.163Z" transform="translate(-323.087 -767)" fill="#30323e"/>
            <path id="Path_7787" data-name="Path 7787" d="M329.8,786.817c-1.63,0-3.315-.135-4.815-.284a2.334,2.334,0,0,1-1.7-.838,3.548,3.548,0,0,1-.4-2.781c.394-2.433,1.092-4.307,3.644-7.238,1.65-1.9,2.757-3.041,3.484-3.8,1.48-1.535,1.48-1.535,1.809-3.5.045-.259.09-.548.15-.882a.96.96,0,0,1,.449-.653.938.938,0,0,1,.783-.08c1.336.454,4.77,1.406,7.806.4a.948.948,0,0,1,1.246.818c.214,2.662.439,4.656.6,6.111.493,4.446.533,4.81-1.406,6.8-4.367,4.5-5.767,4.95-7.008,5.349A15.4,15.4,0,0,1,329.8,786.817Zm-3.056-10.946.224.194c-2.457,2.821-3.125,4.621-3.5,6.944a3.06,3.06,0,0,0,.284,2.323,1.741,1.741,0,0,0,1.3.613c3,.3,6.744.538,9.207-.259,1.171-.379,2.5-.807,6.764-5.2,1.745-1.8,1.73-1.969,1.241-6.326-.164-1.461-.384-3.459-.6-6.131a.34.34,0,0,0-.155-.264.369.369,0,0,0-.314-.04c-3.205,1.052-6.789.065-8.185-.409a.348.348,0,0,0-.289.03.36.36,0,0,0-.169.244c-.06.329-.1.618-.15.877-.354,2.113-.389,2.183-1.969,3.818-.728.753-1.819,1.889-3.464,3.773Z" transform="translate(-322.789 -766.708)" fill="#5c5f70"/>
          </g>
          <g id="XMLID_2266_" transform="translate(0.538 24.579)">
            <path id="Path_7788" data-name="Path 7788" d="M330.11,797.755c-2.3,0-4.626-.135-5.872-.882a.759.759,0,0,1,.783-1.3c1.211.728,4.611.678,6.241.653h.169a8.235,8.235,0,0,0,4.83-1.416,24.054,24.054,0,0,0,3.4-3.18c.434-.464.917-.977,1.5-1.58a.758.758,0,0,1,1.087,1.057c-.578.593-1.052,1.1-1.48,1.56a25.593,25.593,0,0,1-3.594,3.355,9.739,9.739,0,0,1-5.727,1.725h-.169C330.9,797.75,330.5,797.755,330.11,797.755Z" transform="translate(-323.869 -789.818)" fill="#fff"/>
          </g>
          <g id="XMLID_2234_" transform="translate(5.041 24.072)">
            <path id="Path_7789" data-name="Path 7789" d="M337.9,790.81c-1.59,0-4.157-.444-4.94-1.525a.3.3,0,1,1,.493-.354c.653.907,3.464,1.386,4.97,1.251a.3.3,0,1,1,.055.6C338.3,790.8,338.11,790.81,337.9,790.81Z" transform="translate(-332.902 -788.802)" fill="#fff"/>
          </g>
          <g id="XMLID_2084_" transform="translate(7.11 20.429)">
            <path id="Path_7790" data-name="Path 7790" d="M342.689,783.819c-2.143,0-4.7-.563-5.583-1.849a.3.3,0,1,1,.5-.349c.9,1.3,4.456,1.884,6.739,1.451a.3.3,0,0,1,.354.239.3.3,0,0,1-.239.354A9.131,9.131,0,0,1,342.689,783.819Z" transform="translate(-337.053 -781.493)" fill="#fff"/>
          </g>
          <g id="XMLID_2083_" transform="translate(9.07 17.2)">
            <path id="Path_7791" data-name="Path 7791" d="M345.728,776.772c-1.575,0-3.569-.224-4.646-1.231a.3.3,0,0,1,.414-.444c1.336,1.241,4.651,1.167,6.4.927a.3.3,0,1,1,.085.6A17.489,17.489,0,0,1,345.728,776.772Z" transform="translate(-340.985 -775.015)" fill="#fff"/>
          </g>
        </g>
        <g id="XMLID_2078_" transform="translate(112.454 121.94)">
          <path id="XMLID_2081_" d="M476.858,563.73c.344.668,2.418.932,3.41-3.32.209-.9.872-2.393.688-3.28C480.283,557.962,476.375,562.788,476.858,563.73Z" transform="translate(-470.19 -532.076)" fill="#ffc08d"/>
          <path id="XMLID_2080_" d="M477.121,563.638c-.364-.08-.927-.877-.09-2.393.484-.877,1.391-1.675,1.954-2.507,1.72-2.527,1.3-5.932,2.592-8.7.4.364.364.987.409,1.53.09,1.132.648,2.183.673,3.325C482.759,558.718,478.163,563.863,477.121,563.638Z" transform="translate(-470.079 -528.521)" fill="#ffc08d"/>
          <path id="XMLID_2079_" d="M467.669,521.524l-4.127-11.784a.337.337,0,0,1,.2-.429l6.784-2.423a.335.335,0,0,1,.444.244l2.692,12.262a6.059,6.059,0,0,0,.429,1.271c.04.08.075.164.11.244,6.565,14.62,3.474,16.649-.379,21.913a.657.657,0,0,1-1.027.085c-2.353-2.447,6.111-4.885.628-13.289-1.431-2.193-4.242-1.241-3.818,2.811.5,4.81-3.489.289-2.786-3,.653-3.061.548-4.082.877-5.423a7.057,7.057,0,0,0,.15-1.112A3.322,3.322,0,0,0,467.669,521.524Z" transform="translate(-463.523 -506.869)" fill="#ffc08d"/>
        </g>
        <g id="XMLID_2077_" transform="translate(93.117 51.107)">
          <path id="Path_7792" data-name="Path 7792" d="M425.616,375.736c-.444,4.865-2.771-.01,19.744,73.126a1.356,1.356,0,0,0,.977.917,10.7,10.7,0,0,0,9.88-2.318,1.359,1.359,0,0,0,.439-1.341c-12.008-51.347-9.994-57.867-13.872-68.943a20.358,20.358,0,0,0-11.789-11.714C428.119,364.516,426.135,370.049,425.616,375.736Z" transform="translate(-425.033 -365.064)" fill="#200e32"/>
          <path id="Path_7793" data-name="Path 7793" d="M448.905,450.142a12.534,12.534,0,0,1-2.946-.364,1.652,1.652,0,0,1-1.191-1.122c-20.647-67.064-20.422-68.565-19.889-72.188.05-.319.095-.653.135-1.052l.294.025-.294-.025c.349-3.823,1.535-8.8,3.738-10.239a2.243,2.243,0,0,1,2.029-.284,20.735,20.735,0,0,1,11.973,11.9c1.64,4.681,2.213,8.444,3.26,15.273,1.461,9.536,3.664,23.946,10.622,53.705a1.66,1.66,0,0,1-.538,1.635A10.92,10.92,0,0,1,448.905,450.142Zm-18.862-84.78a1.744,1.744,0,0,0-.962.309c-1.645,1.077-3.041,5.015-3.474,9.795-.04.419-.09.758-.14,1.087-.508,3.424-.738,4.99,19.869,71.924a1.065,1.065,0,0,0,.763.718,10.436,10.436,0,0,0,9.62-2.253,1.058,1.058,0,0,0,.339-1.047c-6.964-29.779-9.172-44.2-10.627-53.75-1.037-6.794-1.61-10.533-3.23-15.163a20.1,20.1,0,0,0-11.6-11.53A1.947,1.947,0,0,0,430.043,365.363Z" transform="translate(-424.729 -364.769)" fill="#5c5f70"/>
        </g>
        <g id="XMLID_2074_" transform="translate(97.967 54.588)">
          <g id="XMLID_2076_" transform="translate(0 25.004)">
            <path id="Path_7794" data-name="Path 7794" d="M452.509,477.756a.3.3,0,0,1-.284-.209c-1.316-4.282-2.009-6.5-2.707-8.708s-1.391-4.436-2.712-8.723a157.617,157.617,0,0,1-4.616-18.159,27.634,27.634,0,0,0-2.363-7.906c-.583-1.2-1.311-2.373-2.014-3.514-1.6-2.577-3.24-5.244-3.355-8.31a.3.3,0,0,1,.284-.309.286.286,0,0,1,.309.284c.11,2.911,1.645,5.393,3.265,8.02a40.651,40.651,0,0,1,2.044,3.564,27.937,27.937,0,0,1,2.413,8.05,156.6,156.6,0,0,0,4.6,18.1c1.321,4.287,2.014,6.505,2.707,8.723s1.391,4.431,2.707,8.713a.293.293,0,0,1-.194.369A.233.233,0,0,1,452.509,477.756Z" transform="translate(-434.46 -421.914)" fill="#5c5f70"/>
          </g>
          <g id="XMLID_2075_" transform="translate(3.927)">
            <path id="Path_7795" data-name="Path 7795" d="M449.124,383.047a.3.3,0,0,1-.294-.249c-.593-3.8-1.336-8.524-6.3-10.473a.3.3,0,0,1-.169-.384.3.3,0,0,1,.384-.169c5.279,2.079,6.081,7.2,6.67,10.936a.3.3,0,0,1-.249.339Z" transform="translate(-442.339 -371.753)" fill="#5c5f70"/>
          </g>
        </g>
        <g id="XMLID_2073_" transform="translate(33.914 85.851)">
          <path id="Path_7796" data-name="Path 7796" d="M329.468,454.33c-1.585,9.947-11.953,22.127-13.927,77.236-.773,21.5-.493,43.291-5.6,64.138-1.1,4.468-5.463,10.548-2.2,14.954,4.287,3.359,10.064-.778,12.721-2.918a32.645,32.645,0,0,1,33.373-4.354c10.8,4.872,10.553,6.666,22.481,2.908,10.827-3.405,22.626.575,33.791,2.452a1.454,1.454,0,0,0,1.64-1.69c-1.426-9.19-8.733-16.457-13.185-24.75-5.478-10.211-7.113-12.854-28.463-130.837-1.017-5.619-.189-10.081.269-16.1-24.176,9.76-32.59,1.394-42.534,2.918C328.88,444.482,330.545,447.587,329.468,454.33Z" transform="translate(-306.255 -434.921)" fill="#200e32"/>
          <path id="Path_7797" data-name="Path 7797" d="M311.159,611.786a6.138,6.138,0,0,1-3.893-1.342l-.055-.057c-2.477-3.343-.763-7.566.753-11.293a30.015,30.015,0,0,0,1.4-3.923c4.267-17.408,4.775-35.764,5.274-53.513.095-3.462.194-7.038.324-10.551,1.485-41.34,7.671-58.52,11.37-68.781a49.7,49.7,0,0,0,2.562-8.484l.294.052-.294-.052c.778-4.866.115-7.774-.718-11.458-.314-1.378-.638-2.8-.922-4.483l-.055-.311.3-.047c3.295-.5,6.375.052,9.944.7,7.268,1.311,16.32,2.949,32.525-3.6l.439-.176-.04.492c-.095,1.249-.209,2.431-.314,3.571-.409,4.312-.758,8.033.04,12.443,21.235,117.309,23.024,120.652,28.348,130.565l.085.155a92.761,92.761,0,0,0,5.02,7.971c3.554,5.239,7.228,10.655,8.195,16.874a1.784,1.784,0,0,1-.484,1.539,1.672,1.672,0,0,1-1.5.5c-2.413-.4-4.895-.917-7.3-1.415-8.818-1.819-17.935-3.7-26.359-1.047-10.049,3.161-11.6,2.41-18.114-.762-1.3-.632-2.776-1.353-4.571-2.161a32.532,32.532,0,0,0-33.069,4.317C316.822,610.361,313.746,611.786,311.159,611.786Zm-3.5-1.809c2.941,2.275,7.088,1.285,12.327-2.944a33.137,33.137,0,0,1,33.672-4.395c1.8.814,3.28,1.534,4.586,2.166,6.5,3.166,7.856,3.825,17.691.731,8.564-2.695,17.756-.8,26.648,1.031,2.4.492,4.875,1.005,7.278,1.41a1.1,1.1,0,0,0,.987-.332,1.166,1.166,0,0,0,.314-1.005c-.942-6.079-4.576-11.438-8.1-16.62a92.51,92.51,0,0,1-5.055-8.028l-.085-.156c-5.5-10.251-7.163-13.345-28.413-130.752-.813-4.493-.459-8.261-.05-12.619.095-.99.189-2.006.274-3.073-16.086,6.4-25.123,4.768-32.4,3.451-3.41-.617-6.365-1.15-9.456-.736.269,1.524.568,2.85.857,4.13.852,3.752,1.52,6.711.728,11.7a49.832,49.832,0,0,1-2.592,8.6c-3.684,10.23-9.855,27.348-11.335,68.589-.125,3.508-.224,7.084-.324,10.546-.493,17.786-1.007,36.173-5.289,53.648a30.542,30.542,0,0,1-1.426,4.011C306.992,603.064,305.427,606.925,307.655,609.977Z" transform="translate(-305.961 -434.47)" fill="#5c5f70"/>
        </g>
        <g id="XMLID_2300_" transform="translate(0 25.035)">
          <path id="XMLID_2306_" d="M240.293,312.741a.217.217,0,0,1,.259-.269c.862.229,1.441,1.166,1.864,2,1.122,2.208,5.359,10.468,4.691,10.568-1.979.294-2.413.942-4.78-4.945C242.107,319.54,240.662,314.127,240.293,312.741Z" transform="translate(-239.109 -312.464)" fill="#ffc08d"/>
          <path id="XMLID_2305_" d="M242.892,337.777c-1.112-1.381-7.2-6.276-4.092-9.172-1.132-1.889.439-2.418.862-1.924-.773-.832.932-3.509,3.415-.274a4.378,4.378,0,0,0,2.069,1.814c-.738-1.535-2.936-3.863-2.1-5.967a.565.565,0,0,1,.638-.359c.987.229,1.366,1.884,1.665,2.428,1.087,1.949,2.273,1.221,2.477,4.9.274,4.95-.548,6.655,9.277,25.447-.513-1.51-7.1,2.8-8.28.085C246.964,350.493,246.695,342.493,242.892,337.777Z" transform="translate(-237.924 -317.188)" fill="#ffc08d"/>
          <g id="XMLID_2304_" transform="translate(0.06 12.283)">
            <path id="Path_7798" data-name="Path 7798" d="M241.651,341.753c-.867,0-2.527-1.575-3.524-2.612a.3.3,0,0,1,.429-.409,9.475,9.475,0,0,0,3.006,2.433c-.035-.239-.309-1.117-2.3-3.574a.3.3,0,1,1,.464-.374c3.041,3.738,2.462,4.257,2.273,4.426A.555.555,0,0,1,241.651,341.753Z" transform="translate(-238.044 -337.105)" fill="#eb7957"/>
          </g>
          <g id="XMLID_2303_" transform="translate(2.06 9.692)">
            <path id="Path_7799" data-name="Path 7799" d="M244.625,337.707a1.674,1.674,0,0,1-1.092-.484.3.3,0,0,1,.424-.414c.239.249.678.369.793.269,0,0,.628-.633-2.627-4.686a.3.3,0,0,1,.045-.419.3.3,0,0,1,.419.045c2.452,3.056,3.29,4.855,2.557,5.5A.73.73,0,0,1,244.625,337.707Z" transform="translate(-242.055 -331.909)" fill="#eb7957"/>
          </g>
          <g id="XMLID_2302_" transform="translate(3.767 8.726)">
            <path id="Path_7800" data-name="Path 7800" d="M247.5,334.88a1.283,1.283,0,0,1-.9-.484.3.3,0,0,1,.429-.409c.274.284.454.319.508.3s.11-.125.11-.289c.015-.638-1.695-3.2-2.059-3.5a.3.3,0,0,1,.384-.454c.409.344,2.288,3.066,2.268,3.973a.847.847,0,0,1-.489.827A.786.786,0,0,1,247.5,334.88Z" transform="translate(-245.48 -329.97)" fill="#eb7957"/>
          </g>
          <g id="XMLID_2301_" transform="translate(4.976 6.697)">
            <path id="Path_7801" data-name="Path 7801" d="M250,331.522a.282.282,0,0,1-.09-.015.3.3,0,0,1-.194-.374c.309-.982-.254-1.9-.847-2.866a6.739,6.739,0,0,1-.952-2.009.3.3,0,0,1,.229-.354.3.3,0,0,1,.354.229,6.2,6.2,0,0,0,.877,1.819c.638,1.037,1.3,2.113.907,3.355A.3.3,0,0,1,250,331.522Z" transform="translate(-247.906 -325.899)" fill="#eb7957"/>
          </g>
        </g>
        <g id="XMLID_2299_" transform="translate(5.371 47.659)">
          <path id="Path_7802" data-name="Path 7802" d="M295.693,388.409c-19.251,11.664-28.428,17.671-33.158,13.21-2.991-2.826-11.32-31.718-13.189-38.676a1.309,1.309,0,0,1,.339-1.266,10.519,10.519,0,0,1,6.959-3.23,1.319,1.319,0,0,1,1.251.678c3.4,6.246,7.133,13.065,10.543,19.321a.975.975,0,0,0,1.331.379c12.706-7.173,21.19-13.194,27.486-16.285C310.109,356.228,324.3,371.077,295.693,388.409Z" transform="translate(-249.001 -358.148)" fill="#200e32"/>
          <path id="Path_7803" data-name="Path 7803" d="M266.131,403.082a5.685,5.685,0,0,1-4.107-1.55c-3.155-2.981-11.714-33.024-13.269-38.811a1.6,1.6,0,0,1,.414-1.55,10.764,10.764,0,0,1,7.148-3.315,1.617,1.617,0,0,1,1.535.832c1.715,3.145,3.509,6.435,5.309,9.725,1.77,3.245,3.544,6.49,5.239,9.6a.657.657,0,0,0,.4.324.673.673,0,0,0,.518-.06c6.126-3.459,11.2-6.6,15.662-9.376,4.785-2.971,8.564-5.314,11.839-6.919,5.757-2.826,12.173-1.565,14.6,2.876,2.762,5.044.04,13.872-15.876,23.513l-3.14,1.9C279.4,398.172,271.3,403.082,266.131,403.082Zm-9.7-44.638a.378.378,0,0,0-.075,0,10.231,10.231,0,0,0-6.774,3.145,1.01,1.01,0,0,0-.259.977c2.413,8.982,10.313,35.9,13.1,38.537,4.3,4.058,12.776-1.087,29.659-11.34l3.14-1.9.155.254-.155-.254c15.557-9.426,18.294-17.92,15.667-22.72-2.273-4.162-8.344-5.314-13.818-2.627-3.245,1.6-7.013,3.933-11.789,6.894-4.476,2.776-9.546,5.922-15.687,9.386a1.269,1.269,0,0,1-1.735-.493c-1.695-3.105-3.464-6.35-5.239-9.6-1.794-3.29-3.594-6.58-5.309-9.725A.992.992,0,0,0,256.436,358.444Z" transform="translate(-248.699 -357.852)" fill="#200e32"/>
        </g>
        <g id="XMLID_1975_" transform="translate(21.613 68.55)">
          <g id="XMLID_2298_" transform="translate(8.43 0.02)">
            <path id="Path_7804" data-name="Path 7804" d="M298.491,416.26a.3.3,0,0,1-.15-.553l27.68-15.866a.294.294,0,0,1,.4.11.3.3,0,0,1-.11.4l-27.68,15.866A.254.254,0,0,1,298.491,416.26Z" transform="translate(-298.194 -399.802)" fill="#5c5f70"/>
          </g>
          <g id="XMLID_2297_" transform="translate(2.242 0.807)">
            <path id="Path_7805" data-name="Path 7805" d="M286.074,409.385a.32.32,0,0,1-.12-.025.3.3,0,0,1-.15-.394,18.389,18.389,0,0,0,1.615-7.293.29.29,0,0,1,.3-.294.3.3,0,0,1,.294.3,18.945,18.945,0,0,1-1.67,7.527A.285.285,0,0,1,286.074,409.385Z" transform="translate(-285.78 -401.38)" fill="#5c5f70"/>
          </g>
          <g id="XMLID_2296_">
            <path id="Path_7806" data-name="Path 7806" d="M281.581,403.324a.3.3,0,0,1-.169-.543,10.557,10.557,0,0,0,2.816-2.886.293.293,0,0,1,.409-.085.3.3,0,0,1,.085.409,11.165,11.165,0,0,1-2.976,3.046A.248.248,0,0,1,281.581,403.324Z" transform="translate(-281.283 -399.761)" fill="#5c5f70"/>
          </g>
        </g>
        <g id="XMLID_2070_" transform="translate(51.91 46.213)">
          <path id="Path_7807" data-name="Path 7807" d="M375.187,356.168c3.11.633,7.038,1.909,13.9,4.3,3.554,20.432-3,36.942-.678,51.517-14.76,5.862-27.366,8.409-41.044,2.692,1.829-11.026-9.1-40.052-2.657-53.665,4.646-1.994,8.967-4.152,14.894-5.383C364.465,363.68,368.174,362.29,375.187,356.168Z" transform="translate(-342.359 -355.291)" fill="#200e32"/>
          <path id="Path_7808" data-name="Path 7808" d="M362.882,417.862a40.639,40.639,0,0,1-15.926-3.25l-.214-.09.04-.234c.713-4.307-.578-11.614-1.949-19.346-2.168-12.222-4.621-26.08-.683-34.4l.05-.1.1-.045q1.107-.479,2.2-.962a61.309,61.309,0,0,1,12.751-4.441l.2-.045.11.179c2.034,3.375,3.888,5.089,5.837,5.393,2.577.4,5.468-1.585,9.292-4.925l.11-.095.145.03a120.5,120.5,0,0,1,13.942,4.312l.165.06.03.169c1.954,11.25.842,21.479-.14,30.5-.812,7.447-1.575,14.481-.533,21.02l.04.234-.219.09C379.272,415.474,371.077,417.862,362.882,417.862ZM347.4,414.153c13.608,5.608,26.005,2.991,40.386-2.7-1-6.55-.239-13.543.568-20.941.972-8.938,2.079-19.061.174-30.162a121.019,121.019,0,0,0-13.558-4.2c-3.9,3.395-6.884,5.4-9.66,4.97-2.124-.334-4.028-2.029-6.141-5.493a60.985,60.985,0,0,0-12.427,4.362c-.7.309-1.4.613-2.1.917-3.793,8.16-1.366,21.853.778,33.941C346.826,402.823,348.053,409.732,347.4,414.153Z" transform="translate(-342.062 -354.95)" fill="#5c5f70"/>
        </g>
        <g id="XMLID_2069_" transform="translate(65.154 47.29)">
          <path id="Path_7809" data-name="Path 7809" d="M384.467,368.63a.286.286,0,0,1-.065,0,.5.5,0,0,1-.384-.279,11.4,11.4,0,0,0-3.763-4.471.135.135,0,0,0-.16.005,9.322,9.322,0,0,0-2.936,4.227.492.492,0,0,1-.359.324.479.479,0,0,1-.459-.135c-3.255-3.285-6.44-6.869-7.7-10.8a.3.3,0,1,1,.568-.179c1.2,3.763,4.272,7.238,7.437,10.443a9.92,9.92,0,0,1,3.066-4.342.726.726,0,0,1,.882-.035,11.946,11.946,0,0,1,3.893,4.561c2.393-2.806,5.608-6.6,6.979-10.1a.3.3,0,0,1,.553.214c-1.431,3.644-4.755,7.542-7.183,10.388A.5.5,0,0,1,384.467,368.63Z" transform="translate(-368.631 -357.111)" fill="#d0a99a"/>
        </g>
        <path id="XMLID_2063_" d="M412.08,727.608c6.54-9.187,8.579-24.814,6.186-36.428-.03-.15.219-.194.289-.055,6.191,12.188,10.682,36.852,10.682,36.852C421.775,730.659,417.518,730.589,412.08,727.608Z" transform="translate(-325.268 -470.853)" fill="#5c5f70"/>
        <path id="XMLID_2062_" d="M461.791,739.9c.254-10.044-1.61-13.414-5.757-22.466-.03-.06.05-.12.095-.07,7.347,8.459,13.658,23.323,13.658,23.323A63.173,63.173,0,0,0,461.791,739.9Z" transform="translate(-347.309 -484.044)" fill="#5c5f70"/>
        <path id="XMLID_2061_" d="M371.65,733.011c-3.818-5.359-4.805-14.505-3.41-21.285.02-.09-.13-.115-.169-.035-3.614,7.113-6.231,21.853-6.231,21.853A34.551,34.551,0,0,1,371.65,733.011Z" transform="translate(-300.071 -481.186)" fill="#5c5f70"/>
        <g id="XMLID_2060_" transform="translate(120.943 221.087)">
          <path id="Path_7810" data-name="Path 7810" d="M491.194,726.4a.291.291,0,0,1-.224-.1,48.913,48.913,0,0,1-10.408-20.158.3.3,0,0,1,.578-.14,48.343,48.343,0,0,0,10.283,19.914.3.3,0,0,1-.03.419A.314.314,0,0,1,491.194,726.4Z" transform="translate(-480.552 -705.772)" fill="#5c5f70"/>
        </g>
        <g id="XMLID_2054_" transform="translate(55.127 86.944)">
          <g id="XMLID_2059_" transform="translate(32.264)">
            <path id="Path_7811" data-name="Path 7811" d="M413.54,446.346a.3.3,0,0,1-.289-.224.3.3,0,0,1,.214-.364,13.581,13.581,0,0,0,9.361-8.888.3.3,0,0,1,.568.179,14.185,14.185,0,0,1-9.78,9.281A.135.135,0,0,1,413.54,446.346Z" transform="translate(-413.242 -436.662)" fill="#5c5f70"/>
          </g>
          <g id="XMLID_2058_" transform="translate(0.697 1.233)">
            <path id="Path_7812" data-name="Path 7812" d="M359.7,449.137a.342.342,0,0,1-.12-.025,19.37,19.37,0,0,1-9.64-9.556.3.3,0,1,1,.543-.244,18.8,18.8,0,0,0,9.341,9.262.3.3,0,0,1,.15.394A.3.3,0,0,1,359.7,449.137Z" transform="translate(-349.915 -439.135)" fill="#5c5f70"/>
          </g>
          <g id="XMLID_2057_" transform="translate(0 34.725)">
            <path id="Path_7813" data-name="Path 7813" d="M364.1,524.218a.292.292,0,0,1-.13-.03,30.372,30.372,0,0,1-15.438-17.466.3.3,0,0,1,.184-.379.291.291,0,0,1,.374.184,29.78,29.78,0,0,0,15.134,17.122.294.294,0,0,1,.14.394A.286.286,0,0,1,364.1,524.218Z" transform="translate(-348.516 -506.326)" fill="#5c5f70"/>
          </g>
          <g id="XMLID_2056_" transform="translate(29.779 52.944)">
            <path id="Path_7814" data-name="Path 7814" d="M408.553,562.612a.29.29,0,0,1-.234-.115.3.3,0,0,1,.055-.414A28.406,28.406,0,0,0,419.2,543.137a.3.3,0,0,1,.588.07,29.014,29.014,0,0,1-11.051,19.346A.309.309,0,0,1,408.553,562.612Z" transform="translate(-408.257 -542.875)" fill="#5c5f70"/>
          </g>
          <g id="XMLID_2055_" transform="translate(15.11 98.312)">
            <path id="Path_7815" data-name="Path 7815" d="M390.25,661.2a.3.3,0,0,1-.219-.095,42.64,42.64,0,0,1-11.2-26.907.3.3,0,0,1,.284-.309.29.29,0,0,1,.309.284A42.024,42.024,0,0,0,390.464,660.7a.3.3,0,0,1-.015.419A.261.261,0,0,1,390.25,661.2Z" transform="translate(-378.83 -633.889)" fill="#5c5f70"/>
          </g>
        </g>
        <path id="XMLID_2053_" d="M394.274,278.857c-6.4-4.556-20.9.095-19.141,3.345C375.95,283.717,402.115,284.44,394.274,278.857Z" transform="translate(-306.665 -269.621)" fill="#515151"/>
        <g id="XMLID_2050_" transform="translate(47.903)">
          <path id="Path_7816" data-name="Path 7816" d="M391.762,317.318c-2.7-2.612-8.374-4.935-11.719-6.036-2.343-.773,1.71-2.443-1.625-4.461-1.017-.613-3.325-1.1-3.808-4.152a5.516,5.516,0,0,1,1.6-4.686c10.762-11.026,6.774-37.575-14.58-35.2-5.742.638-7.263,3.14-9.227,7.557-1.685,3.783-5.877,11.4.618,24.884a13.637,13.637,0,0,1,1.2,3.943c.473,3.245.628,4.835-4.262,6.994a2.024,2.024,0,0,0-1.077,1.406c-.459,1.745-9.127,3.115-14.112,9.775-2.7,3.609,11.893,3.145,16.125,3.694,5.957.768,19.9,11.709,37.789,1.161C392.38,320.009,393.856,319.341,391.762,317.318Zm-28.881-14.68a5.108,5.108,0,0,1-2.089-.967c-4.6-3.539-5.827-6.66-6.341-9.685-2.946-17.431,7.268-25.487,17.058-19.146C382.575,280.012,375.233,305.19,362.881,302.638Z" transform="translate(-334.23 -262.436)" fill="#200e32"/>
          <path id="Path_7817" data-name="Path 7817" d="M372.563,326.782c-6.64,0-12.247-2.248-16.574-3.978a25.877,25.877,0,0,0-5.339-1.77c-.982-.13-2.522-.2-4.307-.284-5.064-.234-11.37-.528-12.217-2.333a1.305,1.305,0,0,1,.269-1.391c3.165-4.222,7.811-6.346,10.887-7.751,1.7-.778,3.051-1.4,3.2-1.954a2.228,2.228,0,0,1,1.191-1.54c4.825-2.133,4.6-3.689,4.147-6.784a13.35,13.35,0,0,0-1.186-3.883c-6.186-12.836-2.752-20.363-.907-24.405.1-.224.2-.439.289-.643,1.924-4.327,3.41-7.008,9.386-7.671,11.275-1.251,16.3,5.408,18.289,9.491,4.087,8.379,2.532,19.819-3.544,26.045a5.334,5.334,0,0,0-1.54,4.516,4.544,4.544,0,0,0,3.051,3.674c.244.115.479.224.668.339,2,1.211,1.515,2.358,1.161,3.2-.145.349-.274.648-.179.852a.983.983,0,0,0,.6.394c1.4.459,8.514,2.911,11.794,6.081.763.738,1.077,1.316,1.012,1.869-.115.962-1.4,1.715-3.524,2.961l-.613.359A31.04,31.04,0,0,1,372.563,326.782Zm-8.474-64.148a24.669,24.669,0,0,0-2.647.15c-5.762.638-7.2,3.245-9.067,7.442-.09.2-.189.419-.289.643-1.819,3.983-5.2,11.4.907,24.071a13.983,13.983,0,0,1,1.221,4c.5,3.434.518,5.04-4.377,7.2a1.829,1.829,0,0,0-.967,1.276c-.194.738-1.475,1.326-3.414,2.213-3.036,1.391-7.632,3.489-10.732,7.632a.956.956,0,0,0-.229.987c.748,1.585,7.447,1.9,11.879,2.109,1.794.085,3.34.155,4.337.284a25.875,25.875,0,0,1,5.438,1.795c7.4,2.961,18.573,7.442,32.226-.608l.613-.359c2.019-1.181,3.235-1.9,3.33-2.667.05-.414-.234-.9-.892-1.535-2.5-2.413-7.831-4.736-11.644-5.992a1.277,1.277,0,0,1-.842-.608,1.482,1.482,0,0,1,.174-1.171c.349-.822.708-1.67-1-2.7a6.76,6.76,0,0,0-.633-.319,4.936,4.936,0,0,1-3.27-3.968,5.743,5.743,0,0,1,1.65-4.855c5.967-6.111,7.492-17.357,3.474-25.6A16.175,16.175,0,0,0,364.089,262.634Zm.349,40.192a8.733,8.733,0,0,1-1.8-.189,5.386,5.386,0,0,1-2.168-1c-4.805-3.7-5.922-6.9-6.415-9.81-1.56-9.252.464-16.719,5.423-19.979,3.454-2.273,7.806-2.039,11.933.633,6.36,4.122,6.66,13.982,3.714,21.17C373.226,298.27,369.5,302.826,364.438,302.826Zm.219-32.136a8.917,8.917,0,0,0-4.965,1.485c-4.825,3.17-6.789,10.493-5.249,19.58.479,2.826,1.565,5.942,6.266,9.561a4.94,4.94,0,0,0,2,.927c5.747,1.186,9.989-3.744,12.043-8.748,2.886-7.038,2.622-16.684-3.559-20.686A12.146,12.146,0,0,0,364.658,270.69Z" transform="translate(-334.023 -262.241)" fill="#3b3b3b"/>
        </g>
        <g id="XMLID_2039_" transform="translate(53.095 6.385)">
          <g id="XMLID_2047_" transform="translate(14.436 29.081)">
            <path id="Path_7820" data-name="Path 7820" d="M378.37,340.149a.18.18,0,0,1-.11-.035,12.354,12.354,0,0,1-4.85-6.465.2.2,0,1,1,.379-.12,12,12,0,0,0,4.7,6.261.2.2,0,0,1,.055.274A.21.21,0,0,1,378.37,340.149Z" transform="translate(-373.4 -333.39)" fill="#3b3b3b"/>
          </g>
          <g id="XMLID_2046_" transform="translate(29.942 30.481)">
            <path id="Path_7821" data-name="Path 7821" d="M404.708,342.9a.2.2,0,0,1-.164-.085.194.194,0,0,1,.05-.274c1.959-1.371,4.5-3.564,5.453-6.216a.2.2,0,1,1,.374.135c-.992,2.751-3.594,5-5.6,6.41A.227.227,0,0,1,404.708,342.9Z" transform="translate(-404.507 -336.198)" fill="#3b3b3b"/>
          </g>
          <g id="XMLID_2045_" transform="translate(9.779 38.825)">
            <path id="Path_7822" data-name="Path 7822" d="M375.025,359.614a.085.085,0,0,1-.035-.005c-4.247-.778-10.707-3.828-10.931-6.455a.2.2,0,1,1,.394-.035c.194,2.233,6.1,5.269,10.612,6.1a.2.2,0,0,1,.159.229A.21.21,0,0,1,375.025,359.614Z" transform="translate(-364.058 -352.938)" fill="#3b3b3b"/>
          </g>
          <g id="XMLID_2044_" transform="translate(31.525 42.042)">
            <path id="Path_7823" data-name="Path 7823" d="M407.881,364.854a.2.2,0,0,1-.035-.394,14.318,14.318,0,0,0,8.29-4.995.2.2,0,0,1,.309.249,14.759,14.759,0,0,1-8.534,5.139Z" transform="translate(-407.684 -359.391)" fill="#3b3b3b"/>
          </g>
          <g id="XMLID_2043_" transform="translate(32.849 35.705)">
            <path id="Path_7824" data-name="Path 7824" d="M410.539,354.545a.208.208,0,0,1-.145-.06.2.2,0,0,1,0-.279c.279-.269.543-.523.793-.758,2.507-2.388,3.185-3.031,2.009-6.51a.2.2,0,0,1,.374-.125c1.256,3.719.474,4.461-2.108,6.924-.244.234-.508.484-.788.758A.238.238,0,0,1,410.539,354.545Z" transform="translate(-410.339 -346.679)" fill="#3b3b3b"/>
          </g>
          <g id="XMLID_2042_" transform="translate(11.553 51.091)">
            <path id="Path_7825" data-name="Path 7825" d="M383.091,381.511a9.236,9.236,0,0,1-4.5-1.471c-2.393-1.266-5.1-2.707-10.752-1.844a.2.2,0,0,1-.06-.389,15.442,15.442,0,0,1,11,1.884c1.635.867,3.046,1.615,5.064,1.376a.2.2,0,0,1,.219.174.194.194,0,0,1-.174.219A6.287,6.287,0,0,1,383.091,381.511Z" transform="translate(-367.616 -377.546)" fill="#3b3b3b"/>
          </g>
          <g id="XMLID_2041_" transform="translate(0 45.663)">
            <path id="Path_7826" data-name="Path 7826" d="M344.659,371.229a.2.2,0,0,1-.194-.174c-.209-1.61.872-3.669,3.748-4.392a.2.2,0,0,1,.239.145.2.2,0,0,1-.145.239c-2.642.668-3.644,2.517-3.454,3.958a.19.19,0,0,1-.169.219A.038.038,0,0,1,344.659,371.229Z" transform="translate(-344.439 -366.656)" fill="#3b3b3b"/>
          </g>
          <g id="XMLID_2040_" transform="translate(35.466 44.708)">
            <path id="Path_7827" data-name="Path 7827" d="M415.789,373.852a.2.2,0,0,1-.2-.194.2.2,0,0,1,.194-.2c10.189-.224,12.666-2.786,13.259-3.878a2.111,2.111,0,0,0-.07-2.208c-.877-1.416-3.16-2.318-5.678-2.228a.206.206,0,0,1-.2-.189.2.2,0,0,1,.189-.2c2.692-.085,5.065.857,6.027,2.418a2.515,2.515,0,0,1,.085,2.607c-1.321,2.433-6.276,3.918-13.6,4.082Z" transform="translate(-415.59 -364.739)" fill="#3b3b3b"/>
          </g>
        </g>
      </g>
    </g>
  </g>
</svg>
