<svg xmlns="http://www.w3.org/2000/svg" width="380.173" height="386.582" viewBox="80 143.418 380.173 386.582"><g data-name="CompositeLayer"><path d="M443.72 458.887c43.232-78.83-7.167-161.78-54.089-228.805-57.076-81.528-177.355-92.35-246.275-32.376-44.626 38.834-51.05 132.188-60.77 171.587-11.398 46.19 15.976 88.67 60.77 118.447 42.554 28.287 101.074 44.95 156.55 41.903 75.66-4.155 126.616-39.4 143.814-70.756Z" fill="#1bb0dd" fill-rule="evenodd" data-name="Path 594"/><g data-name="freepik--background-complete--inject-67"><path d="m371.563 227.505 70.437-.113s-3.513-4.55-7.373-5.121c0 0-7.54-22.343-20.1-22.512-11.69-.128-16.352 13.773-16.352 13.773s-5.427-6.223-10.597-3.37c-5.17 2.855-8.04 11.023-8.04 11.023s-5.869 3.104-7.975 6.32Z" fill="#ebebeb" fill-rule="evenodd" data-name="Path 712"/><path d="m193.529 290.216-89.074.136s0-5.692 12.26-6.826c0 0 11.168-24.923 28.277-21.579 10.66 2.067 16.128 16.683 16.128 16.683s8.04-11.521 14.472-9.302c6.432 2.219 10.283 14.472 10.283 14.472s6.64 3.2 7.654 6.416Z" fill="#ebebeb" fill-rule="evenodd" data-name="Path 713"/><path d="m380.64 462.863-89.074.137s0-5.692 12.261-6.826c0 0 11.168-24.923 28.276-21.579 10.661 2.066 16.128 16.683 16.128 16.683s8.04-11.521 14.472-9.302c6.432 2.219 10.283 14.472 10.283 14.472s6.64 3.2 7.654 6.415Z" fill="#ebebeb" fill-rule="evenodd" data-name="Path 714"/><path d="m379.354 165.815-60.565.088s5.709-5.33 8.25-5.33c2.54 0 9.92-17.873 19.4-17.133 9.478.74 14.511 14.038 14.511 14.038s11.513-3.626 18.404 8.337Z" fill="#ebebeb" fill-rule="evenodd" data-name="Path 715"/><path d="m188.873 439.652-60.572.105s5.709-5.323 8.25-5.33c2.54-.009 9.928-17.873 19.4-17.126 9.47.748 14.527 14.038 14.527 14.038s11.505-3.642 18.395 8.313Z" fill="#ebebeb" fill-rule="evenodd" data-name="Path 716"/><path d="m179.644 183.575-51.793.08s2.573-3.36 5.41-3.786c0 0 5.492-16.442 14.738-16.579 8.594-.12 12.06 10.09 12.06 10.09s3.971-4.582 7.782-2.492 5.966 8.04 5.966 8.04 4.285 2.34 5.837 4.647Z" fill="#ebebeb" fill-rule="evenodd" data-name="Path 717"/><path d="m438.245 411.505-51.792.08s2.573-3.36 5.41-3.779c0 0 5.492-16.45 14.738-16.578 8.594-.128 12.06 10.09 12.06 10.09s3.971-4.59 7.782-2.5c3.81 2.09 5.974 8.088 5.974 8.088s4.277 2.3 5.828 4.599Z" fill="#ebebeb" fill-rule="evenodd" data-name="Path 718"/></g><g data-name="freepik--Clouds--inject-67"><path d="M429.562 379.064h-58.811s5.829-15.927 14.801-15.927c8.973 0 11.787 10.99 11.787 10.99s6.054-5.973 11.03-5.973c4.977 0 9.294 7.895 9.294 7.895s7.035-4.245 11.9 3.015Z" fill="#ebebeb" fill-rule="evenodd" data-name="Path 903"/><path d="M259.504 418.05h-49.566s4.912-13.427 12.478-13.427c7.565 0 9.929 9.27 9.929 9.27s5.105-5.033 9.302-5.033c4.197 0 7.83 6.649 7.83 6.649s5.926-3.562 10.027 2.54Z" fill="#ebebeb" fill-rule="evenodd" data-name="Path 904"/><path d="M227.642 222.68h-27.489s6.143-8.891 10.983-8.891c4.84 0 6.27 5.925 6.27 5.925s3.418-2.766 6.577-2.267c3.16.498 3.659 5.234 3.659 5.234Z" fill="#ebebeb" fill-rule="evenodd" data-name="Path 905"/><path d="M368.21 334.274h-27.448s6.135-8.9 10.975-8.9 6.27 5.933 6.27 5.933 3.418-2.774 6.577-2.275c3.16.498 3.626 5.242 3.626 5.242Z" fill="#ebebeb" fill-rule="evenodd" data-name="Path 906"/><path d="M230.616 343.817h-27.464s6.135-8.892 10.975-8.892 6.27 5.926 6.27 5.926 3.418-2.766 6.577-2.268c3.16.499 3.642 5.234 3.642 5.234Z" fill="#ebebeb" fill-rule="evenodd" data-name="Path 907"/><path d="M170.43 320.494h-53.537s7.332-16.37 15.179-17.415c7.847-1.045 11.593 12.165 11.593 12.165s5.057-4.663 9.037-4.663c3.98 0 7.043 6.142 7.043 6.142s7.96-4.18 10.685 3.77Z" fill="#ebebeb" fill-rule="evenodd" data-name="Path 908"/><path d="M320.526 282.176h-53.537s7.332-16.37 15.17-17.39c7.84-1.022 11.594 12.156 11.594 12.156s5.057-4.655 9.037-4.655c3.98 0 7.051 6.134 7.051 6.134s7.951-4.229 10.685 3.755Z" fill="#ebebeb" fill-rule="evenodd" data-name="Path 909"/></g><g data-name="freepik--Sparkles--inject-67"><path d="m224.474 391.534 4.615.86 1.029 4.864 1.029-4.864 4.615-.86-4.59-1.118-1.054-4.599-1.053 4.6-4.591 1.117Z" fill="#21b0ee" fill-rule="evenodd" data-name="Path 910"/><path d="m259.327 191.068 4.615.852 1.029 4.865 1.037-4.865 4.615-.86-4.6-1.117-1.052-4.6-1.046 4.6-4.598 1.125Z" fill="#21b0ee" fill-rule="evenodd" data-name="Path 911"/><path d="m391.968 346.044 4.615.853 1.029 4.864 1.03-4.864 4.614-.853-4.59-1.125-1.054-4.591-1.053 4.59-4.59 1.126Z" fill="#21b0ee" fill-rule="evenodd" data-name="Path 912"/><path d="m235.665 345.763 4.615.852 1.037 4.872 1.03-4.872 4.614-.852-4.598-1.126-1.046-4.59-1.053 4.59-4.599 1.126Z" fill="#21b0ee" fill-rule="evenodd" data-name="Path 913"/><path d="m156.835 293.657 2.58.482.58 2.717.578-2.717 2.581-.482-2.573-.627-.587-2.565-.587 2.565-2.572.627Z" fill="#21b0ee" fill-rule="evenodd" data-name="Path 914"/><path d="m409.535 278.55 2.58.482.58 2.718.57-2.718 2.581-.482-2.564-.627-.587-2.565-.587 2.565-2.573.627Z" fill="#21b0ee" fill-rule="evenodd" data-name="Path 915"/><path d="m225.608 204.245 2.58.483.58 2.717.57-2.717 2.58-.483-2.564-.627-.587-2.564-.587 2.564-2.572.627Z" fill="#21b0ee" fill-rule="evenodd" data-name="Path 916"/><path d="m171.724 342.571 2.573.474.58 2.718.578-2.718 2.58-.474-2.572-.635-.587-2.565-.587 2.565-2.565.635Z" fill="#21b0ee" fill-rule="evenodd" data-name="Path 917"/><path d="m130.609 360.797 2.58.475.571 2.717.58-2.717 2.58-.475-2.573-.627-.587-2.572-.587 2.572-2.564.627Z" fill="#21b0ee" fill-rule="evenodd" data-name="Path 918"/><path d="m202.638 239.5 2.58.475.58 2.717.57-2.717 2.581-.483-2.565-.627-.587-2.565-.587 2.565-2.572.635Z" fill="#21b0ee" fill-rule="evenodd" data-name="Path 919"/><path d="m307.743 245.466 2.58.482.58 2.718.57-2.718 2.58-.482-2.564-.627-.587-2.565-.587 2.565-2.572.627Z" fill="#21b0ee" fill-rule="evenodd" data-name="Path 920"/><path d="m370.71 226.572 2.582.483.578 2.717.571-2.717 2.581-.483-2.565-.627-.587-2.565-.587 2.565-2.572.627Z" fill="#21b0ee" fill-rule="evenodd" data-name="Path 921"/><path d="m331.17 363.04 2.582.475.57 2.725.58-2.725 2.58-.474-2.573-.628-.587-2.572-.587 2.572-2.564.628Z" fill="#21b0ee" fill-rule="evenodd" data-name="Path 922"/><path d="M219.184 353.208a.748.748 0 1 1 0 1.495.748.748 0 0 1 0-1.495Z" fill="#21b0ee" fill-rule="evenodd" data-name="Path 923"/><path d="M207.904 253.232a.748.748 0 1 1 0 1.496.748.748 0 0 1 0-1.496Z" fill="#21b0ee" fill-rule="evenodd" data-name="Path 924"/><path d="M311.49 198.368a.748.748 0 0 1 0 1.488.748.748 0 0 1 0-1.488Z" fill="#21b0ee" fill-rule="evenodd" data-name="Path 925"/><path d="M380.648 238.005a.748.748 0 1 1 0 1.495.748.748 0 0 1 0-1.495Z" fill="#21b0ee" fill-rule="evenodd" data-name="Path 926"/><path d="M377.48 320.767a.748.748 0 1 1 0 1.495.748.748 0 0 1 0-1.495Z" fill="#21b0ee" fill-rule="evenodd" data-name="Path 927"/><path d="M404.213 312.51a.53.53 0 1 1 0 1.061.53.53 0 0 1 0-1.06Z" fill="#21b0ee" fill-rule="evenodd" data-name="Path 928"/><path d="M320.76 219.047a.53.53 0 1 1 0 1.061.53.53 0 0 1 0-1.061Z" fill="#21b0ee" fill-rule="evenodd" data-name="Path 929"/><path d="M283.744 274.377a.53.53 0 0 1 0 1.053.53.53 0 0 1 0-1.053Z" fill="#21b0ee" fill-rule="evenodd" data-name="Path 930"/><path d="M350.812 379.297a.53.53 0 1 1 0 1.061.53.53 0 0 1 0-1.06Z" fill="#21b0ee" fill-rule="evenodd" data-name="Path 931"/><path d="M267.214 369.456a1.44 1.44 0 0 1 0 2.87 1.44 1.44 0 0 1 0-2.87Z" fill="#21b0ee" fill-rule="evenodd" data-name="Path 932"/><path d="M132.377 268.267a1.431 1.431 0 1 1 0 2.862 1.431 1.431 0 0 1 0-2.862Z" fill="#21b0ee" fill-rule="evenodd" data-name="Path 933"/><path d="M249.816 180.954a1.431 1.431 0 1 1 0 2.862 1.431 1.431 0 0 1 0-2.862Z" fill="#21b0ee" fill-rule="evenodd" data-name="Path 934"/><path d="M299.598 238.07a1.44 1.44 0 0 1 0 2.87 1.44 1.44 0 0 1 0-2.87Z" fill="#21b0ee" fill-rule="evenodd" data-name="Path 935"/><path d="M304.583 380.19a1.44 1.44 0 0 1 0 2.87 1.44 1.44 0 0 1 0-2.87Z" fill="#21b0ee" fill-rule="evenodd" data-name="Path 936"/></g><g data-name="Group 4460"><path d="m208.845 154.025-.592-1.752-.592 1.752a9.482 9.482 0 0 1-4.433 5.284 9.48 9.48 0 0 1 4.433 5.284l.592 1.752.592-1.752a9.48 9.48 0 0 1 4.433-5.284 9.482 9.482 0 0 1-4.433-5.284Z" fill="#efe5dc" fill-rule="evenodd" data-name="Path 1625"/><path d="m237.407 186.136-.591-1.752-.592 1.752a9.48 9.48 0 0 1-4.433 5.284 9.48 9.48 0 0 1 4.433 5.285l.592 1.752.591-1.752a9.482 9.482 0 0 1 4.433-5.285 9.481 9.481 0 0 1-4.433-5.284Z" fill="#efe5dc" fill-rule="evenodd" data-name="Path 1626"/><path d="m106.933 237.818-.591-1.752-.592 1.752a9.48 9.48 0 0 1-4.433 5.284 9.481 9.481 0 0 1 4.433 5.284l.592 1.752.591-1.752a9.482 9.482 0 0 1 4.433-5.284 9.481 9.481 0 0 1-4.433-5.284Z" fill="#efe5dc" fill-rule="evenodd" data-name="Path 1627"/><path d="m179.982 168.816-.235-.696-.235.696a3.764 3.764 0 0 1-1.76 2.098 3.765 3.765 0 0 1 1.76 2.098l.235.696.235-.696a3.767 3.767 0 0 1 1.76-2.098 3.766 3.766 0 0 1-1.76-2.098Z" fill="#efe5dc" fill-rule="evenodd" data-name="Path 1628"/><path d="m289.5 189.266-.236-.696-.235.696a3.767 3.767 0 0 1-1.76 2.098 3.769 3.769 0 0 1 1.76 2.098l.235.696.235-.696a3.765 3.765 0 0 1 1.76-2.098 3.763 3.763 0 0 1-1.76-2.098Z" fill="#efe5dc" fill-rule="evenodd" data-name="Path 1629"/></g><g data-name="Group 4461"><path d="M167.088 340.152c-2.466-6.271-7.223-13.795-7.223-13.795s-3.787 8.251-2.08 17.236c1.264 6.654 4.18 11.607 5.609 13.73-8.743-6.513-13.943-13.006-17.227-19.113-.223-3.054-.767-14.134 2.494-19.782 3.804-6.592 3.813-10.479.41-16.976 0 0-1.55 7.967-4.702 10.536-2.297 1.874-3.89 8.87-1.933 17.272-.997-3.188-1.643-6.191-2.234-8.942l-.15-.693c-.554-2.571-1.288-5.277-2.09-7.927 1.157-1.8 5.128-8.678 4.141-16.918-1.152-9.617-3.74-13.78-3.74-13.78s-4.008 12.45-2.978 16.954c.696 3.042 1.485 8.453 1.924 11.648-2.644-8.28-5.708-15.497-5.751-15.598l-.456.195c-6.55-12.732-22.107-12.945-22.107-12.945s7.932 5.52 12.375 10.279c3.707 3.97 8.895 5.251 10.513 5.567 1.791 4.5 5.28 13.745 7.132 21.868-1.93-4.79-6.335-14.399-11.433-16.79-6.863-3.219-17.322-5.236-17.322-5.236s13.863 12.942 17.608 17.231c3.208 3.675 9.86 6.584 11.703 7.344 1.165 5.38 2.657 11.64 6.497 18.323-2.822-3.064-9.235-10.004-12.275-13.116-3.964-4.056-17.002-6.12-18.216-6.098-1.214.023 9.756 10.63 15.06 14.904 4.623 3.726 13.963 5.376 16.284 5.738 2.902 4.675 7.007 9.539 12.986 14.436-5.651-3.18-17.34-8.398-30.552-6.422 0 0 8.15 4.828 10.616 6.807 2.44 1.956 9.98 8.391 23.093 2.072a96.288 96.288 0 0 0 6.064 4.13l.462-.735a96.658 96.658 0 0 1-5.2-3.501c.897-2.148 4.896-12.314 2.698-17.903Z" fill="#263238" fill-rule="evenodd" data-name="Path 1632"/></g><g data-name="freepik--Character--inject-67"><path d="M398.173 302.01a87.827 87.827 0 0 1-16.844 51.881c-24.49 33.707-69.219 45.69-107.28 28.742-38.06-16.949-59.079-58.21-50.412-98.963 8.667-40.752 44.659-69.888 86.323-69.881 2.417 0 4.813.096 7.187.29a87.634 87.634 0 0 1 38.591 12.51 88.695 88.695 0 0 1 23.565 20.903 90.122 90.122 0 0 1 5.508 7.83 87.843 87.843 0 0 1 13.362 46.688Z" fill="#21b0ee" fill-rule="evenodd" data-name="Path 879"/><g data-name="Group 3814"><path d="M328.993 345.28c-1.11 2.966.74 3.087.868 4.325.129 1.238 0 3.586-3.585 7.171-3.586 3.586-9.512 2.838-10.75 4.318-1.238 1.479-3.336 7.79-6.303 9.889-2.967 2.098-3.457.868-7.662 1.728s-7.413 6.304-8.65 8.9c-1.239 2.597.248 6.915-2.718 7.043-2.967.129-4.326-6.303-7.043-9.76-2.718-3.457-3.578-6.553-4.446-10.629-.869-4.076.49-12.606 0-15.943-.49-3.336-9.39-9.262-12.607-13.346-3.216-4.084-7.662-12.229-7.412-14.946a11.095 11.095 0 0 1 3.706-6.802c1.487-1.11.868-1.728 1.11-2.717.24-.99 1.487-1.238 1.736-2.468.25-1.23-.748-4.945-1.978-5.564-1.23-.62-2.106 1.487-2.846 1.11-.74-.378-2.967-2.96-3.827-3.216-.86-.258-.619 1.608-1.857-.74s-1.85-8.281-2.838-9.27c-.989-.989-1.729 1.729-4.076 0-2.348-1.729-3.337-5.065-4.326-5.564-.989-.498-2.347.129-3.368-1.849-1.022-1.978.892-5.563 0-5.194-.893.37-2.814 3.216-3.305.499-.49-2.718 2.468-11.867 1.978-16.803a19.706 19.706 0 0 1 4.695-14.335s.49-2.718.99-4.454c.498-1.737 11.118-8.643 12.356-10.621a9.76 9.76 0 0 0 .869-3.522 87.868 87.868 0 0 1 52.259-17.116c2.417 0 4.813.096 7.187.289.08.113.161.225.25.33 1.069 1.358 2.219 2.219 5.354 3.376 3.136 1.158 3.867 2.637 3.216 3.868-.651 1.23-1.729 1.487-2.967 1.608-1.238.12-2.412-.58-3.706.249-1.294.828-2.637 5.274-4.366 5.515-1.728.241-4.775-3.947-5.435-5.186-.659-1.238 1.48-3.875.475-5.113-1.005-1.238-2.782-.989-5.58-1.23s-9.31.804-9.06 1.897c.248 1.094 9.55-.168 9.8 1.97.249 2.139-6.834 5.773-8.04 5.443-1.206-.33-2.886-2.476-4.695-2.717-1.81-.242-3.297 1.23-4.438 1.399-1.142.168-2.485-1.239-4.213-.909-1.729.33-2.147 1.809-3.047 2.412-.9.603-3.047.579-3.297 1.897-.249 1.319 2.718 2.059 3.457 2.879.74.82-.908 3.626-.16 4.205.747.578 5.354-3.458 6.504-4.447 1.15-.988 2.139-5.274 4.615-5.193 2.476.08 3.296 4.285 4.116 4.695.82.41 2.637-.989 5.355-.41 2.717.579 4.615 6.512 5.105 8.321.49 1.81 1.648 3.626.667 4.366-.98.74-5.443-.49-6.013-1.648-.571-1.158 2.966-2.887 2.717-3.297-.25-.41-2.307-.989-3.377-.337-1.07.65-1.568 1.986-2.725 2.315-1.158.33-4.197-3.127-5.025-2.138-.828.988.804 4.116 1.648 4.823.844.708 3.875 1.158 4.124 1.978.25.82-2.058 2.637-4.864 2.477-2.806-.161-5.105-2.308-6.174-1.407-1.07.9-.499 3.296-1.238 4.124-.74.828-4.776.241-6.754 2.412-1.978 2.17-2.886 5.355-4.864 7.163-1.978 1.81-2.878-.49-5.515 2.059-2.637 2.548-3.047 8.24-3.136 10.218-.088 1.978 0 3.538-.651 3.297-.651-.242-1.608-1.978-1.817-3.047-.21-1.07.579-2.887.579-3.546 0-.66-3.795-4.02-6.014-4.366-2.219-.345-4.205 1.48-5.853 2.798-1.648 1.319-4.615 1.078-5.684 2.147-1.07 1.07-1.89 10.54-1.07 12.767.82 2.227 1.898 2.227 4.535 1.07 2.637-1.158 1.15-3.377 2.717-2.887a3.698 3.698 0 0 1 2.412 3.465c0 1.319-3.127 4.446-2.717 5.355.41.908 3.127-.169 4.446.25 1.318.417 1.978 1.23 1.568 4.614-.41 3.385-.17 6.006 1.809 7.123 1.977 1.118 3.087-1.608 3.955-1.238.869.37 2.099 2.348 3.337 2.227 1.238-.12.619-1.238 2.967-1.978 2.347-.74 1.479-1.238 1.977-2.717.499-1.48 1.978-2.718 3.578-1.978 1.6.74.499 1.85.62 3.087.12 1.239 2.966 1.36 5.193 2.099 2.227.74 3.457 0 7.903 1.487s4.695 5.925 6.553 6.673c1.857.748 8.04-.498 12.477 2.718 4.438 3.216 3.216 9.141 5.443 10.87 2.227 1.728 10.5 4.076 13.716 4.695 3.216.619 3.707-1.608 6.295-.99 2.59.62 4.085 1.36 4.945 4.945.683 3.104-8.972 9.713-10.09 12.68Z" fill-rule="evenodd" data-name="Path 880"/><path d="M262.6 282.094c.08.7 2.139.99 4.615 2.412 2.476 1.423 3.377 5.523 4.695 5.443 1.319-.08.9-1.978 1.399-2.476.499-.499 1.319-1.56 0-2.637-1.318-1.078-2.605-3.377-5.009-3.707-2.404-.33-2.822-1.318-3.891-1.23a1.857 1.857 0 0 0-1.809 2.195Z" fill-rule="evenodd" data-name="Path 881"/><path d="M276.187 289.016c-.361 1.013 0 1.729 2.637 2.412 2.637.684 5.114-.659 4.286-1.19-.828-.53-2.059-.289-1.608-1.197.45-.909.33-2.227-1.81-1.978-2.138.249-3.175 1.045-3.505 1.953Z" fill-rule="evenodd" data-name="Path 882"/><path d="M285.417 289.298c-.9.128-1.399 1.696-.49 2.685.908.989.9.804 1.97 0 1.069-.804 2.725-1.238 2.307-2.058-.418-.82-2.878-.756-3.787-.627Z" fill-rule="evenodd" data-name="Path 883"/><path d="M292.58 292.667c.41-1.239 2.477 0 3.385 1.294.909 1.294.49 3.216 0 4.615s-.804 3.047-1.977 2.412c-1.174-.635.08-2.637-.089-3.795-.169-1.158-1.648-3.521-1.318-4.526Z" fill-rule="evenodd" data-name="Path 884"/><path d="M328.093 223.934c-.435 1.037 1.56 1.407 2.717 2.066 1.158.66 2.058 1.07 2.717 0a1.817 1.817 0 0 0-1.157-2.557c-.9-.249-3.867-.498-4.277.49Z" fill-rule="evenodd" data-name="Path 885"/><path d="M343.626 233.574c.763.804 2.058.659 2.966 1.817.909 1.157.58 3.127 1.729 3.706 1.15.579 1.978 0 2.058-.804.08-.804-1.648-2.878-1.48-3.296.17-.418 2.413.579 2.879 1.817.466 1.238-.49 2.966.66 3.296 1.149.33.908-1.158 1.406-1.487.499-.33 1.56-.161 1.48-1.15a7.429 7.429 0 0 0-2.469-3.875 9.414 9.414 0 0 0-3.706-1.978 5.483 5.483 0 0 0-4.454.66c-.868.715-1.504.803-1.07 1.294Z" fill-rule="evenodd" data-name="Path 886"/><path d="M379.298 249.099a1.44 1.44 0 0 1-.466.868c-1.729 1.238-3.787-3.047-6.175-3.867-2.387-.82-3.457-3.875-3.955-3.216-.499.66-.33 1.568-1.07 2.637-.74 1.07-1.816.804-2.307 2.886-.49 2.082 2.308 5.845 1.648 7.083-.659 1.238-1.487.804-2.806.74-1.318-.064-1.069 1.07-2.798.579-1.728-.49-.249-2.637-2.966-5.194-2.718-2.557-3.626-3.047-3.047-4.197.579-1.15-.25-2.806.989-2.966 1.238-.161 2.227 1.648 3.047 2.138.82.49 1.897-.989 1.977-2.307.08-1.319-2.886-3.128-3.955-4.149-1.07-1.02-1.15-4.743-.74-5.491.41-.748 1.608-.49 1.978-2.3.193-1.069-1.495-2.846-2.918-4.132a88.696 88.696 0 0 1 23.564 20.888Z" fill-rule="evenodd" data-name="Path 887"/><path d="M391.6 322.96c.249-2.636-1.07-2.805.249-7.661 1.318-4.856-1.4-10.058-2.412-11.127-1.013-1.07-3.128-.74-4.824.33-1.697 1.068-.499 1.897-1.656 2.307-1.158.41-2.3-.25-3.37-.161-1.068.088-2.065 2.798-4.373 2.717-2.307-.08-3.787-3.376-5.515-5.724-1.729-2.348-5.274-3.835-6.432-6.721-1.158-2.887 1.07-7.325.57-10.701-.498-3.377-2.717-2.637-3.127-4.535-.41-1.897.33-.989.909-2.798.579-1.809-.66-2.806.49-5.933 1.15-3.128 3.216-4.695 2.718-6.094-.499-1.4-2.059-3.707-2.139-5.355-.08-1.648 1.608-1.568 4.695-3.875 3.088-2.308 3.956-2.139 6.344-1.319a33.93 33.93 0 0 0 5.274 1.488c1.399.24 3.296 3.867 3.867 3.706.57-.16.66-1.238.909-2.806a3.465 3.465 0 0 1 1.029-1.769c19.018 30.509 17.641 69.502-3.482 98.593 8.402-12.864 10.034-29.932 10.275-32.561Z" fill-rule="evenodd" data-name="Path 888"/></g></g><g data-name="Group 4504"><g data-name="Group 4464"><path d="M221.798 348.284c-5.689 19.245-11.646 34.819-11.646 34.819l-45.15.841-12.899.242s-27.02-88.887-4.648-106.911a36.967 36.967 0 0 1 4.937-3.329c21.285-12.083 61.83-11.068 75.132 6.01 2.382 3.05 3.891 6.615 4.264 10.71 1.336 14.608-4.19 38.016-9.99 57.618Z" fill="#9e7d66" fill-rule="evenodd" data-name="Path 1633"/><g data-name="Group 4462"><path d="m247.673 491.744-13.476-102.598h-10.279l13.476 102.598h10.28Z" fill="#472e28" fill-rule="evenodd" data-name="Path 1634"/><path d="m164.105 491.744 13.476-102.598h-10.279l-13.476 102.598h10.279Z" fill="#472e28" fill-rule="evenodd" data-name="Path 1635"/></g><g data-name="Group 4463"><path d="M237.385 384.781v11.065c-9.17 2.887-25.294 4.811-43.663 4.811-17.07 0-32.218-1.662-41.621-4.213v-12.26a83.38 83.38 0 0 1 4.52-1.08c9.388-1.924 22.552-3.134 37.101-3.134 18.37 0 34.493 1.925 43.663 4.811Z" fill="#84644e" fill-rule="evenodd" data-name="Path 1636"/><path d="M237.385 390.54v5.306c-9.17 2.887-25.294 4.811-43.663 4.811-17.07 0-32.218-1.662-41.621-4.213v-12.26a83.321 83.321 0 0 1 4.52-1.08c3.658 5.322 10.087 10.804 20.963 10.862 12.698.058 40.003-1.866 59.801-3.426Z" fill="#6d503c" fill-rule="evenodd" data-name="Path 1637"/></g><path d="m227.524 279.956-5.726 68.328c-5.689 19.245-11.646 34.819-11.646 34.819l-45.15.841-1.494-3.291s-3.286-2.14-3.96-7.609c-.678-5.463 0-33.01 0-33.01s-10.82-3.097-14.874-10.568c-3.455-6.357 5.105-44.383 7.718-55.52 21.285-12.083 61.83-11.068 75.132 6.01Z" fill="#89654d" fill-rule="evenodd" data-name="Path 1638"/></g><g data-name="Group 4472"><g data-name="Group 4465"><path d="m305.308 460.188-12.112 2.788-3.46.79-5.065-17.794 5.788-2.262 12.055-4.722 2.794 21.2Z" fill="#eca89f" fill-rule="evenodd" data-name="Path 1639"/><path d="m293.196 462.976-3.46.79-5.065-17.794 5.788-2.262 2.737 19.266Z" fill="#a05842" fill-rule="evenodd" data-name="Path 1640"/></g><path d="M229.955 353.156s51.346-1.117 55.118 1.633c3.77 2.75 23.808 89.544 23.808 89.544l-29.144 3.693-11.804-56.512-53.6-19.509-11.068-18.885 26.69.036Z" fill="#6d673b" fill-rule="evenodd" data-name="Path 1641"/><g data-name="Group 4467"><g data-name="Group 4466"><path d="m265.648 480.555-12.462-.237-3.559-.074-.44-18.597 6.188-.793 12.894-1.664-2.621 21.365Z" fill="#eca89f" fill-rule="evenodd" data-name="Path 1642"/><path d="m253.186 480.318-3.559-.074-.44-18.597 6.188-.793-2.19 19.464Z" fill="#eca89f" fill-rule="evenodd" data-name="Path 1643"/></g><path d="m269.99 466.679-14.82 1.088-9.999.732-4.969-78.5s-64.306 2.165-71.392-8.533c-4.783-7.234-2.573-35.847-2.573-35.847l3.845.757 43.197 8.505s49.922 8.478 58.102 17.656c8.192 9.17-1.39 94.142-1.39 94.142Z" fill="#8e895c" fill-rule="evenodd" data-name="Path 1644"/><path d="M255.763 379.832c.429 2.762 2.067 5.18 3.852 7.332 1.344 1.62 3.096 3.277 5.196 3.14 1.502-.1 2.826-1.162 3.535-2.489.709-1.328.878-2.882.811-4.386-.119-2.67-.976-5.344-2.658-7.42-1.494-1.845-4.942-4.36-7.503-3.475-2.664.921-3.61 4.866-3.233 7.298Z" fill="#a09a6d" fill-rule="evenodd" data-name="Path 1645"/><path d="m255.17 467.767-9.999.732-4.969-78.5s-64.306 2.165-71.392-8.533c-4.783-7.234-2.573-35.847-2.573-35.847l3.845.757c.239 5.646 1.497 30.02 5.792 31.137 4.85 1.277 71.048 6.35 71.048 6.35l8.249 83.904Z" fill="#77714a" fill-rule="evenodd" data-name="Path 1646"/></g><g data-name="Group 4469"><path d="M336.192 472.282c-.245-.84-.78-1.79-1.954-2.144-3.425-1.03-15.897-3.999-19.438-6.126-2.749-1.651-5.48-5.64-6.563-7.342l-22.06 3.797c-.591 5.812-.096 16.81.018 19.11l49.997-7.295Z" fill="#22b0ec" fill-rule="evenodd" data-name="Path 1647"/><path d="m336.934 477.206-49.997 7.295-.742-4.923 49.997-7.296.742 4.924Z" fill="#fff" fill-rule="evenodd" data-name="Path 1648"/><g data-name="Group 4468"><path d="M310.798 466.006a5.066 5.066 0 0 0-.076.186c-.18.467-.237 1.153.381 1.328.317.09.654 0 .964-.108 1.069-.37 2.013-.981 2.9-1.662.956-.73 1.971-1.52 2.5-2.621.548-1.139-.561-1.965-1.715-1.55-1.994.717-4.113 2.464-4.954 4.427Z" fill="#fff" fill-rule="evenodd" data-name="Path 1649"/><path d="M314.95 468.095a6.095 6.095 0 0 0-.075.187c-.18.466-.238 1.152.381 1.327.316.09.654 0 .964-.107 1.069-.37 2.012-.982 2.9-1.662.955-.731 1.971-1.52 2.5-2.622.548-1.138-.561-1.965-1.715-1.55-1.994.717-4.113 2.464-4.955 4.427Z" fill="#fff" fill-rule="evenodd" data-name="Path 1650"/><path d="M319.84 469.16a5.878 5.878 0 0 0-.076.185c-.18.467-.237 1.153.382 1.328.316.09.654 0 .964-.107 1.068-.37 2.012-.982 2.9-1.662.955-.732 1.971-1.52 2.5-2.622.547-1.138-.562-1.965-1.715-1.55-1.995.717-4.114 2.464-4.955 4.427Z" fill="#fff" fill-rule="evenodd" data-name="Path 1651"/></g></g><g data-name="Group 4471"><path d="M292.946 501.34c-.024-.876-.301-1.93-1.348-2.57-3.052-1.863-14.367-7.893-17.253-10.847-2.242-2.294-3.874-6.844-4.492-8.764l-22.301-1.912c-2.044 5.473-4.349 16.238-4.822 18.493l50.216 5.6Z" fill="#22b0ec" fill-rule="evenodd" data-name="Path 1652"/><path d="m292.417 506.29-50.216-5.6.53-4.95 50.215 5.6-.53 4.95Z" fill="#fff" fill-rule="evenodd" data-name="Path 1653"/><g data-name="Group 4470"><path d="M269.967 488.838a5.52 5.52 0 0 0-.12.16c-.292.407-.522 1.056.033 1.382.283.167.633.166.96.14 1.127-.087 2.195-.44 3.227-.873 1.108-.466 2.291-.972 3.082-1.903.817-.963-.046-2.044-1.267-1.934-2.111.189-4.603 1.342-5.915 3.028Z" fill="#fff" fill-rule="evenodd" data-name="Path 1654"/><path d="M273.456 491.912a5.07 5.07 0 0 0-.12.16c-.292.406-.522 1.055.032 1.381.284.167.633.166.96.14 1.127-.088 2.196-.44 3.227-.873 1.109-.466 2.291-.972 3.082-1.903.818-.963-.046-2.043-1.267-1.934-2.111.189-4.603 1.342-5.914 3.029Z" fill="#fff" fill-rule="evenodd" data-name="Path 1655"/><path d="M277.917 494.178a5.008 5.008 0 0 0-.12.161c-.292.406-.522 1.056.033 1.382.283.166.632.165.96.14 1.127-.088 2.195-.44 3.226-.874 1.109-.466 2.291-.972 3.082-1.903.818-.963-.046-2.044-1.267-1.934-2.11.19-4.603 1.342-5.914 3.028Z" fill="#fff" fill-rule="evenodd" data-name="Path 1656"/></g></g></g><path d="m202.7 191.673-.15 53.325s8.685-.086 16.18-7.002c7.493-6.917 8.52-12.097 8.52-12.097s.73-25.276-1.184-27.576c-1.914-2.298-16.182-7.43-16.182-7.43l-7.184.78Z" fill="#1d1e1e" fill-rule="evenodd" data-name="Path 1657"/><g data-name="Group 4473"><path d="M215.555 250.56c-1.363 4.225-5.302 12.561-15.219 11.92-9.573-.619-17.818-9.848-21.689-14.944 1.272-.618 2.382-1.111 3.184-1.386a.21.21 0 0 1 .08-.023c.286-.091.56-.183.836-.274a59.769 59.769 0 0 1 5.279-1.42l14.429.24s1.007-.137 2.954.39v.011c1.74.47 4.249 1.489 7.478 3.596.31.194.618.412.939.63.55.389 1.134.812 1.73 1.26Z" fill="#b77158" fill-rule="evenodd" data-name="Path 1658"/><path d="M215.555 250.56c-1.363 4.225-5.302 12.561-15.219 11.92-9.573-.619-17.818-9.848-21.689-14.944 1.272-.618 2.382-1.111 3.184-1.386a.21.21 0 0 1 .08-.023c.813.836 1.523 1.764 2.221 2.577 2.073 2.359 4.34 4.58 7.009 6.264 4.489 2.828 10.432 3.94 15.093 1.431 3.069-1.637 5.141-4.546 6.653-7.73.31.195.618.413.939.63.55.39 1.134.813 1.73 1.26Z" fill="#fff" fill-rule="evenodd" data-name="Path 1659"/><path d="m200.734 258.084-12.718-13.65c.057-2.15.252-2.956.535-8.276.305-5.916.613-11.46.613-11.46l16.594 6.88c-1.934 4.144-2.852 8.89-3.208 13.42-.746 9.55-1.816 13.086-1.816 13.086Z" fill="#b77158" fill-rule="evenodd" data-name="Path 1660"/><path d="M205.758 231.577c-1.934 4.145-2.852 8.891-3.208 13.421-.531.212-1.05.407-1.537.568-1.95.643-8.09-4.99-12.462-9.408.305-5.916.613-11.46.613-11.46l16.594 6.88Z" fill="#89503d" fill-rule="evenodd" data-name="Path 1661"/></g><path d="m217.702 184.397-.026-.01s-12.609-7.446-24.555-2.714c-11.941 4.733-36.885 18.635-13.145 53.485 0 0-17.488-9.102-13.997-30.502 3.491-21.39 22.32-29.513 36.57-27.715 3.638.458 9.722 3.634 15.153 7.456Z" fill="#573f37" fill-rule="evenodd" data-name="Path 1662"/><g data-name="Group 4486"><g data-name="Group 4474"><path d="M163.99 354.102s-4.724 17.46-.573 18.25c4.151.788 25.48-.357 32.064-3.077 6.584-2.72 30.06-11.165 30.918-15.173.86-4.007-62.41 0-62.41 0Z" fill="#fff8f3" fill-rule="evenodd" data-name="Path 1664"/><path d="M236.805 353.04c-34.668 9.604-74.258 3.557-74.358 3.53.147-1.363 13.335-63.711 10.73-74.314-1.093-4.448-6.38-26.251-6.38-26.251s8.489-6.81 11.854-8.466c1.263-.625 2.376-1.115 3.175-1.387a62.692 62.692 0 0 1 6.196-1.723l14.427.239s1.008-.133 2.96.396v.012c2.199.595 5.612 2.041 10.16 5.48a63.806 63.806 0 0 1 3.22 2.609c1.296 1.126 8.088 7.99 8.088 7.99s-4.223 32.655-5.046 36.26c-.521 2.263 14.698 54.368 14.974 55.626Z" fill="#db6d48" fill-rule="evenodd" data-name="Path 1665"/></g><g data-name="Group 4485"><g data-name="Group 4484"><g data-name="Group 4482"><g data-name="Group 4481"><g data-name="Group 4480"><g data-name="Group 4479"><path d="M260.228 274.44c1.229 1.745-11.705 8.819-11.705 8.819l.57 4.055 5.682-2.45 8.98.811s.587 1.653 1.184 3.72c.077.257.148.52.223.788.343 1.238.662 2.565.847 3.737.023.112.038.228.057.337.08.587.125 1.126.119 1.584-.01.51-.084.916-.248 1.185l-6.97.9s-5.095 8.242-6.382 8.957c-.512.283-3.068.153-5.962-.105-1.389-.127-6.786-.66-8.144-.815l-2.352-5.915 3.043-7.49c.327-.898.783-2.08 1.336-3.378l-.003-.002c.271-.638.567-1.304.88-1.979 1.14-2.443 2.54-4.988 4.048-6.703.637-.73 1.294-1.305 1.96-1.658 4.583-2.445 11.611-6.14 12.837-4.398Z" fill="#eca89f" fill-rule="evenodd" data-name="Path 1669"/><g data-name="Group 4478"><g data-name="Group 4476"><path d="M266.01 293.92c.022.112.037.228.056.337-.292 0-.676-.006-1.137-.008-1.048-.003-2.463.017-3.994.068-1.53.063-2.905.212-3.927.44-.256.06-.488.116-.695.163-.202.068-.377.122-.52.171l-.463.141s.127-.123.37-.337c.12-.106.273-.238.452-.383.19-.127.404-.268.655-.422.985-.594 2.523-1.146 4.202-1.215 1.676-.055 3.116.3 4.1.661.363.136.663.269.9.384Z" fill="#89503d" fill-rule="evenodd" data-name="Path 1670"/></g><g data-name="Group 4477"><path d="M264.939 289.394c.077.258.148.522.223.789-.06.005-.123.003-.184.002-1.047-.002-2.463.018-3.99.07-1.533.062-2.908.211-3.93.439-.256.06-.486.113-.69.162-.204.065-.38.125-.523.169l-.46.144s.124-.12.366-.337c.122-.104.272-.238.454-.38.186-.13.407-.272.652-.424.99-.597 2.529-1.148 4.205-1.213a10.842 10.842 0 0 1 3.877.58Z" fill="#89503d" fill-rule="evenodd" data-name="Path 1671"/></g></g></g></g></g></g><g data-name="Group 4483"><path d="M240.805 312.397c-3.733 3.057-69.177 21.185-74.01 21.769-.596.068-1.294.011-2.05-.15-5.359-1.19-14.016-7.946-16.02-13.787-.355-1.03-.4-2.977-.218-5.565.962-14.246 8.76-47.707 10.708-50.936 2.29-3.813 7.58-7.718 7.58-7.718s7.695 24.14 8.451 27.758c.767 3.63-1.706 17.681-1.706 17.681l62.81-9.264 4.455 20.212Z" fill="#fe7f54" fill-rule="evenodd" data-name="Path 1672"/><path d="M241.33 312.544c-1.345-6.475-2.799-12.937-4.028-19.436-.11-.584-.786-1.067-1.368-1.041-4.08.176-8.236.51-12.421.99 2.17-8.894 3.208-17.85 2.444-27.038-.042-.512-.78-.523-.805 0-.45 9.243-1.515 18.347-3.85 27.301-15.31 1.956-30.914 5.997-44.616 12.461 4.239-13.141 1.325-28.47-6.877-39.41-.284-.38-.878-.06-.649.379 6.815 13.065 7.982 26.206 4.691 40.422-.614.311-1.236.612-1.841.934-.85.45-.269 1.882.662 1.57 12.798-4.286 25.19-8.796 38.476-11.46 6.605-1.324 13.812-2.977 20.563-2.94 4.478.025 3.937 3.274 4.798 7.183.708 3.222 1.442 6.438 2.167 9.656-21.045 8.573-42.754 14.946-65.01 19.523-1.53.314-.873 2.608.643 2.329 22.71-4.18 44.85-10.999 66.15-19.886.655-.274 1.024-.802.872-1.537Z" fill="#b7543d" fill-rule="evenodd" data-name="Path 1673"/></g></g></g></g><g data-name="Group 4502"><g data-name="Group 4497"><g data-name="Group 4494"><path d="M223.606 212.022a55.157 55.157 0 0 1-1.386 4.842s.61 8.377-.299 10.236c-.914 1.864-6.732 13.454-12.63 12.634-4.924-.683-16.869-8.108-20.99-12.483-.826-.87-1.338-1.619-1.423-2.17-.521-3.329-2.258-18-2.423-19.228-.448-3.327-1.426-28.486 28.848-20.993 5.453 1.354 9.702 5.666 10.849 11.165.83 3.97 1.037 9.284-.546 15.997Z" fill="#eca89f" fill-rule="evenodd" data-name="Path 1674"/><g data-name="Group 4488"><path d="M224.942 207.152s-4.385-4.773-6.33-2.509c-1.944 2.264-.954 2.381-.954 2.381l7.284.128Z" fill="#1d1e1e" fill-rule="evenodd" data-name="Path 1675"/><path d="M196.1 202.837s10.14-4.053 11.405-.108c.739 2.304-.852 2.794-.852 2.794l-10.552-2.686Z" fill="#1d1e1e" fill-rule="evenodd" data-name="Path 1676"/><g data-name="Group 4487"><path d="M210.978 222.053c-.617-.237-1.231-.586-1.89-.53a6.332 6.332 0 0 0 3.389 3.377.92.92 0 0 0 .365.091c.154-.003.297-.076.431-.152a7.45 7.45 0 0 0 2.208-1.9c.121-.156.24-.322.288-.514.161-.636-.28-.503-.662-.36a5.823 5.823 0 0 1-1.377.328 5.852 5.852 0 0 1-2.752-.34Z" fill="#c7806d" fill-rule="evenodd" data-name="Path 1677"/><path d="M212.619 224.537c.395-.341.836-.629 1.24-.962.5-.41.967-.86 1.377-1.36-2.05-1.462-1.993-3.628-1.853-6.08a7.145 7.145 0 0 1 2.648-5.144c.225-.182.455-.282.724-.387-.13.144-.22.312-.338.46-.308.388-.63.747-.896 1.168-.267.42-.497.863-.69 1.322a8.691 8.691 0 0 0-.667 2.897c-.05.975.076 1.963.419 2.88.39 1.046 1.095 2.09 2.031 2.711a68.498 68.498 0 0 1-1.585 1.76 7.42 7.42 0 0 1-1.19.908c-.42.256-.901.56-1.407.53a.825.825 0 0 1-.448-.14c.087-.056.17-.12.246-.192l.096-.097c.094-.096.192-.187.293-.274Z" fill="#89503d" fill-rule="evenodd" data-name="Path 1678"/></g><path d="M217.591 221.792c.318.892 2.232 1.027 4.277.3 2.044-.728 3.444-2.04 3.126-2.934-.318-.892-2.232-1.026-4.276-.3-2.045.727-3.444 2.04-3.127 2.934Z" fill="#c7806d" fill-rule="evenodd" data-name="Path 1679"/><path d="M193.283 218.49c-.368 1.331 1.806 3.096 4.857 3.94 3.052.845 5.824.45 6.193-.883.368-1.332-1.806-3.097-4.857-3.941-3.051-.845-5.824-.45-6.193.883Z" fill="#c7806d" fill-rule="evenodd" data-name="Path 1680"/></g><g data-name="Group 4489"><path d="M196.847 208.649c-.244 2.295 1.171 4.668 3.306 5.545 2.135.877 4.81.184 6.25-1.62-1.756.455-3.67.153-5.341-.554-1.67-.708-3.32-1.794-4.215-3.371Z" fill="#1d1e1e" fill-rule="evenodd" data-name="Path 1681"/></g><g data-name="Group 4492"><g data-name="Group 4490"><path d="m216.486 226.598-.551.31c-.356.204-.893.458-1.585.71-1.374.516-3.433.95-5.707.73-1.766-.168-3.353-.675-4.539-1.266-1.198-.574-1.993-1.225-2.414-1.552l.065-.115.464.307-.523-.19.065-.113c.962.458 3.66 1.606 6.981 1.876 2.12.206 4.07.06 5.472-.188.701-.118 1.272-.243 1.66-.352l.612-.157Z" fill="#89503d" fill-rule="evenodd" data-name="Path 1682"/></g><g data-name="Group 4491"><path d="M211.067 230.404s-.306.32-.943.656a4.863 4.863 0 0 1-2.754.52c-1.776-.177-2.906-1.3-3.206-1.697l.074-.114.196.189-.263-.072.073-.113c.497.185 1.771.623 3.237.756a12.09 12.09 0 0 0 2.49.026c.66-.066 1.096-.15 1.096-.15Z" fill="#89503d" fill-rule="evenodd" data-name="Path 1683"/></g></g><path d="M222.22 216.864s.61 8.377-.299 10.236c-.914 1.864-6.732 13.454-12.63 12.634-4.924-.683-16.869-8.108-20.99-12.483 5.077 3.65 18.622 12.976 22.661 11.645 5.005-1.649 10.811-12.569 10.722-13.66-.09-1.098-.297-8.239-.297-8.239s1.04-2.237 2.22-4.975a55.156 55.156 0 0 1-1.387 4.842Z" fill="#c7806d" fill-rule="evenodd" data-name="Path 1684"/><g data-name="Group 4493"><path d="M216.106 212.204c.345 1.707 1.903 3.095 3.639 3.242 1.736.147 3.504-.96 4.131-2.585-1.16.726-2.607.943-3.97.813-1.364-.13-2.797-.538-3.8-1.47Z" fill="#1d1e1e" fill-rule="evenodd" data-name="Path 1685"/></g></g><g data-name="Group 4496"><path d="M188.244 224.682c-3.81-.363-6.55-2.672-8.006-4.592a9.247 9.247 0 0 1-.785-1.212c-1.057-1.994-1.257-8.852 1.575-10.399 1.984-1.081 3.388.56 4.05 1.64v.004c.283.46.432.818.432.818l2.734 13.741Z" fill="#c7806d" fill-rule="evenodd" data-name="Path 1686"/><path d="M188.244 224.682c-3.81-.363-6.55-2.672-8.006-4.592a7.624 7.624 0 0 1-.328-.558c-1.057-1.994-1.257-8.852 1.574-10.396 1.607-.879 2.835.031 3.595.983v.004c.282.46.431.818.431.818l2.734 13.741Z" fill="#b77158" fill-rule="evenodd" data-name="Path 1687"/><path d="M180.053 213.908c-.15.546-.07 1.118.101 1.662.729 2.313 2.997 4.106 5.169 5.771a5.773 5.773 0 0 1-.712-3.614c.054-.426.153-.848.164-1.276.046-1.725-3.837-5.769-4.722-2.543Z" fill="#c7806d" fill-rule="evenodd" data-name="Path 1688"/><g data-name="Group 4495"><path d="m186.416 222.014-.124-.073c-.078-.05-.206-.115-.35-.218a4.972 4.972 0 0 1-1.07-.997 4.426 4.426 0 0 1-.861-1.841 3.815 3.815 0 0 1 .316-2.411c.044-.104.105-.202.166-.3l.045-.073c.01-.017.004-.006.004-.006l.003-.001-.006-.012-.035-.067-.072-.132c-.05-.087-.097-.174-.149-.258a10.37 10.37 0 0 0-1.34-1.782 6.313 6.313 0 0 0-.685-.659 1.546 1.546 0 0 0-.706-.326c-.235-.03-.457.02-.608.09a.575.575 0 0 0-.273.24c-.038.072-.037.116-.041.116 0 0-.01-.042.009-.123.016-.08.08-.2.232-.31.151-.105.387-.204.698-.206.31.002.643.112.938.285.299.174.565.39.846.628.28.24.562.508.832.807.27.299.53.626.766.982.06.088.115.18.172.27l.082.14.109.196.075.138c-.021.045-.053.09-.078.136l-.115.192c-.052.085-.104.17-.141.26a4.03 4.03 0 0 0-.391 2.13c.069.675.285 1.276.553 1.755.269.479.579.837.812 1.074.116.119.221.201.285.263l.102.093Z" fill="#89503d" fill-rule="evenodd" data-name="Path 1689"/></g></g></g><g data-name="Group 4501"><path d="M225.79 231.536c-2.398 3.287-9.47 10.869-9.47 10.869l-3.722-.69c3.417-2.718 13.139-15.663 13.192-21.604.042-6.047 1.93-16.363-1.551-19.965-3.476-3.591-11.06-9.796-11.06-9.796s-16.077 6.694-20.368 12.583c-4.295 5.894-2.171 25.659-1.351 29.523.415 1.967 5.011 5 9.843 7.178l-21.762-4.017s-17.49-9.102-13.997-30.502c3.49-21.39 22.32-29.513 36.569-27.715 3.638.457 9.722 3.633 15.154 7.456 5.395 3.801 10.137 8.239 11.188 11.283 2.109 6.115-.273 32.116-2.665 35.397Z" fill="#603d39" fill-rule="evenodd" data-name="Path 1690"/><g data-name="Group 4500"><g data-name="Group 4499"><g data-name="Group 4498"><path d="M220.737 279.552c-1.33 14.423-2.598 50.893-4.417 56.887-1.825 5.994-23.514 4.68-23.514 4.68s2.277-14.155 4.37-30.513c.936-7.33.888-17.488.546-26.463-.415-11.053-1.272-20.317-1.272-20.317l21.905-10.2s2.224 6.892 2.613 16.693c.11 2.86.068 5.974-.231 9.233Z" fill="#603d39" fill-rule="evenodd" data-name="Path 1691"/><path d="M220.968 270.32c-7.187 4.527-17.783 10.678-23.246 13.823-.415-11.053-1.272-20.317-1.272-20.317l21.905-10.2s2.224 6.892 2.613 16.693Z" fill="#472e28" fill-rule="evenodd" data-name="Path 1692"/></g><path d="M184.887 233.377c-2.102.33-7.83 1.308-7.994 3.765-.164 2.458 1.864 3.931 1.864 3.931s-4.32.328-4.974 2.946c-.655 2.62 8.258 29.3 24.59 24.553 16.33-4.747 24.62-14.204 23.667-16.023-.953-1.818-5.07-5.256-5.07-5.256s2.622-2.291 1.324-3.928c-1.298-1.637-33.407-9.988-33.407-9.988Z" fill="#603d39" fill-rule="evenodd" data-name="Path 1693"/></g><path d="M183.282 243.56s17.38 17.165 31.25 11.22c0 0-12.155 11.8-19.592 5.378-7.436-6.422-11.658-16.597-11.658-16.597Z" fill="#472e28" fill-rule="evenodd" data-name="Path 1694"/></g></g></g></g><g data-name="Group 4509"><g data-name="Group 4506"><g data-name="Group 4505"><path d="m251.47 209.562-10.365-1.463 8.034-4.966-3.59-11.062s9.494-21.433 12.307-20.74c2.813.691 24.706 7.293 25.815 9.64 1.108 2.346 5.554 25.853 4.693 28.408-.862 2.554-22.53 12.562-24.252 11.013-1.722-1.548-12.643-10.83-12.643-10.83Z" fill="#070707" fill-rule="evenodd" data-name="Path 1695"/><path d="m251.678 207.374-10.573.725 8.243-7.153-3.59-11.062s9.493-21.434 12.306-20.742c2.813.692 24.707 7.294 25.815 9.641 1.11 2.347 5.555 25.854 4.693 28.408-.861 2.554-22.53 12.562-24.252 11.014-1.722-1.549-12.642-10.83-12.642-10.83Z" fill="#fff" fill-rule="evenodd" data-name="Path 1696"/></g><path d="M260.912 205.8s23.047-8.507 19.174-12.473c-3.874-3.968-14 1.041-14 1.041s3.458-13.166-1.97-12.376c-5.428.791-8.145 13.928-3.204 23.808Z" fill="#95deff" fill-rule="evenodd" data-name="Path 1697"/></g></g></g></svg>