<svg xmlns="http://www.w3.org/2000/svg" width="433.372" height="444.131" viewBox="0 0 433.372 444.131">
  <g id="Group_8986" data-name="Group 8986" transform="translate(5.372 -61.548)">
    <path id="Path_594" data-name="Path 594" d="M567.74,402.843c43.957-86.721-7.287-177.975-54.994-251.708-58.032-89.688-180.324-101.593-250.4-35.616-45.373,42.721-51.9,145.419-61.788,188.762-11.588,50.813,16.244,97.547,61.788,130.3,43.267,31.119,102.766,49.448,159.171,46.1C498.446,476.11,550.255,437.337,567.74,402.843Z" transform="translate(-203.303 18.811)" fill="#20a3db" opacity="0.23"/>
    <g id="freepik--Shadow--inject-2" transform="translate(236.167 494.09)">
      <path id="Path_600" data-name="Path 600" d="M397.115,444.218c0,3.2-23.686,5.791-52.9,5.791s-52.906-2.593-52.906-5.791,23.686-5.8,52.906-5.8S397.115,441.013,397.115,444.218Z" transform="translate(-291.31 -438.42)" fill="#fff"/>
    </g>
    <g id="freepik--Plant--inject-2" transform="translate(62.027 425.101)">
      <path id="Path_601" data-name="Path 601" d="M76.2,384.735c-4.207.147-8.9.383-12.385-2.343-3.22-2.52-6.093-6.277-5.666-10.587.125-1.23.405-1.989,1.724-1.473,2,.8,3.551,3.013,4.944,4.568a43.179,43.179,0,0,0,5.835,5.533c1.473,1.149,3.116,2.144,4.642,3.256l.575.42.214.162H76.2a.206.206,0,0,1,.177.088.236.236,0,0,1-.177.354Z" transform="translate(-55.778 -351.464)" fill="#75c28e"/>
      <path id="Path_602" data-name="Path 602" d="M77.44,385.84c-3.684-.066-7.692.1-10.646-2.409a17.174,17.174,0,0,1-3.441-4.17c-.427-.7-1.709-2.778-1.179-3.6.965-1.474,5.371,4.6,5.982,5.157a18.124,18.124,0,0,0,8.171,4.244l.575.42a20.119,20.119,0,0,1-6.137-2.358c-2.63-1.562-4.089-3.875-6.144-6.041-.442-.472-1.783-2.041-2.284-1.061-.332.641.906,2.674,1.171,3.109a17.04,17.04,0,0,0,3.249,3.971c2.947,2.579,6.925,2.483,10.653,2.638A.221.221,0,0,1,77.44,385.84Z" transform="translate(-56.816 -352.849)" fill="#fff"/>
      <path id="Path_603" data-name="Path 603" d="M84.082,384.257a2.292,2.292,0,0,1-.1.486h0a.14.14,0,0,1-.081.088.184.184,0,0,1-.221-.088.111.111,0,0,1,0-.1v-.066l.044-.147h0v-.052c-.737-2.785-1.031-5.68-1.82-8.465-.737-2.66-1.68-5.268-2.21-7.979-.339-1.717-1.525-10.315,2.254-9.231,1.68.479,2.829,2.9,3.463,4.354a17.6,17.6,0,0,1,1.378,6.152C87.066,374.473,85.143,379.24,84.082,384.257Z" transform="translate(-61.344 -348.422)" fill="#75c28e"/>
      <path id="Path_604" data-name="Path 604" d="M86.177,375.492a20.7,20.7,0,0,0-.611-5.828c-.169-.656-.987-3.816-2.063-3.735-.685.044-.8,1.407-.862,1.857-.243,1.908.376,3.861.737,5.725a78.1,78.1,0,0,1,1.392,11.464c0,.243-.074.494-.1.737s-.052.405-.081.611a1.769,1.769,0,0,0,0,.206v.162a.177.177,0,0,0,.221.088l.066-.472v.383h0a2.516,2.516,0,0,1,.074-.4v-.729a85.815,85.815,0,0,0,1.223-10.071Zm-1.282,8.672c-.1-2.254-.324-4.5-.648-6.727-.25-1.805-.589-3.581-.973-5.356a18.543,18.543,0,0,1-.479-3.043c-.037-.781.081-3.684,1.569-1.886,1.076,1.3,1.341,4.082,1.473,5.68a28.616,28.616,0,0,1-.1,5.327C85.528,380.171,85.2,382.189,84.895,384.164Z" transform="translate(-62.223 -350.348)" fill="#fff"/>
      <path id="Path_605" data-name="Path 605" d="M83.027,404.619h-.155c-3.846-.192-8.974.169-12.171-2.38-2.365-1.879-4.686-5.6-3.942-8.745.847-3.558,5.651.737,6.918,1.739a117.575,117.575,0,0,1,9.43,9.195l.052.066h0C83.189,404.553,83.108,404.6,83.027,404.619Z" transform="translate(-58.019 -357.24)" fill="#75c28e"/>
      <path id="Path_606" data-name="Path 606" d="M84.179,405.806l-.67-.413c-2.527-1.591-5-3.3-7.367-5.12-.6-.457-4.936-4.31-5.585-2.947-.39.833,1.039,2.527,1.474,3.1a11.9,11.9,0,0,0,2.947,2.615c2.564,1.6,5.68,1.938,8.583,2.711a4.071,4.071,0,0,1,.405.1l.074.044h0C84.127,405.9,84.208,405.85,84.179,405.806Zm-7.618-2.21a12.03,12.03,0,0,1-3.315-2.247c-.648-.611-2.947-2.947-2.321-3.861.324-.5.589-.236,1.2.066a6.925,6.925,0,0,1,.818.472c.648.42,1.238.914,1.842,1.392,1.054.847,2.122,1.665,3.22,2.461q2.685,1.956,5.5,3.684c-2.328-.678-4.745-.958-6.948-1.923Z" transform="translate(-59.038 -358.537)" fill="#fff"/>
      <path id="Path_607" data-name="Path 607" d="M95.948,393.839a22.84,22.84,0,0,1-6.631,11.523l-.074.044a.192.192,0,0,1-.2-.074.162.162,0,0,1,0-.221l.192-.2c.641-5.231,1.341-10.432,1.879-15.678.125-1.238,1.1-9.106,3.514-7.824,1.473.788,1.591,4.015,1.717,5.467A23.031,23.031,0,0,1,95.948,393.839Z" transform="translate(-63.912 -354.387)" fill="#75c28e"/>
      <path id="Path_608" data-name="Path 608" d="M94.574,388.575c-.133-.442-.361-.891-.847-.582-.936.582-1.311,4.288-1.473,5.312-.648,4.214-1.643,8.274-2.66,12.407-.088.346-.169.693-.258,1.046l-.236.317a.162.162,0,0,0,.2.066.736.736,0,0,1,0-.1l.317-.42h0a26.973,26.973,0,0,0,3.831-7.434,25.786,25.786,0,0,0,1.12-5.157A14.437,14.437,0,0,0,94.574,388.575Zm-4.936,17.756c-.044.074-.1.133-.147.206a3.748,3.748,0,0,0,.133-.42,76.784,76.784,0,0,0,2.358-9.578c.28-1.65.457-3.315.8-4.951.14-.693.479-2.667,1.054-2.984s.56.449.619.891c.044.317.044.9.052,1.2a26.523,26.523,0,0,1-4.863,15.634Z" transform="translate(-63.938 -356.13)" fill="#fff"/>
      <path id="Path_609" data-name="Path 609" d="M82.719,410.127h-.737l-.044-2.026c-.1-2.733-.206-5.467-.368-8.2-.088-1.562-.206-3.109-.368-4.642a1.092,1.092,0,0,1,0-.155.948.948,0,0,0-.052-.376,3.81,3.81,0,0,0-.052-.405,33.073,33.073,0,0,0-2.638-10.049c-.494-1.061-1.024-2.1-1.584-3.131l-.169-.295a.2.2,0,0,0-.044-.074c-.052-.111-.111-.206-.169-.309s-.081-.147-.133-.228c-1.776-3.131-3.816-6.122-5.747-9.143-.553-.855-1.105-1.724-1.65-2.593a1.766,1.766,0,0,1-.1-.155c-.044-.059-.081-.125-.125-.192-2.424-3.831-4.811-7.692-7.331-11.449-.1-.133.133-.258.221-.125,1.7,2.5,3.463,4.944,5.216,7.412.228.324.457.663.693.987.464.648.921,1.3,1.378,1.952.914,1.3,1.812,2.608,2.7,3.934a110.085,110.085,0,0,1,7.08,11.456c.155.3.295.6.442.906s.184.383.258.567.206.442.3.663a35.438,35.438,0,0,1,2.586,12.12c0,.287.044.582.059.877v.9h0v.206a4.888,4.888,0,0,0,.037.737c.111,2.733.184,5.467.243,8.193C82.652,408.381,82.689,409.25,82.719,410.127Z" transform="translate(-56.643 -347.872)" fill="#75c28e"/>
      <path id="Path_610" data-name="Path 610" d="M58.058,357.519c-2.107-2.829-4.811-8.679-1.7-11.714a3.3,3.3,0,0,1,4.421-.324c1.643,1.186,2.38,3.426,2.947,5.283,1.422,4.958,2.365,10.005,4.141,14.868,0,0,.147.413.192.516s-.125.147-.162.044l-.177-.472C64.306,363.287,60.556,360.878,58.058,357.519Z" transform="translate(-54.947 -344.781)" fill="#75c28e"/>
      <path id="Path_611" data-name="Path 611" d="M69.089,367.178l-.052-.081a35.933,35.933,0,0,1-1.974-3.684,71.921,71.921,0,0,1-3.028-8.1c-.339-1.061-1.849-6.27-3.684-4.192-.788.877-.678,2.424-.553,3.492a13.158,13.158,0,0,0,1.621,4.877,23.973,23.973,0,0,0,6.992,7.309l.354.317c0,.044.052.081.074.133l.052.081a.1.1,0,0,0,.044.037.125.125,0,0,0,.169-.066A.162.162,0,0,0,69.089,367.178Zm-.825-.575a28,28,0,0,1-5.894-5.946,15.073,15.073,0,0,1-1.93-3.942,11.979,11.979,0,0,1-.413-1.916,8.045,8.045,0,0,1-.088-1.474c.037-1.068.479-2.21,1.112-2.35.781-.14,1.039.317,1.555,1.216a9.2,9.2,0,0,1,.464.936c.346.8.612,1.643.877,2.468.435,1.378.877,2.748,1.378,4.1.332.921.685,1.835,1.083,2.726a36.309,36.309,0,0,0,2.306,4.487Z" transform="translate(-56.201 -346.321)" fill="#fff"/>
      <path id="Path_612" data-name="Path 612" d="M415.477,369c-.354,2.807-.884,5.592-1.473,8.355-.317,1.577-.656,3.146-.973,4.723-.354,1.731-.869,3.492-.4,5.246h0a.994.994,0,0,1,0,.243h0a.206.206,0,0,1-.361-.059.915.915,0,0,1,0-.118v-.037a6.688,6.688,0,0,1-.6-1.473,37.167,37.167,0,0,1-1.4-4.059,35.541,35.541,0,0,1-1.363-8.664,29.588,29.588,0,0,1,.8-7.758c.5-2.033,1.208-5.076,2.733-6.631,1.378-1.407,2.527.847,2.947,2C416.236,363.352,415.8,366.344,415.477,369Z" transform="translate(-148.123 -348.346)" fill="#a4dcb6"/>
      <path id="Path_613" data-name="Path 613" d="M413.336,364.73c-1.024,0-1.768,3.308-2.129,4.737a28.575,28.575,0,0,0-.877,6.889,37.014,37.014,0,0,0,2.122,12.237c.052.155.1.324.162.479v.037a.613.613,0,0,0,0,.111.214.214,0,0,0,.368.066c-.066-.346-.118-.685-.162-1.031s-.066-.619-.088-.928a49.189,49.189,0,0,1,.626-10.13C413.911,373.284,414.7,364.737,413.336,364.73Zm-.737,23.259c.052.457.125.906.214,1.348-.1-.324-.214-.648-.309-.98a40.78,40.78,0,0,1-1.93-10.793,29.4,29.4,0,0,1,.449-6.174,27.875,27.875,0,0,1,.8-3.227c.147-.442.891-3.212,1.518-3.072.449.1.553,2.586.56,2.638V369.2c0,1.031-.081,2.063-.169,3.087-.192,2.21-.516,4.421-.781,6.631a38.442,38.442,0,0,0-.346,9.069Z" transform="translate(-148.502 -350.033)" fill="#fff"/>
      <path id="Path_614" data-name="Path 614" d="M432.686,382.186c-1.879,3.684-5.047,6.476-8.311,8.841-1.753,1.289-3.566,2.5-5.349,3.743a29.225,29.225,0,0,0-4.619,3.551l-.177.192a7.8,7.8,0,0,0-.958,1.319.1.1,0,0,1-.088.059,1.056,1.056,0,0,1-.059.162.037.037,0,0,1-.074,0v-.184h0a.118.118,0,0,1,0-.14.452.452,0,0,0,0-.059,1.473,1.473,0,0,1,0-.177c.53-4.288,3.529-8.62,6.063-11.921a22.779,22.779,0,0,1,9.578-7.728c.987-.376,3.227-1.422,4.222-.619S433.091,381.405,432.686,382.186Z" transform="translate(-149.212 -353.77)" fill="#a4dcb6"/>
      <path id="Path_615" data-name="Path 615" d="M429.809,383.295c-.891-.891-3.522,1.311-4.177,1.827a43.979,43.979,0,0,0-5.445,5.29,39.2,39.2,0,0,0-6.948,10.057h0l-.088.118v.184a.219.219,0,0,0,0,.059.118.118,0,0,0,0,.147c.052-.052.088-.111.133-.155.324-.405.67-.8,1.024-1.179l.177-.192a85.992,85.992,0,0,1,8.1-7.183,40.163,40.163,0,0,0,5.415-5.26C428.394,386.515,430.56,384.046,429.809,383.295Zm-.818,1.938c-2.21,3.684-6.063,6.366-9.327,9.047a44.5,44.5,0,0,0-6.189,5.894,41.775,41.775,0,0,1,6.424-9.047,56,56,0,0,1,4.421-4.546A22.22,22.22,0,0,1,427,384.437a8.754,8.754,0,0,1,1.812-.98C430.059,383.1,429.367,384.628,428.991,385.233Z" transform="translate(-149.238 -354.865)" fill="#fff"/>
      <path id="Path_616" data-name="Path 616" d="M408.961,410.582a.206.206,0,0,1-.192.1l.052.066a.066.066,0,0,1,0,.1.059.059,0,0,1-.088,0c-3.477-3.536-6.822-7.832-8.554-12.525a19.428,19.428,0,0,1-1.245-6.167c-.037-1.474-.11-4.347,1.12-5.4,2.483-2.114,4.752,6.852,5.084,8.2.619,2.468,1.024,4.98,1.591,7.449.626,2.711,1.474,5.371,2.254,8.023a.169.169,0,0,1-.022.155Z" transform="translate(-145.498 -355.746)" fill="#a4dcb6"/>
      <path id="Path_617" data-name="Path 617" d="M409.576,411.794c-.133-.228-.265-.449-.39-.685a41.994,41.994,0,0,1-4.435-12.046,38.311,38.311,0,0,0-1.65-6.27c-.206-.494-.825-2.409-1.643-1.474-.427.508-.074,4.126.1,5.061a26.343,26.343,0,0,0,2.019,6.159,43.628,43.628,0,0,0,5.7,9.246l.192.251a.066.066,0,0,0,0-.1l-.044-.059a.228.228,0,0,0,.162-.088Zm-5.039-7.7a30.745,30.745,0,0,1-2.387-5.975,22.345,22.345,0,0,1-.523-2.512,14.236,14.236,0,0,1-.169-2c0-1.636.147-2.063.42-2.122s.405.147.884,1.12a10.7,10.7,0,0,1,.7,2c.25.965.479,1.938.685,2.91.42,1.952.818,3.92,1.385,5.828a32.181,32.181,0,0,0,3.455,7.832A49.676,49.676,0,0,1,404.537,404.095Z" transform="translate(-146.113 -356.965)" fill="#fff"/>
      <path id="Path_618" data-name="Path 618" d="M423.929,406.183a12.185,12.185,0,0,1-2.277,4.737c-2.063,2.851-4.7,5.216-6.955,7.913-.332.4-.663.81-.98,1.23-.037.044-.295.641-.287.589s.037-.236.11-.619h0c.368-1.886,1.547-7.581,3.028-10.5a25.169,25.169,0,0,1,3.293-5.157c.634-.737,2.137-2.284,3.264-1.945S424.105,405.277,423.929,406.183Z" transform="translate(-149.318 -359.945)" fill="#a4dcb6"/>
      <path id="Path_619" data-name="Path 619" d="M422.1,405.976c-1.208-.737-4.317,4.8-4.737,5.526a35.041,35.041,0,0,0-3.507,8.473c-.1.332-.184.663-.273,1l-.118.619s.265-.538.295-.589l.162-.221.818-1.009c1.348-2.019,2.741-4.023,4.052-6.078a32.913,32.913,0,0,0,2.512-4.619C421.427,408.7,422.635,406.285,422.1,405.976Zm-.346,1.562c-1.717,4.833-5.216,8.642-7.891,12.937l-.133.206.111-.376a40.362,40.362,0,0,1,2.836-7.058,39.474,39.474,0,0,1,2.387-3.978,19.622,19.622,0,0,1,1.474-2.07c.25-.273.958-.995,1.2-.877s.125.884.015,1.2Z" transform="translate(-149.328 -360.873)" fill="#fff"/>
      <path id="Path_620" data-name="Path 620" d="M437.794,351.861c-3.588,8.237-13,12.075-17.078,20.017v.037c-.125.243-.243.486-.361.737a.162.162,0,0,1-.273.044.118.118,0,0,1,0-.133l.088-.184a42.9,42.9,0,0,1,5.032-14.418c2.063-3.8,4.885-7.367,8.789-9.349.965-.494,2.844-1.54,3.92-.737S438.236,350.837,437.794,351.861Z" transform="translate(-151.064 -345.518)" fill="#a4dcb6"/>
      <path id="Path_621" data-name="Path 621" d="M434.559,353.823c-.457-.339-1.149.066-1.54.273a13.75,13.75,0,0,0-2.719,1.857,22.618,22.618,0,0,0-4.339,5.157,46.659,46.659,0,0,0-5.12,10.366c-.273.825-.508,1.658-.737,2.512a1.181,1.181,0,0,1-.074.309.17.17,0,0,0,.273-.037c.11-.25.228-.479.339-.737l.037-.066a27.369,27.369,0,0,1,2.556-4.693,64.093,64.093,0,0,1,5.371-6.366C429.365,361.611,436.135,354.973,434.559,353.823Zm-.575,1.9a30.311,30.311,0,0,1-4.258,5.157c-1.481,1.636-2.991,3.308-4.421,4.988a31.083,31.083,0,0,0-3.139,4.288,24.209,24.209,0,0,0-1.967,3.964A33.89,33.89,0,0,1,421.607,370s0,0,0-.052a61.427,61.427,0,0,1,3.478-6.925.5.5,0,0,0,.044-.088A28.536,28.536,0,0,1,429.1,357.4a15.968,15.968,0,0,1,2.822-2.4c1.179-.737,2.21-1.26,2.5-.884s-.118,1.039-.42,1.606Z" transform="translate(-151.055 -347.127)" fill="#fff"/>
      <path id="Path_622" data-name="Path 622" d="M423.092,366.441c-1.076,2.328-2.107,4.678-3.124,7.043-.486,1.105-.958,2.21-1.429,3.315l-.037.066-.508,1.2a74.014,74.014,0,0,0-4.214,11.147,33.16,33.16,0,0,0-.855,6.189,3.876,3.876,0,0,1-.037.648h0v.354a1.8,1.8,0,0,0,0,.2c-.066,1.805-.037,3.617,0,5.378.052,2.461.258,4.9.494,7.367a1.108,1.108,0,0,0,0,.214q0,.166,0,.332v.479c.081.788.155,1.569.214,2.358h-.737a47.557,47.557,0,0,1-.906-7.25,1.147,1.147,0,0,1,0-.155,6.437,6.437,0,0,0-.044-.737v-.877c0-.737-.044-1.4-.059-2.092a51.631,51.631,0,0,1,.862-12.149,1.309,1.309,0,0,1,.081-.324.478.478,0,0,1,0-.14.406.406,0,0,1,.052-.236l.1-.368c.059-.221.125-.442.192-.663l.059-.192a79.175,79.175,0,0,1,4.141-10.005c.273-.589.553-1.179.833-1.768l.464-.972.737-1.474v-.052c1.149-2.313,2.343-4.6,3.477-6.925C423,366.25,423.144,366.331,423.092,366.441Z" transform="translate(-148.886 -350.447)" fill="#a4dcb6"/>
    </g>
    <g id="freepik--Birds--inject-2" transform="translate(77.368 216.207)">
      <path id="Path_701" data-name="Path 701" d="M282,92.026a17.328,17.328,0,0,1,2.151-.921,9.275,9.275,0,0,1,2.35-.538,1.879,1.879,0,0,1,.737.081.876.876,0,0,1,.228.1l.14.1c.1.066.169.14.258.206.309.28.582.567.855.862.53.6.995,1.216,1.474,1.857l-.582-.206a17.608,17.608,0,0,1,2.4-.508,9.827,9.827,0,0,1,1.253-.088,5.224,5.224,0,0,1,.663.052,1.717,1.717,0,0,1,.361.088,2.653,2.653,0,0,1,.361.169,4.111,4.111,0,0,1,.943.906c.258.324.486.663.737,1a15.134,15.134,0,0,1,1.12,2.137c-.516-.612-1.017-1.238-1.54-1.82-.265-.295-.53-.582-.81-.84a3.837,3.837,0,0,0-.84-.656,2.284,2.284,0,0,0-.943-.1,10.2,10.2,0,0,0-1.12.155c-.737.14-1.518.324-2.262.523l-.368.1-.214-.309c-.435-.619-.9-1.23-1.37-1.812a10.029,10.029,0,0,0-.737-.84c-.059-.052-.125-.125-.184-.169l-.081-.074h0a1.127,1.127,0,0,0-.413-.081,11.177,11.177,0,0,0-2.21.214C283.518,91.731,282.737,91.886,282,92.026Z" transform="translate(-135.748 -90.56)" fill="#263238"/>
      <path id="Path_702" data-name="Path 702" d="M293.49,122.356a25.785,25.785,0,0,1,2.9-1.982,13.521,13.521,0,0,1,3.293-1.473,3.006,3.006,0,0,1,1.1-.1,1.473,1.473,0,0,1,.361.088l.243.111c.162.074.287.155.427.228a18.027,18.027,0,0,1,1.51,1.024c.95.737,1.827,1.474,2.7,2.291l-.921-.133a26.809,26.809,0,0,1,3.382-1.473,15.185,15.185,0,0,1,1.812-.494,6.917,6.917,0,0,1,.995-.125,4.81,4.81,0,0,1,.553,0,4.112,4.112,0,0,1,.575.147,6.285,6.285,0,0,1,1.658,1.061,16.7,16.7,0,0,1,1.334,1.26,23,23,0,0,1,2.262,2.822c-.936-.737-1.842-1.525-2.792-2.21a12.574,12.574,0,0,0-1.429-1,5.666,5.666,0,0,0-1.437-.737,3.279,3.279,0,0,0-1.407.133,13.71,13.71,0,0,0-1.6.553c-1.068.42-2.144.921-3.168,1.429l-.516.258-.405-.39c-.81-.781-1.68-1.54-2.534-2.269a16.038,16.038,0,0,0-1.3-1.017c-.111-.066-.221-.147-.324-.2l-.147-.081h-.059a1.731,1.731,0,0,0-.626,0,17.358,17.358,0,0,0-3.2.973C295.649,121.472,294.6,121.892,293.49,122.356Z" transform="translate(-138.773 -97.992)" fill="#263238"/>
      <path id="Path_703" data-name="Path 703" d="M109.54,204.942a18.417,18.417,0,0,1,1.982-1.26,8.841,8.841,0,0,1,2.21-.921,2.136,2.136,0,0,1,.737-.037,1.156,1.156,0,0,1,.236.066l.162.081c.1.052.184.111.28.162a10.892,10.892,0,0,1,.987.737c.619.5,1.179,1.031,1.753,1.584l-.612-.1a17.241,17.241,0,0,1,2.284-.891,9.26,9.26,0,0,1,1.223-.295,4.723,4.723,0,0,1,.663-.059,3.289,3.289,0,0,1,.368,0,3.744,3.744,0,0,1,.383.111,4.258,4.258,0,0,1,1.083.737c.309.28.589.575.862.869a15.37,15.37,0,0,1,1.473,1.93c-.612-.523-1.2-1.054-1.82-1.54a9.363,9.363,0,0,0-.936-.737,3.927,3.927,0,0,0-.936-.508,2.136,2.136,0,0,0-.943.059,10.666,10.666,0,0,0-1.083.332,20.748,20.748,0,0,0-2.144.891l-.346.155-.258-.265c-.53-.538-1.09-1.068-1.65-1.569a10.507,10.507,0,0,0-.847-.737l-.214-.14-.1-.059h0a1.245,1.245,0,0,0-.42,0,11.67,11.67,0,0,0-2.151.575C111,204.4,110.277,204.677,109.54,204.942Z" transform="translate(-90.348 -120.083)" fill="#263238"/>
      <path id="Path_704" data-name="Path 704" d="M83.49,198.9a25.87,25.87,0,0,1,2.21-2.755,13.7,13.7,0,0,1,2.7-2.387,2.947,2.947,0,0,1,1.017-.42,1.982,1.982,0,0,1,.376,0l.265.037a2.612,2.612,0,0,1,.479.088,17.119,17.119,0,0,1,1.739.53c1.127.405,2.21.884,3.264,1.385l-.914.147a26.029,26.029,0,0,1,2.792-2.38,13.9,13.9,0,0,1,1.591-1.009,6.4,6.4,0,0,1,.906-.42,3.82,3.82,0,0,1,.538-.14,5.218,5.218,0,0,1,.6,0,6.381,6.381,0,0,1,1.893.516,18.094,18.094,0,0,1,1.65.818,22.95,22.95,0,0,1,3,2.019c-1.12-.449-2.21-.906-3.33-1.3-.553-.2-1.113-.39-1.665-.53a5.835,5.835,0,0,0-1.584-.265,3.367,3.367,0,0,0-1.3.553,14.1,14.1,0,0,0-1.37,1c-.891.737-1.768,1.474-2.6,2.306l-.413.4-.5-.25c-1.009-.508-2.063-.98-3.1-1.415a13.74,13.74,0,0,0-1.547-.582,2.266,2.266,0,0,0-.368-.1H89.6a1.643,1.643,0,0,0-.6.192,17.011,17.011,0,0,0-2.763,1.864A31.381,31.381,0,0,0,83.49,198.9Z" transform="translate(-83.49 -117.15)" fill="#263238"/>
      <path id="Path_705" data-name="Path 705" d="M256.31,113.365a26.071,26.071,0,0,1,2.173-2.755,13.8,13.8,0,0,1,2.711-2.394,2.947,2.947,0,0,1,1.017-.413,1.946,1.946,0,0,1,.368,0h.265a2.4,2.4,0,0,1,.479.088,17.261,17.261,0,0,1,1.746.53c1.12.405,2.21.884,3.256,1.385l-.914.147a26.1,26.1,0,0,1,2.8-2.38,14.919,14.919,0,0,1,1.584-1.017,7.443,7.443,0,0,1,.914-.413,3.476,3.476,0,0,1,.53-.14,3.213,3.213,0,0,1,.6,0,6.167,6.167,0,0,1,1.893.516c.575.243,1.12.523,1.65.81a23.244,23.244,0,0,1,3,2.026c-1.12-.449-2.21-.906-3.33-1.3a15.574,15.574,0,0,0-1.665-.53,5.519,5.519,0,0,0-1.577-.265,3.241,3.241,0,0,0-1.3.553,13.178,13.178,0,0,0-1.363,1,33.43,33.43,0,0,0-2.6,2.306l-.42.4-.5-.25c-1.009-.508-2.063-.98-3.094-1.422a15.927,15.927,0,0,0-1.547-.575,2.734,2.734,0,0,0-.368-.1h-.228a1.857,1.857,0,0,0-.6.184,17.558,17.558,0,0,0-2.748,1.79C258.1,111.892,257.216,112.628,256.31,113.365Z" transform="translate(-128.985 -94.622)" fill="#263238"/>
    </g>
    <g id="_1" data-name="1" transform="translate(125.188 189.306)">
      <g id="Group_8923" data-name="Group 8923" transform="translate(0)">
        <g id="Group_8897" data-name="Group 8897" transform="translate(70.963 57.288)">
          <path id="Path_8161" data-name="Path 8161" d="M231.859,350.7a1.435,1.435,0,0,0-1.124.054c-.325-.7-1.294-.081-1.294-.081.02-.318-.467-.413-.467-.413-.562-.19-1.246.874-1.246.874.02-.2-.257-.413-.65-.433s-.772.528-.772.528a5.847,5.847,0,0,1-1.565,1.456,14.5,14.5,0,0,1-1.544.169c-1.145.014-4.4-.528-4.226-1.206s4.551-1.327,4.077-2.723c0,0-.122-.372-1.6-.149s-7.078,1.714-8.2,1.93a6.95,6.95,0,0,0-4.233,2.8,2.9,2.9,0,0,0,.555,4.578l2.553.284s13.3-2.553,17.474-4.524C229.6,353.842,233.152,351.77,231.859,350.7Z" transform="translate(-153.393 -348.705)" fill="#e5c5b8"/>
          <path id="Path_8162" data-name="Path 8162" d="M237.751,359.461s24.233,16.512,26.36,18.253c0,0,13.329-11.561,19.14-17.284,0,0,1.361-1.625,2.337-.887l3.068-2.892c3.969.244,6.827,5.039,6.827,5.039l-2.811,3.752a2.1,2.1,0,0,1-.122,2.377s-18.741,25.364-26.888,26.475c-9.814,1.341-29.022-11.466-29.022-11.466S231.906,367.94,237.751,359.461Z" transform="translate(-234.83 -351.269)" fill="#fff"/>
        </g>
        <g id="Group_8899" data-name="Group 8899" transform="translate(0 65.48)">
          <g id="Group_8898" data-name="Group 8898" transform="translate(0.485 84.848)">
            <path id="Path_8163" data-name="Path 8163" d="M413.842,490.061S410.984,505.537,418.9,508c0,0,2.621,1,3.488.752a1.422,1.422,0,0,0-.427-1.653c-.853-.867-2.96-1.917-2.77-3.21s.264-5.181,1-4.876,1.253,5.31,2.919,5.025c0,0,.447-.068.461-1.781s-.765-8.337-1.267-9.536a25.19,25.19,0,0,1-.806-4.8s-3.982-3.637-6.861-.7Z" transform="translate(-413.34 -486.076)" fill="#e5c5b8"/>
          </g>
          <path id="Path_8164" data-name="Path 8164" d="M406.945,360.8s-5.046,3.014-5.845,10.8c-.779,7.559-3.569,18.592-5.7,33.83a290,290,0,0,0-6.935,33.769c-.257,1.795,1.124,2.262.969,3.664-.156,1.422-.352,2.851-.522,4.294,0,0,2.012,2.912,8.913,2.039,0,0,.515-1.727,1.368-4.565.318-1.063,2.276-.332,2.716-2.431,1.822-8.8,10.044-40.177,12.029-46.99C416.658,385.88,418.622,365.243,406.945,360.8Z" transform="translate(-388.43 -360.8)" fill="#fff"/>
        </g>
        <g id="Group_8922" data-name="Group 8922" transform="translate(15.86)">
          <g id="Group_8901" data-name="Group 8901" transform="translate(3.61 272.994)">
            <path id="Path_8165" data-name="Path 8165" d="M390.478,667.19l-1.4,9.475-7.166-.887.691-8.588Z" transform="translate(-377.948 -667.19)" fill="#ea997d"/>
            <g id="Group_8900" data-name="Group 8900" transform="translate(0 6.243)">
              <path id="Path_8166" data-name="Path 8166" d="M396.073,693.5a5.107,5.107,0,0,1-5.649,2.973c-4.192-.684-3.393-4.267-3.393-4.267Z" transform="translate(-386.97 -681.508)" fill="#2b2538"/>
              <path id="Path_8167" data-name="Path 8167" d="M383.955,683.717c1.009-2.133,3.217-6.014,3.217-6.014,3.772-2.228,6.048-1.117,7.118-.095l.129.108s.108.041.3-.969a9.88,9.88,0,0,1-.169,3.617h0a12.881,12.881,0,0,0-1.4,5.046c-.271,4.592-3.684,5.723-7.206,4.9S382.953,685.851,383.955,683.717Z" transform="translate(-383.163 -676.408)" fill="#3b3348"/>
            </g>
            <path id="Path_8168" data-name="Path 8168" d="M395.646,691.164s-5.561,2.5-7.47-.914c0,0-1.253,2.479,2.933,3.176C393.838,693.88,395.646,691.164,395.646,691.164Z" transform="translate(-387.241 -674.632)" fill="#4f475e"/>
          </g>
          <g id="Group_8903" data-name="Group 8903" transform="translate(45.826 273.529)">
            <path id="Path_8169" data-name="Path 8169" d="M332.6,667.98l-.095,8.866h-7.863l-.156-8.866Z" transform="translate(-323.4 -667.98)" fill="#ea997d"/>
            <g id="Group_8902" data-name="Group 8902" transform="translate(0 6.061)">
              <path id="Path_8170" data-name="Path 8170" d="M307.21,684.8l.156,2.133a8.549,8.549,0,0,0,4.606,1.131s2.479-.887,3.874.339c2.628,2.31,11.107,4.05,11.988.955Z" transform="translate(-306.926 -679.469)" fill="#2b2538"/>
              <path id="Path_8171" data-name="Path 8171" d="M307.452,677.065s-1.043,5.005-.2,5.723,6.373,1.625,9.164,3.055,11.182,2.994,11.575.582-3.055-3.9-5.4-4.809-4.68-4.159-5.913-4.551c0,0-1.185-.522-3.265.833C312.119,678.738,308.881,676.347,307.452,677.065Z" transform="translate(-306.924 -676.929)" fill="#3b3348"/>
            </g>
            <path id="Path_8172" data-name="Path 8172" d="M313.664,687.41s-1.145,1.984-6.245,1.375c0,0,4.87,1.327,7.233.183A4.261,4.261,0,0,0,313.664,687.41Z" transform="translate(-293.888 -674.25)" fill="#4f475e"/>
          </g>
          <g id="Group_8916" data-name="Group 8916" transform="translate(3.057)">
            <g id="Group_8904" data-name="Group 8904" transform="translate(0)">
              <g id="_x3F__x3F__x3F__x3F__x3F__x3F__x5F__x3F__x3F__x3F__x3F__x3F__x3F__x3F__x5F_2_x5F__7_">
                <path id="Path_8173" data-name="Path 8173" d="M325.305,298.716c-1.348,2.526-6.9,15.171,5.811,32.584a.886.886,0,0,0,.657.359l30.871,1.8a.862.862,0,0,0,.759-.359l4.714-6.434a.894.894,0,0,0,.142-.3c.454-1.808,9.685-17.156,7.3-24.369a.159.159,0,0,1-.014-.054c-.169-.657-3.027-13.153.3-19.255a.6.6,0,0,0,.061-.135c.237-.7-.23-5.9-2.438-8.107,0,0-13.485-9.983-18.266-9.8a.9.9,0,0,1-.19-.014c-1.023-.169-10.234-1.585-13.776,1.206a.884.884,0,0,1-.549.19h-1.158a.921.921,0,0,1-.2-.02c-.61-.142-4.037-.833-5.174,1.145,0,0-5.357,9.685-8.087,11.792a1.126,1.126,0,0,0-.156.156c-.535.7-3.725,5.059-2.784,8.371a.93.93,0,0,1,.034.19c.054.887.528,7.606,2.106,10.166A.9.9,0,0,1,325.305,298.716Z" transform="translate(-322.938 -264.119)" fill="#fff"/>
                <path id="Path_8174" data-name="Path 8174" d="M359.949,317.318c3.773,16.356,15.232,19.865,15.232,19.865l2.039-15.652s-6.475,4.937-12.259-11.859l-1.571-11.162C363.4,298.51,359.481,308.825,359.949,317.318Z" transform="translate(-349.237 -275.218)" fill="#e2e0e0"/>
              </g>
              <path id="Path_8175" data-name="Path 8175" d="M330.373,293.567s-.643-6.861,3.6-7.531c2.012.332,8.839-2.33,8.839-2.33a6.752,6.752,0,0,1,6.258,2.012,6.23,6.23,0,0,0,3.576,1.788l2.343.224,2.012.894,3.129-1.26c4.131.7,9.943-3.772,9.943-3.772,6.143-2.906,7.078,2.14,7.078,2.14.461,1.653,3.271,12.374-3.183,20.786-1.957,2.547-5.466,13.722-7.362,14.792l-.65-8.446,5.229-23.956-.034-3.427a4.02,4.02,0,0,0-4.2,1.463c-1.9,2.235-20.786-.894-20.786-.894l-3.921-.041.379,7.1-2.946,1.91s-1.876-5.025-1.9-6.617C337.756,285.277,331.247,288.27,330.373,293.567Z" transform="translate(-330.146 -270.112)" fill="#e2e0e0"/>
              <path id="Path_8176" data-name="Path 8176" d="M382.522,294.051s-.224-5.77,3.6-7.531c1.849-.853,8.839-2.33,8.839-2.33" transform="translate(-382.295 -270.596)" fill="#e2e0e0"/>
            </g>
            <path id="Path_8177" data-name="Path 8177" d="M339.3,344.457l13.085,7.037,14.487-7.382L362.7,337.3c-1.5-.684-1.307-2.316-1.307-3.962V320H342.564v13.315c0,1.659,1.768,3.156.257,3.833Z" transform="translate(-324.931 -282.153)" fill="#e5c5b8"/>
            <path id="Path_8178" data-name="Path 8178" d="M347.39,321.61v5.012a19.258,19.258,0,0,0,3.962,4.423,9.231,9.231,0,0,0,5.533,1.91h.251a9.19,9.19,0,0,0,5.547-1.734,18.056,18.056,0,0,0,3.535-3.542v-5.371Z" transform="translate(-329.756 -282.672)" fill="#ccaa9f"/>
            <g id="Group_8914" data-name="Group 8914" transform="translate(8.079 2.885)">
              <g id="Group_8913" data-name="Group 8913" transform="translate(0)">
                <g id="Group_8912" data-name="Group 8912" transform="translate(0)">
                  <g id="Group_8906" data-name="Group 8906" transform="translate(0 19.571)">
                    <path id="Path_8179" data-name="Path 8179" d="M379.311,305.128c1.4,2.526,3.745,3.657,5.242,2.533s1.463-5.391.061-7.917-4.1-3.027-5.6-1.9S377.909,302.6,379.311,305.128Z" transform="translate(-378.06 -297.275)" fill="#e5c5b8"/>
                    <path id="Path_8180" data-name="Path 8180" d="M381,305.209c1.057,1.9,2.818,2.75,3.949,1.9s.291-1.849-.759-3.752-2.282-4.484-3.407-3.63S379.953,303.306,381,305.209Z" transform="translate(-379.237 -298.013)" fill="#dbbaad"/>
                    <g id="Group_8905" data-name="Group 8905" transform="translate(0.577 1.442)">
                      <path id="Path_8181" data-name="Path 8181" d="M383.484,302.957a.28.28,0,0,1-.251-.149,3,3,0,0,1-.19-2.4,1.4,1.4,0,0,1,.7-.874c1.6-.7,2.824,1.727,2.878,1.835a.29.29,0,0,1-.129.386.284.284,0,0,1-.386-.129c-.014-.02-1.029-2.039-2.14-1.558a.888.888,0,0,0-.372.535,2.383,2.383,0,0,0,.149,1.923.286.286,0,0,1-.108.393A.33.33,0,0,1,383.484,302.957Z" transform="translate(-382.877 -299.404)" fill="#ba7566"/>
                      <path id="Path_8182" data-name="Path 8182" d="M383.406,307.384a.288.288,0,0,1-.264-.169,3.07,3.07,0,0,1-.264-2.52,1.792,1.792,0,0,1,.989-.941.292.292,0,0,1,.366.19.286.286,0,0,1-.183.359h0a1.172,1.172,0,0,0-.643.63,2.605,2.605,0,0,0,.264,2.032.289.289,0,0,1-.142.386A.412.412,0,0,1,383.406,307.384Z" transform="translate(-380.361 -300.803)" fill="#ba7566"/>
                    </g>
                  </g>
                  <g id="Group_8908" data-name="Group 8908" transform="translate(30.549 19.325)">
                    <path id="Path_8183" data-name="Path 8183" d="M339.414,304.74c-1.361,2.547-3.691,3.718-5.2,2.614s-1.537-5.371-.176-7.917,4.057-3.088,5.567-1.978S340.776,302.193,339.414,304.74Z" transform="translate(-333.047 -296.912)" fill="#e5c5b8"/>
                    <path id="Path_8184" data-name="Path 8184" d="M338.73,304.823c-1.023,1.917-2.777,2.79-3.915,1.964s-.325-1.849.7-3.759,2.215-4.518,3.353-3.684S339.752,302.913,338.73,304.823Z" transform="translate(-332.89 -297.645)" fill="#dbbaad"/>
                    <g id="Group_8907" data-name="Group 8907" transform="translate(3.11 1.436)">
                      <path id="Path_8185" data-name="Path 8185" d="M337.087,302.566a.364.364,0,0,1-.142-.034.289.289,0,0,1-.115-.393,2.381,2.381,0,0,0,.115-1.93.9.9,0,0,0-.366-.522c-1.118-.467-2.12,1.565-2.133,1.585a.289.289,0,0,1-.522-.251c.047-.1,1.239-2.553,2.865-1.869a1.414,1.414,0,0,1,.7.853,2.99,2.99,0,0,1-.149,2.411A.28.28,0,0,1,337.087,302.566Z" transform="translate(-333.809 -299.032)" fill="#ba7566"/>
                      <path id="Path_8186" data-name="Path 8186" d="M338.2,307.044a.266.266,0,0,1-.122-.027.3.3,0,0,1-.149-.379,2.575,2.575,0,0,0,.23-2.045,1.18,1.18,0,0,0-.65-.61.287.287,0,0,1,.169-.549,1.738,1.738,0,0,1,1,.928,3.071,3.071,0,0,1-.23,2.52A.267.267,0,0,1,338.2,307.044Z" transform="translate(-337.307 -300.449)" fill="#ba7566"/>
                    </g>
                  </g>
                  <path id="Path_8187" data-name="Path 8187" d="M337.94,284.282c.061,8.723,6.556,27.8,16.248,27.728,9.645-.074,15.395-19.248,15.327-27.965a15.436,15.436,0,0,0-.589-4.145,15.787,15.787,0,0,0-30.756,1.571A15.39,15.39,0,0,0,337.94,284.282Z" transform="translate(-334.731 -268.379)" fill="#e5c5b8"/>
                  <g id="Group_8911" data-name="Group 8911" transform="translate(6.392 17.795)">
                    <path id="Path_8188" data-name="Path 8188" d="M366.54,298.652c.251.278.3.637.108.806s-.542.074-.786-.2-.3-.637-.108-.806S366.29,298.368,366.54,298.652Z" transform="translate(-357.133 -295.851)" fill="#ccaa9f"/>
                    <path id="Path_8189" data-name="Path 8189" d="M375.6,295.171l.1,1.605a.153.153,0,0,1-.183.163c-1.029-.176-5.784-.494-8.2.251-.163.047-.433-.61-.3-.718.962-.813,3.556-2.235,8.446-1.443A.152.152,0,0,1,375.6,295.171Z" transform="translate(-366.989 -294.7)" fill="#2b2228"/>
                    <path id="Path_8190" data-name="Path 8190" d="M356.288,298.579c-.244.284-.284.643-.095.806s.542.068.786-.217.284-.643.095-.806S356.532,298.294,356.288,298.579Z" transform="translate(-341.083 -295.825)" fill="#ccaa9f"/>
                    <path id="Path_8191" data-name="Path 8191" d="M343.614,295.071l-.074,1.605a.156.156,0,0,0,.183.163c1.029-.19,5.777-.576,8.2.129.163.047.427-.616.3-.725-.969-.792-3.59-2.181-8.466-1.314A.142.142,0,0,0,343.614,295.071Z" transform="translate(-327.651 -294.654)" fill="#2b2228"/>
                    <g id="Group_8909" data-name="Group 8909" transform="translate(3.561 3.734)">
                      <path id="Path_8192" data-name="Path 8192" d="M372.724,301.49a.282.282,0,0,1-.223-.115h0a1.751,1.751,0,0,0-2.5-.291.273.273,0,0,1-.372-.081.263.263,0,0,1,.081-.366,2.292,2.292,0,0,1,3.224.433.264.264,0,0,1-.068.372A.225.225,0,0,1,372.724,301.49Z" transform="translate(-369.587 -300.167)" fill="#2b2228"/>
                      <path id="Path_8193" data-name="Path 8193" d="M370.446,302.169c.081.9.7,1.578,1.368,1.517a1.478,1.478,0,0,0,1.07-1.741c-.081-.9-.7-1.578-1.368-1.517A1.478,1.478,0,0,0,370.446,302.169Z" transform="translate(-370.072 -300.25)" fill="#2b2228"/>
                    </g>
                    <g id="Group_8910" data-name="Group 8910" transform="translate(18.143 3.757)">
                      <path id="Path_8194" data-name="Path 8194" d="M348.633,301.555a.309.309,0,0,1-.149-.041.269.269,0,0,1-.088-.372,2.159,2.159,0,0,1,1.3-.908,2.223,2.223,0,0,1,1.741.474.272.272,0,0,1-.318.44,1.706,1.706,0,0,0-1.314-.386,1.6,1.6,0,0,0-.948.664A.261.261,0,0,1,348.633,301.555Z" transform="translate(-348.354 -300.201)" fill="#2b2228"/>
                      <path id="Path_8195" data-name="Path 8195" d="M351.465,302.356c-.1.935-.731,1.632-1.4,1.558s-1.131-.894-1.029-1.829.731-1.632,1.4-1.558S351.566,301.415,351.465,302.356Z" transform="translate(-348.734 -300.305)" fill="#2b2228"/>
                    </g>
                    <path id="Path_8196" data-name="Path 8196" d="M362.5,309.975a.272.272,0,0,1-.1-.02,2.436,2.436,0,0,0-.569-.095,3.611,3.611,0,0,1-.379-.041,1.22,1.22,0,0,1-1.029-.731,1.443,1.443,0,0,1-.041-.576c.068-.914.183-1.842.284-2.743a24.8,24.8,0,0,0,.2-6.678.29.29,0,0,1,.244-.332.3.3,0,0,1,.332.244,25.365,25.365,0,0,1-.19,6.834c-.108.894-.217,1.815-.284,2.716a.929.929,0,0,0,.014.345c.068.2.339.3.576.345a2.748,2.748,0,0,0,.332.034,2.66,2.66,0,0,1,.718.122.3.3,0,0,1-.1.576Z" transform="translate(-349.587 -295.978)" fill="#ba7566"/>
                    <path id="Path_8197" data-name="Path 8197" d="M348.39,307c.007.467-.7.853-1.578.86s-1.585-.366-1.592-.84.7-.853,1.578-.86S348.383,306.526,348.39,307Z" transform="translate(-324.929 -298.367)" fill="#ccaa9f"/>
                    <path id="Path_8198" data-name="Path 8198" d="M375.38,307.4c.007.467-.7.853-1.578.86s-1.585-.373-1.592-.84.7-.853,1.578-.86S375.38,306.926,375.38,307.4Z" transform="translate(-370.199 -298.496)" fill="#ccaa9f"/>
                  </g>
                </g>
              </g>
              <path id="Path_8199" data-name="Path 8199" d="M358.744,323.448a14.779,14.779,0,0,0,1.68-.047,3.2,3.2,0,0,0,1.517-.379.333.333,0,1,0-.359-.562,2.568,2.568,0,0,1-1.206.278,5.955,5.955,0,0,1-3.549-.461.33.33,0,0,0-.345.562A4.644,4.644,0,0,0,358.744,323.448Z" transform="translate(-339.762 -285.757)" fill="#ba7566"/>
            </g>
            <path id="Path_8200" data-name="Path 8200" d="M341.295,287.947a6.406,6.406,0,0,1-1.463,3.732,10.848,10.848,0,0,0-.677,5.371c1.443,12.469,6.38,11.893,6.38,11.893,6.333-2.729,7.24-1.057,7.24-1.057s1.057-1.632,7.382,1.1c0,0,4.937.576,6.38-11.893,0,0,.034-2.3-1.91-9.15h4.578a26.079,26.079,0,0,1-.637,6.041s-1.158.549-1.463,3.1-1.443,11.433-1.443,11.433a4.543,4.543,0,0,1-.427,1.422c-.84,1.741-3.251,6.224-6.773,8.791a9.19,9.19,0,0,1-5.547,1.734h-.251a9.187,9.187,0,0,1-5.533-1.91c-3.84-2.987-6.245-8.371-6.739-9.536a2.159,2.159,0,0,1-.129-.454s-1.449-9.7-1.693-11.521c-.379-2.926-1.6-3.007-1.6-3.007s-.135-2.865-.224-6.1h4.545Zm6.854,23.779c.562,1.26,1.009,2.4,3.217,2.831l.9-.576.433.014h.135l.433-.014.9.576a4.312,4.312,0,0,0,3.217-2.831c.42-.772.095-1.2.095-1.2a12.5,12.5,0,0,1-3.116-1.009,1.374,1.374,0,0,0-1.294-.061.915.915,0,0,1-.643-.007,1.3,1.3,0,0,0-1.246.061,12.5,12.5,0,0,1-3.116,1.009S347.79,310.92,348.149,311.726Z" transform="translate(-325.537 -271.807)" fill="#2b2228"/>
            <path id="Path_8201" data-name="Path 8201" d="M336.5,287.426l-.278-8.066,33.085.691-.366,7.111C368.946,287.169,356.315,280.782,336.5,287.426Z" transform="translate(-325.278 -269.038)" fill="#fcfdff"/>
            <path id="Path_8202" data-name="Path 8202" d="M337.976,279.4a1.941,1.941,0,0,1,.86.372,4.311,4.311,0,0,0,2.445.9,6.8,6.8,0,0,1,4.68,2.147,6.23,6.23,0,0,0,3.576,1.788l1.686.3,2.167,3.393a1.326,1.326,0,0,0,1.673.041l2.56-3.583c4.138.7,9.353-4.064,9.353-4.064a33.517,33.517,0,0,1,3.969-1.754l.041-.826c-2.228-6.231-9.99-9.78-16.993-9.733-7.186.061-15.449,3.9-17.637,10.329C336.1,279.413,337.238,279.3,337.976,279.4Z" transform="translate(-327.027 -265.494)" opacity="0.1"/>
            <g id="Group_8915" data-name="Group 8915" transform="translate(0.021 0.012)">
              <path id="Path_8203" data-name="Path 8203" d="M335.266,280.123a39.045,39.045,0,0,1,8.615-2.411,6.752,6.752,0,0,1,6.258,2.012,6.23,6.23,0,0,0,3.576,1.788l1.693.3,2.161,3.393a1.326,1.326,0,0,0,1.673.041l2.553-3.59c4.131.7,9.347-4.057,9.347-4.057,6.143-2.906,7.078,2.14,7.078,2.14a21.264,21.264,0,0,0,.366-5.134s-10.471-10.274-15.212-9.943c0,0-10.539-1.842-14.094,1.382H347.7s-4.016-1.057-5.269,1.118c0,0-5.466,9.882-8.168,11.852,0,0-3.949,4.937-2.831,8.561C331.44,287.58,331.406,282.419,335.266,280.123Z" transform="translate(-331.234 -264.136)" fill="#fff"/>
              <path id="Path_8204" data-name="Path 8204" d="M367.933,282.324s-7.152,1.68-13.5.047a2.371,2.371,0,0,1-1.057-.589,12.778,12.778,0,0,1-1.9-2.276,5.132,5.132,0,0,1-.643-1.625c-.2-.962-.752-2.919-1.8-3.271,0,0,2.682,1.9,20.786,1C369.836,275.619,369.836,282.209,367.933,282.324Z" transform="translate(-334.5 -267.516)" fill="#292728"/>
              <path id="Path_8205" data-name="Path 8205" d="M364.771,272.463s-1.192-7.233-14.731-5.533a31.718,31.718,0,0,1,8.344-1.531C363.267,265.5,371.753,272.124,364.771,272.463Z" transform="translate(-332.773 -264.543)" fill="#e2e0e0"/>
              <path id="Path_8206" data-name="Path 8206" d="M380.664,267.69s-4.633.528-3.535,3.055A19.561,19.561,0,0,1,380.664,267.69Z" transform="translate(-364.25 -265.283)" fill="#292728"/>
            </g>
          </g>
          <path id="Path_8207" data-name="Path 8207" d="M348.072,338s-10.742,1.531-19.6-.041l-.4,4.809s-8.812,5.947-17.2,10.66c0,0,.914,42.4,1.449,61.376,0,0-3.312,142.2-4.118,152.471a7.487,7.487,0,0,0,6.312,2.411c4.03-.406,4-.339,10.274.6,7.139,1.077,9.231-1.124,15.774-1.253a96.437,96.437,0,0,1,14.717,1.253c7.958.941,9-1.226,12.943-.6,5.906.928,6.041-1.077,6.041-1.077s-9.909-131.061-10.417-153.981c0,0,1.781-51.23,2.377-61.2,0,0-9.733-6.664-17.718-11.229Z" transform="translate(-308.2 -287.949)" fill="#fff"/>
          <path id="Path_8208" data-name="Path 8208" d="M322.229,666.524c-.345-.034-.711-.088-1.1-.149-2.208-.345-3.5.176-5.615.542l2.032-29.347Z" transform="translate(-261.117 -384.637)" fill="#e2e0e0"/>
          <g id="Group_8917" data-name="Group 8917" transform="translate(30.112 59.221)">
            <path id="Path_8209" data-name="Path 8209" d="M360.667,393.734h0c.149,0,.271-.081.271-.2l-.183-41.755a.235.235,0,0,0-.271-.217.242.242,0,0,0-.264.23l.183,41.748C360.4,393.653,360.525,393.734,360.667,393.734Z" transform="translate(-360.22 -351.558)" fill="#e2e0e0"/>
          </g>
          <g id="Group_8918" data-name="Group 8918" transform="translate(6.16 105.355)">
            <path id="Path_8210" data-name="Path 8210" d="M389.854,430.975a.264.264,0,0,0,.244-.163.268.268,0,0,0-.142-.352,33.348,33.348,0,0,1-13.038-10.667.269.269,0,1,0-.447.3c.047.074,5.818,8.378,13.268,10.864A1.052,1.052,0,0,0,389.854,430.975Z" transform="translate(-376.427 -419.675)" fill="#e2e0e0"/>
          </g>
          <g id="Group_8919" data-name="Group 8919" transform="translate(34.757 136.896)">
            <path id="Path_8211" data-name="Path 8211" d="M345.546,492.154a.266.266,0,0,0,.264-.244,110.245,110.245,0,0,1,5.642-25.3.268.268,0,0,0-.5-.19,110.125,110.125,0,0,0-5.676,25.446.267.267,0,0,0,.244.291Z" transform="translate(-345.274 -466.244)" fill="#e2e0e0"/>
          </g>
          <path id="Path_8212" data-name="Path 8212" d="M375.627,643.13c-3.779.616-6.285,1.693-11.7.887l8.615-77.617Z" transform="translate(-347.309 -361.67)" fill="#e2e0e0"/>
          <g id="Group_8920" data-name="Group 8920" transform="translate(56.811 74.149)">
            <path id="Path_8213" data-name="Path 8213" d="M320.3,387.477l.522-13.627a.256.256,0,0,1,.278-.251.278.278,0,0,1,.257.291l-.521,13.668A2.267,2.267,0,0,0,320.3,387.477Z" transform="translate(-320.3 -373.598)" fill="#e2e0e0"/>
          </g>
          <g id="Group_8921" data-name="Group 8921" transform="translate(2.594 74.948)">
            <path id="Path_8214" data-name="Path 8214" d="M400.919,416.8h.007a.291.291,0,0,0,.264-.3l-.969-41.45a.271.271,0,1,0-.542,0l.969,41.463A.294.294,0,0,0,400.919,416.8Z" transform="translate(-399.68 -374.779)" fill="#e2e0e0"/>
          </g>
        </g>
      </g>
      <g id="Group_8924" data-name="Group 8924" transform="translate(45.884 50.005)">
        <path id="Path_8215" data-name="Path 8215" d="M349.353,346.01l7.145-3.6-.339-4.457-.264.027.325,4.3-6.753,3.339-2.994-6.78-.284.007Z" transform="translate(-346.19 -337.95)" fill="#e2e0e0"/>
      </g>
      <g id="Group_8925" data-name="Group 8925" transform="translate(35.603 50.018)">
        <path id="Path_8216" data-name="Path 8216" d="M368.694,346.016l3.21-7.159-.284-.014-3.034,6.78-6.245-2.912.42-4.721-.257-.02-.433,4.87Z" transform="translate(-362.07 -337.97)" fill="#e2e0e0"/>
      </g>
    </g>
    <g id="Group_8858" data-name="Group 8858" transform="translate(220.897 97.304)">
      <g id="Group_8850" data-name="Group 8850" transform="translate(84.383 -2.219)">
        <rect id="Rectangle_2979" data-name="Rectangle 2979" width="122.72" height="20.875" transform="translate(122.721 20.875) rotate(180)" fill="#6f7d82"/>
        <path id="Path_7644" data-name="Path 7644" d="M504.274,109.409h-64.44a2.411,2.411,0,0,1-2.415-2.415h0a2.411,2.411,0,0,1,2.415-2.415h64.44a2.411,2.411,0,0,1,2.415,2.415h0A2.423,2.423,0,0,1,504.274,109.409Z" transform="translate(-391.624 -99.751)" fill="#939da0"/>
      </g>
      <g id="Group_8852" data-name="Group 8852" transform="translate(-4 28.927)">
        <path id="Path_7645" data-name="Path 7645" d="M296.376,196.41h0a98.279,98.279,0,0,1,17.853-25.551c12.111-12.529,13.155-18.46,13.95-24.719a73.248,73.248,0,0,0,.637-10.69h7.606s-1.59,15.115,9.573,25.387,21.75,23.875,26.9,35.573h0a43.116,43.116,0,1,1-76.518,0Z" transform="translate(-291.52 -135.45)" fill="#a4eaff"/>
        <g id="Group_8851" data-name="Group 8851" transform="translate(5.943 43.471)">
          <path id="Path_7646" data-name="Path 7646" d="M339.919,210.05c.079.644,1.281,1.845,1.281,1.845v1.536h0a21.054,21.054,0,0,0-11.88,5.378,7.376,7.376,0,0,0-.625-.8,15.066,15.066,0,0,1-2.465-2.938A37.2,37.2,0,0,1,340,208.69,7.921,7.921,0,0,0,339.919,210.05Z" transform="translate(-311.102 -207.7)" fill="#1239c6"/>
          <path id="Path_7647" data-name="Path 7647" d="M321.011,268.886c-.753.055-1.645.146-2.367.212-1.323.121-.358.079-1.681,1.524s-.4.121-1.36.4-.759-.121-1.56-.48-.759-.88-1.882-2.325-1.961-.279-3.126-.4-1.36-.644-2-1.682-.043-1.645-.243-2.647-1.8-2.483-1.6-3.369a4.391,4.391,0,0,0-.243-2.246c-.2-.923,2.246-1.524,2.246-1.524a3.887,3.887,0,0,1,2,1.524c.6,1.08-.358,1.76-.88,3.606s.443.959,1.924,1.123,1.56-.158,2.483.158.322.558.558,1.924,0,.759.243,1.924.643.443,1.524.479.48-.322,1.032-.959-.073-.6,0-1.76-.71-1.232-.71-1.232a4.2,4.2,0,0,1,.443-1.487A21.09,21.09,0,0,0,321.011,268.886Z" transform="translate(-302.733 -226.429)" fill="#1239c6"/>
          <path id="Path_7648" data-name="Path 7648" d="M369.213,212.135a3.939,3.939,0,0,1-.832,1.845s-3.746-.024-4.347,2.149h0a21.039,21.039,0,0,0-11.619-3.478,21.64,21.64,0,0,0-2.361.134h0v-1.536s-1.2-1.2-1.281-1.845a7.961,7.961,0,0,1,.085-1.36,37.308,37.308,0,0,1,19,.522c.079.249.176.528.3.838C368.691,210.69,369.371,211.048,369.213,212.135Z" transform="translate(-319.957 -207.06)" fill="#c2f2f1"/>
          <path id="Path_7649" data-name="Path 7649" d="M386.69,234.711a3.3,3.3,0,0,0,2.2-1.609c.965-1.2.115-.68.595-1.524s1.044-.48,1.845-.243.88,1.081,1.2,2.325.558.923,1.445,1.76.844.759,1.044,1.123-.042,1.2-.48,2.847,0,0-.558.844a4.217,4.217,0,0,1-1.524,1.445c-.6.4-1.645-.4-2-1.445s-.2-1.36-.722-3.047c-.407-1.305-.765-.346-1.991.473a22.083,22.083,0,0,0-1.05-2.95Z" transform="translate(-334.86 -216.487)" fill="#1239c6"/>
          <path id="Path_7650" data-name="Path 7650" d="M316.438,219.19a15.083,15.083,0,0,0,2.465,2.938,8.4,8.4,0,0,1,.625.8,21.163,21.163,0,0,0-5.148,24.112,4.2,4.2,0,0,0-.443,1.487s.783.067.71,1.232.552,1.123,0,1.76-.152,1-1.032.959-1.281.68-1.524-.48,0-.558-.243-1.924.358-1.6-.559-1.924-1,0-2.483-.158-2.446.722-1.924-1.123,1.481-2.525.88-3.606a3.887,3.887,0,0,0-2-1.524s-2.446.6-2.246,1.524a4.385,4.385,0,0,1,.243,2.246c-.2.88,1.4,2.367,1.6,3.369s-.4,1.6.243,2.647.844,1.56,2,1.682,2-1.044,3.126.4,1.081,1.961,1.882,2.325.6.759,1.56.48.042,1.044,1.36-.4.358-1.4,1.682-1.524c.722-.067,1.615-.158,2.367-.213a21.183,21.183,0,0,0,7.278,4.3,4.067,4.067,0,0,0,.055,1.16,3.549,3.549,0,0,0,.959,2.367c.558.559,1.244-.8,1.445,1.36s.643,2.125,0,3.606-1.244,1.682-1.2,2.726.158,1.924.158,1.924a9.036,9.036,0,0,1-2.647,1.76c-1.159.358-.559.6-2.647.158s-1.4-.88-3.685-.559-3.484.243-4.249.8-2.841.146-4.164.31a37.367,37.367,0,0,1,5.555-55Z" transform="translate(-301.31 -211.827)" fill="#0ba864"/>
          <path id="Path_7651" data-name="Path 7651" d="M321.268,291.155c.759-.558,1.961-.48,4.249-.8s1.6.121,3.685.559,1.481.2,2.647-.158a9.13,9.13,0,0,0,2.647-1.76s-.121-.88-.158-1.924.559-1.244,1.2-2.726.2-1.445,0-3.606-.88-.8-1.445-1.36a3.535,3.535,0,0,1-.959-2.367,4.3,4.3,0,0,1-.055-1.159,21.164,21.164,0,0,0,26.777-12.712c1.566.146,1.287,1.008,1.287,1.008a17.539,17.539,0,0,1,2.283,3.527c.759,1.724.443.844,1.445,1.123s.844-.121,1.6-.558a5.753,5.753,0,0,1,2.568-.243s.079.759.079,3.126,3.126.88,3.126.88l2-.959,2.726-.643,1.2,2.167a15.1,15.1,0,0,1-1.2,3.126c-1.159,2.6-.759.443-3.205,1.323s-1.281.722-1.36,2.125-.48.722-1.6,1.924-1.159.68-2,1.044-1.924-.48-1.924-.48-1.56-1.524-2.8-2.568-2.325.443-3.77.4a5.665,5.665,0,0,1-2.167-.4,11.918,11.918,0,0,0-3.928-.322c-2.368.158-1.681,1.681-2.483,2.483s-1.961.844-3.582,1.445-1.578,1.36-1.578,1.36a26.637,26.637,0,0,0,0,4.249c.206,1.681-.249.643.753,2.4a4.179,4.179,0,0,1,0,3.685,2.345,2.345,0,0,0,.4,1.6c.558.959.48,1.08.243,2.568a11.065,11.065,0,0,0-.4,3.369c.067,1.457-.267,1.372-.728,1.936-.631.03-1.263.049-1.906.049a37.3,37.3,0,0,1-27.821-12.414C318.427,291.3,320.5,291.72,321.268,291.155Z" transform="translate(-307.519 -229.097)" fill="#1239c6"/>
          <path id="Path_7652" data-name="Path 7652" d="M385.029,218.336a10.979,10.979,0,0,0-3.126-.425c-1.36,0-2.082,2.082-3.169,3.539h0a21.205,21.205,0,0,0-4.814-4.353h0c.595-2.179,4.346-2.149,4.346-2.149a3.967,3.967,0,0,0,.832-1.845c.158-1.081-.522-1.445-1.044-2.726-.127-.31-.225-.589-.3-.838a37.324,37.324,0,0,1,14.885,8.444,14,14,0,0,1-2.562.807A11.648,11.648,0,0,1,385.029,218.336Z" transform="translate(-329.842 -208.034)" fill="#1239c6"/>
          <path id="Path_7653" data-name="Path 7653" d="M366.556,286.26a11.089,11.089,0,0,1,.4-3.369c.243-1.481.322-1.6-.243-2.568a2.345,2.345,0,0,1-.4-1.6,4.179,4.179,0,0,0,0-3.685c-1-1.76-.546-.722-.753-2.4a26.649,26.649,0,0,1,0-4.249s-.042-.759,1.578-1.36,2.78-.643,3.582-1.445.121-2.325,2.483-2.483a11.918,11.918,0,0,1,3.928.322,5.665,5.665,0,0,0,2.167.4c1.445.042,2.525-1.445,3.77-.4s2.8,2.568,2.8,2.568,1.081.844,1.924.48.88.158,2-1.044,1.524-.522,1.6-1.924-1.081-1.244,1.36-2.125,2.046,1.281,3.205-1.323a15.093,15.093,0,0,0,1.2-3.126l-1.2-2.167-2.726.643-2,.959s-3.126,1.481-3.126-.88-.079-3.126-.079-3.126a5.756,5.756,0,0,0-2.568.243c-.759.443-.6.844-1.6.558s-.68.6-1.445-1.123a17.54,17.54,0,0,0-2.282-3.527s.279-.862-1.287-1.008a21.24,21.24,0,0,0,.54-12.863c1.226-.819,1.584-1.779,1.991-.473.522,1.682.358,2,.722,3.047s1.4,1.845,2,1.445a4.264,4.264,0,0,0,1.524-1.445c.559-.844.121.8.559-.844s.68-2.483.48-2.847-.158-.279-1.044-1.123-1.123-.522-1.445-1.76-.4-2.082-1.2-2.325-1.36-.6-1.845.243.37.322-.595,1.524a3.3,3.3,0,0,1-2.2,1.609h-.006a20.963,20.963,0,0,0-2.938-4.8h0c1.081-1.457,1.8-3.539,3.169-3.539a11.016,11.016,0,0,1,3.126.425,11.736,11.736,0,0,0,5.051.461,14.152,14.152,0,0,0,2.562-.807A37.386,37.386,0,0,1,365.816,288.2C366.289,287.626,366.629,287.717,366.556,286.26Z" transform="translate(-326.521 -213.457)" fill="#0ba864"/>
          <path id="Path_7654" data-name="Path 7654" d="M380.971,234.763c-1.305-.158-1.785.358-1.87-1.044s-.923-1.524-.158-2.647.565-.461,1.639-1.912a21.4,21.4,0,0,1,2.938,4.8C382.107,234.526,382.277,234.921,380.971,234.763Z" transform="translate(-331.691 -215.744)" fill="#3fd85f"/>
          <path id="Path_7655" data-name="Path 7655" d="M377.712,254.451a9.321,9.321,0,0,1,.243-2.325c.079-.443,1-.844-.158-.8s-1.481-.4-2.167,0-1.123,1.2-1.845.643-1.081.243-.88-1.281-.358-1.8.722-3.169-1.645-.243,2.246-3,2.8-1.275,5.13-1.961a4.572,4.572,0,0,0,1.293-.613,21.24,21.24,0,0,1-.54,12.863,5.806,5.806,0,0,0-.674-.018C378.756,254.852,377.712,255.817,377.712,254.451Z" transform="translate(-329.421 -220.766)" fill="#3fd85f"/>
          <path id="Path_7656" data-name="Path 7656" d="M332.818,276.893c.559.079.844-.443,1.76.4a7.64,7.64,0,0,0,2.483,1.445c.88.4,1.6-.619,1.682.959a6.983,6.983,0,0,1-.055,1.524,21.09,21.09,0,0,1-7.278-4.3A8.768,8.768,0,0,1,332.818,276.893Z" transform="translate(-313.138 -234.466)" fill="#3fd85f"/>
          <path id="Path_7657" data-name="Path 7657" d="M362.193,228.972a5.02,5.02,0,0,0-2.167,1.36c-.643.88-.079,1.481-1.044,1.76s-1.123.759-1.445-.243.079-1.524-.4-2.483-.54-1.8-1.524-2.483.243-3.205-.48-3.849-1.323-1.014-1.882-1.469-.68-.455-.759-1.335,1.244-.923,0-1.445-1.6-2.361-1.6-2.392a21.73,21.73,0,0,1,2.361-.134,21.055,21.055,0,0,1,11.619,3.478c-.595,2.173-.516,4.541-1.317,6.265S362.193,228.972,362.193,228.972Z" transform="translate(-320.793 -210.675)" fill="#fff"/>
          <path id="Path_7658" data-name="Path 7658" d="M328.712,229.18a3.062,3.062,0,0,1,1.068.692A11.841,11.841,0,0,0,326,237.345a1.86,1.86,0,0,1-1.135-.067,2.753,2.753,0,0,1-1.524-1.238,4.677,4.677,0,0,1-.552-1.087c-.049-.322.728-.48,0-1.044s-.971,1.882-.729,2.726a4.224,4.224,0,0,0,.729,1.76c.437.558.395.959,1.038,1.123s.54.4,1.524.158a5.217,5.217,0,0,0,.959-.334,3.878,3.878,0,0,0,.783,1.287c1.22,1.3,3.242,1.59,5.463,1.014a5.235,5.235,0,0,0,.807.923c.6.559,4.353,2,4.079,2.647a3.674,3.674,0,0,1-1.354,1.845c-.923.722-1.524.522-1.845,1.281a1.453,1.453,0,0,0,0,1.281,3.722,3.722,0,0,1,1.6,0c.8.2,1.505-.923,1.6.88a8.664,8.664,0,0,1,0,2.726c-.194,1.481.692,1.4-.71,1.924s-2.8.88-2.8.88a2.17,2.17,0,0,1-2.167-.322c-.88-.844-2-1.845-2-1.845a8.39,8.39,0,0,0-2.489-2.914c-1.724-1.257-1.645-1.973-3.126-1.973s-1.542-.68-2.173.079a2.466,2.466,0,0,0-.267.407,21.163,21.163,0,0,1,5.148-24.112,4.371,4.371,0,0,1,.656,1.342A10.648,10.648,0,0,0,328.712,229.18Z" transform="translate(-308.631 -214.247)" fill="#3fd85f"/>
          <path id="Path_7659" data-name="Path 7659" d="M341.474,218.89c1.244.522-.079.558,0,1.445s.2.88.759,1.335,1.16.832,1.882,1.469-.5,3.163.48,3.849,1.044,1.524,1.524,2.483.079,1.481.4,2.483.48.522,1.445.243.4-.88,1.044-1.76a5.02,5.02,0,0,1,2.167-1.36s.558-1.244,1.36-2.968.722-4.085,1.317-6.265a21.205,21.205,0,0,1,4.814,4.353c-1.081,1.451-.88.789-1.639,1.912s.079,1.244.158,2.647.558.88,1.87,1.044,1.141-.243,2.55-.8a20.488,20.488,0,0,1,1.044,2.95,4.654,4.654,0,0,1-1.293.613c-2.325.686-1.244-.807-5.13,1.961s-1.159,1.645-2.246,3-.522,1.645-.722,3.169.158.722.88,1.281,1.159-.243,1.845-.643,1,.043,2.167,0,.243.358.158.8a9.6,9.6,0,0,0-.243,2.325c0,1.36,1.044.4,3.369.334a5.779,5.779,0,0,1,.674.018,21.164,21.164,0,0,1-26.777,12.712,7.421,7.421,0,0,0,.055-1.524c-.085-1.578-.8-.558-1.682-.959a7.639,7.639,0,0,1-2.483-1.445c-.923-.844-1.2-.322-1.76-.4a8.9,8.9,0,0,0-1.4.03,21.131,21.131,0,0,1-5.208-7.236,2.934,2.934,0,0,1,.267-.407c.631-.759.692-.079,2.173-.079s1.4.722,3.126,1.973a8.39,8.39,0,0,1,2.489,2.914s1.117,1,2,1.845a2.17,2.17,0,0,0,2.167.322s1.4-.358,2.8-.88.522-.443.71-1.924a8.665,8.665,0,0,0,0-2.726c-.091-1.8-.8-.68-1.6-.88a3.722,3.722,0,0,0-1.6,0,1.453,1.453,0,0,1,0-1.281c.322-.759.923-.559,1.845-1.281a3.675,3.675,0,0,0,1.354-1.845c.273-.643-3.478-2.082-4.079-2.647a5.27,5.27,0,0,1-.807-.923,13.794,13.794,0,0,0,5.8-3.357c3.952-3.715,5.312-8.687,3.035-11.1s-7.321-1.372-11.273,2.343c-.121.109-.231.231-.346.346a3.062,3.062,0,0,0-1.068-.692,10.816,10.816,0,0,1-1.2-2.483,4.377,4.377,0,0,0-.656-1.342,21.054,21.054,0,0,1,11.88-5.378C339.878,216.528,340.242,218.374,341.474,218.89Z" transform="translate(-309.774 -210.773)" fill="#1164f4"/>
          <path id="Path_7660" data-name="Path 7660" d="M327.61,244.83a4.766,4.766,0,0,1-.959.334c-.983.243-.88,0-1.524-.158s-.6-.558-1.038-1.123a4.26,4.26,0,0,1-.728-1.76c-.243-.844,0-3.284.728-2.726s-.049.722,0,1.044a4.678,4.678,0,0,0,.552,1.087,2.723,2.723,0,0,0,1.524,1.238,1.816,1.816,0,0,0,1.135.067A5.192,5.192,0,0,0,327.61,244.83Z" transform="translate(-309.939 -219.734)" fill="#1164f4"/>
          <path id="Path_7661" data-name="Path 7661" d="M331.2,249.415a3.781,3.781,0,0,1-.783-1.287,1.291,1.291,0,0,1,.486-.067h2.246c.4,0,1-.844,1.682.079s1.062.99,1.445,1.645c.146.249.267.455.395.643C334.451,251.006,332.429,250.714,331.2,249.415Z" transform="translate(-312.749 -223.033)" fill="#7bea5c"/>
          <path id="Path_7662" data-name="Path 7662" d="M334.87,235.467c.4.643,1.244.2.322,1.36s-.722,1.694-1.845,2.131-2.568.838-2.568.838a2.03,2.03,0,0,1-.868.467,11.841,11.841,0,0,1,3.782-7.473,1.4,1.4,0,0,1,.37.668A5.441,5.441,0,0,0,334.87,235.467Z" transform="translate(-312.548 -217.171)" fill="#7bea5c"/>
          <path id="Path_7663" data-name="Path 7663" d="M334.634,239.707c-.68-.923-1.281-.079-1.682-.079h-2.246a1.313,1.313,0,0,0-.486.067,5.091,5.091,0,0,1-.3-2,2.106,2.106,0,0,0,.868-.467s1.445-.4,2.568-.838.923-.965,1.845-2.131.079-.722-.322-1.36a5.388,5.388,0,0,1-.8-2,1.423,1.423,0,0,0-.37-.668c.115-.115.225-.231.346-.346,3.952-3.715,9-4.765,11.273-2.343s.917,7.388-3.035,11.1a13.794,13.794,0,0,1-5.8,3.357c-.127-.188-.249-.395-.395-.643C335.691,240.7,335.314,240.624,334.634,239.707Z" transform="translate(-312.55 -214.594)" fill="#2ea1ff"/>
        </g>
        <path id="Path_7664" data-name="Path 7664" d="M331.309,183.334c-1.384-.158,7.849-10.107,10.083-15.285s3.915-18.624,4.62-18.709,1.329,12.693-.923,19.462S335.692,183.832,331.309,183.334Z" transform="translate(-307.1 -140.908)" fill="#caf5ff"/>
        <path id="Path_7665" data-name="Path 7665" d="M384.163,190.939c.674-.291-4.638-8.644-7.5-11.528s-6.793-8.893-7.042-8.353.856,6.307,4.711,11.024S381.255,192.189,384.163,190.939Z" transform="translate(-322.196 -149.429)" fill="#caf5ff"/>
      </g>
      <g id="Group_8857" data-name="Group 8857" transform="translate(27.414 -35.756)">
        <g id="Group_8853" data-name="Group 8853" transform="translate(18.894)">
          <path id="Path_7666" data-name="Path 7666" d="M377.547,73.613c8.562.958,18.635-2.9,18.635-2.9s9.843,4.562,19.308,2.9,7.6-8.47-1.613-9.944-17.686,4.378-17.686,4.378c-12.073-7.373-25.013-5.465-26.626-2.24S368.985,72.655,377.547,73.613ZM406.5,67.236c-.129-2.064,11.935-1.723,11.668,0C417.822,69.484,406.633,69.291,406.5,67.236Zm-32.542-.8c-.129-2.064,11.935-1.723,11.668,0C385.279,68.683,374.091,68.489,373.962,66.434Z" transform="translate(-368.924 -62.951)" fill="#939da0"/>
          <path id="Path_7667" data-name="Path 7667" d="M386.057,66.609c-.35,2.249-11.539,2.064-11.668,0S386.325,64.886,386.057,66.609Z" transform="translate(-369.353 -63.127)" fill="#b6bebf"/>
          <path id="Path_7668" data-name="Path 7668" d="M421.367,67.479c-.35,2.249-11.539,2.064-11.668,0S421.635,65.756,421.367,67.479Z" transform="translate(-372.12 -63.195)" fill="#b6bebf"/>
        </g>
        <g id="Group_8854" data-name="Group 8854" transform="translate(52.041 29.73)">
          <path id="Path_7669" data-name="Path 7669" d="M406.318,95.21s16.69-.24,16.645,15.124-18.073,12.838-18.073,12.838Z" transform="translate(-404.89 -95.21)" fill="#b6bebf"/>
          <path id="Path_7670" data-name="Path 7670" d="M407.215,100.26s10.654,0,10.654,9.225-11.419,8.368-11.419,8.368Z" transform="translate(-405.012 -95.606)" fill="#495359"/>
        </g>
        <g id="Group_8855" data-name="Group 8855" transform="translate(0 2.051)">
          <path id="Path_7671" data-name="Path 7671" d="M349.886,137.167c1.023.71,5.41.949,9.345.857.028-3.9.332-13.253,2.544-19.492,2.857-8.055,15.022-11.1,18.893-11.161s4.562.82,6.212,3.677,8.626,3.613,11.41,0,1.9-21.05,1.9-21.05c5.18-16.359-3.484-19.114-3.484-19.114s.636-5.852-2.12-5.7-2.184,6.276-2.184,6.276c-7.6,1.954-4.184,16.257-4.184,16.257L388.022,90c-3.041.046-4.322,3.041-4.663,4.368s-3.189,3.954-12.073,4.092-19.354,3.521-21.4,10.368S348.033,135.886,349.886,137.167Zm46.182-63.334c.949-.507,3.4,3.825,2.534,3.871C397.238,77.76,395.119,74.341,396.068,73.834Zm-9,20.349c0-1.558,9.6-1.17,9.64,0C396.768,96.34,387.064,95.741,387.064,94.183Zm-31.63,13.7c3.742-5.327,14.774-5.64,14.838-4.184s-1.779,1.585-5.963,3.17-7.8,5.2-8.119,12.681-.221,11.861-1.9,11.539C352.005,130.633,351.692,113.205,355.434,107.878Z" transform="translate(-348.423 -65.177)" fill="#6f7d82"/>
          <path id="Path_7672" data-name="Path 7672" d="M381.575,109.483c3.871-.065,4.562.82,6.212,3.677s8.626,3.613,11.41,0,1.9-21.05,1.9-21.05,4.931,1.668,5.2,6.654.258,17.428,0,20.368-3.668,8.5-11.235,7.972-8.617-5.179-11.852-6.755-11.262-.949-14.073,3.613-1.189,14.267-2.378,15.308c-.534.47-3.428.774-6.636.857.028-3.9.332-13.253,2.544-19.492C365.539,112.588,377.714,109.547,381.575,109.483Z" transform="translate(-349.34 -67.288)" fill="#495359"/>
          <path id="Path_7673" data-name="Path 7673" d="M370.616,106.906c.065,1.456-1.779,1.585-5.963,3.17s-7.8,5.2-8.12,12.681-.221,11.861-1.9,11.539c-2.286-.442-2.6-17.879,1.143-23.206S370.552,105.45,370.616,106.906Z" transform="translate(-348.777 -68.389)" fill="#939da0"/>
          <path id="Path_7674" data-name="Path 7674" d="M399.99,96.563c.065,2.157-9.64,1.558-9.64,0S399.953,95.392,399.99,96.563Z" transform="translate(-351.709 -67.556)" fill="#939da0"/>
          <path id="Path_7675" data-name="Path 7675" d="M400.1,74.566c.949-.507,3.4,3.825,2.534,3.871C401.27,78.493,399.151,75.073,400.1,74.566Z" transform="translate(-352.455 -65.91)" fill="#939da0"/>
        </g>
        <g id="Group_8856" data-name="Group 8856" transform="translate(34.935 16.228)">
          <path id="Path_7676" data-name="Path 7676" d="M386.33,86.071c-.092,3.235,4.848,2.857,4.848,2.857s6.23-3.281,11.889,0c0,0,4.092.424,4.8-3.041s-5.438-5.373-10.755-5.327S386.422,82.836,386.33,86.071Zm10.682-3.428c4.212-.028,8.4,1.714,7.8,2.6s-3.585-.848-7.8-.885c-3.677-.028-7.133,1.493-7.6.507S392.8,82.68,397.011,82.643Z" transform="translate(-386.329 -80.559)" fill="#939da0"/>
          <path id="Path_7677" data-name="Path 7677" d="M397.27,82.82c4.212-.028,8.4,1.714,7.8,2.6s-3.585-.848-7.8-.885c-3.677-.028-7.133,1.493-7.6.507S393.058,82.857,397.27,82.82Z" transform="translate(-386.587 -80.736)" fill="#b6bebf"/>
        </g>
      </g>
    </g>
  </g>
</svg>
