<svg xmlns="http://www.w3.org/2000/svg" width="380.173" height="391.38" viewBox="0 0 380.173 391.38">
  <g id="Group_8990" data-name="Group 8990" transform="translate(-40.995 -143.418)">
    <g id="Group_8989" data-name="Group 8989">
      <path id="Path_594" data-name="Path 594" d="M561.65,372.885c43.233-78.83-7.167-161.781-54.088-228.805C450.485,62.552,330.207,51.73,261.287,111.7c-44.626,38.833-51.049,132.188-60.771,171.586-11.4,46.19,15.977,88.671,60.771,118.447,42.554,28.287,101.074,44.949,156.549,41.9C493.5,439.486,544.453,404.241,561.65,372.885Z" transform="translate(-156.936 90.8)" fill="#1bb0dd" opacity="0.12"/>
      <g id="freepik--background-complete--inject-67" transform="translate(64.455 143.418)">
        <path id="Path_712" data-name="Path 712" d="M372.31,147.235l70.437-.113s-3.513-4.551-7.373-5.121c0,0-7.541-22.343-20.1-22.512-11.69-.129-16.353,13.772-16.353,13.772s-5.427-6.223-10.6-3.369-8.04,11.023-8.04,11.023S374.416,144.019,372.31,147.235Z" transform="translate(-105.202 -63.148)" fill="#ebebeb"/>
        <path id="Path_713" data-name="Path 713" d="M129.153,225.033l-89.073.137s0-5.692,12.261-6.826c0,0,11.167-24.924,28.276-21.579,10.661,2.066,16.128,16.683,16.128,16.683s8.04-11.521,14.472-9.3S121.5,218.617,121.5,218.617,128.14,221.817,129.153,225.033Z" transform="translate(-40.08 -78.235)" fill="#ebebeb"/>
        <path id="Path_714" data-name="Path 714" d="M361.883,439.773l-89.073.137s0-5.692,12.261-6.826c0,0,11.167-24.924,28.276-21.579,10.661,2.066,16.128,16.683,16.128,16.683s8.04-11.521,14.472-9.3,10.283,14.472,10.283,14.472S360.87,436.557,361.883,439.773Z" transform="translate(-85.699 -120.327)" fill="#ebebeb"/>
        <path id="Path_715" data-name="Path 715" d="M367.234,71.809,306.67,71.9s5.708-5.33,8.249-5.33,9.921-17.873,19.4-17.133,14.512,14.038,14.512,14.038S360.344,59.846,367.234,71.809Z" transform="translate(-92.336 -49.412)" fill="#ebebeb"/>
        <path id="Path_716" data-name="Path 716" d="M130.312,412.415l-60.572.1s5.708-5.322,8.249-5.33,9.929-17.873,19.4-17.125S111.917,404.1,111.917,404.1,123.422,400.46,130.312,412.415Z" transform="translate(-45.894 -116.181)" fill="#ebebeb"/>
        <path id="Path_717" data-name="Path 717" d="M120.973,94.414l-51.793.08s2.573-3.361,5.411-3.787c0,0,5.491-16.441,14.737-16.578,8.595-.121,12.06,10.09,12.06,10.09s3.972-4.583,7.783-2.492,5.966,8.04,5.966,8.04S119.421,92.107,120.973,94.414Z" transform="translate(-45.784 -54.257)" fill="#ebebeb"/>
        <path id="Path_718" data-name="Path 718" d="M442.623,377.916,390.83,378s2.573-3.361,5.411-3.779c0,0,5.491-16.45,14.737-16.578,8.595-.129,12.06,10.09,12.06,10.09s3.972-4.591,7.783-2.5,5.974,8.088,5.974,8.088S441.071,375.617,442.623,377.916Z" transform="translate(-108.832 -109.829)" fill="#ebebeb"/>
      </g>
      <g id="freepik--Clouds--inject-67" transform="translate(76.893 213.789)">
        <path id="Path_903" data-name="Path 903" d="M430.112,338.627H371.3s5.829-15.927,14.8-15.927,11.786,10.99,11.786,10.99,6.054-5.974,11.031-5.974,9.294,7.9,9.294,7.9S425.247,331.367,430.112,338.627Z" transform="translate(-117.442 -173.352)" fill="#ebebeb"/>
        <path id="Path_904" data-name="Path 904" d="M220.846,387.727H171.28s4.912-13.427,12.478-13.427,9.929,9.27,9.929,9.27,5.105-5.033,9.3-5.033,7.831,6.649,7.831,6.649A7.334,7.334,0,0,1,220.846,387.727Z" transform="translate(-78.235 -183.466)" fill="#ebebeb"/>
        <path id="Path_905" data-name="Path 905" d="M186.6,145.832H159.11s6.142-8.892,10.982-8.892,6.271,5.925,6.271,5.925,3.417-2.766,6.577-2.267S186.6,145.832,186.6,145.832Z" transform="translate(-75.849 -136.94)" fill="#ebebeb"/>
        <path id="Path_906" data-name="Path 906" d="M361.448,284.63H334s6.134-8.9,10.974-8.9,6.271,5.933,6.271,5.933,3.417-2.774,6.577-2.275S361.448,284.63,361.448,284.63Z" transform="translate(-110.13 -164.145)" fill="#ebebeb"/>
        <path id="Path_907" data-name="Path 907" d="M190.3,296.5H162.84s6.134-8.892,10.974-8.892,6.271,5.925,6.271,5.925,3.417-2.766,6.577-2.267S190.3,296.5,190.3,296.5Z" transform="translate(-76.58 -166.474)" fill="#ebebeb"/>
        <path id="Path_908" data-name="Path 908" d="M109.087,265.4H55.55s7.332-16.369,15.179-17.414S82.323,260.15,82.323,260.15s5.057-4.663,9.037-4.663,7.043,6.142,7.043,6.142S106.362,257.449,109.087,265.4Z" transform="translate(-55.55 -158.695)" fill="#ebebeb"/>
        <path id="Path_909" data-name="Path 909" d="M295.777,217.746H242.24s7.332-16.369,15.171-17.39S269,212.512,269,212.512s5.057-4.655,9.037-4.655,7.051,6.134,7.051,6.134S293.044,209.763,295.777,217.746Z" transform="translate(-92.144 -149.359)" fill="#ebebeb"/>
      </g>
      <g id="freepik--Sparkles--inject-67" transform="translate(90.609 180.954)">
        <path id="Path_910" data-name="Path 910" d="M189.36,356.626l4.615.86L195,362.351l1.029-4.864,4.615-.86-4.591-1.118L195,350.91l-1.053,4.6Z" transform="translate(-95.495 -146.047)" fill="#21b0ee"/>
        <path id="Path_911" data-name="Path 911" d="M232.71,107.284l4.615.852L238.354,113l1.037-4.864,4.615-.86-4.6-1.118-1.053-4.6-1.045,4.6Z" transform="translate(-103.992 -97.17)" fill="#21b0ee"/>
        <path id="Path_912" data-name="Path 912" d="M397.69,300.046l4.615.852,1.029,4.864,1.029-4.864,4.615-.852-4.591-1.126-1.053-4.591-1.053,4.591Z" transform="translate(-136.331 -134.956)" fill="#21b0ee"/>
        <path id="Path_913" data-name="Path 913" d="M203.28,299.7l4.615.852,1.037,4.872,1.029-4.872,4.615-.852-4.6-1.126-1.045-4.591-1.053,4.591Z" transform="translate(-98.223 -134.887)" fill="#21b0ee"/>
        <path id="Path_914" data-name="Path 914" d="M105.23,235.5l2.581.482.579,2.717.579-2.717,2.581-.482-2.573-.627-.587-2.565-.587,2.565Z" transform="translate(-79.004 -122.799)" fill="#21b0ee"/>
        <path id="Path_915" data-name="Path 915" d="M419.54,216.712l2.581.482.579,2.717.571-2.717,2.581-.482-2.565-.627-.587-2.565-.587,2.565Z" transform="translate(-140.614 -119.116)" fill="#21b0ee"/>
        <path id="Path_916" data-name="Path 916" d="M190.77,124.292l2.581.482.579,2.717.571-2.717,2.581-.482-2.565-.627-.587-2.565-.587,2.565Z" transform="translate(-95.771 -101)" fill="#21b0ee"/>
        <path id="Path_917" data-name="Path 917" d="M123.75,296.34l2.573.474.579,2.717.579-2.717,2.581-.474-2.573-.635-.587-2.565-.587,2.565Z" transform="translate(-82.634 -134.723)" fill="#21b0ee"/>
        <path id="Path_918" data-name="Path 918" d="M72.61,319.01l2.581.474.571,2.717.579-2.717,2.581-.474-2.573-.627-.587-2.573-.587,2.573Z" transform="translate(-72.61 -139.166)" fill="#21b0ee"/>
        <path id="Path_919" data-name="Path 919" d="M162.2,168.14l2.581.474.579,2.717.571-2.717,2.581-.482-2.565-.627-.587-2.565-.587,2.565Z" transform="translate(-90.171 -109.594)" fill="#21b0ee"/>
        <path id="Path_920" data-name="Path 920" d="M292.93,175.562l2.581.482.579,2.717.571-2.717,2.581-.482-2.565-.627-.587-2.565-.587,2.565Z" transform="translate(-115.796 -111.05)" fill="#21b0ee"/>
        <path id="Path_921" data-name="Path 921" d="M371.25,152.062l2.581.482.579,2.717.571-2.717,2.581-.482L375,151.435l-.587-2.565-.587,2.565Z" transform="translate(-131.148 -106.444)" fill="#21b0ee"/>
        <path id="Path_922" data-name="Path 922" d="M322.07,321.8l2.581.474.571,2.725.579-2.725,2.581-.474-2.573-.627-.587-2.573-.587,2.573Z" transform="translate(-121.508 -139.713)" fill="#21b0ee"/>
        <path id="Path_923" data-name="Path 923" d="M182.6,310.35a.748.748,0,1,1-.748.748.748.748,0,0,1,.748-.748Z" transform="translate(-94.023 -138.096)" fill="#21b0ee"/>
        <path id="Path_924" data-name="Path 924" d="M168.568,186a.748.748,0,1,1-.748.748A.748.748,0,0,1,168.568,186Z" transform="translate(-91.273 -113.722)" fill="#21b0ee"/>
        <path id="Path_925" data-name="Path 925" d="M297.427,117.76a.748.748,0,1,1-.67.744.748.748,0,0,1,.67-.744Z" transform="translate(-116.546 -100.346)" fill="#21b0ee"/>
        <path id="Path_926" data-name="Path 926" d="M383.428,167.06a.748.748,0,1,1-.748.748A.748.748,0,0,1,383.428,167.06Z" transform="translate(-133.388 -110.009)" fill="#21b0ee"/>
        <path id="Path_927" data-name="Path 927" d="M379.488,270a.748.748,0,1,1-.748.748.748.748,0,0,1,.748-.748Z" transform="translate(-132.616 -130.187)" fill="#21b0ee"/>
        <path id="Path_928" data-name="Path 928" d="M412.791,259.73a.531.531,0,1,1-.531.531A.531.531,0,0,1,412.791,259.73Z" transform="translate(-139.187 -128.174)" fill="#21b0ee"/>
        <path id="Path_929" data-name="Path 929" d="M308.991,143.48a.531.531,0,1,1-.531.531.531.531,0,0,1,.531-.531Z" transform="translate(-118.84 -105.387)" fill="#21b0ee"/>
        <path id="Path_930" data-name="Path 930" d="M262.967,212.3a.531.531,0,1,1-.465.527.531.531,0,0,1,.465-.527Z" transform="translate(-109.832 -118.877)" fill="#21b0ee"/>
        <path id="Path_931" data-name="Path 931" d="M346.371,342.8a.531.531,0,1,1-.531.531.531.531,0,0,1,.531-.531Z" transform="translate(-126.167 -144.457)" fill="#21b0ee"/>
        <path id="Path_932" data-name="Path 932" d="M242.2,330.56A1.439,1.439,0,1,1,240.863,332,1.439,1.439,0,0,1,242.2,330.56Z" transform="translate(-105.59 -142.058)" fill="#21b0ee"/>
        <path id="Path_933" data-name="Path 933" d="M74.461,204.7a1.431,1.431,0,1,1-1.431,1.431A1.431,1.431,0,0,1,74.461,204.7Z" transform="translate(-72.692 -117.387)" fill="#21b0ee"/>
        <path id="Path_934" data-name="Path 934" d="M220.531,96.1a1.431,1.431,0,1,1-1.431,1.431A1.431,1.431,0,0,1,220.531,96.1Z" transform="translate(-101.324 -96.1)" fill="#21b0ee"/>
        <path id="Path_935" data-name="Path 935" d="M282.475,167.14a1.439,1.439,0,1,1-1.332,1.435A1.439,1.439,0,0,1,282.475,167.14Z" transform="translate(-113.486 -110.025)" fill="#21b0ee"/>
        <path id="Path_936" data-name="Path 936" d="M288.675,343.91a1.439,1.439,0,1,1-1.332,1.435,1.439,1.439,0,0,1,1.332-1.435Z" transform="translate(-114.701 -144.675)" fill="#21b0ee"/>
      </g>
      <g id="Group_4460" data-name="Group 4460" transform="translate(61.317 152.273)">
        <path id="Path_1625" data-name="Path 1625" d="M239.98,38.406l-.592-1.752-.592,1.752a9.482,9.482,0,0,1-4.433,5.284h0a9.481,9.481,0,0,1,4.433,5.284l.592,1.751.592-1.751a9.481,9.481,0,0,1,4.433-5.284h0A9.482,9.482,0,0,1,239.98,38.406Z" transform="translate(-132.451 -36.654)" fill="#efe5dc"/>
        <path id="Path_1626" data-name="Path 1626" d="M294.3,99.478l-.591-1.752-.592,1.752a9.479,9.479,0,0,1-4.433,5.284h0a9.48,9.48,0,0,1,4.433,5.284l.592,1.752.591-1.752a9.482,9.482,0,0,1,4.433-5.284h0A9.481,9.481,0,0,1,294.3,99.478Z" transform="translate(-158.21 -65.614)" fill="#efe5dc"/>
        <path id="Path_1627" data-name="Path 1627" d="M46.158,197.769l-.592-1.752-.592,1.752a9.48,9.48,0,0,1-4.434,5.284h0a9.481,9.481,0,0,1,4.434,5.284l.592,1.752.592-1.752a9.482,9.482,0,0,1,4.433-5.284h0A9.481,9.481,0,0,1,46.158,197.769Z" transform="translate(-40.541 -112.224)" fill="#efe5dc"/>
        <path id="Path_1628" data-name="Path 1628" d="M188.14,67.489l-.235-.7-.235.7a3.764,3.764,0,0,1-1.76,2.1h0a3.765,3.765,0,0,1,1.76,2.1l.235.7.235-.7a3.767,3.767,0,0,1,1.76-2.1h0A3.766,3.766,0,0,1,188.14,67.489Z" transform="translate(-109.475 -50.946)" fill="#efe5dc"/>
        <path id="Path_1629" data-name="Path 1629" d="M396.426,106.382l-.235-.7-.235.7a3.767,3.767,0,0,1-1.76,2.1h0a3.769,3.769,0,0,1,1.76,2.1l.235.7.235-.7a3.765,3.765,0,0,1,1.76-2.1h0A3.763,3.763,0,0,1,396.426,106.382Z" transform="translate(-208.244 -69.389)" fill="#efe5dc"/>
      </g>
      <g id="Group_8895" data-name="Group 8895">
        <g id="Group_8882" data-name="Group 8882" transform="translate(233.657 249.634)">
          <path id="Path_7829" data-name="Path 7829" d="M280.39,357.391c-2.58,3.743-3.143,8.968-4.88,13.388l3.947,1.1c2.938-5.365,6.924-9.262,7-10.986C286.483,360.278,281.246,356.139,280.39,357.391Z" transform="translate(-275.51 -351.365)" fill="#ffc08d"/>
          <path id="Path_7830" data-name="Path 7830" d="M274.547,362.931c1.1-1.635,4.944-5.3,4.42-5.812-.843-.792-3.577,2.236-5.276,4.011C271.392,363.544,274.547,362.931,274.547,362.931Z" transform="translate(-264.672 -351.411)" fill="#ffc08d"/>
          <path id="Path_7831" data-name="Path 7831" d="M278.777,360.271c.869-1.776,4.139-7.077,3.411-7.563-1.277-.869-4.7,5.1-5.493,7C275.456,362.634,278.777,360.271,278.777,360.271Z" transform="translate(-272.505 -352.623)" fill="#ffc08d"/>
          <path id="Path_7832" data-name="Path 7832" d="M283.757,361.726c-2.67.792-.485-7.448-2.325-6.208-1.482,1.009-1.163,7.729-1.252,11.65C281.049,369.876,283.757,361.726,283.757,361.726Z" transform="translate(-278.775 -351.855)" fill="#ffc08d"/>
          <path id="Path_7833" data-name="Path 7833" d="M276.032,361.041c1.073-1.661,4.918-6.924,4.356-7.46-.92-.881-4.7,4.535-5.966,6.234C272.467,362.446,276.032,361.041,276.032,361.041Z" transform="translate(-267.358 -352.384)" fill="#ffc08d"/>
        </g>
        <g id="Group_8883" data-name="Group 8883" transform="translate(176.688 402.349)">
          <path id="Path_7834" data-name="Path 7834" d="M337.083,543.291,322.06,466.21l2.3-.46,15.01,77.541Z" transform="translate(-322.06 -465.75)" fill="#7c514a"/>
        </g>
        <g id="Group_8884" data-name="Group 8884" transform="translate(203.578 402.349)">
          <path id="Path_7835" data-name="Path 7835" d="M316.02,543.291,301.01,466.21l2.287-.46,15.023,77.541Z" transform="translate(-301.01 -465.75)" fill="#7c514a"/>
        </g>
        <g id="Group_8885" data-name="Group 8885" transform="translate(155.342 402.349)">
          <path id="Path_7836" data-name="Path 7836" d="M341.077,543.291H338.79l15-77.541,2.287.46Z" transform="translate(-338.79 -465.75)" fill="#7c514a"/>
        </g>
        <g id="Group_8886" data-name="Group 8886" transform="translate(128.324 402.349)">
          <path id="Path_7837" data-name="Path 7837" d="M362.239,543.291h-2.3l15-77.541,2.287.46Z" transform="translate(-359.94 -465.75)" fill="#7c514a"/>
        </g>
        <path id="Path_7838" data-name="Path 7838" d="M381.74,376.668c-2.938-3.551-33.737-4.893-41.1-.166s9.1,90.252,12.353,111.534l39.269-2.363S384.678,380.219,381.74,376.668Z" transform="translate(-219.615 -89.008)" fill="#b7b735"/>
        <path id="Path_7839" data-name="Path 7839" d="M340.655,375.937a7.856,7.856,0,0,1,.8-.447c2.363,16.045,10.833,27.925,20.925,27.925,9.274,0,17.182-10.028,20.235-24.118,3.347,18.178,9.645,105.8,9.645,105.8l-39.269,2.363C349.75,466.189,333.3,380.676,340.655,375.937Z" transform="translate(-219.625 -88.444)" fill="#9e9b2a"/>
        <path id="Path_7840" data-name="Path 7840" d="M381.046,464.595c0-2.5-2.81-4.535-6.285-4.535H314.094c-3.768,0-6.834,2.21-6.834,4.918,0,3.59,4.037,6.5,9.019,6.5h55.2C376.766,471.493,381.046,468.4,381.046,464.595Z" transform="translate(-168.142 -64.98)" fill="#7c514a"/>
        <path id="Path_7841" data-name="Path 7841" d="M388.043,462.435c0-2.5-3.257-4.535-7.269-4.535H310.655c-4.369,0-7.895,2.21-7.895,4.931,0,3.59,4.663,6.5,10.424,6.5h63.8C383.1,469.333,388.043,466.242,388.043,462.435Z" transform="translate(-169.39 -65.579)" fill="#9e9b2a"/>
        <path id="Path_7842" data-name="Path 7842" d="M289.739,372.177c-4.1,6.885,31.387,50.74,45.937,48.633,8.5-1.226-10.424-18.114-18.8-31.31S297.352,359.39,289.739,372.177Z" transform="translate(-226.971 55.567) rotate(-22)" fill="#5c5f70"/>
        <path id="Path_7843" data-name="Path 7843" d="M289.744,372.177c5.059-8.5,11.663-3.883,17.987,4.024,6.541,7.6,18.459,48.007,28.7,42.143a3.486,3.486,0,0,0,1.086-1.035c.677,1.929.255,3.181-1.84,3.487C321.131,422.917,285.644,379.075,289.744,372.177Z" transform="translate(-224.032 51.654) rotate(-22)"/>
        <path id="Path_7844" data-name="Path 7844" d="M288.4,420.655c5.4-2.389,14.065-43.165,12.915-49.884-1.15-6.745-4.216-3.564-5.991-1.175-1.52,2.057-16.479,39.307-15.38,43.561S284.341,422.456,288.4,420.655Z" transform="translate(-53.422 -106.827)" fill="#eae0c1"/>
        <path id="Path_7848" data-name="Path 7848" d="M289.92,542.562s2.9-51.954,5.646-59.044,19.021-20.848,19.021-20.848L292.6,542.562Z" transform="translate(-79.533 -64.256)" fill="#ff9a6e"/>
        <path id="Path_7849" data-name="Path 7849" d="M296.89,527.862h17.616s-10.539-6.975-13.937-6.477S296.89,527.862,296.89,527.862Z" transform="translate(-88.355 -47.972)"/>
        <path id="Path_7850" data-name="Path 7850" d="M311.78,540.628s17.757-46.167,22.521-52.465,24.974-18.523,24.974-18.523l-44.813,70.988Z" transform="translate(-152.146 -62.322)" fill="#ff9a6e"/>
        <path id="Path_7851" data-name="Path 7851" d="M337.17,527.7H354.8s-8.546-6.2-12.1-5.749S337.17,527.7,337.17,527.7Z" transform="translate(-180.104 -47.814)"/>
        <path id="Path_7852" data-name="Path 7852" d="M300.637,559.439s48.109-6.745,66.683-6.745c0,0,13.873-76.136,10.986-82.281-10.015-21.282-24.68-15.074-49.795-19.2-.554-.09-1.1-.7-1.6-2-2.047-5.17-.134-22.293,25.873-33.062,1.6-10.1-1.622-23.658-5.2-40.406-2.746-12.864-25.14-19.7-37.187-7.064-5.046,5.3.2,34.057-8.674,59.172-9.325,26.392-23.505,43.472-8.112,56.016,7.805,6.362,24.4,1.929,25.447,4.049C323.631,497.278,318.739,521.179,300.637,559.439Z" transform="translate(-139.649 -92.195)"/>
        <path id="Path_7853" data-name="Path 7853" d="M313.029,364.76l37.966,25.255c.383,1.737-.766,6.553-7.511,3.079s-22.355-11.944-27.759-6.17l-7.511-11.753C308.2,375.171,306.271,368.043,313.029,364.76Z" transform="translate(-139.037 -91.421)"/>
        <path id="Path_7854" data-name="Path 7854" d="M301.737,425.728c8.878-25.115,3.066-49.872,8.086-55.186,14.461-7.907,19.519,39.78,24.284,41.824,4.011,1.712,11.088,2.35,18.74,1.367-.013.1-.026.2-.038.294a57.07,57.07,0,0,0-15.84,9.453c-17.309.83-38.17,23.85-28.283,31.208,8.265,6.145,43.025,6.03,58.878.639,4.152,2.44,7.677,6.387,10.769,12.953,2.887,6.145-10.986,82.281-10.986,82.281-7.6,0-22.8,9.4-36.772,12.705a150.633,150.633,0,0,1-37.676,3.7c18.1-38.26,30.759-71.837,26.161-81.175-1.048-2.121-17.642,2.312-25.447-4.05C278.232,469.212,292.412,452.12,301.737,425.728Z" transform="translate(-139.689 -90.062)"/>
        <path id="Path_7855" data-name="Path 7855" d="M335.8,436.72c4.152,2.44,7.677,6.387,10.769,12.953,2.887,6.145-13.947,99.333-13.947,99.333-3.724,0-8.744-1.33-14.139-3.58-9.677-4.034-21.087-10.229-31.686-8.848,11.855-29.56,9.747-88.08,48.773-99.782C335.663,436.771,335.727,436.746,335.8,436.72Z" transform="translate(-107.928 -71.456)"/>
        <path id="Path_7856" data-name="Path 7856" d="M302.7,524.9l29.292-51.66s.575,33.725-3.462,49.143Z" transform="translate(-113.287 -61.323)" fill="#5c5f70"/>
        <path id="Path_7857" data-name="Path 7857" d="M333.4,405.492c2.58-15.329-1.124-33.942,6-31.63l15.419,51.277s-16.965-3.666-27.951,4.433A130.572,130.572,0,0,0,333.4,405.492Z" transform="translate(-166.968 -88.95)"/>
        <path id="Path_7858" data-name="Path 7858" d="M304.532,377.416c-.153,1.942,7.971-3.091,18.114,7.409C333.594,396.156,349,404.2,349.434,395.913c.715-13.579-6.362-20.631,1.814-29.969,9.134-10.45-33.686-27.529-33.852-25C315.62,366.941,305.068,370.863,304.532,377.416Z" transform="translate(-136.135 -98.098)"/>
        <path id="Path_7859" data-name="Path 7859" d="M312.305,377.63,307.4,365.073l5.48-.843C312.88,364.243,310.862,371.46,312.305,377.63Z" transform="translate(-100.155 -91.568)" fill="#bfbcbc"/>
        <g id="Group_8888" data-name="Group 8888" transform="translate(168.395 240.487)">
          <path id="Path_7860" data-name="Path 7860" d="M320.936,341.415c.064-.894,19.89-3.807,15.47-1.507-15.24,7.92-2.606,62.4,15.138,59.338-4.113,2.58-16.262-4.548-25.357-13.95-10.143-10.5-18.28-5.48-18.114-7.409C308.609,371.32,319.161,367.4,320.936,341.415Z" transform="translate(-308.07 -339.043)"/>
        </g>
        <path id="Path_7861" data-name="Path 7861" d="M342.466,327.158c-5.889-9.926-28.283-13.656-39.115-.728s-6.272,34.185-3.4,42.692c1.878,5.57,24.489,14.959,30.914,9.887C337.484,373.785,349.044,338.246,342.466,327.158Z" transform="translate(-117.771 -104.355)"/>
        <path id="Path_7862" data-name="Path 7862" d="M317.586,326.428c5.927-7.064,15.317-9.147,23.556-7.971-16.607,5.94-30.608,50.089-7.511,61.254-8.521-1.891-19.3-7.013-20.5-10.59C310.279,360.626,306.753,339.343,317.586,326.428Z" transform="translate(-132.02 -104.353)"/>
        <path id="Path_7863" data-name="Path 7863" d="M311.382,373.332c-9.313-1.06-15.649-17.744-11.893-28.73,5.174-15.112,11.753-17.923,19.775-15.393s10.283,8.98,7.4,21.321S318.229,374.111,311.382,373.332Z" transform="translate(-103.627 -101.513)" fill="#ffc08d"/>
        <path id="Path_7864" data-name="Path 7864" d="M317.549,351.829c2.9-12.34.626-18.8-7.4-21.321-4.165-1.316-8.137-1.15-11.753,1.418,4.037-3.781,8.559-4.228,13.337-2.721,8.022,2.529,10.283,8.98,7.4,21.321-2.236,9.517-6.042,18.383-10.807,21.576C312.362,368.18,315.569,360.26,317.549,351.829Z" transform="translate(-96.112 -101.509)"/>
        <rect id="Rectangle_2981" data-name="Rectangle 2981" width="115.469" height="4.727" transform="translate(207.347 351.213)" fill="#a57f76"/>
        <g id="Group_8889" data-name="Group 8889" transform="translate(257.078 350.829)">
          <path id="Path_7869" data-name="Path 7869" d="M263.125,554.481H260.8L273.638,425.42l2.338.754Z" transform="translate(-260.8 -425.42)" fill="#a57f76"/>
        </g>
        <g id="Group_8890" data-name="Group 8890" transform="translate(321.065 350.829)">
          <path id="Path_7870" data-name="Path 7870" d="M223.548,554.481h2.338L213.035,425.42l-2.325.754Z" transform="translate(-210.71 -425.42)" fill="#e5cfc6"/>
        </g>
        <path id="Path_7871" data-name="Path 7871" d="M323.441,376.345c-4.152,10.526,6.055,47.393,20.094,51.813,8.2,2.58-1.725-20.3-3.679-35.449S328.819,362.727,323.441,376.345Z" transform="translate(-153.306 -89.695)" fill="#5c5f70"/>
        <path id="Path_7872" data-name="Path 7872" d="M323.515,376.054a12.071,12.071,0,0,1,2.376-4.024c-1.086,10.9,1.558,30.314,6.873,39.115,4.356,7.179,9.44,12.455,13.95,14.818-.281,1.725-1.2,2.517-3.1,1.916C329.57,423.447,319.363,386.567,323.515,376.054Z" transform="translate(-153.38 -89.404)" fill="#5c5f70"/>
        <path id="Path_7873" data-name="Path 7873" d="M341.824,407.45a99.992,99.992,0,0,0,3.091,12.634c-9.032-13.145-14.7-37.238-11.561-45.209,3.028-7.652,7.537-5.749,11.267.089C340.1,376.6,338.834,390.83,341.824,407.45Z" transform="translate(-164.229 -90.013)"/>
        <path id="Path_7875" data-name="Path 7875" d="M343.525,425.846c-.332.754-1.418,1.431-3.794,1.865-6.6,1.226-48.454-7.614-51.021-12.979a44.11,44.11,0,0,1-2.3-7.563C290.076,413.008,335.579,426.894,343.525,425.846Z" transform="translate(-103.986 -79.654)" fill="#5c5f70"/>
        <path id="Path_7882" data-name="Path 7882" d="M289.2,367.224s-5.991-1.482-7.767-.626l-2.9,6.834s5.531,5.736,9.325,8.035Z" transform="translate(-39.592 -90.985)" fill="#eae6ca"/>
        <path id="Path_7883" data-name="Path 7883" d="M301.722,403.532,295.36,391.09l7.665,7.524Z" transform="translate(-199.317 53.413) rotate(-22)" fill="#5c5f70"/>
        <path id="Path_7884" data-name="Path 7884" d="M342.684,436.4s-14.448-.575-22.164-.575c12.1-2.606,11.523-12.57,15.994-17.348C331.774,428.431,333.307,433.567,342.684,436.4Z" transform="translate(-146.719 -76.516)" fill="#5c5f70"/>
        <path id="Path_7885" data-name="Path 7885" d="M303.034,326.258s11.957-10.884,25.345-2.7c0,0-20.426-3.181-26.788,12.532Z" transform="translate(-108.231 -103.698)" fill="#5c5f70"/>
        <path id="Path_7886" data-name="Path 7886" d="M333.255,376.424s-10.6-13.49-10.309-15.125,6.259,2.8,6.259,2.8Z" transform="translate(-140.382 -92.482)" fill="#5c5f70"/>
        <g id="Group_8892" data-name="Group 8892" transform="translate(200.282 237.212)">
          <path id="Path_7889" data-name="Path 7889" d="M319.49,338.371c-3.143-.766-6.63-1.226-10.82,2.287,0,0,.524-3.04,4.509-3.973A6.572,6.572,0,0,1,319.49,338.371Z" transform="translate(-308.67 -336.48)"/>
          <path id="Path_7890" data-name="Path 7890" d="M299.518,339.24c2.58-.1,5.084.166,6.489,4.458,0,0,.728-3.168-1.444-4.778S299.518,339.24,299.518,339.24Z" transform="translate(-283.614 -335.982)"/>
          <path id="Path_7891" data-name="Path 7891" d="M307.6,348.83l-.1.422c.958.971,1.7,1.967,1.622,2.632-.166,1.214-1.673,1.431-2.568,1.443l-.038.128s3.015.307,3.245-1.431C309.873,351.244,308.813,349.98,307.6,348.83Z" transform="translate(-296.191 -333.053)" fill="#543732"/>
          <path id="Path_7892" data-name="Path 7892" d="M300.45,344.192c2.325-.6,4.867-.984,7.537,1.277,0,0-.089-2.044-2.849-2.568A5.648,5.648,0,0,0,300.45,344.192Z" transform="translate(-286.666 -334.725)" fill="#543732"/>
          <path id="Path_7893" data-name="Path 7893" d="M306.292,346.849a2.877,2.877,0,0,0-1.571-3.641,2.681,2.681,0,0,0-3.347,1.916,2.877,2.877,0,0,0,1.571,3.641A2.686,2.686,0,0,0,306.292,346.849Z" transform="translate(-286.108 -334.649)" fill="#543732"/>
          <path id="Path_7894" data-name="Path 7894" d="M310.37,343.436c2.236-.818,4.739-1.456,7.754.575,0,0-.4-2.044-3.245-2.325A5.39,5.39,0,0,0,310.37,343.436Z" transform="translate(-309.476 -335.043)" fill="#543732"/>
          <path id="Path_7895" data-name="Path 7895" d="M316.3,345.521a3.077,3.077,0,0,0-2.121-3.526,2.564,2.564,0,0,0-3.079,2.248,3.082,3.082,0,0,0,2.121,3.513A2.55,2.55,0,0,0,316.3,345.521Z" transform="translate(-308.567 -334.968)" fill="#543732"/>
          <path id="Path_7896" data-name="Path 7896" d="M314.92,355.831l-7.537-2.031s-1.022,5.966,2.21,6.579S314.92,355.831,314.92,355.831Z" transform="translate(-302.261 -331.674)" fill="#492a26"/>
          <path id="Path_7897" data-name="Path 7897" d="M307.763,356.808a10.986,10.986,0,0,1,.077-2.708l6.336,1.712a9.815,9.815,0,0,1-1.354,2.274Z" transform="translate(-302.129 -331.591)" fill="#fffdee"/>
        </g>
        <rect id="Rectangle_2982" data-name="Rectangle 2982" width="52.695" height="4.727" transform="translate(207.347 351.213)" fill="#c4a79d"/>
        <g id="Group_8893" data-name="Group 8893" transform="translate(193.052 350.829)">
          <path id="Path_7898" data-name="Path 7898" d="M313.258,554.481H310.92L323.758,425.42l2.338.754Z" transform="translate(-310.92 -425.42)" fill="#c4a79d"/>
        </g>
        <g id="Group_8894" data-name="Group 8894" transform="translate(257.04 350.829)">
          <path id="Path_7899" data-name="Path 7899" d="M273.681,554.481h2.325L263.168,425.42l-2.338.754Z" transform="translate(-260.83 -425.42)" fill="#c4a79d"/>
        </g>
        <rect id="Rectangle_2983" data-name="Rectangle 2983" width="122.776" height="4.727" transform="translate(203.693 348.287)" fill="#e5cfc6"/>
        <path id="Path_7874" data-name="Path 7874" d="M287.037,413.953c2.568,5.365,43.293,15.317,49.9,14.09,6.63-1.226,3.36-4.267.933-6-2.1-1.507-42.347-17.156-46.525-16.006S285.095,409.9,287.037,413.953Z" transform="translate(-101.177 -79.986)"/>
        <g id="freepik--Character--inject-67" transform="translate(134.178 166.947)">
          <path id="Path_879" data-name="Path 879" d="M290.883,231a54.019,54.019,0,0,1-10.36,31.91h0a54.272,54.272,0,1,1-43.9-86.172q2.23,0,4.421.178a53.9,53.9,0,0,1,23.736,7.694,54.553,54.553,0,0,1,14.494,12.857,55.436,55.436,0,0,1,3.387,4.816A54.029,54.029,0,0,1,290.883,231Z" transform="translate(-92.245 -102.64)" fill="#21b0ee"/>
          <g id="Group_3814" data-name="Group 3814" transform="translate(99.36 75.094)" opacity="0.1">
            <path id="Path_880" data-name="Path 880" d="M257.81,256.6c-.682,1.825.455,1.9.534,2.66s0,2.205-2.205,4.411-5.85,1.746-6.612,2.655-2.052,4.792-3.877,6.082-2.126.534-4.713,1.063-4.559,3.877-5.321,5.474.153,4.253-1.671,4.332-2.66-3.877-4.332-6a14.216,14.216,0,0,1-2.735-6.537c-.534-2.507.3-7.754,0-9.806s-5.776-5.7-7.754-8.209-4.713-7.521-4.559-9.193a6.824,6.824,0,0,1,2.28-4.183c.915-.682.534-1.063.682-1.671s.915-.762,1.068-1.518-.46-3.041-1.216-3.422-1.3.915-1.751.682-1.825-1.82-2.354-1.978-.381.989-1.142-.455-1.137-5.093-1.746-5.7-1.063,1.063-2.507,0-2.052-3.115-2.66-3.422-1.444.079-2.072-1.137.549-3.422,0-3.194-1.731,1.978-2.032.307,1.518-7.3,1.216-10.335a12.12,12.12,0,0,1,2.888-8.817s.3-1.671.608-2.74,6.839-5.316,7.6-6.532a6,6,0,0,0,.534-2.166,54.044,54.044,0,0,1,32.143-10.528q2.23,0,4.421.178c.049.069.1.138.153.2a6.372,6.372,0,0,0,3.293,2.077c1.929.712,2.379,1.622,1.978,2.379a2,2,0,0,1-1.825.989c-.762.074-1.483-.356-2.28.153s-1.622,3.244-2.685,3.392-2.937-2.428-3.343-3.19.91-2.384.292-3.145-1.711-.608-3.432-.757-5.726.495-5.573,1.167,5.875-.1,6.028,1.212-4.2,3.551-4.945,3.348-1.775-1.523-2.888-1.671-2.027.757-2.73.86-1.528-.762-2.591-.559-1.32,1.113-1.874,1.483-1.874.356-2.027,1.167,1.671,1.266,2.126,1.77-.559,2.23-.1,2.586,3.293-2.126,4-2.735,1.315-3.244,2.838-3.195,2.027,2.636,2.532,2.888,1.622-.608,3.293-.252,2.838,4.005,3.14,5.118,1.014,2.23.41,2.685-3.348-.3-3.7-1.014,1.825-1.775,1.671-2.027a2.162,2.162,0,0,0-2.077-.208c-.658.4-.964,1.221-1.676,1.424s-2.581-1.924-3.091-1.315.494,2.532,1.014,2.967,2.383.712,2.537,1.216-1.266,1.622-2.992,1.523-3.14-1.419-3.8-.865-.307,2.027-.762,2.537-2.937.148-4.154,1.483-1.775,3.293-2.992,4.406-1.77-.3-3.392,1.266-1.874,5.069-1.929,6.285,0,2.176-.4,2.027a3.271,3.271,0,0,1-1.118-1.874,9.688,9.688,0,0,1,.356-2.181c0-.406-2.334-2.473-3.7-2.685s-2.586.91-3.6,1.721-2.838.663-3.5,1.32-1.162,6.483-.658,7.853,1.167,1.37,2.789.658.707-2.077,1.671-1.775a2.275,2.275,0,0,1,1.484,2.131c0,.811-1.924,2.735-1.671,3.293s1.924-.1,2.735.153,1.216.757.964,2.838-.1,3.694,1.113,4.381,1.9-.989,2.433-.762,1.291,1.444,2.052,1.37.381-.762,1.825-1.216.91-.762,1.216-1.671a1.669,1.669,0,0,1,2.2-1.216c.984.455.307,1.137.381,1.9s1.825.836,3.194,1.291,2.126,0,4.861.915,2.888,3.644,4.03,4.1,4.945-.307,7.675,1.671,1.978,5.622,3.348,6.686,6.458,2.507,8.436,2.888,2.28-.989,3.872-.608,2.512.836,3.041,3.041C264.436,250.712,258.5,254.777,257.81,256.6Z" transform="translate(-201.081 -176.72)"/>
            <path id="Path_881" data-name="Path 881" d="M233.2,258.286c.049.43,1.315.608,2.838,1.484s2.077,3.4,2.888,3.348.554-1.216.86-1.523a.982.982,0,0,0,0-1.622c-.811-.663-1.6-2.077-3.081-2.28s-1.736-.811-2.393-.757a1.142,1.142,0,0,0-1.113,1.35Z" transform="translate(-217.308 -217.267)"/>
            <path id="Path_882" data-name="Path 882" d="M250.046,267.032c-.223.623,0,1.063,1.622,1.484s3.145-.406,2.636-.732-1.266-.178-.989-.737.2-1.37-1.113-1.216S250.249,266.473,250.046,267.032Z" transform="translate(-225.796 -221.756)"/>
            <path id="Path_883" data-name="Path 883" d="M260.989,268.582c-.554.079-.86,1.043-.3,1.652s.554.495,1.212,0,1.676-.762,1.419-1.266S261.548,268.5,260.989,268.582Z" transform="translate(-231.062 -223.132)"/>
            <path id="Path_884" data-name="Path 884" d="M270.48,272.5c.252-.762,1.523,0,2.082.8a3.282,3.282,0,0,1,0,2.838c-.3.86-.495,1.874-1.216,1.484s.049-1.622-.054-2.334S270.277,273.117,270.48,272.5Z" transform="translate(-236.147 -224.977)"/>
            <path id="Path_885" data-name="Path 885" d="M314.642,186.881c-.267.638.959.865,1.671,1.271s1.266.658,1.671,0a1.118,1.118,0,0,0-.712-1.573C316.719,186.426,314.894,186.273,314.642,186.881Z" transform="translate(-258.467 -181.634)"/>
            <path id="Path_886" data-name="Path 886" d="M333.912,197.961c.47.495,1.266.406,1.825,1.118s.356,1.924,1.063,2.28,1.216,0,1.266-.494-1.014-1.77-.91-2.027,1.484.356,1.77,1.118-.3,1.825.406,2.027.559-.712.865-.915.959-.1.91-.707a4.569,4.569,0,0,0-1.518-2.383,5.79,5.79,0,0,0-2.28-1.216,3.372,3.372,0,0,0-2.74.405C334.035,197.6,333.645,197.659,333.912,197.961Z" transform="translate(-268.183 -186.785)"/>
            <path id="Path_887" data-name="Path 887" d="M363.212,205.5a.885.885,0,0,1-.287.534c-1.063.762-2.329-1.874-3.8-2.379s-2.126-2.383-2.433-1.978-.2.964-.658,1.622-1.118.494-1.419,1.775,1.419,3.6,1.014,4.357-.915.495-1.726.455-.658.658-1.721.356-.153-1.622-1.825-3.194-2.23-1.874-1.874-2.581-.153-1.726.608-1.825,1.37,1.014,1.874,1.315,1.167-.608,1.216-1.419-1.775-1.924-2.433-2.552-.707-2.918-.455-3.377.989-.3,1.216-1.414c.119-.658-.92-1.751-1.8-2.542A54.555,54.555,0,0,1,363.212,205.5Z" transform="translate(-275.542 -184.773)"/>
            <path id="Path_888" data-name="Path 888" d="M374.174,268.245c.153-1.622-.658-1.726.153-4.713a8.628,8.628,0,0,0-1.484-6.844c-.623-.658-1.924-.455-2.967.2s-.307,1.167-1.019,1.419-1.414-.153-2.072-.1-1.271,1.721-2.69,1.671-2.329-2.077-3.392-3.521-3.244-2.359-3.956-4.134.658-4.5.351-6.582-1.671-1.622-1.924-2.789.2-.608.559-1.721-.405-1.726.3-3.649,1.978-2.888,1.671-3.748-1.266-2.28-1.315-3.293.989-.964,2.888-2.383,2.433-1.315,3.9-.811a20.866,20.866,0,0,0,3.244.915c.86.148,2.027,2.379,2.379,2.28s.406-.762.559-1.726a2.131,2.131,0,0,1,.633-1.088,54.311,54.311,0,0,1-2.141,60.641C373.022,280.361,374.026,269.862,374.174,268.245Z" transform="translate(-278.939 -202.091)"/>
          </g>
        </g>
        <g id="Group_8891" data-name="Group 8891" transform="translate(235.668 338.377)">
          <path id="Path_7876" data-name="Path 7876" d="M291.739,418.192c-4.548-.179-9.249,2.159-13.911,3.053l1.188,3.922c6.106-.4,11.523.881,13.043.026C292.556,424.886,293.259,418.243,291.739,418.192Z" transform="translate(-277.827 -414.975)" fill="#ffc08d"/>
          <path id="Path_7877" data-name="Path 7877" d="M275.113,424.19c1.967.051,7.128,1.341,7.281.613.217-1.137-3.807-1.814-6.221-2.3C272.9,421.865,275.113,424.19,275.113,424.19Z" transform="translate(-263.169 -413.807)" fill="#ffc08d"/>
          <path id="Path_7878" data-name="Path 7878" d="M274.491,420.3c1.967-.217,8.188-.307,8.214-1.162.051-1.546-6.822-1.239-8.853-.894C270.723,418.765,274.491,420.3,274.491,420.3Z" transform="translate(-261.206 -415.037)" fill="#ffc08d"/>
          <path id="Path_7879" data-name="Path 7879" d="M284.436,421.048c-2.1-1.84,6.03-4.394,4-5.289-1.648-.715-7.141,3.155-10.513,5.174C276.107,423.13,284.436,421.048,284.436,421.048Z" transform="translate(-273.718 -415.672)" fill="#ffc08d"/>
          <path id="Path_7880" data-name="Path 7880" d="M273.257,422.252c1.98.026,8.482.447,8.636-.319.255-1.239-6.349-1.533-8.457-1.7C270.165,419.991,273.257,422.252,273.257,422.252Z" transform="translate(-259.537 -414.411)" fill="#ffc08d"/>
        </g>
        <path id="Path_7881" data-name="Path 7881" d="M298.671,425.753s2.58-3.385,2.006-5.289l-6.3-3.935s-5.723,5.34-8.584,8.725Z" transform="translate(-60.436 -77.057)" fill="#5c5f70"/>
        <rect id="Rectangle_2984" data-name="Rectangle 2984" width="69.314" height="4.727" transform="translate(257.154 348.287)" fill="#f7e8e2"/>
      </g>
    </g>
    <g id="Group_4509" data-name="Group 4509" transform="translate(271.105 232.126)">
      <g id="Group_4506" data-name="Group 4506" transform="translate(0)">
        <g id="Group_4505" data-name="Group 4505">
          <path id="Path_1695" data-name="Path 1695" d="M322.157,151.655l-6.234-.88,4.832-2.987-2.16-6.653s5.71-12.891,7.4-12.475,14.86,4.387,15.527,5.8,3.341,15.55,2.823,17.087-13.55,7.556-14.587,6.624S322.157,151.655,322.157,151.655Z" transform="translate(-315.923 -127.334)" fill="#070707" opacity="0.67" style="mix-blend-mode: soft-light;isolation: isolate"/>
          <path id="Path_1696" data-name="Path 1696" d="M322.282,147.494l-6.359.435,4.958-4.3-2.16-6.653s5.71-12.891,7.4-12.475,14.86,4.387,15.527,5.8,3.341,15.55,2.823,17.087-13.551,7.556-14.587,6.625S322.282,147.494,322.282,147.494Z" transform="translate(-315.923 -124.489)" fill="#fff"/>
        </g>
        <path id="Path_1697" data-name="Path 1697" d="M350.224,163.234s13.862-5.117,11.532-7.5-8.42.626-8.42.626,2.079-7.919-1.185-7.444S347.253,157.291,350.224,163.234Z" transform="translate(-338.311 -141.176)" fill="#b7b735"/>
      </g>
    </g>
  </g>
</svg>
