<svg xmlns="http://www.w3.org/2000/svg" width="100.755" height="87.499" viewBox="265.008 117.033 100.755 87.499"><g data-name="Group 4921"><g data-name="Group 4776"><g data-name="Group 4775"><g data-name="Group 4774"><path d="M320.027 119.5c20.133 3.978 30.248 20.994 30.536 36.295.126 6.637 2.386 21.816-12.5 31.179-19.471 12.245-36.818 6.77-43.565 3.117-9.263-5.016-14.258-14.62-11.71-24.015 1.047-3.864-.692-9.892-2.123-12.763-3.554-7.128-2.288-16.65 8.191-25.502 7.792-6.58 20.345-10.452 31.171-8.312Z" fill="#c8e9fd" fill-rule="evenodd" data-name="Path 4185"/></g></g></g><g data-name="Group 4872"><g data-name="Group 4779"><path d="m282.88 143.94 11.983-6.684 2.524 4.523a5.18 5.18 0 0 1-2 7.046l-2.937 1.639a5.18 5.18 0 0 1-7.046-2l-2.524-4.524z" fill="#734665" fill-rule="evenodd" data-name="Rectangle 1346"/><g data-name="Group 4777"><path d="M284.846 141.27a.854.854 0 0 1-1.162-.33l-2.589-4.641a.854.854 0 0 1 1.492-.832l2.588 4.64a.854.854 0 0 1-.33 1.163Z" fill="#fecc86" fill-rule="evenodd" data-name="Path 4186"/><path d="M290.912 137.885a.854.854 0 0 1-1.162-.33l-2.589-4.64a.854.854 0 0 1 1.492-.832l2.589 4.64a.854.854 0 0 1-.33 1.162Z" fill="#fecc86" fill-rule="evenodd" data-name="Path 4187"/></g><path d="m281.946 141.933 11.7-6.527a1.384 1.384 0 0 1 1.884.535 1.384 1.384 0 0 1-.535 1.883l-11.7 6.527a1.384 1.384 0 0 1-1.884-.534 1.384 1.384 0 0 1 .535-1.884z" fill="#734665" fill-rule="evenodd" data-name="Rectangle 1347"/><g data-name="Group 4778"><path d="m295.192 137.845-11.983 6.685a.114.114 0 1 1-.111-.2l11.983-6.684a.114.114 0 1 1 .111.199Z" fill-rule="evenodd" data-name="Path 4188"/></g></g><g data-name="Group 4811"><g data-name="Group 4780"><path d="M296.66 154.29c-1.151-.502-7.897 5.754-9.074 6.16-.749.257-2.93 6.871-4.903 7.508l-.132-.151-1.514.682-.326.105.032.027-.03.014-1.468 7.206a3.566 3.566 0 0 0 2.03 3.962c1.276.576 5.123 1.696 6.719 2.118a3.57 3.57 0 0 0 4.084-1.827s5.48-6.858 6.05-7.315c1.018-.816 3.08-5.76 3.08-5.76s-3.398-12.228-4.549-12.73Z" fill="#fe9f73" fill-rule="evenodd" data-name="Path 4189"/></g><path d="M284.547 178.626c-2.148-2.656-3.2-10.336-4.911-4.703-1.712 5.633-14.628 30.608-14.628 30.608h20.246s3.09-16.957 6.311-23.688l2.007-2.663c-3.357-1.972-9.025.446-9.025.446Z" fill="#fe9f73" fill-rule="evenodd" data-name="Path 4190"/><g data-name="Group 4781"><path d="M311.86 200.596c-.486 0-.988-.01-1.505-.027-4.886-.17-8.256-1.398-10.303-3.755-3.394-3.908-2.716-10.296-1.932-17.694 1.022-9.627 2.18-20.54-4.95-29.63l.93-.729c3.314 4.228 5.201 9.212 5.767 15.238.49 5.22-.074 10.546-.573 15.246-.756 7.123-1.408 13.275 1.65 16.795 1.82 2.096 4.912 3.191 9.452 3.35 5.972.207 9.81-.801 12.078-3.173 1.65-1.726 2.532-4.264 2.776-7.987.229-3.5-.108-7.713-.498-12.59-.635-7.954-1.426-17.853.055-28.779l1.17.159c-1.464 10.8-.679 20.628-.048 28.525.394 4.924.733 9.176.498 12.762-.262 4.016-1.248 6.788-3.1 8.726-2.312 2.418-5.977 3.563-11.466 3.563Z" fill="#49263e" fill-rule="evenodd" data-name="Path 4191"/></g><g data-name="Group 4782"><path d="M289.595 172.074a.092.092 0 0 1-.113-.116c.004-.01.302-1.023.24-2.759-.056-1.602-.441-4.165-1.95-7.275a.092.092 0 0 1 .165-.081c1.526 3.145 1.914 5.738 1.97 7.36.062 1.763-.235 2.767-.248 2.809a.092.092 0 0 1-.064.062Z" fill-rule="evenodd" data-name="Path 4192"/></g><g data-name="Group 4783"><path d="M292.113 180.169a.077.077 0 0 1-.063-.125l5.828-7.135a.077.077 0 1 1 .119.097l-5.828 7.135a.076.076 0 0 1-.056.028Z" fill-rule="evenodd" data-name="Path 4193"/></g><g data-name="Group 4784"><path d="m287.722 158.848-.118 5.507-7.346 6.365s-.195-7.557.463-8.799c.657-1.242 2.151-3.6 2.592-4.975.441-1.375 2.093-2.217 3.39-3.38 1.298-1.163.947-3.177 2.234-2.817 1.287.361 2.346 3.018 1.081 4.856-1.264 1.84-2.296 3.243-2.296 3.243Z" fill="#fe9f73" fill-rule="evenodd" data-name="Path 4194"/></g><g data-name="Group 4785"><path d="M280.278 171.145h-.001a.077.077 0 0 1-.08-.075c0-.032-.06-3.245.026-6.133.074-2.545.421-3.122.996-4.079.09-.147.18-.3.278-.47.372-.654.728-1.422 1.073-2.165.32-.691.623-1.344.898-1.811.565-.961 2.858-2.582 2.955-2.65a.077.077 0 1 1 .089.125c-.024.017-2.363 1.67-2.912 2.603-.27.46-.572 1.11-.89 1.797-.346.746-.704 1.518-1.08 2.177-.098.172-.19.325-.279.474-.562.934-.901 1.498-.975 4.003-.085 2.885-.025 6.094-.025 6.126a.077.077 0 0 1-.073.078Z" fill-rule="evenodd" data-name="Path 4195"/></g><g data-name="Group 4786"><path d="M287.725 158.917a.077.077 0 0 1-.066-.122l.964-1.328c2.051-2.412 1.886-3.907 1.884-3.922-.133-1.25-.587-1.94-.944-2.3-.385-.387-.744-.482-.747-.483a.077.077 0 0 1 .037-.15c.016.005.397.104.811.517.378.376.857 1.098.996 2.398.008.061.182 1.567-1.918 4.037l-.959 1.322a.077.077 0 0 1-.058.031Z" fill-rule="evenodd" data-name="Path 4196"/></g><g data-name="Group 4787"><path d="M289.085 151.279a5.449 5.449 0 0 0-.855-.408c-.45.414-.536 1.53-1.234 2.387 0 0 .497.235.988.211.492-.024.649-.218.649-.218l.623-1.294c.121-.25.047-.55-.17-.678Z" fill="#f07162" fill-rule="evenodd" data-name="Path 4197"/></g><g data-name="Group 4792"><g data-name="Group 4789"><g data-name="Group 4788"><path d="M282.704 171.416a.07.07 0 0 1-.062-.032c-.48-.725-.472-2.11-.47-2.168a.07.07 0 0 1 .14.001c0 .014-.008 1.4.447 2.09a.07.07 0 0 1-.055.109Z" fill-rule="evenodd" data-name="Path 4198"/></g></g><g data-name="Group 4791"><g data-name="Group 4790"><path d="M283.593 171.814a.07.07 0 0 1-.053-.02c-.624-.605-.915-1.958-.927-2.016a.07.07 0 1 1 .138-.029c.003.014.295 1.369.888 1.944a.07.07 0 0 1-.046.12Z" fill-rule="evenodd" data-name="Path 4199"/></g></g></g><g data-name="Group 4793"><path d="M285.77 157.026a.076.076 0 0 1-.043-.011c-.647-.387-1.534-.56-1.543-.561a.077.077 0 1 1 .03-.151c.036.007.922.179 1.592.58a.077.077 0 0 1-.036.143Z" fill-rule="evenodd" data-name="Path 4200"/></g><g data-name="Group 4794"><path d="M285.334 157.57a.076.076 0 0 1-.043-.01c-.647-.388-1.533-.56-1.542-.561a.077.077 0 1 1 .029-.152c.037.008.922.18 1.592.58a.077.077 0 0 1-.036.143Z" fill-rule="evenodd" data-name="Path 4201"/></g><g data-name="Group 4799"><g data-name="Group 4795"><path d="M301.301 156.444c.644 1.107.486 2.358-.22 2.764l-7.196 4.264c-.86.509-2.026.241-2.633-.667-.664-.996-.422-2.295.505-2.844l7.037-4.168c.849-.503 1.954-.247 2.472.593l.035.058Z" fill="#fe9f73" fill-rule="evenodd" data-name="Path 4202"/></g><g data-name="Group 4796"><path d="M302.37 160.355c.663 1.095.503 2.355.277 2.496l-7.552 4.69c-.848.528-2.018.283-2.64-.614-.682-.984-.464-2.289.451-2.857l7.416-4.43c.184-.108.51-.195.723-.172.369.039.92.22 1.325.887Z" fill="#fe9f73" fill-rule="evenodd" data-name="Path 4203"/></g><g data-name="Group 4797"><path d="M302.46 164.562c.535.863.495 1.786-.283 2.314l-5.418 3.462c-.667.427-1.597.244-2.098-.462-.548-.774-.387-1.812.333-2.272l5.986-3.718a.547.547 0 0 1 .345-.08c.276.029.77.168 1.135.756Z" fill="#fe9f73" fill-rule="evenodd" data-name="Path 4204"/></g><g data-name="Group 4798"><path d="M298.894 153.578c.531.914.57 1.736.19 2.062l-6.313 3.74c-.71.42-1.673.2-2.174-.55-.549-.822-.349-1.894.416-2.348l5.843-3.461a1.462 1.462 0 0 1 2.038.557Z" fill="#fe9f73" fill-rule="evenodd" data-name="Path 4205"/></g></g><g data-name="Group 4808"><g data-name="Group 4802"><g data-name="Group 4800"><path d="M292.48 167.016a.092.092 0 0 1-.101-.037 2.272 2.272 0 0 1-.371-1.744c.11-.53.411-.972.85-1.244l5.89-3.495a.092.092 0 1 1 .094.159l-5.889 3.494a1.709 1.709 0 0 0-.765 1.123 2.087 2.087 0 0 0 .343 1.602.092.092 0 0 1-.052.142Z" fill-rule="evenodd" data-name="Path 4206"/></g><g data-name="Group 4801"><path d="M301.59 163.612a.092.092 0 0 1-.074-.168l.875-.543c.48-.308.54-1.442-.1-2.498a.092.092 0 1 1 .158-.096c.713 1.178.594 2.395.04 2.75l-.875.544a.089.089 0 0 1-.024.01Z" fill-rule="evenodd" data-name="Path 4207"/></g></g><g data-name="Group 4804"><g data-name="Group 4803"><path d="M294.686 169.965a.092.092 0 0 1-.1-.036 1.824 1.824 0 0 1-.313-1.395c.084-.427.322-.785.671-1.008l5.987-3.718a.092.092 0 0 1 .097.156l-5.986 3.718c-.305.195-.514.51-.588.887-.083.426.02.883.283 1.253a.092.092 0 0 1-.05.143Z" fill-rule="evenodd" data-name="Path 4208"/></g></g><g data-name="Group 4807"><g data-name="Group 4805"><path d="M292.427 159.626c-.692.192-1.471-.092-1.907-.745a.092.092 0 0 1 .154-.102c.466.698 1.366.927 2.05.522l3.76-2.228a.092.092 0 1 1 .095.159l-3.761 2.228c-.125.074-.256.129-.39.166Z" fill-rule="evenodd" data-name="Path 4209"/></g><g data-name="Group 4806"><path d="M299.11 155.729a.092.092 0 0 1-.085-.16c.361-.31.274-1.11-.211-1.944a.092.092 0 0 1 .16-.093c.539.928.608 1.803.171 2.178a.092.092 0 0 1-.035.019Z" fill-rule="evenodd" data-name="Path 4210"/></g></g></g><g data-name="Group 4809"><path d="M292.08 163.605a.094.094 0 0 1-.061-.004c-.823-.36-1.279-1.412-1.23-2.181.043-.677.496-1.286.92-1.538.364-.215 1.867-1.086 1.882-1.095a.092.092 0 0 1 .093.16c-.015.009-1.518.88-1.88 1.094-.374.221-.792.784-.83 1.39-.038.594.291 1.64 1.119 2a.092.092 0 0 1-.012.174Z" fill-rule="evenodd" data-name="Path 4211"/></g><g data-name="Group 4810"><path d="M301.106 159.298a.092.092 0 0 1-.074-.168c.717-.45.635-1.582.405-2.234a.092.092 0 0 1 .174-.061c.25.707.328 1.943-.48 2.452a.092.092 0 0 1-.025.01Z" fill-rule="evenodd" data-name="Path 4212"/></g><path d="m293.424 158.389-1.361.752c-.27.152-.957-.129-1.242-.636-.285-.506-.167-1.239.102-1.39l1.362-.752c.198-.112.663.211.945.701.298.517.402 1.208.194 1.325Z" fill="#f07162" fill-rule="evenodd" data-name="Path 4213"/><path d="m294.013 162.449-1.156.752c-.27.152-.999-.204-1.326-.785-.327-.582-.252-1.39.018-1.54l1.197-.66c.276-.194.866.185 1.189.749.34.593.354 1.232.078 1.484Z" fill="#f07162" fill-rule="evenodd" data-name="Path 4214"/><path d="m295.385 166.654-1.362.75c-.27.152-.999-.203-1.326-.785-.327-.58-.252-1.388.018-1.54l1.363-.75c.197-.112.7.276 1.023.84.34.593.492 1.368.284 1.485Z" fill="#f07162" fill-rule="evenodd" data-name="Path 4215"/><path d="m297.183 169.636-1.154.667c-.228.135-.86-.157-1.15-.65-.29-.492-.24-1.185-.011-1.32l1.154-.666c.167-.099.604.225.891.702.302.501.446 1.163.27 1.267Z" fill="#f07162" fill-rule="evenodd" data-name="Path 4216"/></g><path d="M294.861 149.119c.241-.135.468-.285.682-.447-.561-.514-1.471-1.136-2.372-.85-1.205.382-1.074 1.628-.615 2.559.142-.065.282-.134.42-.21l1.885-1.052Z" fill="#734665" fill-rule="evenodd" data-name="Path 4217"/><g data-name="Group 4871"><g data-name="Group 4870"><g data-name="Group 4865"><g data-name="Group 4820"><g data-name="Group 4815"><g data-name="Group 4814"><g data-name="Group 4813"><g data-name="Group 4812"><path d="M315.348 128.08c.975-6.956 7.404-11.804 14.36-10.829 6.955.975 11.803 7.404 10.828 14.36a12.676 12.676 0 0 1-4.876 8.34s-4.382 3.541-6.291 7.803c0 0-2.306.44-3.972.248-1.655-.275-3.75-1.33-3.75-1.33-.665-4.623-3.905-9.233-3.905-9.233a12.676 12.676 0 0 1-2.394-9.36Z" fill="#fecc86" fill-rule="evenodd" data-name="Path 4218"/></g></g></g></g><g data-name="Group 4816"><path d="m329.85 146.798-.473 3.367a3.651 3.651 0 0 1-2.732 3.036 1.975 1.975 0 0 1-3.872-.543 3.65 3.65 0 0 1-1.792-3.67l.472-3.367 8.396 1.177Z" fill="#4cb7d8" fill-rule="evenodd" data-name="Path 4219"/></g><g data-name="Group 4819"><g data-name="Group 4818"><g data-name="Group 4817"><path d="M315.348 128.08a12.656 12.656 0 0 1 3.08-6.674c2.41 9.592 7.43 16.52 15.559 20.073-1.262 1.248-2.97 3.155-4.144 5.318l-8.39-1.176c-.944-4.245-3.71-8.182-3.71-8.182a12.676 12.676 0 0 1-2.395-9.36Z" fill="#fecc86" fill-rule="evenodd" data-name="Path 4220"/></g></g></g></g><g data-name="Group 4824"><g data-name="Group 4823"><g data-name="Group 4822"><g data-name="Group 4821"><path d="M322.812 136.875c-.27-6.285.26-9.545 1.619-9.967 1.054-.326 1.596.1 1.865.517.037.058.072.12.103.184.467-.126 1.054-.168 1.791-.065l.364.051c.737.104 1.29.305 1.704.555.048-.053.098-.103.15-.149.373-.326 1.011-.587 1.935.017 1.191.778.804 4.058-1.183 10.027-1.44 4.324-3.225 8.49-3.243 8.532l-.347-.149c.018-.041 1.798-4.195 3.232-8.504 2.49-7.476 1.905-9.218 1.335-9.59-.583-.382-1.081-.398-1.48-.049-.03.026-.058.053-.085.081.807.643.908 1.47.914 1.8.014.91-.509 1.744-1.167 1.859-.16.027-.456.01-.655-.408-.318-.666-.23-2.206.363-3.158-.408-.237-.922-.406-1.526-.49l-.363-.051c-.604-.085-1.144-.064-1.602.052.309 1.078-.03 2.583-.519 3.136-.307.348-.597.282-.742.211-.602-.29-.875-1.235-.61-2.107a2.353 2.353 0 0 1 1.373-1.479 1.417 1.417 0 0 0-.06-.101c-.288-.446-.77-.567-1.436-.361-.65.201-1.691 1.715-1.354 9.588.195 4.537.764 9.02.77 9.065l-.374.048c-.006-.045-.577-4.542-.772-9.095Zm7.192-5.42c.107.223.212.205.25.198.424-.073.867-.686.854-1.48-.01-.604-.28-1.117-.769-1.502-.505.824-.607 2.214-.335 2.783Zm-4.979-2.135c-.23.76.028 1.471.414 1.658.036.017.131.064.296-.122.417-.473.702-1.837.442-2.768-.574.235-.976.654-1.152 1.232Z" fill="#f99247" fill-rule="evenodd" data-name="Path 4221"/></g></g></g></g><g data-name="Group 4828"><g data-name="Group 4827"><g data-name="Group 4826"><g data-name="Group 4825"><path d="M329.898 146.894c.14-.273.2-.371.332-.588l.072-.118c2.087-3.452 5.385-6.137 5.418-6.164l.01-.008a12.733 12.733 0 0 0 4.899-8.393c.98-6.995-3.913-13.485-10.909-14.465a12.784 12.784 0 0 0-11.427 4.257l.142.124a12.596 12.596 0 0 1 11.26-4.194c6.892.966 11.713 7.36 10.747 14.252a12.546 12.546 0 0 1-4.839 8.279l-.139.106.009.003c-.635.536-3.464 3.016-5.332 6.105l-.072.118c-.134.22-.195.32-.339.6l.168.086Z" fill="#21111d" fill-rule="evenodd" data-name="Path 4222"/></g></g></g></g><g data-name="Group 4832"><g data-name="Group 4831"><g data-name="Group 4830"><g data-name="Group 4829"><path d="m337.552 125.264.186-.027c-.004-.033-.5-3.263-3.47-4.867l-.09.165c2.884 1.559 3.37 4.697 3.374 4.729Z" fill="#21111d" fill-rule="evenodd" data-name="Path 4223"/></g></g></g></g><g data-name="Group 4836"><g data-name="Group 4835"><g data-name="Group 4834"><g data-name="Group 4833"><path d="m336.818 126.303.186-.026c-.005-.033-.501-3.263-3.47-4.868l-.09.166c2.884 1.559 3.369 4.697 3.374 4.728Z" fill="#21111d" fill-rule="evenodd" data-name="Path 4224"/></g></g></g></g><g data-name="Group 4840"><g data-name="Group 4839"><g data-name="Group 4838"><g data-name="Group 4837"><path d="m324.202 153.221.915.129a3.876 3.876 0 0 0 4.371-3.297l.468-3.336-8.49-1.19-.026.187 8.303 1.164-.442 3.149a3.687 3.687 0 0 1-4.158 3.136l-.915-.129a3.662 3.662 0 0 1-2.411-1.405l-.15.115a3.85 3.85 0 0 0 2.535 1.477Z" fill="#21111d" fill-rule="evenodd" data-name="Path 4225"/></g></g></g></g><g data-name="Group 4844"><g data-name="Group 4843"><g data-name="Group 4842"><g data-name="Group 4841"><path d="M324.406 154.7c1.82.255 2.33-1.473 2.334-1.491l-.181-.051c-.02.066-.485 1.625-2.188 1.346l-.03.186.065.01Z" fill="#21111d" fill-rule="evenodd" data-name="Path 4226"/></g></g></g></g><g data-name="Group 4848"><g data-name="Group 4847"><g data-name="Group 4846"><g data-name="Group 4845"><path d="m318.318 135.684.132-.134c-1.489-1.466-1.462-3.562-1.462-3.583l-.188-.004c0 .022-.03 2.197 1.518 3.721Z" fill="#21111d" fill-rule="evenodd" data-name="Path 4227"/></g></g></g></g><g data-name="Group 4852"><g data-name="Group 4851"><g data-name="Group 4850"><g data-name="Group 4849"><path d="m318.812 134.839.132-.135c-1.086-1.068-1.066-2.597-1.066-2.612l-.189-.004c-.001.065-.022 1.623 1.123 2.75Z" fill="#21111d" fill-rule="evenodd" data-name="Path 4228"/></g></g></g></g><g data-name="Group 4856"><g data-name="Group 4855"><g data-name="Group 4854"><g data-name="Group 4853"><path d="m330 148.53.028-.186c-.071-.01-7.138-1.095-9.263-2.245l-.09.166c2.154 1.166 9.033 2.221 9.324 2.266Z" fill="#21111d" fill-rule="evenodd" data-name="Path 4229"/></g></g></g></g><g data-name="Group 4860"><g data-name="Group 4859"><g data-name="Group 4858"><g data-name="Group 4857"><path d="m329.778 150.108.03-.186c-.078-.013-7.74-1.242-9.068-2.212l-.111.152c1.365.997 8.832 2.196 9.149 2.246Z" fill="#21111d" fill-rule="evenodd" data-name="Path 4230"/></g></g></g></g><g data-name="Group 4864"><g data-name="Group 4863"><g data-name="Group 4862"><g data-name="Group 4861"><path d="m329.165 151.673.028-.186c-.07-.01-6.953-1.05-8.666-2.263l-.11.154c1.75 1.24 8.463 2.253 8.748 2.295Z" fill="#21111d" fill-rule="evenodd" data-name="Path 4231"/></g></g></g></g></g><g data-name="Group 4869"><g data-name="Group 4868"><g data-name="Group 4867"><g data-name="Group 4866"><path d="M320.298 122.497a3.116 1.488-24.82 1 1 .042.09z" fill="#f3fffe" fill-rule="evenodd" data-name="Ellipse 109"/></g></g></g></g></g></g></g><g data-name="Group 4920"><g data-name="Group 4874"><g data-name="Group 4873"><path d="M317.297 164.002c1.774-.474 4.324.918 6.48.912 2.154-.007 2.949 3.063 2.949 3.063s-3.907.19-4.72-.118c-.512-.193-2.714-.96-4.31-1.543a33.525 33.525 0 0 1-1.552-.594 1.956 1.956 0 0 1-.104-.049l-.012-.006a.183.183 0 0 1-.05-.033c-.112-.153-.455-1.158 1.319-1.632Z" fill="#f49d75" fill-rule="evenodd" data-name="Path 4232"/></g></g><g data-name="Group 4881"><g data-name="Group 4877"><g data-name="Group 4875"><path d="M316.144 165.722a1.984 1.984 0 0 1-.104-.049c.058-.132.126-.268.208-.405.083-.14.27-.191.434-.124a.407.407 0 0 1 .024.01l.872.424s.13.107.145.439c.005.102-.007.206-.027.299a33.306 33.306 0 0 1-1.552-.594Z" fill="#f07162" fill-rule="evenodd" data-name="Path 4233"/></g><g data-name="Group 4876"><path d="m315.97 165.844.009.008-.008-.008Z" fill="#f07162" fill-rule="evenodd" data-name="Path 4234"/></g></g><g data-name="Group 4880"><g data-name="Group 4878"><path d="m316.04 165.673-.013-.006c.053-.129.119-.264.2-.4.074-.123.282-.208.425-.139l.032.016h-.002c-.118-.02-.275.07-.334.167-.083.14-.15.278-.204.41a2.2 2.2 0 0 1-.104-.048Z" fill="#fdc9bc" fill-rule="evenodd" data-name="Path 4235"/></g><g data-name="Group 4879"><path d="M316.061 165.924a.04.04 0 0 0 .007.004v.001l-.007-.005Z" fill="#fdc9bc" fill-rule="evenodd" data-name="Path 4236"/></g></g></g><g data-name="Group 4883"><g data-name="Group 4882"><path d="m316.63 164.176.062.113c-.436.236-.69.504-.755.795-.056.25.05.444.083.497.373.138 5.839 2.152 6.486 2.315.66.166 4.182.019 4.217.017l.006.128c-.146.006-3.575.15-4.254-.02-.674-.17-6.28-2.238-6.519-2.326l-.018-.007-.01-.015a.794.794 0 0 1-.117-.614c.072-.33.348-.627.82-.883Z" fill-rule="evenodd" data-name="Path 4237"/></g></g><g data-name="Group 4885"><g data-name="Group 4884"><path d="M316.248 159.823c2.35-.157 5.217 2.227 7.932 2.753 2.714.525 2.954 4.588 2.954 4.588s-4.965-.73-5.914-1.318c-.572-.356-2.98-1.766-4.821-2.877-.897-.541-1.66-1.012-2.011-1.254a3.157 3.157 0 0 1-.147-.107.233.233 0 0 1-.058-.056c-.103-.222-.286-1.572 2.065-1.73Z" fill="#f49d75" fill-rule="evenodd" data-name="Path 4238"/></g></g><g data-name="Group 4892"><g data-name="Group 4888"><g data-name="Group 4886"><path d="M314.388 161.715a3.29 3.29 0 0 1-.127-.091c.04-.077.084-.154.13-.232.117-.197.38-.268.611-.173l.032.013 1.223.595s.183.15.204.615c.009.185-.022.371-.062.527-.897-.541-1.66-1.012-2.011-1.254Z" fill="#f07162" fill-rule="evenodd" data-name="Path 4239"/></g><g data-name="Group 4887"><path d="m314.002 162.2.018.02a.743.743 0 0 1-.018-.02Z" fill="#f07162" fill-rule="evenodd" data-name="Path 4240"/></g></g><g data-name="Group 4891"><g data-name="Group 4889"><path d="m314.261 161.624-.02-.016c.037-.072.077-.144.12-.217.103-.172.397-.292.596-.195l.045.023c-.166-.03-.388.096-.47.234a4.35 4.35 0 0 0-.144.262 3.194 3.194 0 0 1-.127-.091Z" fill="#fdc9bc" fill-rule="evenodd" data-name="Path 4241"/></g><g data-name="Group 4890"><path d="m314.129 162.313.009.006-.01-.006Z" fill="#fdc9bc" fill-rule="evenodd" data-name="Path 4242"/></g></g></g><g data-name="Group 4894"><g data-name="Group 4893"><path d="m315.673 159.816.018.127c-.89.128-1.251.569-1.398.916-.138.327-.097.6-.058.655.067.074 1.05.718 6.868 4.184l.242.144c.566.337 3.693.911 3.724.917l-.023.126c-.13-.023-3.182-.584-3.767-.933l-.242-.144c-6.77-4.033-6.872-4.173-6.905-4.219-.087-.12-.096-.451.043-.78.13-.31.499-.85 1.498-.993Z" fill-rule="evenodd" data-name="Path 4243"/></g></g><g data-name="Group 4896"><g data-name="Group 4895"><path d="m319.334 152.316.009-.03c.058-.168.463-.995 2.612-.256 2.383.818 3.476 7.128 4.17 7.727.695.599 2.934 4.221 6.32 2.278 0 0 1.799-1.635 1.506-3.087 0 0-3.188-2.844-3.716-3.146-.463-.266-3.361-1.829-3.047-4.145a.849.849 0 0 1 1.161-.672 56.4 56.4 0 0 1 2.669 1.138c.608.283 1.146.56 1.463.78.429.298 1.345.917 2.314 1.567a26.915 26.915 0 0 0 5.81 2.941c1.98.72 4.742 2.023 6.9 4.195 3.242 3.264 18.257 22.12 18.257 22.12v20.805h-6.385l-17.152-32.26s-15.311-4.057-16.4-4.568c-1.091-.51-3.183-6.082-3.507-6.586-.206-.32-1.35-3.773-2.16-6.257-.364-1.114-.66-2.033-.774-2.387l-.049-.153-.001-.004Z" fill="#f49d75" fill-rule="evenodd" data-name="Path 4244"/></g></g><g data-name="Group 4898"><g data-name="Group 4897"><path d="M313.426 155.446c-.029-.267.26-1.737 2.761-1.066 2.501.672 4.637 4.17 7.274 5.68 2.638 1.511 1.445 5.823 1.445 5.823s-4.906-2.522-5.684-3.471c-.467-.57-2.449-2.867-3.966-4.672a67.88 67.88 0 0 1-1.583-1.929l-.1-.133-.014-.02c-.083-.113-.13-.187-.133-.212Z" fill="#f49d75" fill-rule="evenodd" data-name="Path 4245"/></g></g><g data-name="Group 4900"><g data-name="Group 4899"><path d="m333.883 158.922.128-.01c.002.02.152 2.122-1.812 3.293l-.065-.11c1.893-1.13 1.751-3.153 1.75-3.173Z" fill-rule="evenodd" data-name="Path 4246"/></g></g><g data-name="Group 4907"><g data-name="Group 4903"><g data-name="Group 4901"><path d="m319.332 152.288.098-.047c.215-.1.483-.008.624.208h.001l.018.03.701 1.222s.07.236-.183.647a2.009 2.009 0 0 1-.437.48c-.364-1.114-.66-2.033-.773-2.387-.028-.085-.044-.138-.05-.153Z" fill="#f07162" fill-rule="evenodd" data-name="Path 4247"/></g><g data-name="Group 4902"><path d="M318.625 152.706Z" fill="#f07162" fill-rule="evenodd" data-name="Path 4248"/></g></g><g data-name="Group 4906"><g data-name="Group 4904"><path d="M319.33 152.284s.002-.01.01-.03l.065-.03c.189-.089.51-.02.624.18l.025.045c-.125-.121-.389-.144-.54-.073-.045.02-.09.043-.133.065-.028-.085-.044-.138-.05-.153v-.004Z" fill="#fdc9bc" fill-rule="evenodd" data-name="Path 4249"/></g><g data-name="Group 4905"><path d="m318.67 152.88.003.008a.072.072 0 0 1-.003-.009Z" fill="#fdc9bc" fill-rule="evenodd" data-name="Path 4250"/></g></g></g><g data-name="Group 4913"><g data-name="Group 4910"><g data-name="Group 4908"><path d="m313.673 155.811-.1-.133c.118-.125.247-.25.388-.371.18-.154.463-.139.657.03h.002l.025.025 1.007.986s.13.207-.002.672c-.085.3-.273.57-.394.72a68.186 68.186 0 0 1-1.583-1.929Z" fill="#f07162" fill-rule="evenodd" data-name="Path 4251"/></g><g data-name="Group 4909"><path d="M313.313 155.974v-.001Z" fill="#f07162" fill-rule="evenodd" data-name="Path 4252"/></g></g><g data-name="Group 4912"><g data-name="Group 4911"><path d="M313.56 155.659a4.41 4.41 0 0 1 .372-.362c.158-.137.486-.157.65.004l.037.037c-.154-.083-.414-.033-.54.075a4.55 4.55 0 0 0-.406.398l-.1-.133-.014-.02Z" fill="#fdc9bc" fill-rule="evenodd" data-name="Path 4253"/></g></g></g><g data-name="Group 4915"><g data-name="Group 4914"><path d="M320.204 151.646c.393-.043.959.013 1.769.29 1.635.563 2.639 3.56 3.372 5.748.325.97.606 1.809.82 1.993l-.085.097c-.24-.207-.498-.98-.857-2.049-.683-2.04-1.717-5.125-3.292-5.667-1.256-.431-1.89-.316-2.202-.142-.242.134-.315.313-.332.366.14.436 2.662 8.288 2.971 8.768.088.136.29.606.57 1.255.742 1.727 2.126 4.941 2.91 5.308.496.233 4.483 1.61 8.248 2.392l-.026.125c-3.775-.784-7.777-2.167-8.277-2.4-.828-.388-2.17-3.51-2.974-5.374-.266-.62-.477-1.11-.559-1.236-.325-.506-2.882-8.478-2.99-8.817l-.006-.016.004-.017c.002-.011.063-.277.393-.463.127-.072.302-.135.543-.161Z" fill-rule="evenodd" data-name="Path 4254"/></g></g><g data-name="Group 4917"><g data-name="Group 4916"><path d="M314.658 154.16c.274-.03.591-.02.95.03l-.018.128c-.858-.121-1.457-.007-1.779.34-.319.342-.258.812-.243.9.275.33 5.538 6.612 5.967 7.07.433.462 4.824 2.895 4.869 2.92l-.062.112c-.182-.1-4.454-2.468-4.9-2.944-.441-.47-5.758-6.818-5.983-7.088l-.01-.012-.004-.016c-.005-.024-.125-.604.272-1.03.212-.228.527-.365.941-.41Z" fill-rule="evenodd" data-name="Path 4255"/></g></g><g data-name="Group 4918"><path d="M344.705 160.091c.837.447 1.116 1.429 1.127 1.47l-.106.03c-.003-.01-.278-.98-1.073-1.403l.052-.097Z" fill-rule="evenodd" data-name="Path 4256"/></g><g data-name="Group 4919"><path d="M343.56 159.958c.92.229 1.43 1.114 1.451 1.151l-.096.054c-.005-.008-.507-.88-1.382-1.098l.027-.107Z" fill-rule="evenodd" data-name="Path 4257"/></g></g><path d="M333.572 158.612c-.86-.762-2.922-2.573-3.337-2.81-.464-.266-3.361-1.829-3.047-4.145a.849.849 0 0 1 1.161-.672c.715.286 1.768.72 2.67 1.138.607.283 1.145.56 1.463.781a235.3 235.3 0 0 0 2.314 1.566 26.435 26.435 0 0 0 3.3 1.885l-4.524 2.257Z" fill="#f49d75" fill-rule="evenodd" data-name="Path 4258"/><path d="m328.344 150.983.005.002c.591.237 1.414.574 2.19.92-.482.745-.953 1.069-.953 1.069-1.91-1.242-1.97-1.654-1.97-1.654.193-.145.475-.257.728-.337Z" fill="#f07162" fill-rule="evenodd" data-name="Path 4259"/></g></svg>