<svg xmlns="http://www.w3.org/2000/svg" width="276.147" height="266.921" viewBox="0 0 276.147 266.921">
  <g id="Group_8132" data-name="Group 8132" transform="translate(-45.25 -53.368)">
    <g id="OBJECTS" transform="translate(43.585 27.183)">
      <g id="Group_8130" data-name="Group 8130">
        <g id="Group_8117" data-name="Group 8117" transform="translate(11.792 33.591)">
          <path id="Path_6629" data-name="Path 6629" d="M311.214,279.085a110.774,110.774,0,0,1-7.836,10.97c-35.335,50.5-99.785,49.882-99.785,49.882-58.976.822-102.512-28.863-122.436-70.3q-2.045-4.248-3.746-8.651v-.007q-.485-1.223-.928-2.467a125.2,125.2,0,0,1-6.458-57.584,130.126,130.126,0,0,1,2.663-15.011c.091-.4.19-.808.288-1.216.091-.358.183-.724.274-1.082A141.682,141.682,0,0,1,78.093,168.3q1.2-3.152,2.537-6.2c.365-.836.738-1.673,1.124-2.495A135.115,135.115,0,0,1,114,115.925q1.876-1.687,3.795-3.3,3.2-2.688,6.564-5.165c.007-.007.007-.007.014-.007C149.543,88.833,180.38,79.24,210.5,80.569a117.3,117.3,0,0,1,42.215,9.684,112.134,112.134,0,0,1,22.538,13.17c2,1.5,3.942,3.064,5.868,4.716a156.517,156.517,0,0,1,14.217,13.844c.576.632,1.138,1.272,1.7,1.912q3.415,3.921,6.444,7.948,2.477,3.289,4.716,6.641c.436.647.857,1.3,1.279,1.947q2.7,4.2,5.025,8.475,2.034,3.763,3.809,7.562c.316.682.625,1.363.921,2.052.169.365.33.738.485,1.1a129.631,129.631,0,0,1,6.761,19.909c.19.738.372,1.483.534,2.221a128.467,128.467,0,0,1,2.888,18.082C332.423,228.824,325.079,257,311.214,279.085Z" transform="translate(-69.116 -80.441)" fill="#22b0ec"/>
          <path id="Path_6630" data-name="Path 6630" d="M314.5,148.9a6.777,6.777,0,0,1-2.4.045,9.84,9.84,0,0,1-4.013-3.261c-.833-1.3-.044-5.4-1.511-5.91-.968-.335-2.784,1.511-3.3,2.382-.975,1.644.923,6.863-.886,7.585-1.756.7-4.927-3.067-5.895-4.66-.67-1.1-.2-3.96-.923-5.024-.923-1.348-4.205-2.59-5.56-3.506-.543-.365-1.459-1.377-2.084-1.541-1.422-.357-5.106-.483-5.776.774-.633,1.2,1.511,3.878,2.531,4.771,1.488,1.31,5.739,1.869,7.473,2.843.379.216,1.4.655,1.384,1.087-.022.417-1.235.558-1.4.938-.409.923,1.057,3.06.618,3.968-.394.8-2.285,1.623-3.186,1.824a6.208,6.208,0,0,1-2.978-.23c-.707-.335-2.434-1.533-2.151-2.248.432-1.086,3.73.246,4.727-.387.454-.283,1.2-1.339,1.027-1.831-.953-2.955-9.194-3.2-11.359-5.463-.543-.551-.432-2.687-1.206-2.806-1.422-.216-2.382,3.744-3.7,4.295-1.013.424-3.439-.8-4.407-.283-2.382,1.243-4.369,6.7-5.359,9.148-.327.819-.193,2.792-.826,3.41-.752.729-3.082.744-4.116.93a32.183,32.183,0,0,1-6.163.863c-1.027-.082-3.2-.476-3.923-1.183-1.311-1.3-2.04-5.188-2.092-7a6.615,6.615,0,0,1,.841-3.588c1.072-1.191,4.482-1.958,6.089-2.181,1.742-.253,5.71,1.541,7.042.424a3.838,3.838,0,0,0,.305-3.819c-.484-.558-2.5.275-3-.275-1-1.109-.729-4.727.186-5.9,1.065-1.362,5.382-.878,6.744-1.98,1.623-1.3,2.271-5.97,3.879-7.28.975-.8,3.6-1.3,4.868-1.489,1.131-.164,3.439.119,4.578.053.417-.03,1.422.119,1.653-.223.893-1.332-.275-5.516-1.779-6.119-1.377-.551-3.729,3.268-5.158,2.881-1.258-.335-1.459-3.766-2.583-4.4-.692-.394-2.575.454-3.223-.007a4.317,4.317,0,0,1-1.042-3.112c.134-.937,1.489-2.471,2.2-3.1,1.243-1.094,4.727-1.958,5.813-3.179a6.2,6.2,0,0,0,.8-1.72,112.267,112.267,0,0,0-22.532-13.175A136.171,136.171,0,0,0,210.5,80.56c-30.118-1.325-60.957,8.27-86.132,26.886.142-.074.275-.141.4-.2,1.7-.826,5.725-1.623,7.526-1.013,1.436.484,2.791,3.751,4.213,4.28a9.944,9.944,0,0,0,5.918-.461c1.1-.58,1.876-3.484,3.059-3.834.729-.209,2.635.238,2.859.945.491,1.6-2.739,4.451-4.229,5.3-1.265.729-5.806.975-6.364.982.29.231.23,3.819,1.161,4.451,1.69,1.154,6.633.052,8.144-1.318.447-.4.164-1.868.6-2.278,1.035-.961,4.652-.03,5.59-1.079.566-.632.8-2.71.216-3.328s-2.881.551-3.4-.1c-.491-.618.193-2.449.7-3.059a5.952,5.952,0,0,1,2.442-1.1c2.158-.551,7.883-2.694,8.917-.752.774,1.437-4,3.38-4.281,4.973a4.471,4.471,0,0,0,1.258,3.245c1.072.729,4.37,1.05,5.211.074,1-1.176-1.779-4.593-1.191-6.007.521-1.258,3.261-2.568,4.519-3.141a27.1,27.1,0,0,1,8.508-2.129c2.747.044,7.928,2.226,10.563,2.97.677.194,2.24.246,2.694.752.8.893-.2,3.834.655,4.652.744.707,3.588-.424,4.132.439.573.893-.633,3.283-1.474,3.938-.9.7-3.4.454-4.541.6-.275.037-.9-.03-1.1.149-.871.774-.134,3.774-1.087,4.444-2.717,1.9-12.446,1.906-13.324-1.243-.759-2.732,9.484-3.811,9.4-6.632-.037-1.25-3.052-2.5-4.317-2.694-2.2-.327-6.767,1.027-8.6,2.263-.231.141-.387.789-.655.871-.008,0-.022-.015-.03-.015-.059.022-.082.156-.119.208a11.575,11.575,0,0,1-2.159,2.888c-.878.566-3.581.015-4.109.9-.268.446.238,1.623.618,1.98.29.268,1.28.089,1.526.395a.75.75,0,0,1,.044.677c-.506.685-2.806.246-3.312.923-.3.394.335,1.571.015,1.95a3.611,3.611,0,0,1-3.223.6c-.841-.506-.209-3.328-1.117-3.737-1.392-.618-4.258,1.734-5.568,2.508-2.963,1.772-10.057,5.1-10.913,8.382-.32,1.206,1.117,3.692,2,4.593a9.53,9.53,0,0,0,3.618,1.668c1.652.365,5.486-1.086,6.766,0,1.437,1.221-.573,6.372,1.035,7.362.662.417,2.441-.35,3-.886,1.169-1.131.93-4.928,2.018-6.134,1.228-1.377,5.865-1.526,6.758-3.126,1.079-1.973-1.98-6.73-1.25-8.844a7.733,7.733,0,0,1,3.513-3.417c2.323-.811,8.129-.841,9.811.908,1.034,1.087-1,4.973.156,5.926.491.409,1.943-.112,2.553-.342,1.824-.677,4.7-5.017,6.5-4.273,1.831.752.186,6.1,1.415,7.614.432.528,1.89.8,2.523,1.072.744.32,2.509.625,2.985,1.273a5.816,5.816,0,0,1,.424,4.571c-.328.58-1.817.893-2.42,1.19-.558.268-1.987.521-2.218,1.079-.149.358.253,1.191.543,1.459.4.372,1.585.469,2.122.625,1.027.3,3.424.394,4.108,1.2a3.55,3.55,0,0,1,.327,3.141,1.825,1.825,0,0,1-1.682.372c-.045-.03-.008-.075-.023-.089-.41-.343-1.6-.254-2.129-.335-1.4-.216-4.541.03-5.6-.893-.446-.394-.127-1.95-.632-2.278h-.015c-.275-.581,1.741-1.131,1.957-1.734a1.851,1.851,0,0,0-2.7-2.368c-.41.313.037,1.63-.306,2.025-.677.767-2.947,1.11-3.983,1.162-.111.007-.349-.149-.432-.075-.037.03.06.156.03.193a1.657,1.657,0,0,1-1.385.4c-.618-.216-.937-1.741-1.474-2.121a3.665,3.665,0,0,0-1.414-.387,7.5,7.5,0,0,0-2.911.387,3.071,3.071,0,0,0-1.176,1.235,3.145,3.145,0,0,0,.335,2.344c.454.469,1.943.417,2.605.476.618.06,2.33-.58,2.5.008.037.141-.409.208-.521.313-.6.566-1.057,2.635-1.89,2.724-.4.038-.8-.915-1.169-1.086a4,4,0,0,0-2.233-.268c-1.9.752-5.479,4.25-5.136,6.208.037.245.841.275.849.521.119,2.456-6.283,4.132-8.047,5.873-2.1,2.077-6.089,6.654-7.027,9.424-.3.893.372,2.918-.03,3.774-1.035,2.2-5.784,4.6-7.474,6.364-1,1.042-3.179,3.156-3.506,4.548-.469,1.965,3.112,6.58,1.571,7.927-1.169,1.027-4.995-.625-6.007-1.8-.788-.908.343-3.967-.618-4.69-3.148-2.352-12.014.715-15.714,2.122-2.151.811-6.148,3.342-7.57,5.106-1.154,1.444-2.188,5.062-2.642,6.834-.327,1.28-.982,3.945-.692,5.225.3,1.332,1.757,3.938,2.978,4.586,1.444.759,5,.484,6.52-.1,2.881-1.094,6.238-8.687,9.253-8.016.856.193,1.34,2.315,1.363,3.171.037,1.645-3.253,4.8-2.308,6.156,1.109,1.608,6.424-1,7.943.246,2.315,1.913.1,9.685,2.412,11.59,2.077,1.712,8.471,1.563,10.882.335,2.308-1.176,3.35-7.385,5.68-8.523,1.891-.923,6.513-.343,8.426.528,1.124.514,2.241,3.148,3.432,3.521,1.883.588,6.558.015,7.794-1.5.365-.454-.573-1.958-.1-2.3.968-.707,3.6.812,4.607,1.474,1.891,1.243,3.8,5.985,5.926,6.8,1.973.752,6.461-1.816,8.418-1.013,1.46.6,3.194,3.477,3.849,4.883.7,1.481.186,5.241,1.354,6.416,1.139,1.124,4.727,1.065,6.305,1.422a28.127,28.127,0,0,0,3.491.789c2.962.142,8.992-2.531,11.754-1.466,1.54.6,2.776,4.22,4.213,5.047,1.183.67,4.578-.134,5.426.923.737.923-.007,3.558-.365,4.675-.692,2.166-4.131,5.635-4.7,7.839-1,3.848,2,12.163.543,15.862a12.178,12.178,0,0,1-4.593,4.668c-1.727.833-6.126-.335-7.667.8-1.027.744-1.459,3.484-1.935,4.638a.027.027,0,0,1-.008.015.055.055,0,0,0,.015.03c.752,1.958,3.2,5.739,3.022,7.831-.06.752-1.169,1.95-1.556,2.605-1.325,2.219-4.161,6.566-5.293,8.881a21.779,21.779,0,0,0-.871,2.553,8.524,8.524,0,0,1-1.117,2.56c-1.384,1.69-5.389,3.864-7.4,4.78-1.2.543-4.325.409-5.1,1.466a2.392,2.392,0,0,0,.089,2.188c.64.692,3.186-.193,3.8.536.387.454.1,1.816-.119,2.375-.4,1.049-2.918,2.4-2.843,3.521.06.781,1.571,1.913,2.337,2.166.938.313,3.193-1.034,3.953-.417.588.484.245,2.255.193,3-.052.774-.559,2.285-.632,3.051a5.555,5.555,0,0,0-.008,2.427c.93,1.638,5.717,2.293,6.505,4.005a3.168,3.168,0,0,1-.424,2.6c-1.444,1.339-6.007,1.354-7.95.908-2.576-.588-6.907-3.9-8.835-5.665-2.3-2.077-6.551-6.841-7.638-9.714a11.386,11.386,0,0,1-.29-4.05c.022-.365.037-.744.06-1.124.112-1.98.193-3.945-.335-5.121-.8-1.742-4.8-3.64-5.508-5.427-.968-2.449,2.174-8.494.446-10.511-.476-.543-2.367.112-2.881-.387-4.072-3.975.1-17.612-3.134-22.25-1.429-2.062-8.553-4.7-8.992-4.645s-3.417.246-4.236-.417c-.849-.692-.781-3.193-1.377-4.109a8.682,8.682,0,0,0-1.124-1.332c-3.059-3.037-9.416-6.4-10.682-9.632-.417-1.072.387-3.417.38-4.563-.015-1.831-1.362-5.576-.692-7.28.767-1.966,5.694-3.685,6.3-5.695.588-1.98-.424-6.759-2.136-7.972-2.084-1.474-7.846,1.422-10.287.618-2.888-.953-6.439-6.573-9.223-7.8-1.339-.588-4.384-.625-5.858-.751-.93-.075-3.089.5-3.744-.164-.581-.588.58-2.709-.015-3.3-.833-.811-3.959-.885-4.742-.022-.313.35.588,1.5.261,1.839-2.107,2.114-9.342.119-12.021-1.251-1.913-.968-5.293-4.28-5.665-6.357-.171-.952,1.616-2.68,1.429-3.64-.6-3.156-7.213-6.707-8.844-9.5-.982-1.7-.655-6.446-2.337-7.5-.64-.394-2.576-.216-2.992.4-1.072,1.578,1.131,5.642,2.046,7.31,1.109,2.046,5.4,4.816,6.171,6.99.261.737.447,2.575-.127,3.1-.8.745-3.424.41-4.406-.067-2.375-1.146-5.524-5.746-6.566-8.121s.268-8.3-1.443-10.287c-.923-1.072-4.318-.76-5.621-1.623-19.353,78.7,35.589,156.557,130.616,155.247,0,0,64.455.618,99.791-49.888a111.867,111.867,0,0,0,7.831-10.972c-.611-2.084.26-5.933-.536-7.534-.945-1.883-5.077-4.116-6.014-6-1.191-2.352-.112-8.128-1.474-10.391a3.753,3.753,0,0,0-1.235-1.072c-1.154-.729-2.672-1.414-3.179-2.181a9.314,9.314,0,0,1-.937-4.281c.178-2.605,4.042-7.257,3.633-9.848-.729-4.615-10-10.451-11.62-14.85-.96-2.605,1.645-9.178-.424-11.062-1.571-1.422-6.506.908-8.539.275-1.057-.327-2.456-2.337-3.521-2.613a10.76,10.76,0,0,0-5.657.752c-.863.476-1.644,2.516-2.5,2.985-2.2,1.191-8.113-.32-9.974,1.332-.171.157-.037.752-.209.909-1.027.923-4.2,1.131-5.531.744-4.674-1.355-12.43-8.255-14.731-12.439-1.347-2.456-2.762-8.567-1.452-11.039.268-.491,1.7-.573,2-1.042.6-.908,1-3.588.186-4.31-.558-.5-2.33.752-2.985.395a5.455,5.455,0,0,1-1.846-4.265c.93-4.377,11.761-8.129,13.272-12.342.625-1.757-1.772-5.635-1.034-7.347.8-1.876,4.689-4.2,6.654-4.876a16.821,16.821,0,0,1,2.947-.1c1.5-.127,4.556-.246,5.94-.8,1.228-.484,3.082-2.524,4.3-3.052,3.453-1.519,11.694-5.262,14.79-3.141,1.578,1.072-.327,6.141,1.049,7.451,2.2,2.1,9.268.454,12.208,1.34.693.208,1.839,1.19,2.554,1.31.535.089,1.831.134,2.158-.29.633-.819-1.169-3.216-.573-4.057.975-1.392,5.009-1.786,6.721-1.556,2.018.261,5.136,3.462,7.146,3.827a22.279,22.279,0,0,0,6.922-.29Q317.391,154.215,314.5,148.9ZM174.7,154.1c-.439.536-2.174,1.02-2.739.6-.387-.283-.23-1.444-.112-1.9.119-.476.544-1.555,1.035-1.682s1.578.6,1.838,1.058A2.3,2.3,0,0,1,174.7,154.1Zm9.26-4.623c-.35.313-1.556.06-1.869.41s.082,1.436-.126,1.846a3.768,3.768,0,0,1-1.34,1.086c-.528.246-1.8.789-2.307.491-.484-.275-.06-.781-.268-.915s-.722.253-.909.119a1.938,1.938,0,0,1-.268-1.928c.58-.745,3.1.119,3.811-.506.41-.358.1-1.727.514-2.092.283-.253,1.131-.216,1.511-.23.447-.022,1.533-.246,1.786.112S184.285,149.191,183.965,149.474ZM250.9,119.327a4.278,4.278,0,0,1,.96-1.987c.834-.737,3.231-1.936,4.25-1.459,1.236.58,1.162,3.878,1.839,5.047a22.91,22.91,0,0,0,2.843,3.357,10.228,10.228,0,0,0,1.786,1.526c.677.343,2.687,0,2.978.692.394.946-1.37,2.851-2.226,3.446-1.057.745-3.8.93-5.077,1.169-.953.179-3.127,1.132-3.871.521-.9-.729-.849-3.6-.193-4.541.461-.67,2.739-.365,3.126-1.079.253-.476-.216-1.668-.573-2.07-.581-.67-2.449-1.064-3.261-1.436-.573-.275-1.92-.618-2.292-1.124A3.639,3.639,0,0,1,250.9,119.327Zm-5.68,11.776c-.551-.409-.477-2.025-.38-2.7a10.163,10.163,0,0,1,2.077-4.511,7.41,7.41,0,0,1,3.477-1.3,4.4,4.4,0,0,1,2.709.745,3.761,3.761,0,0,1,.164,2.836c-.632,1.526-3.417,3.8-4.943,4.519C247.616,131.013,245.845,131.564,245.219,131.1Zm-113-14.954c-1.794-.878-7.027,2.576-7.995.856-.313-.559,1.563-1.347,1.637-1.98a2.669,2.669,0,0,0-.952-1.965c-1.593-.856-6.4,2.553-7.2.968a1.558,1.558,0,0,1,.082-1.407q-1.931,1.608-3.8,3.305a7.1,7.1,0,0,1,1.057,0c.864.089,2.375,1.027,3.223,1.213,1.422.32,4.652-.431,5.806.439.447.335.261,1.794.744,2.1,1.906,1.191,7.995,1.094,9.014-.885C134.2,118.106,132.938,116.5,132.223,116.148Z" transform="translate(-69.116 -80.439)" fill="#188bbb"/>
        </g>
        <g id="Group_8118" data-name="Group 8118" transform="translate(139.431 87.817)" opacity="0.6" style="mix-blend-mode: multiply;isolation: isolate">
          <path id="Path_6631" data-name="Path 6631" d="M363.463,163.363a25.055,25.055,0,0,1-5.889,6.494c-6.754,5.446-17.45,9.916-30.936,12.945-16.072,3.6-28.75,4.919-38.694,4.919-19.256.007-28.272-4.947-31.9-7.85-3.472-2.783-5.306-6.142-5.306-9.712V157.6h2.108v12.558c0,2.909,1.56,5.7,4.512,8.068,10.97,8.778,36.7,9.719,68.815,2.516,21.209-4.751,32.538-12.341,36.01-19.326C362.62,162.063,363.042,162.716,363.463,163.363Z" transform="translate(-250.74 -157.6)" fill="#ced0d1"/>
        </g>
        <g id="Group_8119" data-name="Group 8119" transform="translate(15.365 132.681)" opacity="0.6" style="mix-blend-mode: multiply;isolation: isolate">
          <path id="Path_6632" data-name="Path 6632" d="M328.523,223.661A59.242,59.242,0,0,1,317.9,230.14c-16.241,7.948-41.442,14.133-74.915,18.384a481.469,481.469,0,0,1-60.494,4.034,314.6,314.6,0,0,1-55.153-4.463c-32.257-5.8-47.141-15.2-53.136-20.275.091-.4.19-.808.288-1.216.091-.358.183-.724.274-1.082,5.172,4.68,19.5,14.491,52.946,20.5,32.053,5.756,71.822,5.9,115.007.415,48.217-6.128,74.226-15.833,85.273-25C328.179,222.178,328.362,222.923,328.523,223.661Z" transform="translate(-74.2 -221.44)" fill="#ced0d1"/>
        </g>
        <g id="Group_8120" data-name="Group 8120" transform="translate(19.16 208.297)" opacity="0.6" style="mix-blend-mode: multiply;isolation: isolate">
          <path id="Path_6633" data-name="Path 6633" d="M201.888,353.678l-2.108-.007c.035-7.021-2.143-12.854-6.465-16.487-7.59-6.381-22.011-7.723-42.876-4-27.717,5.51-53.213,5.981-69.911,1.687v-.007q-.485-1.223-.928-2.467c16.311,4.582,42.559,4.266,70.445-1.279,21.533-3.851,36.537-2.354,44.626,4.448C199.5,339.63,201.923,346,201.888,353.678Z" transform="translate(-79.6 -329.038)" fill="#ced0d1"/>
        </g>
        <g id="Group_8121" data-name="Group 8121" transform="translate(139.428 67.366)">
          <path id="Path_6634" data-name="Path 6634" d="M287.942,171.343c-19.254,0-28.269-4.949-31.9-7.853-3.473-2.781-5.309-6.14-5.309-9.715V141.221h2.108v12.553c0,2.912,1.563,5.7,4.519,8.069,10.966,8.779,36.692,9.721,68.815,2.517,27.775-6.228,38.613-17.318,37.034-25.545-1.361-7.083-10.3-9.494-19.15-8.078l-1.8-1.787c11.485-1.84,21.6,2.052,23.021,9.468.949,4.94-1.789,10.288-7.708,15.058-6.753,5.443-17.45,9.917-30.935,12.941C310.564,170.022,297.886,171.342,287.942,171.343Z" transform="translate(-250.735 -128.499)" fill="#fff"/>
        </g>
        <g id="Group_8122" data-name="Group 8122" transform="translate(8.413 101.877)">
          <path id="Path_6635" data-name="Path 6635" d="M179.551,231.8a314.6,314.6,0,0,1-55.158-4.461c-36-6.47-50.368-17.431-54.873-21.844-3.726-3.65-5.515-7.29-5.172-10.526l.015-.1c1.015-4.969,4.761-9.163,10.834-12.128a40.646,40.646,0,0,1,9.622-3.1l-1.143,2.341c-.157.028-15.051,2.8-17.237,13.254-.248,2.562,1.327,5.586,4.555,8.748,4.366,4.276,18.346,14.91,53.771,21.276,32.052,5.76,71.825,5.905,115.011.416,69.956-8.888,93.156-25.311,91.767-36.675-.734-6-8.413-10.241-17.329-9.193l-1.145-2.022c10.212-1.195,19.679,3.7,20.566,10.959.495,4.047-1.275,12.11-18.684,20.635-16.235,7.948-41.438,14.135-74.91,18.389A482.828,482.828,0,0,1,179.551,231.8Z" transform="translate(-64.307 -177.608)" fill="#fff"/>
        </g>
        <g id="Group_8125" data-name="Group 8125" transform="translate(122.209 189.862)">
          <g id="Group_8123" data-name="Group 8123" transform="translate(3.759)">
            <rect id="Rectangle_1938" data-name="Rectangle 1938" width="25.246" height="38.328" rx="6.117" fill="#d6d6d6"/>
            <path id="Path_6637" data-name="Path 6637" d="M241.852,389.172a2.494,2.494,0,0,0,2.42,2.548h9.374a2.494,2.494,0,0,0,2.421-2.548V380.36H241.852Z" transform="translate(-236.26 -361.196)" fill="#676868"/>
            <path id="Path_6638" data-name="Path 6638" d="M246.591,393.672s.025-6.747,4.141-6.747,4.323,6.747,4.323,6.747Z" transform="translate(-237.669 -363.147)" fill="#ced0d1" opacity="0.6" style="mix-blend-mode: multiply;isolation: isolate"/>
            <rect id="Rectangle_1939" data-name="Rectangle 1939" width="14.213" height="0.989" transform="translate(5.592 19.164)" fill="#ced0d1" opacity="0.6" style="mix-blend-mode: multiply;isolation: isolate"/>
            <path id="Path_6639" data-name="Path 6639" d="M256.066,366.743v8.813H241.855v-8.813a2.482,2.482,0,0,1,2.414-2.543h9.383A2.482,2.482,0,0,1,256.066,366.743Z" transform="translate(-236.261 -356.393)" fill="#f4f8fc"/>
            <text id="ON" transform="translate(13.602 14.787)" fill="#a1b82f" font-size="3" font-family="SegoeUI, Segoe UI"><tspan x="-4.506" y="0">ON</tspan></text>
          </g>
          <path id="Path_6640" data-name="Path 6640" d="M252.805,364.2v2.415a1.369,1.369,0,0,1-1.358,1.368h-.569a1.371,1.371,0,0,1-1.368-1.368V364.2Z" transform="translate(-234.778 -356.393)" fill="#a1b82f"/>
          <path id="Path_6641" data-name="Path 6641" d="M249.51,394.925v-2.414a1.369,1.369,0,0,1,1.358-1.368h.569a1.371,1.371,0,0,1,1.368,1.368v2.414Z" transform="translate(-234.778 -364.401)" fill="#d03a2b"/>
          <g id="Group_8124" data-name="Group 8124" transform="translate(0 23.734)">
            <path id="Path_6642" data-name="Path 6642" d="M246.124,455.673s-9.675-7.534-11.518-15-7.386-20.9-5.767-25.188,6.855-1.573,10.97,11.668c0,0,3.9,1.142,2.739-13.364.008-7.974-1.124-21.077.337-24.26,1.161-2.987,5.431-5.913,6.33,5.785.867,6.833,2.4,21.971,2.4,21.971s2.09-4.7,4.281-5.1c3.371-.449,4.569,3.239,4.708,4.643,0,0,2.566-5.356,5.319-2.547a9.9,9.9,0,0,1,2.023,4.12s2.247-3.746,4.869-.675c.784,1.337,1.075,5.543.751,9.034,0,0-2.249,18.608-5.627,24.781C266.684,455.981,249.722,457.035,246.124,455.673Z" transform="translate(-228.546 -386.863)" fill="#e5b7ac"/>
            <path id="Path_6643" data-name="Path 6643" d="M251.925,388.442c-1.9,0-2.49,3.326-2.46,4.5s4.656.615,4.612,0S253.661,388.442,251.925,388.442Z" transform="translate(-234.764 -387.332)" fill="#edcfcb"/>
            <path id="Path_6644" data-name="Path 6644" d="M230.678,426.608c-1.12.391-1.23,2.635-.937,4.421s4.685-.322,4.744-1S232.523,425.963,230.678,426.608Z" transform="translate(-228.86 -398.653)" fill="#edcfcb"/>
            <path id="Path_6645" data-name="Path 6645" d="M274.074,492.572H251.5c-.183-5.995-.344-10.492-.408-10.7-.485-1.588-5.833-6.866-5.833-6.866l24.793,1.223,2.846,1.518Z" transform="translate(-233.515 -413.064)" fill="#e5b7ac"/>
          </g>
        </g>
        <g id="Group_8126" data-name="Group 8126" transform="translate(1.666 148.24)">
          <path id="Path_6646" data-name="Path 6646" d="M193.783,331.377l-2.108-.006c.034-7.025-2.141-12.851-6.465-16.49-7.586-6.381-22.012-7.725-42.878-3.994-36.216,7.2-68.649,5.785-82.609-3.616-4.042-2.722-6.467-6.066-7.208-9.936-1.865-13.986,11.534-17.286,11.679-17.318l.117,2.576c-.515.115-11.313,2.413-9.714,14.4.622,3.24,2.746,6.129,6.3,8.526,13.308,8.963,45.875,10.286,81.041,3.293,21.533-3.851,36.539-2.351,44.627,4.453C191.392,317.328,193.821,323.7,193.783,331.377Z" transform="translate(-52.336 -280.017)" fill="#fff"/>
        </g>
        <g id="Group_8129" data-name="Group 8129" transform="translate(117.071 26.185)">
          <path id="Path_6647" data-name="Path 6647" d="M268.445,58.729a25.964,25.964,0,0,1-2.969,12L250.787,99.86l-16.93-.039-11.764-23.5h-.027l-2.846-5.7h.083a26.03,26.03,0,1,1,49.142-11.9Z" transform="translate(-216.362 -32.641)" fill="#e7ad4b"/>
          <path id="Path_6648" data-name="Path 6648" d="M270.869,62.969a25.964,25.964,0,0,1-2.968,12L253.211,104.1l-16.93-.039-11.764-23.5c39.92,6.249,40.865-33.656,40.865-33.656A25.963,25.963,0,0,1,270.869,62.969Z" transform="translate(-218.786 -36.881)" fill="#e5e5e6" opacity="0.7" style="mix-blend-mode: multiply;isolation: isolate"/>
          <g id="Group_8127" data-name="Group 8127" transform="translate(18.071 40.007)">
            <path id="Path_6649" data-name="Path 6649" d="M246.8,89.825c-.658.862.235,2.766,1.35,3.457C248.877,91.994,247.718,88.619,246.8,89.825Z" transform="translate(-243.412 -89.569)" fill="none" stroke="#59595b" stroke-linecap="round" stroke-linejoin="round" stroke-width="0.75"/>
            <path id="Path_6650" data-name="Path 6650" d="M254.234,95.217a1.346,1.346,0,0,1-1.006-.727,6.034,6.034,0,0,1-6.419-.015,1.347,1.347,0,0,1-1.009.722,4.22,4.22,0,0,1-3.724-1.611l5.713,23.242,2.177,0,2.177.006,5.821-23.216A4.219,4.219,0,0,1,254.234,95.217Z" transform="translate(-242.076 -90.763)" fill="none" stroke="#59595b" stroke-linecap="round" stroke-linejoin="round" stroke-width="0.75"/>
            <path id="Path_6651" data-name="Path 6651" d="M259.207,90.152c-.917-1.211-2.084,1.946-1.358,3.237C258.967,92.7,259.862,91.017,259.207,90.152Z" transform="translate(-246.697 -89.661)" fill="none" stroke="#59595b" stroke-linecap="round" stroke-linejoin="round" stroke-width="0.75"/>
          </g>
          <g id="Group_8128" data-name="Group 8128" transform="translate(14.385 63.304)">
            <path id="Path_6652" data-name="Path 6652" d="M238.37,122.72l-.024,10.39a8.64,8.64,0,0,0,8.619,8.659l3.71.008a8.639,8.639,0,0,0,8.659-8.619l.024-10.39Z" transform="translate(-237.281 -122.72)" fill="#676868"/>
            <rect id="Rectangle_1940" data-name="Rectangle 1940" width="23.092" height="2.142" rx="0.39" transform="translate(0.016 2.589) rotate(0.133)" fill="#acacac"/>
            <path id="Rectangle_1941" data-name="Rectangle 1941" d="M.389,0H22.7a.39.39,0,0,1,.39.39V1.752a.39.39,0,0,1-.39.39H.39A.39.39,0,0,1,0,1.752V.389A.389.389,0,0,1,.389,0Z" transform="translate(0.005 7.371) rotate(0.133)" fill="#acacac"/>
          </g>
          <path id="Path_6653" data-name="Path 6653" d="M236.228,57.633c-2.812,4.846-7.65,7.29-10.8,5.459s-3.43-7.243-.618-12.088,7.649-7.29,10.8-5.459S239.041,52.788,236.228,57.633Z" transform="translate(-218.295 -36.296)" fill="#e5e5e6" opacity="0.7" style="mix-blend-mode: soft-light;isolation: isolate"/>
        </g>
      </g>
      <g id="Group_8131" data-name="Group 8131" transform="translate(19.16 54.582)">
        <path id="Path_6654" data-name="Path 6654" d="M167.627,133.744c-2.157-3.99-7.1-3.87-9.62-3.512a7.82,7.82,0,0,0-1.542.3s-1.838-6.249-6.957-6.7c-6.014-.388-7.808,1.216-7.808,1.216s-1.108-3.6-4.179-3.98a8.373,8.373,0,0,0-5.114,1.573s-1.937-11.648-14.227-12.312S103.273,124.9,103.273,124.9s-8.851-4.775-12.758,4.78c-2.51-2.532-12.48-1.018-10.705,4.061s11.2,3.762,11.2,3.762a4.692,4.692,0,0,0,4.1,3.056,7.075,7.075,0,0,0,5.2-2.035s3.747,6.164,14.361,6.163c13.251,0,15.125-5.081,15.125-5.081s5.917,5.081,12.524,3.895c9.91-1.628,11.639-6.2,11.639-6.2C156.782,139.867,170.585,139.218,167.627,133.744Z" transform="translate(-79.6 -110.308)" fill="#c7e9ed"/>
        <path id="Path_6655" data-name="Path 6655" d="M273.475,211.92c1.912-3.538,6.293-3.431,8.528-3.113a6.944,6.944,0,0,1,1.367.265s1.629-5.54,6.167-5.938c5.331-.344,6.921,1.078,6.921,1.078s.981-3.19,3.7-3.529a7.42,7.42,0,0,1,4.534,1.394s1.717-10.325,12.612-10.914,13.214,12.92,13.214,12.92,7.846-4.233,11.31,4.238c2.225-2.245,11.063-.9,9.489,3.6s-9.931,3.335-9.931,3.335a4.16,4.16,0,0,1-3.638,2.709,6.272,6.272,0,0,1-4.614-1.8s-3.322,5.464-12.731,5.463c-11.746,0-13.407-4.5-13.407-4.5s-5.245,4.5-11.1,3.453c-8.785-1.443-10.318-5.5-10.318-5.5C283.089,217.347,270.853,216.771,273.475,211.92Z" transform="translate(-137.118 -134.335)" fill="#c7e9ed"/>
      </g>
    </g>
  </g>
</svg>
