<svg xmlns="http://www.w3.org/2000/svg" width="18" height="13.208" viewBox="59 456 18 13.208"><g data-name="Layer 2"><path d="M25.041 11.5H11.5v9.74c0 .656.532 1.188 1.188 1.188H25.04c.656 0 1.188-.532 1.188-1.188v-8.552c0-.656-.532-1.188-1.188-1.188Z" fill="#99daf6" fill-rule="evenodd" style="--darkreader-inline-fill:#90dfff" transform="translate(50.77 446.78)" data-name="Path 4076"/><path d="M1.545 0h11.591c.854 0 1.546.692 1.546 1.545v7.728c0 .853-.692 1.545-1.546 1.545H1.546A1.545 1.545 0 0 1 0 9.273V1.545C0 .692.692 0 1.545 0Z" stroke-linejoin="round" stroke-linecap="round" stroke-width="1.5" stroke="#22b0ec" fill="transparent" style="--darkreader-inline-fill:transparent;--darkreader-inline-stroke:#38c0fa" transform="translate(59 456)" data-name="Path 4078"/><path d="m2.5 12.5 6.982 5.181c.23.156.532.156.763 0l6.984-5.181" stroke-linejoin="round" stroke-linecap="round" stroke-width="1.5" stroke="#71cddc" fill="transparent" style="--darkreader-inline-fill:transparent;--darkreader-inline-stroke:#79d8e7" transform="translate(56.633 445.946)" data-name="Path 4077"/></g></svg>