<svg xmlns="http://www.w3.org/2000/svg" width="16.239" height="12.855" viewBox="357.761 482 16.239 12.855"><g data-name="Show"><path d="M8.12 12.855H8.11c-3.352 0-6.367-2.318-8.063-6.202a.576.576 0 0 1 0-.459C1.742 2.316 4.756 0 8.11 0h.008c1.65 0 3.261.568 4.658 1.644 1.4 1.07 2.58 2.643 3.414 4.55a.576.576 0 0 1 0 .46c-1.697 3.883-4.714 6.201-8.072 6.201Zm0-9.544c-1.748 0-3.17 1.398-3.17 3.117 0 1.714 1.422 3.108 3.17 3.108 1.742 0 3.16-1.394 3.16-3.108 0-1.719-1.418-3.117-3.16-3.117Z" fill="#22b0ec" fill-rule="evenodd" style="--darkreader-inline-fill:#38c0fa" transform="translate(357.761 482)" data-name="Fill 1"/><path d="M3.932 1.958c0 1.073-.883 1.95-1.962 1.95A1.963 1.963 0 0 1 0 1.958c0-.133.016-.258.04-.383h.039c.874 0 1.583-.69 1.615-1.552A1.65 1.65 0 0 1 1.97 0c1.08 0 1.962.877 1.962 1.958" fill="#22b0ec" fill-rule="evenodd" style="--darkreader-inline-fill:#38c0fa" transform="translate(363.87 486.5)" data-name="Fill 4"/></g></svg>