<svg xmlns="http://www.w3.org/2000/svg" width="20.164" height="20.164" viewBox="119.768 622 20.164 20.164"><g data-name="icons8-google"><path d="M23.968 12.108h-.812v-.042h-9.074v4.033h5.698a6.047 6.047 0 0 1-11.747-2.017 6.05 6.05 0 0 1 6.05-6.05c1.541 0 2.944.583 4.012 1.533l2.852-2.852A10.036 10.036 0 0 0 14.082 4C8.514 4 4 8.514 4 14.082c0 5.568 4.514 10.082 10.082 10.082 5.568 0 10.082-4.514 10.082-10.082 0-.676-.07-1.336-.196-1.974Z" fill="#bfbcbc" fill-rule="evenodd" style="--darkreader-inline-fill:#c9c2ba" transform="translate(115.768 618)" data-name="Path 539"/><path d="m6.306 9.39 3.312 2.429a6.047 6.047 0 0 1 5.608-3.786c1.542 0 2.945.582 4.013 1.532l2.852-2.852A10.036 10.036 0 0 0 15.226 4c-3.873 0-7.231 2.186-8.92 5.39Z" fill="#bfbcbc" fill-rule="evenodd" style="--darkreader-inline-fill:#c9c2ba" transform="translate(114.625 618)" data-name="Path 540"/><path d="M15.17 36.092c2.605 0 4.971-.996 6.76-2.617l-3.12-2.64a6.004 6.004 0 0 1-3.64 1.225 6.046 6.046 0 0 1-5.687-4.006l-3.288 2.533c1.669 3.265 5.057 5.505 8.976 5.505Z" fill="#bfbcbc" fill-rule="evenodd" style="--darkreader-inline-fill:#c9c2ba" transform="translate(114.68 606.072)" data-name="Path 541"/><path d="M33.886 20.042h-.812V20H24v4.033h5.698a6.07 6.07 0 0 1-2.06 2.808h.001l3.12 2.64c-.22.2 3.323-2.424 3.323-7.465 0-.676-.07-1.335-.196-1.974Z" fill="#bfbcbc" fill-rule="evenodd" style="--darkreader-inline-fill:#c9c2ba" transform="translate(105.85 610.066)" data-name="Path 542"/></g></svg>