<svg xmlns="http://www.w3.org/2000/svg" width="124" height="124" viewBox="246 301.95 124 124"><g data-name="Group 5253"><path d="M246 363.9a62 62 0 1 1 0 .1z" fill="#fff" fill-rule="evenodd" data-name="Ellipse 115"/><g data-name="Group 5241"><path d="M344.285 334.751c.032 1.11.09 2.22.091 3.328.01 19.312.012 38.623.016 57.935-.874.532-1.837.265-2.754.266-13.408.02-26.816.008-40.224.025-.922.001-1.88-.23-2.77.236a6.328 6.328 0 0 0-.497-.025c-.666-.94-.059-1.81.183-2.677 1.961-7.031-1.963-13.735-9.093-15.553-1.301-.331-2.74-.258-3.844-1.221-.016-9.133-.034-18.265-.047-27.397-.01-7.68-.015-15.362-.022-23.043.356-.134.637-.04.843.28.63 1.095.512 2.312.547 3.5.1 3.408.205 3.525 3.707 3.559 2.476.024 4.952.006 7.428.006 14.086.001 28.173-.01 42.26.014 1.421.003 2.93-.274 4.176.767Z" fill="#c4ccdb" fill-rule="evenodd" data-name="Path 4788"/><path d="M344.285 334.751c-.936.039-1.872.11-2.808.11-17.49.007-34.978.006-52.467.005-.427 0-.854.014-1.28-.003-1.82-.074-1.89-.11-1.931-1.879-.05-2.134-.029-4.269-.039-6.404-.104-.18-.075-.334.087-.465l-.005.004c.164-.176.34-.343.5-.521l.01-.01c.195-.191.396-.375.664-.462l55.706-.005c.251.096.443.278.65.44l.037.03c.138.184.297.347.477.491l.02.025c.181.21.372.414.44.696l-.06 7.948Z" fill="#8392ab" fill-rule="evenodd" data-name="Path 4796"/><path d="M285.393 377.065c4.947.158 9.208 1.714 12.01 6.077 2.468 3.84 3.046 7.895 1.157 12.171-.17.387-.277.801-.413 1.203a.747.747 0 0 0-.028.392c-.082.279-.268.484-.477.673l.002-.005c-.303.273-.193.78-.569 1.011l.033-.025a1.575 1.575 0 0 1-.528.545l.023-.023c-.139.217-.32.392-.527.542l.02-.02a2.333 2.333 0 0 1-.534.535l.02-.02c-.15.207-.326.389-.542.529l.023-.023a1.606 1.606 0 0 1-.544.529l.025-.033c-.236.374-.737.269-1.018.561l.008-.005c-.254.322-.746.207-.993.542l-.027.015c-.287.271-.75.176-1.016.492l-.013.007c-.296.287-.751.218-1.062.473l.025-.013c-1.19.464-2.381.472-3.571-.004l.032.027c-.218-.134-.387-.32-.549-.513l.013.012a2.752 2.752 0 0 1-.52-.542l.025.026c-.358-.288-.276-.778-.516-1.12l-.055-1.443a3.288 3.288 0 0 1-.468-.55l.022.009a.829.829 0 0 1-.245-.65c.052-1.734-.006-3.378-1.504-4.676-.759-.657-1.11-1.725.246-2.213 1.236-.444.985-.906.237-1.54-1.492-1.268-1.584-2.373.357-3.265.571-.262.864-.805 1.245-1.263.915-1.097 1.806-1.24 2.618.118.131.22.235.464.417.643 2.25 2.204 2.251 2.202.271 4.66 2.28 1.52 2.327 1.561.442 3.656-1.077 1.196-.818 2.522-.718 3.873-.205 1.878.48 2.574 2.286 1.686 1.893-.93 3.744-1.925 4.724-3.955 4.183-6.327.689-15.91-9.42-16.58a3.698 3.698 0 0 0-.673-.251c-.467 0-.947-.092-1.383.17l.018.075c-.421.46-1.127.045-1.547.507l.003-.002c-.279.313-.75.228-1.045.506l.013-.008c-.248.332-.745.217-.993.55l-.022.013c-.19.15-.348.34-.55.475l.018-.018c-.148.21-.322.392-.543.526l.022-.023a1.536 1.536 0 0 1-.54.535l.024-.023a1.575 1.575 0 0 1-.533.541l.023-.022c-.135.219-.319.392-.522.546l.017-.018c-.14.196-.328.35-.462.552l-.02.033c-.35.236-.23.728-.54.986l.003-.006c-.304.277-.195.751-.492 1.032a.548.548 0 0 0-.065.39c-.21.358-.157.813-.43 1.146l-.078.925c-.436.557.065 1.423-.624 1.899-.583.226-1.115.2-1.55-.313-.073-1.006-.28-2.019.14-3.002a.774.774 0 0 0 .053-.448c.252-.32.178-.77.433-1.089a.79.79 0 0 0 .085-.441c.25-.333.163-.825.52-1.107l-.015.024c.27-.302.178-.794.544-1.045l-.032.028c.13-.22.32-.383.5-.557l-.006.005c.166-.164.318-.34.451-.533l.035-.05c.367-.207.226-.74.602-.94l-.034.025c.127-.23.306-.41.537-.538l-.026.034c.196-.374.732-.228.927-.605l.063-.044c.192-.124.367-.27.519-.442l.005-.005c.182-.167.343-.357.555-.49l-.026.028c.251-.357.743-.26 1.032-.546l-.013.008c.278-.335.765-.239 1.07-.518.172.006.335-.028.49-.102.307-.22.743-.128 1.019-.424l.518-.069c.6-.455 1.437.116 2.01-.462l.091.056Z" fill="#a1d090" fill-rule="evenodd" data-name="Path 4815"/><path d="M287.893 398.693c-1.007-2.708-.813-3.485 1.321-5.125.349-.268.728-.507.606-1.01-.162-.67-.717-.614-1.234-.59-.391.02-.909.345-1.106-.206-.202-.565-.22-1.22.26-1.687.299-.29.713-.466 1.084-.678.613-.35 1.29-.737.954-1.566-.318-.782-.992-.332-1.558-.255-.999.135-.772-.675-.84-1.21-.068-.52-.083-1.143-.673-1.252-.712-.13-1.168.486-1.221 1.051-.113 1.199-.524 1.54-1.773 1.344-.774-.122-1.052.885-.436 1.455.306.284.699.494 1.084.67.84.38 1.097 1.04.944 1.886-.19 1.051-.945.325-1.434.412-.341.061-.73.062-.843.427-.187.608.311.918.687 1.25 1.909 1.69 2.064 2.357 1.153 5.038-.22.17-.399.135-.538-.106l.026.043a1.599 1.599 0 0 1-.552-.531l.024.024a1.736 1.736 0 0 1-.535-.545l.029.029a1.35 1.35 0 0 1-.53-.564l.048.041c-.4-.204-.275-.732-.603-.98l-.009-.015c-.196-.208-.39-.417-.446-.713a.304.304 0 0 0-.107-.333c-.252-.295-.156-.745-.455-1.019l.002.004c-.45-.47-.108-1.167-.478-1.66l-.068-.915c-.338-.68-.335-1.36-.002-2.04l.08-.884c.35-.509.005-1.22.49-1.69l-.01.022c.273-.3.2-.76.482-1.057l.007-.014c.325-.257.215-.752.549-1.004l-.011.017c.373-.504.587-1.122 1.095-1.53l-.048.037a1.11 1.11 0 0 1 .552-.552l-.039.039c.118-.253.3-.439.559-.546l-.041.051c.18-.414.723-.277.949-.624l.073.044c1.452-1.502 2.634-.493 3.724.48 3.95 3.522 4.698 8.667 2.091 13.958-.876 1.136-1.49 2.611-3.283 2.579Z" fill="#6ba985" fill-rule="evenodd" data-name="Path 4823"/><path d="M290.557 396.082c.856-1.95 1.594-3.897 1.487-6.115-.155-3.189-1.598-5.654-3.879-7.74-.83-.76-1.747-.99-2.804-.55l-.066-2.088c-.162-.09-.219-.185-.17-.283.05-.1.1-.15.153-.15 4.673-.356 8.33 1.448 10.732 5.434 2.41 3.998 2.323 8.072-.298 12.013-1.76.24-3.538.656-5.155-.521Z" fill="#c4ccdb" fill-rule="evenodd" data-name="Path 4824"/><path d="M298.645 396.54c.874-.808 1.954-.463 2.942-.466 14.268-.037 28.536-.045 42.805-.06-.655.809-1.573.531-2.392.532-14.452.01-28.903 0-43.355-.005Z" fill="#ecf2fe" fill-rule="evenodd" data-name="Path 4840"/><path d="m271.507 394.848-.024-1.285c.172-.208.38-.369.626-.483 1.143-1.046 2.466-.902 3.817-.583.237.133.45.298.64.493l-.007-.022c.45.709.368 1.43.05 2.156-1.431.682-2.932.198-4.4.266a1.09 1.09 0 0 1-.702-.542Z" fill="#568f61" fill-rule="evenodd" data-name="Path 4861"/><path d="M276.204 392.903c-1.434.165-2.923-.158-4.303.487-.167-.115-.184-.25-.05-.404a.411.411 0 0 0 .163-.411c.387-.483-.03-1.233.547-1.653l-.044.05c.116-.24.306-.414.511-.574l-.01.023c.076-.233.209-.26.391-.108l1.687.043c.2-.226.338-.18.42.1l-.011-.048c.261.157.446.374.521.676a.363.363 0 0 0 .113.351c.268.479.218.971.065 1.468Z" fill="#83be65" fill-rule="evenodd" data-name="Path 4863"/><path d="m271.94 395.098 4.642-.086c.142.1.197.209.165.326-.032.122-.07.183-.111.183l-.08.01c-.226.25-.224.568-.262.874a.732.732 0 0 1-.413.44 1.1 1.1 0 0 1-.899-.143c-.263-.32-.06-.832-.447-1.104l-.255-.02-.256.015c-.75.677.484 2.586-1.535 2.473l.02.024c-.505-.397-.05-1.132-.54-1.534-.026-.35-.05-.701-.075-1.053l-.13-.22.176-.185Z" fill="#c3ccd6" fill-rule="evenodd" data-name="Path 4868"/><path d="M274.535 395.598c.427.183.449.58.509.958.359.386.852.662.989 1.227.017.105.033.211.048.317-.802.75-1.236.17-1.423-.512-.172-.627-.092-1.324-.123-1.99Z" fill="#ecf2fe" fill-rule="evenodd" data-name="Path 4892"/><path d="M272.49 398.066c1.303-.332.683-1.86 1.534-2.473-.031.669.052 1.37-.125 1.998-.188.67-.617 1.286-1.41.475Z" fill="#ecf2fe" fill-rule="evenodd" data-name="Path 4894"/><path d="m286.877 403.191 3.571.004c-1.19.882-2.381.888-3.571-.004Z" fill="#ecf2fe" fill-rule="evenodd" data-name="Path 4898"/><path d="M273.41 390.313c-.128.05-.258.085-.392.108.116-1.042-.41-2.182.468-3.11l-.076 3.002Z" fill="#ecf2fe" fill-rule="evenodd" data-name="Path 4916"/><path d="m276.636 395.521-.053-.509c.27-.684.074-1.363-.024-2.043.815.827.737 1.68.077 2.552Z" fill="#ecf2fe" fill-rule="evenodd" data-name="Path 4930"/><path d="M283.356 383.227c-.152.664-.532 1.162-1.095 1.53-.01-.778.318-1.315 1.095-1.53Z" fill="#ecf2fe" fill-rule="evenodd" data-name="Path 4965"/><path d="m280.674 389.366.002 2.04c-.684-.679-.684-1.359-.002-2.04Z" fill="#ecf2fe" fill-rule="evenodd" data-name="Path 4969"/><path d="M285.302 377.009c-.56.632-1.305.46-2.01.463.554-.662 1.32-.393 2.01-.463Z" fill="#ecf2fe" fill-rule="evenodd" data-name="Path 4988"/><path d="M272.561 390.922c-.068.588-.136 1.177-.547 1.652-.025-.619-.166-1.277.547-1.652Z" fill="#ecf2fe" fill-rule="evenodd" data-name="Path 5002"/><path d="m276.204 392.903-.065-1.468c.539.41.442.994.427 1.555a2.038 2.038 0 0 1-.362-.087Z" fill="#ecf2fe" fill-rule="evenodd" data-name="Path 5003"/><path d="M280.744 392.322c.452.47.466 1.064.478 1.66-.624-.419-.506-1.052-.478-1.66Z" fill="#ecf2fe" fill-rule="evenodd" data-name="Path 5007"/><path d="M275.516 390.456a1.182 1.182 0 0 1-.42-.1c.016-.575-.053-1.172.425-1.628l-.005 1.728Z" fill="#ecf2fe" fill-rule="evenodd" data-name="Path 5012"/><path d="M271.968 396.556c.557.379.51.97.54 1.534-.619-.356-.524-.964-.54-1.534Z" fill="#ecf2fe" fill-rule="evenodd" data-name="Path 5013"/><path d="M276.588 396.547c-.008.57.076 1.17-.507 1.553l-.038-.048c-.32-.506-.415-1 .066-1.47l-.007.006c.142-.264.303-.277.486-.04Z" fill="#ecf2fe" fill-rule="evenodd" data-name="Path 5015"/><path d="M281.245 386.794c-.01.607-.037 1.21-.49 1.688-.035-.62-.17-1.27.49-1.688Z" fill="#ecf2fe" fill-rule="evenodd" data-name="Path 5037"/><path d="M282.233 380.092c.4-.521.969-.526 1.546-.507-.377.592-.976.506-1.546.507Z" fill="#ecf2fe" fill-rule="evenodd" data-name="Path 5071"/><path d="M282.774 377.54c-.26.334-.605.464-1.02.424.25-.36.62-.426 1.02-.424Z" fill="#ecf2fe" fill-rule="evenodd" data-name="Path 5208"/><path d="M281.266 378.066c-.262.37-.64.5-1.071.518.23-.435.626-.527 1.07-.518Z" fill="#ecf2fe" fill-rule="evenodd" data-name="Path 5209"/><path d="M280.209 378.576c-.237.386-.607.519-1.033.547.205-.446.591-.55 1.033-.547Z" fill="#ecf2fe" fill-rule="evenodd" data-name="Path 5210"/><path d="M283.761 379.51c.284-.354.661-.42 1.083-.349.109.108.138.205.086.292-.05.083-.095.124-.139.124l-1.03-.067Z" fill="#c4ccdb" fill-rule="evenodd" data-name="Path 5211"/><path d="M278.06 380.075c-.187.39-.504.579-.927.605.159-.431.519-.554.926-.605Z" fill="#ecf2fe" fill-rule="evenodd" data-name="Path 5212"/><path d="M281.19 380.596c.24-.393.618-.5 1.045-.506-.228.418-.61.514-1.045.506Z" fill="#ecf2fe" fill-rule="evenodd" data-name="Path 5213"/><path d="M280.21 381.137c.217-.389.574-.526.993-.55-.2.42-.573.527-.993.55Z" fill="#ecf2fe" fill-rule="evenodd" data-name="Path 5214"/><path d="M276.656 381.159c-.024.427-.216.746-.602.94.046-.413.167-.778.602-.94Z" fill="#ecf2fe" fill-rule="evenodd" data-name="Path 5215"/><path d="M285.287 381.632c-.176.421-.524.582-.949.624.147-.466.52-.59.95-.624Z" fill="#ecf2fe" fill-rule="evenodd" data-name="Path 5216"/><path d="M290.423 403.208c.247-.398.64-.47 1.062-.473-.243.406-.628.495-1.062.473Z" fill="#ecf2fe" fill-rule="evenodd" data-name="Path 5387"/><path d="M291.498 402.728c.244-.36.6-.49 1.016-.492-.232.384-.604.48-1.016.492Z" fill="#ecf2fe" fill-rule="evenodd" data-name="Path 5389"/><path d="M292.542 402.221c.224-.375.58-.512.992-.541-.205.41-.576.518-.992.541Z" fill="#ecf2fe" fill-rule="evenodd" data-name="Path 5390"/><path d="M293.526 401.684c.225-.395.585-.544 1.018-.561-.192.454-.577.56-1.018.561Z" fill="#ecf2fe" fill-rule="evenodd" data-name="Path 5391"/><path d="M285.362 401.081c.348.292.48.684.516 1.12-.48-.232-.543-.655-.516-1.12Z" fill="#ecf2fe" fill-rule="evenodd" data-name="Path 5392"/><path d="M297.075 398.587c.017-.434.185-.783.57-1.01-.01.438-.117.822-.57 1.01Z" fill="#ecf2fe" fill-rule="evenodd" data-name="Path 5393"/><path d="M282.237 396.058c.38.216.565.552.603.98-.46-.167-.579-.544-.603-.98Z" fill="#ecf2fe" fill-rule="evenodd" data-name="Path 5394"/><path d="M276.588 396.547c-.162.017-.324.03-.486.04-.015-.424.07-.805.455-1.056l.031 1.016Z" fill="#c3ccd7" fill-rule="evenodd" data-name="Path 5395"/><path d="M281.22 393.978c.333.259.47.605.455 1.02-.374-.241-.453-.613-.455-1.02Z" fill="#ecf2fe" fill-rule="evenodd" data-name="Path 5396"/><path d="M275.598 387.803c-.037-.449.068-.845.43-1.145.04.45 0 .87-.43 1.145Z" fill="#ecf2fe" fill-rule="evenodd" data-name="Path 5397"/><path d="M281.716 385.758c-.001.425-.131.792-.483 1.057-.01-.43.082-.814.483-1.057Z" fill="#ecf2fe" fill-rule="evenodd" data-name="Path 5398"/><path d="M273.973 385.776c.027.431-.089.805-.434 1.088-.022-.429.041-.824.434-1.088Z" fill="#ecf2fe" fill-rule="evenodd" data-name="Path 5399"/><path d="M276.094 386.267c-.008-.426.114-.79.491-1.032-.004.42-.097.798-.491 1.032Z" fill="#ecf2fe" fill-rule="evenodd" data-name="Path 5400"/><path d="M282.272 384.74c-.034.417-.193.764-.55 1.004.02-.424.129-.8.55-1.004Z" fill="#ecf2fe" fill-rule="evenodd" data-name="Path 5401"/><path d="M276.581 385.24c.018-.417.157-.768.54-.985-.032.41-.14.778-.54.986Z" fill="#ecf2fe" fill-rule="evenodd" data-name="Path 5402"/><path d="M274.578 384.227c-.02.441-.152.829-.52 1.106-.023-.46.045-.88.52-1.106Z" fill="#ecf2fe" fill-rule="evenodd" data-name="Path 5403"/><path d="M275.106 383.206c-.021.432-.149.808-.544 1.044-.01-.447.091-.838.544-1.044Z" fill="#ecf2fe" fill-rule="evenodd" data-name="Path 5404"/><path d="m344.347 326.803-.442-.696.442.696Z" fill="#ecf2fe" fill-rule="evenodd" data-name="Path 5576"/><path d="M285.847 326.115c0 .161-.028.316-.087.466-.145.015-.29.03-.436.043l.523-.509Z" fill="#ecf2fe" fill-rule="evenodd" data-name="Path 5594"/><path d="M343.886 326.082a600.48 600.48 0 0 0-.477-.491l.477.491Z" fill="#ecf2fe" fill-rule="evenodd" data-name="Path 5608"/><path d="m286.343 325.598-.5.521.5-.521Z" fill="#ecf2fe" fill-rule="evenodd" data-name="Path 5611"/><path d="m343.371 325.56-.648-.439.648.44Z" fill="#ecf2fe" fill-rule="evenodd" data-name="Path 5612"/><path d="m287.016 325.126-.663.463.663-.463Z" fill="#ecf2fe" fill-rule="evenodd" data-name="Path 5622"/><path d="m286.36 402.705.548.513-.547-.513Z" fill="#ecf2fe" fill-rule="evenodd" data-name="Path 5744"/><path d="m285.853 402.176.52.541-.52-.541Z" fill="#ecf2fe" fill-rule="evenodd" data-name="Path 5757"/><path d="M294.52 401.156c.07-.29.264-.453.543-.529l-.544.529Z" fill="#ecf2fe" fill-rule="evenodd" data-name="Path 5760"/><path d="M284.38 382.205c-.062.308-.254.485-.558.546a.733.733 0 0 1 .558-.546Z" fill="#ecf2fe" fill-rule="evenodd" data-name="Path 5761"/><path d="M278.596 382.646a.684.684 0 0 1 .539-.534l-.54.534Z" fill="#ecf2fe" fill-rule="evenodd" data-name="Path 5762"/><path d="m276.02 382.15-.451.532.45-.533Z" fill="#ecf2fe" fill-rule="evenodd" data-name="Path 5768"/><path d="m295.04 400.65.542-.528-.541.528Z" fill="#ecf2fe" fill-rule="evenodd" data-name="Path 5774"/><path d="m295.562 400.14.533-.533-.533.534Z" fill="#ecf2fe" fill-rule="evenodd" data-name="Path 5777"/><path d="M279.113 382.134c.077-.283.267-.449.543-.526l-.543.526Z" fill="#ecf2fe" fill-rule="evenodd" data-name="Path 5778"/><path d="M296.076 399.626Z" fill="#ecf2fe" fill-rule="evenodd" data-name="Path 5779"/><path d="M284.84 399.089c.283.073.445.25.468.549l-.469-.55Z" fill="#ecf2fe" fill-rule="evenodd" data-name="Path 5780"/><path d="M296.58 399.107c.076-.279.238-.474.529-.545l-.529.545Z" fill="#ecf2fe" fill-rule="evenodd" data-name="Path 5784"/><path d="m284.33 398.541.538.106c.002.15 0 .3-.007.45a.764.764 0 0 1-.531-.556Z" fill="#ecf2fe" fill-rule="evenodd" data-name="Path 5785"/><path d="M283.804 398.053c.286.07.478.24.552.53l-.552-.53Z" fill="#ecf2fe" fill-rule="evenodd" data-name="Path 5787"/><path d="M283.293 397.532c.289.073.463.259.535.545l-.535-.545Z" fill="#ecf2fe" fill-rule="evenodd" data-name="Path 5788"/><path d="m297.642 397.58.478-.67a.836.836 0 0 1-.478.67Z" fill="#ecf2fe" fill-rule="evenodd" data-name="Path 5789"/><path d="M282.792 396.997c.3.073.464.272.53.564l-.53-.564Z" fill="#ecf2fe" fill-rule="evenodd" data-name="Path 5793"/><path d="M281.781 395.33c.15.238.299.475.447.713a.887.887 0 0 1-.447-.713Z" fill="#ecf2fe" fill-rule="evenodd" data-name="Path 5797"/><path d="M271.94 395.098c-.012.136-.027.271-.045.406-.13-.219-.26-.437-.388-.656.166.046.31.13.433.25Z" fill="#ecf2fe" fill-rule="evenodd" data-name="Path 5799"/><path d="M271.85 392.986c.02.135.036.27.05.405-.137.06-.277.117-.417.172l.367-.577Z" fill="#ecf2fe" fill-rule="evenodd" data-name="Path 5801"/><path d="m279.638 381.627.55-.476-.55.476Z" fill="#ecf2fe" fill-rule="evenodd" data-name="Path 5805"/><path d="M277.158 380.646a.652.652 0 0 1-.536.538l.536-.538Z" fill="#ecf2fe" fill-rule="evenodd" data-name="Path 5819"/><path d="M276.026 391.084c-.173-.226-.347-.45-.522-.676a.817.817 0 0 1 .522.676Z" fill="#ecf2fe" fill-rule="evenodd" data-name="Path 5828"/><path d="M273.028 390.398a.65.65 0 0 1-.51.573l.51-.573Z" fill="#ecf2fe" fill-rule="evenodd" data-name="Path 5829"/><path d="m278.642 379.589-.52.442.52-.442Z" fill="#ecf2fe" fill-rule="evenodd" data-name="Path 5833"/><path d="M284.791 379.577c.016-.14.033-.278.052-.416.145-.032.29-.034.436-.006.02.144.025.289.016.434-.168-.001-.336-.005-.504-.012Z" fill="#ecf2fe" fill-rule="evenodd" data-name="Path 5834"/><path d="m279.202 379.095-.554.49.554-.49Z" fill="#ecf2fe" fill-rule="evenodd" data-name="Path 5835"/><path d="M277.142 384.222c.043-.277.2-.46.462-.552l-.462.552Z" fill="#ecf2fe" fill-rule="evenodd" data-name="Path 5937"/><path d="M277.587 383.688c.077-.276.244-.464.522-.546l-.522.546Z" fill="#ecf2fe" fill-rule="evenodd" data-name="Path 5956"/><path d="M283.86 382.712a.661.661 0 0 1-.552.552.747.747 0 0 1 .552-.552Z" fill="#ecf2fe" fill-rule="evenodd" data-name="Path 5978"/><path d="M278.086 383.164c.073-.283.245-.47.533-.54l-.533.54Z" fill="#ecf2fe" fill-rule="evenodd" data-name="Path 5981"/><path d="m275.573 382.677-.499.557.5-.557Z" fill="#ecf2fe" fill-rule="evenodd" data-name="Path 5982"/><path d="M314.93 342.509c12.238-.58 23.335 9.941 23.195 23.272-.14 13.364-10.712 23.074-23.303 23.017-13.15-.06-23.119-10.14-23.177-23.13-.062-14.186 11.743-23.83 23.286-23.16Z" fill="#8392ab" fill-rule="evenodd" data-name="Path 6010"/><path d="M291.682 332.346c-1.503.055-2.493-.867-2.475-2.304.015-1.179 1.066-2.286 2.263-2.384 1.397-.114 2.514.857 2.572 2.238.059 1.404-.898 2.397-2.36 2.45Z" fill="#233b96" fill-rule="evenodd" data-name="Path 6036"/><path d="M301.287 330.082c-.035 1.33-.953 2.24-2.283 2.26-1.43.024-2.44-.995-2.397-2.415.04-1.301.995-2.249 2.293-2.276 1.406-.028 2.425 1.009 2.387 2.43Z" fill="#223a95" fill-rule="evenodd" data-name="Path 6037"/><path d="M335.662 330.035c.071.967-.444 1.226-1.251 1.228-.836.003-1.233-.334-1.247-1.208-.016-1.01.46-1.345 1.407-1.304.91.04 1.164.54 1.09 1.284Z" fill="#fbfafb" fill-rule="evenodd" data-name="Path 6038"/><path d="M340.698 329.983c.053 1.154-.602 1.314-1.46 1.289-.918-.027-1.07-.59-1.067-1.339.003-.832.382-1.2 1.218-1.21.95-.01 1.419.377 1.31 1.26Z" fill="#edf2f5" fill-rule="evenodd" data-name="Path 6039"/><path d="M330.914 330.03c.054.798-.28 1.249-1.166 1.25-.767 0-1.35-.152-1.346-1.094.003-.716.007-1.39.988-1.445.913-.05 1.486.266 1.524 1.289Z" fill="#ecf2f5" fill-rule="evenodd" data-name="Path 6040"/><path d="M290.557 396.082c1.716.195 3.529-.577 5.154.521-1.212 2.464-3.47 3.594-5.85 4.534-.69.272-1.513.58-2.13-.12-.684-.777-.294-1.576.162-2.325 1.12-.632 1.797-1.718 2.664-2.61Z" fill="#eaf2fd" fill-rule="evenodd" data-name="Path 6051"/><path d="m276.11 396.582-.066 1.47c-.686-.263-.989-.782-1-1.496l1.065.026Z" fill="#c3ccd7" fill-rule="evenodd" data-name="Path 6056"/><path d="M315.097 347.24c9.154-.46 17.95 8.033 18.096 17.455.113 7.307-2.923 12.617-8.772 16.567-3.066 2.07-6.63 2.522-10.201 2.854-.213.02-.45-.212-.674-.327.564-1.63.707-3.31.703-5.029-.02-9.21-.023-18.419.002-27.628.003-1.344-.19-2.76.846-3.892Z" fill="#95deff" fill-rule="evenodd" data-name="Path 6057"/><path d="M315.096 347.24c.005 11.332.012 22.662.012 33.993 0 1.16.31 2.532-1.563 2.555-6.113-.281-10.605-3.339-14.085-8.184-.674-.939-.79-1.517.325-2.25 4.83-3.18 5.873-11.196.059-15.57-1-.751-1.018-1.393-.363-2.336 3.79-5.449 8.921-8.31 15.615-8.208Z" fill="#fff" fill-rule="evenodd" data-name="Path 6058"/></g></g></svg>