<svg xmlns="http://www.w3.org/2000/svg" width="109.844" height="109.838" viewBox="67 614.867 109.844 109.838"><g data-name="Group 3915"><g data-name="Group 3902"><g data-name="Group 3901"><g data-name="Group 3900"><path d="M176.838 669.787c0 1.173-.037 2.337-.112 3.496a.114.114 0 0 1 0 .073 57.8 57.8 0 0 1-.485 4.58 58.266 58.266 0 0 1-.857 4.47 46.148 46.148 0 0 1-.899 3.327c-.104.353-.215.708-.333 1.062a51.557 51.557 0 0 1-.737 2.117c-.124.369-.266.722-.406 1.076-.25.613-.5 1.218-.759 1.816a46.5 46.5 0 0 1-1.21 2.573c-.11.221-.22.436-.331.649-.17.331-.347.656-.524.981a35.489 35.489 0 0 1-1.1 1.926c-.191.315-.382.633-.574.944l-.599.928c-.22.355-.457.708-.707 1.055a51.61 51.61 0 0 1-1.187 1.659 19.7 19.7 0 0 1-.664.88c-.22.287-.45.573-.686.86-.228.288-.465.57-.701.85-.235.288-.472.56-.716.84-.479.553-.974 1.1-1.482 1.623-.45.48-.914.952-1.386 1.415-.376.377-.76.738-1.145 1.084-.205.194-.411.385-.618.568-.272.252-.546.495-.826.731-.554.48-1.122.944-1.69 1.41h-.007a53.225 53.225 0 0 1-2.641 1.968c-.006.014-.014.014-.022.022-.293.207-.597.406-.899.613-.605.412-1.225.812-1.852 1.194-.635.39-1.267.761-1.91 1.122-.368.213-.73.414-1.106.605-.922.487-1.852.952-2.802 1.393-.024.016-.053.022-.075.038-.331.147-.664.295-.995.435-.34.154-.686.294-1.025.434-.34.14-.686.282-1.025.414a52.335 52.335 0 0 1-3.195 1.121c-.33.11-.664.207-.995.31-.037.015-.08.021-.118.029a51.357 51.357 0 0 1-3.112.818 49.393 49.393 0 0 1-3.195.635c-.036.015-.065.015-.095.015-.508.09-1.019.17-1.527.237-.243.035-.487.065-.73.094-.257.038-.51.067-.76.09-.317.037-.635.066-.952.096-.31.035-.61.059-.92.08-.393.03-.79.06-1.189.073a4.323 4.323 0 0 1-.457.022c-.31.024-.627.03-.944.045-.17 0-.347.008-.524.008-.369.006-.737.014-1.114.014a46.27 46.27 0 0 1-1.74-.03c-.5-.013-1.003-.037-1.498-.072a3.69 3.69 0 0 1-.487-.03c-.47-.022-.936-.059-1.401-.104-.03 0-.06-.006-.08-.006-.496-.046-.988-.105-1.483-.164a52.21 52.21 0 0 1-3.437-.53c-.089-.016-.178-.03-.258-.045-.42-.081-.834-.162-1.246-.258a51.754 51.754 0 0 1-1.882-.434c-.191-.053-.39-.105-.582-.156-.266-.067-.524-.14-.782-.207-.487-.14-.974-.28-1.452-.433-.326-.097-.65-.207-.974-.318a54.592 54.592 0 0 1-3.04-1.1c-.33-.14-.663-.271-.994-.413a.183.183 0 0 1-.067-.03c-.399-.17-.797-.339-1.195-.522a51.665 51.665 0 0 1-3.577-1.778c-.384-.207-.76-.414-1.137-.627-.014-.015-.03-.021-.036-.021-.376-.223-.752-.444-1.129-.672a54.02 54.02 0 0 1-1.121-.702 49.213 49.213 0 0 1-3.26-2.257 59.056 59.056 0 0 1-2.071-1.63c-.341-.28-.68-.567-1.012-.855a68.26 68.26 0 0 1-.981-.87 37.933 37.933 0 0 1-1.91-1.822 49.656 49.656 0 0 1-2.187-2.322c-.085-.092-.164-.189-.247-.284-.392-.445-.786-.888-1.165-1.348-.266-.317-.524-.64-.774-.965-.266-.347-.538-.7-.804-1.055a49.148 49.148 0 0 1-2.257-3.26 53.505 53.505 0 0 1-.702-1.121c-.19-.317-.382-.643-.575-.966a51.084 51.084 0 0 1-1.18-2.146c-.146-.296-.302-.591-.45-.885a52.418 52.418 0 0 1-1.555-3.415c-.164-.385-.317-.775-.473-1.165-.17-.444-.339-.885-.5-1.342-.119-.341-.237-.686-.355-1.033-.046-.134-.089-.274-.132-.406-.06-.177-.119-.363-.178-.538a27.114 27.114 0 0 1-.347-1.137c-.104-.353-.199-.7-.295-1.055a54.779 54.779 0 0 1-.28-1.054 52.441 52.441 0 0 1-.796-3.739c-.067-.406-.14-.82-.2-1.232a60.204 60.204 0 0 1-.339-2.604c-.015-.141-.023-.281-.037-.427a53.79 53.79 0 0 1-.185-2.509c-.022-.323-.03-.648-.043-.973-.008-.237-.016-.471-.016-.7-.006-.384-.014-.769-.014-1.151 0-30.33 24.59-54.92 54.918-54.92.517 0 1.04.008 1.557.024.944.029 1.888.072 2.817.153.2.008.392.03.59.046.355.03.708.065 1.055.102.132.016.266.03.406.051.325.03.64.075.958.118.185.022.376.052.562.081.323.046.656.097.98.148.117.016.236.038.354.06a40.422 40.422 0 0 1 1.541.287c.252.045.495.097.745.156.274.051.546.11.812.175.038.008.081.016.118.032.412.094.826.19 1.232.301.442.11.877.229 1.313.353.457.126.906.26 1.364.406.465.148.936.296 1.4.457a50.08 50.08 0 0 1 3.062 1.16 24.422 24.422 0 0 1 1.166.494c.347.148.692.31 1.04.47a53.974 53.974 0 0 1 9.794 5.842c.245.186.495.369.737.562.452.345.893.7 1.337 1.068a41.711 41.711 0 0 1 1.99 1.726c.288.251.568.517.842.783.288.264.567.538.847.818a42.635 42.635 0 0 1 2.227 2.337c.253.275.495.547.731.826.53.613 1.047 1.232 1.542 1.867.25.317.494.634.737.96.244.317.479.64.715.973a44.699 44.699 0 0 1 1.372 1.99c.451.679.879 1.365 1.29 2.058.2.34.399.68.592 1.02.272.47.538.95.78 1.43.135.25.267.5.393.751.191.363.368.723.538 1.092a52.386 52.386 0 0 1 1.474 3.364c.156.382.304.767.443 1.151a54.342 54.342 0 0 1 2.943 11.609c.014.073.03.147.03.228.161 1.18.28 2.367.36 3.564a.511.511 0 0 1 .016.153c.08 1.218.118 2.442.118 3.674Z" fill="#8fd6f9" fill-rule="evenodd" data-name="Path 1081"/><path d="M176.844 669.787c0 1.173-.035 2.337-.118 3.496a.114.114 0 0 1 0 .073 51.272 51.272 0 0 1-.485 4.58 53.065 53.065 0 0 1-.857 4.47 46.148 46.148 0 0 1-.899 3.327c-.104.353-.215.708-.333 1.062a51.557 51.557 0 0 1-.737 2.117c-.124.369-.266.722-.406 1.076-.25.613-.5 1.218-.759 1.816a46.5 46.5 0 0 1-1.21 2.573c-.11.221-.22.436-.331.649-.17.331-.347.656-.524.981a35.489 35.489 0 0 1-1.1 1.926c-.191.315-.382.633-.574.944l-.599.928c-.22.355-.457.708-.707 1.055a36.473 36.473 0 0 1-1.187 1.659 19.7 19.7 0 0 1-.664.88c-.22.287-.45.573-.686.86-.228.288-.465.57-.701.85-.235.288-.472.56-.716.84-.479.553-.974 1.1-1.482 1.623-.45.487-.914.958-1.386 1.415-.376.377-.76.738-1.145 1.084-.205.194-.411.385-.618.568-.272.252-.546.495-.826.731-.554.48-1.122.944-1.69 1.41h-.007a53.225 53.225 0 0 1-2.641 1.968c-.006.014-.014.014-.022.022-.293.207-.597.406-.899.613-.605.412-1.225.812-1.852 1.194-.635.39-1.267.761-1.91 1.122-.368.213-.73.414-1.106.605-.914.494-1.852.957-2.802 1.393-.024.016-.053.022-.075.038-.331.147-.664.295-.995.435-.34.154-.686.294-1.025.434-.34.14-.686.282-1.025.414a52.335 52.335 0 0 1-3.195 1.121c-.33.11-.664.207-.995.31-.037.015-.08.021-.118.029a51.357 51.357 0 0 1-3.112.818 49.393 49.393 0 0 1-3.195.635c-.036.015-.065.015-.095.015-.508.09-1.019.17-1.527.237-.243.035-.487.065-.73.094-.257.038-.51.067-.76.09-.317.037-.635.072-.952.096-.31.035-.61.059-.92.08-.393.03-.79.06-1.189.073a4.323 4.323 0 0 1-.457.022c-.31.024-.627.03-.944.045-.17 0-.347.008-.524.008-.369.006-.737.014-1.114.014a46.27 46.27 0 0 1-1.74-.03c-.5-.013-1.003-.037-1.498-.072a3.69 3.69 0 0 1-.487-.03c-.47-.022-.936-.059-1.401-.104-.03 0-.06-.006-.08-.006-.496-.046-.988-.105-1.483-.164a52.21 52.21 0 0 1-3.437-.53c-.089-.016-.178-.03-.258-.045-.42-.081-.834-.162-1.246-.258a51.754 51.754 0 0 1-1.882-.434c-.191-.053-.39-.105-.582-.156-.266-.067-.524-.14-.782-.207-.487-.14-.974-.28-1.452-.433-.326-.097-.65-.207-.974-.318a54.592 54.592 0 0 1-3.04-1.1c-.33-.14-.663-.271-.994-.413a.183.183 0 0 1-.067-.03c-.399-.17-.797-.339-1.195-.522a51.665 51.665 0 0 1-3.577-1.778c-.384-.207-.76-.414-1.137-.627-.014-.015-.03-.021-.036-.021-.376-.223-.752-.444-1.129-.672a57.724 57.724 0 0 1-4.381-2.958 59.056 59.056 0 0 1-2.071-1.63c-.341-.28-.68-.568-1.012-.856a68.26 68.26 0 0 1-.981-.87c-.648-.598-1.29-1.201-1.91-1.822a56.384 56.384 0 0 1-4.373-4.92c-.266-.346-.538-.699-.804-1.054a55 55 0 0 1-2.959-4.381c-.19-.317-.382-.643-.575-.966a51.084 51.084 0 0 1-1.18-2.146c-.146-.296-.302-.591-.45-.885a52.418 52.418 0 0 1-1.555-3.415c-.164-.385-.317-.775-.473-1.165-.17-.444-.339-.885-.5-1.342-.119-.341-.237-.686-.355-1.033-.046-.134-.089-.274-.132-.406h-.008c-.06-.177-.118-.355-.17-.538a27.114 27.114 0 0 1-.347-1.137c-.104-.353-.199-.7-.295-1.055a54.779 54.779 0 0 1-.28-1.054 52.441 52.441 0 0 1-.995-4.97 60.204 60.204 0 0 1-.339-2.604c-.016-.142-.024-.282-.038-.428a53.79 53.79 0 0 1-.185-2.509c-.022-.323-.03-.648-.043-.973-.008-.237-.016-.471-.016-.7-.006-.384-.014-.769-.014-1.151 0-30.33 24.59-54.92 54.918-54.92.517 0 1.04.008 1.557.024.944.029 1.888.072 2.817.153.2.008.392.03.59.046.355.03.708.065 1.055.102.132.016.266.03.406.051.325.03.64.075.958.118.185.022.376.052.562.081.323.046.656.097.98.148.117.016.236.038.354.06a40.422 40.422 0 0 1 1.541.287c.252.045.495.097.745.156.274.051.546.11.812.175.038.008.081.016.118.032.412.094.826.19 1.232.301.442.11.877.229 1.313.353.457.126.906.26 1.364.406.465.148.936.296 1.4.457a50.08 50.08 0 0 1 3.062 1.16 24.422 24.422 0 0 1 1.166.494c.347.148.692.31 1.04.47a53.974 53.974 0 0 1 9.794 5.842c.245.186.495.369.737.562.452.345.893.7 1.337 1.068a41.711 41.711 0 0 1 1.99 1.726c.288.251.568.517.842.783.288.264.567.538.847.818a42.635 42.635 0 0 1 2.227 2.337c.253.275.495.547.731.826.53.613 1.047 1.232 1.542 1.867.25.317.494.634.737.96.244.317.479.64.715.973a44.699 44.699 0 0 1 1.372 1.99 37.03 37.03 0 0 1 1.29 2.058c.2.34.399.68.592 1.02.272.47.538.95.78 1.43.135.25.267.5.393.751.191.363.368.723.538 1.092.53 1.1 1.025 2.221 1.474 3.364.156.382.304.767.443 1.151.343.915.66 1.841.956 2.777l.016.053c.292.933.56 1.875.802 2.827l.014.055c.242.954.461 1.917.65 2.893l.008.033c.191.982.359 1.971.497 2.97.014.074.03.148.03.23a43.18 43.18 0 0 1 .36 3.563.511.511 0 0 1 .016.153 55.46 55.46 0 0 1 .124 3.674Z" fill="#8fd6f9" fill-rule="evenodd" data-name="Path 1082"/></g></g></g><g data-name="Group 3914"><g data-name="Group 3913"><g data-name="Group 3903"><path d="M138.606 683.618c8.663-2.876 12.882-10.89 12.882-10.89s-6.773-5.302-4.96-5.536c1.814-.235 6.59 2.465 6.59 2.465 2.7-4.777 2.286-8.689 2.286-8.689s-8.799-1.718-6.026-3.092c2.774-1.373 7.092.649 7.092.649 1.964-4.773-.4-13.043-5.733-13.643-5.333-.599-10.471 4.586-10.471 4.586s8.14 6.598 5.025 7.462c-3.116.866-6.32-5.358-6.32-5.358-4.237 3.591-6.07 12.22-6.07 12.22s8.006 2.007 7.053 4.62c-.952 2.612-7.836-2.12-7.836-2.12-.3 9.076 6.488 17.326 6.488 17.326Zm4.932-7.622c-.09-.324-.27-.974.616-1.186 0 0 .92.41.775 1.15-.144.741-1.3.362-1.39.036Z" fill="#92b72e" fill-rule="evenodd" data-name="Path 1083"/><path d="M152.2 647.51s-18.253 28.655-13.137 54.726" stroke-linejoin="round" stroke-linecap="round" stroke-width=".252" stroke="#145374" fill="transparent" data-name="Path 1084"/></g><g data-name="Group 3904"><path d="M144.93 686.989c7.237 1.609 13.519-2.22 13.519-2.22s-2.511-6.517-1.149-5.925c1.363.594 3.566 4.467 3.566 4.467 3.873-2.204 5.214-5.102 5.214-5.102s-5.415-4.866-2.91-4.667c2.506.199 4.672 3.408 4.672 3.408 3.358-2.508 5.16-9.256 1.693-11.898-3.468-2.641-9.21-1.17-9.21-1.17s2.923 7.991.39 7.296c-2.531-.695-2.17-6.37-2.17-6.37-4.45.737-9.326 5.986-9.326 5.986s4.745 4.737 2.99 6.16c-1.752 1.425-4.576-4.744-4.576-4.744-3.993 6.2-2.702 14.779-2.702 14.779Zm6.616-3.253c.072-.265.217-.793.924-.57 0 0 .47.668.06 1.124-.41.456-1.057-.291-.984-.554Z" fill="#92b72e" fill-rule="evenodd" data-name="Path 1085"/><g data-name="Path 1086"><path d="M169.459 667.494s-24.668 12.36-31.972 32.662" fill="#92b72e" fill-rule="evenodd"/><path d="M169.459 667.494s-24.668 12.36-31.972 32.662" stroke-linejoin="round" stroke-linecap="round" stroke-width=".252" stroke="#145374" fill="transparent"/></g></g><g data-name="Group 3912"><g data-name="Group 3910"><g data-name="Group 3905"><path d="M138.286 708.738c0 1.963-11.365 3.554-25.386 3.554-14.02 0-25.385-1.591-25.385-3.554 0-1.962 11.366-3.554 25.385-3.554 14.02 0 25.386 1.592 25.386 3.554Z" fill="#145374" fill-rule="evenodd" data-name="Path 1087"/><path d="M87.515 705.794h50.77v2.843h-50.77v-2.843z" fill="#145374" fill-rule="evenodd" data-name="Rectangle 109"/><path d="M87.515 705.796a25.386 3.554 0 1 1 0 .1z" fill="#5d889f" fill-rule="evenodd" data-name="Ellipse 75"/></g><g data-name="Group 3906"><path d="M115.538 668.733c2.46-6.851 9.844-6.671 15.294-12.62 5.45-5.951 3.869-13.885 3.869-13.885l-21.801 1.585-21.8-1.585s-1.581 7.934 3.868 13.885c5.45 5.949 12.833 5.769 15.296 12.62 2.46 6.853-16.175 7.393-18.988 22.358 0 0-1.98 8.592 4.41 13.706a6.77 6.77 0 0 0 3.107 1.37c2.343.399 7.213 1.077 13.579 1.146v.006c.179 0 .352-.002.528-.003.175.001.35.003.528.003v-.006c6.36-.07 11.228-.746 13.574-1.145a6.984 6.984 0 0 0 3.267-1.495c6.203-5.128 4.255-13.582 4.255-13.582-2.812-14.965-21.449-15.505-18.986-22.358Z" fill="#eaf1f4" fill-rule="evenodd" data-name="Path 1088"/><path d="M100.406 682.605s-6.743 5.491-4.76 14.44c1.983 8.95 15.667 7.73 20.228 7.73 4.562 0 11.9 0 13.883-6.306 1.983-6.305-1.983-14.44-4.362-14.644-2.065-.177-7.934 0-14.478-2.035-6.545-2.033-10.51.815-10.51.815Z" fill="#0780cd" fill-rule="evenodd" data-name="Path 1089"/><path d="M120.924 683.162s-6.22-.13-8.906-1.055c-2.688-.926-8.701-2.37-11.942.792-3.24 3.163 9.453 7.842 15.402 6.825 5.95-1.018 9.322-.815 10.908-2.035 1.587-1.22.984-2.584.293-3.223-.69-.641-3.48-1.357-5.755-1.304Z" fill="#419cc9" fill-rule="evenodd" data-name="Path 1090"/><path d="M114.883 650.67s-4.561 2.24-10.114 1.832c-5.553-.407-6.545 2.644-6.148 3.864.396 1.22 8.33 4.475 10.71 6.916 2.38 2.44 2.974 5.288 2.776 7.12-.199 1.829 0 3.863.397 4.88.396 1.016.595-.813.198-2.237-.397-1.424.397-4.882 1.19-5.695.793-.813 2.38-4.475 6.743-6.305 4.362-1.831 7.932-4.882 8.726-6.306.793-1.424-1.786-7.932-14.478-4.068Z" fill="#0780cd" fill-rule="evenodd" data-name="Path 1091"/><path d="M106.95 655.959s3.967 2.848 12.297 1.018c8.328-1.83 12.48-2.401 8.718-5.676-3.76-3.274-10.397-1.329-10.397-1.329s-8.578 2.83-11.58 2.577c-3.003-.25-4.789-.047-6.376.97-1.586 1.016 5.553 1.627 7.339 2.44Z" fill="#419cc9" fill-rule="evenodd" data-name="Path 1092"/></g><g data-name="Group 3907"><path d="M89.23 641.518v64.276h2.143v-63.566l-2.143-.71Z" fill="#145374" fill-rule="evenodd" data-name="Path 1093"/><path d="M91.373 705.793c0 .113-.5.204-1.117.204s-1.117-.09-1.117-.204c0-.11.5-.202 1.117-.202s1.117.091 1.117.202Z" fill="#145374" fill-rule="evenodd" data-name="Path 1094"/></g><g data-name="Group 3908"><path d="M134.518 641.518v64.276h2.143v-63.566l-2.143-.71Z" fill="#145374" fill-rule="evenodd" data-name="Path 1095"/><path d="M136.662 705.793c0 .113-.501.204-1.119.204-.615 0-1.116-.09-1.116-.204 0-.11.5-.202 1.116-.202.618 0 1.119.091 1.119.202Z" fill="#2e235b" fill-rule="evenodd" data-name="Path 1096"/></g><g data-name="Group 3909"><path d="M87.515 641.418a25.386 3.554 0 1 1 0 .1z" fill="#007fc6" fill-rule="evenodd" data-name="Ellipse 76"/><path d="M87.515 638.573h50.77v2.843h-50.77v-2.843z" fill="#007fc6" fill-rule="evenodd" data-name="Rectangle 110"/><path d="M138.286 638.674c0 1.963-11.365 3.554-25.386 3.554-14.02 0-25.385-1.591-25.385-3.554 0-1.963 11.366-3.554 25.385-3.554 14.02 0 25.386 1.591 25.386 3.554Z" fill="#007fc6" fill-rule="evenodd" data-name="Path 1097"/></g></g><g data-name="Group 3911"><path d="M113.131 689.261a21.881 21.881 0 1 1 0 .1z" fill="#da6d36" fill-rule="evenodd" data-name="Ellipse 77"/><path d="M135.005 669.013c12.085 0 21.881 9.796 21.881 21.881s-9.796 21.881-21.881 21.881-21.881-9.796-21.881-21.881 9.796-21.881 21.88-21.881Z" fill="#eb8a1c" fill-rule="evenodd" data-name="Path 1110"/><path d="M116.414 690.794a18.59 18.59 0 1 1 0 .1z" fill="#e7eef1" fill-rule="evenodd" data-name="Ellipse 79"/><path d="M133.03 690.794a1.974 1.974 0 1 1 0 .1z" fill="#e59a74" fill-rule="evenodd" data-name="Ellipse 80"/><path d="M134.84 672.797h.494v1.645h-.494v-1.645z" fill="#145374" fill-rule="evenodd" data-name="Rectangle 111"/><path d="m143.674 675.007.43.24-.8 1.438-.432-.24.802-1.438z" fill="#145374" fill-rule="evenodd" data-name="Rectangle 112"/><path d="m150.312 681.24.26.419-1.4.865-.259-.42 1.4-.865z" fill="#145374" fill-rule="evenodd" data-name="Rectangle 113"/><path d="m153.076 689.915.023.494-1.644.073-.022-.493 1.643-.074z" fill="#145374" fill-rule="evenodd" data-name="Rectangle 114"/><path d="m151.266 698.839-.221.442-1.472-.736.221-.442 1.472.736z" fill="#145374" fill-rule="evenodd" data-name="Rectangle 115"/><path d="m145.339 705.752-.408.278-.927-1.36.408-.278.927 1.36z" fill="#145374" fill-rule="evenodd" data-name="Rectangle 116"/><path d="m136.796 708.903-.492.045-.148-1.639.492-.044.148 1.638z" fill="#145374" fill-rule="evenodd" data-name="Rectangle 117"/><path d="m127.8 707.496-.451-.2.669-1.504.45.2-.668 1.504z" fill="#145374" fill-rule="evenodd" data-name="Rectangle 118"/><path d="m120.627 701.886-.296-.395 1.316-.987.296.395-1.316.987z" fill="#145374" fill-rule="evenodd" data-name="Rectangle 119"/><path d="m117.095 693.494-.067-.49 1.63-.221.067.489-1.63.222z" fill="#145374" fill-rule="evenodd" data-name="Rectangle 120"/><path d="m118.26 684.278.18-.459 1.532.6-.18.46-1.532-.6z" fill="#145374" fill-rule="evenodd" data-name="Rectangle 121"/><path d="m123.959 676.558.394-.298.992 1.313-.394.297-.992-1.312z" fill="#145374" fill-rule="evenodd" data-name="Rectangle 122"/><path d="M128.742 674.712a.165.165 0 1 1-.308.119.165.165 0 0 1 .308-.12Z" fill="#145374" fill-rule="evenodd" data-name="Path 1098"/><path d="M139.633 674.17a.166.166 0 0 1-.202.116.165.165 0 1 1 .202-.116Z" fill="#145374" fill-rule="evenodd" data-name="Path 1099"/><path d="M147.258 678.607a.164.164 0 0 1-.231.002.165.165 0 0 1-.002-.234.166.166 0 0 1 .233 0 .164.164 0 0 1 0 .232Z" fill="#145374" fill-rule="evenodd" data-name="Path 1100"/><path d="M151.691 686.13a.164.164 0 0 1-.203-.112.163.163 0 0 1 .11-.204.165.165 0 0 1 .092.316Z" fill="#145374" fill-rule="evenodd" data-name="Path 1101"/><path d="M151.853 695.05a.162.162 0 0 1-.121-.2.164.164 0 0 1 .199-.12.166.166 0 0 1 .12.199.165.165 0 0 1-.198.12Z" fill="#145374" fill-rule="evenodd" data-name="Path 1102"/><path d="M148.148 702.224a.164.164 0 0 1-.017-.232.166.166 0 0 1 .232-.019c.069.06.076.165.017.233a.164.164 0 0 1-.232.018Z" fill="#145374" fill-rule="evenodd" data-name="Path 1103"/><path d="M140.957 707.194a.164.164 0 1 1 .308-.113.163.163 0 0 1-.098.21.161.161 0 0 1-.21-.097Z" fill="#145374" fill-rule="evenodd" data-name="Path 1104"/><path d="M131.75 707.938a.164.164 0 1 1 .322.06.164.164 0 0 1-.19.132.165.165 0 0 1-.132-.192Z" fill="#145374" fill-rule="evenodd" data-name="Path 1105"/><path d="M124.032 704.337a.164.164 0 0 1 .255.206.166.166 0 0 1-.231.025.164.164 0 0 1-.024-.231Z" fill="#145374" fill-rule="evenodd" data-name="Path 1106"/><path d="M118.943 697.46a.165.165 0 0 1 .215.09.164.164 0 0 1-.09.214.162.162 0 0 1-.214-.09.164.164 0 0 1 .089-.214Z" fill="#145374" fill-rule="evenodd" data-name="Path 1107"/><path d="M117.814 688.537c.089.012.153.095.14.186a.164.164 0 1 1-.326-.044.165.165 0 0 1 .186-.142Z" fill="#145374" fill-rule="evenodd" data-name="Path 1108"/><path d="M121.589 679.89a.164.164 0 1 1-.209.254.164.164 0 0 1 .208-.254Z" fill="#145374" fill-rule="evenodd" data-name="Path 1109"/><path d="M134.769 678.412h.337a.265.265 0 0 1 .265.265v12.108a.265.265 0 0 1-.265.265h-.337a.265.265 0 0 1-.265-.265v-12.108a.265.265 0 0 1 .265-.265z" fill="#145374" fill-rule="evenodd" data-name="Rectangle 123"/><path d="M143.849 690.374v.379a.297.297 0 0 1-.297.297h-8.764a.297.297 0 0 1-.297-.297v-.378a.297.297 0 0 1 .297-.298h8.764a.297.297 0 0 1 .297.297z" fill="#145374" fill-rule="evenodd" data-name="Rectangle 124"/></g></g></g></g></g></svg>