<svg xmlns="http://www.w3.org/2000/svg" width="120.677" height="114.336" viewBox="-0.859 5.481 120.677 114.336"><g data-name="Group 3846"><path d="M119.813 63.47a56.957 56.957 0 0 1-3.827 19.798c-8.385 21.669-29.57 36.902-54.155 36.544-24.013-.343-44.353-15.44-52.515-36.544a56.898 56.898 0 0 1-3.825-21.445C5.937 30.255 31.904 5.035 63.47 5.487c31.568.452 56.795 26.417 56.342 57.984Z" fill="#8fd6f9" fill-rule="evenodd" data-name="Path 942"/><path d="M115.986 83.268c-8.385 21.669-29.57 36.902-54.155 36.544-24.013-.343-44.353-15.44-52.515-36.544h106.67Z" fill="#007fc6" fill-rule="evenodd" data-name="Path 943"/><path d="M94.077 101.543c0 1.863-14.5 3.374-32.386 3.374-17.885 0-32.386-1.511-32.386-3.374 0-1.864 14.5-3.375 32.386-3.375 17.887 0 32.386 1.511 32.386 3.375Z" fill="#007fc6" fill-rule="evenodd" data-name="Path 944"/><g data-name="Group 3831"><path d="m70.25 60.16-4.467 39.772c-.116 1.018-.841 1.782-1.706 1.782H40.004c-.865 0-1.59-.764-1.703-1.782L33.838 60.21c.138.479 2.419.905 5.98 1.207 3.228.274 7.516.44 12.225.44.714 0 1.417-.007 2.106-.013 4.595-.044 8.671-.252 11.573-.563 2.818-.297 4.528-.686 4.528-1.122Z" fill="#eaf1f4" fill-rule="evenodd" data-name="Path 945"/><path d="M51.07 80.273c-3.272.65-6.543-1.955-9.814-3.256-1.178-.47-2.636-.256-3.972.382l2.389 21.258c.104.922.761 1.607 1.538 1.607h21.703c.778 0 1.435-.685 1.538-1.607l2.785-24.792c-.12-.034-.236-.076-.36-.103-5.997-.654-10.356 4.556-15.808 6.51Z" fill="#1ba1dd" fill-rule="evenodd" data-name="Path 946"/><path d="M70.251 60.162c0 .936-8.152 1.696-18.21 1.696-10.056 0-18.208-.76-18.208-1.696 0-.935 8.152-1.696 18.208-1.696 10.058 0 18.21.761 18.21 1.696Z" fill="#fff" fill-rule="evenodd" data-name="Path 947"/><path d="M44.964 101.714h-4.96c-.865 0-1.59-.764-1.703-1.782L33.832 60.16c0 .498 2.31.947 5.986 1.258.974 7.83 3.785 29.759 5.146 40.297Z" fill="#eaf1f4" fill-rule="evenodd" data-name="Path 948"/><path d="m65.722 61.281-2.485 39.653h-7.099l-1.99-39.09c4.596-.044 8.672-.252 11.574-.563Z" fill="#fff" fill-rule="evenodd" data-name="Path 949"/><g data-name="Group 3830"><path d="M88.207 360.55a1.23 1.23 0 0 1-2.459 0 1.23 1.23 0 0 1 2.46 0Z" fill-rule="evenodd" fill="url(&quot;#a&quot;)" transform="translate(-38.65 -271.65)" data-name="Path 950"/><path d="M93.366 358.865a1.01 1.01 0 1 1-2.021-.001 1.01 1.01 0 0 1 2.021.001Z" fill-rule="evenodd" fill="url(&quot;#b&quot;)" transform="translate(-38.147 -271.782)" data-name="Path 951"/><path d="M84.217 358.4a.632.632 0 1 1-1.263 0 .632.632 0 0 1 1.263 0Z" fill-rule="evenodd" fill="url(&quot;#c&quot;)" transform="translate(-38.9 -271.79)" data-name="Path 952"/><path d="M93.95 358.98a.631.631 0 1 1-1.262 0 .631.631 0 0 1 1.262 0Z" fill-rule="evenodd" fill="url(&quot;#d&quot;)" transform="translate(-38.027 -271.738)" data-name="Path 953"/><path d="M93.372 363.294a.633.633 0 0 1-.631.632.632.632 0 1 1 .63-.632Z" fill-rule="evenodd" fill="url(&quot;#e&quot;)" transform="translate(-38.08 -271.351)" data-name="Path 954"/><path d="M100.4 360.5a.63.63 0 1 1-1.26 0 .63.63 0 0 1 1.26 0Z" fill-rule="evenodd" fill="url(&quot;#f&quot;)" transform="translate(-37.449 -271.601)" data-name="Path 955"/><path d="M94.056 353.575a.632.632 0 0 1 .255 1.237.631.631 0 0 1-.255-1.237Z" fill-rule="evenodd" fill="url(&quot;#g&quot;)" transform="translate(-37.95 -272.167)" data-name="Path 956"/><path d="M87.545 354.379a.382.382 0 1 1 .152.748.382.382 0 0 1-.152-.748Z" fill-rule="evenodd" fill="url(&quot;#h&quot;)" transform="translate(-38.516 -272.094)" data-name="Path 957"/><path d="M95.177 356.847a.382.382 0 1 1 .153.748.382.382 0 0 1-.153-.748Z" fill-rule="evenodd" fill="url(&quot;#i&quot;)" transform="translate(-37.831 -271.873)" data-name="Path 958"/></g></g><g data-name="Group 3835"><g data-name="Group 3832"><path d="m82.813 26.8-.078.314a.804.804 0 0 0 .588.968l8.76 2.15a.797.797 0 0 0 .968-.586l.076-.312a.802.802 0 0 0-.585-.974l-8.76-2.152a.807.807 0 0 0-.97.593Z" fill="#fff" fill-rule="evenodd" data-name="Path 959"/><path d="m82.308 28.857-.076.31a.801.801 0 0 0 .586.97l8.76 2.15a.797.797 0 0 0 .969-.588l.076-.309a.8.8 0 0 0-.585-.976l-8.761-2.149a.803.803 0 0 0-.969.592Z" fill="#fff" fill-rule="evenodd" data-name="Path 960"/><path d="m81.805 30.912-.077.31a.8.8 0 0 0 .586.968l8.76 2.153a.8.8 0 0 0 .968-.588l.075-.31a.802.802 0 0 0-.584-.977l-8.76-2.15a.808.808 0 0 0-.968.594Z" fill="#fff" fill-rule="evenodd" data-name="Path 961"/><path d="m81.3 32.967-.077.31a.799.799 0 0 0 .586.967l8.761 2.151a.792.792 0 0 0 .966-.585l.079-.313a.802.802 0 0 0-.586-.973l-8.761-2.15a.808.808 0 0 0-.969.593Z" fill="#fff" fill-rule="evenodd" data-name="Path 962"/><path d="m80.795 35.023-.076.309a.803.803 0 0 0 .587.97l8.76 2.148a.793.793 0 0 0 .967-.585l.076-.313a.801.801 0 0 0-.584-.973l-8.76-2.15a.805.805 0 0 0-.97.594Z" fill="#fff" fill-rule="evenodd" data-name="Path 963"/><path d="m80.291 37.076-.076.31a.799.799 0 0 0 .585.97l8.76 2.15a.794.794 0 0 0 .969-.588l.077-.31a.805.805 0 0 0-.585-.976l-8.76-2.149a.806.806 0 0 0-.97.593Z" fill="#fff" fill-rule="evenodd" data-name="Path 964"/><path d="m79.786 39.132-.075.31a.8.8 0 0 0 .586.968l8.76 2.153a.8.8 0 0 0 .968-.588l.075-.311a.802.802 0 0 0-.584-.976l-8.76-2.152a.81.81 0 0 0-.97.596Z" fill="#fff" fill-rule="evenodd" data-name="Path 965"/><path d="m79.281 41.186-.075.31a.797.797 0 0 0 .585.968l8.76 2.151a.795.795 0 0 0 .969-.586l.076-.311a.8.8 0 0 0-.585-.975l-8.759-2.15a.809.809 0 0 0-.97.593Z" fill="#fff" fill-rule="evenodd" data-name="Path 966"/><path d="m78.777 43.24-.075.312a.8.8 0 0 0 .586.969l8.76 2.148a.796.796 0 0 0 .968-.585l.075-.311a.802.802 0 0 0-.584-.975l-8.76-2.15a.803.803 0 0 0-.97.591Z" fill="#fff" fill-rule="evenodd" data-name="Path 967"/><path d="m78.272 45.295-.076.31a.798.798 0 0 0 .586.967l8.76 2.154a.798.798 0 0 0 .97-.589l.075-.31a.801.801 0 0 0-.585-.975l-8.76-2.15a.807.807 0 0 0-.97.593Z" fill="#fff" fill-rule="evenodd" data-name="Path 968"/></g><g data-name="Group 3833"><path d="M74.46 41.839a3.17 3.17 0 0 0-.724 1.348 3.175 3.175 0 0 0 2.325 3.84 3.04 3.04 0 0 0 1.524-.013 3.181 3.181 0 0 0 2.183-1.952 2.424 2.424 0 0 0 1.846-1.79 2.43 2.43 0 0 0-1.256-2.735 2.01 2.01 0 0 0 .244-.565c.082-.325.073-.641.005-.953a3.944 3.944 0 0 0 3.662-2.998 3.97 3.97 0 0 0-1.251-3.928 3.936 3.936 0 0 0 2.61-4.999v-.005a3.941 3.941 0 0 0-2.808-2.604 3.947 3.947 0 0 0-4.779 2.889 3.88 3.88 0 0 0 0 1.87 2.097 2.097 0 0 0-1.576 1.542c-.197.804.094 1.6.68 2.103a3.88 3.88 0 0 0-.51 3.278c-.383.1-.708.4-.808.806a1.058 1.058 0 0 0-.004.485 2.314 2.314 0 0 0-2.618 1.729 2.324 2.324 0 0 0 1.256 2.652Z" fill="#fff" fill-rule="evenodd" data-name="Path 969"/><path d="M77.845 43.801s2.16 1.196-.26 3.213a3.181 3.181 0 0 0 2.183-1.952 2.424 2.424 0 0 0 1.846-1.79 2.43 2.43 0 0 0-1.256-2.735c.107-.177.193-.358.244-.565.082-.325.073-.641.005-.953a3.943 3.943 0 0 0 3.662-2.998 3.97 3.97 0 0 0-1.251-3.928 3.937 3.937 0 0 0 2.695-2.835 3.862 3.862 0 0 0-.086-2.164c-.016.211-.37 4.288-4.628 4.231 0 0 5.24 5.726-2.527 7.358 0 0 2.513 3.366-.627 5.118Z" fill="#eaf1f4" fill-rule="evenodd" data-name="Path 970"/><path d="M80.388 25.543s-1.877 1.549-1.233 4.068c0 0-1.43-2.549 1.233-4.068Z" fill="#fff" fill-rule="evenodd" data-name="Path 971"/><path d="M74.652 42.474s-2.064 3.278 2.257 4.373c0 0-2.938-1.594-2.257-4.373Z" fill="#fff" fill-rule="evenodd" data-name="Path 972"/><path d="M78.491 33.272s-1.672.943-.792 3.254c0 0-1.702-2.309.816-3.322" fill="#fff" fill-rule="evenodd" data-name="Path 973"/></g><g data-name="Group 3834"><path d="m92.547 31.699.076-.309a.8.8 0 0 0-.585-.976l-1.52-.371a97.484 97.484 0 0 1-.46 1.87l1.52.374a.797.797 0 0 0 .969-.588Z" fill="#eaf1f4" fill-rule="evenodd" data-name="Path 974"/><path d="m93.051 29.646.076-.312a.802.802 0 0 0-.585-.974l-1.568-.386a48.723 48.723 0 0 1-.412 1.887l1.52.371a.797.797 0 0 0 .97-.586Z" fill="#eaf1f4" fill-rule="evenodd" data-name="Path 975"/><path d="m92.042 33.755.075-.31a.802.802 0 0 0-.584-.977l-1.52-.373c-.158.587-.327 1.211-.514 1.86l1.574.388a.8.8 0 0 0 .97-.588Z" fill="#eaf1f4" fill-rule="evenodd" data-name="Path 976"/><path d="m91.536 35.81.079-.313a.802.802 0 0 0-.586-.973l-1.589-.39a48.45 48.45 0 0 1-.56 1.848l1.69.413a.792.792 0 0 0 .966-.585Z" fill="#eaf1f4" fill-rule="evenodd" data-name="Path 977"/><path d="m91.033 37.865.076-.313a.801.801 0 0 0-.584-.973l-1.704-.42c-.198.604-.405 1.214-.621 1.835l1.867.456a.793.793 0 0 0 .966-.585Z" fill="#eaf1f4" fill-rule="evenodd" data-name="Path 978"/><path d="m90.529 39.918.077-.31a.805.805 0 0 0-.585-.976l-1.886-.46c-.23.6-.456 1.212-.71 1.81l2.136.523a.794.794 0 0 0 .968-.587Z" fill="#eaf1f4" fill-rule="evenodd" data-name="Path 979"/><path d="m90.025 41.975.075-.311a.802.802 0 0 0-.584-.976l-2.164-.53c-.24.606-.51 1.206-.783 1.791l2.487.614a.8.8 0 0 0 .97-.588Z" fill="#eaf1f4" fill-rule="evenodd" data-name="Path 980"/><path d="m89.52 44.03.076-.312a.8.8 0 0 0-.585-.975l-2.528-.62c-.292.61-.593 1.194-.912 1.76l2.98.732a.795.795 0 0 0 .969-.586Z" fill="#eaf1f4" fill-rule="evenodd" data-name="Path 981"/><path d="m89.016 46.084.075-.311a.802.802 0 0 0-.584-.975l-3.035-.747a18.393 18.393 0 0 1-1.089 1.72l3.664.898a.796.796 0 0 0 .97-.585Z" fill="#eaf1f4" fill-rule="evenodd" data-name="Path 982"/><path d="m82.872 47.578 4.67 1.148a.798.798 0 0 0 .97-.589l.075-.31a.801.801 0 0 0-.585-.975l-3.739-.916a13.63 13.63 0 0 1-1.391 1.642Z" fill="#eaf1f4" fill-rule="evenodd" data-name="Path 983"/></g><path d="M74.952 102.116a1.905 1.905 0 0 0 2.306-1.395l17.63-71.815a1.907 1.907 0 0 0-3.703-.91l-17.63 71.815a1.905 1.905 0 0 0 1.397 2.305Z" fill="#f2a72f" fill-rule="evenodd" data-name="Path 984"/><path d="m76.162 100.452 17.63-71.815a1.905 1.905 0 0 0-.872-2.08 1.95 1.95 0 0 1 .57.042 1.906 1.906 0 0 1 1.397 2.307l-17.63 71.815a1.905 1.905 0 0 1-2.305 1.395 1.958 1.958 0 0 1-.526-.225 1.905 1.905 0 0 0 1.736-1.44Z" fill="#f2a72f" fill-rule="evenodd" data-name="Path 985"/><path d="M85.774 54.529a.268.268 0 0 0 .327-.198l5.676-23.118a.272.272 0 0 0-.198-.328.273.273 0 0 0-.327.2l-5.675 23.117a.27.27 0 0 0 .197.327Z" fill="#f2a72f" fill-rule="evenodd" data-name="Path 986"/></g><g data-name="Group 3845"><g data-name="Group 3844" transform="translate(5.484 5.481)" clip-path="url(&quot;#j&quot;)"><g data-name="Group 3843"><g data-name="Group 3836"><path d="M24.34 35.876H-6.343v-5.93H24.34c.018 0 .029.011.029.027v5.871c0 .016-.011.032-.029.032Z" fill="#eaf1f4" fill-rule="evenodd" data-name="Path 987"/></g><g data-name="Group 3837"><path d="M-6.342 33.703h30.71v2.173h-30.71v-2.173z" fill="#c7d8dd" fill-rule="evenodd" data-name="Rectangle 73"/></g><g data-name="Group 3839"><path d="M28.384 36.851h-4.015v-7.85h4.015v7.85z" fill="#c7d8dd" fill-rule="evenodd" data-name="Rectangle 74"/><g data-name="Group 3838"><path d="M27.872 29.566H24.88v-.256h2.992v.256z" fill="#c7d8dd" fill-rule="evenodd" data-name="Rectangle 75"/><path d="M27.872 30.34H24.88v-.256h2.992v.257z" fill="#c7d8dd" fill-rule="evenodd" data-name="Rectangle 76"/><path d="M27.872 31.115H24.88v-.255h2.992v.255z" fill="#c7d8dd" fill-rule="evenodd" data-name="Rectangle 77"/><path d="M27.872 31.891H24.88v-.256h2.992v.256z" fill="#c7d8dd" fill-rule="evenodd" data-name="Rectangle 78"/><path d="M27.872 32.667H24.88v-.258h2.992v.258z" fill="#c7d8dd" fill-rule="evenodd" data-name="Rectangle 79"/><path d="M27.872 33.44H24.88v-.255h2.992v.256z" fill="#c7d8dd" fill-rule="evenodd" data-name="Rectangle 80"/><path d="M27.872 34.216H24.88v-.255h2.992v.255z" fill="#c7d8dd" fill-rule="evenodd" data-name="Rectangle 81"/><path d="M27.872 34.992H24.88v-.256h2.992v.256z" fill="#c7d8dd" fill-rule="evenodd" data-name="Rectangle 82"/><path d="M27.872 35.768H24.88v-.256h2.992v.256z" fill="#c7d8dd" fill-rule="evenodd" data-name="Rectangle 83"/><path d="M27.872 36.542H24.88v-.255h2.992v.255z" fill="#c7d8dd" fill-rule="evenodd" data-name="Rectangle 84"/></g></g><g data-name="Group 3840"><path d="M44.102 40.804h5.92V36.51c0-3.65-2.971-6.616-6.62-6.616H28.384v5.918h15.02a.7.7 0 0 1 .7.698v4.294Z" fill="#eaf1f4" fill-rule="evenodd" data-name="Path 988"/></g><g data-name="Group 3841"><path d="M28.386 29.892v5.917h15.019c.38 0 .693.313.693.701v4.297h5.92V36.51c0-3.651-2.968-6.618-6.613-6.618H28.386Z" fill="#eaf1f4" fill-rule="evenodd" data-name="Path 989"/></g><path d="M28.386 33.737v2.073h15.019c.38 0 .693.312.693.7v4.297h1.2l.238-.39v-4.826c0-1.025-.83-1.854-1.851-1.854H28.386Z" fill="#c7d8dd" fill-rule="evenodd" data-name="Path 990"/><path d="M41.508 29.901H29.763l2.38-5.273h6.986l2.38 5.273Z" fill="#f2a72f" fill-rule="evenodd" data-name="Path 991"/><path d="M41.343 35.802H29.928c1.478 1.684 3.52 2.636 5.65 2.636h.116c2.13 0 4.173-.952 5.65-2.636Z" fill="#eaf1f4" fill-rule="evenodd" data-name="Path 992"/><path d="M41.343 35.802H29.928c1.478 1.684 3.52 2.636 5.65 2.636h.116c2.13 0 4.173-.952 5.65-2.636Z" fill="#f2a72f" fill-rule="evenodd" data-name="Path 993"/><path d="M44.077 41.476h6.081a.528.528 0 0 0 0-1.055h-6.08a.528.528 0 0 0 0 1.055Z" fill="#fff" fill-rule="evenodd" data-name="Path 994"/><path d="M34.478 20.909h2.316v3.719h-2.316v-3.72z" fill="#f2a72f" fill-rule="evenodd" data-name="Rectangle 85"/><path d="M34.478 20.909h.621v3.719h-.621v-3.72z" fill="#f2a72f" fill-rule="evenodd" data-name="Rectangle 86"/><g data-name="Group 3842"><path d="M44.76 47.628a2.605 2.605 0 0 0 2.606 2.605 2.605 2.605 0 0 0 2.606-2.605c0-1.44-2.606-4.973-2.606-4.973s-2.606 3.533-2.606 4.973Z" fill="#007fc6" fill-rule="evenodd" data-name="Path 995"/><path d="M46.998 49.701a2.606 2.606 0 0 0 2.606-2.605c0-1.008-1.274-3.035-2.04-4.165.605.851 2.408 3.5 2.408 4.697a2.605 2.605 0 0 1-2.606 2.605c-1 0-1.86-.57-2.296-1.4.476.53 1.16.868 1.928.868Z" fill="#1ba1dd" fill-rule="evenodd" data-name="Path 996"/><path d="M45.948 45.195s-.956 1.964-.951 2.536c.004.578.344 1.212 1.027 1.293 0 0-1.017-1.381-.076-3.83Z" fill="#1ba1dd" fill-rule="evenodd" data-name="Path 997"/></g><path d="M40.915 18.278a1.99 1.99 0 0 0-1.66.255c-1.033.69-2.302.927-3.544.927h-.15c-1.24 0-2.511-.237-3.544-.927a1.994 1.994 0 0 0-1.66-.255 1.95 1.95 0 0 0-1.349 1.364 1.99 1.99 0 0 0 1.913 2.528c.42 0 .808-.13 1.129-.354.954-.667 2.145-.907 3.308-.907h.555c1.165 0 2.355.24 3.31.907.32.224.708.354 1.129.354a1.99 1.99 0 0 0 1.912-2.528 1.952 1.952 0 0 0-1.35-1.364Z" fill="#eaf1f4" fill-rule="evenodd" data-name="Path 998"/><path d="M40.915 18.278a1.99 1.99 0 0 0-1.66.255c-1.033.69-2.302.927-3.544.927h-.15c-1.24 0-2.511-.237-3.544-.927a1.994 1.994 0 0 0-1.66-.255 1.95 1.95 0 0 0-1.349 1.364 1.99 1.99 0 0 0 1.913 2.528c.42 0 .808-.13 1.129-.354.954-.667 2.145-.907 3.308-.907h.555c1.165 0 2.355.24 3.31.907.32.224.708.354 1.129.354a1.99 1.99 0 0 0 1.912-2.528 1.952 1.952 0 0 0-1.35-1.364Z" fill="#f2a72f" fill-rule="evenodd" data-name="Path 999"/><path d="M40.678 21.86c-.421 0-.81-.13-1.13-.352-.953-.666-2.143-.907-3.309-.907h-.554c-1.166 0-2.355.241-3.308.907a1.987 1.987 0 0 1-3.041-2.175 1.9 1.9 0 0 1 .395-.728 1.928 1.928 0 0 0-.723 1.037 1.99 1.99 0 0 0 1.913 2.528c.42 0 .808-.13 1.129-.356.954-.665 2.145-.905 3.308-.905h.555c1.165 0 2.355.24 3.31.905.32.226.708.356 1.129.356.609 0 1.15-.28 1.514-.712-.333.25-.74.403-1.188.403Z" fill="#f2a72f" fill-rule="evenodd" data-name="Path 1000"/><path d="m32.645 24.628-1.829 4.86 10.692.413H29.763l2.38-5.273h.502Z" fill="#f2a72f" fill-rule="evenodd" data-name="Path 1001"/><path d="M41.795 19.276a1.15 1.15 0 0 1-.255 1.608c-.514.372-.527-.255-.9-.77-.372-.514-.966-.721-.45-1.094a1.151 1.151 0 0 1 1.605.256Z" fill="#fff" fill-rule="evenodd" data-name="Path 1002"/><path d="M30.008 18.982a1.15 1.15 0 0 1 1.618-.17c.493.401-.11.574-.51 1.07-.4.49-.447 1.117-.94.718a1.151 1.151 0 0 1-.168-1.618Z" fill="#fff" fill-rule="evenodd" data-name="Path 1003"/></g></g></g></g><defs><radialGradient fx=".5" fy=".5" cx=".5" cy=".5" fr="0" r=".5" gradientTransform="matrix(.99912 0 0 1 0 0)" id="a"><stop stop-color="rgba(255,255,255,0 )" offset="0"/><stop stop-color="rgba(255,255,255,0.01 )" offset=".373"/><stop stop-color="rgba(255,255,255,0.04 )" offset=".507"/><stop stop-color="rgba(255,255,255,0.08 )" offset=".603"/><stop stop-color="rgba(255,255,255,0.15 )" offset=".68"/><stop stop-color="rgba(255,255,255,0.23 )" offset=".746"/><stop stop-color="rgba(255,255,255,0.34 )" offset=".805"/><stop stop-color="rgba(255,255,255,0.47 )" offset=".858"/><stop stop-color="rgba(255,255,255,0.62 )" offset=".907"/><stop stop-color="rgba(255,255,255,0.78 )" offset=".952"/><stop stop-color="rgba(255,255,255,0.96 )" offset=".993"/><stop stop-color="#fff" offset="1"/></radialGradient><radialGradient fx=".5" fy=".5" cx=".5" cy=".5" fr="0" r=".5" gradientTransform="matrix(1.00054 0 0 1 0 0)" id="b"><stop stop-color="rgba(255,255,255,0 )" offset="0"/><stop stop-color="rgba(255,255,255,0.01 )" offset=".373"/><stop stop-color="rgba(255,255,255,0.04 )" offset=".507"/><stop stop-color="rgba(255,255,255,0.08 )" offset=".603"/><stop stop-color="rgba(255,255,255,0.15 )" offset=".68"/><stop stop-color="rgba(255,255,255,0.23 )" offset=".746"/><stop stop-color="rgba(255,255,255,0.34 )" offset=".805"/><stop stop-color="rgba(255,255,255,0.47 )" offset=".858"/><stop stop-color="rgba(255,255,255,0.62 )" offset=".907"/><stop stop-color="rgba(255,255,255,0.78 )" offset=".952"/><stop stop-color="rgba(255,255,255,0.96 )" offset=".993"/><stop stop-color="#fff" offset="1"/></radialGradient><radialGradient fx=".5" fy=".5" cx=".5" cy=".5" fr="0" r=".5" gradientTransform="matrix(1.00001 0 0 1 0 0)" id="c"><stop stop-color="rgba(255,255,255,0 )" offset="0"/><stop stop-color="rgba(255,255,255,0.01 )" offset=".373"/><stop stop-color="rgba(255,255,255,0.04 )" offset=".507"/><stop stop-color="rgba(255,255,255,0.08 )" offset=".603"/><stop stop-color="rgba(255,255,255,0.15 )" offset=".68"/><stop stop-color="rgba(255,255,255,0.23 )" offset=".746"/><stop stop-color="rgba(255,255,255,0.34 )" offset=".805"/><stop stop-color="rgba(255,255,255,0.47 )" offset=".858"/><stop stop-color="rgba(255,255,255,0.62 )" offset=".907"/><stop stop-color="rgba(255,255,255,0.78 )" offset=".952"/><stop stop-color="rgba(255,255,255,0.96 )" offset=".993"/><stop stop-color="#fff" offset="1"/></radialGradient><radialGradient fx=".5" fy=".5" cx=".5" cy=".5" fr="0" r=".5" gradientTransform="matrix(1.00086 0 0 1 0 0)" id="d"><stop stop-color="rgba(255,255,255,0 )" offset="0"/><stop stop-color="rgba(255,255,255,0.01 )" offset=".373"/><stop stop-color="rgba(255,255,255,0.04 )" offset=".507"/><stop stop-color="rgba(255,255,255,0.08 )" offset=".603"/><stop stop-color="rgba(255,255,255,0.15 )" offset=".68"/><stop stop-color="rgba(255,255,255,0.23 )" offset=".746"/><stop stop-color="rgba(255,255,255,0.34 )" offset=".805"/><stop stop-color="rgba(255,255,255,0.47 )" offset=".858"/><stop stop-color="rgba(255,255,255,0.62 )" offset=".907"/><stop stop-color="rgba(255,255,255,0.78 )" offset=".952"/><stop stop-color="rgba(255,255,255,0.96 )" offset=".993"/><stop stop-color="#fff" offset="1"/></radialGradient><radialGradient fx=".5" fy=".5" cx=".5" cy=".5" fr="0" r=".5" id="e"><stop stop-color="rgba(255,255,255,0 )" offset="0"/><stop stop-color="rgba(255,255,255,0.01 )" offset=".373"/><stop stop-color="rgba(255,255,255,0.04 )" offset=".507"/><stop stop-color="rgba(255,255,255,0.08 )" offset=".603"/><stop stop-color="rgba(255,255,255,0.15 )" offset=".68"/><stop stop-color="rgba(255,255,255,0.23 )" offset=".746"/><stop stop-color="rgba(255,255,255,0.34 )" offset=".805"/><stop stop-color="rgba(255,255,255,0.47 )" offset=".858"/><stop stop-color="rgba(255,255,255,0.62 )" offset=".907"/><stop stop-color="rgba(255,255,255,0.78 )" offset=".952"/><stop stop-color="rgba(255,255,255,0.96 )" offset=".993"/><stop stop-color="#fff" offset="1"/></radialGradient><radialGradient fx=".5" fy=".5" cx=".5" cy=".5" fr="0" r=".5" gradientTransform="matrix(1.00086 0 0 1 0 0)" id="f"><stop stop-color="rgba(255,255,255,0 )" offset="0"/><stop stop-color="rgba(255,255,255,0.01 )" offset=".373"/><stop stop-color="rgba(255,255,255,0.04 )" offset=".507"/><stop stop-color="rgba(255,255,255,0.08 )" offset=".603"/><stop stop-color="rgba(255,255,255,0.15 )" offset=".68"/><stop stop-color="rgba(255,255,255,0.23 )" offset=".746"/><stop stop-color="rgba(255,255,255,0.34 )" offset=".805"/><stop stop-color="rgba(255,255,255,0.47 )" offset=".858"/><stop stop-color="rgba(255,255,255,0.62 )" offset=".907"/><stop stop-color="rgba(255,255,255,0.78 )" offset=".952"/><stop stop-color="rgba(255,255,255,0.96 )" offset=".993"/><stop stop-color="#fff" offset="1"/></radialGradient><radialGradient fx=".5" fy=".5" cx=".5" cy=".5" fr="0" r=".5" gradientTransform="matrix(-.20203 -.97939 .97952 -.202 1355.395 -518.394)" id="g"><stop stop-color="rgba(255,255,255,0 )" offset="0"/><stop stop-color="rgba(255,255,255,0.01 )" offset=".373"/><stop stop-color="rgba(255,255,255,0.04 )" offset=".507"/><stop stop-color="rgba(255,255,255,0.08 )" offset=".603"/><stop stop-color="rgba(255,255,255,0.15 )" offset=".68"/><stop stop-color="rgba(255,255,255,0.23 )" offset=".746"/><stop stop-color="rgba(255,255,255,0.34 )" offset=".805"/><stop stop-color="rgba(255,255,255,0.47 )" offset=".858"/><stop stop-color="rgba(255,255,255,0.62 )" offset=".907"/><stop stop-color="rgba(255,255,255,0.78 )" offset=".952"/><stop stop-color="rgba(255,255,255,0.96 )" offset=".993"/><stop stop-color="#fff" offset="1"/></radialGradient><radialGradient fx=".499" fy=".5" cx=".499" cy=".5" fr="0" r=".5" gradientTransform="matrix(-.20198 -.97939 .97932 -.202 2264.251 -860.483)" id="h"><stop stop-color="rgba(255,255,255,0 )" offset="0"/><stop stop-color="rgba(255,255,255,0.01 )" offset=".373"/><stop stop-color="rgba(255,255,255,0.04 )" offset=".507"/><stop stop-color="rgba(255,255,255,0.08 )" offset=".603"/><stop stop-color="rgba(255,255,255,0.15 )" offset=".68"/><stop stop-color="rgba(255,255,255,0.23 )" offset=".746"/><stop stop-color="rgba(255,255,255,0.34 )" offset=".805"/><stop stop-color="rgba(255,255,255,0.47 )" offset=".858"/><stop stop-color="rgba(255,255,255,0.62 )" offset=".907"/><stop stop-color="rgba(255,255,255,0.78 )" offset=".952"/><stop stop-color="rgba(255,255,255,0.96 )" offset=".993"/><stop stop-color="#fff" offset="1"/></radialGradient><radialGradient fx=".5" fy=".5" cx=".5" cy=".5" fr="0" r=".5" gradientTransform="matrix(-.202 -.97939 .9794 -.202 2235.238 -867.718)" id="i"><stop stop-color="rgba(255,255,255,0 )" offset="0"/><stop stop-color="rgba(255,255,255,0.01 )" offset=".373"/><stop stop-color="rgba(255,255,255,0.04 )" offset=".507"/><stop stop-color="rgba(255,255,255,0.08 )" offset=".603"/><stop stop-color="rgba(255,255,255,0.15 )" offset=".68"/><stop stop-color="rgba(255,255,255,0.23 )" offset=".746"/><stop stop-color="rgba(255,255,255,0.34 )" offset=".805"/><stop stop-color="rgba(255,255,255,0.47 )" offset=".858"/><stop stop-color="rgba(255,255,255,0.62 )" offset=".907"/><stop stop-color="rgba(255,255,255,0.78 )" offset=".952"/><stop stop-color="rgba(255,255,255,0.96 )" offset=".993"/><stop stop-color="#fff" offset="1"/></radialGradient><clipPath id="j"><path d="M161.885 341.883a56.957 56.957 0 0 1-3.826 19.797c-8.385 21.669-29.57 36.902-54.156 36.544-24.012-.343-44.352-15.44-52.514-36.544a56.898 56.898 0 0 1-3.825-21.445c.446-31.568 26.412-56.788 57.98-56.336 31.567.452 56.795 26.417 56.341 57.984Z" data-name="SVGID" transform="translate(-47.557 -283.893)"/></clipPath></defs></svg>