<svg xmlns="http://www.w3.org/2000/svg" width="124" height="125" viewBox="152 635.95 124 125"><g data-name="Group 5257"><path d="M152 698.4a62 62.5 0 1 1 0 .1z" fill="#fff" fill-rule="evenodd" data-name="Ellipse 118"/><g data-name="Group 5245"><path d="M203.591 675.183c.125.038.24.02.346-.056.318-.31.792-.234 1.142-.462.145.026.28.001.407-.073.451-.413 1.136-.033 1.58-.467a.838.838 0 0 0 .482-.066c.635-.456 1.475.06 2.1-.444l6.556-.001c.622.508 1.462-.012 2.095.445.156.07.32.09.488.064.44.44 1.125.056 1.573.467a.605.605 0 0 0 .413.073c.347.231.817.155 1.135.458a.4.4 0 0 0 .353.06c.258.07.454.241.66.398a.63.63 0 0 0 .416.103c.227.095.407.263.607.398.136.084.284.12.444.11.19.128.383.253.578.375l.535.116c.183.201.338.423.464.664 6.215 18.582-4.088 36.281-19.49 44.093a3.59 3.59 0 0 1-1.472.406l-.534.076c-.277-.304-.738-.194-1.033-.459a.59.59 0 0 0-.403-.083c-.235-.09-.418-.26-.618-.403a.653.653 0 0 0-.422-.107c-.225-.099-.405-.265-.604-.402a.685.685 0 0 0-.423-.112c-.233-.106-.425-.27-.614-.438a.397.397 0 0 0-.34-.096c-.295-.068-.506-.258-.695-.48l.012.01a3.96 3.96 0 0 0-.506-.42.483.483 0 0 0-.362-.135c-.294-.08-.507-.265-.675-.51l.027.026c-.211-.136-.375-.326-.557-.496a3.262 3.262 0 0 0-.524-.462l-.045-.04a1.167 1.167 0 0 0-.473-.437l-.071-.056c-.179-.39-.726-.239-.91-.621l.043.037c-.5-.382-.631-1.054-1.13-1.435l-.046-.058a1.639 1.639 0 0 0-.447-.496l-.021-.025c-.141-.198-.328-.357-.474-.55l.018.019c-.2-.16-.389-.33-.516-.558l.037.032c-.373-.224-.252-.741-.587-.988l-.008-.015c-.152-.194-.349-.35-.471-.569l.034.033c-.369-.245-.268-.745-.56-1.032l.01.016c-.324-.268-.228-.753-.531-1.031l.004.006c-.307-.28-.22-.755-.513-1.042l.007.012c-.326-.304-.253-.783-.493-1.124a.653.653 0 0 0-.089-.432c-.251-.303-.171-.747-.442-1.041l.013.024c-.605-.578.023-1.477-.537-2.066l.006.013c-.62-.797.065-1.842-.501-2.648l-.06-1.477c-.34-1.021-.348-2.041.004-3.06l.07-1.44c.461-.656-.04-1.513.45-2.163a.607.607 0 0 0 .056-.43c.395-.475.037-1.166.466-1.63a.492.492 0 0 0 .062-.387c.211-.364.157-.838.474-1.16l-.004.007c.297-.274.205-.721.452-1.017a.607.607 0 0 0 .102-.412c.226-.354.145-.851.525-1.134l-.033.033c.14-.184.281-.365.425-.546a.505.505 0 0 0 .107-.377c.088-.272.274-.475.473-.669v.001c.312-.268.204-.771.564-1.014l-.032.031c.132-.216.324-.379.494-.56.161-.147.304-.31.428-.49a.452.452 0 0 0 .135-.353c.074-.3.26-.516.513-.682l-.028.03c.137-.221.32-.399.534-.547l-.025.026a2.47 2.47 0 0 1 .526-.545l-.019.018c.154-.198.334-.37.519-.538l-.01.01c.167-.184.34-.363.533-.52l-.016.016a2.7 2.7 0 0 1 .545-.523l-.024.024c.148-.212.325-.396.548-.533l-.031.028c.163-.252.378-.436.672-.516.14.004.261-.043.363-.14.18-.12.34-.26.482-.423l.004-.004c.185-.165.346-.357.56-.49l-.031.03c.24-.356.745-.242 1.001-.569l.009-.006c.2-.186.4-.37.666-.46a.546.546 0 0 0 .386-.115c.196-.144.378-.309.603-.41a.656.656 0 0 0 .425-.11c.199-.14.38-.307.609-.403.15.015.29-.02.417-.103.205-.158.403-.33.663-.396Z" fill="#f1d36a" fill-rule="evenodd" data-name="Path 4789"/><path d="M205.003 721.844c.84-1.297 2.33-1.699 3.54-2.42 10.31-6.145 16.434-15.17 18.367-26.94.62-3.77.215-7.646-.698-11.42-.316-1.31-.903-2.599-.657-4.01.36-.125.7-.152.966.192l-.033-.033c.211.125.365.323.571.455l.032.018c.226.356.748.226.967.594l-.033-.036c.223.127.388.32.562.502l-.008-.007c.166.167.345.32.537.457l.048.039a1 1 0 0 0 .471.421l.085.068c.162.402.721.244.891.634l-.035-.045c.242.122.425.305.548.547l-.034-.034c.242.124.425.306.546.55l-.045-.036c.392.176.24.73.63.908l.052.07c.107.2.252.365.436.496l.022.026c.139.2.327.358.47.554l-.018-.021c.202.16.389.335.515.565l-.042-.037c.384.226.27.74.583 1.008l-.001-.003c.173.181.373.342.486.575l-.044-.037c.39.24.294.74.56 1.045l-.02-.029c.356.261.268.748.537 1.053l-.017-.026c.348.268.266.749.524 1.062l-.02-.033c.542.38.075 1.132.565 1.532.456.422.04 1.132.508 1.551l-.003-.008c.446.483.126 1.18.47 1.691l.085.892c.572 1.181-.135 2.516.444 3.696 0 .445.003.89.004 1.336-.586 1.174.119 2.503-.442 3.68l-.095.886c-.34.514-.012 1.218-.478 1.698l.009-.016c-.46.423-.033 1.146-.526 1.557l.01-.018c-.463.418-.008 1.166-.558 1.552l.022-.035c-.25.317-.169.8-.53 1.063l.02-.03c-.257.312-.172.799-.535 1.057l.032-.034c-.141.186-.286.368-.434.548a.362.362 0 0 0-.108.339c-.067.297-.257.509-.478.701l.007-.01c-.301.275-.189.792-.588 1.01l.046-.036c-.12.24-.306.416-.523.566l.027-.028c-.132.212-.325.373-.485.562l-.007.008a2.45 2.45 0 0 0-.455.517l-.047.051a1.08 1.08 0 0 0-.437.466l-.057.07c-.39.176-.237.733-.633.905l.048-.049c-.168.396-.728.24-.895.637l-.078.063a.956.956 0 0 0-.457.43l-.06.052c-.195.121-.363.272-.504.453l-.018.015c-.194.148-.354.339-.556.479l.024-.023c-.156.208-.331.395-.565.519l.037-.044c-.216.39-.737.269-.99.595l-.008.004c-.199.189-.4.375-.668.463a.505.505 0 0 0-.385.133 6.463 6.463 0 0 0-.527.409l.027-.024c-.262.343-.75.251-1.041.538l.017-.01c-.275.327-.752.243-1.052.519l.023-.014c-.311.35-.794.292-1.168.494l-.196-.004-.178.084c-.317.288-.78.21-1.117.452l-.22-.004-.208.077c-.458.398-1.135.032-1.586.456l-.999.112c-.512.286-1.144.045-1.646.375l-5.4.007c-.49-.348-1.12-.095-1.626-.376l-1.425-.15c-.365-.187-.8-.17-1.154-.394l-.511-.075c-.292-.296-.727-.227-1.06-.415l.051-.175Z" fill="#e8c260" fill-rule="evenodd" data-name="Path 4794"/><path d="M256.363 699.803a.423.423 0 0 0-.078.366c-.085.278-.271.483-.475.675l.003-.004c-.168.172-.344.337-.498.523l-.01.01c-.19.157-.35.35-.561.483l.034-.03c-.418.528-1.152.106-1.602.536l-7.007-.015c-.353-.223-.808-.18-1.147-.44l-.031-.016c-.23-.35-.753-.222-.97-.595l.035.042a1.114 1.114 0 0 1-.521-.67.422.422 0 0 0-.112-.356c-.166-.207-.34-.41-.4-.68v-2.202c.06-.27.234-.472.4-.68a.422.422 0 0 0 .112-.355 1.11 1.11 0 0 1 .521-.67l-.034.042c.216-.373.74-.244.968-.595l.032-.015c.339-.261.794-.218 1.148-.44l7.006-.017c.45.43 1.184.009 1.601.536l-.033-.029c.21.133.37.326.56.483l.01.01c.155.185.33.35.5.522l-.004-.003c.204.192.39.398.475.675a.422.422 0 0 0 .078.366 3.362 3.362 0 0 1 0 2.543Z" fill="#e8c262" fill-rule="evenodd" data-name="Path 4825"/><path d="M170.496 696.75a.37.37 0 0 0 .101-.339c.071-.307.257-.526.521-.685l-.035.045c.215-.378.739-.251.973-.597l.026-.012c.337-.268.794-.224 1.15-.445l7.005-.017c.449.43 1.182.01 1.6.534l-.032-.028c.208.134.365.327.561.475l.018.016c.153.182.316.353.492.512l.006.007c.188.196.371.396.467.657a.502.502 0 0 0 .089.393 3.577 3.577 0 0 1 0 2.531.501.501 0 0 0-.089.392c-.096.262-.28.462-.467.658l-.006.007c-.176.159-.34.33-.492.512l-.018.016c-.196.148-.353.341-.561.475l.032-.028c-.418.523-1.151.103-1.6.534l-7.006-.017c-.355-.222-.812-.177-1.149-.445l-.026-.012c-.234-.346-.758-.22-.973-.597l.035.045c-.264-.16-.45-.379-.52-.685a.369.369 0 0 0-.102-.338c-.257-.313-.174-.765-.442-1.073v-1.42c.269-.307.185-.76.442-1.072Z" fill="#e8c262" fill-rule="evenodd" data-name="Path 4826"/><path d="M234.944 718.893a.373.373 0 0 0 .339-.094c.339-.26.789-.218 1.149-.422l.792-.013c.471.402 1.196.007 1.63.522l-.03-.027c.204.134.359.327.563.461l.031.027c.131.185.292.338.489.453l.056.056c.11.193.261.348.458.456l.057.058c.11.194.26.348.456.456l.058.058c.109.195.261.347.456.456l.057.058c.108.196.263.346.457.457l.057.057c.11.195.262.347.457.457l.057.057c.109.196.261.348.456.457l.057.058c.11.195.262.347.457.456l.058.058c.112.196.263.356.451.481l.033.038c.124.209.316.361.458.555l-.019-.023c.345.302.275.787.5 1.142l-.011 1.781c-.201.377-.135.87-.513 1.17l.034-.036c-.134.22-.322.392-.517.556l.016-.016c-.163.195-.335.38-.548.522l.03-.03c-.271.362-.767.266-1.084.535l-2.38-.008c-.226-.09-.402-.26-.607-.384a.54.54 0 0 0-.389-.139 1.24 1.24 0 0 1-.646-.522l.031.03a1.818 1.818 0 0 1-.544-.544l.03.03c-.22-.143-.4-.324-.543-.544l.029.03a1.841 1.841 0 0 1-.543-.544l.03.03a1.848 1.848 0 0 1-.544-.544l.03.03a1.85 1.85 0 0 1-.543-.544l.03.03c-.22-.144-.401-.325-.544-.545l.03.03c-.22-.143-.4-.325-.543-.544l.029.03c-.22-.143-.4-.325-.543-.545l.03.03a1.526 1.526 0 0 1-.532-.557l.042.04c-.405-.28-.327-.784-.533-1.157l-.088-.884c-.108-.111-.144-.222-.108-.333.036-.111.072-.167.108-.167l.087-.886c.207-.372.13-.874.532-1.156l-.042.04c.13-.234.313-.413.538-.554l-.035.031c.164-.258.381-.444.684-.517Z" fill="#e8c261" fill-rule="evenodd" data-name="Path 4827"/><path d="m240.012 666.942 2.38-.01c.316.271.811.175 1.084.534l-.03-.028c.211.143.383.327.548.518l-.013-.013c.19.167.38.336.513.556l-.034-.034c.377.299.312.792.512 1.17.005.593.009 1.187.012 1.78-.225.355-.155.84-.5 1.143l.02-.023c-.143.193-.335.346-.46.554l-.032.038c-.187.126-.34.284-.451.481l-.058.058c-.195.109-.347.261-.457.457l-.057.057a1.162 1.162 0 0 0-.456.457l-.057.057c-.195.11-.348.262-.457.457l-.057.058c-.195.109-.347.261-.456.456l-.058.058c-.195.109-.347.261-.456.456l-.058.058a1.166 1.166 0 0 0-.456.456l-.057.058c-.195.11-.348.262-.458.456l-.056.056a1.574 1.574 0 0 0-.489.454l-.031.026c-.204.134-.36.327-.564.461l.032-.027c-.435.515-1.16.12-1.631.522l-.793-.013c-.36-.204-.809-.162-1.148-.423a.373.373 0 0 0-.34-.092c-.302-.073-.519-.26-.683-.518l.035.03a1.505 1.505 0 0 1-.538-.553l.042.04c-.402-.282-.325-.785-.532-1.156l-.087-.886c-.108-.111-.144-.222-.108-.333.036-.111.072-.167.108-.167l.088-.885c.206-.372.128-.875.533-1.155l-.042.039c.126-.234.31-.413.533-.557l-.03.03c.141-.22.323-.401.542-.544l-.03.03c.143-.22.324-.402.544-.545l-.03.03c.143-.22.324-.4.543-.544l-.029.03c.143-.22.324-.401.543-.544l-.03.03c.143-.22.324-.401.543-.544l-.029.03c.143-.22.324-.402.543-.545l-.03.03c.143-.22.325-.4.544-.544l-.03.03c.143-.22.324-.401.544-.543l-.031.03c.158-.247.368-.427.647-.523a.542.542 0 0 0 .389-.138c.204-.125.38-.295.607-.384Z" fill="#e8c261" fill-rule="evenodd" data-name="Path 4828"/><path d="M187.699 718.895a.337.337 0 0 0 .324-.089c.338-.268.791-.223 1.152-.429l.79-.013c.473.4 1.194.012 1.634.518l-.03-.025c.2.138.357.33.56.464l.03.026c.14.188.301.355.48.506l.01.014c.155.194.353.35.473.573l-.035-.044c.493 1.192.48 2.385.007 3.58l.032-.04c-.125.215-.323.37-.468.57l-.017.02a1.855 1.855 0 0 0-.454.501l-.052.054a1.204 1.204 0 0 0-.456.462l-.057.057a1.16 1.16 0 0 0-.456.457l-.058.057a1.157 1.157 0 0 0-.456.457l-.057.057a1.162 1.162 0 0 0-.457.458l-.057.057a1.158 1.158 0 0 0-.456.457l-.057.057a1.157 1.157 0 0 0-.457.457l-.057.057a1.16 1.16 0 0 0-.457.457l-.057.057a1.312 1.312 0 0 0-.472.455l-.045.04a3.913 3.913 0 0 0-.537.458l.009-.008c-.28.315-.765.213-1.05.516l-2.372-.038c-.275-.072-.475-.265-.695-.425l-.038-.02c-.213-.362-.754-.223-.944-.62l.05.05c-.404-.227-.303-.734-.571-1.035l.018.033c-.478-1.021-.444-2.047-.023-3.075l-.01.019c.291-.287.19-.79.567-1.03l-.04.038c.133-.229.316-.409.536-.553l-.03.03c.144-.22.325-.4.544-.544l-.03.03c.144-.22.324-.401.544-.544l-.03.03c.143-.22.324-.401.543-.544l-.03.03c.144-.22.325-.402.544-.545l-.03.03c.144-.22.324-.4.544-.543l-.03.029c.143-.22.324-.4.544-.544l-.03.03c.143-.22.324-.401.543-.544l-.03.03c.144-.22.324-.402.547-.542l-.034.03c.167-.26.386-.449.697-.514Z" fill="#e8c261" fill-rule="evenodd" data-name="Path 4829"/><path d="m189.964 678.698-.801-.009c-.352-.214-.803-.165-1.138-.426a.37.37 0 0 0-.337-.093c-.304-.072-.521-.26-.686-.517l.034.03a1.768 1.768 0 0 1-.546-.54l.03.03c-.22-.144-.401-.325-.544-.545l.03.03a1.853 1.853 0 0 1-.544-.544l.03.03c-.22-.143-.4-.325-.543-.544l.029.03a1.848 1.848 0 0 1-.543-.544l.03.03a1.85 1.85 0 0 1-.544-.545l.03.03c-.22-.143-.4-.325-.544-.544l.03.03c-.22-.143-.4-.325-.543-.544l.03.03a1.666 1.666 0 0 1-.538-.553l.04.037c-.376-.24-.275-.743-.566-1.03l.01.02c-.42-1.028-.455-2.054.023-3.075l-.018.033c.268-.302.167-.808.57-1.035l-.049.05c.188-.397.731-.257.94-.621l.042-.023c.221-.156.42-.35.693-.422l2.374-.037c.285.303.77.2 1.05.515l-.009-.007c.166.168.344.322.537.457l.045.04c.119.192.276.344.472.455l.057.058c.11.194.26.349.457.456l.057.058c.11.194.26.349.457.457l.056.057c.11.195.26.349.457.457l.057.057c.11.195.26.349.456.457l.058.057c.11.195.26.35.456.458l.057.057c.11.194.26.348.457.457l.057.057c.11.196.262.35.456.461l.052.054c.121.195.272.364.453.505l.016.018c.148.198.345.354.468.572l-.033-.042c.485 1.193.478 2.387.003 3.58l.032-.04c-.125.215-.323.371-.466.57l-.02.022c-.182.144-.345.31-.488.494l-.025.021c-.2.141-.357.335-.564.467l.033-.03c-.433.52-1.16.125-1.632.526Z" fill="#e8c261" fill-rule="evenodd" data-name="Path 4830"/><path d="M209.586 658.166a.387.387 0 0 0 .054-.36c.205-.373.124-.88.538-1.155l-.044.04c.122-.24.306-.42.54-.553l-.038.041c.225-.381.739-.266 1-.585l.003-.002c1.008-.416 2.028-.317 3.052-.074a.66.66 0 0 0 .43.108c.243.115.44.293.63.478l.004.004c.161.179.332.348.509.512l.002.003c.167.186.364.346.485.57l-.034-.045c.516 3.25.511 6.5.002 9.75l.033-.043c-.122.221-.32.38-.479.57l-.007.008a5.345 5.345 0 0 0-.498.508l-.014.013c-.195.17-.386.346-.616.47a.717.717 0 0 0-.446.119c-.354.19-.775.178-1.128.375l-.135-.05-.133.055c-.493-.369-1.176-.048-1.66-.454l-.016-.009c-.246-.335-.764-.214-.986-.589l.036.04a1.376 1.376 0 0 1-.538-.555l.044.04c-.411-.276-.33-.782-.537-1.154a.391.391 0 0 0-.053-.363 24.365 24.365 0 0 1 0-7.713Z" fill="#e8c261" fill-rule="evenodd" data-name="Path 4831"/><path d="M209.64 739.256a.388.388 0 0 0-.054-.36c-.41-2.57-.41-5.142 0-7.713a.392.392 0 0 0 .053-.363c.207-.371.126-.877.537-1.153l-.044.04c.124-.239.309-.419.539-.555l-.037.04c.222-.375.74-.254.986-.59l.017-.008c.484-.405 1.166-.086 1.66-.454.088.073.177.075.268.005.352.197.773.185 1.127.375a.717.717 0 0 0 .446.118c.23.125.42.3.616.47l.014.013c.155.18.32.35.498.508l.007.009c.16.19.357.348.48.57l-.034-.044c.51 3.25.514 6.501-.002 9.751l.034-.045c-.121.225-.318.384-.484.57l-.003.003a8.264 8.264 0 0 0-.51.512l-.004.004c-.19.185-.386.363-.63.478a.664.664 0 0 0-.43.108c-1.023.243-2.043.342-3.051-.074l-.003-.002c-.26-.32-.776-.204-1-.585l.038.041a1.315 1.315 0 0 1-.54-.553l.044.04c-.414-.276-.334-.782-.538-1.156Z" fill="#e8c261" fill-rule="evenodd" data-name="Path 4832"/><path d="M216.72 666.899c.239-3.25.241-6.5-.003-9.751.176.274.502.546.506.822.04 2.702.04 5.403 0 8.104-.003.277-.328.55-.504.825Z" fill="#ecf2fe" fill-rule="evenodd" data-name="Path 4871"/><path d="M216.717 739.915c.245-3.25.242-6.5.003-9.75.175.274.5.547.504.824.038 2.7.038 5.403-.001 8.103-.004.277-.33.55-.506.823Z" fill="#ecf2fe" fill-rule="evenodd" data-name="Path 4872"/><path d="M209.586 731.183v7.714c-.725-1.893-.725-5.82 0-7.714Z" fill="#ecf2fe" fill-rule="evenodd" data-name="Path 4873"/><path d="M209.586 658.166v7.713c-.725-1.893-.725-5.82 0-7.713Z" fill="#ecf2fe" fill-rule="evenodd" data-name="Path 4876"/><path d="M238.313 697.87c-.613-1.176-.393-2.453-.444-3.696.9 1.142.332 2.46.444 3.696Z" fill="#ecf2fe" fill-rule="evenodd" data-name="Path 4897"/><path d="M193.094 723.975a15.065 15.065 0 0 0-.006-3.578c.909 1.19.899 2.384.006 3.578Z" fill="#ecf2fe" fill-rule="evenodd" data-name="Path 4900"/><path d="M237.876 702.887c.04-1.24-.173-2.51.441-3.68-.116 1.23.447 2.542-.441 3.68Z" fill="#ecf2fe" fill-rule="evenodd" data-name="Path 4903"/><path d="M193.094 676.669a15.43 15.43 0 0 0-.003-3.58c.902 1.192.897 2.385.003 3.58Z" fill="#ecf2fe" fill-rule="evenodd" data-name="Path 4904"/><path d="m187.984 696.743-.005 3.06c-.717-1.02-.72-2.04.005-3.06Z" fill="#ecf2fe" fill-rule="evenodd" data-name="Path 4908"/><path d="m211.639 741.47 3.052.075c-1.034.658-2.052.685-3.052-.074Z" fill="#ecf2fe" fill-rule="evenodd" data-name="Path 4912"/><path d="m181.87 725.016.022 3.075c-.836-1.019-.811-2.044-.022-3.075Z" fill="#ecf2fe" fill-rule="evenodd" data-name="Path 4913"/><path d="m181.893 668.972-.023 3.074c-.79-1.03-.814-2.055.023-3.074Z" fill="#ecf2fe" fill-rule="evenodd" data-name="Path 4917"/><path d="m214.691 655.518-3.052.074c1-.759 2.018-.731 3.052-.074Z" fill="#ecf2fe" fill-rule="evenodd" data-name="Path 4918"/><path d="M188.04 701.28c.615.799.446 1.745.5 2.649-.872-.75-.42-1.75-.5-2.648Z" fill="#ecf2fe" fill-rule="evenodd" data-name="Path 4938"/><path d="M256.363 699.803v-2.543c.695.848.695 1.695 0 2.543Z" fill="#ecf2fe" fill-rule="evenodd" data-name="Path 4940"/><path d="M183.438 699.797v-2.531c.67.843.67 1.688 0 2.531Z" fill="#ecf2fe" fill-rule="evenodd" data-name="Path 4941"/><path d="M194.146 714.8c.625.283 1.014.752 1.13 1.436-.731-.199-1.05-.723-1.13-1.435Z" fill="#ecf2fe" fill-rule="evenodd" data-name="Path 4954"/><path d="M188.534 703.916c.59.581.497 1.34.537 2.066-.781-.532-.481-1.345-.537-2.066Z" fill="#ecf2fe" fill-rule="evenodd" data-name="Path 4956"/><path d="M188.503 693.141c.007.753.093 1.523-.45 2.162.013-.749-.272-1.56.45-2.162Z" fill="#ecf2fe" fill-rule="evenodd" data-name="Path 4961"/><path d="M218.3 674.059c-.736.024-1.48.091-2.096-.445.722.036 1.51-.24 2.095.445Z" fill="#ecf2fe" fill-rule="evenodd" data-name="Path 4966"/><path d="M209.648 673.615c-.618.536-1.364.467-2.1.444.587-.686 1.376-.41 2.1-.444Z" fill="#ecf2fe" fill-rule="evenodd" data-name="Path 4967"/><path d="M213.297 728.14c-.486.4-1.07.44-1.66.455.432-.595 1.057-.486 1.66-.455Z" fill="#ecf2fe" fill-rule="evenodd" data-name="Path 5016"/><path d="M216.128 723.422c.48-.43 1.053-.449 1.647-.375-.457.53-1.062.41-1.647.375Z" fill="#ecf2fe" fill-rule="evenodd" data-name="Path 5017"/><path d="M209.102 723.053c.587-.075 1.15-.044 1.624.376-.576.028-1.173.144-1.624-.376Z" fill="#ecf2fe" fill-rule="evenodd" data-name="Path 5020"/><path d="M218.773 722.935c.438-.467 1-.502 1.586-.456-.41.566-1.011.465-1.586.456Z" fill="#ecf2fe" fill-rule="evenodd" data-name="Path 5021"/><path d="M238.855 718.886c-.583-.05-1.165-.104-1.63-.522.604-.02 1.242-.14 1.63.522Z" fill="#ecf2fe" fill-rule="evenodd" data-name="Path 5022"/><path d="M191.599 718.882c-.584-.047-1.166-.099-1.633-.518.605-.02 1.242-.14 1.633.518Z" fill="#ecf2fe" fill-rule="evenodd" data-name="Path 5023"/><path d="M236.236 708.545c.022-.577.06-1.148.559-1.552 0 .585.098 1.204-.559 1.552Z" fill="#ecf2fe" fill-rule="evenodd" data-name="Path 5024"/><path d="M236.785 707.011c.005-.576.057-1.137.525-1.557.001.578.092 1.188-.525 1.557Z" fill="#ecf2fe" fill-rule="evenodd" data-name="Path 5026"/><path d="M237.302 705.47c-.02-.617 0-1.221.478-1.698.038.62.172 1.27-.478 1.697Z" fill="#ecf2fe" fill-rule="evenodd" data-name="Path 5027"/><path d="M253.176 702.362c.451-.425 1.024-.487 1.601-.535-.373.659-1.004.546-1.601.535Z" fill="#ecf2fe" fill-rule="evenodd" data-name="Path 5028"/><path d="M180.237 702.363c.451-.424 1.023-.486 1.6-.534-.374.656-1.004.544-1.6.534Z" fill="#ecf2fe" fill-rule="evenodd" data-name="Path 5029"/><path d="M254.777 695.237c-.577-.049-1.15-.11-1.6-.537.596-.01 1.227-.123 1.6.537Z" fill="#ecf2fe" fill-rule="evenodd" data-name="Path 5031"/><path d="M181.837 695.234c-.576-.048-1.149-.11-1.6-.534.596-.01 1.226-.122 1.6.534Z" fill="#ecf2fe" fill-rule="evenodd" data-name="Path 5032"/><path d="M237.784 693.282c-.473-.476-.49-1.078-.47-1.69.633.43.506 1.073.47 1.69Z" fill="#ecf2fe" fill-rule="evenodd" data-name="Path 5039"/><path d="M189.025 691.08c.025.595.01 1.179-.466 1.63-.023-.594-.129-1.212.466-1.63Z" fill="#ecf2fe" fill-rule="evenodd" data-name="Path 5040"/><path d="M237.317 691.6c-.468-.42-.524-.975-.509-1.553.589.38.504.98.51 1.552Z" fill="#ecf2fe" fill-rule="evenodd" data-name="Path 5042"/><path d="M236.808 690.048c-.481-.403-.55-.957-.564-1.532.643.342.55.957.564 1.532Z" fill="#ecf2fe" fill-rule="evenodd" data-name="Path 5045"/><path d="M237.224 678.7c.466-.418 1.047-.474 1.63-.523-.387.662-1.025.542-1.63.522Z" fill="#ecf2fe" fill-rule="evenodd" data-name="Path 5046"/><path d="M189.964 678.698c.464-.424 1.047-.478 1.632-.525-.386.667-1.025.545-1.632.525Z" fill="#ecf2fe" fill-rule="evenodd" data-name="Path 5047"/><path d="M220.36 674.59c-.58.032-1.142.005-1.573-.467.572-.004 1.172-.102 1.573.467Z" fill="#ecf2fe" fill-rule="evenodd" data-name="Path 5048"/><path d="M207.067 674.125c-.431.481-1 .496-1.58.467.403-.572 1.005-.473 1.58-.467Z" fill="#ecf2fe" fill-rule="evenodd" data-name="Path 5050"/><path d="M211.637 668.469c.59.014 1.173.054 1.659.455-.603.03-1.227.139-1.66-.455Z" fill="#ecf2fe" fill-rule="evenodd" data-name="Path 5051"/><path d="M211.636 655.594a1.29 1.29 0 0 1-1 .585c.183-.453.564-.566 1-.585Z" fill="#ecf2fe" fill-rule="evenodd" data-name="Path 5290"/><path d="M210.178 656.651c-.022.458-.17.857-.538 1.154-.038-.485.013-.93.538-1.154Z" fill="#ecf2fe" fill-rule="evenodd" data-name="Path 5291"/><path d="M209.64 666.242c.361.3.512.697.536 1.154-.522-.225-.575-.668-.536-1.154Z" fill="#ecf2fe" fill-rule="evenodd" data-name="Path 5293"/><path d="M187.495 667.432c-.419-.032-.78-.18-1.05-.515.433.002.82.1 1.05.515Z" fill="#ecf2fe" fill-rule="evenodd" data-name="Path 5294"/><path d="M243.476 667.465c-.427-.044-.809-.179-1.084-.533.455-.012.865.065 1.084.533Z" fill="#ecf2fe" fill-rule="evenodd" data-name="Path 5295"/><path d="M183.336 667.399c-.211.361-.512.587-.94.62.152-.451.521-.574.94-.62Z" fill="#ecf2fe" fill-rule="evenodd" data-name="Path 5296"/><path d="M182.445 667.97c-.025.436-.188.796-.57 1.035-.01-.456.075-.859.57-1.035Z" fill="#ecf2fe" fill-rule="evenodd" data-name="Path 5297"/><path d="M210.634 667.871c.419.045.75.237.986.59-.43-.029-.806-.145-.986-.59Z" fill="#ecf2fe" fill-rule="evenodd" data-name="Path 5298"/><path d="M213.565 668.918c.317-.303.697-.414 1.127-.375-.292.376-.697.414-1.127.375Z" fill="#ecf2fe" fill-rule="evenodd" data-name="Path 5299"/><path d="M244.972 669.634c-.363-.305-.475-.72-.512-1.17.503.245.553.687.512 1.17Z" fill="#ecf2fe" fill-rule="evenodd" data-name="Path 5300"/><path d="M244.484 672.557c.036-.438.154-.839.5-1.14.033.467-.027.894-.5 1.14Z" fill="#ecf2fe" fill-rule="evenodd" data-name="Path 5301"/><path d="M181.86 672.028c.364.246.524.605.566 1.029-.456-.195-.563-.584-.566-1.03Z" fill="#ecf2fe" fill-rule="evenodd" data-name="Path 5302"/><path d="M233.8 672.588c-.025.455-.167.855-.532 1.154-.038-.484.014-.927.533-1.154Z" fill="#ecf2fe" fill-rule="evenodd" data-name="Path 5303"/><path d="M205.08 674.665c-.29.377-.695.475-1.143.462.265-.442.686-.497 1.142-.462Z" fill="#ecf2fe" fill-rule="evenodd" data-name="Path 5305"/><path d="M221.908 675.12c-.446.015-.843-.089-1.134-.457.452-.032.87.02 1.134.458Z" fill="#ecf2fe" fill-rule="evenodd" data-name="Path 5306"/><path d="M233.267 676.014c.363.3.501.703.531 1.156-.515-.23-.569-.672-.53-1.156Z" fill="#ecf2fe" fill-rule="evenodd" data-name="Path 5307"/><path d="m226.52 677.246-.965-.191a1.768 1.768 0 0 0-.055-.374c.438.012.822.121 1.02.565Z" fill="#ecf2fe" fill-rule="evenodd" data-name="Path 5308"/><path d="M199.813 677.186c-.226.379-.583.528-1 .57.194-.436.572-.547 1-.57Z" fill="#ecf2fe" fill-rule="evenodd" data-name="Path 5309"/><path d="M228.059 678.28c-.417-.044-.756-.215-.968-.594.42.04.79.16.968.594Z" fill="#ecf2fe" fill-rule="evenodd" data-name="Path 5310"/><path d="M188.025 678.263c.437-.013.827.1 1.137.426-.445.036-.863-.003-1.137-.426Z" fill="#ecf2fe" fill-rule="evenodd" data-name="Path 5311"/><path d="M235.283 678.263c.439-.012.831.1 1.147.423-.448.04-.869.003-1.147-.423Z" fill="#ecf2fe" fill-rule="evenodd" data-name="Path 5312"/><path d="M230.611 680.358c-.418-.04-.72-.245-.89-.634.4.066.752.199.89.634Z" fill="#ecf2fe" fill-rule="evenodd" data-name="Path 5313"/><path d="M232.22 682.248c-.39-.178-.59-.486-.629-.908.44.142.57.501.63.908Z" fill="#ecf2fe" fill-rule="evenodd" data-name="Path 5314"/><path d="M234.239 684.909c-.387-.224-.549-.579-.583-1.008.456.184.567.568.583 1.008Z" fill="#ecf2fe" fill-rule="evenodd" data-name="Path 5315"/><path d="M192.172 684.406c-.037.422-.179.786-.565 1.014.016-.434.125-.817.565-1.014Z" fill="#ecf2fe" fill-rule="evenodd" data-name="Path 5316"/><path d="M235.24 686.489c-.404-.232-.534-.61-.56-1.045.486.188.571.59.56 1.045Z" fill="#ecf2fe" fill-rule="evenodd" data-name="Path 5317"/><path d="M235.757 687.513c-.39-.243-.506-.626-.536-1.053.446.215.546.605.536 1.053Z" fill="#ecf2fe" fill-rule="evenodd" data-name="Path 5318"/><path d="M190.636 686.978c-.011.454-.138.853-.525 1.134-.032-.474.03-.905.525-1.134Z" fill="#ecf2fe" fill-rule="evenodd" data-name="Path 5319"/><path d="M236.264 688.548c-.397-.243-.502-.632-.523-1.062.443.221.54.614.523 1.062Z" fill="#ecf2fe" fill-rule="evenodd" data-name="Path 5320"/><path d="M190.01 688.524c.022.416-.105.766-.453 1.017.004-.404.08-.777.452-1.017Z" fill="#ecf2fe" fill-rule="evenodd" data-name="Path 5321"/><path d="M189.56 689.534c.004.453-.096.862-.473 1.16-.038-.466.014-.896.473-1.16Z" fill="#ecf2fe" fill-rule="evenodd" data-name="Path 5322"/><path d="M173.231 694.717c-.312.332-.707.448-1.149.445.277-.425.696-.48 1.15-.445Z" fill="#ecf2fe" fill-rule="evenodd" data-name="Path 5323"/><path d="M246.17 694.717c-.311.333-.707.444-1.148.44.278-.42.696-.475 1.147-.44Z" fill="#ecf2fe" fill-rule="evenodd" data-name="Path 5324"/><path d="M172.056 695.174c-.231.35-.553.553-.972.597.174-.444.547-.562.972-.597Z" fill="#ecf2fe" fill-rule="evenodd" data-name="Path 5325"/><path d="M244.99 695.172a1.263 1.263 0 0 1-.968.595c.175-.439.546-.558.969-.595Z" fill="#ecf2fe" fill-rule="evenodd" data-name="Path 5326"/><path d="M170.496 696.75c.01.42-.124.784-.441 1.071-.015-.423.053-.814.44-1.072Z" fill="#ecf2fe" fill-rule="evenodd" data-name="Path 5327"/><path d="M170.055 699.241c.317.288.45.651.44 1.073-.387-.258-.455-.65-.44-1.073Z" fill="#ecf2fe" fill-rule="evenodd" data-name="Path 5328"/><path d="M171.084 701.292c.419.044.741.246.972.597-.424-.035-.798-.153-.972-.597Z" fill="#ecf2fe" fill-rule="evenodd" data-name="Path 5329"/><path d="M244.021 701.296c.417.047.742.242.97.596-.422-.037-.794-.157-.97-.596Z" fill="#ecf2fe" fill-rule="evenodd" data-name="Path 5330"/><path d="M172.082 701.901c.441-.003.836.113 1.148.445-.453.035-.872-.02-1.148-.445Z" fill="#ecf2fe" fill-rule="evenodd" data-name="Path 5331"/><path d="M245.022 701.906c.44-.004.836.107 1.146.44-.45.035-.868-.02-1.146-.44Z" fill="#ecf2fe" fill-rule="evenodd" data-name="Path 5332"/><path d="M189.058 705.958c.362.255.47.62.443 1.04-.38-.248-.454-.626-.443-1.04Z" fill="#ecf2fe" fill-rule="evenodd" data-name="Path 5333"/><path d="M189.589 707.43c.365.287.481.683.493 1.125-.456-.247-.52-.666-.493-1.124Z" fill="#ecf2fe" fill-rule="evenodd" data-name="Path 5334"/><path d="M190.075 708.543c.375.247.5.617.513 1.042-.412-.229-.51-.611-.513-1.042Z" fill="#ecf2fe" fill-rule="evenodd" data-name="Path 5335"/><path d="M235.729 709.573c.022-.431.122-.824.53-1.063.021.453-.077.846-.53 1.063Z" fill="#ecf2fe" fill-rule="evenodd" data-name="Path 5336"/><path d="M190.584 709.579c.372.243.502.61.531 1.031-.42-.218-.522-.6-.53-1.031Z" fill="#ecf2fe" fill-rule="evenodd" data-name="Path 5337"/><path d="M235.214 710.6c.029-.428.13-.82.536-1.057.016.451-.083.844-.536 1.057Z" fill="#ecf2fe" fill-rule="evenodd" data-name="Path 5338"/><path d="M191.105 710.594c.394.231.533.6.56 1.031-.45-.2-.556-.587-.56-1.03Z" fill="#ecf2fe" fill-rule="evenodd" data-name="Path 5339"/><path d="M192.11 712.177c.378.221.555.561.587.988-.443-.182-.558-.559-.586-.988Z" fill="#ecf2fe" fill-rule="evenodd" data-name="Path 5340"/><path d="M233.645 713.155c.026-.436.203-.784.588-1.011-.01.445-.12.832-.588 1.01Z" fill="#ecf2fe" fill-rule="evenodd" data-name="Path 5341"/><path d="M231.074 716.235c.037-.424.236-.735.633-.905-.06.407-.19.766-.633.905Z" fill="#ecf2fe" fill-rule="evenodd" data-name="Path 5342"/><path d="M195.232 716.199c.421.034.737.223.91.62-.403-.059-.76-.186-.91-.62Z" fill="#ecf2fe" fill-rule="evenodd" data-name="Path 5343"/><path d="M230.227 716.823c.169-.395.473-.599.895-.636-.136.44-.492.572-.895.636Z" fill="#ecf2fe" fill-rule="evenodd" data-name="Path 5344"/><path d="M189.175 718.377c-.317.325-.712.437-1.151.43.277-.431.7-.47 1.15-.43Z" fill="#ecf2fe" fill-rule="evenodd" data-name="Path 5345"/><path d="M236.431 718.377c-.316.324-.71.435-1.148.423.278-.426.7-.463 1.148-.423Z" fill="#ecf2fe" fill-rule="evenodd" data-name="Path 5346"/><path d="M227.06 719.362c.22-.382.561-.56.99-.594-.176.455-.557.57-.99.594Z" fill="#ecf2fe" fill-rule="evenodd" data-name="Path 5347"/><path d="M233.799 719.893c-.03.453-.168.855-.532 1.155-.038-.484.016-.926.532-1.155Z" fill="#ecf2fe" fill-rule="evenodd" data-name="Path 5348"/><path d="M224.458 720.885c.243-.38.62-.504 1.04-.538-.214.437-.6.539-1.04.538Z" fill="#ecf2fe" fill-rule="evenodd" data-name="Path 5349"/><path d="M223.423 721.394c.248-.384.625-.501 1.053-.52-.226.429-.614.526-1.053.52Z" fill="#ecf2fe" fill-rule="evenodd" data-name="Path 5350"/><path d="M203.437 721.461c.424-.028.781.095 1.032.46-.411-.003-.79-.08-1.032-.46Z" fill="#ecf2fe" fill-rule="evenodd" data-name="Path 5351"/><path d="M222.278 721.874c.3-.378.717-.476 1.168-.494-.254.484-.692.534-1.168.494Z" fill="#ecf2fe" fill-rule="evenodd" data-name="Path 5352"/><path d="M204.952 722.018c.425-.046.782.084 1.06.416-.41.004-.785-.076-1.06-.416Z" fill="#ecf2fe" fill-rule="evenodd" data-name="Path 5353"/><path d="M220.787 722.406c.29-.357.676-.473 1.117-.452-.267.41-.673.479-1.117.452Z" fill="#ecf2fe" fill-rule="evenodd" data-name="Path 5354"/><path d="M206.523 722.51c.446-.05.837.06 1.153.394-.443.043-.863.017-1.153-.395Z" fill="#ecf2fe" fill-rule="evenodd" data-name="Path 5355"/><path d="M233.268 723.32c.364.298.507.7.533 1.155-.519-.228-.571-.67-.533-1.156Z" fill="#ecf2fe" fill-rule="evenodd" data-name="Path 5356"/><path d="M182.427 724.006c-.043.424-.203.782-.567 1.029.003-.446.11-.834.567-1.03Z" fill="#ecf2fe" fill-rule="evenodd" data-name="Path 5357"/><path d="M244.984 725.648c-.355-.298-.464-.704-.5-1.142.473.246.532.674.5 1.142Z" fill="#ecf2fe" fill-rule="evenodd" data-name="Path 5358"/><path d="M244.46 728.598c.037-.448.148-.863.512-1.168.041.482-.01.924-.513 1.168Z" fill="#ecf2fe" fill-rule="evenodd" data-name="Path 5359"/><path d="M181.875 728.058c.382.239.544.599.57 1.035-.495-.176-.58-.58-.57-1.035Z" fill="#ecf2fe" fill-rule="evenodd" data-name="Path 5360"/><path d="M214.692 728.52c-.43.038-.81-.072-1.126-.375.43-.039.834-.002 1.126.375Z" fill="#ecf2fe" fill-rule="evenodd" data-name="Path 5361"/><path d="M211.62 728.603a1.294 1.294 0 0 1-.986.588c.18-.444.557-.56.986-.588Z" fill="#ecf2fe" fill-rule="evenodd" data-name="Path 5362"/><path d="M182.397 729.042c.429.033.73.26.944.62-.421-.044-.792-.166-.944-.62Z" fill="#ecf2fe" fill-rule="evenodd" data-name="Path 5363"/><path d="M186.445 730.146c.27-.335.631-.483 1.05-.515-.23.416-.617.513-1.05.515Z" fill="#ecf2fe" fill-rule="evenodd" data-name="Path 5364"/><path d="M210.176 729.667c-.023.457-.174.853-.537 1.152-.038-.484.015-.928.537-1.152Z" fill="#ecf2fe" fill-rule="evenodd" data-name="Path 5365"/><path d="M242.39 730.13c.275-.355.658-.489 1.085-.534-.217.47-.63.547-1.084.534Z" fill="#ecf2fe" fill-rule="evenodd" data-name="Path 5366"/><path d="M209.64 739.256c.367.298.516.697.537 1.156-.524-.224-.575-.669-.536-1.156Z" fill="#ecf2fe" fill-rule="evenodd" data-name="Path 5367"/><path d="M210.636 740.884c.423.04.76.228 1 .585-.436-.019-.817-.132-1-.585Z" fill="#ecf2fe" fill-rule="evenodd" data-name="Path 5368"/><path d="m215.75 656.104-.629-.478.63.478Z" fill="#ecf2fe" fill-rule="evenodd" data-name="Path 5425"/><path d="M210.674 656.138c-.07.292-.24.486-.54.553a.775.775 0 0 1 .54-.553Z" fill="#ecf2fe" fill-rule="evenodd" data-name="Path 5426"/><path d="m216.264 656.62-.51-.512.51.512Z" fill="#ecf2fe" fill-rule="evenodd" data-name="Path 5427"/><path d="M216.75 657.193c-.276-.092-.417-.3-.484-.57l.485.57Z" fill="#ecf2fe" fill-rule="evenodd" data-name="Path 5428"/><path d="m184.071 666.955-.693.422.693-.422Z" fill="#ecf2fe" fill-rule="evenodd" data-name="Path 5429"/><path d="M216.273 667.425c.063-.272.205-.476.48-.57l-.48.57Z" fill="#ecf2fe" fill-rule="evenodd" data-name="Path 5431"/><path d="m240.012 666.942-.608.384.608-.384Z" fill="#ecf2fe" fill-rule="evenodd" data-name="Path 5432"/><path d="m188.023 667.882-.537-.456.537.456Z" fill="#ecf2fe" fill-rule="evenodd" data-name="Path 5434"/><path d="M210.133 667.356c.298.07.464.267.537.555l-.537-.555Z" fill="#ecf2fe" fill-rule="evenodd" data-name="Path 5435"/><path d="m215.768 667.941.497-.508a493 493 0 0 1-.497.508Z" fill="#ecf2fe" fill-rule="evenodd" data-name="Path 5436"/><path d="m239.016 667.464-.647.522a.815.815 0 0 1 .647-.522Z" fill="#ecf2fe" fill-rule="evenodd" data-name="Path 5437"/><path d="m243.994 667.956-.548-.518.548.518Z" fill="#ecf2fe" fill-rule="evenodd" data-name="Path 5438"/><path d="M188.54 668.378Z" fill="#ecf2fe" fill-rule="evenodd" data-name="Path 5440"/><path d="m215.138 668.425.616-.471-.616.47Z" fill="#ecf2fe" fill-rule="evenodd" data-name="Path 5441"/><path d="M238.4 667.957a.742.742 0 0 1-.544.542l.544-.542Z" fill="#ecf2fe" fill-rule="evenodd" data-name="Path 5442"/><path d="m244.494 668.5-.513-.557.513.556Z" fill="#ecf2fe" fill-rule="evenodd" data-name="Path 5443"/><path d="M189.054 668.892a.55.55 0 0 1-.457-.457l.457.457Z" fill="#ecf2fe" fill-rule="evenodd" data-name="Path 5444"/><path d="M237.886 668.47a.738.738 0 0 1-.543.544l.543-.544Z" fill="#ecf2fe" fill-rule="evenodd" data-name="Path 5446"/><path d="M189.567 669.406a.548.548 0 0 1-.456-.457l.456.457Z" fill="#ecf2fe" fill-rule="evenodd" data-name="Path 5447"/><path d="M237.372 668.984a.738.738 0 0 1-.543.544l.543-.544Z" fill="#ecf2fe" fill-rule="evenodd" data-name="Path 5448"/><path d="M190.081 669.92a.55.55 0 0 1-.457-.457l.457.457Z" fill="#ecf2fe" fill-rule="evenodd" data-name="Path 5449"/><path d="M236.858 669.499a.737.737 0 0 1-.543.543l.543-.543Z" fill="#ecf2fe" fill-rule="evenodd" data-name="Path 5450"/><path d="M190.595 670.434a.549.549 0 0 1-.457-.457l.457.457Z" fill="#ecf2fe" fill-rule="evenodd" data-name="Path 5451"/><path d="M236.345 670.013a.738.738 0 0 1-.543.543l.543-.543Z" fill="#ecf2fe" fill-rule="evenodd" data-name="Path 5452"/><path d="M191.108 670.949a.55.55 0 0 1-.457-.458l.457.458Z" fill="#ecf2fe" fill-rule="evenodd" data-name="Path 5453"/><path d="M235.83 670.527a.737.737 0 0 1-.542.543l.543-.543Z" fill="#ecf2fe" fill-rule="evenodd" data-name="Path 5454"/><path d="M191.622 671.463a.549.549 0 0 1-.457-.457l.457.457Z" fill="#ecf2fe" fill-rule="evenodd" data-name="Path 5455"/><path d="M235.318 671.041a.737.737 0 0 1-.543.544l.543-.544Z" fill="#ecf2fe" fill-rule="evenodd" data-name="Path 5456"/><path d="M192.135 671.981a.557.557 0 0 1-.456-.46l.456.46Z" fill="#ecf2fe" fill-rule="evenodd" data-name="Path 5457"/><path d="M234.804 671.555a.735.735 0 0 1-.543.545l.543-.545Z" fill="#ecf2fe" fill-rule="evenodd" data-name="Path 5458"/><path d="M192.64 672.54a995.45 995.45 0 0 1-.453-.505l.454.505Z" fill="#ecf2fe" fill-rule="evenodd" data-name="Path 5460"/><path d="M234.291 672.07c-.076.283-.239.483-.533.557l.533-.557Z" fill="#ecf2fe" fill-rule="evenodd" data-name="Path 5461"/><path d="M193.124 673.13c-.27-.096-.411-.3-.468-.571l.468.571Z" fill="#ecf2fe" fill-rule="evenodd" data-name="Path 5462"/><path d="m244.045 673.088.458-.553-.458.553Z" fill="#ecf2fe" fill-rule="evenodd" data-name="Path 5463"/><path d="M182.387 673.02c.289.077.459.27.536.553l-.536-.553Z" fill="#ecf2fe" fill-rule="evenodd" data-name="Path 5464"/><path d="m243.56 673.608.452-.482-.452.482Z" fill="#ecf2fe" fill-rule="evenodd" data-name="Path 5465"/><path d="M182.894 673.543c.283.08.464.26.543.544l-.543-.544Z" fill="#ecf2fe" fill-rule="evenodd" data-name="Path 5466"/><path d="M243.046 674.123a.548.548 0 0 1 .457-.457l-.457.457Z" fill="#ecf2fe" fill-rule="evenodd" data-name="Path 5468"/><path d="M183.408 674.057c.283.08.464.26.543.544l-.543-.544Z" fill="#ecf2fe" fill-rule="evenodd" data-name="Path 5469"/><path d="M242.533 674.637a.548.548 0 0 1 .456-.457l-.456.457Z" fill="#ecf2fe" fill-rule="evenodd" data-name="Path 5470"/><path d="M183.922 674.571c.282.08.463.261.542.544l-.542-.544Z" fill="#ecf2fe" fill-rule="evenodd" data-name="Path 5471"/><path d="M233.18 674.628a.783.783 0 0 1 0 .5c-.06-.118-.134-.233-.17-.358-.01-.028.11-.094.17-.142Z" fill="#ecf2fe" fill-rule="evenodd" data-name="Path 5473"/><path d="M242.02 675.151a.548.548 0 0 1 .455-.457l-.456.457Z" fill="#ecf2fe" fill-rule="evenodd" data-name="Path 5474"/><path d="M184.435 675.086c.283.08.464.26.543.543l-.543-.543Z" fill="#ecf2fe" fill-rule="evenodd" data-name="Path 5475"/><path d="m203.591 675.183-.664.397.664-.397Z" fill="#ecf2fe" fill-rule="evenodd" data-name="Path 5476"/><path d="m222.92 675.58-.658-.398.658.397Z" fill="#ecf2fe" fill-rule="evenodd" data-name="Path 5477"/><path d="M241.506 675.665a.547.547 0 0 1 .455-.457l-.455.457Z" fill="#ecf2fe" fill-rule="evenodd" data-name="Path 5478"/><path d="M184.949 675.6c.283.08.463.26.542.544l-.542-.544Z" fill="#ecf2fe" fill-rule="evenodd" data-name="Path 5479"/><path d="m202.51 675.682-.609.404.61-.404Z" fill="#ecf2fe" fill-rule="evenodd" data-name="Path 5480"/><path d="m223.944 676.08-.606-.398.606.398Z" fill="#ecf2fe" fill-rule="evenodd" data-name="Path 5481"/><path d="M240.992 676.18a.547.547 0 0 1 .456-.458l-.456.457Z" fill="#ecf2fe" fill-rule="evenodd" data-name="Path 5482"/><path d="M185.462 676.114c.283.08.464.26.543.544l-.543-.544Z" fill="#ecf2fe" fill-rule="evenodd" data-name="Path 5483"/><path d="m201.477 676.194-.604.411.604-.41Z" fill="#ecf2fe" fill-rule="evenodd" data-name="Path 5484"/><path d="M224.966 676.565c-.277.005-.45-.15-.577-.376l.577.376Z" fill="#ecf2fe" fill-rule="evenodd" data-name="Path 5485"/><path d="M240.478 676.693a.55.55 0 0 1 .456-.457l-.456.457Z" fill="#ecf2fe" fill-rule="evenodd" data-name="Path 5486"/><path d="M185.976 676.628c.283.08.464.261.543.544l-.543-.544Z" fill="#ecf2fe" fill-rule="evenodd" data-name="Path 5487"/><path d="m192.66 677.198.466-.57-.466.57Z" fill="#ecf2fe" fill-rule="evenodd" data-name="Path 5488"/><path d="m200.488 676.72-.666.46.666-.46Z" fill="#ecf2fe" fill-rule="evenodd" data-name="Path 5489"/><path d="M239.962 677.207a.551.551 0 0 1 .459-.456l-.459.456Z" fill="#ecf2fe" fill-rule="evenodd" data-name="Path 5490"/><path d="M186.49 677.143a.736.736 0 0 1 .546.54l-.546-.54Z" fill="#ecf2fe" fill-rule="evenodd" data-name="Path 5491"/><path d="m192.152 677.714.49-.494-.49.494Z" fill="#ecf2fe" fill-rule="evenodd" data-name="Path 5492"/><path d="M227.059 677.668c-.28-.04-.473-.187-.571-.455l.57.455Z" fill="#ecf2fe" fill-rule="evenodd" data-name="Path 5495"/><path d="M233.757 677.13c.292.074.462.268.538.553l-.538-.553Z" fill="#ecf2fe" fill-rule="evenodd" data-name="Path 5496"/><path d="m239.418 677.717.489-.454-.489.454Z" fill="#ecf2fe" fill-rule="evenodd" data-name="Path 5497"/><path d="m187.002 677.653.685.517a.822.822 0 0 1-.685-.517Z" fill="#ecf2fe" fill-rule="evenodd" data-name="Path 5498"/><path d="m191.563 678.203.565-.468-.565.468Z" fill="#ecf2fe" fill-rule="evenodd" data-name="Path 5499"/><path d="m198.843 677.725-.56.49.56-.49Z" fill="#ecf2fe" fill-rule="evenodd" data-name="Path 5500"/><path d="m234.26 677.653.683.517a.82.82 0 0 1-.683-.517Z" fill="#ecf2fe" fill-rule="evenodd" data-name="Path 5502"/><path d="M238.823 678.204a.688.688 0 0 1 .564-.461l-.564.461Z" fill="#ecf2fe" fill-rule="evenodd" data-name="Path 5503"/><path d="m198.279 678.219-.483.423.483-.423Z" fill="#ecf2fe" fill-rule="evenodd" data-name="Path 5505"/><path d="M228.587 678.746c-.278-.066-.475-.222-.562-.502l.562.502Z" fill="#ecf2fe" fill-rule="evenodd" data-name="Path 5506"/><path d="m197.434 678.782-.672.516a.813.813 0 0 1 .672-.516Z" fill="#ecf2fe" fill-rule="evenodd" data-name="Path 5508"/><path d="M229.116 679.196c-.273-.041-.443-.204-.537-.457l.537.457Z" fill="#ecf2fe" fill-rule="evenodd" data-name="Path 5509"/><path d="M196.793 679.27c-.082.282-.271.452-.548.532l.548-.532Z" fill="#ecf2fe" fill-rule="evenodd" data-name="Path 5510"/><path d="m229.636 679.656-.472-.421.472.421Z" fill="#ecf2fe" fill-rule="evenodd" data-name="Path 5511"/><path d="m196.27 679.779-.546.522.545-.522Z" fill="#ecf2fe" fill-rule="evenodd" data-name="Path 5512"/><path d="m195.74 680.286-.533.52.533-.52Z" fill="#ecf2fe" fill-rule="evenodd" data-name="Path 5513"/><path d="M231.124 680.86c-.301-.063-.486-.244-.548-.547a.76.76 0 0 1 .548.547Z" fill="#ecf2fe" fill-rule="evenodd" data-name="Path 5514"/><path d="M195.217 680.796Z" fill="#ecf2fe" fill-rule="evenodd" data-name="Path 5515"/><path d="M231.636 681.376c-.303-.062-.483-.248-.546-.55a.757.757 0 0 1 .546.55Z" fill="#ecf2fe" fill-rule="evenodd" data-name="Path 5516"/><path d="m194.717 681.316-.526.544.526-.544Z" fill="#ecf2fe" fill-rule="evenodd" data-name="Path 5517"/><path d="M194.216 681.835a.752.752 0 0 1-.534.548l.534-.548Z" fill="#ecf2fe" fill-rule="evenodd" data-name="Path 5518"/><path d="m193.71 682.352-.513.681a.816.816 0 0 1 .513-.68Z" fill="#ecf2fe" fill-rule="evenodd" data-name="Path 5519"/><path d="M232.709 682.814Z" fill="#ecf2fe" fill-rule="evenodd" data-name="Path 5520"/><path d="M233.202 683.394a.675.675 0 0 1-.471-.554l.471.554Z" fill="#ecf2fe" fill-rule="evenodd" data-name="Path 5521"/><path d="m193.063 683.387-.429.49.429-.49Z" fill="#ecf2fe" fill-rule="evenodd" data-name="Path 5522"/><path d="M233.698 683.938c-.291-.08-.447-.282-.515-.565l.515.565Z" fill="#ecf2fe" fill-rule="evenodd" data-name="Path 5523"/><path d="M192.634 683.877c-.064.275-.222.468-.493.56l.493-.56Z" fill="#ecf2fe" fill-rule="evenodd" data-name="Path 5524"/><path d="M234.724 685.48c-.29-.083-.432-.29-.486-.574l.486.575Z" fill="#ecf2fe" fill-rule="evenodd" data-name="Path 5527"/><path d="m191.608 685.42-.472.667a.858.858 0 0 1 .472-.668Z" fill="#ecf2fe" fill-rule="evenodd" data-name="Path 5528"/><path d="M191.028 686.465c-.026.272-.158.462-.425.546l.425-.546Z" fill="#ecf2fe" fill-rule="evenodd" data-name="Path 5529"/><path d="m182.366 695.681-.56-.475.56.475Z" fill="#ecf2fe" fill-rule="evenodd" data-name="Path 5532"/><path d="m255.305 695.69-.561-.483.56.483Z" fill="#ecf2fe" fill-rule="evenodd" data-name="Path 5533"/><path d="m171.119 695.727-.522.683a.814.814 0 0 1 .522-.683Z" fill="#ecf2fe" fill-rule="evenodd" data-name="Path 5534"/><path d="M182.876 696.209Z" fill="#ecf2fe" fill-rule="evenodd" data-name="Path 5535"/><path d="m244.056 695.725-.522.67a.811.811 0 0 1 .522-.67Z" fill="#ecf2fe" fill-rule="evenodd" data-name="Path 5536"/><path d="m255.813 696.222-.499-.522.499.522Z" fill="#ecf2fe" fill-rule="evenodd" data-name="Path 5537"/><path d="m183.35 696.874-.468-.658.467.658Z" fill="#ecf2fe" fill-rule="evenodd" data-name="Path 5538"/><path d="m256.285 696.894-.475-.675a.86.86 0 0 1 .475.675Z" fill="#ecf2fe" fill-rule="evenodd" data-name="Path 5539"/><path d="m243.423 696.751-.4.678.4-.678Z" fill="#ecf2fe" fill-rule="evenodd" data-name="Path 5540"/><path d="m243.023 699.633.4.68-.4-.68Z" fill="#ecf2fe" fill-rule="evenodd" data-name="Path 5541"/><path d="M182.882 700.847c.156-.219.312-.437.467-.657-.155.219-.31.438-.467.657Z" fill="#ecf2fe" fill-rule="evenodd" data-name="Path 5542"/><path d="m255.81 700.844.475-.673a.858.858 0 0 1-.475.673Z" fill="#ecf2fe" fill-rule="evenodd" data-name="Path 5543"/><path d="m170.597 700.652.52.684a.814.814 0 0 1-.52-.684Z" fill="#ecf2fe" fill-rule="evenodd" data-name="Path 5544"/><path d="m182.384 701.366.492-.512-.492.512Z" fill="#ecf2fe" fill-rule="evenodd" data-name="Path 5545"/><path d="m243.534 700.668.522.67a.812.812 0 0 1-.522-.67Z" fill="#ecf2fe" fill-rule="evenodd" data-name="Path 5546"/><path d="m255.314 701.363.5-.522-.5.522Z" fill="#ecf2fe" fill-rule="evenodd" data-name="Path 5547"/><path d="m181.805 701.857.561-.475-.561.475Z" fill="#ecf2fe" fill-rule="evenodd" data-name="Path 5548"/><path d="m254.743 701.856.562-.484-.562.484Z" fill="#ecf2fe" fill-rule="evenodd" data-name="Path 5549"/><path d="M234.812 711.114c.025-.278.167-.462.434-.548l-.434.548Z" fill="#ecf2fe" fill-rule="evenodd" data-name="Path 5552"/><path d="M191.63 711.593c.275.092.421.292.472.57l-.471-.57Z" fill="#ecf2fe" fill-rule="evenodd" data-name="Path 5553"/><path d="m234.227 712.154.477-.7a.858.858 0 0 1-.477.7Z" fill="#ecf2fe" fill-rule="evenodd" data-name="Path 5554"/><path d="M192.66 713.133c.285.08.443.28.516.558l-.516-.558Z" fill="#ecf2fe" fill-rule="evenodd" data-name="Path 5555"/><path d="M233.168 713.684c.068-.287.22-.495.523-.566l-.523.566Z" fill="#ecf2fe" fill-rule="evenodd" data-name="Path 5556"/><path d="m193.158 713.672.474.55-.474-.55Z" fill="#ecf2fe" fill-rule="evenodd" data-name="Path 5557"/><path d="M232.71 714.218a.72.72 0 0 1 .485-.562l-.485.562Z" fill="#ecf2fe" fill-rule="evenodd" data-name="Path 5558"/><path d="M193.653 714.247c.15.166.299.33.447.496l-.447-.496Z" fill="#ecf2fe" fill-rule="evenodd" data-name="Path 5559"/><path d="M232.248 714.743Z" fill="#ecf2fe" fill-rule="evenodd" data-name="Path 5560"/><path d="M231.765 715.26c.042-.252.191-.404.436-.466l-.436.466Z" fill="#ecf2fe" fill-rule="evenodd" data-name="Path 5562"/><path d="m196.214 716.876.474.437-.474-.437Z" fill="#ecf2fe" fill-rule="evenodd" data-name="Path 5564"/><path d="M229.692 717.316c.06-.242.208-.39.457-.43l-.457.43Z" fill="#ecf2fe" fill-rule="evenodd" data-name="Path 5565"/><path d="m196.732 717.353.524.461-.524-.461Z" fill="#ecf2fe" fill-rule="evenodd" data-name="Path 5566"/><path d="M229.128 717.82Z" fill="#ecf2fe" fill-rule="evenodd" data-name="Path 5567"/><path d="M197.257 717.815Z" fill="#ecf2fe" fill-rule="evenodd" data-name="Path 5568"/><path d="m228.554 718.315.556-.48-.556.48Z" fill="#ecf2fe" fill-rule="evenodd" data-name="Path 5569"/><path d="m197.786 718.285.674.51a.819.819 0 0 1-.674-.51Z" fill="#ecf2fe" fill-rule="evenodd" data-name="Path 5573"/><path d="M228.013 718.81c.076-.295.281-.449.565-.517l-.565.518Z" fill="#ecf2fe" fill-rule="evenodd" data-name="Path 5574"/><path d="m187.699 718.895-.697.514c.134-.305.37-.472.697-.514Z" fill="#ecf2fe" fill-rule="evenodd" data-name="Path 5577"/><path d="m192.129 719.321-.56-.464.56.464Z" fill="#ecf2fe" fill-rule="evenodd" data-name="Path 5578"/><path d="m198.823 718.93.506.42-.506-.42Z" fill="#ecf2fe" fill-rule="evenodd" data-name="Path 5579"/><path d="m234.944 718.893-.683.517a.82.82 0 0 1 .683-.517Z" fill="#ecf2fe" fill-rule="evenodd" data-name="Path 5580"/><path d="M239.386 719.32a.69.69 0 0 1-.563-.461l.563.46Z" fill="#ecf2fe" fill-rule="evenodd" data-name="Path 5581"/><path d="M187.036 719.379a.736.736 0 0 1-.546.541l.546-.541Z" fill="#ecf2fe" fill-rule="evenodd" data-name="Path 5582"/><path d="m192.639 719.853-.48-.506.48.506Z" fill="#ecf2fe" fill-rule="evenodd" data-name="Path 5583"/><path d="m199.317 719.34.694.48a.849.849 0 0 1-.694-.48Z" fill="#ecf2fe" fill-rule="evenodd" data-name="Path 5584"/><path d="M226.384 719.829c.222-.155.445-.31.668-.463l-.668.463Z" fill="#ecf2fe" fill-rule="evenodd" data-name="Path 5585"/><path d="M234.295 719.38c-.076.284-.245.479-.538.553l.538-.554Z" fill="#ecf2fe" fill-rule="evenodd" data-name="Path 5586"/><path d="m239.907 719.8-.489-.453.489.453Z" fill="#ecf2fe" fill-rule="evenodd" data-name="Path 5587"/><path d="M186.52 719.891a.737.737 0 0 1-.544.543l.543-.543Z" fill="#ecf2fe" fill-rule="evenodd" data-name="Path 5588"/><path d="M193.122 720.44c-.276-.094-.415-.3-.472-.573l.472.572Z" fill="#ecf2fe" fill-rule="evenodd" data-name="Path 5589"/><path d="m200.353 719.916.612.438-.612-.438Z" fill="#ecf2fe" fill-rule="evenodd" data-name="Path 5590"/><path d="M225.472 720.37c.094-.242.257-.395.527-.408l-.527.408Z" fill="#ecf2fe" fill-rule="evenodd" data-name="Path 5591"/><path d="M240.42 720.312a.551.551 0 0 1-.458-.456l.459.456Z" fill="#ecf2fe" fill-rule="evenodd" data-name="Path 5592"/><path d="M186.006 720.405a.738.738 0 0 1-.543.544l.543-.544Z" fill="#ecf2fe" fill-rule="evenodd" data-name="Path 5593"/><path d="m201.389 720.466.603.402-.603-.402Z" fill="#ecf2fe" fill-rule="evenodd" data-name="Path 5595"/><path d="M240.934 720.826a.548.548 0 0 1-.457-.456l.457.456Z" fill="#ecf2fe" fill-rule="evenodd" data-name="Path 5596"/><path d="M185.492 720.92a.738.738 0 0 1-.543.543l.543-.544Z" fill="#ecf2fe" fill-rule="evenodd" data-name="Path 5597"/><path d="m202.415 720.976.617.403c-.205-.135-.41-.27-.617-.403Z" fill="#ecf2fe" fill-rule="evenodd" data-name="Path 5598"/><path d="M241.448 721.34a.548.548 0 0 1-.457-.456l.457.456Z" fill="#ecf2fe" fill-rule="evenodd" data-name="Path 5599"/><path d="M184.978 721.433a.739.739 0 0 1-.543.544l.543-.544Z" fill="#ecf2fe" fill-rule="evenodd" data-name="Path 5600"/><path d="M241.962 721.855a.55.55 0 0 1-.457-.457l.457.457Z" fill="#ecf2fe" fill-rule="evenodd" data-name="Path 5602"/><path d="M184.465 721.948a.738.738 0 0 1-.543.543l.543-.543Z" fill="#ecf2fe" fill-rule="evenodd" data-name="Path 5603"/><path d="M233.18 721.935a.784.784 0 0 1 0 .5c-.06-.118-.134-.233-.17-.358-.01-.028.11-.094.17-.142Z" fill="#ecf2fe" fill-rule="evenodd" data-name="Path 5604"/><path d="M242.476 722.369a.548.548 0 0 1-.457-.457l.457.457Z" fill="#ecf2fe" fill-rule="evenodd" data-name="Path 5605"/><path d="M183.95 722.462a.738.738 0 0 1-.542.543l.543-.543Z" fill="#ecf2fe" fill-rule="evenodd" data-name="Path 5606"/><path d="M242.989 722.883a.547.547 0 0 1-.456-.457l.456.457Z" fill="#ecf2fe" fill-rule="evenodd" data-name="Path 5609"/><path d="M183.437 722.976a.736.736 0 0 1-.543.543l.543-.543Z" fill="#ecf2fe" fill-rule="evenodd" data-name="Path 5610"/><path d="M243.502 723.397a.548.548 0 0 1-.456-.456l.456.456Z" fill="#ecf2fe" fill-rule="evenodd" data-name="Path 5613"/><path d="M182.924 723.49c-.078.283-.248.475-.537.552l.537-.552Z" fill="#ecf2fe" fill-rule="evenodd" data-name="Path 5614"/><path d="m244.012 723.936-.452-.48.452.48Z" fill="#ecf2fe" fill-rule="evenodd" data-name="Path 5616"/><path d="m192.658 724.505.468-.57-.468.57Z" fill="#ecf2fe" fill-rule="evenodd" data-name="Path 5617"/><path d="m244.503 724.529-.458-.555.458.555Z" fill="#ecf2fe" fill-rule="evenodd" data-name="Path 5618"/><path d="m192.187 725.028.454-.502-.454.502Z" fill="#ecf2fe" fill-rule="evenodd" data-name="Path 5619"/><path d="M233.758 724.436c.294.073.457.274.533.557l-.533-.557Z" fill="#ecf2fe" fill-rule="evenodd" data-name="Path 5620"/><path d="M191.68 725.543a.558.558 0 0 1 .455-.462l-.455.462Z" fill="#ecf2fe" fill-rule="evenodd" data-name="Path 5623"/><path d="M234.261 724.963a.735.735 0 0 1 .543.544l-.543-.544Z" fill="#ecf2fe" fill-rule="evenodd" data-name="Path 5624"/><path d="M191.166 726.057a.548.548 0 0 1 .456-.457l-.456.457Z" fill="#ecf2fe" fill-rule="evenodd" data-name="Path 5625"/><path d="M234.775 725.478c.282.08.463.26.542.543l-.542-.543Z" fill="#ecf2fe" fill-rule="evenodd" data-name="Path 5626"/><path d="M190.652 726.571a.548.548 0 0 1 .457-.457l-.457.457Z" fill="#ecf2fe" fill-rule="evenodd" data-name="Path 5627"/><path d="M235.288 725.992c.283.08.463.261.543.544l-.543-.544Z" fill="#ecf2fe" fill-rule="evenodd" data-name="Path 5628"/><path d="M190.138 727.086a.549.549 0 0 1 .457-.458l-.457.458Z" fill="#ecf2fe" fill-rule="evenodd" data-name="Path 5629"/><path d="M235.802 726.507c.282.079.463.26.542.543l-.542-.543Z" fill="#ecf2fe" fill-rule="evenodd" data-name="Path 5630"/><path d="M189.625 727.6a.548.548 0 0 1 .456-.457l-.456.457Z" fill="#ecf2fe" fill-rule="evenodd" data-name="Path 5631"/><path d="M236.315 727.02c.283.08.464.261.543.544l-.543-.543Z" fill="#ecf2fe" fill-rule="evenodd" data-name="Path 5632"/><path d="M189.11 728.114a.55.55 0 0 1 .458-.458l-.457.458Z" fill="#ecf2fe" fill-rule="evenodd" data-name="Path 5633"/><path d="M236.83 727.535a.74.74 0 0 1 .542.543l-.543-.543Z" fill="#ecf2fe" fill-rule="evenodd" data-name="Path 5634"/><path d="M188.598 728.628a.548.548 0 0 1 .456-.457l-.456.457Z" fill="#ecf2fe" fill-rule="evenodd" data-name="Path 5635"/><path d="M237.343 728.049c.282.08.463.26.543.544l-.543-.544Z" fill="#ecf2fe" fill-rule="evenodd" data-name="Path 5638"/><path d="m188.068 729.14.472-.455-.472.455Z" fill="#ecf2fe" fill-rule="evenodd" data-name="Path 5639"/><path d="m215.753 729.109-.614-.47.614.47Z" fill="#ecf2fe" fill-rule="evenodd" data-name="Path 5640"/><path d="M237.856 728.563c.283.08.463.26.544.543l-.544-.543Z" fill="#ecf2fe" fill-rule="evenodd" data-name="Path 5641"/><path d="m243.977 729.119.517-.555-.517.555Z" fill="#ecf2fe" fill-rule="evenodd" data-name="Path 5642"/><path d="m187.486 729.638.537-.458-.537.458Z" fill="#ecf2fe" fill-rule="evenodd" data-name="Path 5643"/><path d="M210.67 729.153c-.073.287-.239.484-.537.554l.538-.554Z" fill="#ecf2fe" fill-rule="evenodd" data-name="Path 5644"/><path d="m216.265 729.63-.497-.509.497.508Z" fill="#ecf2fe" fill-rule="evenodd" data-name="Path 5645"/><path d="m238.369 729.077.645.522a.816.816 0 0 1-.645-.522Z" fill="#ecf2fe" fill-rule="evenodd" data-name="Path 5646"/><path d="m243.444 729.625.549-.521-.549.52Z" fill="#ecf2fe" fill-rule="evenodd" data-name="Path 5647"/><path d="m183.378 729.683.694.425-.694-.425Z" fill="#ecf2fe" fill-rule="evenodd" data-name="Path 5648"/><path d="M216.752 730.208c-.274-.094-.417-.298-.479-.57l.48.57Z" fill="#ecf2fe" fill-rule="evenodd" data-name="Path 5650"/><path d="m239.404 729.738.607.384-.607-.384Z" fill="#ecf2fe" fill-rule="evenodd" data-name="Path 5651"/><path d="M216.267 740.44c.066-.27.207-.477.484-.57l-.484.57Z" fill="#ecf2fe" fill-rule="evenodd" data-name="Path 5656"/><path d="M210.133 740.372c.3.067.47.261.54.553a.775.775 0 0 1-.54-.553Z" fill="#ecf2fe" fill-rule="evenodd" data-name="Path 5657"/><path d="M215.755 740.955Z" fill="#ecf2fe" fill-rule="evenodd" data-name="Path 5658"/><path d="m215.12 741.437.63-.478-.63.478Z" fill="#ecf2fe" fill-rule="evenodd" data-name="Path 5659"/></g></g></svg>