<svg xmlns="http://www.w3.org/2000/svg" width="124" height="125" viewBox="59 470.95 124 125"><g data-name="Group 5251"><path d="M59 533.4a62 62.5 0 1 1 0 .1z" fill="#fff" fill-rule="evenodd" data-name="Ellipse 117"/><g data-name="Group 5243"><path d="M95.739 528.005c.16.001.319-.012.477-.04.174-.157.346-.319.514-.483l-.005.006c.275-.31.752-.217 1.03-.52l-.004.003c.285-.313.765-.216 1.06-.506a2.81 2.81 0 0 0 .483-.026c.422-.454 1.131-.02 1.545-.5l1.034-.035a10.144 10.144 0 0 1 4.594.003l1.026.034c.273.311.742.193 1.03.472l.525.036c.263.327.745.197 1.021.494.161.024.323.034.485.03.177.166.375.307.543.482.159.026.318.038.478.035.192.158.378.323.556.496l.006.003c.264.318.753.214 1.013.539l-.01-.012c.19.158.36.335.528.513l-.005-.005c.177.167.347.341.523.51.168.175.338.346.513.512l.003.003c.166.175.337.346.51.514.17.175.344.346.511.523l-.004-.006c.177.17.354.34.512.53l-.012-.011c.324.262.22.75.537 1.016l.003.004c.173.178.338.365.497.557-.003.16.008.32.034.479.175.168.316.366.482.541-.003.163.007.325.03.487.178.168.32.367.48.553-.008.158 0 .316.023.473.303.273.185.755.506 1.02l.003.002a.6.6 0 0 1 .175.428c-.004.16-.021.24-.05.24-1.66 1.731-3.856 2.426-6.05 3.125-.433-.057-.541-.444-.745-.734a2.698 2.698 0 0 0-.029-.492c-.296-.277-.182-.754-.498-1.022-.296-.282-.204-.755-.51-1.032l.001.002c-.302-.27-.198-.753-.524-1.011l-.01-.014c-.152-.185-.328-.35-.495-.522l.004.003a14.523 14.523 0 0 1-.515-.522l.005.006c-.179-.167-.35-.34-.52-.516l.003.003c-.17-.17-.344-.334-.522-.495l-.015-.01c-.258-.326-.736-.223-1.01-.518l-.003-.002c-.407-.483-1.125-.051-1.536-.522l.003.002c-1.209-.416-2.419-.4-3.63-.007l-.243-.002-.244.02c-.278.308-.756.2-1.04.497l.008-.006c-.27.32-.75.225-1.03.525l.005-.003a5.8 5.8 0 0 1-.528.513l.01-.011c-.247.324-.735.206-.98.536a2.218 2.218 0 0 0-.054.465c-.155.2-.318.394-.513.557l.008-.008c-.16.183-.338.349-.5.53l-.004.007c-.323.262-.204.743-.504 1.016-.024.161-.033.323-.027.485-.452.434-.042 1.136-.488 1.571l-.025 40.582c-.158.196-.32.39-.514.553l.01-.008c-2.052.44-4.104.432-6.158.003l.009.007c-.19-.165-.35-.358-.515-.546l.001-41.588c.552-.602-.048-1.481.502-2.083.02-.158.026-.316.018-.475.287-.3.194-.776.498-1.067.315-.27.2-.75.501-1.025.023-.156.032-.313.026-.471.154-.197.32-.384.496-.561l.002-.003c.314-.269.214-.754.53-1.02l-.009.008c.162-.182.338-.35.504-.528l.003-.002c.173-.164.338-.335.493-.515l.018-.018a4.37 4.37 0 0 0 .485-.484 2.14 2.14 0 0 0 .048-.461c.226-.364.74-.248.981-.587l.028-.02c.18-.149.348-.31.503-.486l.01-.01c.184-.157.35-.332.522-.5l-.003.004a5.17 5.17 0 0 1 .556-.507Z" fill="#c4ccdb" fill-rule="evenodd" data-name="Path 4795"/><path d="M102.355 495.088c.026-.156.037-.312.032-.47.153-.2.32-.39.503-.562l-.003.003c.17-.168.334-.342.49-.522l.013-.019c.333-.25.22-.743.543-1l-.011.011c.16-.188.335-.36.518-.525l-.007.007c.164-.183.338-.357.52-.522l-.006.008c.164-.184.337-.358.523-.52l-.009.008c.163-.186.336-.361.526-.52l-.011.012c.258-.325.748-.218 1.007-.54l.01-.008c.183-.158.348-.335.528-.497l-.008.009c.27-.315.751-.217 1.023-.527v-.002c.28-.298.754-.203 1.028-.513.285-.304.764-.204 1.05-.505.166.002.332-.008.497-.03.29-.297.765-.184 1.055-.479l1.002-.035a14.426 14.426 0 0 1 5.631 0l1.008.032c.286.3.762.185 1.05.482.165.022.331.032.498.03.285.302.762.202 1.05.5l.004.003c.27.314.743.218 1.023.51l.004.004c.268.315.75.215 1.02.526l-.005-.007c.17.168.345.332.524.49l.018.013c.252.33.744.22 1 .543l-.01-.012c.188.16.36.336.526.517l-.007-.007c.181.166.352.34.523.517l-.005-.005c.177.17.35.343.517.521l-.006-.006c.18.169.354.341.517.525l-.007-.008c.194.164.357.357.513.556 0 .16.016.32.048.476.152.175.312.342.48.5l.004.004c.174.178.339.365.498.556-.002.161.01.321.037.48.16.175.32.349.483.52l-.01-.009c.322.279.221.764.516 1.056-.003.164.006.326.029.488.302.283.182.765.49 1.045-.006.167.001.332.021.497.443.437.034 1.137.486 1.57l.025 1.514c.36.683.359 1.366.001 2.048l-.016 1.02c-.563.593.038 1.468-.5 2.066-.02.163-.026.327-.02.491-.304.286-.184.77-.493 1.052-.022.158-.03.317-.022.477-.16.182-.303.38-.48.549-.024.16-.035.322-.031.484-.167.179-.308.38-.488.546a2.404 2.404 0 0 0-.031.47c-.154.199-.32.388-.502.562l.002-.002c-.17.166-.333.34-.49.52l-.013.02c-.334.25-.22.743-.544.998l.012-.01c-.16.188-.335.362-.52.524l.008-.008c-.162.186-.336.36-.522.523l.009-.008c-.164.185-.337.36-.523.521l.008-.007a4.34 4.34 0 0 1-.526.517l.01-.011c-.258.328-.748.222-1.011.54l-.006.004c-.18.163-.345.341-.53.499l.01-.01c-.268.321-.75.224-1.027.528l.003-.002c-.277.306-.752.214-1.032.515l.004-.003c-.285.315-.765.22-1.064.505a2.71 2.71 0 0 0-.476.025c-.425.458-1.135.029-1.556.5l-.25-.001-.25.016a13.84 13.84 0 0 1-5.643-.001l-.248-.017-.249.002c-.423-.47-1.133-.04-1.559-.5a2.575 2.575 0 0 0-.473-.025c-.301-.284-.782-.188-1.065-.507l.006.004c-.283-.298-.759-.206-1.035-.516l.006.003c-.28-.3-.761-.204-1.029-.528l.01.011c-.188-.157-.354-.336-.53-.504h-.002a9.406 9.406 0 0 0-.505-.49 2.286 2.286 0 0 0-.468-.042 2.892 2.892 0 0 1-.557-.515l.008.008a4.495 4.495 0 0 1-.523-.521l.008.008a4.736 4.736 0 0 1-.521-.522l.008.008a4.228 4.228 0 0 1-.52-.525l.012.01c-.327-.256-.218-.748-.542-1.006l-.007-.01c-.157-.185-.333-.35-.497-.527l.007.007c-.312-.268-.209-.753-.53-1.016l-.004-.008a9.27 9.27 0 0 1-.491-.56 2.459 2.459 0 0 0-.028-.475c-.298-.276-.184-.755-.5-1.023-.302-.292-.21-.768-.497-1.067.01-.159.004-.317-.015-.476-.553-.601.048-1.482-.504-2.083l-.001-4.064c.554-.6-.046-1.477.5-2.079.02-.16.027-.32.019-.48.297-.292.18-.777.493-1.062a2.52 2.52 0 0 0 .019-.47c.159-.186.302-.386.48-.554a2.88 2.88 0 0 0 .03-.485c.167-.177.307-.378.487-.544Z" fill="#c4ccdb" fill-rule="evenodd" data-name="Path 4799"/><path d="M124.971 554.73c-.17 0-.341 0-.512.003-.158.185-.364.32-.516.511-.17 0-.34 0-.511.003-.158.185-.364.321-.518.51l-.51.003c-.27.313-.758.195-1.026.513-.278.303-.762.192-1.029.514-.171 0-.342.002-.514.004-.158.184-.363.32-.514.51-.17 0-.342.001-.513.004-.158.184-.364.32-.514.51-.171 0-.342 0-.513.003-.157.185-.364.32-.516.511-.17 0-.34.001-.51.004-.16.184-.364.32-.519.51l-.51.003c-.157.185-.363.322-.517.51l-.51.003c-.269.318-.764.184-1.027.514l-.514.002c-.685.373-1.37.373-2.053 0-.17-.002-.34-.003-.512-.003-.157-.186-.346-.34-.516-.514a16.386 16.386 0 0 0-.514-.514c-.173-.17-.327-.36-.513-.517 0-.17 0-.34-.003-.511-.184-.159-.32-.365-.51-.517l-.003-.512c-.373-.685-.373-1.37 0-2.056.002-.17.003-.341.003-.512.185-.158.34-.347.513-.517.17-.173.359-.327.515-.514l.602-.598c4.362-2.616 9.102-4.46 13.676-6.636 1.892-.9 3.676-2.11 5.782-2.541l3.049.007c.159.184.348.34.518.512.168.176.339.347.514.514.173.17.327.36.512.517l.003.512c.185.158.32.364.51.517 0 .17.002.341.004.512.385.857.386 1.714-.003 2.57-.31.273-.215.75-.515 1.028v-.002c-.167.176-.357.33-.516.515l-.51.004c-.157.185-.364.32-.515.512-.17 0-.342 0-.512.003-.158.184-.364.32-.515.511-.171 0-.342 0-.513.003-.157.184-.363.32-.516.51l-.51.003c-.158.186-.364.322-.518.51l-.51.003c-.157.187-.363.323-.517.512-.17 0-.34 0-.51.002-.269.319-.764.184-1.027.514l-.515.005c-.158.183-.365.317-.514.51-.17 0-.342 0-.513.003-.158.184-.364.32-.515.51Z" fill="#e4e7f3" fill-rule="evenodd" data-name="Path 4810"/><path d="M129.625 543.413c-.29.838-1.082 1.049-1.76 1.369-5.246 2.473-10.5 4.926-15.749 7.392-.623.293-1.23.608-1.95.416l-.027.065c-.388-.288-.316-.785-.522-1.157a.468.468 0 0 0-.103-.383c-.257-.293-.16-.746-.459-1.02l.003.005c-.445-.481-.124-1.177-.47-1.687v-2.28c.347-.509.026-1.203.467-1.685l-.001.004c.304-.273.2-.735.472-1.022a.327.327 0 0 0 .09-.327c.062-.305.253-.52.49-.703l-.017.02c.143-.195.33-.352.467-.55l.028-.032c.182-.134.333-.296.452-.488l.057-.057c.192-.118.353-.27.484-.451l.036-.031c.184-.15.363-.307.535-.469l-.003.008.165-.194.247.062 6.277-3.01c1.521-.356 3.045-.298 4.57-.03l.504.087c.298.285.764.196 1.063.478l.026.013c.249.332.747.215.99.554l-.018-.018.548.464.035.03c.132.18.294.329.486.444l.065.063c.11.193.26.349.448.468l.043.05c.138.189.29.367.454.533l-.004-.005c.21.185.394.39.48.665a.473.473 0 0 0 .12.378c.143.2.314.384.402.62-.02.15.017.287.11.408.149.206.33.393.395.65a.388.388 0 0 0 .074.353Z" fill="#8392ab" fill-rule="evenodd" data-name="Path 4811"/><path d="m144.48 565.046-.012.909a3.147 3.147 0 0 1-.484.602l-.006.006a4.334 4.334 0 0 1-.578.49 1.308 1.308 0 0 0-.455.043c-.168.157-.336.156-.502-.002a1.2 1.2 0 0 0-.442-.045 3.478 3.478 0 0 1-.59-.485l-.009-.007a6.117 6.117 0 0 0-.508-.492l-.02-.02a5.211 5.211 0 0 0-.492-.504l-.01-.011c-.172-.187-.345-.373-.484-.587.013-.152 0-.3-.04-.448-.115-.112-.154-.224-.115-.336.038-.112.076-.168.115-.168a1.26 1.26 0 0 0 .04-.447 3.25 3.25 0 0 1 .502-.583l-.004.004a2.05 2.05 0 0 1 .621-.488l.859-.01c.309.275.801.177 1.072.53l-.02-.023c.205.148.38.326.534.527l-.016-.016c.2.154.378.33.529.532l-.021-.02c.345.264.238.76.537 1.049Z" fill="#22b0ec" fill-rule="evenodd" data-name="Path 4849"/><path d="m120.32 565.09.013 1.936c-.288.297-.18.797-.54 1.055l.029-.025c-.847.458-1.693.458-2.54 0l.03.025c-.361-.259-.253-.758-.54-1.055l-.05-.996c-.293-.517-.33-1.028.034-1.53v.002c.256-.424.608-.753 1.007-1.036l.02-.01c.52-.31 1.033-.369 1.532.045l-.018-.017c.196.153.367.332.534.515l-.009-.01c.322.297.24.776.499 1.1Z" fill="#22b0ec" fill-rule="evenodd" data-name="Path 4850"/><path d="M136.292 569.636a.927.927 0 0 0-.05.413 1.573 1.573 0 0 1-.518.603l.023-.023c-.675.45-1.353.421-2.035.018l.015.014a5.638 5.638 0 0 1-.53-.515l.005.006c-.18-.171-.364-.338-.506-.545l.023.021c-.347-.258-.252-.747-.54-1.035l.01.015c-.388-.51-.393-1.02.004-1.53l-.018.019c.15-.193.333-.357.494-.54l.008-.009c.187-.175.373-.35.596-.482l.91-.007c.29.292.789.185 1.047.541l-.027-.027c.35.242.236.745.562 1l.007.01c.174.191.348.381.476.608a1.06 1.06 0 0 0 .052.432c.265.34.266.677-.008 1.013Z" fill="#22b0ec" fill-rule="evenodd" data-name="Path 4851"/><path d="m132.187 558.272.001-.882c.125-.227.304-.412.473-.605l.014-.016c.188-.151.35-.33.531-.489l-.01.01c.512-.377 1.021-.38 1.531.002l-.01-.007c.859.532 1.594 1.185 2.044 2.114l-.005 1.365c-.12.245-.294.446-.51.61l.02-.018c-.851.43-1.7.452-2.547-.012l.024.021a1.974 1.974 0 0 1-.532-.529l.017.018a2.006 2.006 0 0 1-.53-.534l.024.022c-.36-.266-.259-.763-.535-1.07Z" fill="#22b0ec" fill-rule="evenodd" data-name="Path 4854"/><path d="m117.826 573.26.961-.008c.279.305.782.189 1.031.55l-.026-.033c.682.77-.056 1.831.534 2.62a.67.67 0 0 0-.008.371c-.256.327-.166.817-.518 1.098l.024-.025c-.26.349-.757.238-1.04.54l-.919-.014a2.911 2.911 0 0 1-.595-.49l-.001-.002a3.229 3.229 0 0 1-.495-.585c.014-.153 0-.302-.041-.45-.343-.857-.378-1.711.023-2.562v.001c.275-.423.602-.792 1.07-1.012Z" fill="#22b0ec" fill-rule="evenodd" data-name="Path 4855"/><path d="M128.03 560.991c-.01.15.011.297.064.439.274.29.16.757.468 1.032l-.012.939c-.139.214-.312.398-.481.586l-.013.013c-.185.156-.348.337-.537.49l.014-.015c-.51.387-1.017.4-1.521-.01l.018.02c-.2-.147-.369-.33-.538-.51l.005.006a2.367 2.367 0 0 1-.498-.602 1.06 1.06 0 0 0-.064-.433 2.442 2.442 0 0 1-.444-.61l-.017-1.396c.232-.455.585-.794 1.011-1.065l.004-.002c.516-.342 1.028-.374 1.532.023l-.014-.014c.19.156.356.336.533.505h.002c.185.184.358.376.488.604Z" fill="#22b0ec" fill-rule="evenodd" data-name="Path 4856"/><path d="M124.497 572.633a.872.872 0 0 0-.04-.42c-.347-.517-.365-1.03.02-1.538l-.012.012c.157-.182.338-.343.486-.533l.02-.019c.192-.163.374-.338.59-.472l.915-.005c.292.293.792.183 1.048.544l-.028-.029c.364.277.273.77.524 1.1a.947.947 0 0 0 .044.43c.356.687.375 1.37-.015 2.052l.003-.005c-.168.173-.341.34-.504.52l-.009.007c-.686.356-1.37.383-2.049-.018l.006.006a5.304 5.304 0 0 1-.513-.532l.016.016c-.338-.295-.26-.778-.502-1.116Z" fill="#22b0ec" fill-rule="evenodd" data-name="Path 4857"/><path d="M89.532 580.943c2.053 0 4.106-.002 6.158-.003-2.052.845-4.105.84-6.158.003Z" fill="#ecf2fe" fill-rule="evenodd" data-name="Path 4879"/><path d="M113.162 518.228h5.643c-1.881.82-3.762.821-5.643 0Z" fill="#ecf2fe" fill-rule="evenodd" data-name="Path 4880"/><path d="M118.8 487.35h-5.632c1.877-.8 3.754-.799 5.631 0Z" fill="#ecf2fe" fill-rule="evenodd" data-name="Path 4881"/><path d="m106.467 525.907-4.594-.002c1.532-.77 3.063-.773 4.594.002Z" fill="#ecf2fe" fill-rule="evenodd" data-name="Path 4888"/><path d="m123.404 537.178-4.57.03a4.45 4.45 0 0 1-.02-.477c1.526.181 3.13-.418 4.59.447Z" fill="#ecf2fe" fill-rule="evenodd" data-name="Path 4889"/><path d="M136.76 558.399c-.766-.622-1.488-1.287-2.043-2.114 1.262.142 1.962.829 2.044 2.114Z" fill="#ecf2fe" fill-rule="evenodd" data-name="Path 4899"/><path d="M102.344 533.121c1.211-.77 2.42-.77 3.629.007l-3.63-.007Z" fill="#ecf2fe" fill-rule="evenodd" data-name="Path 4902"/><path d="m152.188 567.074.032 3.074c-.808-1.016-.77-2.042-.032-3.074Z" fill="#ecf2fe" fill-rule="evenodd" data-name="Path 4914"/><path d="M120.326 576.39c-.674-.773-.374-1.744-.534-2.621.922.722.44 1.73.534 2.62Z" fill="#ecf2fe" fill-rule="evenodd" data-name="Path 4921"/><path d="M117.282 568.056h2.54c-.847.813-1.693.813-2.54 0Z" fill="#ecf2fe" fill-rule="evenodd" data-name="Path 4924"/><path d="m116.756 574.27-.023 2.562c-.711-.86-.726-1.714.023-2.562Z" fill="#ecf2fe" fill-rule="evenodd" data-name="Path 4927"/><path d="M134.732 549.074c0-.857.002-1.713.003-2.57.74.857.742 1.714-.003 2.57Z" fill="#ecf2fe" fill-rule="evenodd" data-name="Path 4935"/><path d="m133.719 560.344 2.547.012c-.853.789-1.702.804-2.547-.012Z" fill="#ecf2fe" fill-rule="evenodd" data-name="Path 4939"/><path d="m128.049 573.754.015-2.05c.706.689.712 1.372-.015 2.05Z" fill="#ecf2fe" fill-rule="evenodd" data-name="Path 4960"/><path d="m133.712 570.647 2.035-.018c-.672.786-1.35.77-2.035.018Z" fill="#ecf2fe" fill-rule="evenodd" data-name="Path 4963"/><path d="M125.49 574.26c.683.005 1.366.01 2.05.017-.69.707-1.373.72-2.05-.018Z" fill="#ecf2fe" fill-rule="evenodd" data-name="Path 4970"/><path d="M108.533 554.73v2.057c-.714-.686-.714-1.37 0-2.056Z" fill="#ecf2fe" fill-rule="evenodd" data-name="Path 4982"/><path d="M111.104 559.875h2.053c-.684.715-1.369.715-2.053 0Z" fill="#ecf2fe" fill-rule="evenodd" data-name="Path 4983"/><path d="M100.828 498.683c-.049.722.179 1.51-.502 2.079.051-.72-.23-1.522.502-2.079Z" fill="#ecf2fe" fill-rule="evenodd" data-name="Path 4984"/><path d="m131.662 503.819-.001-2.048c.703.683.703 1.365 0 2.048Z" fill="#ecf2fe" fill-rule="evenodd" data-name="Path 4985"/><path d="M100.328 504.826c.68.57.452 1.36.503 2.083-.737-.556-.454-1.36-.503-2.083Z" fill="#ecf2fe" fill-rule="evenodd" data-name="Path 4986"/><path d="M131.145 506.905c.046-.718-.182-1.502.5-2.066-.056.715.225 1.513-.5 2.066Z" fill="#ecf2fe" fill-rule="evenodd" data-name="Path 4987"/><path d="M89.53 536.733c-.049.723.178 1.512-.503 2.083.05-.723-.232-1.525.502-2.083Z" fill="#ecf2fe" fill-rule="evenodd" data-name="Path 4989"/><path d="m126.012 564.465 1.521.01c-.511.683-1.019.688-1.521-.01Z" fill="#ecf2fe" fill-rule="evenodd" data-name="Path 4996"/><path d="m116.756 564.5-.034 1.53c-.616-.524-.604-1.034.034-1.53Z" fill="#ecf2fe" fill-rule="evenodd" data-name="Path 4998"/><path d="M109.055 544.448c.003.605-.018 1.204-.468 1.684-.036-.614-.161-1.254.468-1.684Z" fill="#ecf2fe" fill-rule="evenodd" data-name="Path 5006"/><path d="M117.763 563.466a2.41 2.41 0 0 1-1.007 1.036c.02-.652.355-.998 1.007-1.036Z" fill="#ecf2fe" fill-rule="evenodd" data-name="Path 5011"/><path d="m119.314 563.501-1.532-.046c.53-.623 1.042-.643 1.532.046Z" fill="#ecf2fe" fill-rule="evenodd" data-name="Path 5019"/><path d="M125.485 559.875a2.655 2.655 0 0 1-1.012 1.065c0-.676.332-1.036 1.012-1.065Z" fill="#ecf2fe" fill-rule="evenodd" data-name="Path 5034"/><path d="m132.193 567.078-.004 1.53c-.68-.511-.683-1.021.004-1.53Z" fill="#ecf2fe" fill-rule="evenodd" data-name="Path 5036"/><path d="m127.02 559.896-1.532-.023c.522-.647 1.032-.658 1.533.023Z" fill="#ecf2fe" fill-rule="evenodd" data-name="Path 5038"/><path d="M117.826 573.26a2.682 2.682 0 0 1-1.07 1.011c.03-.683.39-1.017 1.07-1.012Z" fill="#ecf2fe" fill-rule="evenodd" data-name="Path 5055"/><path d="M108.588 548.413c.445.482.47 1.081.47 1.687-.633-.43-.507-1.07-.47-1.687Z" fill="#ecf2fe" fill-rule="evenodd" data-name="Path 5058"/><path d="M96.22 539.814c-.013-.578-.065-1.169.487-1.571.003.575.095 1.178-.488 1.57Z" fill="#ecf2fe" fill-rule="evenodd" data-name="Path 5059"/><path d="m134.727 556.292-1.53-.003c.51-.67 1.02-.671 1.53.003Z" fill="#ecf2fe" fill-rule="evenodd" data-name="Path 5061"/><path d="M105.97 533.126c.568.01 1.158-.047 1.536.522-.566-.014-1.167.073-1.536-.522Z" fill="#ecf2fe" fill-rule="evenodd" data-name="Path 5064"/><path d="m124.477 570.675-.02 1.538c-.642-.52-.652-1.034.02-1.538Z" fill="#ecf2fe" fill-rule="evenodd" data-name="Path 5068"/><path d="M131.636 500.257c-.542-.405-.492-.994-.486-1.57.582.393.49.996.486 1.57Z" fill="#ecf2fe" fill-rule="evenodd" data-name="Path 5069"/><path d="M119.305 518.214c.395-.552.985-.498 1.556-.5-.385.584-.985.496-1.556.5Z" fill="#ecf2fe" fill-rule="evenodd" data-name="Path 5073"/><path d="M111.106 517.712c.571.004 1.162-.05 1.559.5-.573-.002-1.174.087-1.56-.5Z" fill="#ecf2fe" fill-rule="evenodd" data-name="Path 5074"/><path d="M100.839 525.94c-.39.551-.977.499-1.545.5.381-.58.979-.493 1.545-.5Z" fill="#ecf2fe" fill-rule="evenodd" data-name="Path 5076"/><path d="M110.583 536.235c.399.22.508.592.525 1.011-.4-.22-.504-.594-.525-1.011Z" fill="#ecf2fe" fill-rule="evenodd" data-name="Path 5109"/><path d="M108.522 526.413c-.421.014-.786-.095-1.028-.472.412.004.79.086 1.028.472Z" fill="#ecf2fe" fill-rule="evenodd" data-name="Path 5217"/><path d="M98.812 526.465c-.25.384-.633.493-1.06.506.234-.418.623-.511 1.06-.506Z" fill="#ecf2fe" fill-rule="evenodd" data-name="Path 5218"/><path d="M110.07 526.943c-.42 0-.787-.11-1.022-.494.414.012.79.103 1.021.494Z" fill="#ecf2fe" fill-rule="evenodd" data-name="Path 5219"/><path d="M97.755 526.969c-.233.393-.61.5-1.03.519.223-.412.603-.512 1.03-.52Z" fill="#ecf2fe" fill-rule="evenodd" data-name="Path 5220"/><path d="M113.15 528.528c-.42-.025-.79-.143-1.013-.539.424.018.803.12 1.013.539Z" fill="#ecf2fe" fill-rule="evenodd" data-name="Path 5221"/><path d="M94.123 529.524c-.202.405-.575.522-.981.587.18-.443.556-.556.981-.587Z" fill="#ecf2fe" fill-rule="evenodd" data-name="Path 5222"/><path d="M121.337 517.689c.252-.384.637-.49 1.064-.505-.235.42-.626.513-1.064.505Z" fill="#ecf2fe" fill-rule="evenodd" data-name="Path 5223"/><path d="M109.567 517.18c.428.017.812.125 1.065.509-.44.008-.831-.084-1.065-.508Z" fill="#ecf2fe" fill-rule="evenodd" data-name="Path 5224"/><path d="M116.756 532.615c-.395-.225-.512-.596-.537-1.016.418.212.52.591.537 1.016Z" fill="#ecf2fe" fill-rule="evenodd" data-name="Path 5225"/><path d="M91.601 532.11c-.024.42-.138.794-.531 1.021.015-.425.117-.804.531-1.02Z" fill="#ecf2fe" fill-rule="evenodd" data-name="Path 5226"/><path d="M122.397 517.187c.233-.394.611-.498 1.032-.515-.225.41-.605.509-1.032.515Z" fill="#ecf2fe" fill-rule="evenodd" data-name="Path 5227"/><path d="M100.816 533.636c.236-.398.616-.493 1.04-.497-.234.402-.614.498-1.04.497Z" fill="#ecf2fe" fill-rule="evenodd" data-name="Path 5228"/><path d="M99.793 534.155c.23-.401.608-.506 1.031-.524-.22.419-.601.518-1.03.524Z" fill="#ecf2fe" fill-rule="evenodd" data-name="Path 5229"/><path d="M107.51 533.65c.419.012.788.12 1.01.519-.416-.02-.789-.123-1.01-.518Z" fill="#ecf2fe" fill-rule="evenodd" data-name="Path 5230"/><path d="M90.546 534.166c-.005.421-.116.79-.502 1.025.012-.419.107-.795.502-1.025Z" fill="#ecf2fe" fill-rule="evenodd" data-name="Path 5231"/><path d="M108.54 516.669c.42.017.8.12 1.033.516-.428-.004-.81-.103-1.034-.516Z" fill="#ecf2fe" fill-rule="evenodd" data-name="Path 5232"/><path d="M98.302 535.19c.205-.4.569-.51.978-.536-.2.41-.563.52-.978.536Z" fill="#ecf2fe" fill-rule="evenodd" data-name="Path 5233"/><path d="M90.044 535.19c-.006.43-.114.814-.497 1.068-.007-.437.085-.827.497-1.067Z" fill="#ecf2fe" fill-rule="evenodd" data-name="Path 5234"/><path d="M118.81 536.73c-.394-.228-.5-.6-.506-1.022.396.228.493.604.507 1.021Z" fill="#ecf2fe" fill-rule="evenodd" data-name="Path 5235"/><path d="M96.734 537.757c.004-.42.11-.79.505-1.016-.017.415-.113.79-.505 1.016Z" fill="#ecf2fe" fill-rule="evenodd" data-name="Path 5236"/><path d="M111.107 537.244c.394.232.5.609.51 1.032-.402-.23-.502-.609-.51-1.032Z" fill="#ecf2fe" fill-rule="evenodd" data-name="Path 5237"/><path d="M123.426 516.674c.23-.395.605-.506 1.026-.528-.217.42-.598.52-1.026.528Z" fill="#ecf2fe" fill-rule="evenodd" data-name="Path 5238"/><path d="M124.97 537.743c-.427.004-.793-.13-1.061-.478.429-.008.815.079 1.062.478Z" fill="#ecf2fe" fill-rule="evenodd" data-name="Path 5239"/><path d="M125.987 538.31c-.414-.034-.756-.196-.99-.554.421.022.793.132.99.554Z" fill="#ecf2fe" fill-rule="evenodd" data-name="Path 5240"/><path d="M111.617 538.276c.387.233.496.602.498 1.023-.393-.23-.486-.607-.498-1.023Z" fill="#ecf2fe" fill-rule="evenodd" data-name="Path 5241"/><path d="M107.516 516.144c.422.022.798.133 1.029.528-.43-.006-.812-.106-1.029-.528Z" fill="#ecf2fe" fill-rule="evenodd" data-name="Path 5242"/><path d="M109.526 543.43c.007.417-.13.767-.472 1.022.004-.411.09-.786.472-1.022Z" fill="#ecf2fe" fill-rule="evenodd" data-name="Path 5243"/><path d="M124.979 515.653c.222-.396.59-.517 1.01-.54-.208.42-.586.523-1.01.54Z" fill="#ecf2fe" fill-rule="evenodd" data-name="Path 5244"/><path d="M134.217 550.102c.014-.422.115-.8.515-1.028-.012.423-.112.801-.515 1.028Z" fill="#ecf2fe" fill-rule="evenodd" data-name="Path 5245"/><path d="M109.055 550.094c.342.256.478.604.459 1.021-.376-.24-.456-.613-.459-1.02Z" fill="#ecf2fe" fill-rule="evenodd" data-name="Path 5247"/><path d="M109.617 551.498c.384.29.507.7.522 1.157-.507-.235-.561-.675-.522-1.157Z" fill="#ecf2fe" fill-rule="evenodd" data-name="Path 5249"/><path d="M127.028 553.702c.228-.4.605-.501 1.027-.514-.227.401-.606.501-1.027.514Z" fill="#ecf2fe" fill-rule="evenodd" data-name="Path 5250"/><path d="M121.378 556.273c.227-.4.605-.5 1.026-.513-.227.4-.605.5-1.026.513Z" fill="#ecf2fe" fill-rule="evenodd" data-name="Path 5252"/><path d="M120.349 556.787c.228-.4.606-.501 1.028-.514-.227.402-.606.502-1.028.514Z" fill="#ecf2fe" fill-rule="evenodd" data-name="Path 5254"/><path d="M132.187 558.272c.357.267.505.638.535 1.07-.47-.211-.546-.619-.535-1.07Z" fill="#ecf2fe" fill-rule="evenodd" data-name="Path 5256"/><path d="M113.672 559.873c.228-.401.606-.501 1.027-.514-.228.401-.606.5-1.027.514Z" fill="#ecf2fe" fill-rule="evenodd" data-name="Path 5257"/><path d="M128.562 562.462c-.351-.256-.477-.614-.469-1.032.385.24.466.618.469 1.032Z" fill="#ecf2fe" fill-rule="evenodd" data-name="Path 5258"/><path d="M142.938 562.996c-.427-.034-.801-.176-1.071-.529.45-.012.856.064 1.071.53Z" fill="#ecf2fe" fill-rule="evenodd" data-name="Path 5259"/><path d="M120.32 565.09c-.351-.283-.46-.676-.497-1.1.448.238.518.648.497 1.1Z" fill="#ecf2fe" fill-rule="evenodd" data-name="Path 5260"/><path d="M144.48 565.046c-.354-.26-.496-.628-.536-1.049.438.217.535.608.537 1.05Z" fill="#ecf2fe" fill-rule="evenodd" data-name="Path 5261"/><path d="M128.034 513.072c.029-.416.145-.784.544-.998-.026.418-.13.792-.544.998Z" fill="#ecf2fe" fill-rule="evenodd" data-name="Path 5262"/><path d="M103.394 512.064c.397.218.517.587.542 1.006-.418-.207-.521-.584-.542-1.006Z" fill="#ecf2fe" fill-rule="evenodd" data-name="Path 5263"/><path d="M152.769 565.547c-.05.45-.141.88-.51 1.193-.042-.488.003-.94.51-1.193Z" fill="#ecf2fe" fill-rule="evenodd" data-name="Path 5264"/><path d="M135.23 566.6c-.424-.035-.789-.186-1.048-.542.444-.002.836.095 1.048.542Z" fill="#ecf2fe" fill-rule="evenodd" data-name="Path 5265"/><path d="M135.765 567.573c-.385-.222-.526-.58-.561-1 .432.196.539.574.561 1Z" fill="#ecf2fe" fill-rule="evenodd" data-name="Path 5266"/><path d="M116.771 567.026c.361.26.514.624.541 1.055-.45-.213-.545-.609-.54-1.055Z" fill="#ecf2fe" fill-rule="evenodd" data-name="Path 5267"/><path d="M119.792 568.081c.028-.43.182-.794.54-1.054.005.446-.09.842-.54 1.054Z" fill="#ecf2fe" fill-rule="evenodd" data-name="Path 5268"/><path d="M132.179 568.593c.384.238.513.61.54 1.035-.44-.21-.54-.596-.54-1.035Z" fill="#ecf2fe" fill-rule="evenodd" data-name="Path 5269"/><path d="m136.292 569.636.008-1.013c.486.341.48.679-.008 1.013Z" fill="#ecf2fe" fill-rule="evenodd" data-name="Path 5270"/><path d="M127.524 570.202c-.426-.033-.79-.185-1.048-.544.444-.002.837.095 1.048.544Z" fill="#ecf2fe" fill-rule="evenodd" data-name="Path 5271"/><path d="M128.02 571.274c-.363-.277-.497-.664-.524-1.1.48.22.547.638.524 1.1Z" fill="#ecf2fe" fill-rule="evenodd" data-name="Path 5273"/><path d="M124.497 572.633c.366.283.476.68.501 1.116-.464-.238-.529-.656-.5-1.116Z" fill="#ecf2fe" fill-rule="evenodd" data-name="Path 5275"/><path d="M119.818 573.801c-.425-.03-.782-.19-1.031-.55.439.005.827.106 1.031.55Z" fill="#ecf2fe" fill-rule="evenodd" data-name="Path 5278"/><path d="M119.8 577.858c.038-.43.166-.816.518-1.097.021.457-.048.872-.518 1.097Z" fill="#ecf2fe" fill-rule="evenodd" data-name="Path 5281"/><path d="M118.784 578.373c.257-.353.622-.497 1.04-.54-.213.438-.601.538-1.04.54Z" fill="#ecf2fe" fill-rule="evenodd" data-name="Path 5283"/><path d="M102.368 510.518c.393.225.507.596.529 1.016-.409-.218-.511-.595-.53-1.016Z" fill="#ecf2fe" fill-rule="evenodd" data-name="Path 5292"/><path d="M101.344 508.452c.385.234.495.603.5 1.023-.394-.23-.488-.606-.5-1.023Z" fill="#ecf2fe" fill-rule="evenodd" data-name="Path 5369"/><path d="M130.633 508.448c.003-.426.11-.803.493-1.051.001.428-.09.813-.493 1.051Z" fill="#ecf2fe" fill-rule="evenodd" data-name="Path 5370"/><path d="M100.847 507.385c.383.254.49.637.497 1.067-.411-.241-.504-.63-.497-1.067Z" fill="#ecf2fe" fill-rule="evenodd" data-name="Path 5371"/><path d="M131.128 498.19c-.382-.246-.49-.62-.49-1.045.4.238.488.62.49 1.045Z" fill="#ecf2fe" fill-rule="evenodd" data-name="Path 5372"/><path d="M101.339 497.141c-.005.429-.111.81-.494 1.061-.005-.432.086-.82.494-1.06Z" fill="#ecf2fe" fill-rule="evenodd" data-name="Path 5373"/><path d="M130.61 496.657c-.387-.247-.499-.628-.516-1.056.423.23.518.62.516 1.056Z" fill="#ecf2fe" fill-rule="evenodd" data-name="Path 5374"/><path d="M103.933 492.519c-.027.417-.144.785-.543 1 .025-.419.13-.793.543-1Z" fill="#ecf2fe" fill-rule="evenodd" data-name="Path 5375"/><path d="M125.992 490.476c-.416-.027-.783-.146-1-.543.42.023.794.129 1 .543Z" fill="#ecf2fe" fill-rule="evenodd" data-name="Path 5376"/><path d="M106.983 489.936c-.219.398-.589.515-1.007.541.208-.418.586-.521 1.007-.541Z" fill="#ecf2fe" fill-rule="evenodd" data-name="Path 5377"/><path d="M124.456 489.437c-.42-.02-.793-.132-1.02-.526.422.015.8.116 1.02.526Z" fill="#ecf2fe" fill-rule="evenodd" data-name="Path 5378"/><path d="M108.536 488.914c-.23.392-.603.505-1.023.526.218-.413.597-.514 1.023-.526Z" fill="#ecf2fe" fill-rule="evenodd" data-name="Path 5379"/><path d="M123.432 488.908c-.42-.012-.791-.122-1.023-.511.419.013.795.114 1.023.511Z" fill="#ecf2fe" fill-rule="evenodd" data-name="Path 5380"/><path d="M109.564 488.4c-.233.39-.606.5-1.028.512.228-.402.605-.502 1.028-.513Z" fill="#ecf2fe" fill-rule="evenodd" data-name="Path 5381"/><path d="M122.405 488.393c-.426-.006-.804-.114-1.05-.5.429.001.813.096 1.05.5Z" fill="#ecf2fe" fill-rule="evenodd" data-name="Path 5382"/><path d="M110.614 487.894c-.246.386-.624.494-1.05.505.234-.409.62-.505 1.05-.505Z" fill="#ecf2fe" fill-rule="evenodd" data-name="Path 5383"/><path d="M120.856 487.864c-.425.005-.8-.102-1.05-.482.425-.003.81.083 1.05.482Z" fill="#ecf2fe" fill-rule="evenodd" data-name="Path 5384"/><path d="M112.166 487.385c-.252.38-.629.485-1.055.48.243-.4.628-.486 1.055-.48Z" fill="#ecf2fe" fill-rule="evenodd" data-name="Path 5385"/><path d="m94.654 529.018-.504.487.504-.487Z" fill="#ecf2fe" fill-rule="evenodd" data-name="Path 5414"/><path d="m129.612 510.504.488-.546-.488.546Z" fill="#ecf2fe" fill-rule="evenodd" data-name="Path 5430"/><path d="m101.871 509.95.492.56-.492-.56Z" fill="#ecf2fe" fill-rule="evenodd" data-name="Path 5433"/><path d="M113.668 529.03Z" fill="#ecf2fe" fill-rule="evenodd" data-name="Path 5439"/><path d="M95.185 528.509Z" fill="#ecf2fe" fill-rule="evenodd" data-name="Path 5445"/><path d="m95.74 528.005-.558.507.557-.507Z" fill="#ecf2fe" fill-rule="evenodd" data-name="Path 5459"/><path d="m111.577 540.842-.484.451.484-.451Z" fill="#ecf2fe" fill-rule="evenodd" data-name="Path 5467"/><path d="m133.701 550.615.517-.515-.517.515Z" fill="#ecf2fe" fill-rule="evenodd" data-name="Path 5472"/><path d="m111.036 541.35-.452.488.452-.488Z" fill="#ecf2fe" fill-rule="evenodd" data-name="Path 5493"/><path d="m112.131 527.986-.555-.496.555.496Z" fill="#ecf2fe" fill-rule="evenodd" data-name="Path 5501"/><path d="m96.73 527.482-.514.484.515-.484Z" fill="#ecf2fe" fill-rule="evenodd" data-name="Path 5504"/><path d="M129.046 542.002a337.69 337.69 0 0 1-.403-.62l.403.62Z" fill="#ecf2fe" fill-rule="evenodd" data-name="Path 5507"/><path d="m132.676 551.13.515-.51-.515.51Z" fill="#ecf2fe" fill-rule="evenodd" data-name="Path 5526"/><path d="M131.649 551.645Z" fill="#ecf2fe" fill-rule="evenodd" data-name="Path 5531"/><path d="m130.62 552.158.516-.51-.516.51Z" fill="#ecf2fe" fill-rule="evenodd" data-name="Path 5550"/><path d="m111.097 527.455-.542-.482.542.482Z" fill="#ecf2fe" fill-rule="evenodd" data-name="Path 5551"/><path d="m129.592 552.672.517-.511-.517.51Z" fill="#ecf2fe" fill-rule="evenodd" data-name="Path 5570"/><path d="m128.564 553.186.518-.512-.518.512Z" fill="#ecf2fe" fill-rule="evenodd" data-name="Path 5601"/><path d="M110.556 541.87a.674.674 0 0 1-.467.549l.467-.549Z" fill="#ecf2fe" fill-rule="evenodd" data-name="Path 5607"/><path d="m127.038 539.23-.486-.445.486.445Z" fill="#ecf2fe" fill-rule="evenodd" data-name="Path 5615"/><path d="m109.565 553.188-.516.514.516-.514Z" fill="#ecf2fe" fill-rule="evenodd" data-name="Path 5621"/><path d="m130.131 509.474.48-.549-.48.549Z" fill="#ecf2fe" fill-rule="evenodd" data-name="Path 5637"/><path d="m109.05 553.702-.514.517.514-.517Z" fill="#ecf2fe" fill-rule="evenodd" data-name="Path 5652"/><path d="m126 554.216.513-.509-.514.51Z" fill="#ecf2fe" fill-rule="evenodd" data-name="Path 5655"/><path d="m124.971 554.73.515-.51-.515.51Z" fill="#ecf2fe" fill-rule="evenodd" data-name="Path 5661"/><path d="m118.282 535.236-.48-.553.48.553Z" fill="#ecf2fe" fill-rule="evenodd" data-name="Path 5666"/><path d="m109.052 534.67.521.516-.52-.516Z" fill="#ecf2fe" fill-rule="evenodd" data-name="Path 5678"/><path d="M123.943 555.244Z" fill="#ecf2fe" fill-rule="evenodd" data-name="Path 5688"/><path d="m122.914 555.757.518-.51-.518.51Z" fill="#ecf2fe" fill-rule="evenodd" data-name="Path 5690"/><path d="m125.98 515.124.526-.517-.526.517Z" fill="#ecf2fe" fill-rule="evenodd" data-name="Path 5691"/><path d="m105.464 514.603.557.517-.557-.517Z" fill="#ecf2fe" fill-rule="evenodd" data-name="Path 5692"/><path d="m110.08 535.699.495.522-.496-.522Z" fill="#ecf2fe" fill-rule="evenodd" data-name="Path 5693"/><path d="M108.534 534.179Z" fill="#ecf2fe" fill-rule="evenodd" data-name="Path 5694"/><path d="m110.106 542.4-.49.702a.838.838 0 0 1 .49-.702Z" fill="#ecf2fe" fill-rule="evenodd" data-name="Path 5696"/><path d="m129.55 543.06-.395-.65.395.65Z" fill="#ecf2fe" fill-rule="evenodd" data-name="Path 5697"/><path d="m133.206 556.28-.53.49.53-.49Z" fill="#ecf2fe" fill-rule="evenodd" data-name="Path 5699"/><path d="m101.839 496.117-.481.553.48-.553Z" fill="#ecf2fe" fill-rule="evenodd" data-name="Path 5701"/><path d="m130.104 495.61-.484-.52.484.52Z" fill="#ecf2fe" fill-rule="evenodd" data-name="Path 5702"/><path d="m102.354 495.088-.487.544.487-.544Z" fill="#ecf2fe" fill-rule="evenodd" data-name="Path 5703"/><path d="m129.584 494.61-.498-.556.498.556Z" fill="#ecf2fe" fill-rule="evenodd" data-name="Path 5704"/><path d="m119.321 557.301.514-.51-.514.51Z" fill="#ecf2fe" fill-rule="evenodd" data-name="Path 5705"/><path d="m132.66 556.785-.472.604c.158-.2.315-.403.473-.604Z" fill="#ecf2fe" fill-rule="evenodd" data-name="Path 5706"/><path d="m102.89 494.056-.503.562.502-.562Z" fill="#ecf2fe" fill-rule="evenodd" data-name="Path 5708"/><path d="m129.083 494.05-.482-.5.482.5Z" fill="#ecf2fe" fill-rule="evenodd" data-name="Path 5709"/><path d="m103.377 493.537-.49.522.49-.522Z" fill="#ecf2fe" fill-rule="evenodd" data-name="Path 5710"/><path d="m128.554 493.074-.513-.556.513.556Z" fill="#ecf2fe" fill-rule="evenodd" data-name="Path 5711"/><path d="m128.048 492.526-.516-.525.516.525Z" fill="#ecf2fe" fill-rule="evenodd" data-name="Path 5712"/><path d="m104.44 492.004-.519.525.52-.525Z" fill="#ecf2fe" fill-rule="evenodd" data-name="Path 5713"/><path d="m127.537 492.007-.517-.52.517.52Z" fill="#ecf2fe" fill-rule="evenodd" data-name="Path 5714"/><path d="M104.954 491.49Z" fill="#ecf2fe" fill-rule="evenodd" data-name="Path 5715"/><path d="m127.024 491.49-.522-.516.522.517Z" fill="#ecf2fe" fill-rule="evenodd" data-name="Path 5716"/><path d="m108.536 557.299.51.517-.51-.517Z" fill="#ecf2fe" fill-rule="evenodd" data-name="Path 5717"/><path d="m126.509 490.981-.526-.517.526.517Z" fill="#ecf2fe" fill-rule="evenodd" data-name="Path 5718"/><path d="m105.986 490.465-.525.52.525-.52Z" fill="#ecf2fe" fill-rule="evenodd" data-name="Path 5719"/><path d="m118.294 557.816.514-.511-.514.51Z" fill="#ecf2fe" fill-rule="evenodd" data-name="Path 5720"/><path d="m124.975 489.92-.525-.49.525.49Z" fill="#ecf2fe" fill-rule="evenodd" data-name="Path 5722"/><path d="m107.52 489.432-.527.497.527-.497Z" fill="#ecf2fe" fill-rule="evenodd" data-name="Path 5723"/><path d="m117.265 558.33.516-.512-.516.511Z" fill="#ecf2fe" fill-rule="evenodd" data-name="Path 5724"/><path d="m109.05 558.327.512.517c-.17-.172-.34-.345-.512-.517Z" fill="#ecf2fe" fill-rule="evenodd" data-name="Path 5725"/><path d="m116.236 558.842.518-.51-.518.51Z" fill="#ecf2fe" fill-rule="evenodd" data-name="Path 5726"/><path d="m109.563 558.844.513.514-.513-.514Z" fill="#ecf2fe" fill-rule="evenodd" data-name="Path 5728"/><path d="m115.21 559.357.517-.51-.518.51Z" fill="#ecf2fe" fill-rule="evenodd" data-name="Path 5729"/><path d="M110.076 559.358Z" fill="#ecf2fe" fill-rule="evenodd" data-name="Path 5731"/><path d="m132.698 559.32.53.533-.53-.533Z" fill="#ecf2fe" fill-rule="evenodd" data-name="Path 5732"/><path d="M126.498 514.614Z" fill="#ecf2fe" fill-rule="evenodd" data-name="Path 5733"/><path d="m127.54 560.387-.533-.505.533.505Z" fill="#ecf2fe" fill-rule="evenodd" data-name="Path 5734"/><path d="m133.21 559.836.533.53-.532-.53Z" fill="#ecf2fe" fill-rule="evenodd" data-name="Path 5735"/><path d="m136.245 560.375.51-.61a.811.811 0 0 1-.51.61Z" fill="#ecf2fe" fill-rule="evenodd" data-name="Path 5736"/><path d="m104.949 514.09.523.522-.523-.521Z" fill="#ecf2fe" fill-rule="evenodd" data-name="Path 5737"/><path d="m128.03 560.991-.488-.604.488.604Z" fill="#ecf2fe" fill-rule="evenodd" data-name="Path 5738"/><path d="m127.012 514.1.522-.522-.522.523Z" fill="#ecf2fe" fill-rule="evenodd" data-name="Path 5739"/><path d="m104.436 513.577.52.523-.52-.523Z" fill="#ecf2fe" fill-rule="evenodd" data-name="Path 5740"/><path d="m99.27 534.666.529-.514-.528.514Z" fill="#ecf2fe" fill-rule="evenodd" data-name="Path 5741"/><path d="m97.734 536.212.513-.556-.513.556Z" fill="#ecf2fe" fill-rule="evenodd" data-name="Path 5742"/><path d="m97.242 536.734.5-.53-.5.53Z" fill="#ecf2fe" fill-rule="evenodd" data-name="Path 5743"/><path d="M124.491 562.336c.148.203.297.406.444.61l-.444-.61Z" fill="#ecf2fe" fill-rule="evenodd" data-name="Path 5753"/><path d="m141.007 562.477-.62.488.62-.488Z" fill="#ecf2fe" fill-rule="evenodd" data-name="Path 5754"/><path d="M127.526 513.586Z" fill="#ecf2fe" fill-rule="evenodd" data-name="Path 5755"/><path d="m127.551 539.76-.448-.467.448.468Z" fill="#ecf2fe" fill-rule="evenodd" data-name="Path 5756"/><path d="m140.39 562.961-.502.583.502-.583Z" fill="#ecf2fe" fill-rule="evenodd" data-name="Path 5758"/><path d="m143.452 563.5-.534-.526.534.527Z" fill="#ecf2fe" fill-rule="evenodd" data-name="Path 5759"/><path d="M103.924 513.06Z" fill="#ecf2fe" fill-rule="evenodd" data-name="Path 5763"/><path d="m119.831 563.999-.534-.515.534.515Z" fill="#ecf2fe" fill-rule="evenodd" data-name="Path 5764"/><path d="m124.999 563.38.498.601-.498-.602Z" fill="#ecf2fe" fill-rule="evenodd" data-name="Path 5765"/><path d="m128.068 563.987.482-.586-.482.586Z" fill="#ecf2fe" fill-rule="evenodd" data-name="Path 5766"/><path d="M143.965 564.017Z" fill="#ecf2fe" fill-rule="evenodd" data-name="Path 5767"/><path d="m125.492 563.975.538.51-.538-.51Z" fill="#ecf2fe" fill-rule="evenodd" data-name="Path 5771"/><path d="m127.519 564.49.537-.49-.537.49Z" fill="#ecf2fe" fill-rule="evenodd" data-name="Path 5772"/><path d="M139.848 563.99c.026.17.026.337 0 .505-.062-.12-.136-.235-.175-.361-.008-.028.113-.095.175-.143Z" fill="#ecf2fe" fill-rule="evenodd" data-name="Path 5773"/><path d="m133.192 543.932-.518-.512.518.512Z" fill="#ecf2fe" fill-rule="evenodd" data-name="Path 5790"/><path d="m117.772 534.196-.482-.541.482.541Z" fill="#ecf2fe" fill-rule="evenodd" data-name="Path 5791"/><path d="m91.068 533.134-.497.56.497-.56Z" fill="#ecf2fe" fill-rule="evenodd" data-name="Path 5794"/><path d="m133.705 544.446-.513-.514.513.514Z" fill="#ecf2fe" fill-rule="evenodd" data-name="Path 5816"/><path d="m139.888 564.943.483.587-.483-.587Z" fill="#ecf2fe" fill-rule="evenodd" data-name="Path 5827"/><path d="m140.381 565.54.494.505-.494-.504Z" fill="#ecf2fe" fill-rule="evenodd" data-name="Path 5838"/><path d="m124.443 516.156.53-.5-.53.5Z" fill="#ecf2fe" fill-rule="evenodd" data-name="Path 5839"/><path d="m106.995 515.65.53.505-.53-.504Z" fill="#ecf2fe" fill-rule="evenodd" data-name="Path 5841"/><path d="m117.256 533.176-.498-.557.498.557Z" fill="#ecf2fe" fill-rule="evenodd" data-name="Path 5842"/><path d="m133.273 566.066-.596.482.596-.482Z" fill="#ecf2fe" fill-rule="evenodd" data-name="Path 5847"/><path d="m140.894 566.065.509.492-.509-.492Z" fill="#ecf2fe" fill-rule="evenodd" data-name="Path 5848"/><path d="M143.984 566.557c.161-.2.323-.4.484-.602-.161.2-.323.4-.484.602Z" fill="#ecf2fe" fill-rule="evenodd" data-name="Path 5849"/><path d="m132.669 566.556-.494.54.494-.54Z" fill="#ecf2fe" fill-rule="evenodd" data-name="Path 5856"/><path d="m141.41 566.564.59.485-.59-.485Z" fill="#ecf2fe" fill-rule="evenodd" data-name="Path 5857"/><path d="m143.4 567.053.578-.49-.579.49Z" fill="#ecf2fe" fill-rule="evenodd" data-name="Path 5858"/><path d="m128.591 512.054.49-.52-.49.52Z" fill="#ecf2fe" fill-rule="evenodd" data-name="Path 5859"/><path d="m102.89 511.527.496.526-.496-.526Z" fill="#ecf2fe" fill-rule="evenodd" data-name="Path 5860"/><path d="M112.557 540.218a.716.716 0 0 1-.412.132l-.002-.56.414.428Z" fill="#ecf2fe" fill-rule="evenodd" data-name="Path 5861"/><path d="M142.443 567.094c.167-.025.335-.025.501.002-.168.268-.335.265-.5-.002Z" fill="#ecf2fe" fill-rule="evenodd" data-name="Path 5863"/><path d="m134.218 544.963-.512-.517.512.517Z" fill="#ecf2fe" fill-rule="evenodd" data-name="Path 5864"/><path d="M128.048 540.344Z" fill="#ecf2fe" fill-rule="evenodd" data-name="Path 5865"/><path d="m136.248 568.19-.476-.606.476.607Z" fill="#ecf2fe" fill-rule="evenodd" data-name="Path 5868"/><path d="m92.095 531.59-.504.53.504-.53Z" fill="#ecf2fe" fill-rule="evenodd" data-name="Path 5869"/><path d="m116.231 531.61-.513-.53.513.53Z" fill="#ecf2fe" fill-rule="evenodd" data-name="Path 5870"/><path d="m125.561 569.663-.59.472.59-.472Z" fill="#ecf2fe" fill-rule="evenodd" data-name="Path 5893"/><path d="M132.696 569.607Z" fill="#ecf2fe" fill-rule="evenodd" data-name="Path 5912"/><path d="m134.731 545.991-.51-.516.51.516Z" fill="#ecf2fe" fill-rule="evenodd" data-name="Path 5919"/><path d="m124.95 570.154-.485.533.486-.533Z" fill="#ecf2fe" fill-rule="evenodd" data-name="Path 5920"/><path d="M92.59 531.075Z" fill="#ecf2fe" fill-rule="evenodd" data-name="Path 5927"/><path d="m133.196 570.146.53.515-.53-.515Z" fill="#ecf2fe" fill-rule="evenodd" data-name="Path 5928"/><path d="m135.724 570.652.518-.602a.795.795 0 0 1-.518.602Z" fill="#ecf2fe" fill-rule="evenodd" data-name="Path 5929"/><path d="m115.723 531.086-.51-.523.51.523Z" fill="#ecf2fe" fill-rule="evenodd" data-name="Path 5941"/><path d="m129.079 511.536.502-.562-.502.562Z" fill="#ecf2fe" fill-rule="evenodd" data-name="Path 5944"/><path d="M126.517 538.756a.67.67 0 0 1-.548-.464l.548.464Z" fill="#ecf2fe" fill-rule="evenodd" data-name="Path 5955"/><path d="m106.489 515.162.505.489-.505-.49Z" fill="#ecf2fe" fill-rule="evenodd" data-name="Path 5957"/><path d="m93.094 530.573-.485.483.485-.483Z" fill="#ecf2fe" fill-rule="evenodd" data-name="Path 5961"/><path d="m109.568 535.18.514.522-.514-.522Z" fill="#ecf2fe" fill-rule="evenodd" data-name="Path 5962"/><path d="m115.213 530.563-.511-.514.51.514Z" fill="#ecf2fe" fill-rule="evenodd" data-name="Path 5963"/><path d="M112.148 540.342a.647.647 0 0 1-.535.469l.535-.469Z" fill="#ecf2fe" fill-rule="evenodd" data-name="Path 5979"/><path d="M114.7 530.046Z" fill="#ecf2fe" fill-rule="evenodd" data-name="Path 5985"/><path d="m128.524 541.004-.48-.665a.84.84 0 0 1 .48.665Z" fill="#ecf2fe" fill-rule="evenodd" data-name="Path 5986"/><path d="m124.983 573.733.513.532-.513-.532Z" fill="#ecf2fe" fill-rule="evenodd" data-name="Path 5987"/><path d="m127.549 574.27.503-.52-.503.52Z" fill="#ecf2fe" fill-rule="evenodd" data-name="Path 5988"/><path d="m114.185 529.534-.522-.51.522.51Z" fill="#ecf2fe" fill-rule="evenodd" data-name="Path 5995"/><path d="m116.774 577.282.495.585-.495-.585Z" fill="#ecf2fe" fill-rule="evenodd" data-name="Path 5996"/><path d="m117.27 577.869.595.49-.595-.49Z" fill="#ecf2fe" fill-rule="evenodd" data-name="Path 5998"/><path d="m89.026 580.404.515.546-.515-.546Z" fill="#ecf2fe" fill-rule="evenodd" data-name="Path 6005"/><path d="m95.68 580.948.514-.552-.514.552Z" fill="#ecf2fe" fill-rule="evenodd" data-name="Path 6006"/><path d="M105.47 490.977Z" fill="#ecf2fe" fill-rule="evenodd" data-name="Path 6009"/><path d="M115.962 515.16c-5.837.648-12.45-5.158-12.522-12.28-.064-6.451 5.76-12.606 12.585-12.584 6.65.021 12.449 5.962 12.514 12.398.065 6.468-5.789 13.063-12.577 12.465Z" fill="#fff" fill-rule="evenodd" data-name="Path 6049"/><path d="M119.975 509.731c-.628-.077-1.102-.421-1.509-.877-1.246-1.4-2.48-2.811-3.738-4.2-.798-.88-.81-1.836-.33-2.841 1.285-2.69 2.59-5.372 3.879-8.06.454-.949 1.116-1.543 2.222-1.186.914.294 1.14 1.28.53 2.616-.885 1.937-1.842 3.842-2.792 5.748-1.165 2.337-.992 1.9.59 3.691.844.955 1.876 1.773 2.427 2.948.536 1.142-.15 2.224-1.279 2.161Z" fill="#8493ac" fill-rule="evenodd" data-name="Path 6086"/></g></g></svg>