<svg xmlns="http://www.w3.org/2000/svg" width="141.244" height="104.931" viewBox="507.805 100.506 141.244 104.931"><g data-name="Group 3898"><path d="M627.892 152.971c0 28.976-23.491 52.466-52.466 52.466-28.976 0-52.466-23.49-52.466-52.466 0-28.975 23.49-52.465 52.466-52.465 28.975 0 52.466 23.49 52.466 52.465Z" fill="#8fd6f9" fill-rule="evenodd" data-name="Path 1044"/><g data-name="Group 3897"><g data-name="Group 3896" clip-path="url(&quot;#a&quot;)"><g data-name="Group 3895"><g data-name="Group 3869"><path d="M649.028 191.815c-.171 1.983-1.963 3.437-3.952 3.437H526.203c-9.725 0-18.034-7.544-18.386-17.262-.369-10.182 7.811-18.582 17.91-18.582h79.507c5.749 0 10.409-4.661 10.409-10.41v-1.938c0-5.747-4.66-10.408-10.409-10.408h-27.258a.037.037 0 0 1-.038-.037v-7.477c0-.02.016-.036.038-.036h27.258c9.918 0 17.959 8.041 17.959 17.958v1.928c0 9.925-8.045 17.969-17.967 17.969h-79.162c-5.417 0-10.174 4.011-10.665 9.404-.561 6.153 4.289 11.341 10.328 11.341h119.541a3.773 3.773 0 0 1 3.76 4.113Z" fill="#92b72e" fill-rule="evenodd" data-name="Path 1045"/></g><g data-name="Group 3870"><path d="M615.643 144.258v2.002c0 .132-.009.254-.02.387-.197-5.54-4.766-9.995-10.352-9.995h-27.333v-2.765h27.333c5.719 0 10.372 4.653 10.372 10.371Z" fill="#eaf1f4" fill-rule="evenodd" data-name="Path 1046"/><path d="M645.272 192.481H525.73c-9.415 0-17.142-7.302-17.853-16.539-.035.458-.068.917-.068 1.384 0 9.885 8.038 17.926 17.921 17.926h119.542a3.777 3.777 0 0 0 3.777-3.776c0-.49-.101-.956-.272-1.384a3.77 3.77 0 0 1-3.505 2.389Z" fill="#eaf1f4" fill-rule="evenodd" data-name="Path 1047"/></g><g data-name="Group 3888"><g data-name="Group 3871"><path d="M570.372 158.291h28.063v9.744h-28.063v-9.744z" fill="#eaf1f4" fill-rule="evenodd" data-name="Rectangle 93"/><path d="M570.372 166.276h28.063v1.76h-28.063v-1.76z" fill="#eaf1f4" fill-rule="evenodd" data-name="Rectangle 94"/><path d="M570.372 160.05h28.063v3.942h-28.063v-3.941z" fill="#fff" fill-rule="evenodd" data-name="Rectangle 95"/></g><g data-name="Group 3886"><g data-name="Group 3878"><path d="m574.422 154.356 1.202-3.751a.459.459 0 0 1 .437-.319h6.632v4.668h-7.833a.46.46 0 0 1-.438-.598Z" fill="#eaf1f4" fill-rule="evenodd" data-name="Path 1048"/><g data-name="Group 3877"><g data-name="Group 3872"><path d="M575.333 154.566a.196.196 0 0 1-.185-.253l1.076-3.397a.194.194 0 0 1 .371.118l-1.076 3.396a.195.195 0 0 1-.186.136Z" fill="#eaf1f4" fill-rule="evenodd" data-name="Path 1049"/></g><g data-name="Group 3873"><path d="M576.408 154.566a.192.192 0 0 1-.184-.253l1.074-3.397a.196.196 0 0 1 .245-.126.192.192 0 0 1 .125.244l-1.073 3.396a.197.197 0 0 1-.187.136Z" fill="#eaf1f4" fill-rule="evenodd" data-name="Path 1050"/></g><g data-name="Group 3874"><path d="M577.483 154.566a.196.196 0 0 1-.185-.253l1.076-3.397a.195.195 0 0 1 .371.118l-1.077 3.396a.192.192 0 0 1-.185.136Z" fill="#eaf1f4" fill-rule="evenodd" data-name="Path 1051"/></g><g data-name="Group 3875"><path d="M578.56 154.566a.194.194 0 0 1-.186-.253l1.075-3.397a.195.195 0 0 1 .372.118l-1.076 3.396a.195.195 0 0 1-.185.136Z" fill="#eaf1f4" fill-rule="evenodd" data-name="Path 1052"/></g><g data-name="Group 3876"><path d="M579.636 154.566a.195.195 0 0 1-.187-.253l1.076-3.397a.195.195 0 0 1 .371.118l-1.075 3.396a.194.194 0 0 1-.185.136Z" fill="#eaf1f4" fill-rule="evenodd" data-name="Path 1053"/></g></g></g><g data-name="Group 3885"><path d="m594.719 154.356-1.2-3.751a.46.46 0 0 0-.437-.319h-6.633v4.668h7.833a.458.458 0 0 0 .437-.598Z" fill="#eaf1f4" fill-rule="evenodd" data-name="Path 1054"/><g data-name="Group 3884"><g data-name="Group 3879"><path d="M593.81 154.566a.195.195 0 0 1-.188-.136l-1.073-3.396a.192.192 0 0 1 .125-.244c.1-.031.214.024.244.126l1.076 3.397a.194.194 0 0 1-.184.253Z" fill="#eaf1f4" fill-rule="evenodd" data-name="Path 1055"/></g><g data-name="Group 3880"><path d="M592.733 154.566a.192.192 0 0 1-.184-.136l-1.076-3.396a.192.192 0 0 1 .128-.244.197.197 0 0 1 .243.126l1.074 3.397a.194.194 0 0 1-.185.253Z" fill="#eaf1f4" fill-rule="evenodd" data-name="Path 1056"/></g><g data-name="Group 3881"><path d="M591.659 154.566a.194.194 0 0 1-.186-.136l-1.075-3.396a.193.193 0 0 1 .126-.244c.1-.031.212.024.244.126l1.076 3.397a.195.195 0 0 1-.185.253Z" fill="#eaf1f4" fill-rule="evenodd" data-name="Path 1057"/></g><g data-name="Group 3882"><path d="M590.584 154.566a.191.191 0 0 1-.186-.136l-1.076-3.396a.194.194 0 0 1 .126-.244c.1-.031.213.024.246.126l1.074 3.397a.196.196 0 0 1-.184.253Z" fill="#eaf1f4" fill-rule="evenodd" data-name="Path 1058"/></g><g data-name="Group 3883"><path d="M589.508 154.566a.194.194 0 0 1-.186-.136l-1.075-3.396a.193.193 0 0 1 .126-.244c.1-.031.214.024.245.126l1.076 3.397a.195.195 0 0 1-.186.253Z" fill="#eaf1f4" fill-rule="evenodd" data-name="Path 1059"/></g></g></g></g><g data-name="Group 3887"><path d="M589.151 158.291h-9.16l1.653-8.005h5.853l1.654 8.005Z" fill="#eaf1f4" fill-rule="evenodd" data-name="Path 1060"/><path d="m582.487 150.286-.754 7.204 7.418.801h-9.16l1.653-8.005h.843Z" fill="#eaf1f4" fill-rule="evenodd" data-name="Path 1061"/></g></g><g data-name="Group 3890"><path d="M572.826 127.901h5.112v9.994h-5.112v-9.994z" fill="#007fc6" fill-rule="evenodd" data-name="Rectangle 96"/><g data-name="Group 3889"><path d="M573.477 128.294h3.81v.325h-3.81v-.325z" fill="#c7d8dd" fill-rule="evenodd" data-name="Rectangle 97"/><path d="M573.477 129.28h3.81v.326h-3.81v-.326z" fill="#c7d8dd" fill-rule="evenodd" data-name="Rectangle 98"/><path d="M573.477 130.267h3.81v.327h-3.81v-.327z" fill="#c7d8dd" fill-rule="evenodd" data-name="Rectangle 99"/><path d="M573.477 131.255h3.81v.326h-3.81v-.326z" fill="#c7d8dd" fill-rule="evenodd" data-name="Rectangle 100"/><path d="M573.477 132.242h3.81v.326h-3.81v-.326z" fill="#c7d8dd" fill-rule="evenodd" data-name="Rectangle 101"/><path d="M573.477 133.229h3.81v.326h-3.81v-.326z" fill="#c7d8dd" fill-rule="evenodd" data-name="Rectangle 102"/><path d="M573.477 134.216h3.81v.326h-3.81v-.326z" fill="#c7d8dd" fill-rule="evenodd" data-name="Rectangle 103"/><path d="M573.477 135.204h3.81v.325h-3.81v-.325z" fill="#c7d8dd" fill-rule="evenodd" data-name="Rectangle 104"/><path d="M573.477 136.19h3.81v.326h-3.81v-.326z" fill="#c7d8dd" fill-rule="evenodd" data-name="Rectangle 105"/><path d="M573.477 137.178h3.81v.326h-3.81v-.326z" fill="#c7d8dd" fill-rule="evenodd" data-name="Rectangle 106"/></g></g><g data-name="Group 3891"><path d="M552.814 142.928h-7.536v-5.466c0-4.646 3.781-8.427 8.427-8.427h19.122v7.537h-19.122a.892.892 0 0 0-.891.89v5.466Z" fill="#eaf1f4" fill-rule="evenodd" data-name="Path 1062"/></g><g data-name="Group 3892"><path d="M572.822 129.033v7.536H553.7a.889.889 0 0 0-.882.893v5.47h-7.537v-5.47c0-4.651 3.779-8.429 8.419-8.429h19.122Z" fill="#eaf1f4" fill-rule="evenodd" data-name="Path 1063"/></g><path d="M572.822 133.931v2.638H553.7a.889.889 0 0 0-.882.893v5.47h-1.529l-.301-.495v-6.149a2.356 2.356 0 0 1 2.356-2.357h19.478Z" fill="#eaf1f4" fill-rule="evenodd" data-name="Path 1064"/><path d="M571.07 129.049h-14.955l3.03-6.715h8.896l3.03 6.715Z" fill="#eaf1f4" fill-rule="evenodd" data-name="Path 1065"/><path d="M556.326 136.56h14.534c-1.883 2.144-4.478 3.357-7.192 3.357h-.149c-2.714 0-5.311-1.213-7.193-3.357Z" fill="#eaf1f4" fill-rule="evenodd" data-name="Path 1066"/><path d="M556.326 136.56h14.534c-1.883 2.144-4.478 3.357-7.192 3.357h-.149c-2.714 0-5.311-1.213-7.193-3.357Z" fill="#eaf1f4" fill-rule="evenodd" data-name="Path 1067"/><path d="M552.846 143.784h-7.743a.67.67 0 0 1-.67-.672.67.67 0 0 1 .67-.671h7.743a.672.672 0 0 1 0 1.343Z" fill="#fff" fill-rule="evenodd" data-name="Path 1068"/><path d="M562.118 117.597h2.948v4.736h-2.948v-4.736z" fill="#eaf1f4" fill-rule="evenodd" data-name="Rectangle 107"/><path d="M562.118 117.597h.791v4.736h-.79v-4.736z" fill="#c7d8dd" fill-rule="evenodd" data-name="Rectangle 108"/><g data-name="Group 3893"><path d="M551.976 151.617a3.318 3.318 0 1 1-6.636 0c0-1.832 3.318-6.332 3.318-6.332s3.318 4.5 3.318 6.332Z" fill="#007fc6" fill-rule="evenodd" data-name="Path 1069"/><path d="M549.127 154.257a3.317 3.317 0 0 1-3.317-3.318c0-1.282 1.621-3.863 2.595-5.302-.767 1.085-3.065 4.454-3.065 5.98a3.317 3.317 0 0 0 3.318 3.318 3.307 3.307 0 0 0 2.925-1.782 3.3 3.3 0 0 1-2.456 1.104Z" fill="#1ba1dd" fill-rule="evenodd" data-name="Path 1070"/><path d="M550.464 148.518s1.216 2.502 1.21 3.233c-.007.729-.439 1.539-1.308 1.643 0 0 1.297-1.76.098-4.876Z" fill="#1ba1dd" fill-rule="evenodd" data-name="Path 1071"/></g><g data-name="Group 3894"><path d="M569.674 172.03a2.095 2.095 0 0 1-4.188 0c0-1.156 2.093-3.995 2.093-3.995s2.095 2.839 2.095 3.995Z" fill="#007fc6" fill-rule="evenodd" data-name="Path 1072"/><path d="M567.875 173.695a2.094 2.094 0 0 1-2.094-2.093c0-.809 1.025-2.438 1.64-3.346-.486.685-1.935 2.811-1.935 3.774a2.086 2.086 0 0 0 3.939.968 2.077 2.077 0 0 1-1.55.697Z" fill="#1ba1dd" fill-rule="evenodd" data-name="Path 1073"/><path d="M568.72 170.075s.765 1.579.762 2.038c-.003.462-.276.973-.824 1.038 0 0 .819-1.109.062-3.076Z" fill="#1ba1dd" fill-rule="evenodd" data-name="Path 1074"/></g><path d="M570.314 114.248a2.54 2.54 0 0 0-2.114.324c-1.313.878-2.931 1.181-4.514 1.181h-.187c-1.581 0-3.199-.303-4.515-1.181a2.537 2.537 0 0 0-2.112-.324 2.495 2.495 0 0 0-1.719 1.735 2.534 2.534 0 0 0 2.437 3.22c.535 0 1.028-.167 1.435-.451 1.216-.849 2.731-1.155 4.214-1.155h.708c1.482 0 2.997.306 4.212 1.155a2.5 2.5 0 0 0 1.438.451 2.532 2.532 0 0 0 2.435-3.22 2.494 2.494 0 0 0-1.718-1.735Z" fill="#eaf1f4" fill-rule="evenodd" data-name="Path 1075"/><path d="M570.314 114.248a2.54 2.54 0 0 0-2.114.324c-1.313.878-2.931 1.181-4.514 1.181h-.187c-1.581 0-3.199-.303-4.515-1.181a2.537 2.537 0 0 0-2.112-.324 2.495 2.495 0 0 0-1.719 1.735 2.534 2.534 0 0 0 2.437 3.22c.535 0 1.028-.167 1.435-.451 1.216-.849 2.731-1.155 4.214-1.155h.708c1.482 0 2.997.306 4.212 1.155a2.5 2.5 0 0 0 1.438.451 2.532 2.532 0 0 0 2.435-3.22 2.494 2.494 0 0 0-1.718-1.735Z" fill="#eaf1f4" fill-rule="evenodd" data-name="Path 1076"/><path d="M570.012 118.81a2.487 2.487 0 0 1-1.436-.451c-1.217-.847-2.731-1.153-4.215-1.153h-.705c-1.484 0-2.998.306-4.215 1.153a2.49 2.49 0 0 1-1.437.451 2.532 2.532 0 0 1-2.434-3.219c.091-.346.277-.654.504-.926-.437.329-.778.785-.921 1.318a2.534 2.534 0 0 0 2.437 3.22c.535 0 1.028-.167 1.435-.451 1.216-.849 2.731-1.155 4.214-1.155h.708c1.482 0 2.997.306 4.212 1.155a2.512 2.512 0 0 0 3.365-.456 2.505 2.505 0 0 1-1.512.514Z" fill="#c7d8dd" fill-rule="evenodd" data-name="Path 1077"/><path d="m559.786 122.334-1.267 6.188 12.551.527h-14.955l3.03-6.715h.641Z" fill="#c7d8dd" fill-rule="evenodd" data-name="Path 1078"/><path d="M571.599 115.336a1.467 1.467 0 0 1-.327 2.048c-.655.474-.669-.325-1.144-.981-.476-.655-1.23-.917-.575-1.392a1.465 1.465 0 0 1 2.046.325Z" fill="#fff" fill-rule="evenodd" data-name="Path 1079"/><path d="M556.174 114.936a1.462 1.462 0 0 1 2.059-.215c.628.509-.138.732-.649 1.36-.509.628-.568 1.425-1.195.915a1.461 1.461 0 0 1-.215-2.06Z" fill="#fff" fill-rule="evenodd" data-name="Path 1080"/></g></g></g></g><defs><clipPath id="a"><path d="M627.892 152.971c0 28.976-23.491 52.466-52.466 52.466-28.976 0-52.466-23.49-52.466-52.466 0-28.975 23.49-52.465 52.466-52.465 28.975 0 52.466 23.49 52.466 52.465Z" data-name="SVGID"/></clipPath></defs></svg>