<svg xmlns="http://www.w3.org/2000/svg" width="260.431" height="258.263" viewBox="78 2.691 260.431 258.263"><g data-name="Group 3927"><g data-name="Group 3918"><path d="M116.096 169.202a99.908 98.908-22 1 1 .037.093z" fill="#fff" fill-rule="evenodd" data-name="Ellipse 81"/><g data-name="Group 3916"><path d="M113.315 166.777s-9.408 13.602-12.92 8.55c-3.51-5.05 12.92-8.55 12.92-8.55Z" fill="#b1d0fc" fill-rule="evenodd" data-name="Path 1111"/><path d="M108.687 104.977S88.18 99.93 92.612 93.444c4.432-6.486 16.075 11.533 16.075 11.533Z" fill="#b1d0fc" fill-rule="evenodd" data-name="Path 1112"/><path d="M93.337 147.361s-8.634 11.51-11.518 7c-2.883-4.507 11.518-7 11.518-7Z" fill="#b1d0fc" fill-rule="evenodd" data-name="Path 1113"/><path d="M89.947 124.217s-3.666-3.909-6.965-2.998c-3.3.91.217 6.19 1.937 4.391 1.72-1.8-2.499-4.017-6.919-2.4" stroke-linejoin="round" stroke-linecap="round" stroke="#b1d0fc" fill="transparent" data-name="Path 1114"/><path d="M94.812 162.974s2.377-2.774 7.86-5.462" stroke-linejoin="round" stroke-linecap="round" stroke="#b1d0fc" fill="transparent" data-name="Path 1115"/><path d="M102.12 116.95a3.648 3.648 0 1 1-6.865 2.467 3.648 3.648 0 0 1 6.865-2.466Z" fill="#b1d0fc" fill-rule="evenodd" data-name="Path 1116"/><path d="M116.53 86.317s-2.645-5.55-6.829-9.13" stroke-linejoin="round" stroke-linecap="round" stroke="#b1d0fc" fill="transparent" data-name="Path 1117"/></g><g data-name="Group 3917"><path d="M308.855 162.364s14.031-12.605 17.599-4.043c3.567 8.56-17.599 4.043-17.599 4.043Z" fill="#b1d0fc" fill-rule="evenodd" data-name="Path 1118"/><path d="M312.344 116.979s12.94-18.732 17.777-11.781c4.839 6.95-17.777 11.78-17.777 11.78Z" fill="#b1d0fc" fill-rule="evenodd" data-name="Path 1119"/><path d="M324.864 132.803s-5.752-.536-7.764 2.557c-2.012 3.092 4.598 4.84 4.7 2.16.104-2.681-4.886-1.457-7.298 3.007" stroke-linejoin="round" stroke-linecap="round" stroke="#b1d0fc" fill="transparent" data-name="Path 1120"/><path d="M313.628 89.7s.33-3.083 5.785-8.607" stroke-linejoin="round" stroke-linecap="round" stroke="#b1d0fc" fill="transparent" data-name="Path 1121"/><path d="M289.243 88.616a3.718 3.718 0 1 1 0 .1z" fill="#b1d0fc" fill-rule="evenodd" data-name="Ellipse 82"/></g></g><g data-name="Group 3926"><g data-name="Group 3919"><path d="M180.68 187.406s-71.036-5.363-85.369 3.722c-8.392 5.32 39.757.97 28.873 5.339-10.885 4.368 0 40.32 78.55 40.32 101.74 0 109.55-27.875 95.513-32.915-14.037-5.04 24.798-3.513 28.154-12.51 3.356-8.996-28.926-6.955-79.427-9.32-50.5-2.364-73.355-2.171-66.294 5.364Z" fill="#95deff" fill-rule="evenodd" data-name="Path 1122"/><path d="M127.082 209.394s15.766 4.416 37.531 5.467c21.765 1.051 27.232-1.051 27.232-1.051l-64.763-4.416Z" fill="#95deff" fill-rule="evenodd" data-name="Path 1123"/><path d="M231.7 218s16.204 2.352 37.923.597c21.72-1.756 26.871-4.544 26.871-4.544l-64.793 3.948Z" fill="#95deff" fill-rule="evenodd" data-name="Path 1124"/><g data-name="Path 1125"><path d="M122.016 180.705s-12.002 6.465-2.251 27.696c7.936 17.28 32.245 27.696 32.245 27.696" fill="#95deff" fill-rule="evenodd"/><path d="M122.016 180.705s-12.002 6.465-2.251 27.696c7.936 17.28 32.245 27.696 32.245 27.696" stroke-linejoin="round" stroke-linecap="round" stroke="#b1d0fc" fill="transparent"/></g><g data-name="Path 1126"><path d="M102.157 188.434s7.168-2.334 19.335-2.334" fill="#95deff" fill-rule="evenodd"/><path d="M102.157 188.434s7.168-2.334 19.335-2.334" stroke-linejoin="round" stroke-linecap="round" stroke="#b1d0fc" fill="transparent"/></g><g data-name="Path 1127"><path d="M211.254 240.8s50.669 1.001 74.171-12.25c23.502-13.252 23.43-21.684 23.43-21.684" fill="#95deff" fill-rule="evenodd"/><path d="M211.254 240.8s50.669 1.001 74.171-12.25c23.502-13.252 23.43-21.684 23.43-21.684" stroke-linejoin="round" stroke-linecap="round" stroke="#b1d0fc" fill="transparent"/></g><g data-name="Path 1128"><path d="M162.161 238.301s10.993 2.285 29.125 2.517" fill="#95deff" fill-rule="evenodd"/><path d="M162.161 238.301s10.993 2.285 29.125 2.517" stroke-linejoin="round" stroke-linecap="round" stroke="#b1d0fc" fill="transparent"/></g><g data-name="Path 1129"><path d="M308.855 207.996s-1.053-2.25-4.553-3.876c-3.5-1.625 1.5-2.5 6.5-3" fill="#95deff" fill-rule="evenodd"/><path d="M308.855 207.996s-1.053-2.25-4.553-3.876c-3.5-1.625 1.5-2.5 6.5-3" stroke-linejoin="round" stroke-linecap="round" stroke="#b1d0fc" fill="transparent"/></g><g data-name="Path 1130"><path d="M328.93 192.046s6.375 7.084-7.877 12.918" fill="#95deff" fill-rule="evenodd"/><path d="M328.93 192.046s6.375 7.084-7.877 12.918" stroke-linejoin="round" stroke-linecap="round" stroke="#b1d0fc" fill="transparent"/></g></g><g data-name="Group 3925"><g data-name="Group 3921"><path d="M281.268 194.031c14.124 0 25.574 2.463 25.574 5.501 0 3.038-11.45 5.5-25.574 5.5-14.124 0-25.574-2.462-25.574-5.5s11.45-5.5 25.574-5.5Z" fill="#22b0ec" fill-rule="evenodd" data-name="Path 1154"/><g data-name="Group 3920"><path d="M227.887 107.44c.86-1.191 2.415-3.464 2.336-4.244-.107-1.073-2.814 1.3-2.814 1.3s-.49-5.01-1.365-4.982c-.876.026-.571 4.518-.571 4.518s-1.48-3.332-2.53-3.072c-1.052.26.618 4.16.618 4.16s-2.06-1.3-2.769-.832c-.708.468 2.56 5.012 3.752 5.353 0 0 7.952 17.21 16.9 22.517l1.025-3.333s-9.866-7.052-14.582-21.385Z" fill="#8bbdea" fill-rule="evenodd" data-name="Path 1131"/><path d="M313.978 95.313c-.77-.36-2.616 1.23-2.616 1.23s1.077-4.103 0-4.205c-1.078-.103-2.052 3.41-2.052 3.41s-.36-4.487-1.229-4.385c-.87.103-.617 5.13-.617 5.13s-3.027-1.95-2.976-.873c.038.783 1.91 2.803 2.936 3.855-2.557 14.87-11.28 23.297-11.28 23.297l1.505 3.145c8.07-6.565 13.405-24.757 13.405-24.757 1.128-.513 3.693-5.488 2.924-5.847Z" fill="#8bbdea" fill-rule="evenodd" data-name="Path 1132"/><path d="m275.359 195.489-.021-.003-.8-15.59-2.6-.684-.952 16.608c-2.362.864-6.3 2.54-6.775 4.25-.533 1.92 6.958 1.304 10.284.94a1.532 1.532 0 0 0 1.35-1.72l-.486-3.801Z" fill="#53c6fa" fill-rule="evenodd" data-name="Path 1133"/><path d="m288.8 196.062.02-.008-3.804-15.14 2.285-1.416 5.777 15.6c2.511.134 6.768.583 7.723 2.08 1.073 1.678-6.27 3.284-9.558 3.91a1.532 1.532 0 0 1-1.795-1.249l-.647-3.777Z" fill="#53c6fa" fill-rule="evenodd" data-name="Path 1134"/><path d="M237.054 77.736s11.215 20.654 2.188 55.336c-9.027 34.683 11.763 56.333 42.128 49.497 29.315-6.6 43.087-32.476 13.542-71.218-20.231-26.53-57.858-33.615-57.858-33.615Z" fill="#22b0ec" fill-rule="evenodd" data-name="Path 1135"/><path d="M257.024 125.774a2.599 4.406 0 1 1 0 .1z" fill="#222221" fill-rule="evenodd" data-name="Ellipse 84"/><path d="M287.639 120.95c.328 2.411-.559 4.523-1.98 4.716-1.423.194-2.842-1.603-3.17-4.014-.329-2.411.558-4.522 1.98-4.716 1.423-.194 2.842 1.604 3.17 4.015Z" fill="#222221" fill-rule="evenodd" data-name="Path 1136"/><path d="m281.235 131.394-12.713 1.967s.572 5.126 6 5.47c5.733.363 6.979-4.82 6.713-7.437Z" fill="#fff" fill-rule="evenodd" data-name="Path 1137"/><path d="M252.1 85.396s12.556 6.089 22.795 15.73c10.169 9.575 10.032 1.505.594-4.787-9.438-6.293-18.602-10.122-23.39-10.943Z" fill="#fff" fill-rule="evenodd" data-name="Path 1138"/><path d="M241.704 138.404s1.505 13.952 14.089 22.98c12.584 9.027 18.876 5.47 26.262 8.616 7.386 3.147 14.088-1.367 16.14-7.933 2.052-6.565 5.882-4.787 7.66-9.028 1.778-4.24-.899-8.904 1.778-9.984 2.676-1.08 5.102 23.458-11.08 31.049-16.18 7.591-36.794 10.122-47.736-1.778-10.943-11.9-9.985-32.603-8.48-36.067 1.504-3.463.952-.105 1.367 2.145Z" fill="#95deff" fill-rule="evenodd" data-name="Path 1139"/></g></g><g data-name="Group 3923"><path d="M129.214 205.002a25.574 5.5 0 1 1 0 .1z" fill="#22b0ec" fill-rule="evenodd" data-name="Ellipse 85"/><g data-name="Group 3922"><path d="M101.958 135.724c-1.201-1.017-3.501-2.867-4.34-2.849-1.155.027 1.155 3.115 1.155 3.115s-5.392.107-5.436 1.045c-.045.938 4.78.985 4.78.985s-3.683 1.305-3.492 2.449c.19 1.144 4.495-.316 4.495-.316s-1.56 2.093-1.12 2.89c.443.795 5.568-2.32 6.032-3.565 0 0 19.046-7.066 25.459-16.185l-3.476-1.373s-8.353 9.956-24.057 13.804Z" fill="#53c6fa" fill-rule="evenodd" data-name="Path 1140"/><path d="M217.645 118.62c-.368-.833-2.978-.854-2.978-.854s3.763-2.55 2.967-3.392c-.796-.843-4.061 1.304-4.061 1.304s2.877-3.873 2.102-4.405c-.774-.53-4.117 3.702-4.117 3.702s-1.065-3.707-1.784-2.802c-.521.657-.437 3.607-.351 5.178-12.554 10.19-25.534 10.833-25.534 10.833l-1.005 3.599c11.14.398 28.277-10.51 28.277-10.51 1.273.382 6.85-1.821 6.484-2.654Z" fill="#53c6fa" fill-rule="evenodd" data-name="Path 1141"/><path d="m147.127 199.913-.023-.003-.857-16.707-2.784-.733-1.022 17.797c-2.53.927-6.75 2.723-7.26 4.555-.571 2.057 7.456 1.397 11.02 1.006a1.641 1.641 0 0 0 1.448-1.843l-.522-4.072Z" fill="#53c6fa" fill-rule="evenodd" data-name="Path 1142"/><path d="m161.53 200.527.021-.009-4.076-16.224 2.448-1.517 6.191 16.716c2.692.145 7.253.626 8.277 2.229 1.148 1.799-6.72 3.52-10.243 4.19a1.642 1.642 0 0 1-1.923-1.338l-.695-4.047Z" fill="#53c6fa" fill-rule="evenodd" data-name="Path 1143"/><path d="m124.36 89.503-1.984 81.635c-.155 6.395 4.453 11.827 10.553 12.44l39.066 3.926c6.118.615 11.644-3.826 12.64-10.157l12.662-80.523c.2-1.27-.67-2.45-1.897-2.572l-68.708-6.906c-1.23-.123-2.301.868-2.333 2.157Z" fill="#d3deef" fill-rule="evenodd" data-name="Path 1144"/><path d="M189.852 100.326c.777.075 1.329.79 1.205 1.56l-1.912 11.874-9.062 56.306a10.882 10.882 0 0 1-11.786 9.102l-31.376-3.02a10.881 10.881 0 0 1-9.826-11.36l2.53-52.099.811-16.661a1.351 1.351 0 0 1 1.48-1.28l57.936 5.578Z" fill="#fff" fill-rule="evenodd" data-name="Path 1145"/><path d="m189.143 114.318-.585 3.636-8.665 53.865a9.594 9.594 0 0 1-10.393 8.023l-33.806-3.252a9.596 9.596 0 0 1-8.66-10.014l2.591-53.33c1.54-1.653 5.022-4.32 11.235-3.915 8.926.585 15.723 7.992 30.625 6.125 8.29-1.036 13.528-1.6 17.658-1.138Z" fill="#95deff" fill-rule="evenodd" data-name="Path 1146"/><path d="M180.774 88.705s7.696-18.174 16.893-15.683c9.197 2.492-7.805 16.123-16.893 15.683Z" fill="#53c6fa" fill-rule="evenodd" data-name="Path 1147"/><path d="M173.593 87.127s-2.346-13.225 3.37-12.785c5.716.439 1.173 10.18-3.37 12.785Z" fill="#53c6fa" fill-rule="evenodd" data-name="Path 1148"/><path d="M169.925 128.154c.187 2.6 1.583 4.619 3.117 4.508 1.534-.11 2.626-2.308 2.438-4.909-.187-2.6-1.583-4.619-3.117-4.508-1.535.11-2.626 2.309-2.438 4.909Z" fill="#222221" fill-rule="evenodd" data-name="Path 1149"/><path d="M144.773 129.813a2.785 4.72 3.629 1 1 .1.006z" fill="#222221" fill-rule="evenodd" data-name="Ellipse 86"/><path d="m151 135.54 13.738 1.122s-.215 5.523-5.99 6.308c-6.1.83-7.83-4.612-7.748-7.43Z" fill="#fff" fill-rule="evenodd" data-name="Path 1150"/><path d="M130.061 141.977s-1.434 22.399-.57 26.21c.863 3.81 3.898 6.888 9.27 7.181 5.37.294 9.971.733 19.323 1.76 9.353 1.025 12.284 1.172 15.801 0 3.518-1.173 5.424-4.691 4.984-6.157-.44-1.466-5.276 2.346-10.993 2.638-5.716.294-5.723-2.345-13.048-2.345s-11.282.587-15.093-3.664c-3.811-4.25-1.026-9.38-4.25-13.63-3.225-4.252-2.441-20.667-2.98-22.133-.539-1.465-1.715-4.777-2.444 10.14Z" fill="#53c6fa" fill-rule="evenodd" data-name="Path 1151"/><path d="m189.143 113.084-.585 3.637s-4.191 2.4-15.857 2.18c-11.66-.22-14.912-5.592-27.527-3.602-12.62 1.991-15.549-3.288-15.549-3.288 1.54-1.652 5.022-4.319 11.235-3.914 8.926.585 15.723 7.992 30.625 6.125 8.29-1.036 13.528-1.6 17.658-1.138Z" fill="#53c6fa" fill-rule="evenodd" data-name="Path 1152"/><path d="M176.67 164.994c1.32 1.612 8.208-31.925 7.476-36.336-.734-4.41-8.795 34.724-7.475 36.336Z" fill="#c5e3ff" fill-rule="evenodd" data-name="Path 1153"/></g></g></g></g></g></svg>