<svg xmlns="http://www.w3.org/2000/svg" width="17.389" height="19.937" viewBox="239.094 23.655 17.389 19.937"><g data-name="Group 5237"><path d="m255.62 38.803-.003.004c-1.038 2.096-2.877 3.648-4.763 4.245-4.432 1.4-7.436.003-9.193-3.357-1.756-3.36-.36-6.513-.154-9.22.207-2.707-.597-4.61-2.413-6.453 0 0 2.31-.597 5.347-.27h.005c2.853.309 6.345 1.432 9.169 4.627 3.347 3.788 3.403 7.6 2.004 10.424Z" fill="#36b5d4" fill-rule="evenodd" data-name="Path 4355"/><path d="M255.617 38.807c-1.355 1.907-2.877 3.648-4.763 4.245-4.432 1.4-7.436.003-9.193-3.357-1.756-3.36-.36-6.513-.154-9.22.207-2.707-.597-4.61-2.413-6.453 0 0 2.31-.597 5.347-.27-2.233-.09-3.614.581-2.65 2.272 1.83 3.204.864 6.141.986 10.87.12 4.728 8.077 8.62 12.84 1.913Z" fill="#83c4d4" fill-rule="evenodd" data-name="Path 4356"/><g data-name="Group 4940"><path d="M242.638 24.893c.038-.694 2.083-.555 2.132.275.05.83-2.18.604-2.132-.275Z" fill="#fff" fill-rule="evenodd" data-name="Path 4357"/><path d="M246.87 25.419c.59-.762 4.73.963 4.456 2.043s-5.36-.874-4.456-2.043Z" fill="#fff" fill-rule="evenodd" data-name="Path 4358"/></g></g></svg>