<?xml version="1.0" encoding="utf-8"?>
<!-- Created by UniConvertor 2.0rc5 (https://sk1project.net/) -->
<svg xmlns="http://www.w3.org/2000/svg" height="765.795px" width="430.76px" version="1.1" xmlns:xlink="http://www.w3.org/1999/xlink" id="7457e858-d263-11ed-ba6c-0242ac150005">
<defs id="defs1">
	<clipPath clipPathUnits="userSpaceOnUse" id="clipPath1">
		<path style="fill:none;" d="M 0.0,0.0 L 0.0,765.795 430.76,765.795 430.76,0.0 0.0,0.0 Z" /></clipPath>
	<clipPath clipPathUnits="userSpaceOnUse" id="clipPath2">
		<path style="fill:none;" d="M 274.522,362.802 C 274.6621,364.1668 274.742,365.7503 274.742,367.3524 274.742,373.4814 273.5723,379.3378 271.444,384.7104 L 237.905,384.393 C 235.482,369.039 238.757,359.288 238.757,359.288 236.1,358.8141 233.7366,358.0948 231.5019,357.1333 231.713,350.807 237.613,341.954 244.783,339.686 246.686,339.1131 248.3329,338.1926 249.7288,336.989 251.5097,338.7873 253.9533,339.9221 256.6607,340.0254 259.504,340.026 264.545,337.906 265.486,335.15 269.886,337.037 288.372,341.711 292.041,360.27 292.111,360.625 292.177,360.975 292.241,361.322 289.459,362.302 284.122,363.802 274.522,362.802 Z" /></clipPath>
	<clipPath clipPathUnits="userSpaceOnUse" id="clipPath3">
		<path style="fill:none;" d="M 252.849,388.994 C 252.6919,414.344 232.0978,434.8412 206.7258,434.8412 181.2566,434.8412 160.6018,414.1865 160.6018,388.7172 160.6018,363.2479 181.2566,342.5932 206.7258,342.5932 206.8212,342.5932 206.9164,342.5935 207.0116,342.5941 232.3495,342.7485 252.8498,363.3441 252.8498,388.7182 252.8498,388.8152 252.8495,388.912 252.8489,389.0089 Z" /></clipPath>
</defs>
<g>
	<g>
		<g clip-path="url(#clipPath1)">
			<path style="fill:#70aa5d;" d="M 446.627,513.796 C 404.069,478.502 317.114,454.32 216.761,454.32 116.408,454.32 29.453,478.502 -13.107,513.796 L -13.107,719.457 446.627,719.457 446.627,513.796 Z" />
			<path style="fill:#ffffff;" d="M 526.062,319.28 L 265.031,319.28 C 265.031,319.28 269.694,300.634 290.668,302.965 L 311.644,305.295 C 311.644,305.295 318.635,286.649 334.951,281.988 351.267,277.327 353.595,284.319 353.595,284.319 353.595,284.319 344.273,254.019 390.886,240.038 437.499,226.057 446.821,274.997 446.821,274.997 446.821,274.997 451.482,258.682 472.458,265.673 493.434,272.664 493.432,295.973 493.432,295.973 493.432,295.973 526.062,291.312 526.062,319.28 Z" />
			<path style="fill:#ffffff;" d="M -89.14,311.004 L 119.067,311.004 C 119.067,311.004 115.348,296.134 98.619,297.991 L 81.887,299.85 C 81.887,299.85 76.309,284.98 63.296,281.261 50.283,277.542 48.426,283.12 48.426,283.12 48.426,283.12 55.861,258.953 18.681,247.799 -18.499,236.645 -25.934,275.682 -25.934,275.682 -25.934,275.682 -29.653,262.669 -46.385,268.247 -63.117,273.825 -63.114,292.414 -63.114,292.414 -63.114,292.414 -89.14,288.704 -89.14,311.004 Z" />
			<path style="fill:#ffffff;" d="M 117.26,438.155 L -157.43,438.155 C -157.43,438.155 -152.53,418.533 -130.452,420.986 L -108.378,423.438 C -108.378,423.438 -101.021,403.818 -83.854,398.914 -66.687,394.01 -64.23,401.366 -64.23,401.366 -64.23,401.366 -74.04,369.482 -24.989,354.766 24.062,340.05 33.87,391.555 33.87,391.555 33.87,391.555 38.77,374.388 60.849,381.745 82.928,389.102 82.923,413.629 82.923,413.629 82.923,413.629 117.26,408.723 117.26,438.155 Z" />
			<g>
				<path style="fill:#70aa5d;" d="M 216.587,443.132 C 214.6884,435.5913 211.0713,429.0651 206.1657,423.7451 204.8155,427.6869 204.0181,432.197 204.0181,436.893 204.0181,447.8383 208.3495,457.7739 215.3913,465.079 216.6812,461.0837 217.433,456.5004 217.433,451.7418 217.433,448.6957 217.1249,445.7214 216.5383,442.8484 Z" />
				<path style="fill:#70aa5d;" d="M 228.631,453.403 C 231.6074,448.697 233.5076,443.0423 233.8548,436.9723 223.2535,441.9936 215.9731,452.4944 215.5604,464.7331 220.8872,462.0717 225.2845,458.2151 228.5549,453.5158 Z" />
				<path style="fill:#70aa5d;" d="M 198.172,436.549 C 185.724,424.732 168.159,423.025 168.159,423.025 168.159,423.025 170.777,440.477 183.224,452.294 195.671,464.111 213.238,465.816 213.238,465.816 213.238,465.816 210.62,448.364 198.172,436.549 Z" />
			</g>
			<g>
				<path style="fill:#70aa5d;" d="M 367.778,474.979 C 364.895,462.014 355.965,452.971 355.965,452.971 355.965,452.971 351.709,464.948 354.593,477.911 357.477,490.874 366.407,499.919 366.407,499.919 366.407,499.919 370.661,487.942 367.778,474.979 Z" />
				<path style="fill:#70aa5d;" d="M 397.629,474.547 C 408.185,458.135 406.362,438.155 406.362,438.155 406.362,438.155 387.427,444.783 376.871,461.196 366.315,477.609 368.138,497.585 368.138,497.585 368.138,497.585 387.073,490.957 397.629,474.547 Z" />
			</g>
			<path style="fill-opacity:0.5;fill:#a1c58c;" d="M 303.391,571.241 C 264.858,571.241 229.532,573.388 202.023,576.954 174.514,573.389 139.188,571.241 100.655,571.241 12.9,571.241 -58.239,582.365 -58.239,596.086 -58.239,609.807 12.899,620.928 100.654,620.928 139.187,620.928 174.513,618.783 202.022,615.218 229.531,618.783 264.857,620.928 303.39,620.928 391.142,620.928 462.284,609.807 462.284,596.086 462.284,582.365 391.143,571.241 303.391,571.241 Z" />
			<g>
				<path style="fill:#a35d4b;" d="M 256.918,419.441 L 254.793,424.395 249.493,436.752 225.533,486.992 C 224.2908,488.7776 222.2489,489.9321 219.9379,489.9321 216.7703,489.9321 214.1084,487.7632 213.3563,484.8299 219.0647,463.4397 224.784,442.0963 230.504,420.753 L 231.925,416.707 232.85,414.081 256.918,419.441 Z" />
				<path style="fill:#914d3f;" d="M 254.72,427.101 L 250.762,436.329 C 245.081,432.881 234.184,427.519 229.899,424.971 L 231.852,419.414 254.72,427.101 Z" />
				<path style="fill:#a35d4b;" d="M 298.835,487.917 C 297.4641,489.7309 295.3321,490.9074 292.9234,490.9668 290.1408,490.9624 287.7302,489.4113 286.4982,487.1304 L 263.508,428.649 261.803,422.509 256.269,402.581 281.734,396.83 285.185,415.021 287.665,428.093 290.179,441.343 C 293.065,456.8697 295.9503,472.3943 298.835,487.917 Z" />
				<path style="fill:#914d3f;" d="M 287.666,430.954 L 263.509,431.507 261.804,425.366 285.185,417.879 287.666,430.954 Z" />
				<path style="fill:#013d83;" d="M 244.642,371.333 L 240.587,382.855 237.839,390.655 236.505,394.445 236.393,394.763 234.031,401.478 233.066,404.22 228.459,417.305 227.081,421.222 C 227.8897,421.572 228.7,421.9193 229.512,422.264 230.824,422.8213 232.138,423.3753 233.454,423.926 234.9387,424.548 236.4237,425.167 237.909,425.783 239.4423,426.4183 240.9757,427.0517 242.509,427.683 244.0017,428.2983 245.4947,428.9117 246.988,429.523 248.3327,430.0737 249.678,430.6227 251.024,431.17 252.1153,431.6127 253.2073,432.0537 254.3,432.493 L 255.359,432.917 257.159,426.583 260.202,415.888 262.31,408.476 262.983,406.114 265.111,398.635 266.552,393.565 267.08,391.712 268.342,387.275 272.288,373.404 264.988,371.327 244.642,371.333 Z" />
				<path style="fill:#013d83;" d="M 277.786,371.404 L 250.443,371.404 250.937,375.147 252.723,388.692 253.804,396.892 254.33,400.876 254.373,401.211 255.306,408.268 255.686,411.148 257.499,424.902 258.22,430.38 C 258.347,430.364 258.472,430.348 258.597,430.329 260.2025,430.0831 261.5582,429.7968 262.8869,429.4443 L 295.054,422.867 278.704,376.11 277.786,371.404 Z" />
				<path style="fill:#dbf5fc;" d="M 270.106,378.112 L 284.09,424.596 288.384,423.218 274.472,376.599 270.106,378.112 Z" />
				<path style="fill:#000000;" d="M 258.818,430.133 L 255.009,399.316 C 250.356,395.993 244.453,389.837 240.456,385.154 L 240.978,384.708 C 244.983,389.401 250.908,395.579 255.529,398.843 L 255.653,398.93 255.672,399.081 259.499,430.053 258.818,430.133 Z" />
				<path style="fill:#000000;" d="M 273.329,396.997 C 270.787,396.857 264.943,395.687 262.54,394.512 261.44,393.974 257.724,392.069 256.077,390.139 L 256.598,389.695 C 258.159,391.524 261.772,393.372 262.842,393.895 265.176,395.036 270.88,396.174 273.367,396.311 L 273.329,396.997 Z" />
				<path style="fill:#dbf5fc;" d="M 245.617,427.418 C 245.583,427.162 255.194,403.29 255.194,403.29 L 256.082,408.29 248.02,428.333 245.617,427.418 Z" />
				<path style="fill:#fe7f54;" d="M 298.835,487.918 L 302.149,495.578 302.436,498.394 267.578,501.642 267.291,498.825 286.48,487.092 C 290.859,491.922 298.835,487.918 298.835,487.918 Z" />
				<path style="fill:#fe7f54;" d="M 193.556,494.798 L 213.967,484.787 C 217.767,490.255 226.154,486.996 226.154,486.996 L 228.573,495.273 228.537,498.214 193.521,497.739 193.556,494.798 Z" />
				<g>
					<path style="fill:#a35d4b;" d="M 287.682,384.388 L 237.905,384.388 C 234.914,366.498 240.064,357.734 240.064,357.734 238.164,358.369 231.713,357.21 231.713,357.21 231.713,350.802 237.613,341.949 244.783,339.681 251.953,337.413 252.922,332.126 253.129,330.425 L 259.98,328.798 C 259.853,330.304 259.98,332.783 265.486,335.144 269.419,336.83 284.593,340.744 290.399,354.792 291.0599,356.3472 291.6272,358.1794 292.0096,360.0785 295.405,377.263 287.682,384.388 287.682,384.388 Z" />
					<g>
						<path style="fill:#a35d4b;" d="M 244.702,357.709 L 234.126,354.272 232.22,356.594 232.22,356.594 231.714,357.21 C 231.371,358.49 230.281,361.621 228.514,361.621 226.747,361.621 218.344,356.821 211.045,346.121 208.076,340.621 207.003,338.696 204.501,338.461 203.592,338.375 205.233,341.061 205.828,342.577 205.828,342.577 202.405,340.391 199.894,338.541 197.383,336.691 197.911,338.674 198.969,339.533 199.9783,340.429 200.9051,341.3349 201.7856,342.2843 201.81,342.308 197.184,338.872 195.731,338.408 194.278,337.944 197.251,341.185 199.894,342.902 199.894,342.902 195.466,339.929 194.871,340.193 194.371,340.416 196.61,342.485 198.393,343.676 197.6139,343.1273 196.7029,342.7016 195.7216,342.4523 195.07,342.572 198.504,346.04 200.041,347.234 201.982,348.741 203.711,348.857 206.816,349.492 207.626,350.427 213.863,371.605 224.216,375.362 L 224.217,375.362 C 224.235,375.369 224.252,375.371 224.269,375.378 224.564,375.478 224.861,375.578 225.163,375.653 L 225.228,375.668 C 225.4794,375.7348 225.7994,375.7988 226.1251,375.8454 227.1162,375.9904 228.2045,376.0701 229.3112,376.0701 229.7663,376.0701 230.2182,376.0566 230.6666,376.0301 231.1637,375.9997 231.7093,375.945 232.242,375.869 233.3871,375.7036 234.4049,375.461 235.3859,375.1371 236.4982,374.7712 237.5714,374.2754 238.5718,373.6712 238.702,373.594 238.89,373.474 239.075,373.349 239.449,373.1017 239.8047,372.84 240.142,372.564 240.31,372.4267 240.4743,372.2863 240.635,372.143 241.253,371.5872 241.8053,370.9819 242.2935,370.3261 242.5306,370.0067 242.75,369.6767 242.9519,369.3352 243.4448,368.5018 243.8221,367.5986 244.0656,366.6419 244.127,366.384 244.166,366.194 244.201,366.006 244.451,364.618 244.625,363.46 244.743,362.492 244.822,361.847 244.876,361.292 244.91,360.802 244.944,360.312 244.96,359.902 244.961,359.558 244.961,359.383 244.961,359.226 244.956,359.082 244.91,357.934 244.702,357.709 244.702,357.709 Z" />
						<path style="fill:#a35d4b;" d="M 292.239,361.317 C 291.682,361.517 291.017,361.732 290.239,361.946 287.767,362.557 282.839,363.322 274.519,362.798 L 274.526,362.841 274.526,362.86 C 274.526,362.892 274.537,362.937 274.544,362.993 L 274.544,363.013 C 274.56,363.146 274.58,363.34 274.603,363.589 274.6906,364.6745 274.7405,365.9384 274.7405,367.2139 274.7405,373.3893 273.57,379.292 271.4389,384.712 L 287.679,384.389 C 287.679,384.389 295.084,377.558 292.239,361.317 Z" />
					</g>
					<path style="fill:#8d4c40;" d="M 260.304,331.057 L 260.63,326.457 251.95,329.904 C 251.8693,331.476 251.788,333.048 251.706,334.62 252.3187,334.7933 253.0221,334.8929 253.7487,334.8929 255.0967,334.8929 256.3648,334.5499 257.4704,333.9465 258.6442,333.27 259.6209,332.2817 260.2844,331.0947 Z" />
					<g>
						<path style="fill:#f2ce61;" d="M 274.522,362.802 C 274.6621,364.1668 274.742,365.7503 274.742,367.3524 274.742,373.4814 273.5723,379.3378 271.444,384.7104 L 237.905,384.393 C 235.482,369.039 238.757,359.288 238.757,359.288 236.1,358.8141 233.7366,358.0948 231.5019,357.1333 231.713,350.807 237.613,341.954 244.783,339.686 246.686,339.1131 248.3329,338.1926 249.7288,336.989 251.5097,338.7873 253.9533,339.9221 256.6607,340.0254 259.504,340.026 264.545,337.906 265.486,335.15 269.886,337.037 288.372,341.711 292.041,360.27 292.111,360.625 292.177,360.975 292.241,361.322 289.459,362.302 284.122,363.802 274.522,362.802 Z" />
						<g clip-path="url(#clipPath2)">
							<g>
								<path style="fill:#ffffff;" d="M 297.7,359.942 L 297.7765,359.2895 227.1696,351.0076 227.0931,351.6601 297.7,359.942 Z" />
								<path style="fill:#ffffff;" d="M 297.432,362.226 L 297.5085,361.5735 226.9016,353.2916 226.8251,353.9441 297.432,362.226 Z" />
								<path style="fill:#ffffff;" d="M 297.164,364.511 L 297.2402,363.8586 226.6468,355.612 226.5706,356.2644 297.164,364.511 Z" />
								<path style="fill:#ffffff;" d="M 296.896,366.795 L 296.9722,366.1426 226.3788,357.896 226.3026,358.5484 296.896,366.795 Z" />
								<path style="fill:#ffffff;" d="M 296.628,369.079 L 296.7045,368.4265 226.0976,360.1446 226.0211,360.7971 296.628,369.079 Z" />
								<path style="fill:#ffffff;" d="M 296.36,371.364 L 296.4365,370.7115 225.8296,362.4296 225.7531,363.0821 296.36,371.364 Z" />
								<path style="fill:#ffffff;" d="M 296.092,373.648 L 296.1685,372.9955 225.5616,364.7136 225.4851,365.3661 296.092,373.648 Z" />
								<path style="fill:#ffffff;" d="M 295.824,375.932 L 295.9002,375.2796 225.3068,367.033 225.2306,367.6854 295.824,375.932 Z" />
								<path style="fill:#ffffff;" d="M 295.557,378.217 L 295.6332,377.5646 225.0398,369.318 224.9636,369.9704 295.557,378.217 Z" />
								<path style="fill:#ffffff;" d="M 295.289,380.501 L 295.3655,379.8485 224.7586,371.5666 224.6821,372.2191 295.289,380.501 Z" />
								<path style="fill:#ffffff;" d="M 295.021,382.785 L 295.0975,382.1325 224.4906,373.8506 224.4141,374.5031 295.021,382.785 Z" />
								<path style="fill:#ffffff;" d="M 294.753,385.07 L 294.8292,384.4176 224.2358,376.171 224.1596,376.8234 294.753,385.07 Z" />
								<path style="fill:#ffffff;" d="M 294.485,387.354 L 294.5612,386.7016 223.9678,378.455 223.8916,379.1074 294.485,387.354 Z" />
								<path style="fill:#ffffff;" d="M 294.217,389.638 L 294.2935,388.9855 223.6866,380.7036 223.6101,381.3561 294.217,389.638 Z" />
								<path style="fill:#ffffff;" d="M 293.949,391.922 L 294.0255,391.2695 223.4186,382.9876 223.3421,383.6401 293.949,391.922 Z" />
								<path style="fill:#ffffff;" d="M 293.681,394.207 L 293.7575,393.5545 223.1506,385.2726 223.0741,385.9251 293.681,394.207 Z" />
								<path style="fill:#ffffff;" d="M 293.413,396.491 L 293.4892,395.8386 222.8958,387.592 222.8196,388.2444 293.413,396.491 Z" />
							</g>
						</g>
					</g>
					<path style="fill:#141f50;" d="M 280.901,363.303 C 280.8837,363.303 280.8632,363.303 280.8427,363.303 278.6089,363.303 276.4046,363.1758 274.2369,362.9283 L 274.383,362.938 274.37,362.818 C 273.76,357.718 273.199,354.133 271.024,350.952 271.0063,350.9273 270.9957,350.8966 270.9957,350.8633 270.9957,350.7788 271.0642,350.7103 271.1487,350.7103 271.2022,350.7103 271.2493,350.7378 271.2766,350.7794 273.477,353.993 274.05,357.58 274.659,362.663 275.885,362.804 286.278,363.897 292.175,361.181 292.1964,361.1689 292.2221,361.1617 292.2494,361.1617 292.3339,361.1617 292.4024,361.2302 292.4024,361.3147 292.4024,361.3799 292.3615,361.4356 292.304,361.4576 289.093,362.935 284.582,363.303 280.901,363.303 Z" />
					<path style="fill:#141f50;" d="M 238.76,359.437 L 238.736,359.437 C 238.6625,359.4254 238.607,359.3626 238.607,359.2867 238.607,359.278 238.6077,359.2694 238.6091,359.2611 239.15,356.0867 240.0656,353.243 241.3255,350.5947 241.2666,350.7445 241.3166,350.7129 241.374,350.7129 241.4585,350.7129 241.5271,350.7815 241.5271,350.866 241.5271,350.8932 241.52,350.9187 241.5076,350.9408 240.3487,353.3624 239.444,356.1731 238.9357,359.1193 238.8945,359.3828 238.8336,359.4358 238.7601,359.437 Z" />
				</g>
				<path style="fill:#f6dcd2;" d="M 260.099,326.091 C 260.2743,327.3716 261.3615,328.348 262.6763,328.348 264.112,328.348 265.2763,327.1837 265.2763,325.748 265.2763,324.3123 264.112,323.148 262.6763,323.148 262.6407,323.148 262.6052,323.1487 262.57,323.1502 261.1769,323.2771 260.0896,324.4441 260.0896,325.8644 260.0896,325.9442 260.093,326.0231 260.0997,326.1011 Z" />
				<path style="fill:#a35d4b;" d="M 254.72,314.847 C 254.72,314.847 248.448,315.393 247.39,319.965 246.332,324.537 245.805,330.407 249.671,333.07 253.537,335.733 259.071,333.616 261.5,329.716 263.929,325.816 264.778,316.309 254.72,314.847 Z" />
				<path style="fill:#000000;" d="M 248.519,320.962 C 247.7982,321.137 247.1638,321.4195 246.5972,321.7959 246.246,322.092 246.291,322.582 246.772,322.712 246.8842,322.7202 247.0149,322.7249 247.1468,322.7249 247.6954,322.7249 248.225,322.6438 248.7244,322.4929 250.027,322.195 250.886,321.546 250.769,321.092 250.621,320.507 249.22,320.746 248.519,320.962 Z" />
				<path style="fill:#000000;" d="M 256.479,320.858 C 257.2791,320.9736 258.0016,321.2082 258.6633,321.5454 258.8026,321.6038 258.9254,321.7782 258.9254,321.9812 258.9254,322.2282 258.7437,322.4328 258.5067,322.4687 258.2364,322.5072 257.9275,322.5291 257.6135,322.5291 257.1748,322.5291 256.7461,322.4865 256.3312,322.4051 254.873,322.212 253.882,321.63 253.988,321.167 254.126,320.568 255.69,320.699 256.479,320.858 Z" />
				<path style="fill:#000000;" d="M 252.293,327.813 C 252.3625,327.8231 252.4427,327.8288 252.5243,327.8288 252.5643,327.8288 252.604,327.8274 252.6433,327.8247 252.7513,327.8196 252.8411,327.7264 252.8411,327.6122 252.8411,327.4946 252.7457,327.3992 252.6281,327.3992 252.6217,327.3992 252.6154,327.3995 252.6092,327.4001 252.5886,327.4013 252.5637,327.402 252.5386,327.402 252.1963,327.402 251.8857,327.2662 251.6577,327.0456 252.2014,326.1126 252.6106,325.0266 252.8235,323.8719 252.8356,323.7975 252.8371,323.7832 252.8371,323.7685 252.8371,323.6506 252.7414,323.5549 252.6235,323.5549 252.5203,323.5549 252.4341,323.6282 252.4142,323.7256 252.2221,324.9189 251.8037,325.985 251.2028,326.923 251.1809,326.9287 251.1546,326.984 251.1546,327.0455 251.1546,327.0927 251.1702,327.1364 251.1964,327.1715 251.4629,327.5068 251.8457,327.7406 252.283,327.8116 Z" />
				<path style="fill:#8c4a3c;" d="M 259.19,327.521 C 259.178,328.001 258.199,328.368 257.004,328.338 255.809,328.308 254.851,327.894 254.863,327.413 254.875,326.932 255.854,326.565 257.047,326.596 258.24,326.627 259.204,327.039 259.19,327.521 Z" />
				<path style="fill:#000000;" d="M 255.124,325.05 C 255.119,325.481 254.914,325.828 254.668,325.824 254.422,325.82 254.228,325.469 254.233,325.038 254.238,324.607 254.444,324.261 254.691,324.264 254.938,324.267 255.131,324.619 255.124,325.05 Z" />
				<path style="fill:#000000;" d="M 250.396,325.087 C 250.389,325.518 250.185,325.864 249.938,325.861 249.691,325.858 249.498,325.504 249.505,325.074 249.512,324.644 249.716,324.297 249.961,324.301 250.206,324.305 250.403,324.656 250.396,325.087 Z" />
				<path style="fill:#8c4a3c;" d="M 250.743,327.883 C 250.731,328.365 249.752,328.73 248.559,328.7 247.366,328.67 246.406,328.257 246.416,327.775 246.426,327.293 247.407,326.928 248.602,326.958 249.797,326.988 250.76,327.401 250.743,327.883 Z" />
				<path style="fill:#000000;" d="M 248.671,308.765 C 249.444,308.395 250.285,308.165 251.095,307.871 251.5683,307.7737 252.112,307.7181 252.6687,307.7181 253.2031,307.7181 253.7254,307.7694 254.2312,307.8673 L 255.226,308.142 C 256.372,308.3177 257.3713,308.8481 258.1314,309.6158 258.7905,310.4816 259.8211,311.035 260.9807,311.035 260.9815,311.035 260.9823,311.035 260.9831,311.035 261.0384,311.0322 261.1033,311.0306 261.1686,311.0306 263.078,311.0306 264.6667,312.4062 264.9974,314.2203 265.0324,314.6504 265.172,315.019 265.3906,315.3276 266.039,315.546 266.18,316.244 266.628,316.664 267.4331,317.3648 267.9392,318.3912 267.9392,319.5356 267.9392,320.249 267.7425,320.9166 267.4003,321.4871 267.131,322.07 266.921,322.693 266.65,323.292 266.028,324.665 265.768,326.163 265.192,327.545 264.787,328.8982 263.7601,329.9494 262.4518,330.3804 261.71,329.895 261.816,329.144 261.811,328.429 261.866,327.794 262.321,327.502 262.811,327.229 263.537,326.8528 264.1203,326.2878 264.5084,325.5982 264.6697,325.3136 264.7586,324.9971 264.7586,324.6598 264.7586,324.1464 264.5526,323.681 264.2187,323.3418 263.8865,322.9481 263.3925,322.6996 262.8406,322.6996 262.5407,322.6996 262.2578,322.773 262.0091,322.9028 261.5708,323.1147 261.1857,323.3821 260.849,323.7002 260.403,324.065 259.959,324.223 259.551,323.64 259.2744,323.1891 259.1105,322.6434 259.1105,322.0594 259.1105,322.0255 259.111,321.9917 259.1121,321.9581 259.1,321.119 259.112,320.277 259.094,319.433 259.0981,319.3992 259.1005,319.3601 259.1005,319.3204 259.1005,318.7793 258.6616,318.3404 258.1205,318.3404 258.0805,318.3404 258.0411,318.3428 258.0023,318.3475 257.8647,318.3426 257.6974,318.3402 257.5295,318.3402 256.8875,318.3402 256.254,318.3764 255.6309,318.447 254.8483,318.615 253.8619,318.7153 252.852,318.7153 251.6628,318.7153 250.506,318.5763 249.397,318.3137 249.381,318.311 249.264,318.287 249.147,318.257 248.4762,318.0579 247.8929,317.7497 247.3864,317.3486 246.759,316.804 245.954,316.323 246.03,315.284 245.8967,314.8007 245.767,314.317 245.641,313.833 245.6243,313.6808 245.6148,313.5043 245.6148,313.3257 245.6148,311.2789 246.8626,309.523 248.6387,308.7772 Z" />
				<path style="fill:#a35d4b;" d="M 260.933,324.018 C 260.384,325.245 259.915,327.066 261.595,327.665 262.767,328.084 264.152,326.521 264.701,325.293 264.8846,325.0118 264.9938,324.6676 264.9938,324.2979 264.9938,323.4955 264.4791,322.8131 263.7618,322.5629 263.5438,322.4903 263.3077,322.4506 263.0623,322.4506 262.0674,322.4506 261.2245,323.1025 260.9374,324.0023 Z" />
				<path style="fill:#000000;" d="M 252.257,331.135 L 252.081,330.416 C 253.775,330.0197 255.1547,328.915 255.9138,327.439 L 256.613,327.692 C 255.7531,329.421 254.1856,330.689 252.3002,331.1265 Z" />
				<path style="fill:#f2ce61;" d="M 161.352,461.671" />
				<path style="fill:#f2ce61;" d="M 125.477,445.27" />
				<path style="fill:#ffffff;" d="M 143.376,438.063 C 137.6719,444.3997 131.359,449.9962 124.4688,454.8249 124.0504,455.1199 123.9615,455.1544 123.8645,455.1544 123.6436,455.1544 123.4645,454.9753 123.4645,454.7544 123.4645,454.6057 123.5456,454.476 123.6661,454.407 141.352,442.255 168.307,414.455 157.146,387.348 157.1366,387.3157 157.1312,387.2786 157.1312,387.2402 157.1312,387.0193 157.3103,386.8402 157.5312,386.8402 157.6816,386.8402 157.8126,386.9232 157.881,387.046 165.445,405.42 155.882,424.048 143.374,438.066 L 143.376,438.063 Z M 143.376,438.063" />
				<path style="fill:#a7d4fd;" d="M 206.706,288.638 C 152.425,340.972 155.071,392.607 155.071,392.607 155.071,421.1194 178.1936,444.242 206.706,444.242 235.2184,444.242 258.341,421.1194 258.341,392.607 258.341,392.607 260.986,340.972 206.706,288.638 Z" />
				<g>
					<path style="fill:#3e91e5;" d="M 252.849,388.994 C 252.6919,414.344 232.0978,434.8412 206.7258,434.8412 181.2566,434.8412 160.6018,414.1865 160.6018,388.7172 160.6018,363.2479 181.2566,342.5932 206.7258,342.5932 206.8212,342.5932 206.9164,342.5935 207.0116,342.5941 232.3495,342.7485 252.8498,363.3441 252.8498,388.7182 252.8498,388.8152 252.8495,388.912 252.8489,389.0089 Z" />
					<g clip-path="url(#clipPath3)">
						<g>
							<path style="fill:#a1c58c;" d="M 388.919,444.493 L 383.927,448.042 C 383.834,447.008 385.665,446.766 384.21,445.802 386.195,444.934 386.595,443.432 386.132,441.541 L 386.439,441.509 C 386.602,441.829 386.914,442.154 386.903,442.467 386.841,444.192 387.276,444.549 388.922,444.011 388.92,444.173 388.919,444.333 388.919,444.493 Z" />
							<path style="fill:#99ce84;" d="M 322.864,399.775 C 322.264,400.138 321.664,400.5 320.817,401.011 319.493,396.719 316.617,393.042 316.359,388.366 315.337,389.215 314.803,389.093 313.616,387.647 L 314.276,387.22 C 314.187,387.12 314.151,387.044 314.093,387.011 313.2656,386.6855 312.5511,386.2631 311.9166,385.7462 310.926,384.623 309.752,384.958 308.537,384.925 306.9414,384.8593 305.4327,384.664 303.9687,384.3482 303.829,384.318 303.636,383.651 303.387,383.263 302.9444,383.4743 302.4253,383.5977 301.8773,383.5977 300.5928,383.5977 299.4663,382.9192 298.8369,381.9012 298.452,381.243 298.28,380.323 297.228,380.435 296.7975,380.5361 296.4236,380.6641 296.0672,380.8242 296.688,381.591 297.199,382.186 297.6,382.848 297.9034,383.386 298.234,384.0573 298.531,384.7465 L 299.166,384.163 C 299.2577,384.2918 299.3413,384.4383 299.4097,384.5931 299.544,385.076 299.65,385.547 299.765,386.017 300.5705,385.7785 301.2477,385.519 301.8998,385.2146 302.2847,384.9167 302.7016,384.5452 303.0727,384.1316 303.2275,385.2123 304.0054,386.0849 305.0281,386.3705 305.497,386.522 306.147,387.46 306.04,387.647 305.714,388.203 306.185,389.27 305.066,389.355 304.914,389.4015 304.7956,389.5162 304.745,389.6626 304.339,391.313 303.059,391.966 301.662,392.62 300.373,393.226 299.238,394.152 297.984,394.843 297.0262,395.4097 295.9159,395.9287 294.7542,396.3386 294.5058,396.4302 294.3716,396.4594 294.2306,396.4594 293.6888,396.4594 293.2475,396.0283 293.231,395.4905 293.149,394.629 292.977,393.776 292.815,392.924 292.7693,392.6356 292.6636,392.3783 292.5108,392.1557 291.706,391.092 290.843,390.062 290.059,388.976 289.8674,388.6319 289.7272,388.2313 289.6616,387.806 289.542,387.336 289.624,386.686 289.344,386.451 288.088,385.4 287.554,383.884 286.644,382.615 286.4924,382.437 286.3069,382.2928 286.0969,382.1914 285.487,381.855 284.874,381.545 284.534,381.366 L 290.534,394.324 290.856,393.475 C 292.148,395.3083 293.3147,396.9647 294.356,398.444 L 299.549,397.338 C 299.5715,397.5125 299.5843,397.7143 299.5843,397.919 299.5843,398.1976 299.5605,398.4707 299.5149,398.7364 299.138,399.97 298.707,401.222 298.205,402.442 297.5959,403.7402 296.6872,404.8105 295.5642,405.5949 294.3045,406.6122 293.2377,407.7493 292.3408,409.0151 291.5885,410.1659 290.906,411.4328 290.3304,412.757 290.083,413.4348 289.9778,414.0237 289.9778,414.6372 289.9778,415.8658 290.3998,416.996 291.1066,417.8909 291.183,417.965 291.348,418.045 291.347,418.125 291.3486,418.2421 291.3495,418.3802 291.3495,418.5186 291.3495,419.675 291.2861,420.8166 291.1626,421.9402 291.117,422.211 290.545,422.565 290.175,422.902 288.975,424.002 287.727,425.053 286.555,426.183 286.376,426.357 286.463,426.845 286.489,427.183 286.519,427.577 286.638,427.962 286.679,428.357 286.7169,428.5163 286.7386,428.6992 286.7386,428.8871 286.7386,429.9419 286.0539,430.837 285.1048,431.1521 284.568,431.357 284.431,431.757 284.408,432.497 284.382,433.37 284.38,434.685 283.063,435.197 282.601,435.376 282.34,436.022 281.931,436.389 280.87,437.341 279.784,438.264 278.693,439.179 278.5179,439.3367 278.2904,439.4393 278.0396,439.4578 277.9647,439.456 277.8808,439.4549 277.7967,439.4549 276.6023,439.4549 275.4614,439.6844 274.4158,440.1018 273.277,440.52 272.639,439.337 272.643,438.009 272.643,436.934 271.95,435.864 271.605,434.777 271.069,433.087 270.57,431.384 270.052,429.688 269.9134,428.9383 269.6875,428.2696 269.3806,427.648 268.4557,426.4334 267.8871,424.844 267.8871,423.1222 267.8871,421.5857 268.3399,420.1548 269.1193,418.9556 269.201,418.814 269.359,418.612 269.337,418.447 269.269,416.984 269.0179,415.6051 268.6056,414.2976 267.6592,412.4427 266.7085,410.8036 265.6667,409.2299 265.6316,409.203 265.5437,408.9503 265.5437,408.6771 265.5437,408.6675 265.5438,408.6581 265.544,408.6486 265.75,407.697 265.998,406.75 266.287,405.821 266.3594,405.6667 266.4017,405.4859 266.4017,405.2953 266.4017,404.677 265.9568,404.1623 265.3697,404.0542 264.911,403.905 264.385,403.967 263.947,403.793 263.4697,403.5552 263.0584,403.2889 262.6806,402.9829 262.203,402.658 261.684,401.982 261.245,402.033 259.7556,402.2943 258.4843,402.6067 257.2457,402.9934 257.08,403.027 256.597,403.216 256.29,403.074 255.9421,402.8816 255.5275,402.7684 255.0864,402.7684 254.4692,402.7684 253.9037,402.9901 253.4652,403.3583 253.2261,403.5814 252.8991,403.7205 252.5398,403.7205 252.2032,403.7205 251.895,403.5985 251.6571,403.3963 249.1985,401.9556 247.2796,399.8183 246.1448,397.2565 245.896,396.648 245.422,396.233 245.211,395.709 244.9971,395.303 244.8715,394.8218 244.8715,394.3114 244.8715,393.7469 245.0251,393.2183 245.2928,392.7649 245.3827,392.5537 245.4396,392.2914 245.4396,392.0158 245.4396,391.8685 245.4233,391.725 245.3925,391.587 245.3195,391.1339 245.2764,390.5968 245.2764,390.0497 245.2764,387.6931 246.0768,385.523 247.4204,383.7965 247.9411,382.958 248.6997,382.2794 249.6007,381.8525 250.2637,381.3886 250.7203,380.7278 250.9007,379.9606 251.1386,378.8186 251.7373,377.8653 252.5686,377.1859 253.3236,376.4135 253.9533,375.5294 254.434,374.5585 254.251,373.25 253.084,373.726 252.478,373.588 252.308,372.993 252.166,372.55 252.061,372.098 252.0448,372.0201 252.0356,371.9306 252.0356,371.8389 252.0356,371.7322 252.0481,371.6284 252.0718,371.529 252.307,370.387 252.559,369.238 252.88,367.738 254.05,366.994 255.674,367.727 257.229,367.901 258.02,367.989 258.221,367.888 258.306,367.165 258.57,364.928 258.583,364.933 256.474,363.745 256.349,363.675 256.274,363.518 256.074,363.279 256.607,363.179 257.139,362.904 257.409,363.064 258.428,363.671 258.379,362.954 258.453,362.333 259.822,362.668 260.475,362.283 260.847,360.933 L 260.847,360.933 C 260.8713,360.9339 260.8997,360.9344 260.9283,360.9344 261.838,360.9344 262.6235,360.4019 262.99,359.6317 263.254,359.089 264.339,358.774 265.077,358.718 265.922,358.656 266.007,358.25 265.757,357.744 265.084,356.386 265.472,355.655 267.077,355.426 266.9707,356.029 266.91,356.7229 266.91,357.4311 266.91,357.5263 266.9111,357.6213 266.9133,357.716 266.937,357.95 267.581,358.325 267.928,358.313 268.485,358.291 268.994,357.901 269.523,358.53 269.658,358.69 270.331,358.519 270.683,358.348 271.0424,358.0747 271.4974,357.9102 271.9907,357.9102 272.3283,357.9102 272.6479,357.9872 272.9329,358.1247 273.196,358.267 273.804,357.795 273.939,357.738 L 274.455,355.466 276.049,355.99 C 276.849,355.234 275.731,354.815 275.43,354.012 L 279.453,353.462 279.453,353.062 C 278.734,353.062 278.012,353.007 277.298,353.062 276.743,353.106 276.18,353.435 275.657,353.362 275.134,353.289 274.233,352.887 274.23,352.623 274.223,351.93 273.171,351.068 274.464,350.453 275.1387,350.0405 275.7243,349.5907 276.2575,349.086 274.953,348.213 274.44,348.37 273.793,349.697 273.6173,349.9559 273.3851,350.1638 273.1131,350.3061 272.771,350.528 272.367,350.642 272.059,350.883 271.177,351.568 271.359,352.407 272.608,353.364 272.301,354.383 270.313,354.645 271.358,356.22 L 268.572,357.266 268.48,357.029 267.936,358.063 C 267.749,357.616 267.625,357.316 267.472,356.947 L 268.572,356.391 267.306,353.832 C 266.8663,354.0227 266.4969,354.218 266.1443,354.4377 264.951,355.273 263.997,354.895 263.776,353.433 263.518,351.709 264.118,351.033 266.012,350.255 266.8985,349.7479 267.6553,349.1303 268.2967,348.4078 268.928,347.83 269.487,347.19 270.222,346.43 L 269.351,346.606 C 269.336,346.506 269.323,346.4 269.309,346.296 269.763,346.235 270.215,346.167 270.67,346.118 270.783,346.106 270.903,346.16 270.945,345.884 271.582,345.684 272.216,345.468 272.859,345.284 273.4784,345.0676 274.2238,344.8768 274.99,344.7469 275.761,344.665 276.5582,344.6251 277.3646,344.6251 277.607,344.6251 277.8485,344.6287 278.0892,344.6358 278.707,344.642 278.96,345.369 279.754,345.459 281.578,345.7829 283.1867,346.2362 284.7269,346.8281 285.1329,347.0174 285.6322,347.2851 286.1048,347.5906 284.24,349.134 282.545,347.881 281.025,347.851 281.361,348.29 281.714,348.801 282.125,349.261 282.3044,349.4866 282.5634,349.6422 282.8588,349.6853 283.065,349.677 283.247,349.323 283.442,349.115 L 285.142,349.608 C 285.188,348.459 286.219,347.857 287.674,348.255 L 286.829,346.232 288.873,346.784 C 288.373,347.025 288.16,347.127 287.858,347.273 288.009,347.382 288.147,347.552 288.224,347.526 289.669,347.059 291.108,346.569 292.4,346.133 292.847,346.36 293.317,346.767 293.5,346.665 294.543,346.065 295.951,346.695 297.242,345.565 L 301.482,346.584 301.674,346.466 299.617,344.766 300.585,342.907 302.411,343.448 302.2,343.572 304.561,347.188 303.109,348.04 303.129,348.301 C 303.7993,348.2928 304.4356,348.1565 305.0176,347.9155 305.291,347.728 305.242,346.974 305.338,346.466 305.3452,346.4378 305.3494,346.4055 305.3494,346.3722 305.3494,346.2909 305.3246,346.2153 305.2821,346.1526 304.548,345.535 303.801,344.931 302.992,344.268 303.304,343.979 303.586,343.72 303.658,343.652 L 306.145,344.897 C 306.202,344.758 306.259,344.62 306.316,344.48 L 304.731,344.153 304.674,343.742 306.608,343.403 306.149,342.703 309.37,342.529 308.514,341.867 C 310.314,341.353 311.774,340.493 313.603,341.004 314.062,341.133 314.711,340.604 315.265,340.367 315.638,340.207 316.129,339.776 316.347,339.889 318.082,340.789 319.997,340.369 321.788,340.753 322.36,340.9516 322.8521,341.1844 323.3138,341.4623 L 320.592,343.258 C 321.443,342.628 323.064,343.53 323.262,342.123 L 330.087,343.332 C 330.158,343.051 330.208,342.854 330.279,342.577 331.346,343.222 332.555,342.377 333.556,343.177 334.316,343.783 335.172,344.269 335.975,344.823 336.591,345.25 336.941,345.123 337.009,344.435 L 341.091,344.459 C 340.823,344.135 340.679,343.959 340.375,343.594 341.593,343.55 342.639,343.276 343.636,343.96 343.827,344.091 344.158,344.302 344.262,344.233 345.693,343.268 347.162,344.233 348.207,344.691 349.276,345.154 349.969,344.791 350.84,344.754 352.135,344.696 353.419,344.7 354.391,345.817 354.5986,346.0102 354.8778,346.1289 355.1848,346.1289 355.2081,346.1289 355.2312,346.1282 355.2542,346.1269 356.59,346.027 357.923,345.793 359.262,345.758 359.8691,345.8585 360.4134,346.0553 360.9054,346.3339 361.0555,346.4069 361.2608,346.4571 361.4777,346.4571 361.5888,346.4571 361.6969,346.444 361.8003,346.4191 L 360.691,345.879 C 366.34,345.641 371.491,347.914 376.928,348.716 376.807,348.871 376.684,349.027 376.562,349.182 376.749,349.551 376.935,349.92 377.225,350.496 L 371.848,349.114 372.596,350.014 371.814,350.984 371.049,350.049 373.898,351.567 373.85,351.895 C 372.433,351.577 371.422,351.887 371.088,353.408 371.053,353.57 370.566,353.703 370.279,353.724 369.15,353.812 368.017,353.849 366.885,353.906 366.81,354.065 366.734,354.222 366.66,354.381 L 369.75,357.19 369.25,357.19 369.05,357.403 370.003,357.98 C 369.823,359.641 369.672,361.029 369.489,362.716 369.196,361.996 369.143,361.557 368.897,361.316 367.805,360.259 366.571,359.338 365.563,358.21 364.9604,357.593 364.563,356.7732 364.483,355.8625 364.695,354.7867 365.0608,353.8433 365.5607,352.9877 L 364.55,351.482 C 364.456,351.847 364.422,352.002 364.375,352.151 364.275,352.47 364.246,352.866 364.035,353.07 363.915,353.186 363.484,353.003 363.205,352.919 363.057,352.875 362.939,352.7 362.795,352.681 362.195,352.604 361.595,352.565 360.995,352.511 360.995,353.162 360.988,353.811 360.983,354.585 360.517,354.697 359.944,355.122 359.206,354.394 358.906,354.094 358.047,354.367 357.444,354.34 357.3981,354.3407 357.3439,354.3412 357.2896,354.3412 356.6075,354.3412 355.9411,354.2741 355.2965,354.1462 355.1892,354.0923 354.9907,354.0549 354.7834,354.0549 354.0673,354.0549 353.4554,354.5022 353.2119,355.1326 352.814,356.166 352.423,357.188 351.999,358.295 352.422,358.388 352.906,358.495 353.467,358.619 353.417,358.374 353.373,358.156 353.307,357.834 353.534,357.934 353.696,357.954 353.724,358.026 353.984,358.68 354.012,359.47 355.17,358.875 355.554,358.675 356.381,359.287 356.979,359.584 357.3768,359.8182 357.7188,360.0571 358.041,360.3193 L 358.003,360.276 C 358.1023,360.9564 358.3011,361.5707 358.5859,362.1342 360.07,364.163 359.091,366.224 358.637,368.263 358.5763,368.7322 358.1792,369.091 357.6984,369.091 357.491,369.091 357.2992,369.0243 357.1433,368.9111 356.291,368.513 356.017,369.236 355.818,369.873 355.604,370.562 355.442,371.267 355.212,372.138 355.741,372.586 356.582,373.209 357.312,373.938 358.212,374.838 358.203,376.013 357.385,376.354 356.985,376.52 356.555,376.616 356.042,376.774 355.801,375.989 355.606,375.18 355.294,374.42 355.155,374.079 354.757,373.568 354.523,373.592 353.48,373.698 353.465,373.106 353.507,372.381 353.4779,372.1275 353.4259,371.8973 353.352,371.6771 352.7633,371.8764 352.0227,372.0389 351.2666,372.1544 350.945,372.189 350.635,371.837 350.454,371.591 350.3226,371.3577 350.2169,371.0878 350.151,370.8025 349.8882,370.9103 349.6664,371.0476 349.4589,371.2032 348.987,371.624 348.531,372.083 347.921,372.667 348.0774,372.8515 348.2521,373.0128 348.4445,373.151 348.67,373.289 349.1,373.238 349.181,373.398 349.681,374.393 350.124,373.854 350.516,373.406 L 352.194,374.037 351.694,373.537 C 351.194,374.296 350.685,375.055 350.216,375.758 351.286,376.825 352.306,377.751 353.199,378.788 353.487,379.123 353.437,379.749 353.589,380.474 354.402,380.625 354.38,381.353 353.93,382.241 353.183,383.713 353.13,385.547 351.653,386.641 351.3126,386.9199 350.9228,387.1573 350.5021,387.3361 349.046,387.861 347.529,388.184 346.463,389.512 346.001,388.795 345.649,387.8 344.511,388.663 343.8698,389.0239 343.4436,389.7001 343.4436,390.4758 343.4436,390.9163 343.5811,391.3248 343.8155,391.6607 344.0305,392.0941 344.3343,392.4618 344.704,392.7486 346.511,393.737 346.776,395.374 346.743,397.171 346.743,397.331 346.786,397.571 346.703,397.638 345.622,398.529 344.523,399.397 343.203,400.446 343.254,399.746 343.282,399.376 343.292,399.246 341.926,398.067 340.686,396.996 339.458,395.934 339.2109,396.5965 339.0678,397.3617 339.0678,398.1603 339.0678,398.836 339.1702,399.4879 339.3604,400.1012 339.7342,401.082 340.4154,401.9245 341.2875,402.5013 342.0863,403.1006 342.5857,404.0252 342.5857,405.0663 342.5857,405.1274 342.584,405.1881 342.5806,405.2483 342.7154,405.93 342.9642,406.5433 343.3091,407.0899 341.07,407.009 340.381,405.478 339.985,403.697 339.741,402.597 339.597,401.497 338.34,400.97 338.099,400.87 337.9,400.218 337.974,399.885 338.507,397.485 337.574,395.364 336.78,393.215 336.7084,393.0793 336.6114,392.966 336.4945,392.8779 L 334.286,393.682 C 334.522,390.803 332.291,389.463 331.486,387.687 330.533,387.867 329.758,387.998 328.986,388.165 328.7031,388.1975 328.4511,388.31 328.2478,388.4789 327.086,389.822 325.979,391.219 324.802,392.55 324.3511,393.0118 323.8713,393.4396 323.363,393.8322 323.123,395.789 322.932,397.544 322.749,399.3 322.7557,399.47 322.7852,399.6307 322.8346,399.7825 L 322.864,399.775 Z M 268.301,373.068 C 268.658,372.893 268.732,372.82 268.795,372.83 269.724,372.963 270.957,373.107 271.102,372.072 271.184,371.491 270.009,370.726 269.387,370.057 269.318,369.983 269.125,370.031 269.048,369.957 268.2922,369.323 267.6135,368.6532 266.9928,367.9322 266.473,367.24 266.118,366.821 265.273,367.41 264.8703,367.8227 264.3087,368.0788 263.6874,368.0788 263.3526,368.0788 263.0351,368.0044 262.7505,367.8713 262.541,367.761 261.647,368.277 261.628,368.547 261.574,369.332 261.356,369.726 260.539,369.804 260.2235,369.8718 259.9593,370.0553 259.7877,370.3069 259.436,370.824 258.757,371.166 259.14,372.069 259.34,372.548 257.64,373.733 256.884,373.878 256.128,374.023 255.094,373.678 254.798,375.002 255.128,375.153 255.498,375.482 255.807,375.435 257.0487,375.3112 258.1885,375.0427 259.2652,374.6438 260.17,374.25 261.0,373.583 262.19,374.122 262.5,374.263 263.011,373.913 263.438,373.85 264.515,373.687 265.593,373.534 266.676,373.445 266.828,373.433 267.176,373.834 267.151,374.001 267.03,374.801 267.796,375.717 266.833,376.413 266.748,376.474 266.844,376.783 266.869,377.222 267.211,376.789 267.389,376.565 267.369,376.588 268.4262,377.0022 269.3266,377.4554 270.178,377.9803 270.9074,378.6137 271.8558,379.1486 272.8929,379.4872 273.3916,379.6754 273.7709,379.8806 274.1202,380.1257 274.2706,379.7913 274.4203,379.4141 274.5316,379.0208 274.5904,378.2161 275.2204,377.6163 275.9902,377.6163 276.3081,377.6163 276.6021,377.7186 276.8411,377.8919 277.5026,378.353 278.2752,378.7243 279.1047,378.9606 280.393,379.174 281.676,379.706 282.952,378.996 283.104,378.911 283.445,379.232 283.672,379.196 284.279,379.103 285.204,379.106 285.41,378.737 286.0393,377.6918 286.4117,376.4305 286.4117,375.0823 286.4117,374.6901 286.3801,374.3052 286.3195,373.93 285.8373,374.0734 285.4057,374.2256 285.0026,374.4263 284.8146,374.6271 284.5138,374.76 284.182,374.76 283.7955,374.76 283.4509,374.5796 283.228,374.2985 283.0863,374.2182 282.9196,374.1723 282.7422,374.1723 282.5891,374.1723 282.4439,374.2065 282.3139,374.2676 282.0763,374.382 281.7902,374.4503 281.4882,374.4503 280.7343,374.4503 280.0797,374.0242 279.7522,373.3997 279.437,372.674 279.174,371.941 278.793,370.965 278.846,370.9675 278.9082,370.9689 278.9707,370.9689 280.0095,370.9689 280.9572,370.5781 281.6747,369.9355 281.719,369.893 281.901,370.021 282.012,370.002 282.3366,369.9834 282.6389,369.9069 282.915,369.7825 283.3764,369.5118 283.9493,369.3482 284.5603,369.3482 285.1105,369.3482 285.6297,369.4808 286.0877,369.7159 286.9935,370.0227 288.059,370.2163 289.1661,370.2408 289.462,370.258 290.006,369.727 290.023,369.424 290.04,369.121 289.596,368.735 289.303,368.437 289.0849,368.2322 288.8314,368.062 288.5531,367.937 287.3,367.339 286.279,365.93 284.601,366.946 284.401,367.066 283.826,366.764 283.561,366.515 283.0336,365.9546 282.5271,365.3549 282.0545,364.728 281.3086,365.7599 280.568,367.0513 279.8972,368.3838 279.656,368.92 280.288,369.559 280.737,370.328 279.698,370.321 278.831,370.309 277.963,370.317 277.759,370.3172 277.5664,370.3656 277.3958,370.4513 277.019,370.648 276.655,370.891 276.112,371.218 276.442,371.665 276.855,372.218 277.434,373.004 276.781,372.829 276.392,372.704 275.994,372.622 274.7804,372.4351 273.8338,371.4872 273.6509,370.2884 273.5113,369.7383 273.2163,369.2856 272.817,368.9544 271.518,367.912 270.152,366.962 268.613,365.826 268.551,366.286 268.318,366.806 268.481,367.004 269.1632,367.8361 269.8867,368.5796 270.669,369.2572 271.3642,369.8073 272.1259,370.3491 272.9141,370.8531 L 272.82,371.201 271.864,370.611 C 272.402,372.211 270.902,372.911 270.408,374.188 L 268.301,373.068 Z" />
							<path style="fill:#99ce84;" d="M 196.154,400.673 C 197.0992,398.8465 198.7604,397.5014 200.756,396.9985 200.759,397.761 200.712,398.528 200.666,399.308 201.288,398.441 201.858,397.649 202.499,396.758 203.954,399.258 206.299,398.558 208.114,398.478 209.072,399.311 209.856,399.987 210.632,400.672 211.0702,400.9805 211.4464,401.3382 211.7642,401.7437 212.1517,402.5364 212.9388,403.0659 213.8495,403.0659 213.9282,403.0659 214.0059,403.0619 214.0826,403.0542 214.2746,403.0165 214.5063,402.9945 214.7432,402.9945 216.3262,402.9945 217.68,403.9783 218.2262,405.3677 218.602,406.233 219.641,406.875 219.074,408.028 219.044,408.087 219.268,408.258 219.353,408.39 219.63,408.826 219.898,409.269 220.224,409.796 220.618,409.482 221.139,408.482 222.142,409.26 222.773,409.75 223.36,410.299 224.011,410.86 226.077,410.837 228.283,410.808 230.025,412.575 230.11,412.66 230.195,412.775 230.298,412.805 231.3093,413.0333 232.0536,413.9243 232.0536,414.9888 232.0536,415.1442 232.0377,415.2959 232.0075,415.4424 232.0145,415.4967 232.017,415.577 232.017,415.6579 232.017,416.7964 231.5123,417.8172 230.7146,418.5089 230.421,418.8187 230.1804,419.174 230.0029,419.564 229.912,419.723 229.927,419.973 229.822,420.027 228.246,420.847 229.157,422.327 228.88,423.485 228.434,425.35 227.934,427.202 227.425,429.052 227.348,429.3282 227.168,429.5535 226.9302,429.6883 226.0626,430.0641 224.9631,430.4587 223.8375,430.7926 222.346,431.192 221.568,431.87 221.722,433.15 221.7821,433.4071 221.8166,433.7022 221.8166,434.0054 221.8166,435.255 221.2305,436.368 220.3183,437.0845 220.056,437.228 219.65,437.31 219.574,437.515 219.353,438.11 219.294,438.764 219.115,439.378 218.652,440.964 218.057,441.3 216.465,440.922 216.083,440.83 215.706,440.712 215.17,440.563 215.614,441.096 215.887,441.655 216.334,441.906 216.987,442.276 217.134,442.769 216.797,443.278 216.4823,443.7441 216.0411,444.1036 215.5225,444.3104 214.8586,444.4852 214.1074,444.6004 213.336,444.638 213.3511,444.8812 213.3745,445.1601 213.3745,445.4444 213.3745,445.8992 213.3145,446.3399 213.2019,446.7592 213.078,446.981 212.028,446.762 211.065,446.756 211.772,447.333 212.345,447.802 212.753,448.137 212.521,448.745 212.326,449.328 212.076,449.885 211.9333,450.1006 211.7754,450.288 211.5984,450.4555 211.39,450.72 210.971,451.11 211.038,451.239 211.233,451.574 211.5317,451.8304 211.8896,451.9671 213.193,452.427 213.169,452.38 212.458,453.586 212.1771,454.1512 211.9027,454.8309 211.6785,455.5331 L 212.767,456.862 212.121,456.862 212.038,457.038 215.773,459.078 C 214.757,460.093 213.573,459.606 212.435,459.326 210.4992,458.7471 208.8581,457.6731 207.6041,456.2499 206.9629,455.4841 206.4385,454.6114 206.0617,453.664 205.93,453.367 206.254,452.931 206.41,452.507 L 205.145,451.573 C 205.6981,450.9976 206.0388,450.2146 206.0388,449.3521 206.0388,448.6437 205.8089,447.9889 205.4196,447.4582 205.181,447.23 204.598,447.343 203.92,447.267 204.0376,446.9493 204.1201,446.5813 204.151,446.1988 204.1562,446.1146 204.1586,446.0335 204.1586,445.9519 204.1586,445.4212 204.0567,444.9144 203.8713,444.4498 203.6484,444.0501 203.5115,443.5423 203.5115,443.0025 203.5115,442.6389 203.5736,442.2898 203.6877,441.9652 203.8343,441.4669 203.9225,440.8697 203.9225,440.2519 203.9225,439.692 203.8501,439.1491 203.7141,438.6319 202.824,435.551 203.13,432.385 203.048,429.222 202.995,427.201 202.965,425.031 200.604,424.086 197.759,422.947 196.276,420.694 195.232,417.958 194.651,416.436 193.92,414.907 192.2,414.347 192.283,413.163 191.561,411.806 193.168,411.118 192.136,410.406 192.278,408.627 193.281,407.589 193.907,406.94 194.521,406.278 195.106,405.594 195.606,405.015 195.515,402.276 195.099,401.653 195.0044,401.4655 194.949,401.2443 194.949,401.0102 194.949,400.7977 194.9946,400.5958 195.0767,400.4139 L 193.933,399.698 192.89,401.574 C 191.575,400.783 190.19,399.955 188.813,399.122 188.748,399.083 188.65,398.987 188.662,398.947 189.062,397.589 187.622,397.016 187.355,396.036 186.809,395.899 186.268,395.775 185.736,395.621 185.548,395.566 185.373,395.338 185.207,395.354 183.912,395.481 183.399,394.629 182.768,393.709 182.4394,393.4259 182.0085,393.2535 181.5374,393.2535 181.3503,393.2535 181.1694,393.2807 180.9987,393.3314 180.7415,393.4375 180.4279,393.5011 180.0995,393.5011 179.5604,393.5011 179.0613,393.3298 178.6535,393.0388 177.5913,392.4638 176.3123,391.8889 174.9894,391.4053 173.8023,391.0581 173.0955,390.1685 173.0955,389.1142 173.0955,388.9359 173.1157,388.7623 173.154,388.5955 173.1657,388.4919 173.1741,388.3541 173.1741,388.2144 173.1741,387.632 173.0282,387.0837 172.771,386.6039 172.0041,385.052 171.1386,383.6996 170.1444,382.4545 169.16,381.323 169.202,379.839 168.721,378.515 L 168.269,378.48 C 168.138,378.892 167.846,379.332 167.912,379.71 168.0928,380.5303 168.3396,381.2502 168.6565,381.931 168.917,382.566 169.368,383.209 169.582,383.925 169.7002,384.3528 169.7681,384.8439 169.7681,385.3507 169.7681,385.695 169.7368,386.032 169.6768,386.3589 168.808,384.941 167.935,383.558 166.975,382.036 167.0919,381.9447 167.1837,381.8266 167.2418,381.6906 167.536,380.727 166.116,376.731 165.302,376.091 165.026,375.876 164.59,375.612 164.577,375.353 164.492,373.594 163.722,371.778 164.736,370.085 166.011,367.956 167.371,365.879 168.604,363.921 169.04,363.947 169.504,364.093 169.612,363.957 169.8662,363.6383 170.0271,363.2352 170.0478,362.7955 169.9404,362.2597 169.8181,361.812 169.6702,361.3761 169.7062,361.0415 169.7722,360.6471 169.8854,360.2731 167.501,359.816 168.466,358.174 169.355,356.446 L 167.962,356.503 C 167.962,356.351 167.962,356.154 167.962,355.958 168.068,353.464 168.062,353.469 165.69,352.845 165.3015,352.7255 164.9703,352.5897 164.6544,352.4282 164.51,352.362 164.351,352.231 164.176,352.133 163.012,351.478 162.013,352.798 161.146,352.565 160.075,352.277 159.274,351.986 158.237,352.65 155.5991,354.3156 152.5273,355.5946 149.2453,356.3103 L 148.945,356.058 153.594,354.342 153.513,354.031 151.833,353.879 C 151.984,353.431 152.093,353.105 152.198,352.794 151.073,351.894 151.098,351.382 152.408,350.922 153.67,350.478 155.008,350.264 156.295,349.872 157.2203,349.5397 157.9623,349.2236 158.6841,348.8722 158.488,348.763 158.434,348.592 158.38,348.421 157.8138,348.5161 157.1506,348.5788 156.4758,348.5947 156.0656,348.5081 155.7177,348.3615 155.406,348.1631 155.737,347.944 156.041,347.548 156.373,347.522 157.237,347.456 158.113,347.573 158.985,347.574 159.0305,347.5772 159.0837,347.579 159.1372,347.579 159.4834,347.579 159.812,347.5035 160.1074,347.368 160.193,347.315 160.105,346.723 159.962,346.444 159.626,345.785 159.835,345.467 160.504,345.331 163.168,344.791 165.812,344.054 168.504,343.778 168.6706,343.7744 168.8668,343.7724 169.0635,343.7724 170.8363,343.7724 172.5705,343.9382 174.2513,344.2552 175.3585,344.2691 176.5763,344.4524 177.7424,344.7627 178.2545,345.0521 178.991,345.2367 179.7705,345.2367 180.3124,345.2367 180.8335,345.1475 181.3199,344.983 182.804,346.449 183.915,344.736 185.223,344.523 185.2361,344.5229 185.2515,344.5229 185.2669,344.5229 185.9348,344.5229 186.581,344.6153 187.1937,344.7881 189.017,345.02 190.892,345.254 193.11,345.535 L 192.091,346.386 192.169,346.674 195.261,346.308 C 195.288,346.535 195.32,346.808 195.361,347.186 196.299,346.1 197.147,345.424 198.625,346.203 199.2588,346.4364 199.9905,346.5714 200.7537,346.5714 201.0053,346.5714 201.2535,346.5567 201.4975,346.5282 201.799,346.531 202.193,346.151 202.448,345.851 202.724,345.362 203.2402,345.0371 203.8322,345.0371 204.261,345.0371 204.6501,345.2076 204.9353,345.4844 L 203.484,346.539 203.73,346.862 C 204.6349,346.6026 205.3529,345.957 205.7055,345.1198 206.39,343.427 209.075,341.693 211.036,342.046 210.1488,342.3189 209.376,342.6838 208.6687,343.1415 208.1964,343.7082 207.7687,344.3866 207.4515,345.1237 208.266,345.322 209.015,345.474 208.201,346.585 L 208.447,346.785 210.894,346.053 C 210.828,345.544 210.782,345.178 210.735,344.815 L 209.364,344.47 209.384,344.239 210.333,344.03 209.593,343.743 C 209.471,343.018 211.725,342.003 213.258,342.059 L 211.858,343.165 211.993,343.384 C 212.564,342.9983 213.2224,342.6791 213.9251,342.4603 214.464,342.369 215.617,341.422 215.654,343.153 L 216.72,343.24 216.783,342.986 215.954,342.604 C 215.9904,342.4801 216.035,342.373 216.0895,342.272 216.773,342.412 217.728,341.581 218.093,342.986 218.2351,343.5359 218.7269,343.9357 219.3119,343.9357 219.4639,343.9357 219.6097,343.9087 219.7447,343.8592 220.157,343.735 220.836,344.478 221.402,344.826 L 220.502,346.067 223.534,347.543 C 222.787,347.923 222.102,348.224 221.464,348.604 220.277,349.311 220.678,347.46 219.677,347.71 219.4655,347.89 219.3322,348.1565 219.3322,348.454 219.3322,348.7336 219.4499,348.9857 219.6386,349.1635 219.896,349.491 219.539,350.295 219.463,350.916 L 217.599,350.041 217.341,350.351 218.511,350.914 C 218.411,351.093 218.319,351.273 218.223,351.452 L 215.537,350.723 C 215.4,349.561 214.801,348.977 213.437,349.431 213.3079,349.4476 213.1587,349.4571 213.0072,349.4571 212.6982,349.4571 212.3983,349.4176 212.1124,349.3435 212.13,349.177 212.124,349.003 212.117,348.831 212.677,348.789 213.237,348.731 213.797,348.71 214.426,348.683 215.125,348.91 215.369,347.963 215.419,347.763 215.952,347.68 216.269,347.558 217.218,347.187 217.335,346.625 216.618,345.882 216.15,345.397 215.688,344.908 215.225,344.42 215.194,344.541 215.164,344.662 215.135,344.783 214.735,344.783 214.335,344.757 213.935,344.783 213.467,344.81 213.0,344.877 212.535,344.927 212.649,345.377 212.762,345.827 212.935,346.514 212.247,347.853 210.448,347.214 208.952,347.737 L 210.866,349.223 C 209.848,350.767 208.481,349.673 207.266,349.842 L 207.971,348.901 C 206.494,349.1348 205.1784,349.4868 203.9213,349.9588 202.1967,350.8871 200.6297,351.8451 199.1311,352.8941 198.301,353.415 198.831,354.328 199.019,355.071 199.09,355.35 199.748,355.484 200.144,355.677 201.008,356.097 201.853,356.577 202.752,356.907 203.3196,357.0613 203.9806,357.1684 204.66,357.2059 204.303,358.07 203.941,358.884 203.556,359.748 203.756,360.093 204.031,360.548 204.489,361.331 205.0516,360.5172 205.5887,359.5863 206.0485,358.6118 206.2795,357.8869 206.7473,357.4201 207.3401,357.2453 208.038,357.0008 208.6318,356.6795 209.164,356.2804 209.695,355.877 210.128,355.323 209.574,354.551 209.5502,354.4867 209.5364,354.4125 209.5364,354.3351 209.5364,354.1849 209.5883,354.0468 209.675,353.9377 210.692,353.387 210.974,352.27 211.663,351.481 211.929,351.175 212.538,351.131 213.005,351.05 213.383,350.984 213.805,351.127 214.165,351.027 214.843,350.84 215.255,350.886 215.593,351.635 215.756,351.998 216.402,352.144 216.893,352.421 216.326,353.027 215.488,353.748 216.948,354.605 L 219.998,352.711 C 219.863,353.984 221.224,354.951 220.293,356.241 220.193,356.382 220.393,356.929 220.604,357.08 221.43,357.671 222.316,358.18 223.179,358.714 L 223.249,359.221 220.122,361.421 C 220.197,361.588 220.236,361.786 220.296,361.791 221.834,361.939 221.433,363.199 221.58,364.102 221.612,364.302 221.299,364.602 221.08,364.778 221.006,364.84 220.621,364.717 220.598,364.623 220.387,363.79 219.667,363.951 219.113,363.856 218.6032,363.7877 218.0023,363.7426 217.3933,363.7312 L 217.203,363.401 218.568,361.752 C 217.25,361.27 216.755,361.413 215.548,362.428 215.389,362.561 214.823,362.437 214.621,362.246 214.4234,362.0297 214.1402,361.8944 213.8254,361.8944 213.5614,361.8944 213.3196,361.9896 213.1324,362.1474 212.0162,362.6866 211.0598,363.2643 210.163,363.9189 210.972,363.559 211.716,363.213 212.488,362.925 212.8016,362.7902 213.1664,362.7119 213.5495,362.7119 213.5877,362.7119 213.6256,362.7126 213.6634,362.7142 214.001,362.745 214.537,362.935 214.601,363.162 214.682,363.451 214.372,363.851 214.232,364.202 L 213.897,363.769 C 213.947,364.131 213.997,364.493 214.011,364.598 L 215.334,365.47 215.273,365.954 217.11,364.854 C 217.001,365.273 217.005,365.733 216.843,365.8 215.303,366.453 213.735,367.038 212.175,367.643 L 211.957,367.323 213.949,365.791 C 213.8528,365.7855 213.7404,365.7824 213.6272,365.7824 213.1568,365.7824 212.6989,365.8365 212.2596,365.939 210.7476,366.582 209.4604,367.2302 208.2228,367.954 208.009,368.089 207.924,368.797 207.629,369.457 206.7074,369.5645 205.868,369.7713 205.0732,370.0695 204.385,370.399 203.798,371.131 203.004,371.486 L 202.382,373.137 202.163,373.086 202.026,371.98 201.856,371.962 C 201.7151,372.2565 201.6213,372.5992 201.5946,372.9606 201.852,375.0 200.38,375.604 198.987,376.394 197.8118,377.0662 196.7954,377.8205 195.8787,378.6798 195.005,379.497 195.213,380.671 195.448,381.737 195.516,382.0055 195.5551,382.3136 195.5551,382.6308 195.5551,383.6371 195.1621,384.5517 194.5212,385.2297 194.183,384.2503 193.8843,383.0744 193.6822,381.8658 193.6648,381.7172 193.6653,381.6963 193.6653,381.6753 193.6653,380.9895 193.1672,380.4198 192.5132,380.3082 191.738,380.107 190.941,380.032 190.173,379.84 188.601,379.448 188.464,379.517 188.223,381.105 188.008,381.105 187.74,381.18 187.558,381.087 185.728,380.168 184.012,380.713 182.38,381.568 181.7935,381.8941 181.3362,382.3924 181.0697,382.9938 180.6117,384.0574 180.2824,385.2684 180.133,386.5343 180.1497,387.6683 180.3159,388.6931 180.607,389.6639 180.6748,389.9594 180.7751,390.2772 180.8954,390.5849 181.329,390.688 181.717,390.819 182.1,390.955 182.127,390.964 182.124,391.041 182.152,391.055 183.085,391.607 185.641,390.148 185.752,389.055 185.8346,388.7178 186.0737,388.4497 186.386,388.3284 187.351,388.14 188.334,388.077 189.293,387.969 188.358,389.758 187.421,391.546 186.422,393.455 187.192,393.521 188.146,393.899 188.75,393.591 189.973,392.968 190.59,393.682 191.25,394.191 190.9538,395.1564 190.6754,396.3595 190.4732,397.5883 190.4638,398.8999 191.393,399.8206 192.5369,399.8206 192.7927,399.8206 193.0378,399.7746 193.2644,399.6903 194.797,399.049 194.977,399.098 196.154,400.673 Z" />
							<path style="fill:#a1c58c;" d="M 368.055,443.615 C 367.307,444.851 366.371,444.023 365.646,443.721 365.246,443.557 365.101,442.69 364.937,442.113 364.8086,441.6098 364.7051,441.0066 364.6476,440.3899 364.59,439.929 364.578,439.51 364.544,439.067 364.0,439.499 363.372,440.0 362.65,440.576 362.5824,440.3661 362.5175,440.1033 362.469,439.8347 362.308,438.118 361.608,437.341 359.907,437.625 357.821,437.974 355.569,437.956 353.814,439.49 353.6141,439.6391 353.3622,439.7287 353.0895,439.7287 353.0276,439.7287 352.9667,439.7241 352.9073,439.7152 352.7417,439.6983 352.5419,439.6883 352.3397,439.6883 351.1147,439.6883 349.9758,440.0579 349.0286,440.6918 348.19,441.14 347.665,440.652 347.181,440.118 347.1264,440.0084 347.0944,439.8792 347.0944,439.7426 347.0944,439.5775 347.1412,439.4232 347.2221,439.2924 348.508,438.509 348.267,437.242 348.306,436.066 348.318,435.707 348.237,435.345 348.236,434.985 348.236,433.485 348.286,431.985 348.244,430.494 348.205,429.082 350.657,427.743 351.975,427.37 352.8206,427.2853 353.597,427.0984 354.3282,426.82 354.9674,426.3003 355.5568,425.6552 356.0209,424.9229 356.415,424.393 356.455,423.355 357.439,424.351 358.0407,423.5518 358.6348,422.8471 359.265,422.1768 359.922,421.542 360.672,420.926 361.562,422.037 361.986,422.565 362.596,422.449 362.737,421.776 363.044,420.321 364.308,419.843 365.298,419.091 365.454,418.973 365.826,419.13 366.098,419.172 366.984,419.308 367.869,419.449 368.998,419.627 368.788,419.984 368.577,420.386 368.324,420.76 367.266,422.328 367.288,422.434 368.88,423.366 369.1369,423.5022 369.3557,423.6733 369.5402,423.8761 370.642,425.232 371.403,424.762 371.922,423.317 372.422,421.909 372.771,420.443 373.201,419.007 373.3449,418.7056 373.4974,418.4482 373.67,418.2062 373.831,418.933 373.97,419.361 374.035,419.799 374.159,420.643 374.108,421.45 375.058,422.045 375.467,422.299 375.473,423.36 375.483,424.057 375.502,425.212 375.444,426.336 376.766,426.885 376.886,426.935 376.958,427.123 377.03,427.26 377.657,428.473 378.315,429.671 378.886,430.909 379.1488,431.382 379.3036,431.9461 379.3036,432.5464 379.3036,432.5684 379.3034,432.5904 379.303,432.6123 379.1694,435.1692 377.9231,437.4143 376.0424,438.8857 374.9437,439.9057 373.9442,440.9533 373.0107,442.0584 372.3562,442.6352 371.6761,443.1125 370.9508,443.5187 370.589,443.738 370.165,443.751 369.902,443.963 369.164,444.576 368.601,444.408 368.055,443.615 Z" />
							<path style="fill:#a1c58c;" d="M 230.785,345.173 L 228.945,345.473 C 228.897,345.321 228.845,345.173 228.801,345.017 L 230.613,343.993 229.213,343.814 C 229.454,343.338 229.846,342.92 229.836,342.514 229.79,340.714 229.299,340.297 227.436,340.346 226.768,340.363 226.097,340.553 225.436,340.514 224.8646,340.4126 224.3553,340.2543 223.8758,340.0411 L 224.012,339.723 226.226,339.439 226.226,339.226 223.713,339.211 223.701,338.911 228.662,338.121 228.262,337.405 C 226.6056,337.5503 225.0772,337.8812 223.6267,338.3798 222.462,338.927 220.798,338.7 219.794,340.066 219.577,340.361 218.807,340.32 218.294,340.314 216.652,340.292 215.011,340.2 213.371,340.17 213.122,340.17 212.871,340.352 212.635,340.754 L 217.848,340.554 C 217.856,340.754 217.865,340.954 217.874,341.154 215.657,342.023 213.354,341.29 210.881,341.387 L 211.503,340.398 C 210.892,340.286 210.35,340.185 209.803,340.084 209.812,339.92 209.822,339.756 209.831,339.59 211.971,339.881 214.157,340.5 216.236,338.824 214.881,338.855 213.393,339.745 212.878,337.785 213.5749,337.3112 214.4347,337.0285 215.3604,337.0285 216.221,337.0285 217.0247,337.2729 217.7058,337.6961 217.687,337.56 217.695,337.435 217.698,337.309 L 216.834,336.756 C 221.951,336.413 226.834,335.522 231.982,336.425 231.572,336.588 231.344,336.697 231.106,336.768 230.8451,336.7956 230.6233,336.9426 230.494,337.1525 230.8556,337.0511 231.3127,336.9517 231.7789,336.8795 232.992,336.759 234.145,336.671 235.292,336.614 236.647,336.545 238.019,336.627 239.359,336.458 242.965,336.002 246.559,335.403 250.199,336.045 250.6218,336.2099 250.9861,336.4322 251.3036,336.7071 251.244,336.836 251.189,336.971 251.132,337.103 L 255.4,337.129 250.491,338.923 C 251.009,339.48 251.334,339.829 251.659,340.177 L 250.259,340.168 C 250.3827,340.5041 250.4688,340.8934 250.5001,341.2981 250.465,342.113 249.72,342.325 249.186,342.698 248.692,343.043 247.815,343.145 248.43,344.146 248.1428,344.6311 247.7218,345.0106 247.2178,345.2391 245.463,345.774 243.676,346.133 241.916,346.586 241.507,346.692 241.139,346.945 240.738,347.086 239.581,347.497 238.418,347.898 237.249,348.286 236.463,348.543 235.618,348.666 235.205,349.551 235.088,349.8 234.805,349.967 234.605,350.182 233.889,350.964 233.115,351.703 232.484,352.547 231.919,353.305 231.45,353.469 230.796,352.707 230.667,352.558 230.427,352.38 230.263,352.401 229.215,352.541 228.809,351.863 228.655,351.056 228.4025,349.9706 228.2453,348.717 228.2203,347.4311 228.2196,347.401 228.2194,347.3869 228.2194,347.3728 228.2194,346.5887 228.8553,345.9528 229.6394,345.9528 229.6822,345.9528 229.7246,345.9547 229.7664,345.9584 230.177,345.95 230.585,345.6 230.997,345.406 L 230.785,345.173 Z" />
							<path style="fill:#a1c58c;" d="M 368.235,411.981 C 368.612,411.452 368.768,411.248 368.909,411.034 369.1746,410.4158 369.7783,409.9906 370.4811,409.9906 370.8588,409.9906 371.208,410.1134 371.4907,410.3214 372.596,410.831 373.771,411.205 374.879,411.718 375.5188,412.0297 376.0701,412.4008 376.5624,412.8369 377.155,413.352 377.676,413.974 378.276,414.6 L 377.416,415.029 C 378.346,416.098 379.241,417.129 380.292,418.337 378.756,418.085 377.503,417.937 376.806,416.496 376.4621,416.0328 375.957,415.7059 375.3751,415.5982 374.607,415.412 374.706,416.172 374.424,416.57 374.1135,416.8313 373.7093,416.9902 373.2681,416.9902 373.0549,416.9902 372.8503,416.9531 372.6605,416.8851 372.237,416.4161 371.6145,416.1208 370.9231,416.1208 370.5556,416.1208 370.2075,416.2042 369.8968,416.3532 369.894,416.235 369.877,416.124 369.86,416.012 370.214,415.758 370.568,415.502 370.923,415.249 370.733,413.506 370.441,413.187 368.683,412.649 368.059,412.459 367.458,412.194 366.77,411.934 366.755,411.965 366.67,412.153 366.532,412.449 366.314,411.977 366.132,411.577 365.924,411.126 L 367.446,410.619 C 366.8858,410.6066 366.3507,410.5205 365.8431,410.37 365.4955,410.1257 365.1579,409.8354 364.8623,409.5065 365.458,409.102 366.067,408.327 366.931,409.174 367.1723,409.3919 367.3714,409.651 367.5181,409.9411 367.773,410.524 367.937,411.117 368.235,411.981 Z" />
							<path style="fill:#a1c58c;" d="M 348.232,406.876 C 348.979,406.297 349.532,405.935 350.009,405.488 351.137,404.425 352.227,403.322 353.42,402.15 L 355.104,403.635 C 353.675,404.704 353.675,405.447 355.154,407.608 L 354.115,407.603 C 353.628,409.013 353.154,410.385 352.644,411.864 L 351.674,412.091 C 350.784,410.672 349.036,412.032 348.023,410.641 347.69,410.0389 347.3741,409.3308 347.1179,408.5947 347.0697,408.3318 347.0592,408.1404 347.0592,407.9465 347.0592,407.5359 347.1061,407.1362 347.195,406.7526 L 348.232,406.876 Z" />
							<path style="fill:#a1c58c;" d="M 298.294,419.613 C 298.494,420.601 299.135,421.788 298.794,422.528 298.294,423.612 298.073,424.749 297.666,425.836 297.1696,427.0173 296.6872,428.4638 296.3065,429.951 296.1231,431.0609 295.3824,431.7352 294.479,431.7649 293.8753,431.6949 293.3752,431.322 293.1275,430.8052 292.854,429.612 292.406,428.37 293.447,427.188 293.6334,426.8317 293.7428,426.4099 293.7428,425.9626 293.7428,425.7247 293.7119,425.494 293.6538,425.2744 293.458,423.947 293.78,423.251 295.079,422.865 296.699,422.386 297.114,420.865 298.294,419.613 Z" />
							<path style="fill:#a1c58c;" d="M 201.496,344.772 C 201.2448,345.0569 200.9563,345.3009 200.6362,345.4985 200.3537,345.6432 200.0394,345.7224 199.7066,345.7224 199.5802,345.7224 199.4566,345.711 199.3365,345.6891 198.8507,345.5561 198.2789,345.4785 197.689,345.4785 196.9488,345.4785 196.237,345.6006 195.5728,345.8257 195.3522,345.8846 195.046,345.9263 194.7301,345.9263 193.709,345.9263 192.7895,345.4907 192.1473,344.7953 L 195.539,344.627 195.574,344.348 192.822,343.981 194.098,343.723 C 194.09,343.611 194.081,343.501 194.072,343.389 L 189.958,343.7 189.467,343.144 C 190.3725,342.5296 191.4081,341.9794 192.5024,341.5454 193.0236,341.3816 193.4977,341.3094 193.9886,341.3094 195.1149,341.3094 196.1525,341.6896 196.9802,342.3286 197.622,342.799 198.494,343.527 199.476,342.332 199.558,342.832 199.597,343.057 199.588,343.008 L 202.398,341.795 C 202.465,341.919 202.53,342.041 202.598,342.164 202.098,342.557 201.404,342.857 201.154,343.373 200.973,343.741 201.388,344.397 201.496,344.772 Z" />
							<path style="fill:#a1c58c;" d="M 342.998,413.737 C 341.758,411.983 340.072,410.262 339.221,408.197 338.421,406.6151 337.3479,405.2835 336.0504,404.2141 335.7429,403.8314 335.4772,403.4207 335.2508,402.9863 L 337.83,403.574 C 339.09,405.3722 340.7026,406.8366 342.5768,407.8906 L 342.406,408.508 C 343.194,409.3607 343.8628,410.3396 344.3752,411.4077 344.4983,411.6736 344.5521,411.9027 344.5521,412.1445 344.5521,413.0104 343.8608,413.7153 343.0,413.737 Z" />
							<path style="fill:#a1c58c;" d="M 260.846,360.943 C 260.162,361.074 259.48,361.216 258.792,361.331 257.82,361.493 256.844,361.631 255.566,361.831 L 257.544,360.631 256.22,360.494 257.007,358.994 258.182,358.722 256.572,357.438 257.026,356.625 256.237,357.125 C 256.295,355.241 255.626,355.025 258.357,354.087 258.045,354.52 257.807,354.85 257.501,355.275 L 258.946,355.283 258.159,356.326 260.045,359.045 C 260.489,359.364 261.815,359.211 260.453,360.406 260.589,360.615 260.7183,360.7927 260.856,360.9633 L 260.846,360.943 Z" />
							<path style="fill:#a1c58c;" d="M 362.842,376.427 L 359.527,377.22 C 360.46,375.804 361.401,375.137 362.963,375.838 362.963,375.173 362.97,374.625 362.972,374.191 363.335,374.176 363.955,374.235 363.98,374.137 364.1564,373.5813 364.258,372.9425 364.258,372.2799 364.258,372.2233 364.2573,372.1669 364.2558,372.1107 364.1017,371.5145 363.8757,370.9834 363.582,370.4977 365.575,371.112 365.975,371.671 365.954,373.224 365.9535,373.2475 365.9532,373.2751 365.9532,373.3028 365.9532,373.8713 366.0814,374.4099 366.3106,374.8912 366.646,375.564 366.86,376.009 365.801,376.153 365.1005,376.3311 364.4935,376.5535 363.9168,376.8293 L 363.486,377.888 362.842,376.427 Z" />
							<path style="fill:#a1c58c;" d="M 383.457,447.564 C 383.3092,447.8386 383.1191,448.0708 382.8925,448.261 381.711,448.971 380.489,449.595 379.308,450.302 378.8684,450.602 378.4855,450.9337 378.1445,451.3045 377.0,452.423 375.989,452.563 374.355,451.566 375.796,450.807 377.079,450.138 378.355,449.457 379.422,448.888 380.487,448.314 381.545,447.728 382.141,447.393 382.521,446.134 383.457,447.564 Z" />
							<path style="fill:#a1c58c;" d="M 358.192,412.351 L 357.114,412.92 C 356.8907,412.2807 356.659,411.6197 356.419,410.937 355.467,411.637 357.0,413.181 355.327,413.688 356.361,412.466 354.157,411.668 355.141,410.321 355.833,409.373 355.421,407.776 356.815,407.411 L 359.935,407.196 C 359.7474,407.813 359.1833,408.2545 358.5163,408.2545 358.3294,408.2545 358.1506,408.2198 357.9859,408.1566 357.6447,408.1122 357.239,408.0848 356.8268,408.0848 356.5294,408.0848 356.2353,408.0991 355.9452,408.1269 356.148,408.754 356.271,409.232 356.382,409.635 L 358.639,408.747 358.78,409.062 357.28,410.298 C 357.564,410.95 357.881,411.655 358.192,412.351 Z" />
							<path style="fill:#a1c58c;" d="M 294.227,345.123 L 290.048,344.105 C 291.142,342.937 291.974,342.019 292.848,341.139 293.0577,340.9795 293.3148,340.8718 293.595,340.8397 294.733,340.599 295.863,340.346 297.002,340.179 297.0442,340.1779 297.0938,340.1772 297.1436,340.1772 297.5779,340.1772 298.0006,340.2271 298.4063,340.3214 298.385,340.458 298.403,340.602 298.419,340.746 297.2165,340.8423 296.1033,341.0655 295.0418,341.4043 294.0614,341.996 293.1221,342.679 292.265,343.4515 L 294.291,344.843 294.227,345.123 Z" />
							<path style="fill:#a1c58c;" d="M 252.535,349.094 C 251.435,349.5552 250.1249,349.9684 248.7712,350.2652 247.488,350.434 246.632,349.639 246.2,348.334 L 246.95,347.66 247.605,348.544 C 248.559,348.311 249.7394,348.1051 250.9415,347.9712 251.44,347.939 251.842,348.533 252.535,349.094 Z" />
							<path style="fill:#a1c58c;" d="M 350.979,414.95 L 349.827,415.199 C 349.774,416.011 351.543,415.072 350.972,416.375 350.294,416.275 349.614,416.218 348.95,416.075 348.313,415.942 347.701,415.694 347.063,415.565 346.463,415.445 345.848,415.414 345.239,415.346 345.199,415.341 345.139,415.364 345.122,415.346 344.783,414.991 344.45,414.63 344.117,414.271 344.5919,414.1062 345.139,414.011 345.7084,414.011 345.7114,414.011 345.7144,414.011 345.7175,414.011 346.468,414.14 347.165,414.658 347.917,414.73 348.0799,414.7349 348.2714,414.7376 348.4636,414.7376 349.3284,414.7376 350.18,414.6814 351.0151,414.5725 L 350.979,414.95 Z" />
							<path style="fill:#a1c58c;" d="M 203.936,340.911 C 203.367,341.004 202.8,341.111 202.228,341.186 201.679,341.259 201.123,341.275 200.577,341.358 200.031,341.441 199.445,341.845 199.15,340.923 199.092,340.739 198.511,340.678 198.162,340.639 197.328,340.545 196.488,340.499 195.651,340.439 L 195.639,340.112 199.996,339.234 200.07,339.409 199.417,339.93 201.985,340.939 C 202.494,339.863 202.494,339.863 203.936,340.911 Z" />
							<path style="fill:#a1c58c;" d="M 252.506,360.236 L 253.222,359.426 C 253.122,359.102 252.864,358.648 252.973,358.526 253.29,358.2889 253.6591,358.0991 254.0577,357.9767 L 253.961,357.479 C 254.3263,357.3607 254.7545,357.2704 255.196,357.2252 255.892,357.218 256.308,357.385 255.787,358.2 255.58,358.6669 255.4314,359.2081 255.3683,359.775 L 252.713,360.606 252.506,360.236 Z" />
							<path style="fill:#a1c58c;" d="M 358.555,396.503 L 356.069,395.621 C 354.469,394.621 355.369,392.905 355.062,391.389 356.914,391.502 357.234,392.105 356.382,393.723 356.3338,393.8426 356.3059,393.9813 356.3059,394.1264 356.3059,394.6448 356.6623,395.08 357.1434,395.2004 357.7583,395.5072 358.282,395.8626 358.7531,396.2764 L 358.555,396.503 Z" />
							<path style="fill:#a1c58c;" d="M 191.434,387.087 C 191.834,385.802 192.993,386.052 193.624,386.16 194.8523,386.4809 195.9292,386.9301 196.9235,387.506 197.654,387.846 198.406,388.305 199.177,388.726 L 199.129,389.026 196.487,389.232 C 196.623,388.963 196.724,388.761 196.83,388.552 195.208,387.526 193.683,386.175 191.434,387.087 Z" />
							<path style="fill:#a1c58c;" d="M 362.582,366.407 L 366.482,368.53 C 366.074,368.967 365.777,369.288 365.388,369.708 L 363.352,369.208 363.27,369.395 363.99,369.995 363.49,370.329 C 363.097,369.682 362.431,369.19 363.277,368.36 363.461,368.177 362.877,367.201 362.582,366.407 Z" />
							<path style="fill:#a1c58c;" d="M 360.374,399.485 C 360.634,400.285 360.906,401.04 361.094,401.816 361.117,401.91 360.683,402.116 360.266,402.406 360.266,402.425 360.321,402.764 360.379,403.142 359.028,402.847 358.946,402.748 358.959,401.356 L 357.431,402.032 C 357.337,401.181 357.881,400.756 358.948,400.718 359.371,400.703 359.772,400.031 360.374,399.485 Z" />
							<path style="fill:#a1c58c;" d="M 358.019,360.341 L 357.648,359.323 357.801,359.211 C 359.001,360.379 360.199,361.5487 361.395,362.72 361.452,362.775 361.554,362.873 361.539,362.9 360.617,364.624 362.792,364.609 363.007,365.671 L 362.348,365.855 C 360.9093,364.019 359.4593,362.171 357.998,360.311 L 358.019,360.341 Z" />
							<path style="fill:#a1c58c;" d="M 369.553,446.54 C 368.698,447.224 367.853,447.926 366.962,448.558 366.896,448.604 366.245,448.127 366.262,447.931 366.371,447.2485 366.5265,446.6445 366.7317,446.0639 L 369.344,446.153 C 369.416,446.281 369.485,446.411 369.553,446.54 Z" />
							<path style="fill:#a1c58c;" d="M 206.584,341.79 C 206.5601,342.2153 206.507,342.6116 206.4259,342.9976 206.221,343.653 204.493,343.964 203.965,343.425 203.7222,343.206 203.4579,342.9973 203.1803,342.8068 203.174,342.717 203.195,342.645 203.216,342.572 204.535,342.999 205.448,341.235 206.584,341.79 Z" />
							<path style="fill:#a1c58c;" d="M 307.884,338.047 C 308.374,337.869 308.91,337.466 309.343,337.557 310.7632,337.9168 311.9206,338.285 313.0497,338.7108 312.766,338.795 312.714,338.958 312.67,339.121 L 308.058,338.482 307.884,338.047 Z" />
							<path style="fill:#a1c58c;" d="M 200.041,389.186 C 200.2791,389.1344 200.5525,389.1048 200.8328,389.1048 201.9579,389.1048 202.9719,389.5815 203.6838,390.3439 202.9825,390.6608 202.167,390.8864 201.3122,390.9816 200.357,390.941 200.286,389.942 200.041,389.186 Z" />
							<path style="fill:#a1c58c;" d="M 322.831,399.804 C 323.449,399.473 323.909,399.455 324.231,400.249 324.983,402.1 325.01,402.089 323.431,402.9 323.231,401.8 323.049,400.784 322.864,399.772 L 322.831,399.804 Z" />
							<path style="fill:#a1c58c;" d="M 335.702,341.077 L 340.602,341.49 C 339.099,342.442 336.605,342.212 335.702,341.077 Z" />
							<path style="fill:#a1c58c;" d="M 208.845,340.177 C 207.895,341.234 206.527,341.313 204.938,340.154 L 208.845,340.177 Z" />
							<path style="fill:#a1c58c;" d="M 347.244,389.99 C 346.867,390.497 347.484,391.631 346.225,391.54 345.959,391.521 345.725,391.065 345.475,390.809 L 346.869,389.602 347.244,389.99 Z" />
							<path style="fill:#a1c58c;" d="M 381.994,412.756 C 381.97,413.629 381.188,414.049 380.465,414.302 380.034,414.454 379.438,414.134 378.608,413.962 L 381.994,412.756 Z" />
							<path style="fill:#a1c58c;" d="M 360.236,380.067 C 360.119,379.702 359.987,379.343 359.887,378.973 359.825,378.746 359.839,378.497 359.771,378.273 359.678,377.955 359.542,377.651 359.425,377.34 359.9439,377.5738 360.3899,377.8699 360.7796,378.2266 360.998,378.5 360.876,379.053 360.904,379.484 L 360.236,380.067 Z" />
							<path style="fill:#a1c58c;" d="M 354.93,385.256 C 354.923,386.218 354.919,387.104 354.912,388.182 353.869,386.669 353.9,385.833 354.93,385.256 Z" />
							<path style="fill:#a1c58c;" d="M 361.413,416.212 L 358.328,418.118 C 358.87,416.612 359.619,416.171 361.413,416.212 Z" />
							<path style="fill:#a1c58c;" d="M 209.998,338.496 C 209.762,338.996 209.762,338.996 207.435,338.828 207.864,337.968 207.864,337.968 209.998,338.496 Z" />
							<path style="fill:#a1c58c;" d="M 359.374,415.927 C 358.258,416.665 356.274,416.839 355.422,416.227 L 359.374,415.927 Z" />
							<path style="fill:#a1c58c;" d="M 384.327,428.327 L 386.483,430.105 C 384.914,430.094 384.362,429.493 384.327,428.327 Z" />
							<path style="fill:#a1c58c;" d="M 316.124,339.421 L 313.7,339.671 C 313.624,338.557 314.201,338.465 316.124,339.421 Z" />
							<path style="fill:#a1c58c;" d="M 352.27,416.284 L 354.784,416.043 354.836,416.463 352.377,416.834 C 352.338,416.651 352.306,416.469 352.27,416.284 Z" />
							<path style="fill:#a1c58c;" d="M 184.899,408.779 L 183.751,407.979 C 183.903,407.793 184.151,407.426 184.192,407.447 184.6461,407.7101 185.0284,407.9632 185.3949,408.2364 L 184.899,408.779 Z" />
							<path style="fill:#a1c58c;" d="M 265.34,372.039 C 265.652,371.26 264.718,370.19 266.285,370.015 266.343,370.814 266.935,371.722 265.34,372.039 Z" />
						</g>
					</g>
				</g>
				<path style="fill:#a35d4b;" d="M 288.875,372.126 C 285.347,370.909 281.925,369.485 278.375,368.255 277.919,368.797 276.67,369.971 276.262,370.448 L 276.262,370.448 C 275.854,370.923 275.899,370.623 275.818,371.098 272.451,372.661 276.363,375.828 269.891,375.689 263.419,375.55 246.463,370.289 239.031,366.689 236.879,364.918 234.931,361.133 232.102,361.515 231.076,361.654 233.721,364.815 233.857,365.133 231.5476,364.1418 229.6561,363.185 227.8296,362.1284 226.093,361.251 226.117,362.409 227.447,363.339 228.6322,364.1169 229.6622,364.9066 230.6304,365.7646 228.883,364.693 225.88,363.116 224.186,362.915 222.492,362.714 228.786,366.439 228.976,366.545 227.94,365.999 224.676,364.256 223.716,364.832 222.756,365.408 227.462,367.465 227.703,367.525 227.379,367.569 225.093,366.17 224.947,366.888 224.721,368.001 228.721,370.34 230.11,371.095 231.2894,371.6518 232.6716,371.977 234.1295,371.977 235.0115,371.977 235.8657,371.858 236.6771,371.6352 245.419,378.137 258.762,387.151 268.756,390.914 268.756,390.914 268.744,390.914 268.749,390.914 268.754,390.914 268.788,390.919 268.807,390.923 269.141,390.985 269.479,391.037 269.815,391.075 L 269.889,391.082 C 270.212,391.11 270.589,391.137 270.907,391.133 272.5443,391.1132 274.132,390.9641 275.6787,390.6954 276.09,390.621 276.602,390.492 277.102,390.363 278.227,390.0601 279.1726,389.7276 280.0859,389.3344 281.1523,388.8729 282.1545,388.3595 283.1174,387.787 283.196,387.741 283.365,387.637 283.544,387.521 283.901,387.29 284.228,387.045 284.56,386.798 284.727,386.674 284.89,386.55 285.039,386.422 285.6448,385.9175 286.1869,385.3814 286.6801,384.8022 286.9216,384.5077 287.1378,384.2004 287.3313,383.8778 287.8123,383.0945 288.1758,382.2266 288.394,381.3026 288.446,381.06 288.477,380.822 288.499,380.667 288.654,379.534 288.799,378.122 288.899,377.086 288.966,376.396 289.008,375.836 289.043,375.34 289.078,374.844 289.097,374.355 289.102,374.073 289.107,373.791 289.102,373.63 289.102,373.567 289.1109,373.4819 289.1159,373.3832 289.1159,373.2833 289.1159,372.8648 289.0272,372.467 288.8676,372.1076 Z" />
				<path style="fill:#ffffff;" d="M 244.883,355.582 C 245.1385,356.6094 245.2851,357.7883 245.2851,359.0013 245.2851,359.5934 245.2502,360.1774 245.1823,360.7513 244.9635,362.4541 243.9643,363.9552 242.5463,364.8559 241.9994,365.1771 241.3701,365.3586 240.6985,365.3586 239.5765,365.3586 238.5725,364.8521 237.9027,364.0554 237.5105,363.4312 237.2282,362.7051 237.0969,361.9278 L 232.602,342.493 C 232.263,341.026 231.994,339.276 233.041,338.193 238.798,332.248 244.424,353.177 244.883,355.582 Z" />
				<path style="fill:#ffffff;" d="M 231.546,333.045 C 232.1258,332.5295 232.4895,331.7816 232.4895,330.949 232.4895,330.917 232.4889,330.8851 232.4879,330.8534 232.718,327.225 230.802,323.843 228.95,320.711 228.4568,319.5999 227.5818,318.7324 226.4954,318.2609 221.628,316.935 223.231,324.167 224.556,326.24 225.685,328.001 228.946,334.857 231.546,333.045 Z" />
			</g>
		</g>
		<g>
			<g>
				<g>
					<path style="fill:#ce7159;" d="M 154.208,466.092 L 157.616,515.547 139.31,514.347 135.351,462.627" />
					<path style="fill:#f9e0bd;" d="M 164.272,520.394 C 164.51,519.962 163.865,518.868 162.848,518.334 161.0619,517.4335 159.5588,516.2224 158.3534,514.7572 157.959,514.144 158.228,510.268 158.228,510.268 L 140.161,510.119 138.753,510.192 137.677,520.392 164.272,520.394 Z" />
					<g>
						<path style="stroke:#af9371;stroke-width:1.0;stroke-miterlimit:10.0;fill:none;" d="M 157.1,517.112 C 156.6487,517.1427 156.1967,517.191 155.744,517.257" />
						<path style="stroke:#af9371;stroke-width:1.0;stroke-miterlimit:10.0;fill:none;" d="M 156.715,516.019 C 156.4878,516.0103 156.2211,516.0054 155.9532,516.0054 155.3133,516.0054 154.6799,516.0336 154.0543,516.0888" />
					</g>
				</g>
				<g>
					<path style="fill:#ce7159;" d="M 138.442,474.665 L 95.426,499.895 85.152,484.695 129.625,457.638" />
					<path style="fill:#f9e0bd;" d="M 95.97,508.514 C 96.457,508.437 96.925,507.257 96.725,506.125 96.5531,505.3097 96.4547,504.3733 96.4547,503.4139 96.4547,502.3292 96.5806,501.2737 96.8185,500.2614 97.036,499.696 100.264,497.533 100.264,497.533 L 89.307,483.167 88.387,482.099 79.669,487.499 95.97,508.514 Z" />
					<g>
						<path style="stroke:#af9371;stroke-width:1.0;stroke-miterlimit:10.0;fill:none;" d="M 94.171,500.832 C 93.8703,500.494 93.555,500.1667 93.225,499.85" />
						<path style="stroke:#af9371;stroke-width:1.0;stroke-miterlimit:10.0;fill:none;" d="M 94.795,499.855 C 94.256,499.1117 93.7207,498.4597 93.1492,497.8415" />
					</g>
				</g>
				<path style="fill:#f16e42;" d="M 109.465,469.695 L 96.213,477.777 C 110.261,499.626 130.373,504.203 153.353,501.215 L 150.325,463.039 142.809,446.817" />
				<path style="stroke:#872e2e;stroke-width:1.0;stroke-miterlimit:10.0;fill:none;" d="M 100.708,475.213 C 105.004,481.1393 110.6912,485.8085 117.303,488.7884 119.7597,489.9117 122.3465,490.8099 125.0326,491.4525" />
				<path style="fill:#fe7f54;" d="M 138.635,395.945 C 138.635,395.945 149.656,435.345 153.935,458.023 156.608,472.202 156.676,501.375 156.676,501.375 154.6699,501.6988 152.3585,501.8838 150.004,501.8838 137.8978,501.8838 126.932,496.992 118.9756,489.0776 108.111,478.487 106.94,471.237 106.94,471.237 L 109.47,469.694 C 109.47,469.694 101.151,434.859 101.06,424.323 100.947,411.235 105.017,398.049 105.017,398.049" />
				<path style="fill:#000000;" d="M 103.338,404.635 L 138.886,402.066 104.659,397.926 103.338,404.635 Z" />
				<path style="stroke:#b73939;stroke-width:1.0;stroke-miterlimit:10.0;fill:none;" d="M 108.589,439.014 C 112.954,448.436 117.605,457.805 123.838,466.114 130.2329,474.5573 137.9366,481.6206 146.717,487.1243" />
				<path style="stroke:#b73939;stroke-width:1.0;stroke-miterlimit:10.0;fill:none;" d="M 109.594,469.589 C 117.5814,477.5252 127.7239,483.3019 139.0659,485.959" />
				<path style="stroke:#b73939;stroke-width:1.0;stroke-miterlimit:10.0;fill:none;" d="M 117.989,476.64 C 128.2392,486.8223 141.42,494.0668 156.1542,496.9909" />
				<path style="stroke:#b73939;stroke-width:1.0;stroke-miterlimit:10.0;fill:none;" d="M 107.882,418.998 C 112.5086,425.8103 118.1662,431.5335 124.6988,436.0884 131.1096,440.5552 138.195,444.372 145.71,447.3349" />
				<path style="stroke:#b73939;stroke-width:1.0;stroke-miterlimit:10.0;fill:none;" d="M 116.748,420.632 C 123.9461,424.9964 132.6428,427.5803 141.9418,427.5803 142.2396,427.5803 142.5368,427.5777 142.8334,427.5724" />
				<path style="stroke:#000000;stroke-width:1.0;stroke-miterlimit:10.0;fill:none;" d="M 161.29,466.889 C 161.3039,467.4542 161.3119,468.1195 161.3119,468.7867 161.3119,475.1909 160.5797,481.4245 159.1945,487.4082" />
				<path style="stroke:#000000;stroke-width:1.0;stroke-miterlimit:10.0;fill:none;" d="M 164.857,473.921 C 164.6572,477.3594 164.0034,480.5783 162.9529,483.6122" />
			</g>
			<g>
				<path style="fill:#000000;" d="M 111.81,353.795 C 111.81,353.795 104.979,354.23 104.195,358.536 103.411,362.842 104.195,385.458 104.195,385.458 L 114.57,385.458 111.81,353.795 Z" />
				<g>
					<g>
						<path style="fill:#ce7159;" d="M 153.012,361.093 L 159.959,353.94 C 159.959,353.94 165.302,347.24 166.213,345.575 167.357,343.487 170.977,335.84 171.521,335.468 172.065,335.096 172.702,336.581 172.469,337.353 172.7075,336.4379 173.0198,335.6398 173.4124,334.8903 173.791,334.953 174.43,335.781 174.248,336.842 174.158,337.365 173.735,338.769 173.735,338.769 174.1011,338.1577 174.4589,337.6377 174.8458,337.1415 175.069,337.259 175.427,337.828 175.24,338.645 174.903,340.11 174.423,343.103 174.28,344.262 174.0,346.526 172.941,349.013 172.932,350.007 172.7221,353.8483 170.9706,357.2442 168.2911,359.6148 L 160.577,370.155" />
						<path style="fill:#ce7159;" d="M 153.012,361.093 L 159.959,353.94 C 159.959,353.94 165.302,347.24 166.213,345.575 167.357,343.487 170.977,335.84 171.521,335.468 172.065,335.096 172.702,336.581 172.469,337.353 172.7075,336.4379 173.0198,335.6398 173.4124,334.8903 173.791,334.953 174.43,335.781 174.248,336.842 174.158,337.365 173.735,338.769 173.735,338.769 174.1011,338.1577 174.4589,337.6377 174.8458,337.1415 175.069,337.259 175.427,337.828 175.24,338.645 174.903,340.11 174.423,343.103 174.28,344.262 174.0,346.526 172.941,349.013 172.932,350.007 172.7221,353.8483 170.9706,357.2442 168.2911,359.6148 L 160.577,370.155" />
					</g>
					<path style="fill:#7a8bc1;" d="M 131.493,370.339 C 131.493,370.339 139.56,376.339 145.703,380.77 151.846,385.201 157.094,381.295 161.02,376.684 163.532,373.734 170.937,364.061 170.937,364.061 L 159.883,353.812 149.919,364.473 C 149.919,364.473 142.795,358.173 138.369,353.833 133.663,349.218 128.383,348.712 122.63,351.9" />
					<path style="stroke:#000000;stroke-width:1.0;stroke-miterlimit:10.0;fill:none;" d="M 149.919,364.475 L 145.287,369.162" />
					<path style="stroke:#000000;stroke-width:1.0;stroke-miterlimit:10.0;fill:none;" d="M 157.633,356.222 L 168.616,367.079" />
					<path style="stroke:#000000;stroke-width:0.75;stroke-miterlimit:10.0;fill:none;" d="M 173.879,338.31 L 171.376,345.565" />
					<path style="stroke:#000000;stroke-width:0.75;stroke-miterlimit:10.0;fill:none;" d="M 172.535,337.16 L 169.486,345.457" />
					<path style="stroke:#000000;stroke-width:0.75;stroke-miterlimit:10.0;fill:none;" d="M 175.14,339.215 L 172.827,345.948" />
					<g>
						<path style="fill:#ce7159;" d="M 169.004,347.63 C 169.004,347.63 173.912,344.478 174.428,344.179 174.944,343.88 175.238,345.042 174.338,346.144 173.438,347.246 171.218,350.271 171.218,350.271 171.0639,352.3714 170.4082,354.2913 169.3714,355.9485" />
						<path style="fill:#ce7159;" d="M 169.004,347.63 C 169.004,347.63 173.912,344.478 174.428,344.179 174.944,343.88 175.238,345.042 174.338,346.144 173.438,347.246 171.218,350.271 171.218,350.271 171.0639,352.3714 170.4082,354.2913 169.3714,355.9485" />
					</g>
					<path style="stroke:#000000;stroke-width:0.75;stroke-miterlimit:10.0;fill:none;" d="M 173.818,344.558 C 173.677,344.647 169.25,347.473 169.25,347.473" />
					<path style="stroke:#000000;stroke-width:0.75;stroke-miterlimit:10.0;fill:none;" d="M 173.274,347.514 C 173.197,347.614 171.218,350.272 171.218,350.272 171.1087,352.1684 170.5657,353.917 169.6875,355.4489" />
				</g>
				<path style="fill:#7a8bc1;" d="M 140.167,361.415 C 142.3696,365.1198 143.672,369.5819 143.672,374.3477 143.672,376.8984 143.2989,379.3622 142.6043,381.6874 L 142.795,403.078 100.265,399.87 C 100.265,399.87 105.842,364.111 106.896,359.277 107.95,354.443 110.134,348.624 118.767,349.872" />
				<path style="stroke:#000000;stroke-width:1.0;stroke-miterlimit:10.0;fill:none;" d="M 100.687,397.164 L 142.78,400.514" />
				<path style="stroke:#000000;stroke-width:1.0;stroke-miterlimit:10.0;fill:none;" d="M 140.167,361.414 C 142.3696,365.1188 143.672,369.5809 143.672,374.3467 143.672,376.8974 143.2989,379.3612 142.6043,381.6864" />
				<g>
					<path style="fill:#ce7159;" d="M 135.141,379.734 L 145.063,380.727 C 145.063,380.727 153.297,379.718 155.163,379.397 157.509,378.997 165.337,377.93 165.963,378.124 166.589,378.318 166.117,379.018 165.363,379.316 165.7807,379.2472 166.2619,379.2079 166.7523,379.2079 167.0688,379.2079 167.3814,379.2243 167.6894,379.2562 167.734,379.482 167.611,380.23 166.677,380.642 166.1814,380.8841 165.6065,381.0645 165.0019,381.1531 165.2678,381.0856 165.6094,381.0446 165.9607,381.0446 166.2443,381.0446 166.5217,381.0713 166.7905,381.1224 166.854,381.365 166.631,382.0 165.874,382.361 164.517,383.008 162.712,383.754 161.715,384.361 159.768,385.549 157.156,387.361 156.372,387.969 154.0271,389.8119 151.0331,390.9251 147.7795,390.9251 147.0689,390.9251 146.3706,390.8719 145.6884,390.7695 L 132.735,391.296" />
					<path style="stroke:#000000;stroke-width:0.75;stroke-miterlimit:10.0;fill:none;" d="M 165.309,381.083 L 158.481,382.638" />
					<path style="stroke:#000000;stroke-width:0.75;stroke-miterlimit:10.0;fill:none;" d="M 165.374,379.316 L 158.18,379.898" />
					<path style="fill:#7a8bc1;" d="M 128.136,364.419 L 132.524,378.17 151.255,380.03 149.919,397.03 C 149.919,397.03 140.077,397.116 133.069,396.817 128.482,396.617 119.993,395.749 117.661,388.334 115.389,381.108 109.627,365.598 108.246,360.32" />
					<path style="stroke:#000000;stroke-width:1.0;stroke-miterlimit:10.0;fill:none;" d="M 109.579,364.691 C 111.841,371.603 115.855,382.591 117.661,388.333 119.992,395.748 128.481,396.62 133.069,396.816 L 142.781,397.164" />
					<path style="stroke:#000000;stroke-width:1.0;stroke-miterlimit:10.0;fill:none;" d="M 129.286,368.025 L 132.524,378.171 151.255,380.031" />
					<path style="stroke:#000000;stroke-width:1.0;stroke-miterlimit:10.0;fill:none;" d="M 146.947,379.603 L 146.089,397.04" />
					<path style="stroke:#000000;stroke-width:1.0;stroke-miterlimit:10.0;fill:none;" d="M 108.613,369.601 L 112.324,372.745" />
				</g>
			</g>
			<g>
				<path style="fill:#f9e0bd;" d="M 142.17,357.19 C 140.9841,360.296 138.3772,362.6202 135.1666,363.3902 134.0742,363.5659 132.8931,363.6585 131.6904,363.6585 128.7813,363.6585 125.9983,363.1171 123.4369,362.1295 120.7612,360.9655 118.4586,359.8072 116.2301,358.5338 114.25,357.554 111.69,355.612 109.082,355.641 106.474,355.67 104.976,355.923 104.191,358.531 104.656,349.346 108.597,347.587 109.751,346.742 110.2867,346.3545 110.9557,346.1208 111.6791,346.117 111.534,340.911 111.742,335.544 112.741,332.494 114.713,326.478 119.054,321.763 125.651,321.329 L 125.845,321.317 C 126.13,321.2968 126.4624,321.2853 126.7975,321.2853 129.3604,321.2853 131.7665,321.958 133.8488,323.1364 136.0487,324.3379 137.8186,326.2536 138.8429,328.5721 140.003,331.445 140.598,337.489 140.645,340.475 140.695,343.661 140.908,347.857 139.179,350.343 140.903,353.69 141.519,354.619 142.17,357.19 Z" />
				<path style="stroke:#af9371;stroke-width:0.75;stroke-miterlimit:10.0;fill:none;" d="M 136.876,342.389 C 136.7881,344.5551 135.8765,346.493 134.4482,347.9112 132.763,349.263 131.025,349.531 127.339,348.983 122.647,348.283 120.039,346.716 113.712,346.241" />
				<path style="fill:#000000;" d="M 137.796,338.677 C 137.9455,337.4666 138.0343,336.0594 138.041,334.6329 138.041,332.502 135.024,329.19 132.562,327.761 131.1891,328.1958 129.9971,328.7494 128.8935,329.4322 L 137.796,338.677 Z" />
				<path style="fill:#000000;" d="M 122.586,340.611 C 122.586,340.611 122.322,344.546 123.186,346.135 124.05,347.724 129.796,349.535 132.886,348.646 137.962,347.184 122.586,340.611 122.586,340.611 Z" />
				<path style="fill:#ce7159;" d="M 122.723,336.512 C 122.531,341.145 122.941,343.704 124.723,345.612 126.856,347.883 129.511,349.488 132.813,348.846 135.3364,348.4118 137.3126,346.4882 137.8191,344.0286 138.089,342.41 138.042,335.901 138.042,334.634 137.715,333.079 133.807,330.121 130.656,328.504 123.466,331.57 122.723,336.512 122.723,336.512 Z" />
				<path style="fill:#000000;" d="M 136.895,337.942 C 136.895,338.3506 136.5636,338.682 136.155,338.682 135.7464,338.682 135.415,338.3506 135.415,337.942 135.415,337.5334 135.7464,337.202 136.155,337.202 136.1553,337.202 136.1556,337.202 136.156,337.202 136.5641,337.202 136.895,337.5329 136.895,337.941 136.895,337.9414 136.895,337.9417 136.895,337.9421 Z" />
				<path style="fill:#000000;" d="M 130.174,338.243 C 130.174,338.6516 129.8426,338.983 129.434,338.983 129.0254,338.983 128.694,338.6516 128.694,338.243 128.694,337.8344 129.0254,337.503 129.434,337.503 129.434,337.503 129.434,337.503 129.434,337.503 129.8426,337.503 130.174,337.8344 130.174,338.243 Z" />
				<path style="stroke-linejoin:round;stroke:#000000;stroke-linecap:round;stroke-miterlimit:4.0;stroke-width:1.0;fill:none;" d="M 134.963,335.921 C 135.6652,335.6404 136.4781,335.4477 137.3264,335.3818" />
				<path style="stroke-linejoin:round;stroke:#000000;stroke-linecap:round;stroke-miterlimit:4.0;stroke-width:1.0;fill:none;" d="M 130.814,335.888 C 129.9493,335.5868 128.9531,335.4128 127.9162,335.4128 127.7142,335.4128 127.5138,335.4194 127.3151,335.4324" />
				<path style="fill:#ef8050;" d="M 129.97,341.302 C 129.97,342.2904 129.1684,343.092 128.18,343.092 127.1916,343.092 126.39,342.2904 126.39,341.302 126.39,340.3136 127.1916,339.512 128.18,339.512 129.1682,339.5126 129.9694,340.3138 129.97,341.3019 Z" />
				<path style="fill:#ef8050;" d="M 137.872,340.612 C 137.8714,341.4034 137.2295,342.045 136.438,342.045 135.6462,342.045 135.004,341.4028 135.004,340.611 135.004,339.8192 135.6462,339.177 136.438,339.177 136.438,339.177 136.438,339.177 136.438,339.177 137.2298,339.177 137.872,339.8192 137.872,340.611 137.872,340.6114 137.872,340.6117 137.872,340.6121 Z" />
				<path style="fill:#ffffff;" d="M 135.044,343.341 C 134.981,343.078 134.169,343.141 133.269,343.152 132.469,343.163 131.483,343.052 131.347,343.306 131.3072,343.4658 131.2843,343.6493 131.2843,343.838 131.2843,344.5483 131.6081,345.1831 132.1162,345.6028 132.4069,345.7824 132.7543,345.8869 133.126,345.8869 133.4977,345.8869 133.8451,345.7824 134.1404,345.6011 134.7134,345.2024 135.0894,344.5382 135.0894,343.7863 135.0894,343.6287 135.0728,343.4749 135.0414,343.3266 Z" />
				<path style="stroke:#000000;stroke-width:1.0;stroke-miterlimit:10.0;fill:none;" d="M 128.377,329.609 C 126.637,330.6752 125.1905,332.0487 124.0742,333.6673 123.573,334.378 123.1534,335.135 122.8206,335.9371" />
				<path style="stroke:#000000;stroke-width:1.0;stroke-miterlimit:10.0;fill:none;" d="M 123.683,329.787 C 123.045,332.4807 122.679,335.5721 122.679,338.7489 122.679,340.5341 122.7946,342.2924 123.0187,344.0167" />
				<path style="stroke-linejoin:round;stroke:#000000;stroke-width:0.5;stroke-miterlimit:4.0;fill:none;" d="M 134.395,338.721 L 134.907,340.196 C 134.9397,340.2875 134.9587,340.3931 134.9587,340.503 134.9587,341.0208 134.5388,341.4408 134.021,341.441 L 133.184,341.441" />
				<path style="stroke:#af9371;stroke-width:0.75;stroke-miterlimit:10.0;fill:none;" d="M 126.97,326.307 C 130.032,325.658 133.762,328.007 135.887,330.545 137.7772,332.8447 138.9235,335.818 138.9235,339.0585 138.9235,339.0998 138.9233,339.1411 138.923,339.1823 139.089,342.562 139.534,346.418 137.348,348.982 135.112,351.604 130.61,352.504 125.835,350.988" />
				<path style="stroke:#af9371;stroke-width:0.75;stroke-miterlimit:10.0;fill:none;" d="M 141.312,354.46 C 139.306,359.711 132.191,358.46 128.042,357.106 125.581,356.2332 123.5733,355.3729 121.628,354.4056 118.8582,353.0367 115.2109,352.1473 111.3563,352.1473 110.8472,352.1473 110.3418,352.1628 109.8404,352.1934 108.3016,352.2701 106.8122,352.705 105.4946,353.4173" />
				<path style="stroke:#af9371;stroke-width:0.75;stroke-miterlimit:10.0;fill:none;" d="M 121.42,354.292 C 122.9987,354.5805 124.8147,354.7455 126.6692,354.7455 126.7303,354.7455 126.7913,354.7453 126.8524,354.745 127.0563,354.7543 127.3064,354.7596 127.5577,354.7596 131.5327,354.7596 135.1983,353.4321 138.1352,351.1962" />
			</g>
		</g>
	</g>
</g>
</svg>