<svg xmlns="http://www.w3.org/2000/svg" width="17.389" height="19.937" viewBox="6.843 23.655 17.389 19.937"><g data-name="Group 4941"><path d="m7.707 38.803.002.004c1.039 2.096 2.877 3.648 4.764 4.245 4.431 1.4 7.436.003 9.193-3.357 1.756-3.36.36-6.513.153-9.22-.207-2.707.598-4.61 2.413-6.453 0 0-2.31-.597-5.347-.27h-.005c-2.852.309-6.345 1.432-9.169 4.627-3.347 3.788-3.402 7.6-2.004 10.424Z" fill="#36b5d4" fill-rule="evenodd" data-name="Path 4355"/><path d="M7.71 38.807c1.354 1.907 2.876 3.648 4.763 4.245 4.43 1.4 7.436.003 9.193-3.357 1.756-3.36.36-6.513.153-9.22-.207-2.707.598-4.61 2.413-6.453 0 0-2.31-.597-5.347-.27 2.233-.09 3.614.581 2.65 2.272-1.829 3.204-.864 6.141-.985 10.87-.121 4.728-8.078 8.62-12.84 1.913Z" fill="#83c4d4" fill-rule="evenodd" data-name="Path 4356"/><g data-name="Group 4940"><path d="M20.688 24.893c-.038-.694-2.083-.555-2.132.275-.05.83 2.18.604 2.132-.275Z" fill="#fff" fill-rule="evenodd" data-name="Path 4357"/><path d="M16.456 25.419c-.589-.762-4.73.963-4.456 2.043s5.36-.874 4.456-2.043Z" fill="#fff" fill-rule="evenodd" data-name="Path 4358"/></g></g></svg>