<svg xmlns="http://www.w3.org/2000/svg" width="124" height="124" viewBox="247 477.95 124 124"><g data-name="Group 5252"><path d="M247 539.9a62 62 0 1 1 0 .1z" fill="#fff" fill-rule="evenodd" data-name="Ellipse 116"/><g data-name="Group 5244"><path d="m342.205 558.077.48 1.056c-1.507.894-2.447 2.17-3.225 3.783-2.647 5.488-7.481 8.47-12.899 10.657-2.95 1.19-6.005 1.815-9.23 1.747-4.772-.1-9.548-.02-14.323-.03-1.295-.003-2.561.058-3.674.832a.73.73 0 0 1-.789-.053l-.014-1.028a13.63 13.63 0 0 0-.5-.508c-.17-.003-.34-.004-.511-.004-.152-.191-.359-.327-.516-.512l-.51-.004c-.16-.184-.348-.34-.518-.512-.163-.18-.35-.333-.513-.512-.17-.002-.34-.004-.51-.004-.16-.185-.348-.34-.518-.513a19.19 19.19 0 0 0-.514-.514 13.393 13.393 0 0 0-.514-.512v-.002c-.162-.18-.35-.333-.513-.512a5.434 5.434 0 0 1-2.057-2.06c-.18-.162-.332-.35-.512-.514a17.775 17.775 0 0 0-.513-.513c-.173-.17-.328-.36-.512-.52 0-.169-.001-.339-.004-.509-.18-.163-.332-.351-.511-.514-.298-.28-.203-.756-.515-1.028-.172-.172-.327-.36-.511-.519 0-.17-.001-.34-.004-.51-.316-.27-.182-.765-.512-1.029l-.003-.514c-.184-.158-.319-.364-.51-.516l-.002-1.026c-.352-.514-.351-1.028 0-1.542.001-.342.004-.684.006-1.025.244-.657.542-1.275 1.174-1.66 1.03-.675 2.221-.557 3.364-.698 3.197-.029 6.393-.005 9.587.07 1.917-.072 3.847.16 5.752-.234a4 4 0 0 1 1.786-.012c1.773.407 3.575.169 5.364.24 4.66-.31 9.316.066 13.974.04 3.304-.02 6.598-.266 9.9-.222.876.743 2.048.522 3.029.927.17.002.341.003.511.003.158.186.347.34.517.513h-.001c.174.17.328.36.514.517Z" fill="#e4e7f3" fill-rule="evenodd" data-name="Path 4791"/><path d="M290.774 556.803c-1.011.238-2.105.148-3.019.77-3.256.385-6.51.423-9.764-.028l-.194-.06-.2.029c-.474-.39-1.214.024-1.63-.54l.035.037c-.233-.113-.396-.306-.562-.494l.004.004a40.906 40.906 0 0 0-.53-.483l-.02-.02c-.157-.178-.32-.352-.487-.522l.002.002c-.179-.176-.374-.337-.492-.565l.038.038c-.564-.392-.11-1.146-.561-1.577a.74.74 0 0 0-.045-.472c-.089-.236-.216-.454-.215-.726.034-13.631-.13-27.264.088-40.896.96-1.667 2.627-1.394 4.114-1.405 7.77-.055 15.541-.024 23.312-.025 9.052 0 18.104-.028 27.155.025 1.472.01 3.172-.334 4.05 1.453.007 8.468.01 16.936.026 25.403.002.937.084 1.874.13 2.811a.676.676 0 0 1-.068.704c-1.183.811-2.254 1.759-3.346 2.69-1.065.906-2.248 1.602-3.619.46a2.935 2.935 0 0 1-.784-1.386c-.16-.673-.151-1.361-.17-2.047-.072-.698-.016-1.396-.013-2.095-.038-1.011.034-2.022-.015-3.034-.12-.754-.006-1.508-.02-2.263-.199-4.332-.026-8.667-.096-13-.017-1.091.157-2.221-.49-3.215-.796-.88-1.849-.76-2.87-.744-11.95.194-23.9.196-35.85-.002-1.026-.018-2.075-.111-2.824.817-.564 1.122-.392 2.328-.406 3.504-.074 5.93.118 11.864-.098 17.793.012.764.08 1.53-.01 2.292.115 2.567.103 5.14.027 7.707-.063 2.095.754 3.015 2.862 2.844 1.02-.084 2.053-.007 3.072.152.9.177 1.715.65 1.87 1.536.282 1.619 1.453 2.89 1.613 4.528Z" fill="#8392ab" fill-rule="evenodd" data-name="Path 4792"/><path d="M331.854 511.348c-.814-.625-1.769-.527-2.704-.527l-53.015-.001c-.94 0-1.889-.074-2.716.51-.52-3.442-.42-6.885-.05-10.33.018-.16.023-.32.015-.481.163-.185.326-.37.49-.552l.012-.011c.177-.158.344-.326.502-.503l.012-.011c.182-.165.366-.329.55-.491l55.398.003c.193.158.38.322.557.499l.003.002c.165.176.336.347.51.514.303.282.197.764.51 1.04l-.074 10.34Z" fill="#c4ccdb" fill-rule="evenodd" data-name="Path 4793"/><path d="M325.245 543.16c1.552.87 2.48-.195 3.435-1.128.943-.92 1.73-2.082 3.272-2.03.671-.26 1.341-.266 2.01.011.155.066.318.095.486.086.303.28.805.174 1.061.546l-.027-.03c.22.135.395.318.544.527l-.02-.02c.203.138.363.326.55.485l.014.009c.255.314.691.219.988.44l1.596.003c.844-.254 1.685-.305 2.52.035a.692.692 0 0 0 .422.072c.239.104.42.292.629.438l.043.027c.361.303.697.633.997.998l.027.04c.149.211.329.4.436.64a.59.59 0 0 0 .042.398c.285.334.283.673.02 1.018a.95.95 0 0 0-.05.467c-.279.308-.18.8-.528 1.074l.021-.022c-.146.202-.329.37-.509.54l.004-.003c-.171.18-.338.365-.545.506l.022-.023c-.229.346-.74.216-.963.573l-.044.028c-.187.14-.36.296-.525.463-.162.162-.316.33-.462.506a.538.538 0 0 0-.098.39c-.541 1.019.154 2.218-.466 3.225a.432.432 0 0 0-.04.355c-.082.261-.252.465-.433.66a.482.482 0 0 0-.083.36c-.084.286-.267.496-.508.662l.022-.024a1.932 1.932 0 0 1-.531.54l-.008-.015c-.07.291-.254.437-.553.438-.817.2-1.581.558-2.466.551-7.379-.053-14.759-.074-22.139-.105a1.417 1.417 0 0 1-.266-.653c-.194-1.594.01-3.107.925-4.471a5.903 5.903 0 0 1 1.63-1.366c1.026-.554 2.25-.802 2.896-1.923.282-.535.352-1.13.471-1.714 1.408-3.436 3.325-4.545 6.181-3.584Z" fill="#a1d08f" fill-rule="evenodd" data-name="Path 4798"/><path d="M299.044 576.077c.005-.838.157-1.547 1.232-1.537 1.023.01 2.046-.01 3.068-.01 5.114-.001 10.244.255 15.338-.06 7.936-.492 14.542-3.791 19.326-10.355.616-.845.921-1.805 1.317-2.746 1.093-2.606 1.42-2.496 3.36-2.236l.018-.022c.185.174.366.35.514.559-.007.155 0 .31.021.463.292.34.291.68.006 1.023-.018.165-.025.33-.02.496-.307.28-.187.76-.486 1.043a3.137 3.137 0 0 0-.03.493c-.298.29-.197.773-.513 1.054l.004-.006c-.3.28-.206.76-.523 1.033l.01-.01-.492.523c-.027.155-.038.31-.032.466a3.79 3.79 0 0 1-.506.565l.006-.005c-.166.175-.342.34-.496.524l-.009.012c-.326.256-.215.75-.545 1.004l.013-.01a4.317 4.317 0 0 1-.517.527l.008-.008a6.257 6.257 0 0 1-.519.524l.007-.007a7.406 7.406 0 0 1-.52.521l.006-.007a7.071 7.071 0 0 1-.52.521l.007-.007a5.663 5.663 0 0 1-.525.519l.009-.008c-.162.199-.355.362-.56.513-.158 0-.314.017-.469.05-.175.15-.338.312-.49.484l-.012.012c-.184.155-.348.332-.524.496l.004-.005c-.168.19-.359.354-.56.508a2.347 2.347 0 0 0-.47.041c-.175.157-.345.32-.51.486l.001-.002c-.272.304-.752.203-1.016.522l-.008.005c-.18.171-.365.336-.557.493-.401.22-.488.592-.486 1.007-.453.431-.032 1.151-.519 1.571l.012-.01c-.157.184-.336.348-.493.532l-.007.01c-.324.259-.216.75-.543 1.007l.012-.01c-.157.19-.33.366-.523.52l.01-.012c-.262.33-.748.231-1.023.534l.004-.002c-.282.313-.763.214-1.054.51-.163-.007-.326 0-.488.02-5.163.56-10.342.163-15.514.214-2.7.027-5.421.322-8.11-.222l-.236-.02h-.235c-.3-.283-.785-.185-1.063-.514l.009.011c-.186-.158-.352-.336-.53-.503l-.004-.002a8.388 8.388 0 0 0-.512-.498l-.014-.014a6.064 6.064 0 0 0-.5-.504l-.01-.01c-.157-.185-.333-.35-.499-.524l.007.005c-.308-.275-.213-.754-.521-1.03l.002.003c-.133-.109-.18-.22-.141-.334.04-.116.08-.174.123-.174Z" fill="#c4ccdb" fill-rule="evenodd" data-name="Path 4800"/><path d="m273.369 501 .049 10.329c-.004 12.924-.007 25.848-.014 38.772 0 .94-.036 1.88-.055 2.821-.739-.689-.478-1.594-.479-2.416-.013-15.7-.013-31.4 0-47.099.001-.822-.26-1.73.499-2.407Z" fill="#ecf2fe" fill-rule="evenodd" data-name="Path 4837"/><path d="m303.167 580.185 23.625.008c-.508.616-1.217.503-1.885.503-6.62.005-13.239.005-19.859 0-.668 0-1.377.11-1.88-.51Z" fill="#ecf2fe" fill-rule="evenodd" data-name="Path 4858"/><path d="m277.991 557.545 9.764.029c-.203.478-.542.819-1.021 1.019-1.706-1.09-3.597-.255-5.381-.52-1.122-.166-2.363.426-3.362-.528Z" fill="#ecf2fe" fill-rule="evenodd" data-name="Path 4870"/><path d="m338.013 556.425.554-.438c.458.83 1.626.251 2.097 1.057-.908-.106-1.94.33-2.651-.62Z" fill="#ecf2fe" fill-rule="evenodd" data-name="Path 4915"/><path d="M340.146 553.449c.13-1.078-.311-2.24.468-3.224-.084 1.084.457 2.26-.468 3.224Z" fill="#ecf2fe" fill-rule="evenodd" data-name="Path 4920"/><path d="m341.675 542.094-2.521-.035c.85-.634 1.69-.653 2.52.035Z" fill="#ecf2fe" fill-rule="evenodd" data-name="Path 4942"/><path d="m333.962 540.013-2.01-.01c-.01-.15.01-.297.056-.44.673.057 1.417-.197 1.954.45Z" fill="#ecf2fe" fill-rule="evenodd" data-name="Path 4971"/><path d="M286.727 559.618v1.542c-.642-.514-.643-1.028 0-1.542Z" fill="#ecf2fe" fill-rule="evenodd" data-name="Path 4991"/><path d="M273.394 553.394c.45.431.53.995.56 1.576-.676-.35-.562-.983-.56-1.576Z" fill="#ecf2fe" fill-rule="evenodd" data-name="Path 5018"/><path d="M275.967 556.975c.596.017 1.175.088 1.63.54-.612.026-1.26.162-1.63-.54Z" fill="#ecf2fe" fill-rule="evenodd" data-name="Path 5035"/><path d="M330.885 577.094c.022-.574-.024-1.17.519-1.571.002.581.1 1.195-.519 1.571Z" fill="#ecf2fe" fill-rule="evenodd" data-name="Path 5052"/><path d="M343.765 543.629a1.932 1.932 0 0 1-.997-.998c.615.05.945.384.997.998Z" fill="#ecf2fe" fill-rule="evenodd" data-name="Path 5078"/><path d="M335.509 540.645c-.432-.028-.801-.18-1.06-.546.451-.009.857.072 1.06.546Z" fill="#ecf2fe" fill-rule="evenodd" data-name="Path 5246"/><path d="M337.558 542.055c-.418.052-.76-.063-.988-.439.388.012.75.086.988.44Z" fill="#ecf2fe" fill-rule="evenodd" data-name="Path 5248"/><path d="m344.29 545.725-.02-1.017c.49.33.509.668.02 1.017Z" fill="#ecf2fe" fill-rule="evenodd" data-name="Path 5251"/><path d="M343.712 547.266c.038-.426.173-.803.528-1.073.008.448-.084.847-.528 1.073Z" fill="#ecf2fe" fill-rule="evenodd" data-name="Path 5253"/><path d="M341.742 548.837c.203-.39.55-.535.963-.573-.186.42-.551.535-.963.573Z" fill="#ecf2fe" fill-rule="evenodd" data-name="Path 5255"/><path d="m343.244 561.156-.006-1.023c.501.338.507.68.006 1.023Z" fill="#ecf2fe" fill-rule="evenodd" data-name="Path 5272"/><path d="M342.738 562.695c-.002-.424.105-.797.487-1.043-.002.423-.09.805-.487 1.043Z" fill="#ecf2fe" fill-rule="evenodd" data-name="Path 5274"/><path d="M287.243 563.216c.4.23.5.607.512 1.03-.4-.23-.5-.607-.512-1.03Z" fill="#ecf2fe" fill-rule="evenodd" data-name="Path 5276"/><path d="M342.195 564.242c.015-.427.127-.807.512-1.054.001.435-.094.823-.512 1.054Z" fill="#ecf2fe" fill-rule="evenodd" data-name="Path 5277"/><path d="M341.676 565.269c.022-.422.13-.8.523-1.033-.006.43-.106.812-.523 1.033Z" fill="#ecf2fe" fill-rule="evenodd" data-name="Path 5279"/><path d="M288.27 565.274c.4.228.501.605.515 1.028-.401-.227-.501-.606-.515-1.028Z" fill="#ecf2fe" fill-rule="evenodd" data-name="Path 5280"/><path d="M339.612 568.347c.025-.42.146-.787.545-1.003-.022.422-.125.799-.545 1.003Z" fill="#ecf2fe" fill-rule="evenodd" data-name="Path 5282"/><path d="M332.455 574.018c.226-.392.598-.503 1.016-.522-.22.404-.597.505-1.016.522Z" fill="#ecf2fe" fill-rule="evenodd" data-name="Path 5284"/><path d="M299.06 576.583c.39.233.5.608.52 1.03-.41-.225-.51-.605-.52-1.03Z" fill="#ecf2fe" fill-rule="evenodd" data-name="Path 5285"/><path d="M329.854 578.633c.027-.419.148-.787.543-1.007-.021.422-.124.8-.543 1.007Z" fill="#ecf2fe" fill-rule="evenodd" data-name="Path 5286"/><path d="M328.33 579.665c.23-.392.6-.51 1.022-.534-.21.426-.592.526-1.022.534Z" fill="#ecf2fe" fill-rule="evenodd" data-name="Path 5287"/><path d="M301.634 579.651c.427.02.81.132 1.062.515-.44.008-.833-.084-1.062-.515Z" fill="#ecf2fe" fill-rule="evenodd" data-name="Path 5288"/><path d="M327.28 580.172c.248-.384.628-.493 1.054-.509-.233.417-.62.511-1.054.51Z" fill="#ecf2fe" fill-rule="evenodd" data-name="Path 5289"/><path d="M331.928 501.009c-.38-.243-.492-.619-.51-1.04.405.232.503.613.51 1.04Z" fill="#ecf2fe" fill-rule="evenodd" data-name="Path 5304"/><path d="M293.407 571.446Z" fill="#ecf2fe" fill-rule="evenodd" data-name="Path 5405"/><path d="M335.542 571.96Z" fill="#ecf2fe" fill-rule="evenodd" data-name="Path 5406"/><path d="m293.921 571.958.515.514-.515-.514Z" fill="#ecf2fe" fill-rule="evenodd" data-name="Path 5407"/><path d="m335.005 572.468.525-.496-.525.496Z" fill="#ecf2fe" fill-rule="evenodd" data-name="Path 5408"/><path d="m294.435 572.472.518.513-.518-.513Z" fill="#ecf2fe" fill-rule="evenodd" data-name="Path 5409"/><path d="M334.45 572.97c.187-.168.374-.337.56-.507l-.56.508Z" fill="#ecf2fe" fill-rule="evenodd" data-name="Path 5410"/><path d="m295.462 572.989.513.512-.513-.512Z" fill="#ecf2fe" fill-rule="evenodd" data-name="Path 5411"/><path d="m333.47 573.498.51-.486-.51.486Z" fill="#ecf2fe" fill-rule="evenodd" data-name="Path 5412"/><path d="M295.976 573.5Z" fill="#ecf2fe" fill-rule="evenodd" data-name="Path 5413"/><path d="m297.003 574.017.517.512-.517-.512Z" fill="#ecf2fe" fill-rule="evenodd" data-name="Path 5415"/><path d="m331.89 574.516.557-.493-.557.493Z" fill="#ecf2fe" fill-rule="evenodd" data-name="Path 5416"/><path d="m298.031 574.533.5.508c-.166-.17-.333-.34-.5-.508Z" fill="#ecf2fe" fill-rule="evenodd" data-name="Path 5417"/><path d="M299.044 576.077c.016.169.022.338.018.508l-.516-.516c.166.001.332.004.498.008Z" fill="#ecf2fe" fill-rule="evenodd" data-name="Path 5418"/><path d="m330.404 577.616.493-.533-.493.533Z" fill="#ecf2fe" fill-rule="evenodd" data-name="Path 5419"/><path d="m299.575 577.607.498.524-.498-.524Z" fill="#ecf2fe" fill-rule="evenodd" data-name="Path 5420"/><path d="m300.083 578.14.5.505-.5-.504Z" fill="#ecf2fe" fill-rule="evenodd" data-name="Path 5421"/><path d="m300.597 578.659.513.498-.513-.498Z" fill="#ecf2fe" fill-rule="evenodd" data-name="Path 5422"/><path d="m329.343 579.143.523-.52-.523.52Z" fill="#ecf2fe" fill-rule="evenodd" data-name="Path 5423"/><path d="m301.113 579.16.53.502-.53-.503Z" fill="#ecf2fe" fill-rule="evenodd" data-name="Path 5424"/><path d="m273.875 499.967-.491.551.49-.55Z" fill="#ecf2fe" fill-rule="evenodd" data-name="Path 5494"/><path d="M336.026 541.142c-.274-.08-.463-.248-.544-.527l.544.527Z" fill="#ecf2fe" fill-rule="evenodd" data-name="Path 5525"/><path d="m336.555 541.607-.55-.485.55.485Z" fill="#ecf2fe" fill-rule="evenodd" data-name="Path 5530"/><path d="m342.725 542.604-.628-.438.628.438Z" fill="#ecf2fe" fill-rule="evenodd" data-name="Path 5563"/><path d="m331.418 499.97-.51-.515.51.514Z" fill="#ecf2fe" fill-rule="evenodd" data-name="Path 5571"/><path d="m274.388 499.453-.502.503.502-.503Z" fill="#ecf2fe" fill-rule="evenodd" data-name="Path 5575"/><path d="m344.228 544.308-.437-.638.437.638Z" fill="#ecf2fe" fill-rule="evenodd" data-name="Path 5649"/><path d="m330.905 499.452-.556-.499.556.5Z" fill="#ecf2fe" fill-rule="evenodd" data-name="Path 5653"/><path d="M274.95 498.95Z" fill="#ecf2fe" fill-rule="evenodd" data-name="Path 5654"/><path d="m343.224 547.785.51-.54-.51.54Z" fill="#ecf2fe" fill-rule="evenodd" data-name="Path 5707"/><path d="m342.683 548.287.545-.506-.545.506Z" fill="#ecf2fe" fill-rule="evenodd" data-name="Path 5721"/><path d="M341.173 549.328c.082-.26.253-.42.525-.464l-.525.464Z" fill="#ecf2fe" fill-rule="evenodd" data-name="Path 5727"/><path d="M340.71 549.834c.044-.27.207-.43.463-.506l-.462.506Z" fill="#ecf2fe" fill-rule="evenodd" data-name="Path 5730"/><path d="m339.674 554.464.433-.659-.433.659Z" fill="#ecf2fe" fill-rule="evenodd" data-name="Path 5770"/><path d="M273.917 554.933c.283.084.426.29.492.565l-.492-.565Z" fill="#ecf2fe" fill-rule="evenodd" data-name="Path 5821"/><path d="m339.082 555.486.509-.662a.805.805 0 0 1-.509.662Z" fill="#ecf2fe" fill-rule="evenodd" data-name="Path 5822"/><path d="m274.408 555.496.487.522-.487-.522Z" fill="#ecf2fe" fill-rule="evenodd" data-name="Path 5836"/><path d="m338.574 556.001.531-.538-.531.538Z" fill="#ecf2fe" fill-rule="evenodd" data-name="Path 5837"/><path d="m274.915 556.038.529.483-.53-.483Z" fill="#ecf2fe" fill-rule="evenodd" data-name="Path 5846"/><path d="M275.44 556.517c.274.065.488.2.561.494l-.561-.494Z" fill="#ecf2fe" fill-rule="evenodd" data-name="Path 5854"/><path d="m341.692 557.56-.516-.513.516.513Z" fill="#ecf2fe" fill-rule="evenodd" data-name="Path 5862"/><path d="M342.205 558.077Z" fill="#ecf2fe" fill-rule="evenodd" data-name="Path 5866"/><path d="m343.217 559.67-.514-.559.514.559Z" fill="#ecf2fe" fill-rule="evenodd" data-name="Path 5874"/><path d="M286.731 562.186Z" fill="#ecf2fe" fill-rule="evenodd" data-name="Path 5973"/><path d="m287.759 564.755.51.518-.51-.518Z" fill="#ecf2fe" fill-rule="evenodd" data-name="Path 5989"/><path d="m341.194 565.782.492-.522-.492.522Z" fill="#ecf2fe" fill-rule="evenodd" data-name="Path 5990"/><path d="m288.785 566.302.51.514-.51-.514Z" fill="#ecf2fe" fill-rule="evenodd" data-name="Path 5991"/><path d="m340.656 566.813.506-.564-.506.564Z" fill="#ecf2fe" fill-rule="evenodd" data-name="Path 5992"/><path d="M340.166 567.332Z" fill="#ecf2fe" fill-rule="evenodd" data-name="Path 5993"/><path d="m289.3 567.326.513.519-.514-.52Z" fill="#ecf2fe" fill-rule="evenodd" data-name="Path 5994"/><path d="M289.812 567.844c.17.172.342.343.513.514l-.513-.514Z" fill="#ecf2fe" fill-rule="evenodd" data-name="Path 5997"/><path d="m290.325 568.358.512.515-.512-.515Z" fill="#ecf2fe" fill-rule="evenodd" data-name="Path 5999"/><path d="m339.108 568.865.517-.527-.517.527Z" fill="#ecf2fe" fill-rule="evenodd" data-name="Path 6000"/><path d="m338.597 569.38.52-.523-.52.524Z" fill="#ecf2fe" fill-rule="evenodd" data-name="Path 6001"/><path d="m338.083 569.895.52-.52-.52.52Z" fill="#ecf2fe" fill-rule="evenodd" data-name="Path 6002"/><path d="m337.57 570.41.52-.522-.52.521Z" fill="#ecf2fe" fill-rule="evenodd" data-name="Path 6003"/><path d="m337.052 570.92.524-.518-.524.519Z" fill="#ecf2fe" fill-rule="evenodd" data-name="Path 6004"/><path d="m292.894 570.932.512.512-.512-.512Z" fill="#ecf2fe" fill-rule="evenodd" data-name="Path 6007"/><path d="m336.501 571.426.56-.513-.56.513Z" fill="#ecf2fe" fill-rule="evenodd" data-name="Path 6008"/><path d="M290.774 556.803c-1.134-1.15-2.32-2.246-2.07-4.128.086-.634-.44-1.063-.989-1.362-1.361-.632-2.672-1.381-2.383-3.167.296-1.818 1.713-2.534 3.344-2.53 1.912.005 3.24-1.433 4.996-1.727 2.521.141 3.846 2.484 6.014 3.283.555 1.296-.129 2.243-.89 3.17-2.078-.191-3.991.017-5.13 2.121-.286.527-.653 1.076-.144 1.616.52.552 1.078.196 1.599-.099.986-.557 1.548-1.871 2.963-1.662 1.203 1.135.71 3.518 2.892 3.934.076.09.15.18.225.272l-.062.348c-3.456.154-6.911.204-10.365-.069Z" fill="#a1d08f" fill-rule="evenodd" data-name="Path 6020"/><path d="m308.413 556.721-1.738-.004a1.715 1.715 0 0 1-.53-.608c-2.898-2.898-.432-5.64.272-8.422.134-.527.637-.772 1.208-.737.578.036 1.05.383 1.104.896.175 1.647 1.065 3.025 1.55 4.547.48 1.504-.829 2.496-1.344 3.716a1.69 1.69 0 0 1-.522.612Z" fill="#e37a88" fill-rule="evenodd" data-name="Path 6021"/><path d="m301.139 556.872.006-.12c.021-.268.21-.407.39-.58 2.612-2.528 2.61-2.53 5.135.337 0 0 .01.206.007.207-1.836.466-3.69.223-5.538.156Z" fill="#eec56f" fill-rule="evenodd" data-name="Path 6022"/><path d="m313.403 556.746.006.127c-1.671.071-3.345.282-4.998-.153.002.001-.013-.216-.013-.216.212-.268-.057.072.158-.194 2.375-2.946 2.989-2.89 4.847.436Z" fill="#efc871" fill-rule="evenodd" data-name="Path 6023"/><path d="m280.574 538.133.06-22.699c1.13-.583 2.34-.166 3.508-.284.677-.069 1.212.192 1.34.887.384 2.061 1.942 2.11 3.525 2.113 9.219.019 18.437.018 27.655 0 1.499-.003 2.978-.033 3.192-2.077.073-.707.605-.996 1.293-.922 1.164.124 2.377-.32 3.498.3l.042 17.401c-1.075.93-2.128.654-3.173-.052-2.718-2.378-8.68-2.552-11.687-.33-2.702.535-1.775 3.051-2.527 4.652-1.339.172-2.606.47-3.796 1.214-.871.546-1.95.446-2.96.164a1.736 1.736 0 0 1-.648-.424c-.31-.445-.406-.952-.433-1.48a4.19 4.19 0 0 1 .105-1.123c.053-.23.134-.454.224-.67.625-1.603-1.127-1.203-1.596-1.883-2.87-2.704-9.081-2.744-12.055-.073-1.41.652-3.007 1.214-1.541 3.247.078.259.11.517.112.785-.04.59-.19 1.121-.716 1.471-1.18.528-2.327.567-3.422-.217Z" fill="#faedd6" fill-rule="evenodd" data-name="Path 6024"/><path d="M324.645 515.45h-4.118c.038.763.103 1.341.089 1.918-.025 1.025-.598 1.554-1.605 1.614-.426.025-.853.021-1.28.021-9.896.001-19.792 0-29.688.002-1.11 0-2.227.109-3.007-.976-.555-.771-.183-1.63-.238-2.595h-4.164c.554-.795 1.393-.512 2.121-.513 13.261-.016 26.522-.017 39.783 0 .724.001 1.57-.298 2.107.53Z" fill="#c3ccdb" fill-rule="evenodd" data-name="Path 6025"/><path d="M293.985 544.268c-.458.202-1.01.304-1.358.625-1.118 1.032-2.346 1.598-3.897 1.352-.321-.052-.678.007-1 .088-1.624.407-2.703 2.384-1.177 3.664.443.372.778.874 1.162 1.316-1.7.018-3.399.067-5.098.047-2.008-.023-2.055-.049-2.065-1.95-.016-3.147.036-6.295.06-9.442.397-.341.857-.616 1.372-.624 6.026-.087 12.057-.522 18.07.237 1.007 1.911-1.397 5.136-3.863 5.073a7.237 7.237 0 0 1-2.206-.386Z" fill="#faedd6" fill-rule="evenodd" data-name="Path 6026"/><path d="M307.27 537.108c-.02-.823.077-1.642-.475-2.389-.842-1.138-.208-1.659.916-1.833.505-.078.975-.182 1.384-.497 4.264-1.47 8.529-1.478 12.793.002.848.673 1.846.433 2.8.461l.018 2.096c-.648.398-.342 1.916-1.715 1.465-1.629-1.329-3.55-.556-5.338-.737-.256.025-.51.022-.765.004-.632-.044-1.263.021-1.893.009-1.66-.061-3.32-.002-4.98.02 1.201.115 2.462-.154 3.537.67.256.364.321.766.252 1.2a1.372 1.372 0 0 1-.492.737c-1.34.666-2.773.446-4.167.37-.925-.052-1.831-.364-1.875-1.578Z" fill="#c4cad6" fill-rule="evenodd" data-name="Path 6027"/><path d="m317.003 535.052.525.011c.721.244 1.366.61 1.89 1.174.536.551 1.11 1.065 1.591 1.67.27.394.428.815.332 1.302-.303 2.528-.243 2.583 2.76 2.546.223.083.416.212.583.38l.561 1.025c-2.909-.033-4.941 1.16-5.725 4.1-2.538.203-3.505-1.726-4.44-3.476-1.675-3.132-.757-6.96 1.923-8.732Z" fill="#dd5567" fill-rule="evenodd" data-name="Path 6028"/><path d="m300.643 540.079-20.03-.11-.039-1.837 3.637-.11c5.272-1.25 10.542-1.265 15.813.005l.099.21c.926.09 1.856.014 2.783.055.858.038 1.5.31 1.33 1.365-1.128.738-2.295 1.14-3.593.422Z" fill="#ba9148" fill-rule="evenodd" data-name="Path 6029"/><path d="m321.176 539.09-.534-.916c.597-.943 1.543-.858 2.468-.843.65.018 1.18.287 1.604.775l-.042 1.877c-.452.631-1.092.712-1.794.624-.836-.202-1.49-.613-1.702-1.517Z" fill="#bf9551" fill-rule="evenodd" data-name="Path 6030"/><path d="m324.714 538.106-1.575-.085c-.312-.398-.418-.827-.196-1.305l.241-.255c.705-.305.407-1.62 1.522-1.512l.008 3.157Z" fill="#ede5d4" fill-rule="evenodd" data-name="Path 6031"/><path d="m322.686 540.095 1.986-.112.012 2.153a2.35 2.35 0 0 1-.384-.053c-.781-.465-1.94-.623-1.614-1.988Z" fill="#f1e0cd" fill-rule="evenodd" data-name="Path 6032"/><path d="M304.67 505.152c-.028.94-1.07 1.873-2.049 1.836-.917-.035-1.928-1.159-1.848-2.053.092-1.044 1.074-1.922 2.051-1.833.993.089 1.875 1.07 1.846 2.05Z" fill="#f7fafd" fill-rule="evenodd" data-name="Path 6033"/><path d="M294.399 505.016c.04.972-.994 2.064-1.97 1.949-1.082-.128-1.593-.957-1.78-1.925-.178-.923.94-1.949 1.973-1.913.86.03 1.739.962 1.777 1.889Z" fill="#f8fbfd" fill-rule="evenodd" data-name="Path 6034"/><path d="M312.743 503.13c.94.012 1.733.825 1.744 1.788.012 1.124-.875 2.226-1.765 2.037-.926-.196-1.776-.63-1.826-1.794-.042-1.012.897-2.043 1.847-2.03Z" fill="#f7fafc" fill-rule="evenodd" data-name="Path 6035"/><path d="M313.403 556.746c-.48-.266-1.11-.088-1.435-.846-.645-1.5-.74-1.477-1.914-.391-.49.453-.82 1.138-1.658.996-.248-.958.266-1.605.864-2.253.731-.794.848-1.754.085-2.515-.95-.947-1.09-2.042-1.058-3.26.014-.53-.128-1.07-.8-1.05-.506.014-.706.444-.695.898.03 1.218-.184 2.222-1.176 3.163-.774.735-.588 1.914.188 2.773.59.653 1.12 1.287.867 2.248-1.122.305-1.41-.69-1.993-1.253-.994-.957-1.554-.89-1.805.527-.235 1.33-1.277.465-1.728.968a.573.573 0 0 1-.139-.223c-1.641-1.023-1.7-2.663-1.632-4.319.147-3.579 2.756-6.613 6.358-7.456 3.189-.745 6.779.949 8.446 4.003.54.99 1.052 2 .316 3.128-.866 1.508-.656 3.258-1.09 4.862Z" fill="#de5567" fill-rule="evenodd" data-name="Path 6042"/><path d="M300.642 540.079c1.156-.368 2.33-.61 3.551-.53 1.24-.327 1.775.724 2.51 1.328 1.13.929 1.786.924 2.367-.627.787-2.1 2.38-2.445 4.563-1.22-.161 4.376 2.314 7.288 5.448 9.835-.587 1.366-1.953 1.487-3.107 1.948-.678-.466-.855-1.254-1.221-1.92-2.76-5.016-8.307-6.181-12.833-2.697-.66.508-1.21 1.251-2.202 1.1-1.343.127-2.485-.254-3.287-1.386-.613-.866-1.656-1.058-2.446-1.642.577-.062 1.155-.19 1.73-.174 1.478.042 2.525-.567 3.285-1.84.464-.775 1.09-1.453 1.642-2.175Z" fill="#6ba884" fill-rule="evenodd" data-name="Path 6043"/><path d="M299.718 547.295c.486-.475.97-.95 1.458-1.423 2.613-2.528 5.81-2.913 9.026-1.876 3.171 1.022 5.28 3.33 5.772 6.817l-1.48 1.071c-.382-2.842-1.88-4.879-4.495-6.022-2.901-1.268-5.5-.6-7.714 1.538-2.316 2.234-2.765 4.949-1.755 7.95.135.4.318.785.477 1.177-2.07-.068-2.092-.063-2.508-1.843-.186-.796-.264-1.618-.392-2.427-.329-.7-.182-1.307.361-1.835l1.25-3.127Z" fill="#a93750" fill-rule="evenodd" data-name="Path 6044"/><path d="M329.387 556.562c-2.371.018-4.742.073-7.113.04-1.572-.021-1.726-.333-1.129-1.848 1.204-3.055 4.359-4.455 7.69-3.414 1.514 1.6 1.756 3.335.552 5.222Z" fill="#dd5567" fill-rule="evenodd" data-name="Path 6045"/><path d="M319.081 548.865c-4.417-1.974-6.423-5.412-5.774-9.896-.133-.326-.176-.64.126-.905.05-.165.06-.332.034-.502.28-.366.233-.791.22-1.211.04-.798.691-1.022 1.249-1.333.692-.2 1.381-.204 2.067.034-2.05 2.814-2.907 5.77-1.046 9.034.83 1.455 2.048 2.485 3.564 3.174.1.603.025 1.158-.44 1.605Z" fill="#ab3851" fill-rule="evenodd" data-name="Path 6046"/><path d="M332.509 549.364c-.594-.028-1.193-.014-1.78-.094-.75-.104-1.23-.56-1.335-1.327-.103-.76.214-1.362.903-1.666 1.55-.682 3.139-.678 4.705-.053.813.325 1.16.99.989 1.849-.153.757-.697 1.163-1.444 1.22-.675.05-1.358.01-2.037.01l-.001.06Z" fill="#df8049" fill-rule="evenodd" data-name="Path 6047"/><path d="M329.387 556.562c-.064-1.753.183-3.54-.552-5.222 2.102.362 3.184 1.882 3.968 3.646.472 1.06.097 1.548-1.111 1.62-.765.043-1.537-.026-2.305-.044Z" fill="#ad4158" fill-rule="evenodd" data-name="Path 6048"/><path d="M298.468 550.422c.11.658-.055 1.262-.361 1.836-.947.845-1.872 1.717-2.847 2.53-.796.662-1.72.892-2.506.049-.742-.797-.594-1.74.046-2.547.472-.597 1.04-1.121 1.588-1.652 1.778-1.72 1.906-1.722 4.08-.216Z" fill="#e17f48" fill-rule="evenodd" data-name="Path 6061"/><path d="M298.463 532.783c.501.034 1.003.065 1.504.103.539.04.984.211 1.083.826.115.708-.181 1.126-.89 1.247-.926.804-2.059.69-3.161.712-4.002.08-8.008-.158-12.007.136a5.812 5.812 0 0 1-.897.186c-.109-.126-.237-.24-.325-.378-1.346-2.127-1.113-2.564 1.48-2.78.166-.015.333-.027.5-.041 1.169-.956 2.586-.863 3.922-.762 2.932.223 5.972-.76 8.79.751Z" fill="#c3c9d9" fill-rule="evenodd" data-name="Path 6062"/><path d="m313.433 538.064-.125.906c-.805-.536-1.596-.317-2.436-.048-.825.264-1.379.542-1.133 1.59.203.867-.352 1.45-1.07 1.843-.846.463-1.453-.033-2.036-.566l-2.44-2.24c-.368-.795-1.026-1.029-1.855-1.03-.745-.002-1.523.16-2.216-.282.743-.046 1.486-.106 2.23-.135.592-.024 1.14-.061 1.51-.65.977-1.553 2.178-1.146 3.408-.345.442.903 1.238 1.027 2.126 1.005 1.345-.034 2.691-.034 4.037-.048Z" fill="#de814a" fill-rule="evenodd" data-name="Path 6063"/><path d="m298.463 532.783-12.713.012c.258-1.944 1.789-2.367 3.301-2.488a37.68 37.68 0 0 1 6.08 0c1.509.125 3.036.558 3.332 2.476Z" fill="#e9b656" fill-rule="evenodd" data-name="Path 6064"/><path d="m300.024 538.027-15.813-.004-.004-1.6c.53-.497 1.188-.647 1.883-.656 4-.052 8.002-.047 12.003-.002.689.007 1.361.108 1.891.622l.04 1.64Z" fill="#b9c5d5" fill-rule="evenodd" data-name="Path 6065"/><path d="m321.887 532.391-12.791-.001c.792-1.504 2.077-2.148 3.734-2.146 1.776.002 3.552.001 5.328 0 1.654 0 2.945.632 3.73 2.147Z" fill="#f3dc51" fill-rule="evenodd" data-name="Path 6066"/><path d="m299.984 536.387-15.777.037a4.065 4.065 0 0 1-.111-.431c.06-.159.089-.323.086-.493 5.287-.503 10.575-.476 15.864-.019l-.062.906Z" fill="#8392ab" fill-rule="evenodd" data-name="Path 6067"/><path d="m300.046 535.481-15.864.02c.546-.785 1.376-.559 2.115-.56 4.62-.008 9.241.009 13.862.018l-.113.522Z" fill="#b9c5d5" fill-rule="evenodd" data-name="Path 6068"/><path d="M296.341 524.435c-.592.903-.332 1.856.023 2.83a.645.645 0 0 1-.358.834c-.396.18-.646-.073-.819-.36-.74-1.23-.977-2.49-.147-3.787.219-.34.376-.815.913-.633.509.172.459.623.388 1.116Z" fill="#bf954d" fill-rule="evenodd" data-name="Path 6069"/><path d="M316.35 524.258c-.46.803-.402 1.943.058 3.116.107.274-.074.69-.511.746-.271.036-.465-.102-.631-.322-.916-1.21-.884-3.2.09-4.28.17-.189.38-.361.662-.204.228.127.425.288.332.944Z" fill="#c0954e" fill-rule="evenodd" data-name="Path 6070"/><path d="M289.478 524.471c-.38.842-.279 1.743.025 2.66.142.43.05.89-.472.999-.559.117-.625-.394-.824-.758-.63-1.152-.524-2.27.045-3.4.191-.382.334-.854.876-.649.479.183.458.643.35 1.148Z" fill="#bf944c" fill-rule="evenodd" data-name="Path 6071"/><path d="M312.708 528.608c-1.605-2.318-1.734-3.85-.739-5.066.183-.223.429-.28.66-.183.126.053.289.3.256.4-.471 1.426.062 2.911-.177 4.849Z" fill="#bb8f43" fill-rule="evenodd" data-name="Path 6072"/><path d="M292.876 524.564c-.743.832-.138 1.8.02 2.78.05.316-.044.67-.475.758-.325.066-.463-.165-.587-.375-.697-1.178-.827-2.392-.181-3.64.186-.36.308-.9.846-.742.49.143.426.648.377 1.22Z" fill="#bb8e43" fill-rule="evenodd" data-name="Path 6073"/><path d="M319.448 528.292c-1.89-2.016-1.9-2.87 0-5.255v5.255Z" fill="#ba8d41" fill-rule="evenodd" data-name="Path 6074"/><path d="m314.936 535.018-1.019 1.463c-.152.249-.312.266-.48.015-1.532-.024-3.065-.04-4.597-.078-.446-.012-.898-.17-.91-.681-.01-.511.427-.707.876-.71 2.043-.017 4.086-.009 6.13-.01Z" fill="#8391aa" fill-rule="evenodd" data-name="Path 6075"/><path d="M318.987 536.493c-.63-.33-1.068-.857-1.46-1.43 1.406-.022 2.812-.021 4.216-.074 1.057-.04 1.546.408 1.442 1.472l-.015-.014c-1.381 1.23-2.78.757-4.183.046Z" fill="#8391aa" fill-rule="evenodd" data-name="Path 6076"/><path d="M313.437 536.496c.16-.02.32-.024.48-.015-.003.421-.14.787-.45 1.08l-.03-1.065Z" fill="#bac5d3" fill-rule="evenodd" data-name="Path 6077"/><path d="m322.685 540.095 1.614 1.987c-.556.165-1.104.363-1.669.487-1.08.236-1.708-.315-2.154-1.248-.476-.993-.412-1.763.7-2.232l1.51 1.006Z" fill="#e27583" fill-rule="evenodd" data-name="Path 6078"/><path d="m318.987 536.493 4.182-.046-.03 1.574c-.833.05-1.666.101-2.498.153-.65-.463-1.232-.992-1.654-1.68Z" fill="#b6c2d1" fill-rule="evenodd" data-name="Path 6079"/><path d="M317.93 539.1c.7.06.987.55 1.01 1.181.023.625-.21 1.196-.926 1.268-.819.084-.936-.536-.948-1.154-.012-.602.038-1.198.864-1.294Z" fill="#efc265" fill-rule="evenodd" data-name="Path 6080"/><path d="M320.313 543.856c-.029.358-.177.641-.549.72-.742.155-1.654-.608-1.694-1.431-.016-.335.073-.674.467-.777.52-.135 1.684.85 1.776 1.488Z" fill="#efc265" fill-rule="evenodd" data-name="Path 6081"/><path d="M310.598 548.312c.779.11 1.407.615 1.575 1.529.082.45-.304.854-.75.818-.924-.076-1.52-.711-1.754-1.555-.123-.44.304-.725.93-.792Z" fill="#efbd65" fill-rule="evenodd" data-name="Path 6082"/><path d="M304.31 548.338c.559-.018.903.253.863.726-.069.834-.626 1.364-1.394 1.592-.471.14-.82-.21-.938-.634-.177-.644.736-1.616 1.468-1.684Z" fill="#efc065" fill-rule="evenodd" data-name="Path 6083"/><path d="M301.696 552.607c.096-.633.349-1.175 1.087-1.166.83.011.872.665.867 1.278-.004.638-.137 1.25-.968 1.168-.724-.07-.94-.624-.986-1.28Z" fill="#eeb965" fill-rule="evenodd" data-name="Path 6084"/><path d="M312.981 552.682c-.047.518-.037 1.116-.707 1.169-.856.067-.876-.616-.884-1.213-.008-.513.048-1.095.698-1.154.865-.078.835.625.893 1.198Z" fill="#f0c765" fill-rule="evenodd" data-name="Path 6085"/></g></g></svg>