<svg xmlns="http://www.w3.org/2000/svg" width="124" height="124" viewBox="58 301.95 124 124"><g data-name="Group 5254"><path d="M58 363.9a62 62 0 1 1 0 .1z" fill="#fff" fill-rule="evenodd" data-name="Ellipse 114"/><g data-name="Group 5242"><path d="m120.348 404.245-1.381.009a3.917 3.917 0 0 0-.553-.368c-.884-.163-1.764-.345-2.651-.497-.81-.16-1.648-.166-2.43-.469-1.314-.133-2.563-.633-3.889-.691-.472.001-.934-.061-1.375-.238a3.13 3.13 0 0 1-.667-.156c-.783-.113-1.56-.254-2.342-.382a2.423 2.423 0 0 1-.678-.107c-.794-.179-1.62-.195-2.389-.496-.816-.192-1.66-.216-2.476-.423a3.281 3.281 0 0 1-.74-.095c-.892-.19-1.806-.261-2.672-.574-.874-.118-1.757-.2-2.468-.814-.755-.582-.927-1.386-.925-2.282.043-21.994-.124-43.988.089-65.982.092-.323.22-.632.382-.925l.06-.06c.159-.125.332-.22.522-.29.281-.126.576-.216.866-.324.203-.073.41-.112.626-.116.53-.058 1.105.155 1.57-.27l.017-.06c.328-.211.698-.182 1.061-.186.855.06 1.684-.042 2.476-.387.647-.27 1.452.098 2.02-.5.218-.093.446-.14.683-.139.79-.1 1.645.254 2.36-.348.209-.111.431-.166.667-.165.675-.05 1.406.177 1.975-.4.22-.08.447-.118.68-.116.783-.096 1.633.254 2.338-.354.21-.108.432-.16.667-.159.678-.045 1.408.172 1.977-.406a2.08 2.08 0 0 1 .688-.11c.794-.09 1.658.252 2.364-.383a1.8 1.8 0 0 1 .701-.13c.97.18 1.927-.418 2.9-.04.26.036.498.121.722.257.204.176.377.376.523.603.062.273.135.54.222.805.283 1.597-.066 3.225.254 4.821.206 9.08.063 18.157.083 27.234.028 13.017.01 26.034.003 39.052 0 1.196.09 2.4-.156 3.577-.04.277-.076.564-.103.844a3.037 3.037 0 0 1-.425 1.066c-.174.296-.407.55-.66.782a2.476 2.476 0 0 1-.516.392Z" fill="#95deff" fill-rule="evenodd" data-name="Path 4790"/><path d="M142.537 361.643c-.86-.307-1.722-.285-2.582.002-.446.404-1.124.022-1.558.464l.017-.008c-.247.326-.748.203-.98.557l-.028.016c-.207.133-.362.331-.574.458l.03-.027c-.153.223-.328.42-.592.515l.061-.05c-.142.313-.376.505-.724.547-.146-.025-.241.034-.286.175a1.044 1.044 0 0 0-.43.41l-.052.068c-.262.276-.424.647-.783.833-3.028.741-5.93.769-8.32-1.65-.798-.807-1.587-1.813-.656-2.909.99-1.166 1.945-.359 2.859.365 2.08 1.646 4.223 1.55 6.37.101.344-.192.732-.217 1.109-.285l-.024-.002c.147-.45.718-.302.93-.661l.031-.017c.213-.158.407-.346.666-.432a.362.362 0 0 0 .388-.134c.228-.147.434-.339.725-.362l.821-.156c1.53-.238 3.06-.28 4.587.022.142.113.3.143.474.09.312.274.778.196 1.088.475l.019.007c.242.34.76.217.984.587l-.041-.036c.229.12.391.318.572.493l-.002-.002c.17.17.335.345.523.497l.01.01c.154.192.344.352.483.558l-.022-.028c.396.514.441 1.02-.036 1.513l.058-.052c-.68.434-1.347.57-1.982-.08l.09.065c-.332-.053-.525-.243-.572-.579l.059.059c-.326-.03-.5-.243-.619-.52l.052.047c-.252-.065-.406-.271-.601-.419l-.12-.126-.173.01c-.417-.134-.872-.15-1.25-.409Z" fill="#de5c21" fill-rule="evenodd" data-name="Path 4833"/><path d="M136.13 370.798c-.138-.044-.234 0-.288.135-.185.141-.37.283-.556.423l.032-.028c-.127.218-.312.383-.5.545l-.013.024c-.216.346-.398.718-.712.995-2.246 1.145-4.429 1.087-6.444-.485-.859-.67-1.327-1.65-.772-2.712.589-1.126 1.613-.819 2.437-.341 1.774 1.03 3.251.478 4.677-.669.582-.404 1.341.111 1.908-.373.174.051.334.025.481-.08a5.377 5.377 0 0 1 3.054-.002.495.495 0 0 0 .47.086c.31.275.794.182 1.079.513l-.017-.01c.156.15.328.28.516.39.04.14.133.2.278.178.363.047.613.227.695.6l-.09-.087c.624.682.782 1.34-.099 1.946l-.15-.027-.106.11c-.357.26-.695.262-1.008-.073l.028.021c-.205-.134-.361-.328-.565-.464l-.024-.021a1.162 1.162 0 0 0-.46-.402.334.334 0 0 0-.374-.18c-1.158-.346-2.317-.286-3.478-.012Z" fill="#dc5b22" fill-rule="evenodd" data-name="Path 4835"/><path d="M92.698 398.648c-.747-.684-.498-1.59-.499-2.416-.01-21.198-.01-42.396 0-63.594 0-.829-.233-1.73.482-2.427l.243.441c.065 22.518.03 45.036.018 67.554l-.244.442Z" fill="#ecf2fe" fill-rule="evenodd" data-name="Path 4836"/><path d="m135.418 361.225-.78.655c-1.082-.586-1.148-1.66-1.159-2.672-.084-8.37-.082-16.74-.006-25.11.007-.685.124-1.362.486-1.97l.357-.362c.805.769.497 1.768.5 2.674.022 7.958.003 15.917.026 23.876.002.99-.316 2.08.576 2.91Z" fill="#ecf2fe" fill-rule="evenodd" data-name="Path 4845"/><path d="m134.362 372.167.444-.27c.007 8.7.017 17.4.02 26.099 0 1.186.199 2.509-1.55 2.7-.049-.157-.098-.313-.151-.469.679-7.969.16-15.955.322-23.931.03-1.44-.11-2.913.915-4.129Z" fill="#ecf2fe" fill-rule="evenodd" data-name="Path 4846"/><path d="M133.277 400.696c-.586.701-1.396.493-2.136.5-2.122.021-4.251.116-6.363-.03-1.404-.097-2.226.413-2.754 1.62l-.26-.384c.03-.749-.295-1.592.564-2.123 3.65-.529 7.3-1.06 10.892.327l.057.09Z" fill="#ecf2fe" fill-rule="evenodd" data-name="Path 4867"/><path d="m122.498 330.74 10.17.064c.227.291.19.542-.111.755-3.26.956-6.56.526-9.856.295a1.91 1.91 0 0 1-.756-.463l-.149-.419c.153-.32.387-.399.702-.233Z" fill="#a1aed5" fill-rule="evenodd" data-name="Path 4869"/><path d="m121.49 330.758-.026-5.135c.2-.197.366-.181.493.079-.001.154.023.304.074.45.31 1.527.347 3.053-.018 4.578l-.052.051c-.168.228-.325.209-.471-.023Z" fill="#a1aed5" fill-rule="evenodd" data-name="Path 4883"/><path d="M135.9 368.312c-.337.453-.838.476-1.333.514-1.546-1.207-1.055-2.523-.209-3.86l.482-.196c-.001.731.01 1.463-.006 2.194-.017.755.261 1.255 1.065 1.348Z" fill="#ecf2fe" fill-rule="evenodd" data-name="Path 4884"/><path d="m143.542 359.483-4.587-.022c1.532-.655 3.061-.685 4.587.022Z" fill="#ecf2fe" fill-rule="evenodd" data-name="Path 4885"/><path d="m122.013 330.73.018-4.578c.898 1.454.282 3.061.467 4.587l-.243.016-.242-.025Z" fill="#ecf2fe" fill-rule="evenodd" data-name="Path 4886"/><path d="M109.143 401.72c1.385.278 2.841.264 4.111 1.011l-.281.23c-.593-.002-1.206.193-1.76-.18l-.934-.08c-.38-.25-.87-.159-1.252-.401-.105-.222-.06-.414.116-.58Z" fill="#95deff" fill-rule="evenodd" data-name="Path 4891"/><path d="M115.84 403.248c1.023.184 2.207-.449 3.056.607-.683.238-1.362.288-2.033-.042l-.922-.088-.307-.184.207-.293Z" fill="#95deff" fill-rule="evenodd" data-name="Path 4909"/><path d="m139.434 368.23-3.054.003c1.018-.698 2.036-.696 3.054-.003Z" fill="#ecf2fe" fill-rule="evenodd" data-name="Path 4910"/><path d="M136.13 370.798c1.161-.692 2.32-.727 3.477.012l-3.478-.012Z" fill="#ecf2fe" fill-rule="evenodd" data-name="Path 4919"/><path d="M94.235 399.126c.714.085 1.52-.197 2.072.526l-.29.225c-.595-.011-1.218.21-1.766-.206l-.187-.053-.194.001c-.253-.1-.321-.281-.23-.531.21-.162.408-.149.595.038Z" fill="#99adce" fill-rule="evenodd" data-name="Path 4932"/><path d="M96.307 399.652c.88.124 1.883-.332 2.6.558-.698.313-1.393.339-2.085-.018l-.226-.046-.232.003c-.187-.061-.264-.148-.232-.26.035-.123.078-.186.13-.186l.045-.05Z" fill="#9aaecf" fill-rule="evenodd" data-name="Path 4933"/><path d="m96.822 400.192 2.084.017c.115.03.229.027.342-.008.206.044.3.128.282.253-.02.146-.058.219-.112.219-.878-.09-1.852.336-2.596-.48Z" fill="#ecf2fe" fill-rule="evenodd" data-name="Path 4934"/><path d="M99.418 400.673a4.521 4.521 0 0 0-.169-.472c.914.082 1.92-.364 2.702.474a60.03 60.03 0 0 0-.281.23c-.594-.005-1.21.198-1.762-.189l-.242-.047-.248.004Z" fill="#95deff" fill-rule="evenodd" data-name="Path 4936"/><path d="M101.951 400.675c.882.133 1.89-.328 2.608.564-.698.313-1.393.336-2.085-.016l-.229-.047-.233.003c-.192-.067-.268-.156-.232-.268.04-.123.087-.185.142-.185l.03-.05Z" fill="#95deff" fill-rule="evenodd" data-name="Path 4937"/><path d="m102.473 401.223 2.085.016a.613.613 0 0 0 .335-.008c.21.043.306.128.286.253-.023.147-.062.22-.116.22-.876-.094-1.848.332-2.59-.481Z" fill="#95deff" fill-rule="evenodd" data-name="Path 4943"/><path d="M105.063 401.704a4.446 4.446 0 0 0-.168-.473c.912.094 1.94-.402 2.693.522-.676.32-1.352.323-2.028-.003l-.246-.047-.251.001Z" fill="#95deff" fill-rule="evenodd" data-name="Path 4944"/><path d="M113.254 402.731c.872.122 1.853-.303 2.586.517l-.034.027c-.675.36-1.351.34-2.03.01l-.234-.047-.239.001c-.185-.068-.259-.157-.223-.268.038-.12.083-.181.136-.181l.038-.059Z" fill="#95deff" fill-rule="evenodd" data-name="Path 4947"/><path d="M142.266 371.846c.375-.63.28-1.286.1-1.946.942.698.936 1.348-.1 1.946Z" fill="#ecf2fe" fill-rule="evenodd" data-name="Path 4949"/><path d="M132.777 331.247a3.493 3.493 0 0 0-.108-.443c.783-.082 1.315.268 1.646.962l-.154.17c-.71.269-1.15-.002-1.384-.689Z" fill="#ecf2fe" fill-rule="evenodd" data-name="Path 4955"/><path d="M145.67 363.514c.652.226 1.31.336 1.981.081-.693.801-1.359.896-1.98-.08Z" fill="#ecf2fe" fill-rule="evenodd" data-name="Path 4964"/><path d="m105.56 401.75 2.028.003-.006-.025c.18.095.247.2.2.315-.05.12-.103.18-.158.18-.712-.052-1.5.225-2.064-.473Z" fill="#95deff" fill-rule="evenodd" data-name="Path 4972"/><path d="M101.921 400.726c.02.153.05.304.09.453-.728-.032-1.524.247-2.103-.463l2.013.01Z" fill="#95deff" fill-rule="evenodd" data-name="Path 4973"/><path d="M109.144 402.202c.42.072.84.14 1.134.5-.751-.008-1.564.273-2.163-.459.331-.302.674-.32 1.03-.04Z" fill="#95deff" fill-rule="evenodd" data-name="Path 4975"/><path d="M113.216 402.79c.02.151.048.301.087.45-.723-.037-1.514.24-2.091-.46l2.004.01Z" fill="#95deff" fill-rule="evenodd" data-name="Path 4976"/><path d="m113.776 403.286 2.03-.011c.038.152.082.302.134.45-.75-.003-1.558.28-2.164-.44Z" fill="#95deff" fill-rule="evenodd" data-name="Path 4980"/><path d="m116.863 403.813 2.033.042c.013.135.037.268.07.399-.728-.017-1.516.255-2.103-.44Z" fill="#95deff" fill-rule="evenodd" data-name="Path 4981"/><path d="M96.262 399.703c.028.15.062.3.101.446-.733-.03-1.536.252-2.113-.478l2.012.032Z" fill="#ecf2fe" fill-rule="evenodd" data-name="Path 4990"/><path d="m109.145 402.202-1.03.04-.246-.025-.246.006a7.278 7.278 0 0 1-.04-.495l1.56-.008c-.001.161 0 .322.002.482Z" fill="#95deff" fill-rule="evenodd" data-name="Path 5053"/><path d="M138.397 362.109c.412-.517.969-.544 1.558-.464-.4.559-.991.468-1.558.464Z" fill="#ecf2fe" fill-rule="evenodd" data-name="Path 5062"/><path d="m147.594 363.647.036-1.513c.696.521.711 1.026-.036 1.513Z" fill="#ecf2fe" fill-rule="evenodd" data-name="Path 5065"/><path d="M145.104 360.048c-.435.007-.803-.137-1.088-.475.437-.011.83.075 1.088.475Z" fill="#ecf2fe" fill-rule="evenodd" data-name="Path 5201"/><path d="M146.107 360.642c-.415-.05-.749-.237-.984-.587.428.028.8.148.984.587Z" fill="#ecf2fe" fill-rule="evenodd" data-name="Path 5202"/><path d="M136.324 360.561c-.204.37-.517.586-.93.661.123-.482.494-.617.93-.66Z" fill="#ecf2fe" fill-rule="evenodd" data-name="Path 5203"/><path d="M142.537 361.643c.482-.066.928-.018 1.249.41-.477.05-.934.036-1.249-.41Z" fill="#ecf2fe" fill-rule="evenodd" data-name="Path 5204"/><path d="M137.435 362.658c.21-.392.545-.56.979-.557-.2.41-.566.524-.98.557Z" fill="#ecf2fe" fill-rule="evenodd" data-name="Path 5205"/><path d="M140.983 368.829c-.43-.023-.803-.168-1.08-.513.446-.01.843.083 1.08.513Z" fill="#ecf2fe" fill-rule="evenodd" data-name="Path 5206"/><path d="m141.002 371.856 1.008.073c-.373.49-.709.462-1.008-.073Z" fill="#ecf2fe" fill-rule="evenodd" data-name="Path 5207"/><path d="M120.348 404.245c.037-.14.066-.281.088-.424.225-.249.509-.314.829-.27l.21.225c-.258.44-.67.506-1.127.469Z" fill="#95deff" fill-rule="evenodd" data-name="Path 5386"/><path d="M122.024 402.786c-.056.4-.16.774-.55.99l-.114-.103a.641.641 0 0 1-.127-.484.983.983 0 0 1 .27-.435l-.005.033c.144-.273.307-.286.49-.037l.036.036Z" fill="#ecf2fe" fill-rule="evenodd" data-name="Path 5388"/><path d="M93.183 329.755c.007.131.013.264.018.396-.104.289-.264.324-.48.107l-.04-.047.502-.456Z" fill="#ecf2fe" fill-rule="evenodd" data-name="Path 5561"/><path d="M93.604 329.716a2.9 2.9 0 0 1-.36-.02l.455-.507.035.027c.264.247.22.413-.13.5Z" fill="#ecf2fe" fill-rule="evenodd" data-name="Path 5572"/><path d="M93.757 399.134c.028.164.065.326.112.485l-.673-.458.273-.172.288.145Z" fill="#ecf2fe" fill-rule="evenodd" data-name="Path 5783"/><path d="m93.196 399.161-.498-.514.06-.057c.423-.066.604.09.486.525l-.048.046Z" fill="#ecf2fe" fill-rule="evenodd" data-name="Path 5786"/><path d="M140.465 371.413c.28.043.46.208.565.464l-.565-.464Z" fill="#ecf2fe" fill-rule="evenodd" data-name="Path 5880"/><path d="M134.817 371.873c.001-.334.2-.486.5-.545l-.5.545Z" fill="#ecf2fe" fill-rule="evenodd" data-name="Path 5881"/><path d="M139.982 370.99c.282-.014.408.151.46.402l-.46-.402Z" fill="#ecf2fe" fill-rule="evenodd" data-name="Path 5883"/><path d="M135.286 371.356c.083-.275.26-.427.555-.424l-.555.424Z" fill="#ecf2fe" fill-rule="evenodd" data-name="Path 5885"/><path d="M142.455 369.987c-.338-.076-.55-.297-.694-.6.356.055.6.241.694.6Z" fill="#ecf2fe" fill-rule="evenodd" data-name="Path 5918"/><path d="M141.482 369.208c-.272.003-.423-.155-.516-.39l.516.39Z" fill="#ecf2fe" fill-rule="evenodd" data-name="Path 5930"/><path d="M134.891 364.703c.014-.273.158-.409.43-.41l-.43.41Z" fill="#ecf2fe" fill-rule="evenodd" data-name="Path 5932"/><path d="M135.607 364.117a.972.972 0 0 1 .724-.547c-.131.328-.38.5-.724.547Z" fill="#ecf2fe" fill-rule="evenodd" data-name="Path 5938"/><path d="M145.189 363.001c.312.073.498.27.57.58-.331-.054-.522-.246-.57-.58Z" fill="#ecf2fe" fill-rule="evenodd" data-name="Path 5950"/><path d="M136.27 363.62c.083-.304.291-.462.592-.515a.786.786 0 0 1-.591.515Z" fill="#ecf2fe" fill-rule="evenodd" data-name="Path 5951"/><path d="M144.628 362.54c.308.053.531.204.618.52-.321-.035-.525-.212-.618-.52Z" fill="#ecf2fe" fill-rule="evenodd" data-name="Path 5958"/><path d="M136.832 363.132c.088-.283.274-.441.574-.458l-.574.458Z" fill="#ecf2fe" fill-rule="evenodd" data-name="Path 5965"/><path d="M144.079 362.168c.306-.012.508.125.601.419l-.601-.419Z" fill="#ecf2fe" fill-rule="evenodd" data-name="Path 5967"/><path d="M147.652 362.162a.686.686 0 0 1-.483-.557l.483.557Z" fill="#ecf2fe" fill-rule="evenodd" data-name="Path 5970"/><path d="M147.159 361.594a.647.647 0 0 1-.523-.497l.523.497Z" fill="#ecf2fe" fill-rule="evenodd" data-name="Path 5977"/><path d="M146.638 361.099a.676.676 0 0 1-.571-.492l.571.492Z" fill="#ecf2fe" fill-rule="evenodd" data-name="Path 5980"/><path d="M137.021 360.113a.728.728 0 0 1-.665.432l.665-.432Z" fill="#ecf2fe" fill-rule="evenodd" data-name="Path 5983"/><path d="M138.134 359.617c-.165.274-.413.383-.725.362l.725-.362Z" fill="#ecf2fe" fill-rule="evenodd" data-name="Path 5984"/><path d="M114.77 350.73c-.001 3.932-.008 7.865.004 11.798.003.95-.027 1.876-.522 2.73-.557.962-1.327 1.512-2.483 1.508-4.013-.014-8.028.053-12.04-.027-2.158-.043-2.934-.873-2.943-3.002-.033-8.122-.029-16.244-.005-24.366.005-1.948.729-2.998 2.506-3.32 3.594-.653 7.202-1.296 10.833-1.661 3.606-.363 4.627.708 4.644 4.285.02 4.018.005 8.036.005 12.055Z" fill="#dae4fe" fill-rule="evenodd" data-name="Path 6011"/><path d="M114.768 382.175c.001 3.249.025 6.498-.006 9.747-.031 3.408-1.466 4.598-4.856 4.075-3.191-.493-6.379-1.01-9.568-1.51-2.897-.455-3.562-1.221-3.567-4.229-.01-6.156-.014-12.312.002-18.468.008-3.1.898-3.885 3.93-4.02 3.681-.161 7.3.613 10.976.547 1.995-.035 3.03 1.254 3.073 3.598.062 3.419.016 6.84.016 10.26Z" fill="#dae4fe" fill-rule="evenodd" data-name="Path 6012"/><path d="m121.988 402.75-.244.037h-.247l-.008-72.029c.158.001.315.009.472.023l.067.584c.935.964.84 2.202.842 3.384.024 20.846.025 41.692.002 62.538-.002 1.192.03 2.416-.88 3.38l-.004 2.083Z" fill="#9fafd3" fill-rule="evenodd" data-name="Path 6013"/><path d="m93.244 399.115-.486-.525c-.033-.855-.094-1.71-.094-2.566-.006-21.152-.005-42.304-.002-63.456 0-.77.038-1.54.059-2.31.16-.031.32-.066.48-.106.006 21.715.016 43.432.006 65.149 0 1.388-.031 2.742 1.029 3.825l-.24.01-.24-.002a5.225 5.225 0 0 1-.512-.02Z" fill="#95deff" fill-rule="evenodd" data-name="Path 6014"/><path d="M119.961 367.854c-.042 1.05-.973 1.95-1.986 1.922-.979-.028-1.973-1.013-1.993-1.975-.024-1.112 1.06-2.138 2.158-2.041 1.035.09 1.863 1.043 1.821 2.094Z" fill="#eac54c" fill-rule="evenodd" data-name="Path 6015"/><path d="m93.604 329.716.13-.5 1.038.002c-.27.445-.702.512-1.168.498Z" fill="#aba9d0" fill-rule="evenodd" data-name="Path 6016"/><path d="M121.361 403.258c.01.14.01.278 0 .416-.309.049-.617.097-.925.147l.522-.57c.138-.177.272-.167.403.007Z" fill="#95deff" fill-rule="evenodd" data-name="Path 6017"/><path d="M121.361 403.258c-.135.002-.268 0-.403-.006l.545-.498-.142.504Z" fill="#94a8d7" fill-rule="evenodd" data-name="Path 6019"/><path d="m121.992 400.667.036-69.302 10.75-.118c.46.23.921.46 1.383.689.372 1.07.366 2.178.365 3.292-.008 7.946-.008 15.892 0 23.838.002.938.074 1.875.113 2.813-2.093 1.996-5.053 2.103-7.047.241-.245-.228-.408-.542-.63-.798-.378-.436-.84-.579-1.348-.25-.664.43-.523.996-.183 1.55.898 1.46 2.214 2.31 3.891 2.612 1.699.306 3.38.254 5.036-.267l.209 3.859c-2.263 2.605-2.914 2.694-5.95.793-.464-.29-.933-.48-1.364.002-.4.446-.295.967-.03 1.426.649 1.12 1.71 1.644 2.93 1.847 1.478.246 2.888-.01 4.21-.726.332 2.117.137 4.25.148 6.375.03 6.221-.011 12.442.027 18.663.009 1.349-.185 2.535-1.318 3.4l-11.228.061Z" fill="#22b0ec" fill-rule="evenodd" data-name="Path 6052"/><path d="M112.76 350.571c0 4.027.021 8.053-.008 12.08-.016 2.236-.278 2.492-2.523 2.516-2.995.032-5.992.035-8.986 0-2.52-.032-2.867-.372-2.872-2.789a4739.27 4739.27 0 0 1 0-21.847c.006-2.191.227-2.524 2.37-2.916 3.349-.614 6.72-1.108 10.085-1.633 1.128-.176 1.834.284 1.913 1.482.039.597.021 1.199.021 1.799.002 3.77.001 7.538 0 11.308Z" fill="#95deff" fill-rule="evenodd" data-name="Path 6059"/><path d="M112.76 382.296c0 3.248.026 6.497-.008 9.745-.024 2.285-.256 2.429-2.543 2.073-3.274-.509-6.584-.797-9.816-1.562-1.953-.463-2.012-.519-2.02-2.566-.023-5.899-.026-11.797.001-17.696.01-2.23.274-2.471 2.536-2.478 3.16-.01 6.32.005 9.479.065 2.07.039 2.34.317 2.362 2.416.036 3.334.01 6.668.01 10.003Z" fill="#95deff" fill-rule="evenodd" data-name="Path 6060"/></g></g></svg>