<svg xmlns="http://www.w3.org/2000/svg" width="652.932" height="652.932" viewBox="0 0 652.932 652.932">
  <g id="Group_5262" data-name="Group 5262" transform="translate(388.751 356.286)">
    <g id="Group_5261" data-name="Group 5261">
      <circle id="Ellipse_12" data-name="Ellipse 12" cx="230.346" cy="230.346" r="230.346" transform="translate(-62.285 295.939) rotate(-135)" fill="none" stroke="#fff" stroke-miterlimit="10" stroke-width="1"/>
      <circle id="Ellipse_13" data-name="Ellipse 13" cx="221.428" cy="221.428" r="221.428" transform="translate(-283.714 191.608) rotate(-90)" fill="none" stroke="#fff" stroke-miterlimit="10" stroke-width="1"/>
      <circle id="Ellipse_14" data-name="Ellipse 14" cx="212.51" cy="212.51" r="212.51" transform="translate(-274.796 182.69) rotate(-90)" fill="none" stroke="#fff" stroke-miterlimit="10" stroke-width="1"/>
      <circle id="Ellipse_15" data-name="Ellipse 15" cx="203.592" cy="203.592" r="203.592" transform="translate(-265.878 173.772) rotate(-90)" fill="none" stroke="#fff" stroke-miterlimit="10" stroke-width="1"/>
      <circle id="Ellipse_16" data-name="Ellipse 16" cx="194.675" cy="194.675" r="194.675" transform="translate(-62.286 245.491) rotate(-135)" fill="none" stroke="#fff" stroke-miterlimit="10" stroke-width="1"/>
      <circle id="Ellipse_17" data-name="Ellipse 17" cx="185.757" cy="185.757" r="185.757" transform="translate(-62.285 232.88) rotate(-135)" fill="none" stroke="#fff" stroke-miterlimit="10" stroke-width="1"/>
      <circle id="Ellipse_18" data-name="Ellipse 18" cx="176.839" cy="176.839" r="176.839" transform="translate(-239.124 147.019) rotate(-90)" fill="none" stroke="#fff" stroke-miterlimit="10" stroke-width="1"/>
      <circle id="Ellipse_19" data-name="Ellipse 19" cx="167.921" cy="167.921" r="167.921" transform="translate(-230.206 138.101) rotate(-90)" fill="none" stroke="#fff" stroke-miterlimit="10" stroke-width="1"/>
      <circle id="Ellipse_20" data-name="Ellipse 20" cx="159.003" cy="159.003" r="159.003" transform="translate(-221.289 129.183) rotate(-90)" fill="none" stroke="#fff" stroke-miterlimit="10" stroke-width="1"/>
      <circle id="Ellipse_21" data-name="Ellipse 21" cx="150.085" cy="150.085" r="150.085" transform="translate(-62.285 182.432) rotate(-135)" fill="none" stroke="#fff" stroke-miterlimit="10" stroke-width="1"/>
      <circle id="Ellipse_22" data-name="Ellipse 22" cx="141.167" cy="141.167" r="141.167" transform="translate(-203.453 111.347) rotate(-90)" fill="none" stroke="#fff" stroke-miterlimit="10" stroke-width="1"/>
      <circle id="Ellipse_23" data-name="Ellipse 23" cx="132.249" cy="132.249" r="132.249" transform="translate(-194.535 102.429) rotate(-90)" fill="none" stroke="#fff" stroke-miterlimit="10" stroke-width="1"/>
      <circle id="Ellipse_24" data-name="Ellipse 24" cx="123.332" cy="123.332" r="123.332" transform="translate(-185.617 93.511) rotate(-90)" fill="none" stroke="#fff" stroke-miterlimit="10" stroke-width="1"/>
      <circle id="Ellipse_25" data-name="Ellipse 25" cx="114.414" cy="114.414" r="114.414" transform="translate(-176.699 84.594) rotate(-90)" fill="none" stroke="#fff" stroke-miterlimit="10" stroke-width="1"/>
      <circle id="Ellipse_26" data-name="Ellipse 26" cx="105.496" cy="105.496" r="105.496" transform="translate(-167.781 75.676) rotate(-90)" fill="none" stroke="#fff" stroke-miterlimit="10" stroke-width="1"/>
      <circle id="Ellipse_27" data-name="Ellipse 27" cx="96.578" cy="96.578" r="96.578" transform="translate(-158.863 66.758) rotate(-90)" fill="none" stroke="#fff" stroke-miterlimit="10" stroke-width="1"/>
      <circle id="Ellipse_28" data-name="Ellipse 28" cx="87.66" cy="87.66" r="87.66" transform="translate(-149.946 57.84) rotate(-90)" fill="none" stroke="#fff" stroke-miterlimit="10" stroke-width="1"/>
      <circle id="Ellipse_29" data-name="Ellipse 29" cx="78.742" cy="78.742" r="78.742" transform="translate(-141.028 48.922) rotate(-90)" fill="none" stroke="#fff" stroke-miterlimit="10" stroke-width="1"/>
      <circle id="Ellipse_31" data-name="Ellipse 31" cx="60.906" cy="60.906" r="60.906" transform="translate(-123.192 31.086) rotate(-90)" fill="none" stroke="#fff" stroke-miterlimit="10" stroke-width="1"/>
      <circle id="Ellipse_32" data-name="Ellipse 32" cx="51.988" cy="51.988" r="51.988" transform="translate(-114.274 22.168) rotate(-90)" fill="none" stroke="#fff" stroke-miterlimit="10" stroke-width="1"/>
      <circle id="Ellipse_33" data-name="Ellipse 33" cx="43.071" cy="43.071" r="43.071" transform="translate(-105.356 13.25) rotate(-90)" fill="none" stroke="#fff" stroke-miterlimit="10" stroke-width="1"/>
      <circle id="Ellipse_34" data-name="Ellipse 34" cx="34.153" cy="34.153" r="34.153" transform="translate(-33.849 9.221) rotate(-171.068)" fill="none" stroke="#fff" stroke-miterlimit="10" stroke-width="1"/>
      <circle id="Ellipse_35" data-name="Ellipse 35" cx="25.235" cy="25.235" r="25.235" transform="translate(-68.81 5.266) rotate(-124.465)" fill="none" stroke="#fff" stroke-miterlimit="10" stroke-width="1"/>
      <circle id="Ellipse_36" data-name="Ellipse 36" cx="16.317" cy="16.317" r="16.317" transform="translate(-46.625 -12.872) rotate(-177.739)" fill="none" stroke="#fff" stroke-miterlimit="10" stroke-width="1"/>
      <circle id="Ellipse_37" data-name="Ellipse 37" cx="7.399" cy="7.399" r="7.399" transform="translate(-55.158 -22.159) rotate(-177.934)" fill="none" stroke="#fff" stroke-miterlimit="10" stroke-width="1"/>
    </g>
    <circle id="Ellipse_30" data-name="Ellipse 30" cx="69.824" cy="69.824" r="69.824" transform="matrix(-0.988, -0.155, 0.155, -0.988, -4.145, 49.995)" fill="none" stroke="#fff" stroke-miterlimit="10" stroke-width="1"/>
  </g>
</svg>
