<svg xmlns="http://www.w3.org/2000/svg" width="124" height="124" viewBox="246 118.95 124 124"><g data-name="Group 5256"><path d="M246 180.9a62 62 0 1 1 0 .1z" fill="#fff" fill-rule="evenodd" data-name="Ellipse 113"/><g data-name="Group 5240"><path d="M287.469 149.717c.161.007.322 0 .482-.02.431-.456 1.138-.037 1.567-.496.567-.058.996-.334.956-.934-.106-1.6.92-1.726 2.096-1.698.24-.12.46-.094.651.097a.809.809 0 0 1-.152.666c-.177.31-.89.486-.437.946.36.365 1.05.362 1.412 0 .458-.46-.253-.638-.44-.951a.81.81 0 0 1-.136-.673.545.545 0 0 1 .648-.11c1.126.047 2.188.103 2.127 1.711-.035.935.75.938 1.435.947.286.296.753.185 1.045.467.335.016.67.032 1.005.05.292.295.776.18 1.06.491.156.022.313.03.47.021.186.158.383.3.553.476.162.024.326.035.49.032.18.159.358.318.536.478.162.025.325.037.49.037.174.169.374.31.54.487.156.026.314.036.472.033.197.155.386.32.56.503l-.002-.002c.164.168.334.33.508.486.156.03.313.044.472.043a3.4 3.4 0 0 1 .557.513l-.008-.008c.184.162.354.338.526.513l-.003-.003c.173.17.342.343.52.508l.003.003c.164.176.333.347.51.508l.006.006c.162.178.332.347.508.51l.005.004c.163.179.335.347.508.516.17.175.344.345.51.524l-.007-.006c.18.168.357.339.514.529l-.012-.01c.325.259.22.749.54 1.012l.003.006c.162.181.34.347.5.531l-.012-.01c.32.268.223.752.53 1.027l-.002-.003c.185.165.325.372.513.534l-.073.557c-3.573 2.23-7.64 2.396-11.62 2.437-3.476.036-6.944-.435-10.343-1.543-4.185-1.364-7.386-3.826-9.87-7.364a.743.743 0 0 1 .078-.79l.516-.058c.18-.149.363-.297.546-.444.16 0 .318-.014.474-.045.175-.154.343-.315.504-.483l.001-.001c.175-.18.363-.344.558-.501.16.002.319-.01.476-.037.167-.173.364-.313.534-.484.166 0 .332-.014.496-.04.178-.156.354-.315.529-.474a3.4 3.4 0 0 0 .497-.033c.17-.174.366-.317.55-.474.158.008.315.001.472-.021.284-.312.767-.195 1.058-.493Z" fill="#c4ccdb" fill-rule="evenodd" data-name="Path 4797"/><path d="M323.392 178.497c.485.201.828.545 1.03 1.03.184.158.32.364.51.514l.004.513c.758.88.864 2.012 1.184 3.064.413 3.744.183 7.499.198 11.249.037 9.297.019 18.594.006 27.892-.002 1.358.12 2.735-.339 4.06-.193.505-.587.808-1.049 1.043-.052 1.034-.724 1.603-1.544 2.06-.159.184-.364.32-.517.51h-2.56a8.095 8.095 0 0 0-.517-.517l.003-.5c.327-14.587.05-29.176.169-43.764.018-2.22-.299-4.424-.172-6.642v-.508c.276-.304.758-.196 1.028-.516h2.049c.153.19.359.326.517.512Z" fill="#e4e7f3" fill-rule="evenodd" data-name="Path 4801"/><path d="m326.99 229.915.002-.502c.309-13.051.076-26.105.154-39.157.022-3.75-.03-7.498-.157-11.246v-.51c.276-.303.76-.195 1.028-.515h1.538c.267.321.75.21 1.028.512v.001c.163.18.35.332.513.511l.517.518c.185.158.32.364.51.515l.004.512c.758.88.865 2.012 1.184 3.064.414 3.744.184 7.499.199 11.248.037 9.298.018 18.595.005 27.893-.001 1.358.12 2.734-.338 4.06-.193.505-.588.808-1.05 1.043l-.003.514c-.193.149-.326.357-.51.514-.203.485-.546.829-1.032 1.031-.157.185-.363.32-.515.51l-2.052.002c-.267-.322-.75-.213-1.026-.518Z" fill="#e4e7f3" fill-rule="evenodd" data-name="Path 4802"/><path d="M340.856 180.553c.716.687.716 1.373 0 2.06-.055.445-1.408.286-.533 1.166.26 1.023.302 2.008-.442 2.87l-.085.182c-.304.463-.226.988-.227 1.495-.003 11.287-.004 22.574 0 33.862 0 .504-.09 1.033.266 1.477.856.184 1.843-.245 2.57.548-1.124.725-2.059 1.588-2.222 3.024-.284.385-.621.727-.868 1.139-.179.163-.332.351-.51.514a1.84 1.84 0 0 1-1.03 1.03c-.158.186-.365.322-.518.511l-2.05.002c-.267-.322-.751-.213-1.026-.518l.002-.502c.31-13.05.077-26.104.154-39.156.022-3.75-.026-7.499-.158-11.246v-.51c.278-.304.76-.196 1.029-.516h1.537c.269.32.751.21 1.03.513.167.175.337.346.513.512l.003.002c.165.176.336.346.51.513l.003.001c.166.176.337.347.512.515.408.485 1.124.046 1.54.512Z" fill="#e4e7f3" fill-rule="evenodd" data-name="Path 4804"/><path d="M294.112 230.433h-2.051c-.157-.187-.346-.341-.516-.513v-.001a1.873 1.873 0 0 1-.288-.919c.439-2.186.464-4.398.461-6.618-.015-11.434-.01-22.867-.005-34.3.001-2.899.08-5.8-.47-8.667a2.01 2.01 0 0 1 .301-.917c.278-.302.762-.192 1.03-.513h1.537c.152.19.357.326.515.509l.513.005c.157.186.345.34.515.513.168.175.34.347.514.515.167.174.339.344.509.516l.004-.001c.994.936.88 2.187.883 3.365.032 13.868.032 27.735 0 41.603-.003 1.178.111 2.429-.884 3.365h-.003c-.163.178-.344.339-.509.515a16.26 16.26 0 0 0-.513.514v.002c-.176.167-.347.338-.515.513-.277.302-.76.192-1.028.514Z" fill="#e4e7f3" fill-rule="evenodd" data-name="Path 4805"/><path d="m298.225 229.912.007-.493c.894-3.525.662-7.123.667-10.703.012-9.153.01-18.305.001-27.457-.003-4.096.215-8.206-.673-12.254l.51-.51c.158-.184.363-.32.515-.51h1.538c.264.328.757.195 1.027.51.69.341 1.204.856 1.545 1.546.556.605 1.01 1.267 1.166 2.096.292 1.439.224 2.898.225 4.351.006 12.07.007 24.138-.001 36.207 0 1.367.083 2.742-.25 4.09-.152.694-.653 1.138-1.14 1.591-.003.17-.004.34-.004.51-.185.16-.34.349-.513.518-.17.174-.358.328-.517.514-.17 0-.34.001-.51.004-.158.184-.364.32-.516.51h-2.05c-.268-.32-.753-.211-1.027-.52Z" fill="#e4e7f3" fill-rule="evenodd" data-name="Path 4806"/><path d="M317.743 228.376c-.003.17-.004.34-.003.51-.184.16-.339.349-.514.517h.001c-.168.175-.358.329-.516.514-.17 0-.34.002-.511.004-.157.185-.364.32-.516.51l-2.051.002c-.267-.322-.752-.213-1.026-.52l.005-.497c1.38-9.529.52-19.113.622-28.67.078-7.245.567-14.523-.626-21.74l-.002-.504c.276-.305.76-.197 1.028-.517h2.05c.153.19.359.326.516.511.689.34 1.203.856 1.543 1.545 1.024 1.159.722 2.582.728 3.918.064 13.986-.078 27.974.088 41.957.08.304.106.616.093.93-.026.672-.47 1.1-.91 1.53Z" fill="#e4e7f3" fill-rule="evenodd" data-name="Path 4812"/><path d="M309.009 178.496c.69.34 1.203.855 1.543 1.545.97 1.074.728 2.405.73 3.66.018 12.706.008 25.412.014 38.117 0 1.106-.09 2.22.208 3.306.132.61.166 1.224.04 1.84-.11.624-.571 1.003-.992 1.412l-.003.51c-.185.16-.34.349-.514.518h.001c-.169.174-.358.328-.516.514-.17 0-.341.001-.511.003-.158.185-.364.32-.516.511h-2.05c-.268-.32-.753-.211-1.027-.52.003-.164.005-.33.006-.494a383.226 383.226 0 0 0-.005-50.412l.511-.512c.159-.183.364-.319.515-.51l2.049.001c.153.19.36.326.517.511Z" fill="#e4e7f3" fill-rule="evenodd" data-name="Path 4813"/><path d="M280.232 153.799c.71-.003.983.542 1.345 1.02 3.616 4.763 8.796 6.528 14.403 7.175 4.897.564 9.803.437 14.523-1.362.448-.171 1.005-.052 1.51-.068l.07-.06c.305.285.226.754.504 1.051l-.01-.018c.342.314.286.795.488 1.168a.42.42 0 0 0 .072.374c.258.537.474 1.07-.176 1.5-4.229-.07-8.457-.188-12.684.063a3.642 3.642 0 0 1-.758.46c-1.743.558-3.533.096-5.296.248-.302.008-.603.007-.905.005-1.926-.273-4.01.692-5.787-.736-4.445-.19-8.89-.141-13.334-.027-.598-.646-.431-1.335-.114-2.033v.001c.486-.4.02-1.153.564-1.532l-.02.032c.256-.314.173-.794.524-1.06l-.017.024c.268-.304.176-.797.547-1.047l-.035.033c.117-.217.318-.367.448-.574l.021-.038c.357-.224.227-.742.584-.966l-.03.029c.13-.213.322-.372.48-.56l.009-.014c.43-.452.61-1.09 1.106-1.493l-.042.029a1.34 1.34 0 0 1 .542-.548l-.03.03c.129-.233.31-.414.543-.544l-.03.03c.13-.233.31-.416.55-.538l-.02.052c.103-.242.257-.268.455-.106Z" fill="#8493ab" fill-rule="evenodd" data-name="Path 4814"/><path d="M298.227 179.005c1.442 1.022 1.506 2.582 1.518 4.11.035 4.266.013 8.532.013 12.797 0 9.812-.005 19.623.004 29.435.002 1.562.014 3.104-1.531 4.072-.783.05-1.024-.711-1.55-1.044v-48.333l1.546-1.037Z" fill="#fefeff" fill-rule="evenodd" data-name="Path 4816"/><path d="M305.417 179.006c1.448 1.028 1.509 2.595 1.518 4.13.032 5.054.012 10.109.012 15.163v26.729c0 1.638-.031 3.27-1.525 4.39-.783.05-1.022-.709-1.548-1.042-.318-.341-.292-.684-.004-1.028l-.008-45.763c-.332-.518-.354-1.032.015-1.542l1.54-1.037Z" fill="#feffff" fill-rule="evenodd" data-name="Path 4817"/><path d="m311.053 227.345.001-1.54c-.354-.544-.236-1.157-.237-1.746-.005-14.092-.006-28.185 0-42.277.001-.587-.126-1.203.252-1.74l1.54-1.035c1.17 1.268 1.517 2.838 1.519 4.483.015 14.02.018 28.04-.006 42.06-.003 1.446-.15 2.914-1.51 3.866-.784.053-1.021-.708-1.547-1.04-.32-.34-.289-.684-.012-1.03Z" fill="#fefeff" fill-rule="evenodd" data-name="Path 4818"/><path d="M291.539 179.018c.866 1.347 1.059 2.82 1.054 4.407-.035 14.049-.03 28.098-.006 42.146.002 1.399-.007 2.743-1.045 3.833-.167.19-.336.183-.508.008-.798-.235-.912-1.147-1.536-1.553a34.868 34.868 0 0 0-.222-.282c-.02-.118-.038-.236-.06-.353.179-1.164.006-2.36.308-3.514l-.066-37.054c-.882-1.156-.874-2.313-.004-3.47.042-1.576-.054-3.203 1.578-4.176.172-.18.34-.187.507.008Z" fill="#fff" fill-rule="evenodd" data-name="Path 4819"/><path d="M334.179 179.011c.948.802 1.04 1.885 1.04 3.026-.008 14.782-.008 29.565 0 44.348 0 1.141-.094 2.223-1.036 3.028-.972-.061-1.49-.576-1.55-1.551-.14-.114-.188-.228-.142-.343.046-.116.093-.173.14-.173l-.004-44.22c-.366-.857-.38-1.715.006-2.57.371-.66.55-1.512 1.546-1.545Z" fill="#fff" fill-rule="evenodd" data-name="Path 4820"/><path d="M326.99 179.01c.945.803 1.04 1.885 1.038 3.027-.008 14.783-.008 29.565 0 44.347.002 1.143-.094 2.224-1.036 3.03-.995-.04-1.18-.888-1.55-1.552-.141-.114-.189-.228-.144-.343.046-.116.092-.174.14-.174l-.002-44.218c-.365-.859-.382-1.716.006-2.572.373-.659.551-1.512 1.547-1.545Z" fill="#fff" fill-rule="evenodd" data-name="Path 4821"/><path d="M318.245 227.346c.001-.171.003-.341.003-.512-.358-.543-.239-1.157-.24-1.745-.005-14.436-.005-28.871.001-43.306 0-.587-.126-1.204.25-1.741l1.54-1.033c.95.804 1.04 1.89 1.039 3.033-.009 14.898-.006 29.796-.007 44.694 0 1.023.138 2.103-1.03 2.679-.783.054-1.02-.707-1.544-1.039-.32-.34-.29-.684-.012-1.03Z" fill="#fff" fill-rule="evenodd" data-name="Path 4822"/><path d="M287.53 164.618c2.024-.192 4.047-.086 6.07 0 .133.113.194.238.18.376-.014.144-.04.217-.074.217-.188.175-.391.321-.648.3.023.008.107.15.132.145.272-.012.522.006.765-.022.233-.026.473.16.693-.033a1.24 1.24 0 0 1-.635-.367c-.12-.232-.083-.432.1-.606 1.91-.104 3.82-.2 5.73-.011.203.351.21.692-.052 1.018a.319.319 0 0 0-.077.346c-.065.268-.239.47-.408.675a.27.27 0 0 0-.112.307c-.054.324-.246.55-.518.717l.036-.04c-.134.23-.319.41-.54.555l.031-.032a1.455 1.455 0 0 1-.567.532l.046-.049c-.223.397-.738.287-1.015.588l.01-.007c-.311.325-.788.262-1.144.486l-3.446.033c-.283-.292-.724-.203-1.034-.429a.394.394 0 0 0-.366-.122c-.28-.076-.486-.265-.684-.463l-.003-.003a2.356 2.356 0 0 0-.527-.444l-.062-.053a1.1 1.1 0 0 0-.452-.46l-.047-.057a3.016 3.016 0 0 0-.447-.536l.004.005c-.212-.197-.403-.407-.47-.702a.328.328 0 0 0-.108-.343c-.248-.32-.166-.772-.428-1.088.045-.14.067-.285.068-.433Z" fill="#f1c842" fill-rule="evenodd" data-name="Path 4834"/><path d="m318.26 180.042-.012 46.792c-.853-.858-.486-1.945-.488-2.929-.024-14.621-.016-29.243-.016-43.864h.515Z" fill="#ecf2fe" fill-rule="evenodd" data-name="Path 4838"/><path d="m311.068 180.042-.014 45.764c-.85-.86-.484-1.947-.485-2.93-.025-14.279-.018-28.557-.018-42.835h.517Z" fill="#ecf2fe" fill-rule="evenodd" data-name="Path 4841"/><path d="M339.836 223.665c-.772-.563-.508-1.396-.509-2.128a11352.06 11352.06 0 0 1 0-32.56c.002-.732-.266-1.56.469-2.147l.04 36.835Z" fill="#ecf2fe" fill-rule="evenodd" data-name="Path 4843"/><path d="M287.916 186.7c-.391.166-.77.43-1.174.478-1.203.14-2.359.217-3.038-1.206-.596-1.25-.15-2.203.672-2.989.943-.901 2.082-1.14 3.224-.231.13.104.23.247.344.372.325.338.715.623.88 1.09.136.471.14.942.002 1.414-.166.474-.554.76-.91 1.072Z" fill="#fdfeff" fill-rule="evenodd" data-name="Path 4844"/><path d="m286.92 227.332-.136-.11-.166.052c-.61-.049-.906-.519-1.24-.936l-.012-.021c-.31-.519-.376-1.03.05-1.525l-.016.02c.144-.208.319-.383.526-.526l-.014.01c.281-.22.604-.272.954-.287 3.08-.127 3.253.094 2.542 3.309l.024-.04c-.826.532-1.666.436-2.513.054Z" fill="#27439b" fill-rule="evenodd" data-name="Path 4859"/><path d="M339.88 186.648c-.355-1.16-.389-2.318.034-3.47.29-.36.605-.365.944-.073l.914.071c.348.227.848.135 1.113.534l-.04-.042c.275.154.462.375.52.693v1.124c-.055.32-.242.542-.519.697l.037-.04c-.266.4-.764.31-1.116.527l-1.886-.02Z" fill="#354ca0" fill-rule="evenodd" data-name="Path 4860"/><path d="M339.853 227.324c-.023-.081-.06-.162-.069-.245-.326-3.03-.326-3.03 2.621-2.866.06.122.152.159.28.11.552.112.426.714.725 1.01l-.04.814c-.072.29-.254.5-.494.665l.014-.015c-.245.345-.73.237-1.002.53l-.026.009c-.671.386-1.341.41-2.009-.012Z" fill="#2d479d" fill-rule="evenodd" data-name="Path 4862"/><path d="m293.671 146.556-.048.556c-.185.138-.37.139-.557.003l-.021-.536c-.269-5.127-.511-10.255.122-15.375.124.013.248.012.372-.004.606 5.114.343 10.235.132 15.356Z" fill="#9faac0" fill-rule="evenodd" data-name="Path 4864"/><path d="m293.166 131.204-.121 15.375-.238.01-.237-.02c0-4.34-.012-8.681.014-13.02.005-.811-.293-1.736.582-2.345Z" fill="#ecf2fe" fill-rule="evenodd" data-name="Path 4865"/><path d="m293.671 146.556-.132-15.356c.847.623.558 1.542.563 2.352.025 4.331.013 8.662.013 12.992l-.222.02-.222-.008Z" fill="#ecf2fe" fill-rule="evenodd" data-name="Path 4866"/><path d="M289.409 227.318c.313-3.615.313-3.615-3.497-3.022 1.067-1.042 2.418-.326 3.612-.586.707 1.226.909 2.437-.115 3.608Z" fill="#ecf2fe" fill-rule="evenodd" data-name="Path 4877"/><path d="M288.342 185.715a2.095 2.095 0 0 0 .048-1.567c-.188-.363-.277-.713.14-.991l.924.029a8.105 8.105 0 0 1 .004 3.47l-.967.053c-.359-.285-.281-.635-.149-.994Z" fill="#5166af" fill-rule="evenodd" data-name="Path 4878"/><path d="m339.853 227.324 2.01.012c-.646.849-1.826.383-2.548 1.04.012-.436.142-.812.538-1.052Z" fill="#ecf2fe" fill-rule="evenodd" data-name="Path 4911"/><path d="m332.633 180.555-.006 2.572c-.821-.73-.39-1.704-.5-2.573l.506.001Z" fill="#ecf2fe" fill-rule="evenodd" data-name="Path 4922"/><path d="m286.919 227.332 2.513-.054.065.581c-.872-.114-1.859.336-2.578-.527Z" fill="#ecf2fe" fill-rule="evenodd" data-name="Path 4926"/><path d="m325.442 180.555-.007 2.572c-.819-.73-.39-1.704-.499-2.573l.506.001Z" fill="#ecf2fe" fill-rule="evenodd" data-name="Path 4945"/><path d="M274.083 162.56c.017.678-.189 1.37.113 2.032-.914-.629-.817-1.314-.113-2.033Z" fill="#ecf2fe" fill-rule="evenodd" data-name="Path 4977"/><path d="M278.264 155.394c-.119.684-.516 1.16-1.106 1.493.03-.748.356-1.279 1.106-1.493Z" fill="#ecf2fe" fill-rule="evenodd" data-name="Path 4979"/><path d="m303.877 180.043-.015 1.542c-.572-.383-.49-.979-.5-1.544.171 0 .343 0 .515.002Z" fill="#ecf2fe" fill-rule="evenodd" data-name="Path 5004"/><path d="M340.856 180.553c-.566-.013-1.165.074-1.54-.512.565.013 1.163-.072 1.54.512Z" fill="#ecf2fe" fill-rule="evenodd" data-name="Path 5005"/><path d="m340.857 183.105-.943.072c-.137-.555-.137-.555.943-.564v.492Z" fill="#ecf2fe" fill-rule="evenodd" data-name="Path 5010"/><path d="m312.96 164.579.177-1.5c.62.58.667 1.092-.176 1.5Z" fill="#ecf2fe" fill-rule="evenodd" data-name="Path 5025"/><path d="M274.647 161.028c-.017.574-.08 1.131-.564 1.532.011-.575-.082-1.19.564-1.532Z" fill="#ecf2fe" fill-rule="evenodd" data-name="Path 5033"/><path d="M289.518 149.201c-.401.549-.992.496-1.566.495.388-.587.991-.497 1.566-.495Z" fill="#ecf2fe" fill-rule="evenodd" data-name="Path 5060"/><path d="m285.415 224.792-.049 1.525c-.626-.53-.65-1.039.05-1.525Z" fill="#ecf2fe" fill-rule="evenodd" data-name="Path 5075"/><path d="m285.378 226.338 1.24.936c-.707.078-1.17-.168-1.24-.936Z" fill="#ecf2fe" fill-rule="evenodd" data-name="Path 5077"/><path d="M298.723 149.669c-.424.015-.794-.092-1.045-.467.42-.004.802.076 1.045.467Z" fill="#ecf2fe" fill-rule="evenodd" data-name="Path 5104"/><path d="M287.469 149.717c-.252.383-.63.49-1.059.493.24-.407.628-.498 1.059-.493Z" fill="#ecf2fe" fill-rule="evenodd" data-name="Path 5105"/><path d="M300.788 150.21c-.428-.003-.809-.107-1.06-.492.432-.006.82.085 1.06.492Z" fill="#ecf2fe" fill-rule="evenodd" data-name="Path 5106"/><path d="M310.554 157.923c-.396-.222-.515-.592-.54-1.013.419.21.521.589.54 1.013Z" fill="#ecf2fe" fill-rule="evenodd" data-name="Path 5118"/><path d="M276.698 157.432c-.037.417-.212.75-.583.967.038-.417.157-.785.583-.967Z" fill="#ecf2fe" fill-rule="evenodd" data-name="Path 5119"/><path d="M311.575 159.477c-.394-.23-.507-.605-.53-1.027.419.218.52.6.53 1.027Z" fill="#ecf2fe" fill-rule="evenodd" data-name="Path 5120"/><path d="M275.681 158.977c-.024.432-.153.809-.547 1.047-.011-.45.091-.841.547-1.047Z" fill="#ecf2fe" fill-rule="evenodd" data-name="Path 5123"/><path d="M275.151 160c-.022.428-.12.819-.524 1.06-.019-.45.078-.842.524-1.06Z" fill="#ecf2fe" fill-rule="evenodd" data-name="Path 5125"/><path d="M312.587 161.555c-.378-.249-.49-.627-.503-1.05.414.231.51.616.503 1.05Z" fill="#ecf2fe" fill-rule="evenodd" data-name="Path 5126"/><path d="M313.065 162.705c-.37-.303-.477-.716-.488-1.168.479.256.529.693.488 1.168Z" fill="#ecf2fe" fill-rule="evenodd" data-name="Path 5131"/><path d="m299.79 165.635.053-1.018a.864.864 0 0 1 .434.025c-.013.404-.107.769-.487.993Z" fill="#ecf2fe" fill-rule="evenodd" data-name="Path 5132"/><path d="M287.464 165.05c.336.287.448.663.428 1.09-.387-.267-.448-.663-.428-1.09Z" fill="#ecf2fe" fill-rule="evenodd" data-name="Path 5133"/><path d="M296.666 169.234c.236-.373.593-.537 1.015-.587-.182.466-.569.577-1.015.587Z" fill="#ecf2fe" fill-rule="evenodd" data-name="Path 5134"/><path d="M291.053 169.317a1.2 1.2 0 0 1 1.034.43c-.406.003-.782-.065-1.034-.43Z" fill="#ecf2fe" fill-rule="evenodd" data-name="Path 5135"/><path d="M295.533 169.713c.297-.361.702-.467 1.145-.486-.256.46-.681.518-1.145.486Z" fill="#ecf2fe" fill-rule="evenodd" data-name="Path 5136"/><path d="M292.573 177.985c-.229.4-.607.5-1.028.512.228-.401.606-.5 1.028-.512Z" fill="#ecf2fe" fill-rule="evenodd" data-name="Path 5138"/><path d="M301.817 178.496c-.421-.012-.798-.112-1.027-.511.42.012.799.11 1.027.51Z" fill="#ecf2fe" fill-rule="evenodd" data-name="Path 5139"/><path d="M313.634 177.985c-.229.4-.607.5-1.028.517.226-.406.605-.505 1.028-.517Z" fill="#ecf2fe" fill-rule="evenodd" data-name="Path 5140"/><path d="M320.826 177.985c-.23.4-.608.5-1.029.516.226-.405.606-.504 1.029-.516Z" fill="#ecf2fe" fill-rule="evenodd" data-name="Path 5141"/><path d="M328.017 177.985c-.23.4-.608.5-1.029.516.227-.405.606-.504 1.029-.516Z" fill="#ecf2fe" fill-rule="evenodd" data-name="Path 5142"/><path d="M330.584 178.497c-.422-.012-.8-.113-1.03-.512.423.012.802.11 1.03.512Z" fill="#ecf2fe" fill-rule="evenodd" data-name="Path 5143"/><path d="M335.208 177.985c-.229.4-.607.5-1.028.516.226-.405.605-.504 1.028-.516Z" fill="#ecf2fe" fill-rule="evenodd" data-name="Path 5144"/><path d="M337.775 178.498c-.422-.013-.8-.113-1.03-.513.423.012.801.11 1.03.513Z" fill="#ecf2fe" fill-rule="evenodd" data-name="Path 5145"/><path d="m288.53 183.157-.14.99c-.358-.249-.443-.618-.446-1.023l.586.033Z" fill="#ecf2fe" fill-rule="evenodd" data-name="Path 5148"/><path d="M342.885 183.71c-.42-.074-.82-.194-1.113-.534.472-.033.895.035 1.113.534Z" fill="#ecf2fe" fill-rule="evenodd" data-name="Path 5149"/><path d="m288.342 185.715.149.994-.575-.009c.021-.38.092-.74.426-.985Z" fill="#ecf2fe" fill-rule="evenodd" data-name="Path 5153"/><path d="M341.767 186.669c.294-.342.696-.455 1.116-.527-.219.5-.643.566-1.116.527Z" fill="#ecf2fe" fill-rule="evenodd" data-name="Path 5154"/><path d="m343.41 225.332-.726-1.01c.567.103.71.51.725 1.01Z" fill="#ecf2fe" fill-rule="evenodd" data-name="Path 5181"/><path d="M341.888 227.328c.262-.314.607-.47 1.002-.531-.2.429-.572.535-1.002.53Z" fill="#ecf2fe" fill-rule="evenodd" data-name="Path 5182"/><path d="m303.87 227.348.004 1.028h-.513c.011-.422.11-.8.51-1.028Z" fill="#ecf2fe" fill-rule="evenodd" data-name="Path 5183"/><path d="m311.052 227.345.013 1.031h-.513c.01-.42.108-.797.5-1.03Z" fill="#ecf2fe" fill-rule="evenodd" data-name="Path 5184"/><path d="m318.245 227.346.012 1.03h-.514c.011-.42.109-.797.502-1.03Z" fill="#ecf2fe" fill-rule="evenodd" data-name="Path 5185"/><path d="M294.112 230.433c.229-.4.607-.501 1.028-.514-.228.402-.606.501-1.028.514Z" fill="#ecf2fe" fill-rule="evenodd" data-name="Path 5186"/><path d="M298.225 229.912c.42.02.799.121 1.026.52-.423-.012-.803-.111-1.026-.52Z" fill="#ecf2fe" fill-rule="evenodd" data-name="Path 5187"/><path d="M305.416 229.912c.42.02.799.121 1.026.52-.423-.012-.802-.111-1.026-.52Z" fill="#ecf2fe" fill-rule="evenodd" data-name="Path 5188"/><path d="M312.607 229.914c.42.018.798.119 1.026.519-.423-.013-.802-.112-1.026-.52Z" fill="#ecf2fe" fill-rule="evenodd" data-name="Path 5189"/><path d="M326.99 229.915c.42.017.798.118 1.026.518-.423-.013-.802-.112-1.027-.518Z" fill="#ecf2fe" fill-rule="evenodd" data-name="Path 5190"/><path d="M334.18 229.915c.421.017.8.118 1.027.518-.423-.013-.802-.113-1.026-.518Z" fill="#ecf2fe" fill-rule="evenodd" data-name="Path 5191"/><path d="m337.257 230.431.517-.511-.517.511Z" fill="#ecf2fe" fill-rule="evenodd" data-name="Path 5662"/><path d="m330.067 230.432.516-.51-.516.51Z" fill="#ecf2fe" fill-rule="evenodd" data-name="Path 5663"/><path d="m322.876 230.432.516-.51-.516.51Z" fill="#ecf2fe" fill-rule="evenodd" data-name="Path 5664"/><path d="m319.798 229.915.516.516-.516-.516Z" fill="#ecf2fe" fill-rule="evenodd" data-name="Path 5665"/><path d="m315.684 230.432.516-.51-.516.51Z" fill="#ecf2fe" fill-rule="evenodd" data-name="Path 5667"/><path d="m308.493 230.432.516-.51-.516.51Z" fill="#ecf2fe" fill-rule="evenodd" data-name="Path 5668"/><path d="m301.302 230.432.515-.51-.515.51Z" fill="#ecf2fe" fill-rule="evenodd" data-name="Path 5669"/><path d="m291.545 229.92.516.512-.516-.512Z" fill="#ecf2fe" fill-rule="evenodd" data-name="Path 5670"/><path d="m316.71 229.917.517-.514-.516.514Z" fill="#ecf2fe" fill-rule="evenodd" data-name="Path 5671"/><path d="m309.52 229.917.516-.514-.516.514Z" fill="#ecf2fe" fill-rule="evenodd" data-name="Path 5672"/><path d="M302.328 229.918Z" fill="#ecf2fe" fill-rule="evenodd" data-name="Path 5673"/><path d="m295.14 229.919.514-.513-.514.513Z" fill="#ecf2fe" fill-rule="evenodd" data-name="Path 5674"/><path d="M291.034 229.412c.17-.005.339-.007.509-.008l.001.515-.51-.507Z" fill="#ecf2fe" fill-rule="evenodd" data-name="Path 5675"/><path d="m317.226 229.403.514-.517-.514.517Z" fill="#ecf2fe" fill-rule="evenodd" data-name="Path 5676"/><path d="m310.035 229.404.514-.518-.514.518Z" fill="#ecf2fe" fill-rule="evenodd" data-name="Path 5677"/><path d="M302.844 229.404Z" fill="#ecf2fe" fill-rule="evenodd" data-name="Path 5679"/><path d="m295.655 229.404.513-.514-.513.514Z" fill="#ecf2fe" fill-rule="evenodd" data-name="Path 5680"/><path d="m338.804 228.89.511-.514-.51.514Z" fill="#ecf2fe" fill-rule="evenodd" data-name="Path 5681"/><path d="M331.613 228.89Z" fill="#ecf2fe" fill-rule="evenodd" data-name="Path 5682"/><path d="m296.168 228.89.508-.516-.508.516Z" fill="#ecf2fe" fill-rule="evenodd" data-name="Path 5683"/><path d="m332.631 227.346.003.516h-.506l.503-.516Z" fill="#ecf2fe" fill-rule="evenodd" data-name="Path 5684"/><path d="m325.437 227.345.005.517h-.506l.5-.517Z" fill="#ecf2fe" fill-rule="evenodd" data-name="Path 5685"/><path d="m342.876 226.812.494-.665a.825.825 0 0 1-.494.665Z" fill="#ecf2fe" fill-rule="evenodd" data-name="Path 5686"/><path d="m285.926 224.286-.526.525.526-.525Z" fill="#ecf2fe" fill-rule="evenodd" data-name="Path 5687"/><path d="m342.847 186.182.517-.696c-.044.327-.211.564-.517.696Z" fill="#ecf2fe" fill-rule="evenodd" data-name="Path 5792"/><path d="m343.365 184.36-.52-.692c.306.13.474.366.52.693Z" fill="#ecf2fe" fill-rule="evenodd" data-name="Path 5800"/><path d="m339.316 180.04-.512-.514.512.515Z" fill="#ecf2fe" fill-rule="evenodd" data-name="Path 5807"/><path d="M332.124 180.042Z" fill="#ecf2fe" fill-rule="evenodd" data-name="Path 5808"/><path d="M324.933 180.04Z" fill="#ecf2fe" fill-rule="evenodd" data-name="Path 5809"/><path d="m296.677 180.043-.51-.516.51.516Z" fill="#ecf2fe" fill-rule="evenodd" data-name="Path 5810"/><path d="M338.802 179.525Z" fill="#ecf2fe" fill-rule="evenodd" data-name="Path 5811"/><path d="m296.167 179.527-.513-.515.513.515Z" fill="#ecf2fe" fill-rule="evenodd" data-name="Path 5812"/><path d="m338.288 179.01-.513-.512.513.512Z" fill="#ecf2fe" fill-rule="evenodd" data-name="Path 5813"/><path d="m331.096 179.009-.512-.51.512.51Z" fill="#ecf2fe" fill-rule="evenodd" data-name="Path 5814"/><path d="M295.654 179.012a743.48 743.48 0 0 1-.515-.513l.515.513Z" fill="#ecf2fe" fill-rule="evenodd" data-name="Path 5815"/><path d="m291.539 179.018-.507-.008.512-.512-.005.52Z" fill="#ecf2fe" fill-rule="evenodd" data-name="Path 5817"/><path d="m323.392 178.497-.517-.512.517.512Z" fill="#ecf2fe" fill-rule="evenodd" data-name="Path 5818"/><path d="m316.2 178.496-.517-.51.518.51Z" fill="#ecf2fe" fill-rule="evenodd" data-name="Path 5820"/><path d="m309.009 178.496-.517-.51.517.51Z" fill="#ecf2fe" fill-rule="evenodd" data-name="Path 5823"/><path d="m306.443 177.985-.515.509.515-.51Z" fill="#ecf2fe" fill-rule="evenodd" data-name="Path 5824"/><path d="m299.252 177.985-.515.51.515-.51Z" fill="#ecf2fe" fill-rule="evenodd" data-name="Path 5825"/><path d="m294.626 178.494-.515-.509.515.509Z" fill="#ecf2fe" fill-rule="evenodd" data-name="Path 5826"/><path d="m290.003 168.732.683.463a.876.876 0 0 1-.683-.463Z" fill="#ecf2fe" fill-rule="evenodd" data-name="Path 5840"/><path d="M297.636 168.695c.077-.297.278-.462.567-.532l-.567.532Z" fill="#ecf2fe" fill-rule="evenodd" data-name="Path 5844"/><path d="M289.473 168.285c.27.036.434.197.527.444l-.527-.444Z" fill="#ecf2fe" fill-rule="evenodd" data-name="Path 5845"/><path d="M298.172 168.195c.08-.282.252-.475.54-.555l-.54.555Z" fill="#ecf2fe" fill-rule="evenodd" data-name="Path 5850"/><path d="M288.96 167.772Z" fill="#ecf2fe" fill-rule="evenodd" data-name="Path 5851"/><path d="m298.676 167.68.518-.716c-.041.333-.207.577-.518.716Z" fill="#ecf2fe" fill-rule="evenodd" data-name="Path 5852"/><path d="M288.465 167.179c.253.092.413.262.448.536l-.448-.536Z" fill="#ecf2fe" fill-rule="evenodd" data-name="Path 5853"/><path d="m288 166.482.469.702a.873.873 0 0 1-.47-.702Z" fill="#ecf2fe" fill-rule="evenodd" data-name="Path 5855"/><path d="m299.306 166.656.408-.674-.408.674Z" fill="#ecf2fe" fill-rule="evenodd" data-name="Path 5867"/><path d="M312.086 160.008Z" fill="#ecf2fe" fill-rule="evenodd" data-name="Path 5878"/><path d="M276.094 158.436c-.037.279-.175.48-.448.574l.448-.574Z" fill="#ecf2fe" fill-rule="evenodd" data-name="Path 5882"/><path d="m311.056 158.46-.498-.531.498.531Z" fill="#ecf2fe" fill-rule="evenodd" data-name="Path 5886"/><path d="M277.148 156.9c-.058.275-.21.468-.479.56l.48-.56Z" fill="#ecf2fe" fill-rule="evenodd" data-name="Path 5888"/><path d="m310.026 156.92-.514-.528.514.529Z" fill="#ecf2fe" fill-rule="evenodd" data-name="Path 5889"/><path d="M309.519 156.398Z" fill="#ecf2fe" fill-rule="evenodd" data-name="Path 5891"/><path d="m309.009 155.874-.508-.516.508.516Z" fill="#ecf2fe" fill-rule="evenodd" data-name="Path 5894"/><path d="m308.496 155.354-.508-.51.508.51Z" fill="#ecf2fe" fill-rule="evenodd" data-name="Path 5895"/><path d="M278.764 154.875c-.066.296-.244.481-.542.547l.542-.547Z" fill="#ecf2fe" fill-rule="evenodd" data-name="Path 5896"/><path d="m307.983 154.838-.512-.508c.171.17.341.34.512.508Z" fill="#ecf2fe" fill-rule="evenodd" data-name="Path 5897"/><path d="M279.278 154.361a.67.67 0 0 1-.545.544l.545-.544Z" fill="#ecf2fe" fill-rule="evenodd" data-name="Path 5898"/><path d="M307.469 154.327Z" fill="#ecf2fe" fill-rule="evenodd" data-name="Path 5900"/><path d="M279.797 153.853c-.063.302-.254.474-.55.539a.766.766 0 0 1 .55-.54Z" fill="#ecf2fe" fill-rule="evenodd" data-name="Path 5901"/><path d="m306.952 153.822-.526-.513.526.513Z" fill="#ecf2fe" fill-rule="evenodd" data-name="Path 5903"/><path d="M280.232 153.799a.742.742 0 0 1-.455.105l.48-.599a7.242 7.242 0 0 0-.025.494Z" fill="#ecf2fe" fill-rule="evenodd" data-name="Path 5904"/><path d="m306.434 153.317-.556-.514.556.514Z" fill="#ecf2fe" fill-rule="evenodd" data-name="Path 5907"/><path d="m281.32 152.803-.547.445.547-.445Z" fill="#ecf2fe" fill-rule="evenodd" data-name="Path 5908"/><path d="m305.405 152.761-.508-.486.508.486Z" fill="#ecf2fe" fill-rule="evenodd" data-name="Path 5910"/><path d="m282.298 152.274-.504.485.504-.485Z" fill="#ecf2fe" fill-rule="evenodd" data-name="Path 5911"/><path d="m304.899 152.277-.56-.503.56.503Z" fill="#ecf2fe" fill-rule="evenodd" data-name="Path 5914"/><path d="m282.857 151.773-.558.5.558-.5Z" fill="#ecf2fe" fill-rule="evenodd" data-name="Path 5915"/><path d="m303.867 151.74-.54-.486.54.487Z" fill="#ecf2fe" fill-rule="evenodd" data-name="Path 5916"/><path d="M283.867 151.252a527.3 527.3 0 0 0-.534.484l.534-.484Z" fill="#ecf2fe" fill-rule="evenodd" data-name="Path 5917"/><path d="m302.837 151.217-.535-.478.535.478Z" fill="#ecf2fe" fill-rule="evenodd" data-name="Path 5921"/><path d="m284.892 150.738-.529.474.53-.474Z" fill="#ecf2fe" fill-rule="evenodd" data-name="Path 5922"/><path d="m301.81 150.707-.55-.476.55.476Z" fill="#ecf2fe" fill-rule="evenodd" data-name="Path 5923"/><path d="m285.94 150.231-.552.475.552-.475Z" fill="#ecf2fe" fill-rule="evenodd" data-name="Path 5924"/><path d="m293.066 147.115.556-.003c.336.014.67.025 1.006.044.706.04 1.084.387 1.008 1.125-.063.612-.466.853-1.027.868-.754.02-1.509.021-2.263.019-.618-.002-1.191-.083-1.268-.879-.089-.924.462-1.154 1.234-1.154.252 0 .503-.013.754-.02Z" fill="#8997af" fill-rule="evenodd" data-name="Path 6041"/><path d="M293.61 165.086c-.007-.155-.01-.311-.01-.467l.513.008c0 .14-.006.278-.019.416.104.303.175.629-.299.586-.323-.03-.217-.326-.185-.543Z" fill="#f1c740" fill-rule="evenodd" data-name="Path 6050"/><path d="M293.61 165.086c.198.408.354.325.484-.043.752-.124 1.399.61 2.217.223-1.208 1.515-2.825.732-4.255.885-.25-.26-.762-.382-.49-.92l2.044-.145Z" fill="#fcf7e5" fill-rule="evenodd" data-name="Path 6053"/><path d="m291.566 165.23.49.92c-.413.008-.788-.086-.882-.549-.05-.247.111-.405.392-.37Z" fill="#fbf8eb" fill-rule="evenodd" data-name="Path 6054"/><path d="M286.824 184.895c-.056.355-.2.663-.602.683-.508.024-.774-.253-.738-.766.03-.417.345-.571.698-.564.379.01.584.275.642.647Z" fill="#cad9fd" fill-rule="evenodd" data-name="Path 6055"/></g></g></svg>