<svg xmlns="http://www.w3.org/2000/svg" width="110.216" height="110.208" viewBox="323.144 101.119 110.216 110.208"><g data-name="Group 3867"><path d="M433.36 156.226c0 7.01-1.311 13.715-3.704 19.884-7.972 20.607-27.984 35.217-51.404 35.217s-43.434-14.61-51.405-35.217a54.834 54.834 0 0 1-3.703-19.884c0-30.435 24.672-55.107 55.108-55.107 30.436 0 55.108 24.672 55.108 55.107Z" fill="#8fd6f9" fill-rule="evenodd" data-name="Path 1005"/><path d="M429.656 176.11c-7.972 20.607-27.984 35.217-51.404 35.217s-43.434-14.61-51.405-35.217h102.809Z" fill="#007fc6" fill-rule="evenodd" data-name="Path 1006"/><path d="M343.01 191.5a31.404 3.271 0 1 1 0 .1z" fill="#1ba1dd" fill-rule="evenodd" data-name="Ellipse 73"/><g data-name="Group 3851"><path d="M358.231 155.544a6.152 6.152 0 1 1-12.304-.002 6.152 6.152 0 0 1 12.304.002Z" fill="#fff" fill-rule="evenodd" data-name="Path 1007"/><g data-name="Group 3850"><path d="M350.859 161.695a6.152 6.152 0 1 1-12.304 0 6.152 6.152 0 0 1 12.304 0Z" fill="#fff" fill-rule="evenodd" data-name="Path 1008"/><path d="M362.027 163.161a6.151 6.151 0 0 1-6.152 6.152 6.151 6.151 0 1 1 0-12.303 6.151 6.151 0 0 1 6.152 6.151Z" fill="#fff" fill-rule="evenodd" data-name="Path 1009"/><path d="M371.322 163.161a6.153 6.153 0 0 1-12.306 0 6.153 6.153 0 0 1 12.306 0Z" fill="#fff" fill-rule="evenodd" data-name="Path 1010"/><path d="M408.384 161.248a6.153 6.153 0 1 1-12.306-.001 6.153 6.153 0 0 1 12.306 0Z" fill="#fff" fill-rule="evenodd" data-name="Path 1011"/><path d="M399.82 163.641a6.15 6.15 0 0 1-6.152 6.151 6.151 6.151 0 1 1 0-12.302 6.15 6.15 0 0 1 6.153 6.151Z" fill="#fff" fill-rule="evenodd" data-name="Path 1012"/><path d="M377.026 163.641a3.3 3.3 0 0 1-6.598 0 3.299 3.299 0 0 1 6.598 0Z" fill="#fff" fill-rule="evenodd" data-name="Path 1013"/><path d="M386.46 163.161a3.297 3.297 0 1 1-6.593.002 3.297 3.297 0 0 1 6.593-.002Z" fill="#fff" fill-rule="evenodd" data-name="Path 1014"/></g></g><g data-name="Group 3855"><g data-name="Group 3853"><g data-name="Group 3852"><path d="m409.019 166.054-5.138 16.737-1.056 3.435-.509 1.655c-.076.244-.174.48-.284.702-.23.439-.53.834-.884 1.161a4.21 4.21 0 0 1-2.877 1.133h-49.605a4.243 4.243 0 0 1-4.053-2.996l-6.695-21.827h71.101Z" fill="#f2a72f" fill-rule="evenodd" data-name="Path 1015"/><path d="m402.825 186.226-.509 1.655c-.076.244-.174.48-.284.702-.23.439-.53.834-.884 1.161a4.21 4.21 0 0 1-2.877 1.133h-49.605a4.243 4.243 0 0 1-4.053-2.996l-6.695-21.827h8.63c3.905 7.065 19.604 29.76 56.277 20.172Z" fill="#f2a72f" fill-rule="evenodd" data-name="Path 1016"/><path d="m409.019 166.054-5.138 16.737c-21.964 4.916-27.742-9.47-29.243-16.737h34.381Z" fill="#f2a72f" fill-rule="evenodd" data-name="Path 1017"/></g><path d="M409.382 167.206h-71.83a1.587 1.587 0 0 1-1.586-1.588c0-.876.71-1.587 1.586-1.587h71.83c.875 0 1.587.711 1.587 1.587a1.59 1.59 0 0 1-1.587 1.588Z" fill="#fff" fill-rule="evenodd" data-name="Path 1018"/></g><g data-name="Group 3854"><path d="M350.83 190.878h4.193v1.54h-4.193v-1.54z" fill="#fff" fill-rule="evenodd" data-name="Rectangle 91"/><path d="M391.914 190.878h4.191v1.54h-4.191v-1.54z" fill="#fff" fill-rule="evenodd" data-name="Rectangle 92"/></g></g><g data-name="Group 3861"><g data-name="Group 3856"><path d="M383.605 146.455a1.534 1.534 0 1 1-3.07 0c0-.848 1.536-2.929 1.536-2.929s1.534 2.08 1.534 2.929Z" fill="#007fc6" fill-rule="evenodd" data-name="Path 1019"/><path d="M382.287 147.676a1.535 1.535 0 0 1-1.535-1.535c0-.592.749-1.787 1.202-2.453-.357.502-1.419 2.061-1.419 2.767 0 .848.687 1.535 1.536 1.535.59 0 1.095-.337 1.352-.824-.281.31-.683.51-1.136.51Z" fill="#1ba1dd" fill-rule="evenodd" data-name="Path 1020"/><path d="M382.907 145.021s.561 1.158.56 1.495c-.003.338-.204.713-.606.761 0 0 .6-.815.046-2.256Z" fill="#1ba1dd" fill-rule="evenodd" data-name="Path 1021"/></g><g data-name="Group 3857"><path d="M386.805 152.322a1.536 1.536 0 0 1-3.072 0c0-.847 1.536-2.93 1.536-2.93s1.536 2.083 1.536 2.93Z" fill="#007fc6" fill-rule="evenodd" data-name="Path 1022"/><path d="M385.485 153.544a1.534 1.534 0 0 1-1.534-1.536c0-.592.75-1.787 1.201-2.454-.357.503-1.419 2.06-1.419 2.768 0 .849.69 1.535 1.536 1.535.59 0 1.095-.336 1.353-.824-.281.312-.685.51-1.137.51Z" fill="#1ba1dd" fill-rule="evenodd" data-name="Path 1023"/><path d="M386.104 150.887s.563 1.16.561 1.496c-.002.338-.205.713-.605.761 0 0 .598-.814.044-2.257Z" fill="#1ba1dd" fill-rule="evenodd" data-name="Path 1024"/></g><g data-name="Group 3858"><path d="M392.799 152.322a1.538 1.538 0 0 1-3.075 0c0-.847 1.537-2.93 1.537-2.93s1.538 2.083 1.538 2.93Z" fill="#007fc6" fill-rule="evenodd" data-name="Path 1025"/><path d="M391.48 153.544a1.536 1.536 0 0 1-1.538-1.536c0-.592.751-1.787 1.202-2.454-.358.503-1.42 2.06-1.42 2.768 0 .849.69 1.535 1.537 1.535.59 0 1.097-.336 1.354-.824-.281.312-.686.51-1.136.51Z" fill="#1ba1dd" fill-rule="evenodd" data-name="Path 1026"/><path d="M392.096 150.887s.562 1.16.56 1.496c-.002.338-.203.713-.605.761 0 0 .6-.814.045-2.257Z" fill="#1ba1dd" fill-rule="evenodd" data-name="Path 1027"/></g><g data-name="Group 3859"><path d="M389.586 146.455c0 .848-.686 1.535-1.534 1.535a1.538 1.538 0 0 1-1.538-1.535c0-.848 1.538-2.929 1.538-2.929s1.534 2.08 1.534 2.929Z" fill="#007fc6" fill-rule="evenodd" data-name="Path 1028"/><path d="M388.268 147.676a1.536 1.536 0 0 1-1.536-1.535c0-.592.751-1.787 1.202-2.453-.355.502-1.42 2.061-1.42 2.767a1.532 1.532 0 0 0 2.89.711c-.279.31-.683.51-1.136.51Z" fill="#1ba1dd" fill-rule="evenodd" data-name="Path 1029"/><path d="M388.886 145.021s.564 1.158.56 1.495c-.002.338-.203.713-.605.761 0 0 .601-.815.045-2.256Z" fill="#1ba1dd" fill-rule="evenodd" data-name="Path 1030"/></g><g data-name="Group 3860"><path d="M395.568 146.455a1.534 1.534 0 1 1-3.071 0c0-.848 1.535-2.929 1.535-2.929s1.536 2.08 1.536 2.929Z" fill="#007fc6" fill-rule="evenodd" data-name="Path 1031"/><path d="M394.25 147.676a1.535 1.535 0 0 1-1.537-1.535c0-.592.75-1.787 1.2-2.453-.354.502-1.416 2.061-1.416 2.767 0 .848.686 1.535 1.535 1.535.59 0 1.096-.337 1.354-.824-.282.31-.684.51-1.137.51Z" fill="#1ba1dd" fill-rule="evenodd" data-name="Path 1032"/><path d="M394.867 145.021s.563 1.158.56 1.495c-.002.338-.201.713-.605.761 0 0 .6-.815.045-2.256Z" fill="#1ba1dd" fill-rule="evenodd" data-name="Path 1033"/></g></g><g data-name="Group 3866"><g data-name="Group 3864"><g data-name="Group 3862"><path d="M413.032 189.487a.724.724 0 0 1-.725-.724v-59.014c0-6.508-5.292-11.801-11.8-11.801-6.507 0-11.8 5.293-11.8 11.8a.723.723 0 1 1-1.446 0c0-7.303 5.94-13.245 13.246-13.245 7.305 0 13.248 5.942 13.248 13.246v59.014c0 .4-.325.724-.723.724Z" fill="#eaf1f4" fill-rule="evenodd" data-name="Path 1034"/></g><g data-name="Group 3863"><path d="M387.731 129.749c0-7.225 5.817-13.108 13.012-13.236-.078 0-.156-.01-.236-.01-7.306 0-13.246 5.942-13.246 13.246 0 .4.323.723.723.723.082 0 .16-.022.237-.047a.72.72 0 0 1-.49-.676Z" fill="#eaf1f4" fill-rule="evenodd" data-name="Path 1035"/><path d="M412.78 188.763v-59.014c0-6.508-5.295-11.801-11.8-11.801-.08 0-.159.01-.237.012 6.397.127 11.564 5.362 11.564 11.789v59.014c0 .4.324.724.725.724.082 0 .16-.023.235-.048a.716.716 0 0 1-.488-.676Z" fill="#eaf1f4" fill-rule="evenodd" data-name="Path 1036"/></g><path d="M420.245 190.3h-14.427l6.487-2.647h1.445l6.495 2.647Z" fill="#eaf1f4" fill-rule="evenodd" data-name="Path 1037"/><path d="m412.781 187.653-.844 2.647h-4.84l5.208-2.647h.476Z" fill="#eaf1f4" fill-rule="evenodd" data-name="Path 1038"/></g><g data-name="Group 3865"><path d="M399.539 140.81h-23.006a.896.896 0 1 1 0-1.79l23.006-.001a.896.896 0 0 1 0 1.79Z" fill="#fff" fill-rule="evenodd" data-name="Path 1039"/><path d="M398.88 139.02h-21.69l10.067-9.764h1.553l10.07 9.764Z" fill="#eaf1f4" fill-rule="evenodd" data-name="Path 1040"/><path d="m388.196 129.256-3.63 9.764h-7.376l10.067-9.764h.94Z" fill="#eaf1f4" fill-rule="evenodd" data-name="Path 1041"/><path d="m388.81 129.256 7.383 9.055h-4.083l-3.914-9.055h.614Z" fill="#fff" fill-rule="evenodd" data-name="Path 1042"/></g></g></g></svg>