<svg xmlns="http://www.w3.org/2000/svg" width="164.117" height="200.457" viewBox="211.035 161.09 164.117 200.457"><g data-name="Group 4769"><g data-name="Group 4688"><g data-name="Group 4770"><g data-name="Group 4682"><g data-name="Group 4680"><g data-name="Group 4675"><g data-name="Group 4672"><path d="M110.394 374.064H75.149c-3.79 0-6.863-3.226-6.863-7.206 0-3.98 3.073-7.206 6.863-7.206h35.245v14.412Z" fill="#d8c4b4" fill-rule="evenodd" style="--darkreader-inline-fill:#533d2b" transform="translate(157.372 -114.773)" data-name="Path 4081"/><path d="M114.813 375.56h-34.31c-2.665 0-4.825-2.269-4.825-5.067s2.16-5.066 4.825-5.066h34.31a.24.24 0 0 1 .233.245v9.642a.24.24 0 0 1-.233.245Z" fill="#f7e4d9" fill-rule="evenodd" style="--darkreader-inline-fill:#44220f" transform="translate(152.72 -118.408)" data-name="Path 4082"/></g><g data-name="Group 4673"><path d="M7.206 0h34.901v14.412h-34.9A7.206 7.206 0 0 1 0 7.206 7.206 7.206 0 0 1 7.206 0z" fill="#efe5dc" fill-rule="evenodd" style="--darkreader-inline-fill:#3b2a1b" transform="translate(219.66 230.467)" data-name="Rectangle 1310"/><path d="M5.066 0h33.657a.645.645 0 0 1 .645.645v8.842a.645.645 0 0 1-.645.645H5.066A5.066 5.066 0 0 1 0 5.066 5.066 5.066 0 0 1 5.066 0z" fill="#b59985" fill-rule="evenodd" style="--darkreader-inline-fill:#6e5543" transform="translate(222.4 232.607)" data-name="Rectangle 1311"/></g><g data-name="Group 4674"><path d="M106.238 296.282H70.993c-3.79 0-6.863-3.226-6.863-7.206 0-3.98 3.073-7.206 6.863-7.206h35.245v14.412Z" fill="#efe5dc" fill-rule="evenodd" style="--darkreader-inline-fill:#3b2a1b" transform="translate(159.988 -65.815)" data-name="Path 4083"/><path d="M110.657 297.777h-34.31c-2.665 0-4.825-2.268-4.825-5.066s2.16-5.066 4.825-5.066h34.31a.24.24 0 0 1 .233.245v9.642a.24.24 0 0 1-.233.245Z" fill="#d8c4b4" fill-rule="evenodd" style="--darkreader-inline-fill:#533d2b" transform="translate(155.335 -69.45)" data-name="Path 4084"/></g></g><g data-name="Group 4679"><g data-name="Group 4676"><path d="M311.637 378.118h35.244c3.79 0 6.863-3.226 6.863-7.206 0-3.98-3.072-7.206-6.863-7.206h-35.244v14.412Z" fill="#d8c4b4" fill-rule="evenodd" style="--darkreader-inline-fill:#533d2b" transform="translate(4.201 -117.325)" data-name="Path 4085"/><path d="M311.87 379.612h34.31c2.665 0 4.825-2.268 4.825-5.066s-2.16-5.066-4.825-5.066h-34.31a.24.24 0 0 0-.233.245v9.642a.24.24 0 0 0 .233.245Z" fill="#f7e4d9" fill-rule="evenodd" style="--darkreader-inline-fill:#44220f" transform="translate(4.201 -120.959)" data-name="Path 4086"/></g><g data-name="Group 4677"><path d="M7.206 0h34.901v14.412h-34.9A7.206 7.206 0 0 1 0 7.206 7.206 7.206 0 0 1 7.206 0z" fill="#efe5dc" fill-rule="evenodd" style="--darkreader-inline-fill:#3b2a1b" transform="rotate(180 181.971 123.19)" data-name="Rectangle 1312"/><path d="M5.066 0h33.657a.645.645 0 0 1 .645.645v8.842a.645.645 0 0 1-.645.645H5.066A5.066 5.066 0 0 1 0 5.066 5.066 5.066 0 0 1 5.066 0z" fill="#b59985" fill-rule="evenodd" style="--darkreader-inline-fill:#6e5543" transform="rotate(180 180.602 122.12)" data-name="Rectangle 1313"/></g><g data-name="Group 4678"><path d="M315.793 300.336h35.244c3.79 0 6.863-3.226 6.863-7.206 0-3.98-3.073-7.206-6.863-7.206h-35.244v14.412Z" fill="#efe5dc" fill-rule="evenodd" style="--darkreader-inline-fill:#3b2a1b" transform="translate(1.585 -68.367)" data-name="Path 4087"/><path d="M316.026 301.83h34.31c2.665 0 4.825-2.268 4.825-5.066s-2.16-5.066-4.825-5.066h-34.31a.24.24 0 0 0-.233.245v9.642a.24.24 0 0 0 .233.245Z" fill="#d8c4b4" fill-rule="evenodd" style="--darkreader-inline-fill:#533d2b" transform="translate(1.585 -72.001)" data-name="Path 4088"/></g></g></g><g data-name="Group 4681"><path d="M0 0h150.348v7.691H0V0z" fill="#d8c4b4" fill-rule="evenodd" style="--darkreader-inline-fill:#533d2b" transform="translate(218.035 258.654)" data-name="Rectangle 1314"/><path d="M0 0h6.324v41.944H0V0z" fill="#d8c4b4" fill-rule="evenodd" style="--darkreader-inline-fill:#533d2b" transform="translate(218.035 266.345)" data-name="Rectangle 1315"/><path d="M0 0h6.324v41.944H0V0z" fill="#d8c4b4" fill-rule="evenodd" style="--darkreader-inline-fill:#533d2b" transform="translate(362.059 266.345)" data-name="Rectangle 1316"/></g></g></g></g><g data-name="Group 4751"><g data-name="Mask Group 4750" transform="translate(202 123)" clip-path="url(&quot;#a&quot;)"><g data-name="Group 4717"><g data-name="Group 4702"><g data-name="Group 4701"><g data-name="Group 4689"><path d="M388.901 406.171s.015-5.59 3.501-9.67c3.487-4.08 6.145-8.834 6.145-8.834s1.747 4.66.089 7.101c-1.659 2.441-9.679 9.974-9.735 11.403Z" fill="#6d673b" fill-rule="evenodd" style="--darkreader-inline-fill:#cec899" transform="translate(-244.783 -244.006)" data-name="Path 4089"/></g><g data-name="Group 4690"><path d="M386.59 432.178s4.553-4.13 7.234-5.094c2.681-.965 10.348-2.817 10.348-2.817s-6.392 5.045-7.59 5.885c-1.199.84-6.248 2.882-9.992 2.026Z" fill="#6d673b" fill-rule="evenodd" style="--darkreader-inline-fill:#cec899" transform="translate(-243.328 -267.043)" data-name="Path 4090"/></g><g data-name="Group 4691"><path d="M380.433 454.677c-1.596-1.487 5.168.239 7.446-.33 2.28-.567 5.863-2.764 12.116-1.366 0 0-4.856 3.256-8.614 3.55-3.759.293-8.762.184-10.948-1.854Z" fill="#6d673b" fill-rule="evenodd" style="--darkreader-inline-fill:#cec899" transform="translate(-239.301 -284.828)" data-name="Path 4091"/></g><g data-name="Group 4692"><path d="M371.73 410.36c-2.322-.961-4.557-2.457-4.8-4.525-.244-2.067.224-6.351-1.779-7.463-2.002-1.111-2.792-4.507-2.792-4.507s3.819 2.103 6.13 5.835c2.312 3.733 3.107 5.398 3.57 7.74.463 2.34-.33 2.92-.33 2.92Z" fill="#6d673b" fill-rule="evenodd" style="--darkreader-inline-fill:#cec899" transform="translate(-228.077 -247.908)" data-name="Path 4092"/></g><g data-name="Group 4693"><path d="M374.485 470.028c2.377-.58 6.262-.639 11.686.918 5.424 1.556 7.146 1.353 7.146 1.353s-5.254 3.265-11.077 1.705c-5.823-1.559-7.755-3.976-7.755-3.976Z" fill="#6d673b" fill-rule="evenodd" style="--darkreader-inline-fill:#cec899" transform="translate(-235.71 -295.61)" data-name="Path 4093"/></g><g data-name="Group 4694"><path d="M347.216 496.559c2.441-.164 6.28.445 11.356 2.908s6.808 2.558 6.808 2.558-5.736 2.315-11.206-.22c-5.469-2.533-6.958-5.246-6.958-5.246Z" fill="#6d673b" fill-rule="evenodd" style="--darkreader-inline-fill:#cec899" transform="translate(-218.546 -312.53)" data-name="Path 4094"/></g><g data-name="Group 4695"><path d="M360.755 432.131c-1.876.171-1.882.122-3.99-3.372-2.11-3.494-5.075-8.335-9.091-7.263 0 0 .397-.446 2.154-1.202s6.47 2.381 9.033 6.346c2.563 3.965 1.894 5.491 1.894 5.491Z" fill="#6d673b" fill-rule="evenodd" style="--darkreader-inline-fill:#cec899" transform="translate(-218.834 -264.471)" data-name="Path 4095"/></g><g data-name="Group 4696"><path d="M354.36 444.348c-1.637-1.185-3.89-1.244-5.852-4.556-1.963-3.311-6.607-9.052-6.607-9.052s8.666 3.021 10.26 5.752c1.595 2.732 2.542 6.962 2.542 6.962l-.343.894Z" fill="#6d673b" fill-rule="evenodd" style="--darkreader-inline-fill:#cec899" transform="translate(-215.2 -271.117)" data-name="Path 4096"/></g><g data-name="Group 4697"><path d="M343.468 462.22c-1.23-.703-2.96-1.822-3.419-4.026-.459-2.203-.972-4.438-2.849-5.964-1.876-1.525-5.053-2.648-5.053-2.648s4.737-.459 7.054 1.414c2.316 1.873 5.114 4.438 4.877 7.51-.236 3.072-.61 3.715-.61 3.715Z" fill="#6d673b" fill-rule="evenodd" style="--darkreader-inline-fill:#cec899" transform="translate(-209.06 -282.946)" data-name="Path 4097"/></g><g data-name="Group 4698"><path d="M365.571 482.085c1.552-.034 7.051.89 10.693 2.893 3.642 2.004 7.688 1.714 7.688 1.714s-3.502 1.087-6.406 1.541c-2.903.455-8.419-.616-9.809-2.25-1.39-1.632-2.166-3.898-2.166-3.898Z" fill="#6d673b" fill-rule="evenodd" style="--darkreader-inline-fill:#cec899" transform="translate(-230.099 -303.434)" data-name="Path 4098"/></g><g data-name="Group 4699"><path d="M333.957 469.278s1.006-4.16-2.473-6.37c-3.48-2.21-5.13-3.513-6.355-5.015-1.225-1.502-1.812-3.305-1.812-3.305s-.56 3.51.722 6.128c1.282 2.619.849 5.29 3.984 6.492a108.235 108.235 0 0 0 5.934 2.07Z" fill="#6d673b" fill-rule="evenodd" style="--darkreader-inline-fill:#cec899" transform="translate(-203.426 -286.128)" data-name="Path 4099"/></g><g data-name="Group 4700"><path d="M341.586 459.863a.287.287 0 0 0 .115-.04c7.257-4.336 11.66-10.622 14.074-15.132 2.616-4.885 3.531-8.806 3.54-8.845a.29.29 0 0 0-.563-.13c-.009.039-.912 3.899-3.495 8.718-2.38 4.44-6.716 10.628-13.853 14.894a.289.289 0 0 0 .182.535Z" fill="#6d673b" fill-rule="evenodd" style="--darkreader-inline-fill:#cec899" transform="translate(-214.799 -274.108)" data-name="Path 4100"/></g></g></g><g data-name="Group 4716"><g data-name="Group 4715"><g data-name="Group 4703"><path d="M84.508 389.517s-.29-6.086-4.286-10.356c-3.996-4.27-7.123-9.316-7.123-9.316s-1.674 5.159.252 7.735c1.925 2.577 11.026 10.384 11.157 11.937Z" fill="#6d673b" fill-rule="evenodd" style="--darkreader-inline-fill:#cec899" transform="translate(-45.585 -232.789)" data-name="Path 4101"/></g><g data-name="Group 4704"><path d="M74.772 418.38s-5.16-4.274-8.127-5.192c-2.966-.919-11.403-2.559-11.403-2.559s7.206 5.18 8.553 6.035c1.345.855 6.943 2.831 10.977 1.715Z" fill="#6d673b" fill-rule="evenodd" style="--darkreader-inline-fill:#cec899" transform="translate(-34.77 -258.46)" data-name="Path 4102"/></g><g data-name="Group 4705"><path d="M78.51 442.395c1.664-1.697-5.615.514-8.124.008-2.508-.507-6.518-2.722-13.257-.894 0 0 5.447 3.306 9.553 3.441 4.106.135 9.547-.229 11.828-2.555Z" fill="#6d673b" fill-rule="evenodd" style="--darkreader-inline-fill:#cec899" transform="translate(-35.958 -277.448)" data-name="Path 4103"/></g><g data-name="Group 4706"><path d="M105.417 392.43c2.481-1.16 4.84-2.898 5.005-5.16.164-2.263-.556-6.905 1.57-8.213 2.125-1.308 2.818-5.044 2.818-5.044s-4.054 2.477-6.388 6.654c-2.333 4.177-3.117 6.029-3.506 8.6-.39 2.571.501 3.164.501 3.164Z" fill="#6d673b" fill-rule="evenodd" style="--darkreader-inline-fill:#cec899" transform="translate(-65.974 -235.412)" data-name="Path 4104"/></g><g data-name="Group 4707"><path d="M87.716 457.783c-2.616-.515-6.849-.388-12.677 1.573-5.829 1.96-7.714 1.824-7.714 1.824s5.88 3.296 12.144 1.312c6.263-1.983 8.247-4.71 8.247-4.71Z" fill="#6d673b" fill-rule="evenodd" style="--darkreader-inline-fill:#cec899" transform="translate(-42.376 -287.976)" data-name="Path 4105"/></g><g data-name="Group 4708"><path d="M120.18 485.114c-2.667-.058-6.815.792-12.221 3.723-5.406 2.93-7.287 3.12-7.287 3.12s6.359 2.239 12.189-.789 7.318-6.054 7.318-6.054Z" fill="#6d673b" fill-rule="evenodd" style="--darkreader-inline-fill:#cec899" transform="translate(-63.365 -305.34)" data-name="Path 4106"/></g><g data-name="Group 4709"><path d="M112.015 415.821c2.051.094 2.055.04 4.18-3.867 2.123-3.908 5.115-9.323 9.54-8.353 0 0-.454-.466-2.404-1.203-1.95-.737-6.927 2.91-9.523 7.353-2.596 4.442-1.793 6.07-1.793 6.07Z" fill="#6d673b" fill-rule="evenodd" style="--darkreader-inline-fill:#cec899" transform="translate(-70.43 -253.219)" data-name="Path 4107"/></g><g data-name="Group 4710"><path d="M120.355 428.582c1.724-1.371 4.174-1.546 6.148-5.248 1.974-3.702 6.748-10.18 6.748-10.18s-9.285 3.715-10.887 6.767c-1.602 3.052-2.427 7.704-2.427 7.704l.418.957Z" fill="#6d673b" fill-rule="evenodd" style="--darkreader-inline-fill:#cec899" transform="translate(-75.491 -260.049)" data-name="Path 4108"/></g><g data-name="Group 4711"><path d="M134.324 447.579c1.305-.827 3.132-2.13 3.524-4.551.393-2.423.841-4.881 2.81-6.634 1.968-1.753 5.37-3.13 5.37-3.13s-5.179-.268-7.609 1.885c-2.43 2.152-5.35 5.082-4.941 8.415.408 3.333.846 4.015.846 4.015Z" fill="#6d673b" fill-rule="evenodd" style="--darkreader-inline-fill:#cec899" transform="translate(-83.99 -272.699)" data-name="Path 4109"/></g><g data-name="Group 4712"><path d="M99.01 470.217c-1.691.04-7.632 1.315-11.5 3.675-3.866 2.36-8.285 2.243-8.285 2.243s3.867 1.011 7.05 1.364c3.183.352 9.136-1.085 10.57-2.93 1.432-1.847 2.165-4.352 2.165-4.352Z" fill="#6d673b" fill-rule="evenodd" style="--darkreader-inline-fill:#cec899" transform="translate(-49.866 -295.965)" data-name="Path 4110"/></g><g data-name="Group 4713"><path d="M147.352 454.732s-1.3-4.481 2.38-7.058c3.68-2.576 5.413-4.075 6.673-5.771 1.26-1.696 1.81-3.687 1.81-3.687s.781 3.793-.486 6.707c-1.267 2.914-.663 5.8-4.019 7.263a118.271 118.271 0 0 1-6.358 2.546Z" fill="#6d673b" fill-rule="evenodd" style="--darkreader-inline-fill:#cec899" transform="translate(-92.607 -275.823)" data-name="Path 4111"/></g><g data-name="Group 4714"><path d="M124.266 446.326a.31.31 0 0 1-.127-.037c-8.113-4.366-13.214-10.994-16.065-15.784-3.087-5.19-4.277-9.415-4.288-9.457a.315.315 0 0 1 .607-.168c.011.041 1.184 4.2 4.233 9.32 2.809 4.716 7.833 11.24 15.812 15.534a.315.315 0 0 1-.172.592Z" fill="#6d673b" fill-rule="evenodd" style="--darkreader-inline-fill:#cec899" transform="translate(-65.318 -264.766)" data-name="Path 4112"/></g></g></g></g><g data-name="Group 4749"><path d="m324.9 293.967 12.652 54.962s-21.948-6.56-24.434-14.675c-2.486-8.114 3.05-34.183 3.05-34.183l8.732-6.104Z" fill="#77714a" fill-rule="evenodd" style="--darkreader-inline-fill:#645f3e" transform="translate(-196.68 -185.03)" data-name="Path 4113"/><g data-name="Group 4727"><g data-name="Group 4721"><g data-name="Group 4720"><g data-name="Group 4719"><g data-name="Group 4718"><path d="M312.348 205.905c.738 1.255.62 2.817.471 4.264-.263 2.64-.262 5.4-.529 8.036l2.898 6.508-7.463 1.674-2.193.493-2.755-6.363c-3.494-1.666-6.915-3.841-9.492-6.73-1.04-1.165-1.894-2.501-3.056-3.544-1.486-1.326-3.376-2.1-5.007-3.247-.375-.262-.759-.582-.865-1.027-.137-.57.252-1.167.773-1.44.517-.274 1.133-.293 1.719-.264.063.003.132.006.195.015a12.382 12.382 0 0 1 7.29 3.026c.26.226.533.476.875.519.304.033.602-.107.87-.265 1.619-.969 2.684-2.668 3.344-4.438.275-.736.524-1.54 1.144-2.018.906-.692 2.197-.412 3.277-.048a33.461 33.461 0 0 1 6.113 2.782c.92.534 1.85 1.15 2.391 2.067Z" fill="#ea7c6f" fill-rule="evenodd" style="--darkreader-inline-fill:#f68174" transform="translate(-178.963 -126.312)" data-name="Path 4114"/><path d="m309.366 224.773 2.312 6.8-6.146 1.38-2.755-6.364c-3.494-1.665-6.915-3.84-9.492-6.73-1.04-1.165-1.894-2.5-3.056-3.544-1.486-1.326-3.376-2.1-5.007-3.246-.375-.263-.759-.582-.865-1.027-.137-.571.252-1.168.773-1.44.517-.275 1.133-.294 1.719-.265.063.003.132.006.195.016-.262.272-.596.49-.714.842-.312.909.89 1.51 1.766 1.897 2.091.928 3.473 2.915 5.006 4.614 2.949 3.267 12.05 5.793 16.264 7.067Z" fill="#f3a080" fill-rule="evenodd" style="--darkreader-inline-fill:#fea27e" transform="translate(-178.963 -132.385)" data-name="Path 4115"/><path d="M329.337 223.681c1.894.852 3.521 2.238 4.818 3.86-.82-1.861-2.037-3.604-3.746-4.707-1.71-1.103-3.961-1.48-5.82-.653-.336.15-.755.341-.973.604.665.331 1.97-.025 2.75.067 1.025.12 2.03.406 2.97.829Z" fill="#b54b57" fill-rule="evenodd" style="--darkreader-inline-fill:#c5626d" transform="translate(-203.691 -139.564)" data-name="Path 4116"/></g></g></g></g><path d="M3.998 0h6.282a3.998 3.998 0 0 1 3.999 3.998v15.647a3.998 3.998 0 0 1-3.999 3.999H3.998A3.998 3.998 0 0 1 0 19.645V3.998A3.998 3.998 0 0 1 3.998 0z" fill="#1c192c" fill-rule="evenodd" style="--darkreader-inline-fill:#ddd8d2" transform="rotate(-50.433 134.418 -73.355)" data-name="Rectangle 1323"/><path d="M2.637 0h6.451a2.637 2.637 0 0 1 2.637 2.637v15.768a2.637 2.637 0 0 1-2.637 2.637H2.637A2.637 2.637 0 0 1 0 18.405V2.637A2.637 2.637 0 0 1 2.637 0z" fill="#d8c4b4" fill-rule="evenodd" style="--darkreader-inline-fill:#ddc4b1" transform="rotate(-50.433 135.161 -75.361)" data-name="Rectangle 1324"/><g data-name="Group 4726"><path d="M335.219 202.048c-.553 3.216-3.361 6.073-3.361 6.073-.706-.083-1.465-.317-2.236-.658a11.68 11.68 0 0 1-.984-.472 21.109 21.109 0 0 1-2.185-1.355 25.531 25.531 0 0 1-.942-.676c-.82-.621-1.609-1.27-2.325-1.9-.311-.264-.605-.53-.887-.783a58.182 58.182 0 0 1-1.871-1.798c-.548-.552-.869-.898-.869-.898 1.344-2.672 5.302-5.271 5.302-5.271 1.117.244 2.212.707 3.237 1.293 4.04 2.291 7.12 6.445 7.12 6.445Z" fill="#f3a080" fill-rule="evenodd" style="--darkreader-inline-fill:#fea27e" transform="translate(-201.138 -122.303)" data-name="Path 4117"/><g data-name="Group 4725"><g data-name="Group 4722"><path d="M330.32 206.686s-.161.387-.436.942a18.006 18.006 0 0 1-1.145 2.018c-.298.446-.609.851-.898 1.205-.312-.266-.605-.53-.887-.784.142-.393.342-.807.607-1.208a5.887 5.887 0 0 1 1.808-1.713c.553-.335.95-.46.95-.46Z" fill="#b54b57" fill-rule="evenodd" style="--darkreader-inline-fill:#c5626d" transform="translate(-205.792 -130.093)" data-name="Path 4118"/></g><g data-name="Group 4723"><path d="M338.749 213.98s-.121.384-.348.927c-.23.546-.554 1.257-1.006 1.97-.27.423-.561.804-.833 1.14a25.537 25.537 0 0 1-.941-.676c.13-.393.315-.816.577-1.227a5.726 5.726 0 0 1 1.66-1.662c.518-.335.891-.472.891-.472Z" fill="#b54b57" fill-rule="evenodd" style="--darkreader-inline-fill:#c5626d" transform="translate(-211.247 -134.684)" data-name="Path 4119"/></g><g data-name="Group 4724"><path d="M347.428 218.198s-.12.402-.36.98c-.245.58-.595 1.336-1.09 2.091-.302.462-.628.875-.935 1.23a11.694 11.694 0 0 1-.984-.473c.157-.48.394-1.013.734-1.532a6.62 6.62 0 0 1 1.724-1.761c.53-.371.911-.535.911-.535Z" fill="#b54b57" fill-rule="evenodd" style="--darkreader-inline-fill:#c5626d" transform="translate(-216.558 -137.339)" data-name="Path 4120"/></g></g><path d="M328.098 195.603c-1.003.074-1.989.246-2.891.676-.828.39-1.54.98-2.225 1.582-.783.689-1.65 1.395-2.304 2.213a2.593 2.593 0 0 0-.25.405c-.548-.552-.869-.898-.869-.898 1.344-2.672 5.302-5.271 5.302-5.271 1.117.244 2.212.707 3.237 1.293Z" fill="#f8bf92" fill-rule="evenodd" style="--darkreader-inline-fill:#ffbf8a" transform="translate(-201.138 -122.303)" data-name="Path 4121"/></g></g><g data-name="Group 4728"><path d="m232.102 307.703 3.603-19.9-5.41-1.474-22.947 4.423-24.829-4.405-5.586 2.052 3.309 20.072 1.48 53.992s15.29 9.077 24.75 9.177c9.46.1 23.362-7.49 23.362-7.49l2.268-56.447Z" fill="#e36c44" fill-rule="evenodd" style="--darkreader-inline-fill:#a53c18" transform="translate(-111.366 -180.222)" data-name="Path 4122"/><path d="m227.923 548.083-69.953-.738c1.55-15.265 3.57-33.902 4.548-37.699 1.436-5.594 5.615-14.45 6.89-17.093.239-.499.378-.775.378-.775l4.41.155 4.54.157 7.654.272 2.766.094 5.754.202 11.738.407 3.359.123 3.364.117.55.017.74.024 3.24.116s5.143 9.105 6.715 14.993c.917 3.435 2.306 23.508 3.307 39.628Z" fill="#77714a" fill-rule="evenodd" style="--darkreader-inline-fill:#645f3e" transform="translate(-99.43 -309.536)" data-name="Path 4123"/></g><path d="M175.216 333.93c-.4-.508-1.248.138-.902.68 2.334 3.67 4.113 7.453 4.665 11.809.042.336.615.264.594-.074-.274-4.502-1.526-8.833-4.357-12.416Z" fill="#686235" fill-rule="evenodd" style="--darkreader-inline-fill:#d3cd9b" transform="translate(-109.666 -210.067)" data-name="Path 4124"/><path d="M172.63 345.874c-.193-.685-.792-1.29-1.226-1.847-.47-.604-.905-1.333-1.52-1.797-.069-.052-.169.032-.145.109.228.74.771 1.402 1.182 2.053.38.603.738 1.35 1.325 1.771.187.135.443-.082.385-.289Z" fill="#686235" fill-rule="evenodd" style="--darkreader-inline-fill:#d3cd9b" transform="translate(-106.835 -215.397)" data-name="Path 4125"/><path d="M321.791 357.684c.06-.49-.659-.527-.81-.119-1.059 2.876-1.63 7.75-.056 10.513.028.05.12.047.132-.016.31-1.568-.008-3.242.046-4.844.063-1.875.465-3.682.688-5.534Z" fill="#686235" fill-rule="evenodd" style="--darkreader-inline-fill:#d3cd9b" transform="translate(-201.385 -224.883)" data-name="Path 4126"/><path d="M203.795 463.833c-2.523-3.201-5.71-5.946-8.427-8.991-.202-.226-.62.076-.432.325 2.443 3.239 4.943 6.821 8.118 9.393.52.42 1.159-.197.741-.727Z" fill="#686235" fill-rule="evenodd" style="--darkreader-inline-fill:#d3cd9b" transform="translate(-122.667 -286.238)" data-name="Path 4127"/><path d="M295.558 442.386c-2.378 2.177-4.382 4.838-6.579 7.203-1.97 2.121-4.209 4.163-5.845 6.557-.07.103.068.247.173.176 2.541-1.704 4.655-4.156 6.737-6.38 2.107-2.251 4.423-4.494 6.137-7.065.259-.389-.297-.79-.623-.491Z" fill="#686235" fill-rule="evenodd" style="--darkreader-inline-fill:#d3cd9b" transform="translate(-178.199 -278.382)" data-name="Path 4128"/><path d="M306.13 490.338c-1.233.361-2.347 1.274-3.366 2.03-.94.698-2.065 1.346-2.792 2.274-.109.138.067.36.227.302 1.22-.44 2.282-1.414 3.333-2.157.942-.665 2.015-1.394 2.673-2.349.034-.049-.02-.116-.076-.1Z" fill="#686235" fill-rule="evenodd" style="--darkreader-inline-fill:#d3cd9b" transform="translate(-188.788 -308.628)" data-name="Path 4129"/><path d="M186.412 520.82c-1.7.81-2.81 2.722-3.759 4.277-.93 1.523-2.352 3.552-2.298 5.396.014.477.611.781.97.413 1.275-1.311 1.752-3.418 2.64-5.024.878-1.59 2.215-3.123 2.646-4.907.029-.12-.091-.207-.199-.156Z" fill="#686235" fill-rule="evenodd" style="--darkreader-inline-fill:#d3cd9b" transform="translate(-113.519 -327.806)" data-name="Path 4130"/><path d="M190.368 540.106c-.873.705-1.428 1.841-1.891 2.843-.434.938-.993 2.063-.962 3.11.016.54.717.75 1.012.285.539-.848.73-1.959 1.096-2.897.395-1.01.99-1.995 1.226-3.055.065-.293-.256-.468-.481-.286Z" fill="#686235" fill-rule="evenodd" style="--darkreader-inline-fill:#d3cd9b" transform="translate(-118.025 -339.908)" data-name="Path 4131"/><path d="m268.762 618.119-6.202-.065a64.699 64.699 0 0 1-3.92-1.11 73.735 73.735 0 0 1-7.903-3.078c-5.648-2.581-10.852-5.926-15.59-9.94-.373-.32.145-.968.535-.676 6.451 4.845 13.56 8.835 21.194 11.503 3.598 1.258 7.316 1.89 10.948 2.98.315.096.635.225.938.386Z" fill="#686235" fill-rule="evenodd" style="--darkreader-inline-fill:#57522c" transform="translate(-147.926 -379.653)" data-name="Path 4132"/><g data-name="Group 4729"><path d="M118.474 428.982c5.078 1.736 15.584-2.788 15.584-2.788l4.376-11.633-.434-3.563-3.019-24.706-4.191-1.2-5.64-1.616s-11.754 43.78-6.676 45.506Z" fill="#f3a080" fill-rule="evenodd" style="--darkreader-inline-fill:#812d0d" transform="translate(-73.769 -241.368)" data-name="Path 4133"/><path d="M142.037 418.34c2.696-1.108 7.21-.581 7.21-.581l4.385-4.016-3.019-24.706-4.191-1.2.074 25.85c-1.2.6-4.265 4.413-4.459 4.653Z" fill="#ea7c6f" fill-rule="evenodd" style="--darkreader-inline-fill:#f68174" transform="translate(-89.401 -244.113)" data-name="Path 4134"/></g><path d="M130.243 297.637s-7.422 23.399-10.043 33.426c-2.62 10.027-11.165 47.139-7.607 49.275 3.557 2.136 29.96-4.765 29.96-4.765l-.856-16.953-1.878-56.239-9.576-4.744Z" fill="#fe7f54" fill-rule="evenodd" style="--darkreader-inline-fill:#a12901" transform="translate(-70.331 -187.34)" data-name="Path 4135"/><g data-name="Group 4744"><g data-name="Group 4730"><path d="m253.133 252.11-5.636 2.098-7.1-2.231c.321-1.8.428-4.174.43-6.464.012-4.001-.28-7.751-.28-7.751l11.136-1.513c-.1 1.418.243 5.233.62 8.764.396 3.704.83 7.098.83 7.098Z" fill="#f3a080" fill-rule="evenodd" style="--darkreader-inline-fill:#fea27e" transform="translate(-151.311 -148.7)" data-name="Path 4136"/><path d="M252.557 245.013c-1.551 1.144-3.197 2.273-5.101 2.512-2.233.283-4.386-.753-6.373-2.012.011-4.001-.281-7.751-.281-7.751l11.136-1.513c-.101 1.418.243 5.233.62 8.764Z" fill="#ea7c6f" fill-rule="evenodd" style="--darkreader-inline-fill:#f68174" transform="translate(-151.566 -148.7)" data-name="Path 4137"/></g><g data-name="Group 4742"><g data-name="Group 4741"><g data-name="Group 4739"><g data-name="Group 4737"><path d="M213.833 158.069s.574 10.124 3.32 13.84c2.301 3.111 5.573 8.074 10.707 9.7 1.002.317 2.087.3 3.08-.05 5.078-1.789 8.19-6.853 10.39-10.036 2.626-3.802 2.877-13.94 2.877-13.94.012-.674.007-1.323-.013-1.952v-.02c-.612-19.173-15.496-17.885-15.496-17.885s-14.676.37-14.868 19.348c-.004.327-.003.657.003.995Z" fill="#f8bf92" fill-rule="evenodd" style="--darkreader-inline-fill:#773907" transform="translate(-134.588 -86.677)" data-name="Path 4138"/><path d="M212.493 157.089c.114 1.619.83 10.215 3.353 13.573 2.338 3.11 5.662 8.073 10.88 9.697 1.018.317 2.121.3 3.13-.05 5.162-1.79 8.326-6.856 10.563-10.039 2.67-3.802 2.928-13.94 2.928-13.94.005-.235.007-.464.007-.693v-.02c-.617-19.172-15.745-17.88-15.745-17.88s-14.917.374-15.116 19.352Z" fill="#f3a080" fill-rule="evenodd" style="--darkreader-inline-fill:#812d0d" transform="translate(-133.748 -86.683)" data-name="Path 4139"/><path d="M240.682 151.594c-3.82-5.92-10.956-9.534-17.988-9.113-4.288.256-8.437 2.009-11.715 4.766-.996.838-4.141 3.386-4.177 4.826-.067 2.693 2.915.403 4.489-.188 9.35-3.51 19.977-3.654 29.39-.29Z" fill="#0782b7" fill-rule="evenodd" style="--darkreader-inline-fill:#066d99" transform="translate(-130.165 -89.66)" data-name="Path 4140"/><g data-name="Group 4732"><path d="M251.333 211.557a2.643 2.643 0 0 1 2.35 1.335c.057.103.108.22.083.335-.038.173-.224.264-.39.325a8.917 8.917 0 0 1-3.68.517c-2.245-.16.536-2.475 1.637-2.512Z" fill="#ea7c6f" fill-rule="evenodd" style="--darkreader-inline-fill:#f68174" transform="translate(-156.629 -133.158)" data-name="Path 4141"/><g data-name="Group 4731"><path d="M251.384 201.359s-.005-.136-.003-.374a9.735 9.735 0 0 0 0-.432c-.004-.167.002-.355-.008-.564-.004-.207-.006-.432-.019-.674-.004-.24-.024-.496-.033-.763a82.685 82.685 0 0 0-.125-1.725 82.53 82.53 0 0 0-.174-1.72c-.037-.266-.061-.521-.099-.759-.03-.24-.065-.462-.097-.667-.027-.207-.065-.392-.09-.557a10.557 10.557 0 0 0-.074-.425c-.043-.235-.062-.369-.062-.369a8.4 8.4 0 0 0 .476.66c.091.146.199.312.297.504.103.19.212.402.31.638.107.233.198.49.29.762a8.66 8.66 0 0 1 .375 1.833 8.68 8.68 0 0 1-.053 1.87 8.396 8.396 0 0 1-.35 1.482c-.064.207-.142.388-.206.547a4.547 4.547 0 0 1-.182.4c-.108.217-.173.333-.173.333Z" fill="#dd5b67" fill-rule="evenodd" style="--darkreader-inline-fill:#e96772" transform="translate(-157.733 -121.057)" data-name="Path 4142"/></g></g><g data-name="Group 4736"><g data-name="Group 4735"><g data-name="Group 4733"><path d="M276.47 186.263c-.227.63-1.028 1.137-1.59 1.426-.3-.327-.66-.518-1.045-.508-.982.023-1.749 1.32-1.712 2.898.037 1.578.863 2.838 1.846 2.815.982-.023 1.75-1.32 1.712-2.898a4.285 4.285 0 0 0-.243-1.346c.735-.677 1.032-2.387 1.032-2.387Z" fill="#2a2b2b" fill-rule="evenodd" style="--darkreader-inline-fill:#d7d3cc" transform="translate(-171.28 -117.238)" data-name="Path 4143"/><path d="M276.698 194.873s1.104.368 2.224.027c1.119-.341 1.829-1.263 1.829-1.263s-1.104-.37-2.223-.028c-1.12.341-1.83 1.264-1.83 1.264Z" fill="#fef1e8" fill-rule="evenodd" style="--darkreader-inline-fill:#ffe2c8" transform="translate(-174.16 -121.77)" data-name="Path 4144"/></g><g data-name="Group 4734"><path d="M226.993 187.172c.247.622 1.064 1.103 1.636 1.374.288-.336.642-.538 1.027-.541.983-.009 1.791 1.264 1.804 2.842.014 1.578-.772 2.865-1.755 2.873-.983.008-1.79-1.264-1.804-2.843-.004-.488.069-.949.2-1.352-.756-.653-1.108-2.353-1.108-2.353Z" fill="#2a2b2b" fill-rule="evenodd" style="--darkreader-inline-fill:#d7d3cc" transform="translate(-142.875 -117.81)" data-name="Path 4145"/><path d="M227.553 195.699s-1.092.404-2.221.099c-1.13-.305-1.869-1.205-1.869-1.205s1.092-.404 2.221-.099c1.13.306 1.87 1.205 1.87 1.205Z" fill="#fef1e8" fill-rule="evenodd" style="--darkreader-inline-fill:#ffe2c8" transform="translate(-140.653 -122.347)" data-name="Path 4146"/></g></g></g></g><g data-name="Group 4738"><path d="M238.281 226.184s6.54-4.096 13.345-1.27c0 0-2.467 5.765-5.934 6.003-4.207.29-7.411-4.733-7.411-4.733Z" fill="#7a2626" fill-rule="evenodd" style="--darkreader-inline-fill:#e38a8a" transform="translate(-149.98 -140.94)" data-name="Path 4147"/><path d="M239.377 228.077s4.607-1.773 12.55-1.256c0 0-1.418 4.56-5.993 4.789-4.575.229-6.557-3.533-6.557-3.533Z" fill="#fff" fill-rule="evenodd" style="--darkreader-inline-fill:#f4f2ee" transform="translate(-150.67 -142.707)" data-name="Path 4148"/></g></g><g data-name="Group 4740"><path d="M274.767 175.777s-6.222-5.44-8.748-3.98c-1.475.853-.442 1.636-.442 1.636l9.19 2.344Z" fill="#44413d" fill-rule="evenodd" style="--darkreader-inline-fill:#c9c3ba" transform="translate(-166.939 -107.976)" data-name="Path 4149"/><path d="M217.757 174.863s7.232-4.001 9.392-2.04c1.261 1.146.086 1.693.086 1.693l-9.478.347Z" fill="#44413d" fill-rule="evenodd" style="--darkreader-inline-fill:#c9c3ba" transform="translate(-137.061 -108.438)" data-name="Path 4150"/></g></g></g><path d="M240.146 272.187s-.196.584-.594 1.529c-1.724 4.052-7.261 14.773-17.579 14.665-10.046-.106-17.83-10.14-20.662-14.353a30.406 30.406 0 0 1-1.158-1.832l15.296-4.258 11.87.125 12.827 4.124Z" fill="#f3a080" fill-rule="evenodd" style="--darkreader-inline-fill:#812d0d" transform="translate(-125.98 -168.646)" data-name="Path 4151"/><path d="M205.527 172.092s6.9-9.872 7.212-13.637c.315-3.765 1.805-22.268-2.316-28.846-9.135-12.159-27.375-8.401-34.438 2.494-2.368 4.877.248 28.208 1.579 31.006 1.33 2.79 6.855 12.47 6.855 12.47-5.788 2.45-18.914 8.004-24.569 10.402a98.842 98.842 0 0 0 1.579 2.739c10.15 16.89 12.644 6.815 21.975 18.617 9.994 17.129 29.598 11.388 38.225-4.572 3.005-6.348 2.653-13.786 7.204-17.003l-23.306-13.67Zm-4.328-3.135c-5.21 3.076-6.348 3.69-10.647.993-3.531-2.968-6.878-6.44-9.253-12.355 0 0-.007 0-.007-.008-8.824-28.686 21.39-35.004 27.841-18.484 1.145 6.822.341 24.625-7.934 29.854Z" fill="#22b0ec" fill-rule="evenodd" style="--darkreader-inline-fill:#108abd" transform="translate(-100.613 -76.824)" data-name="Path 4152"/><g data-name="Group 4743"><path d="M275.825 205.212c.259.661 2.083.563 4.073-.219 1.99-.78 3.394-1.95 3.134-2.61-.26-.661-2.083-.563-4.073.218-1.99.782-3.394 1.95-3.134 2.611Z" fill="#ea7c6f" fill-rule="evenodd" style="--darkreader-inline-fill:#f68174" transform="translate(-173.59 -127.108)" data-name="Path 4153"/><path d="M212.995 203.337c-.262.659 1.136 1.834 3.123 2.625 1.987.79 3.81.896 4.072.237.263-.66-1.135-1.835-3.122-2.626-1.987-.79-3.81-.896-4.073-.236Z" fill="#ea7c6f" fill-rule="evenodd" style="--darkreader-inline-fill:#f68174" transform="translate(-134.044 -127.712)" data-name="Path 4154"/></g><path d="M247.759 266.048c-6.164.865-11.93.095-17.974-1.143-.594-.122-.82.682-.258.9 4.52 1.747 9.519 2.231 14.391 1.98a50.574 50.574 0 0 1-16.799 3.75c-.735.035-.753 1.182-.012 1.148 7.367-.34 14.543-2.118 21.175-5.357.768-.374.196-1.38-.523-1.278Z" fill="#0782b7" fill-rule="evenodd" style="--darkreader-inline-fill:#52cfff" transform="translate(-142.602 -166.73)" data-name="Path 4155"/><path d="M263.358 284.931c-1.005.183-1.95.651-2.942.907-1.12.29-2.25.487-3.406.577-.3.024-.315.487-.004.477 2.119-.068 4.797-.312 6.535-1.639.167-.127-.017-.352-.183-.322Z" fill="#0782b7" fill-rule="evenodd" style="--darkreader-inline-fill:#52cfff" transform="translate(-161.622 -179.34)" data-name="Path 4156"/><path d="M215.933 323.585c-3.902-.413-7.348-.921-10.472-3.556-2.212-1.866-3.681-4.453-5.97-6.241-5.067-3.958-13.832-3.381-15.605-10.836-.046-.192-.344-.155-.344.043.012 7.715 10.642 8.138 15.179 11.727 2.956 2.338 4.688 5.812 7.992 7.793 2.696 1.617 6.207 2.659 9.336 1.998.555-.117.382-.876-.116-.928Z" fill="#0782b7" fill-rule="evenodd" style="--darkreader-inline-fill:#066d99" transform="translate(-115.525 -190.605)" data-name="Path 4157"/><path d="M177.249 135.067s-.704 19.338 0 23.152c.708 3.813 10.42 15.907 10.29 17.679-.103 1.36-17.802 9.209-26.11 12.822a98.823 98.823 0 0 1-1.579-2.739c5.655-2.398 18.78-7.952 24.57-10.402 0 0-5.526-9.68-6.856-12.47-1.33-2.798-3.947-26.13-1.58-31.006 7.064-10.895 25.304-14.653 34.439-2.494 0 0-23.084-14.282-33.174 5.458Z" fill="#603d39" fill-rule="evenodd" style="--darkreader-inline-fill:#513330" transform="translate(-100.613 -76.824)" data-name="Path 4158"/></g><g data-name="Group 4745"><path d="M352.323 318.51c-4.766 3.784-19.218-7.756-20.011-12.184v-.004c-.793-4.454 1.775-50.836 1.775-50.836l11.302-7.43 3.677-2.416s11.358 43.991 11.517 48.123c.16 4.128-3.494 20.964-8.26 24.747Z" fill="#fe7f54" fill-rule="evenodd" style="--darkreader-inline-fill:#a12901" transform="translate(-209.069 -154.611)" data-name="Path 4159"/><path d="M352.581 318.51c-4.765 3.784-19.218-7.756-20.011-12.184v-.004c5.903 1.497 12.18 3.265 14.512 4.517 4.865 2.61 8.36-6.54 9.416-12.503 1-5.647-9.713-46.026-10.85-50.28l3.676-2.416s11.358 43.991 11.517 48.123c.16 4.128-3.494 20.964-8.26 24.747Z" fill="#e36c44" fill-rule="evenodd" style="--darkreader-inline-fill:#a53c18" transform="translate(-209.327 -154.611)" data-name="Path 4160"/></g><g data-name="Group 4746"><path d="M0 0h65.343v40.24H0V0z" fill="#f7e4d9" fill-rule="evenodd" style="--darkreader-inline-fill:#44220f" transform="translate(61.02 133.544)" data-name="Rectangle 1325"/><path d="M247.689 407.628a3.035 3.035 0 0 1-3.035-3.035c0-.698.245-1.334.642-1.847-.212-.028-.422-.064-.642-.064a4.813 4.813 0 1 0 4.812 4.813c0-.143-.03-.277-.041-.417-.493.344-1.09.55-1.736.55Z" fill="#c96a50" fill-rule="evenodd" style="--darkreader-inline-fill:#d77c63" transform="translate(-150.961 -253.457)" data-name="Path 4161"/></g><path d="M195.897 449.21c.05.117-.027.263-.242.458-1.966 1.797-16.44 8.887-16.44 8.887s-1.57.144-3.797.398c-2.226.244-5.118.6-7.78 1.013-.548.093-1.087.175-1.605.258-.232.047-.454.084-.676.121-.264.047-.518.105-.772.152-.855.159-2.09.32-2.894.491.42-3.22.234-6.614-.445-9.607 1.364-1.21 3.603-2.497 4.717-3.355 2.871-2.25 5.467-3.475 6.56-3.461 2.063.015 10.756-2.787 10.567-1.855-.2.932-1.135 2.722-2.618 3.13-1.482.408-7.047 2.144-7.615 3.973-.556 1.819 11.213 2.117 13.11 1.056 1.685-.952 9.582-2.572 9.93-1.659Z" fill="#f3a080" fill-rule="evenodd" style="--darkreader-inline-fill:#812d0d" transform="translate(-101.492 -278.532)" data-name="Path 4162"/><path d="m149.57 462.142 6.354-2.859s11.514 9.926 11.594 14.056l.079 4.128-20.171 3.807 2.145-19.132Z" fill="#e36c44" fill-rule="evenodd" style="--darkreader-inline-fill:#f07b54" transform="translate(-92.793 -289.083)" data-name="Path 4163"/><g data-name="Group 4747"><path d="M213.836 213.838c0 .133-.01.263-.037.389a2.278 2.278 0 0 1-2.246 1.897 2.285 2.285 0 0 1-2.286-2.286c0-.882.5-1.646 1.234-2.024a2.284 2.284 0 0 1 3.335 2.023Z" fill="#fff" fill-rule="evenodd" style="--darkreader-inline-fill:#f4f2ee" transform="translate(-131.717 -133.157)" data-name="Path 4164"/><path d="M213.8 214.667a2.278 2.278 0 0 1-2.247 1.898 2.285 2.285 0 0 1-2.286-2.287c0-.882.5-1.645 1.234-2.023.456 1.141 1.453 2.794 3.298 2.412Z" fill="#e8e8e8" fill-rule="evenodd" style="--darkreader-inline-fill:#e4e1db" transform="translate(-131.717 -133.598)" data-name="Path 4165"/></g><g data-name="Group 4748"><path d="M292.362 213.838c0 .133-.01.263-.037.389a2.278 2.278 0 0 1-2.246 1.897 2.285 2.285 0 0 1-2.286-2.286c0-.882.5-1.646 1.234-2.024a2.284 2.284 0 0 1 3.335 2.023Z" fill="#fff" fill-rule="evenodd" style="--darkreader-inline-fill:#f4f2ee" transform="translate(-181.143 -133.157)" data-name="Path 4166"/><path d="M292.325 214.667a2.278 2.278 0 0 1-2.246 1.898 2.285 2.285 0 0 1-2.286-2.287c0-.882.5-1.645 1.234-2.023.456 1.141 1.453 2.794 3.298 2.412Z" fill="#e8e8e8" fill-rule="evenodd" style="--darkreader-inline-fill:#e4e1db" transform="translate(-181.143 -133.598)" data-name="Path 4167"/></g></g><g data-name="Group 4771"><path d="m324.9 293.967 12.652 54.962s-21.948-6.56-24.434-14.675c-2.486-8.114 3.05-34.183 3.05-34.183l8.732-6.104Z" fill="#77714a" fill-rule="evenodd" style="--darkreader-inline-fill:#645f3e" transform="translate(-193.68 -185.03)" data-name="Path 4113"/><g data-name="Group 4727"><g data-name="Group 4721"><g data-name="Group 4720"><g data-name="Group 4719"><g data-name="Group 4718"><path d="M312.348 205.905c.738 1.255.62 2.817.471 4.264-.263 2.64-.262 5.4-.529 8.036l2.898 6.508-7.463 1.674-2.193.493-2.755-6.363c-3.494-1.666-6.915-3.841-9.492-6.73-1.04-1.165-1.894-2.501-3.056-3.544-1.486-1.326-3.376-2.1-5.007-3.247-.375-.262-.759-.582-.865-1.027-.137-.57.252-1.167.773-1.44.517-.274 1.133-.293 1.719-.264.063.003.132.006.195.015a12.382 12.382 0 0 1 7.29 3.026c.26.226.533.476.875.519.304.033.602-.107.87-.265 1.619-.969 2.684-2.668 3.344-4.438.275-.736.524-1.54 1.144-2.018.906-.692 2.197-.412 3.277-.048a33.461 33.461 0 0 1 6.113 2.782c.92.534 1.85 1.15 2.391 2.067Z" fill="#ea7c6f" fill-rule="evenodd" style="--darkreader-inline-fill:#f68174" transform="translate(-175.963 -126.312)" data-name="Path 4114"/><path d="m309.366 224.773 2.312 6.8-6.146 1.38-2.755-6.364c-3.494-1.665-6.915-3.84-9.492-6.73-1.04-1.165-1.894-2.5-3.056-3.544-1.486-1.326-3.376-2.1-5.007-3.246-.375-.263-.759-.582-.865-1.027-.137-.571.252-1.168.773-1.44.517-.275 1.133-.294 1.719-.265.063.003.132.006.195.016-.262.272-.596.49-.714.842-.312.909.89 1.51 1.766 1.897 2.091.928 3.473 2.915 5.006 4.614 2.949 3.267 12.05 5.793 16.264 7.067Z" fill="#f3a080" fill-rule="evenodd" style="--darkreader-inline-fill:#fea27e" transform="translate(-175.963 -132.385)" data-name="Path 4115"/><path d="M329.337 223.681c1.894.852 3.521 2.238 4.818 3.86-.82-1.861-2.037-3.604-3.746-4.707-1.71-1.103-3.961-1.48-5.82-.653-.336.15-.755.341-.973.604.665.331 1.97-.025 2.75.067 1.025.12 2.03.406 2.97.829Z" fill="#b54b57" fill-rule="evenodd" style="--darkreader-inline-fill:#c5626d" transform="translate(-200.691 -139.564)" data-name="Path 4116"/></g></g></g></g><path d="M3.998 0h6.282a3.998 3.998 0 0 1 3.999 3.998v15.647a3.998 3.998 0 0 1-3.999 3.999H3.998A3.998 3.998 0 0 1 0 19.645V3.998A3.998 3.998 0 0 1 3.998 0z" fill="#1c192c" fill-rule="evenodd" style="--darkreader-inline-fill:#ddd8d2" transform="rotate(-50.433 135.918 -76.54)" data-name="Rectangle 1323"/><path d="M2.637 0h6.451a2.637 2.637 0 0 1 2.637 2.637v15.768a2.637 2.637 0 0 1-2.637 2.637H2.637A2.637 2.637 0 0 1 0 18.405V2.637A2.637 2.637 0 0 1 2.637 0z" fill="#d8c4b4" fill-rule="evenodd" style="--darkreader-inline-fill:#ddc4b1" transform="rotate(-50.433 136.661 -78.546)" data-name="Rectangle 1324"/><g data-name="Group 4726"><path d="M335.219 202.048c-.553 3.216-3.361 6.073-3.361 6.073-.706-.083-1.465-.317-2.236-.658a11.68 11.68 0 0 1-.984-.472 21.109 21.109 0 0 1-2.185-1.355 25.531 25.531 0 0 1-.942-.676c-.82-.621-1.609-1.27-2.325-1.9-.311-.264-.605-.53-.887-.783a58.182 58.182 0 0 1-1.871-1.798c-.548-.552-.869-.898-.869-.898 1.344-2.672 5.302-5.271 5.302-5.271 1.117.244 2.212.707 3.237 1.293 4.04 2.291 7.12 6.445 7.12 6.445Z" fill="#f3a080" fill-rule="evenodd" style="--darkreader-inline-fill:#fea27e" transform="translate(-198.138 -122.303)" data-name="Path 4117"/><g data-name="Group 4725"><g data-name="Group 4722"><path d="M330.32 206.686s-.161.387-.436.942a18.006 18.006 0 0 1-1.145 2.018c-.298.446-.609.851-.898 1.205-.312-.266-.605-.53-.887-.784.142-.393.342-.807.607-1.208a5.887 5.887 0 0 1 1.808-1.713c.553-.335.95-.46.95-.46Z" fill="#b54b57" fill-rule="evenodd" style="--darkreader-inline-fill:#c5626d" transform="translate(-202.792 -130.093)" data-name="Path 4118"/></g><g data-name="Group 4723"><path d="M338.749 213.98s-.121.384-.348.927c-.23.546-.554 1.257-1.006 1.97-.27.423-.561.804-.833 1.14a25.537 25.537 0 0 1-.941-.676c.13-.393.315-.816.577-1.227a5.726 5.726 0 0 1 1.66-1.662c.518-.335.891-.472.891-.472Z" fill="#b54b57" fill-rule="evenodd" style="--darkreader-inline-fill:#c5626d" transform="translate(-208.247 -134.684)" data-name="Path 4119"/></g><g data-name="Group 4724"><path d="M347.428 218.198s-.12.402-.36.98c-.245.58-.595 1.336-1.09 2.091-.302.462-.628.875-.935 1.23a11.694 11.694 0 0 1-.984-.473c.157-.48.394-1.013.734-1.532a6.62 6.62 0 0 1 1.724-1.761c.53-.371.911-.535.911-.535Z" fill="#b54b57" fill-rule="evenodd" style="--darkreader-inline-fill:#c5626d" transform="translate(-213.558 -137.339)" data-name="Path 4120"/></g></g><path d="M328.098 195.603c-1.003.074-1.989.246-2.891.676-.828.39-1.54.98-2.225 1.582-.783.689-1.65 1.395-2.304 2.213a2.593 2.593 0 0 0-.25.405c-.548-.552-.869-.898-.869-.898 1.344-2.672 5.302-5.271 5.302-5.271 1.117.244 2.212.707 3.237 1.293Z" fill="#f8bf92" fill-rule="evenodd" style="--darkreader-inline-fill:#ffbf8a" transform="translate(-198.138 -122.303)" data-name="Path 4121"/></g></g><g data-name="Group 4728"><path d="m232.102 307.703 3.603-19.9-5.41-1.474-22.947 4.423-24.829-4.405-5.586 2.052 3.309 20.072 1.48 53.992s15.29 9.077 24.75 9.177c9.46.1 23.362-7.49 23.362-7.49l2.268-56.447Z" fill="#e36c44" fill-rule="evenodd" style="--darkreader-inline-fill:#a53c18" transform="translate(-108.366 -180.222)" data-name="Path 4122"/><path d="m227.923 548.083-69.953-.738c1.55-15.265 3.57-33.902 4.548-37.699 1.436-5.594 5.615-14.45 6.89-17.093.239-.499.378-.775.378-.775l4.41.155 4.54.157 7.654.272 2.766.094 5.754.202 11.738.407 3.359.123 3.364.117.55.017.74.024 3.24.116s5.143 9.105 6.715 14.993c.917 3.435 2.306 23.508 3.307 39.628Z" fill="#77714a" fill-rule="evenodd" style="--darkreader-inline-fill:#645f3e" transform="translate(-96.43 -309.536)" data-name="Path 4123"/></g><path d="M175.216 333.93c-.4-.508-1.248.138-.902.68 2.334 3.67 4.113 7.453 4.665 11.809.042.336.615.264.594-.074-.274-4.502-1.526-8.833-4.357-12.416Z" fill="#686235" fill-rule="evenodd" style="--darkreader-inline-fill:#d3cd9b" transform="translate(-106.666 -210.067)" data-name="Path 4124"/><path d="M172.63 345.874c-.193-.685-.792-1.29-1.226-1.847-.47-.604-.905-1.333-1.52-1.797-.069-.052-.169.032-.145.109.228.74.771 1.402 1.182 2.053.38.603.738 1.35 1.325 1.771.187.135.443-.082.385-.289Z" fill="#686235" fill-rule="evenodd" style="--darkreader-inline-fill:#d3cd9b" transform="translate(-103.835 -215.397)" data-name="Path 4125"/><path d="M321.791 357.684c.06-.49-.659-.527-.81-.119-1.059 2.876-1.63 7.75-.056 10.513.028.05.12.047.132-.016.31-1.568-.008-3.242.046-4.844.063-1.875.465-3.682.688-5.534Z" fill="#686235" fill-rule="evenodd" style="--darkreader-inline-fill:#d3cd9b" transform="translate(-198.385 -224.883)" data-name="Path 4126"/><path d="M203.795 463.833c-2.523-3.201-5.71-5.946-8.427-8.991-.202-.226-.62.076-.432.325 2.443 3.239 4.943 6.821 8.118 9.393.52.42 1.159-.197.741-.727Z" fill="#686235" fill-rule="evenodd" style="--darkreader-inline-fill:#d3cd9b" transform="translate(-119.667 -286.238)" data-name="Path 4127"/><path d="M295.558 442.386c-2.378 2.177-4.382 4.838-6.579 7.203-1.97 2.121-4.209 4.163-5.845 6.557-.07.103.068.247.173.176 2.541-1.704 4.655-4.156 6.737-6.38 2.107-2.251 4.423-4.494 6.137-7.065.259-.389-.297-.79-.623-.491Z" fill="#686235" fill-rule="evenodd" style="--darkreader-inline-fill:#d3cd9b" transform="translate(-175.199 -278.382)" data-name="Path 4128"/><path d="M306.13 490.338c-1.233.361-2.347 1.274-3.366 2.03-.94.698-2.065 1.346-2.792 2.274-.109.138.067.36.227.302 1.22-.44 2.282-1.414 3.333-2.157.942-.665 2.015-1.394 2.673-2.349.034-.049-.02-.116-.076-.1Z" fill="#686235" fill-rule="evenodd" style="--darkreader-inline-fill:#d3cd9b" transform="translate(-185.788 -308.628)" data-name="Path 4129"/><path d="M186.412 520.82c-1.7.81-2.81 2.722-3.759 4.277-.93 1.523-2.352 3.552-2.298 5.396.014.477.611.781.97.413 1.275-1.311 1.752-3.418 2.64-5.024.878-1.59 2.215-3.123 2.646-4.907.029-.12-.091-.207-.199-.156Z" fill="#686235" fill-rule="evenodd" style="--darkreader-inline-fill:#d3cd9b" transform="translate(-110.519 -327.806)" data-name="Path 4130"/><path d="M190.368 540.106c-.873.705-1.428 1.841-1.891 2.843-.434.938-.993 2.063-.962 3.11.016.54.717.75 1.012.285.539-.848.73-1.959 1.096-2.897.395-1.01.99-1.995 1.226-3.055.065-.293-.256-.468-.481-.286Z" fill="#686235" fill-rule="evenodd" style="--darkreader-inline-fill:#d3cd9b" transform="translate(-115.025 -339.908)" data-name="Path 4131"/><path d="m268.762 618.119-6.202-.065a64.699 64.699 0 0 1-3.92-1.11 73.735 73.735 0 0 1-7.903-3.078c-5.648-2.581-10.852-5.926-15.59-9.94-.373-.32.145-.968.535-.676 6.451 4.845 13.56 8.835 21.194 11.503 3.598 1.258 7.316 1.89 10.948 2.98.315.096.635.225.938.386Z" fill="#686235" fill-rule="evenodd" style="--darkreader-inline-fill:#57522c" transform="translate(-144.926 -379.653)" data-name="Path 4132"/><g data-name="Group 4729"><path d="M118.474 428.982c5.078 1.736 15.584-2.788 15.584-2.788l4.376-11.633-.434-3.563-3.019-24.706-4.191-1.2-5.64-1.616s-11.754 43.78-6.676 45.506Z" fill="#f3a080" fill-rule="evenodd" style="--darkreader-inline-fill:#812d0d" transform="translate(-70.769 -241.368)" data-name="Path 4133"/><path d="M142.037 418.34c2.696-1.108 7.21-.581 7.21-.581l4.385-4.016-3.019-24.706-4.191-1.2.074 25.85c-1.2.6-4.265 4.413-4.459 4.653Z" fill="#ea7c6f" fill-rule="evenodd" style="--darkreader-inline-fill:#f68174" transform="translate(-86.401 -244.113)" data-name="Path 4134"/></g><path d="M130.243 297.637s-7.422 23.399-10.043 33.426c-2.62 10.027-11.165 47.139-7.607 49.275 3.557 2.136 29.96-4.765 29.96-4.765l-.856-16.953-1.878-56.239-9.576-4.744Z" fill="#fe7f54" fill-rule="evenodd" style="--darkreader-inline-fill:#a12901" transform="translate(-67.331 -187.34)" data-name="Path 4135"/><g data-name="Group 4744"><g data-name="Group 4730"><path d="m253.133 252.11-5.636 2.098-7.1-2.231c.321-1.8.428-4.174.43-6.464.012-4.001-.28-7.751-.28-7.751l11.136-1.513c-.1 1.418.243 5.233.62 8.764.396 3.704.83 7.098.83 7.098Z" fill="#f3a080" fill-rule="evenodd" style="--darkreader-inline-fill:#fea27e" transform="translate(-148.311 -148.7)" data-name="Path 4136"/><path d="M252.557 245.013c-1.551 1.144-3.197 2.273-5.101 2.512-2.233.283-4.386-.753-6.373-2.012.011-4.001-.281-7.751-.281-7.751l11.136-1.513c-.101 1.418.243 5.233.62 8.764Z" fill="#ea7c6f" fill-rule="evenodd" style="--darkreader-inline-fill:#f68174" transform="translate(-148.566 -148.7)" data-name="Path 4137"/></g><g data-name="Group 4742"><g data-name="Group 4741"><g data-name="Group 4739"><g data-name="Group 4737"><path d="M213.833 158.069s.574 10.124 3.32 13.84c2.301 3.111 5.573 8.074 10.707 9.7 1.002.317 2.087.3 3.08-.05 5.078-1.789 8.19-6.853 10.39-10.036 2.626-3.802 2.877-13.94 2.877-13.94.012-.674.007-1.323-.013-1.952v-.02c-.612-19.173-15.496-17.885-15.496-17.885s-14.676.37-14.868 19.348c-.004.327-.003.657.003.995Z" fill="#f8bf92" fill-rule="evenodd" style="--darkreader-inline-fill:#773907" transform="translate(-131.588 -86.677)" data-name="Path 4138"/><path d="M212.493 157.089c.114 1.619.83 10.215 3.353 13.573 2.338 3.11 5.662 8.073 10.88 9.697 1.018.317 2.121.3 3.13-.05 5.162-1.79 8.326-6.856 10.563-10.039 2.67-3.802 2.928-13.94 2.928-13.94.005-.235.007-.464.007-.693v-.02c-.617-19.172-15.745-17.88-15.745-17.88s-14.917.374-15.116 19.352Z" fill="#f3a080" fill-rule="evenodd" style="--darkreader-inline-fill:#812d0d" transform="translate(-130.748 -86.683)" data-name="Path 4139"/><path d="M240.682 151.594c-3.82-5.92-10.956-9.534-17.988-9.113-4.288.256-8.437 2.009-11.715 4.766-.996.838-4.141 3.386-4.177 4.826-.067 2.693 2.915.403 4.489-.188 9.35-3.51 19.977-3.654 29.39-.29Z" fill="#0782b7" fill-rule="evenodd" style="--darkreader-inline-fill:#066d99" transform="translate(-127.165 -89.66)" data-name="Path 4140"/><g data-name="Group 4732"><path d="M251.333 211.557a2.643 2.643 0 0 1 2.35 1.335c.057.103.108.22.083.335-.038.173-.224.264-.39.325a8.917 8.917 0 0 1-3.68.517c-2.245-.16.536-2.475 1.637-2.512Z" fill="#ea7c6f" fill-rule="evenodd" style="--darkreader-inline-fill:#f68174" transform="translate(-153.629 -133.158)" data-name="Path 4141"/><g data-name="Group 4731"><path d="M251.384 201.359s-.005-.136-.003-.374a9.735 9.735 0 0 0 0-.432c-.004-.167.002-.355-.008-.564-.004-.207-.006-.432-.019-.674-.004-.24-.024-.496-.033-.763a82.685 82.685 0 0 0-.125-1.725 82.53 82.53 0 0 0-.174-1.72c-.037-.266-.061-.521-.099-.759-.03-.24-.065-.462-.097-.667-.027-.207-.065-.392-.09-.557a10.557 10.557 0 0 0-.074-.425c-.043-.235-.062-.369-.062-.369a8.4 8.4 0 0 0 .476.66c.091.146.199.312.297.504.103.19.212.402.31.638.107.233.198.49.29.762a8.66 8.66 0 0 1 .375 1.833 8.68 8.68 0 0 1-.053 1.87 8.396 8.396 0 0 1-.35 1.482c-.064.207-.142.388-.206.547a4.547 4.547 0 0 1-.182.4c-.108.217-.173.333-.173.333Z" fill="#dd5b67" fill-rule="evenodd" style="--darkreader-inline-fill:#e96772" transform="translate(-154.733 -121.057)" data-name="Path 4142"/></g></g><g data-name="Group 4736"><g data-name="Group 4735"><g data-name="Group 4733"><path d="M276.47 186.263c-.227.63-1.028 1.137-1.59 1.426-.3-.327-.66-.518-1.045-.508-.982.023-1.749 1.32-1.712 2.898.037 1.578.863 2.838 1.846 2.815.982-.023 1.75-1.32 1.712-2.898a4.285 4.285 0 0 0-.243-1.346c.735-.677 1.032-2.387 1.032-2.387Z" fill="#2a2b2b" fill-rule="evenodd" style="--darkreader-inline-fill:#d7d3cc" transform="translate(-168.28 -117.238)" data-name="Path 4143"/><path d="M276.698 194.873s1.104.368 2.224.027c1.119-.341 1.829-1.263 1.829-1.263s-1.104-.37-2.223-.028c-1.12.341-1.83 1.264-1.83 1.264Z" fill="#fef1e8" fill-rule="evenodd" style="--darkreader-inline-fill:#ffe2c8" transform="translate(-171.16 -121.77)" data-name="Path 4144"/></g><g data-name="Group 4734"><path d="M226.993 187.172c.247.622 1.064 1.103 1.636 1.374.288-.336.642-.538 1.027-.541.983-.009 1.791 1.264 1.804 2.842.014 1.578-.772 2.865-1.755 2.873-.983.008-1.79-1.264-1.804-2.843-.004-.488.069-.949.2-1.352-.756-.653-1.108-2.353-1.108-2.353Z" fill="#2a2b2b" fill-rule="evenodd" style="--darkreader-inline-fill:#d7d3cc" transform="translate(-139.875 -117.81)" data-name="Path 4145"/><path d="M227.553 195.699s-1.092.404-2.221.099c-1.13-.305-1.869-1.205-1.869-1.205s1.092-.404 2.221-.099c1.13.306 1.87 1.205 1.87 1.205Z" fill="#fef1e8" fill-rule="evenodd" style="--darkreader-inline-fill:#ffe2c8" transform="translate(-137.653 -122.347)" data-name="Path 4146"/></g></g></g></g><g data-name="Group 4738"><path d="M238.281 226.184s6.54-4.096 13.345-1.27c0 0-2.467 5.765-5.934 6.003-4.207.29-7.411-4.733-7.411-4.733Z" fill="#7a2626" fill-rule="evenodd" style="--darkreader-inline-fill:#e38a8a" transform="translate(-146.98 -140.94)" data-name="Path 4147"/><path d="M239.377 228.077s4.607-1.773 12.55-1.256c0 0-1.418 4.56-5.993 4.789-4.575.229-6.557-3.533-6.557-3.533Z" fill="#fff" fill-rule="evenodd" style="--darkreader-inline-fill:#f4f2ee" transform="translate(-147.67 -142.707)" data-name="Path 4148"/></g></g><g data-name="Group 4740"><path d="M274.767 175.777s-6.222-5.44-8.748-3.98c-1.475.853-.442 1.636-.442 1.636l9.19 2.344Z" fill="#44413d" fill-rule="evenodd" style="--darkreader-inline-fill:#c9c3ba" transform="translate(-163.939 -107.976)" data-name="Path 4149"/><path d="M217.757 174.863s7.232-4.001 9.392-2.04c1.261 1.146.086 1.693.086 1.693l-9.478.347Z" fill="#44413d" fill-rule="evenodd" style="--darkreader-inline-fill:#c9c3ba" transform="translate(-134.061 -108.438)" data-name="Path 4150"/></g></g></g><path d="M240.146 272.187s-.196.584-.594 1.529c-1.724 4.052-7.261 14.773-17.579 14.665-10.046-.106-17.83-10.14-20.662-14.353a30.406 30.406 0 0 1-1.158-1.832l15.296-4.258 11.87.125 12.827 4.124Z" fill="#f3a080" fill-rule="evenodd" style="--darkreader-inline-fill:#812d0d" transform="translate(-122.98 -168.646)" data-name="Path 4151"/><path d="M205.527 172.092s6.9-9.872 7.212-13.637c.315-3.765 1.805-22.268-2.316-28.846-9.135-12.159-27.375-8.401-34.438 2.494-2.368 4.877.248 28.208 1.579 31.006 1.33 2.79 6.855 12.47 6.855 12.47-5.788 2.45-18.914 8.004-24.569 10.402a98.842 98.842 0 0 0 1.579 2.739c10.15 16.89 12.644 6.815 21.975 18.617 9.994 17.129 29.598 11.388 38.225-4.572 3.005-6.348 2.653-13.786 7.204-17.003l-23.306-13.67Zm-4.328-3.135c-5.21 3.076-6.348 3.69-10.647.993-3.531-2.968-6.878-6.44-9.253-12.355 0 0-.007 0-.007-.008-8.824-28.686 21.39-35.004 27.841-18.484 1.145 6.822.341 24.625-7.934 29.854Z" fill="#22b0ec" fill-rule="evenodd" style="--darkreader-inline-fill:#108abd" transform="translate(-97.613 -76.824)" data-name="Path 4152"/><g data-name="Group 4743"><path d="M275.825 205.212c.259.661 2.083.563 4.073-.219 1.99-.78 3.394-1.95 3.134-2.61-.26-.661-2.083-.563-4.073.218-1.99.782-3.394 1.95-3.134 2.611Z" fill="#ea7c6f" fill-rule="evenodd" style="--darkreader-inline-fill:#f68174" transform="translate(-170.59 -127.108)" data-name="Path 4153"/><path d="M212.995 203.337c-.262.659 1.136 1.834 3.123 2.625 1.987.79 3.81.896 4.072.237.263-.66-1.135-1.835-3.122-2.626-1.987-.79-3.81-.896-4.073-.236Z" fill="#ea7c6f" fill-rule="evenodd" style="--darkreader-inline-fill:#f68174" transform="translate(-131.044 -127.712)" data-name="Path 4154"/></g><path d="M247.759 266.048c-6.164.865-11.93.095-17.974-1.143-.594-.122-.82.682-.258.9 4.52 1.747 9.519 2.231 14.391 1.98a50.574 50.574 0 0 1-16.799 3.75c-.735.035-.753 1.182-.012 1.148 7.367-.34 14.543-2.118 21.175-5.357.768-.374.196-1.38-.523-1.278Z" fill="#0782b7" fill-rule="evenodd" style="--darkreader-inline-fill:#52cfff" transform="translate(-139.602 -166.73)" data-name="Path 4155"/><path d="M263.358 284.931c-1.005.183-1.95.651-2.942.907-1.12.29-2.25.487-3.406.577-.3.024-.315.487-.004.477 2.119-.068 4.797-.312 6.535-1.639.167-.127-.017-.352-.183-.322Z" fill="#0782b7" fill-rule="evenodd" style="--darkreader-inline-fill:#52cfff" transform="translate(-158.622 -179.34)" data-name="Path 4156"/><path d="M215.933 323.585c-3.902-.413-7.348-.921-10.472-3.556-2.212-1.866-3.681-4.453-5.97-6.241-5.067-3.958-13.832-3.381-15.605-10.836-.046-.192-.344-.155-.344.043.012 7.715 10.642 8.138 15.179 11.727 2.956 2.338 4.688 5.812 7.992 7.793 2.696 1.617 6.207 2.659 9.336 1.998.555-.117.382-.876-.116-.928Z" fill="#0782b7" fill-rule="evenodd" style="--darkreader-inline-fill:#066d99" transform="translate(-112.525 -190.605)" data-name="Path 4157"/><path d="M177.249 135.067s-.704 19.338 0 23.152c.708 3.813 10.42 15.907 10.29 17.679-.103 1.36-17.802 9.209-26.11 12.822a98.823 98.823 0 0 1-1.579-2.739c5.655-2.398 18.78-7.952 24.57-10.402 0 0-5.526-9.68-6.856-12.47-1.33-2.798-3.947-26.13-1.58-31.006 7.064-10.895 25.304-14.653 34.439-2.494 0 0-23.084-14.282-33.174 5.458Z" fill="#603d39" fill-rule="evenodd" style="--darkreader-inline-fill:#513330" transform="translate(-97.613 -76.824)" data-name="Path 4158"/></g><g data-name="Group 4745"><path d="M352.323 318.51c-4.766 3.784-19.218-7.756-20.011-12.184v-.004c-.793-4.454 1.775-50.836 1.775-50.836l11.302-7.43 3.677-2.416s11.358 43.991 11.517 48.123c.16 4.128-3.494 20.964-8.26 24.747Z" fill="#fe7f54" fill-rule="evenodd" style="--darkreader-inline-fill:#a12901" transform="translate(-206.069 -154.611)" data-name="Path 4159"/><path d="M352.581 318.51c-4.765 3.784-19.218-7.756-20.011-12.184v-.004c5.903 1.497 12.18 3.265 14.512 4.517 4.865 2.61 8.36-6.54 9.416-12.503 1-5.647-9.713-46.026-10.85-50.28l3.676-2.416s11.358 43.991 11.517 48.123c.16 4.128-3.494 20.964-8.26 24.747Z" fill="#e36c44" fill-rule="evenodd" style="--darkreader-inline-fill:#a53c18" transform="translate(-206.327 -154.611)" data-name="Path 4160"/></g><g data-name="Group 4746"><path d="M0 0h65.343v40.24H0V0z" fill="#f7e4d9" fill-rule="evenodd" style="--darkreader-inline-fill:#44220f" transform="translate(64.02 133.544)" data-name="Rectangle 1325"/><path d="M247.689 407.628a3.035 3.035 0 0 1-3.035-3.035c0-.698.245-1.334.642-1.847-.212-.028-.422-.064-.642-.064a4.813 4.813 0 1 0 4.812 4.813c0-.143-.03-.277-.041-.417-.493.344-1.09.55-1.736.55Z" fill="#c96a50" fill-rule="evenodd" style="--darkreader-inline-fill:#d77c63" transform="translate(-147.961 -253.457)" data-name="Path 4161"/></g><path d="M195.897 449.21c.05.117-.027.263-.242.458-1.966 1.797-16.44 8.887-16.44 8.887s-1.57.144-3.797.398c-2.226.244-5.118.6-7.78 1.013-.548.093-1.087.175-1.605.258-.232.047-.454.084-.676.121-.264.047-.518.105-.772.152-.855.159-2.09.32-2.894.491.42-3.22.234-6.614-.445-9.607 1.364-1.21 3.603-2.497 4.717-3.355 2.871-2.25 5.467-3.475 6.56-3.461 2.063.015 10.756-2.787 10.567-1.855-.2.932-1.135 2.722-2.618 3.13-1.482.408-7.047 2.144-7.615 3.973-.556 1.819 11.213 2.117 13.11 1.056 1.685-.952 9.582-2.572 9.93-1.659Z" fill="#f3a080" fill-rule="evenodd" style="--darkreader-inline-fill:#812d0d" transform="translate(-98.492 -278.532)" data-name="Path 4162"/><path d="m149.57 462.142 6.354-2.859s11.514 9.926 11.594 14.056l.079 4.128-20.171 3.807 2.145-19.132Z" fill="#e36c44" fill-rule="evenodd" style="--darkreader-inline-fill:#f07b54" transform="translate(-89.793 -289.083)" data-name="Path 4163"/><g data-name="Group 4747"><path d="M213.836 213.838c0 .133-.01.263-.037.389a2.278 2.278 0 0 1-2.246 1.897 2.285 2.285 0 0 1-2.286-2.286c0-.882.5-1.646 1.234-2.024a2.284 2.284 0 0 1 3.335 2.023Z" fill="#fff" fill-rule="evenodd" style="--darkreader-inline-fill:#f4f2ee" transform="translate(-128.717 -133.157)" data-name="Path 4164"/><path d="M213.8 214.667a2.278 2.278 0 0 1-2.247 1.898 2.285 2.285 0 0 1-2.286-2.287c0-.882.5-1.645 1.234-2.023.456 1.141 1.453 2.794 3.298 2.412Z" fill="#e8e8e8" fill-rule="evenodd" style="--darkreader-inline-fill:#e4e1db" transform="translate(-128.717 -133.598)" data-name="Path 4165"/></g><g data-name="Group 4748"><path d="M292.362 213.838c0 .133-.01.263-.037.389a2.278 2.278 0 0 1-2.246 1.897 2.285 2.285 0 0 1-2.286-2.286c0-.882.5-1.646 1.234-2.024a2.284 2.284 0 0 1 3.335 2.023Z" fill="#fff" fill-rule="evenodd" style="--darkreader-inline-fill:#f4f2ee" transform="translate(-178.143 -133.157)" data-name="Path 4166"/><path d="M292.325 214.667a2.278 2.278 0 0 1-2.246 1.898 2.285 2.285 0 0 1-2.286-2.287c0-.882.5-1.645 1.234-2.023.456 1.141 1.453 2.794 3.298 2.412Z" fill="#e8e8e8" fill-rule="evenodd" style="--darkreader-inline-fill:#e4e1db" transform="translate(-178.143 -133.598)" data-name="Path 4167"/></g></g></g></g><g data-name="Group 4759"><g data-name="Group 4752"><path d="m154.414 75.824-.488-1.443-.487 1.443a7.812 7.812 0 0 1-3.653 4.354 7.814 7.814 0 0 1 3.653 4.355l.487 1.443.488-1.443a7.814 7.814 0 0 1 3.653-4.355 7.812 7.812 0 0 1-3.653-4.354Z" fill="#efe5dc" fill-rule="evenodd" style="--darkreader-inline-fill:#efdecd" transform="translate(117.848 93.183)" data-name="Path 4168"/></g><g data-name="Group 4753"><path d="m309.216 73.668-.488-1.443-.487 1.443a7.81 7.81 0 0 1-3.653 4.355 7.812 7.812 0 0 1 3.653 4.354l.487 1.443.488-1.443a7.814 7.814 0 0 1 3.653-4.354 7.812 7.812 0 0 1-3.653-4.355Z" fill="#fe7f54" fill-rule="evenodd" style="--darkreader-inline-fill:#ff8559" transform="translate(12.285 97.54)" data-name="Path 4169"/></g><g data-name="Group 4754"><path d="m441.933 272.847-.697-2.063-.696 2.063a11.163 11.163 0 0 1-5.22 6.221 11.165 11.165 0 0 1 5.22 6.222l.696 2.063.697-2.063a11.165 11.165 0 0 1 5.22-6.222 11.164 11.164 0 0 1-5.22-6.221Z" fill="#efe5dc" fill-rule="evenodd" style="--darkreader-inline-fill:#efdecd" transform="translate(-72 -47.438)" data-name="Path 4170"/></g><g data-name="Group 4755"><path d="m393.144 223.173-.297-.881-.298.88a4.767 4.767 0 0 1-2.229 2.658 4.767 4.767 0 0 1 2.229 2.656l.298.881.297-.88a4.765 4.765 0 0 1 2.229-2.657 4.765 4.765 0 0 1-2.229-2.657Z" fill="#603d39" fill-rule="evenodd" style="--darkreader-inline-fill:#cea8a4" transform="translate(-43.676 -16.916)" data-name="Path 4171"/></g><g data-name="Group 4756"><path d="m48.733 256.994-.576-1.704-.575 1.704a9.217 9.217 0 0 1-4.311 5.138 9.219 9.219 0 0 1 4.31 5.139l.576 1.703.576-1.703a9.22 9.22 0 0 1 4.31-5.139 9.218 9.218 0 0 1-4.31-5.138Z" fill="#fe7f54" fill-rule="evenodd" style="--darkreader-inline-fill:#ff8559" transform="translate(167.764 -38.685)" data-name="Path 4172"/></g><g data-name="Group 4757"><path d="m185.017 239.918-.397-1.177-.397 1.177a6.37 6.37 0 0 1-2.978 3.549 6.367 6.367 0 0 1 2.978 3.549l.397 1.177.397-1.177a6.367 6.367 0 0 1 2.978-3.55 6.37 6.37 0 0 1-2.978-3.548Z" fill="#603d39" fill-rule="evenodd" style="--darkreader-inline-fill:#cea8a4" transform="translate(87.92 -27.269)" data-name="Path 4173"/></g><g data-name="Group 4758"><path d="m113.715 334.869-.197-.583-.196.583a3.155 3.155 0 0 1-1.475 1.757 3.152 3.152 0 0 1 1.475 1.758l.196.582.197-.582c.254-.75.78-1.378 1.475-1.758a3.155 3.155 0 0 1-1.475-1.757Z" fill="#603d39" fill-rule="evenodd" style="--darkreader-inline-fill:#cea8a4" transform="translate(131.6 -87.407)" data-name="Path 4174"/></g></g><g data-name="Group 4767"><g data-name="Group 4761"><g data-name="Group 4760"><path d="m349.852 135.042-9.464-.747 6.996-4.944-3.869-9.813s7.398-19.934 9.983-19.465c2.585.47 22.774 5.223 23.909 7.285 1.135 2.063 6.472 23.095 5.835 25.456-.637 2.36-19.693 12.632-21.339 11.326-1.646-1.306-12.05-9.098-12.05-9.098Z" fill="#070707" fill-rule="evenodd" style="--darkreader-inline-fill:#050606" transform="translate(-8.248 63.017)" data-name="Path 4175"/><path d="m349.919 129.666-9.531 1.245 7.062-6.936-3.868-9.813s7.397-19.934 9.983-19.465c2.585.47 22.773 5.223 23.909 7.285 1.134 2.063 6.472 23.095 5.835 25.456-.637 2.36-19.694 12.632-21.34 11.326-1.645-1.306-12.05-9.098-12.05-9.098Z" fill="#b7e8ff" fill-rule="evenodd" style="--darkreader-inline-fill:#004363" transform="translate(-8.248 66.4)" data-name="Path 4176"/></g><path d="m383.067 131.505 3.018 3.142-4.329 4.808 16.676-1.756v4.923l-17.43 1.747-4.288-2.922 5.042-10.739 1.311.797Z" fill="#22b0ec" fill-rule="evenodd" style="--darkreader-inline-fill:#38c0fa" transform="translate(-31.113 43.73)" data-name="Path 4177"/></g><g data-name="Group 4763"><g data-name="Group 4762"><path d="m83.114 174.223 10.201-.462-7.343-5.566 4.512-10.411s-7.236-21.696-10.032-21.284c-2.796.412-24.67 4.796-25.965 6.973-1.294 2.176-7.789 24.595-7.188 27.156.6 2.56 20.717 14.287 22.533 12.942 1.817-1.345 13.282-9.348 13.282-9.348Z" fill="#070707" fill-rule="evenodd" style="--darkreader-inline-fill:#050606" transform="translate(172.254 37.087)" data-name="Path 4178"/><path d="m83.114 168.437 10.201 1.683-7.343-7.711 4.512-10.41s-7.236-21.696-10.032-21.285c-2.796.412-24.67 4.796-25.965 6.973-1.294 2.176-7.789 24.595-7.188 27.156.6 2.56 20.717 14.287 22.533 12.942 1.817-1.344 13.282-9.348 13.282-9.348Z" fill="#b7e8ff" fill-rule="evenodd" style="--darkreader-inline-fill:#004363" transform="translate(172.254 40.73)" data-name="Path 4179"/></g><path d="M89.646 186.162s-21.595-10.396-17.466-13.89c4.13-3.494 13.5 2.308 13.5 2.308s-2.139-13.108 3.06-11.837c5.198 1.27 6.62 14.28.906 23.42Z" fill="#22b0ec" fill-rule="evenodd" style="--darkreader-inline-fill:#38c0fa" transform="translate(156.899 20.62)" data-name="Path 4180"/></g><g data-name="Group 4766"><g data-name="Group 4764"><path d="m215.601 65.444-1.607 5.624-2.13-4.83-6.4 1.137s-11.133-6.903-10.534-8.407c.6-1.504 5.938-13.114 7.322-13.547 1.384-.433 14.737-1.086 16.085-.413 1.348.674 5.22 13.436 4.231 14.271-.99.834-6.967 6.165-6.967 6.165Z" fill="#070707" fill-rule="evenodd" style="--darkreader-inline-fill:#efece9" transform="translate(34.321 185.853)" data-name="Path 4181"/><path d="m212.377 64.678-.413 5.908-3.325-5.113-6.399 1.136s-11.133-6.903-10.534-8.406c.6-1.504 5.938-13.115 7.322-13.548 1.384-.433 14.737-1.086 16.085-.413 1.348.674 5.22 13.437 4.231 14.271-.99.835-6.967 6.165-6.967 6.165Z" fill="#b7e8ff" fill-rule="evenodd" style="--darkreader-inline-fill:#a2eaff" transform="translate(36.35 186.335)" data-name="Path 4182"/></g><g data-name="Group 4765"><path d="M0 0h2.17v9.144H0V0z" fill="#22b0ec" fill-rule="evenodd" style="--darkreader-inline-fill:#38c0fa" transform="rotate(180 125.232 122.4)" data-name="Rectangle 1326"/><path d="M0 0h2.17v7.472H0V0z" fill="#22b0ec" fill-rule="evenodd" style="--darkreader-inline-fill:#38c0fa" transform="rotate(180 123.598 122.4)" data-name="Rectangle 1327"/><path d="M0 0h2.17v5.85H0V0z" fill="#22b0ec" fill-rule="evenodd" style="--darkreader-inline-fill:#38c0fa" transform="rotate(180 121.964 122.4)" data-name="Rectangle 1328"/><path d="M0 0h2.171v4.378H0V0z" fill="#22b0ec" fill-rule="evenodd" style="--darkreader-inline-fill:#38c0fa" transform="rotate(180 120.33 122.4)" data-name="Rectangle 1329"/><path d="M0 0h2.171v2.83H0V0z" fill="#22b0ec" fill-rule="evenodd" style="--darkreader-inline-fill:#38c0fa" transform="rotate(180 118.695 122.4)" data-name="Rectangle 1330"/></g></g></g></g><defs><clipPath id="a"><path d="M0 0h185.289v185.289H0V0z" data-name="SVGID"/></clipPath></defs></svg>