<svg xmlns="http://www.w3.org/2000/svg" width="17" height="20.001" viewBox="267.036 853 17 20.001"><g data-name="Iconly/Light-outline/Location"><path d="m274.55 872.683-.06-.048-.414-.278a20.758 20.758 0 0 1-4.534-4.256l-.316-.413a10.7 10.7 0 0 1-2.19-6.161l.004-.286a8.494 8.494 0 0 1 2.58-5.838 8.444 8.444 0 0 1 5.915-2.403h.03l.255.005a8.44 8.44 0 0 1 5.83 2.598 8.488 8.488 0 0 1 2.386 5.95v.102c-.05 2.64-1.337 5.37-3.72 7.892a21.17 21.17 0 0 1-3.745 3.095l-.05.041c-.288.208-.63.318-.986.318-.355 0-.696-.11-.985-.318Zm.77-18.162a6.943 6.943 0 0 0-4.787 2.112 6.98 6.98 0 0 0-1.984 4.867l.019.357a9.187 9.187 0 0 0 1.864 4.915 19.17 19.17 0 0 0 4.903 4.604l.082.062a.182.182 0 0 0 .118.045.183.183 0 0 0 .12-.045l.085-.064a19.618 19.618 0 0 0 3.483-2.875c2.116-2.24 3.257-4.612 3.3-6.858l-.004-.332a6.978 6.978 0 0 0-2.106-4.8 6.936 6.936 0 0 0-4.853-1.992l-.24.004Zm-3.023 7.128a3.247 3.247 0 0 1 3.238-3.248 3.247 3.247 0 0 1 3.239 3.248 3.247 3.247 0 0 1-3.239 3.248 3.247 3.247 0 0 1-3.238-3.248Zm1.513 0c0 .955.774 1.73 1.725 1.73a1.73 1.73 0 0 0 0-3.461 1.73 1.73 0 0 0-1.725 1.731Z" fill="#bfbcbc" fill-rule="evenodd" data-name="Location"/></g></svg>