<?xml version="1.0" encoding="utf-8"?>
<!-- Created by UniConvertor 2.0rc5 (https://sk1project.net/) -->
<svg xmlns="http://www.w3.org/2000/svg" height="54.194px" width="35.451px" version="1.1" xmlns:xlink="http://www.w3.org/1999/xlink" id="005a6478-d2d4-11ed-a445-0242ac150005">

<g>
	<path style="fill:#37474f;" d="M 17.773,0.0 C 9.732,0.0 4.524,3.462 0.435,9.635 0.1617,10.0432 -0.0012,10.5452 -0.0012,11.0852 -0.0012,11.9004 0.3701,12.6291 0.9527,13.1114 L 5.3,16.577 C 5.6972,16.8981 6.2084,17.0925 6.7648,17.0925 7.5355,17.0925 8.2193,16.7195 8.6455,16.1442 11.173,12.816 13.05,10.904 16.987,10.904 20.087,10.904 23.92,13.004 23.92,16.157 23.92,18.544 22.045,19.77 18.984,21.573 15.415,23.673 10.693,26.291 10.693,32.836 L 10.693,33.872 C 10.6925,33.8898 10.6923,33.9108 10.6923,33.9318 10.6923,35.2799 11.7681,36.3772 13.1078,36.4119 L 20.411,36.412 C 21.7539,36.3772 22.8297,35.2799 22.8297,33.9318 22.8297,33.9108 22.8295,33.8898 22.8289,33.8689 L 22.829,33.26 C 22.829,28.723 35.449,28.534 35.449,16.26 35.451,7.013 26.324,0.0 17.773,0.0 Z M 16.763,39.53 C 12.8687,39.729 9.7854,42.9362 9.7854,46.862 9.7854,50.7878 12.8687,53.995 16.7454,54.1933 20.6573,53.995 23.7406,50.7878 23.7406,46.862 23.7406,42.9362 20.6573,39.729 16.7806,39.5307 Z" />
</g>
</svg>