<svg xmlns="http://www.w3.org/2000/svg" width="16" height="18" viewBox="59 510 16 18"><g data-name="Group 2317"><path d="M3 0h7a3 3 0 0 1 3 3v4a3 3 0 0 1-3 3H3a3 3 0 0 1-3-3V3a3 3 0 0 1 3-3z" fill="#99daf6" fill-rule="evenodd" style="--darkreader-inline-fill:#90dfff" transform="translate(62 518)" data-name="Rectangle 1184"/><path d="M3.691 16.253A3.696 3.696 0 0 1 0 12.563V9.076A3.698 3.698 0 0 1 2.48 5.59V4.289A4.307 4.307 0 0 1 6.804 0a4.309 4.309 0 0 1 4.305 4.13l.003.178V5.59a3.698 3.698 0 0 1 2.48 3.488v3.485a3.695 3.695 0 0 1-3.69 3.691h-6.21ZM1.22 9.077v3.485a2.475 2.475 0 0 0 2.472 2.472h6.21a2.475 2.475 0 0 0 2.472-2.472V9.077a2.475 2.475 0 0 0-2.472-2.472h-6.21A2.475 2.475 0 0 0 1.22 9.077Zm8.674-3.692V4.308A3.09 3.09 0 0 0 6.801 1.22a3.088 3.088 0 0 0-3.097 2.914l-.005.159v1.093h6.194Zm-3.7 6.42-.006-.083V9.917A.61.61 0 0 1 7.4 9.835l.006.082v1.805a.61.61 0 0 1-1.214.083Z" fill="#22b0ec" fill-rule="evenodd" style="--darkreader-inline-fill:#38c0fa" transform="translate(59 510)" data-name="Lock"/></g></svg>