<svg xmlns="http://www.w3.org/2000/svg" xmlns:xlink="http://www.w3.org/1999/xlink" width="309.052" height="610.865" viewBox="0 0 309.052 610.865">
  <defs>
    <clipPath id="clip-path">
      <rect id="SVGID" width="303.633" height="303.633" fill="none"/>
    </clipPath>
  </defs>
  <g id="Group_8991" data-name="Group 8991" transform="translate(-62 -15.5)">
    <g id="Group_4588" data-name="Group 4588" transform="translate(68.11 19.792)">
      <path id="Path_1868" data-name="Path 1868" d="M152.629,0A152.719,152.719,0,1,1,0,152.719,152.674,152.674,0,0,1,152.629,0Z" transform="translate(-2.317 11.844)" fill="#a6def8"/>
      <g id="Group_4545" data-name="Group 4545" transform="translate(57.598 53.778)" opacity="0.36">
        <g id="Group_4542" data-name="Group 4542" transform="translate(3.904)">
          <rect id="Rectangle_204" data-name="Rectangle 204" width="70.715" height="46.261" fill="#efe5dc"/>
          <rect id="Rectangle_205" data-name="Rectangle 205" width="32.011" height="57.181" transform="translate(63.948 7.125) rotate(90)" fill="#d8c4b4"/>
          <g id="Group_4541" data-name="Group 4541" transform="translate(11.776 9.395)">
            <g id="Group_4536" data-name="Group 4536" transform="translate(0 0.261)">
              <g id="Group_4535" data-name="Group 4535">
                <g id="Group_4533" data-name="Group 4533" transform="translate(2.394 12.195)">
                  <path id="Path_1800" data-name="Path 1800" d="M146.947,134.017c-.4.593-.508,2.135-.5,3.962.022,3.679.523,8.517.084,9.1-.661.871-6.816-4.759-6.816-4.759s-3.936,3.889-4.8,3.818c-.566-.046-.028-4.89.414-8.247.234-1.784.442-3.146.442-3.146C138.313,129.287,148.155,132.233,146.947,134.017Z" transform="translate(-134.672 -131.606)" fill="#b59985"/>
                </g>
                <g id="Group_4534" data-name="Group 4534">
                  <path id="Path_1801" data-name="Path 1801" d="M147.518,121.665a2.269,2.269,0,0,1-.435,3.3,2.245,2.245,0,0,1-.486,1.117,2.272,2.272,0,0,1-2.249.787,2.273,2.273,0,0,1-1.433,1.9,2.247,2.247,0,0,1-1.211.121,2.267,2.267,0,0,1-3.279-.588,2.268,2.268,0,0,1-3.3-.435,2.265,2.265,0,0,1-1.9-2.734,2.268,2.268,0,0,1-2.028-2.646,2.267,2.267,0,0,1,.588-3.279,2.262,2.262,0,0,1,.436-3.3,2.267,2.267,0,0,1,2.735-1.9,2.268,2.268,0,0,1,1.255-1.824,1.8,1.8,0,0,1,.177-.08,2.25,2.25,0,0,1,1.213-.122,2.268,2.268,0,0,1,3.279.587,2.271,2.271,0,0,1,2.36-.333,2.245,2.245,0,0,1,.942.771,2.267,2.267,0,0,1,1.9,2.733,2.271,2.271,0,0,1,2.028,2.644,2.267,2.267,0,0,1-.588,3.279Z" transform="translate(-130.731 -111.525)" fill="#efe5dc"/>
                  <path id="Path_1802" data-name="Path 1802" d="M147.319,122.106a5.471,5.471,0,1,1-6.006-4.879A5.47,5.47,0,0,1,147.319,122.106Z" transform="translate(-132.959 -113.753)" fill="#d8c4b4"/>
                </g>
              </g>
            </g>
            <g id="Group_4540" data-name="Group 4540" transform="translate(24.074)">
              <g id="Group_4539" data-name="Group 4539">
                <g id="Group_4537" data-name="Group 4537" transform="translate(2.394 12.195)">
                  <path id="Path_1803" data-name="Path 1803" d="M186.59,133.589c-.4.593-.508,2.135-.5,3.962.022,3.679.523,8.516.084,9.1-.661.871-6.816-4.759-6.816-4.759s-3.936,3.888-4.8,3.818c-.566-.046-.028-4.89.414-8.247.234-1.784.442-3.146.442-3.146C177.956,128.858,187.8,131.8,186.59,133.589Z" transform="translate(-174.315 -131.177)" fill="#b59985"/>
                </g>
                <g id="Group_4538" data-name="Group 4538">
                  <path id="Path_1804" data-name="Path 1804" d="M187.161,121.236a2.28,2.28,0,0,1,.432.82,2.263,2.263,0,0,1-.867,2.484,2.271,2.271,0,0,1-2.736,1.9,2.272,2.272,0,0,1-1.433,1.9,4.419,4.419,0,0,0-2.343.569,2.271,2.271,0,0,1-2.147-1.036,3.554,3.554,0,0,1-5.205-3.169,2.267,2.267,0,0,1-2.028-2.645,2.267,2.267,0,0,1,.588-3.279,2.264,2.264,0,0,1,.435-3.3,2.268,2.268,0,0,1,2.736-1.9,2.268,2.268,0,0,1,1.255-1.824,1.8,1.8,0,0,1,.177-.08,4.419,4.419,0,0,0,2.345-.569,2.272,2.272,0,0,1,2.146,1.034,2.271,2.271,0,0,1,2.36-.333,4.416,4.416,0,0,0,2.059,1.255,2.273,2.273,0,0,1,.787,2.249,2.271,2.271,0,0,1,2.028,2.643,2.267,2.267,0,0,1-.588,3.279Z" transform="translate(-170.374 -111.096)" fill="#efe5dc"/>
                  <path id="Path_1805" data-name="Path 1805" d="M186.962,121.677a5.471,5.471,0,1,1-6.006-4.878A5.472,5.472,0,0,1,186.962,121.677Z" transform="translate(-172.602 -113.324)" fill="#d8c4b4"/>
                </g>
              </g>
            </g>
          </g>
        </g>
        <g id="Group_4543" data-name="Group 4543" transform="translate(124.143 50.49)">
          <rect id="Rectangle_206" data-name="Rectangle 206" width="70.715" height="48.635" fill="#efe5dc"/>
          <rect id="Rectangle_207" data-name="Rectangle 207" width="25.425" height="51.227" transform="translate(60.971 11.605) rotate(90)" fill="#d8c4b4"/>
        </g>
        <g id="Group_4544" data-name="Group 4544" transform="translate(0 73.62)">
          <rect id="Rectangle_208" data-name="Rectangle 208" width="50.873" height="33.281" transform="translate(0 0)" fill="#efe5dc"/>
          <rect id="Rectangle_209" data-name="Rectangle 209" width="17.398" height="36.853" transform="translate(43.863 7.941) rotate(90)" fill="#d8c4b4"/>
        </g>
      </g>
    </g>
    <g id="_2" data-name="2" transform="translate(-64.689 -37.333)">
      <g id="Group_8954" data-name="Group 8954" transform="translate(170.472 108.968)">
        <g id="Group_8927" data-name="Group 8927" transform="translate(147.288 123.743)">
          <g id="Group_8926" data-name="Group 8926" transform="translate(31.699 160.155)">
            <path id="Path_8217" data-name="Path 8217" d="M381.655,424.089s4.956,26.859-8.778,31.124c0,0-4.541,1.732-6.052,1.308a2.472,2.472,0,0,1,.737-2.865c1.474-1.5,5.14-3.325,4.808-5.563s-.461-9-1.732-8.465-2.174,9.211-5.057,8.723c0,0-.774-.111-.792-3.095s1.326-14.471,2.2-16.543,1.4-8.327,1.4-8.327,6.917-6.31,11.91-1.216Z" transform="translate(-364.79 -417.183)" fill="#e5c5b8"/>
          </g>
          <path id="Path_8218" data-name="Path 8218" d="M344.519,243.31s12.251,6.015,13.642,19.537c1.354,13.107,2.644,30.231,6.356,56.675,0,0,11.551,40.86,16.082,72.758.442,3.113-1.953,3.924-1.686,6.356.267,2.469.608,4.946.9,7.442,0,0-3.491,5.057-15.456,3.537,0,0-.893-2.994-2.376-7.921-.553-1.842-3.952-.571-4.707-4.219-3.159-15.263-21.471-83.876-24.925-95.693C327.626,285.589,331.264,247.75,344.519,243.31Z" transform="translate(-330.376 -243.31)" fill="#fff"/>
        </g>
        <g id="Group_8950" data-name="Group 8950" transform="translate(53.015)">
          <g id="Group_8929" data-name="Group 8929" transform="translate(106.786 514.603)">
            <path id="Path_8219" data-name="Path 8219" d="M343.96,667.65l2.634,17.86,13.5-1.676-1.3-16.184Z" transform="translate(-343.96 -667.65)" fill="#ea997d"/>
            <g id="Group_8928" data-name="Group 8928" transform="translate(1.659 11.766)">
              <path id="Path_8220" data-name="Path 8220" d="M350.98,704.751a9.626,9.626,0,0,0,10.648,5.6c7.894-1.29,6.392-8.041,6.392-8.041Z" transform="translate(-346.172 -682.151)" fill="#2b2538"/>
              <path id="Path_8221" data-name="Path 8221" d="M366.208,694.191c-1.9-4.016-6.052-11.33-6.052-11.33-7.1-4.191-11.394-2.109-13.411-.175l-.249.2s-.2.074-.553-1.815c0,0-.58,4.292.322,6.816h-.009c.451,1.52,2.3,3.776,2.634,9.506.507,8.649,6.945,10.786,13.577,9.229S368.106,698.207,366.208,694.191Z" transform="translate(-345.761 -680.424)" fill="#3b3348"/>
            </g>
            <path id="Path_8222" data-name="Path 8222" d="M352.4,701.312s10.482,4.707,14.065-1.732c0,0,2.358,4.67-5.527,5.987C355.8,706.433,352.4,701.312,352.4,701.312Z" transform="translate(-344.626 -670.169)" fill="#4f475e"/>
          </g>
          <g id="Group_8931" data-name="Group 8931" transform="translate(0 515.616)">
            <path id="Path_8223" data-name="Path 8223" d="M252.35,668.75l.184,16.69h14.811l.295-16.69Z" transform="translate(-229.946 -668.75)" fill="#ea997d"/>
            <g id="Group_8930" data-name="Group 8930" transform="translate(0 11.413)">
              <path id="Path_8224" data-name="Path 8224" d="M267.262,692.05l-.295,4.025a16.159,16.159,0,0,1-8.677,2.128s-4.67-1.676-7.3.645c-4.946,4.348-20.927,7.627-22.576,1.8Z" transform="translate(-228.058 -682.002)" fill="#2b2538"/>
              <path id="Path_8225" data-name="Path 8225" d="M266.781,681.4s1.962,9.432.368,10.777-12,3.058-17.271,5.757-21.066,5.637-21.793,1.105,5.757-7.35,10.16-9.064,8.815-7.839,11.145-8.575c0,0,2.229-.986,6.144,1.566C257.984,684.557,264.082,680.044,266.781,681.4Z" transform="translate(-228.027 -681.141)" fill="#3b3348"/>
            </g>
            <path id="Path_8226" data-name="Path 8226" d="M230.571,695.66s2.146,3.74,11.762,2.6c0,0-9.174,2.505-13.623.35A7.947,7.947,0,0,1,230.571,695.66Z" transform="translate(-228.081 -670.873)" fill="#4f475e"/>
          </g>
          <g id="Group_8944" data-name="Group 8944" transform="translate(7.885)">
            <g id="Group_8932" data-name="Group 8932" transform="translate(0 0.02)">
              <g id="_x3F__x3F__x3F__x3F__x3F__x3F__x5F__x3F__x3F__x3F__x3F__x3F__x3F__x3F__x5F_2_x5F__10_">
                <path id="Path_8227" data-name="Path 8227" d="M332.016,174.121c2.542,4.762,13,28.573-10.952,61.373a1.673,1.673,0,0,1-1.243.682l-58.149,3.4a1.666,1.666,0,0,1-1.437-.672l-8.879-12.112a1.543,1.543,0,0,1-.267-.571c-.857-3.4-18.238-32.321-13.752-45.908.009-.037.018-.064.028-.1.313-1.234,5.7-24.778-.562-36.264a1.279,1.279,0,0,1-.111-.258c-.442-1.308.433-11.118,4.6-15.263,0,0,25.395-18.809,34.412-18.459a1.568,1.568,0,0,0,.359-.018c1.934-.313,19.269-2.994,25.947,2.275a1.671,1.671,0,0,0,1.032.359h2.174a1.614,1.614,0,0,0,.368-.046c1.142-.267,7.608-1.575,9.754,2.155,0,0,10.1,18.238,15.226,22.217a1.489,1.489,0,0,1,.295.295c1,1.317,7.01,9.524,5.25,15.769a1.637,1.637,0,0,0-.064.359c-.1,1.667-.995,14.323-3.961,19.15A1.63,1.63,0,0,0,332.016,174.121Z" transform="translate(-236.588 -108.99)" fill="#fff"/>
                <path id="Path_8228" data-name="Path 8228" d="M320.343,192.006c-7.111,30.811-28.692,37.415-28.692,37.415l-3.841-29.475s12.2,9.3,23.083-22.337l2.957-21.029C313.859,156.58,321.228,176.006,320.343,192.006Z" transform="translate(-240.629 -112.744)" fill="#e2e0e0"/>
              </g>
              <path id="Path_8229" data-name="Path 8229" d="M336.859,155.156s1.216-12.923-6.779-14.185c-3.786.636-16.654-4.394-16.654-4.394a12.7,12.7,0,0,0-11.79,3.786c-2.109,2.736-6.733,3.371-6.733,3.371l-4.421.424-3.786,1.686-5.9-2.367c-7.793,1.317-18.735-7.1-18.735-7.1-11.578-5.471-13.338,4.025-13.338,4.025-.866,3.113-6.162,23.313,6,39.156,3.684,4.8,10.3,25.846,13.872,27.863l1.225-15.907-9.847-45.125.064-6.457a7.578,7.578,0,0,1,7.912,2.754C271.526,146.893,307.1,141,307.1,141l7.378-.074-.718,13.374,5.554,3.592s3.537-9.469,3.565-12.463C322.96,139.552,335.21,145.189,336.859,155.156Z" transform="translate(-237.397 -111.016)" fill="#e2e0e0"/>
              <path id="Path_8230" data-name="Path 8230" d="M342.563,155.319s.424-10.86-6.779-14.185c-3.491-1.612-16.654-4.394-16.654-4.394" transform="translate(-243.1 -111.179)" fill="#e2e0e0"/>
            </g>
            <path id="Path_8231" data-name="Path 8231" d="M311.2,232.414l-24.649,13.264L259.26,231.77l7.857-12.831c2.819-1.28,2.469-4.366,2.469-7.461V186.35h35.472v25.082c0,3.123-3.334,5.95-.479,7.212Z" transform="translate(-238.377 -115.073)" fill="#e5c5b8"/>
            <path id="Path_8232" data-name="Path 8232" d="M305.941,188.58v9.441a35.879,35.879,0,0,1-7.47,8.327,17.32,17.32,0,0,1-10.427,3.592l-.47.009a17.366,17.366,0,0,1-10.445-3.27,34.645,34.645,0,0,1-6.669-6.669V189.9Z" transform="translate(-239.26 -115.249)" fill="#ccaa9f"/>
            <g id="Group_8942" data-name="Group 8942" transform="translate(12.917 5.426)">
              <g id="Group_8941" data-name="Group 8941">
                <g id="Group_8940" data-name="Group 8940">
                  <g id="Group_8934" data-name="Group 8934" transform="translate(57.429 36.849)">
                    <path id="Path_8233" data-name="Path 8233" d="M324.934,169.662c-2.644,4.762-7.056,6.9-9.874,4.771s-2.745-10.16-.111-14.922,7.728-5.692,10.547-3.574S327.569,164.9,324.934,169.662Z" transform="translate(-312.96 -154.865)" fill="#e5c5b8"/>
                    <path id="Path_8234" data-name="Path 8234" d="M324.177,168.679c-1.98,3.583-5.315,5.186-7.433,3.583s-.553-3.482,1.428-7.065,4.3-8.437,6.42-6.844S326.157,165.1,324.177,168.679Z" transform="translate(-313.179 -155.115)" fill="#dbbaad"/>
                    <g id="Group_8933" data-name="Group 8933" transform="translate(5.933 2.733)">
                      <path id="Path_8235" data-name="Path 8235" d="M325.589,164.517a.553.553,0,0,0,.479-.276,5.619,5.619,0,0,0,.35-4.532,2.624,2.624,0,0,0-1.317-1.64c-3.012-1.317-5.324,3.261-5.425,3.454a.544.544,0,1,0,.976.479c.018-.037,1.944-3.841,4.034-2.929a1.681,1.681,0,0,1,.709,1,4.524,4.524,0,0,1-.276,3.629.542.542,0,0,0,.2.737A.555.555,0,0,0,325.589,164.517Z" transform="translate(-319.419 -157.832)" fill="#ba7566"/>
                      <path id="Path_8236" data-name="Path 8236" d="M320.984,170.683a.543.543,0,0,0,.5-.313c.875-1.9,1.05-3.491.5-4.744a3.28,3.28,0,0,0-1.87-1.769.542.542,0,1,0-.332,1.032h0a2.178,2.178,0,0,1,1.216,1.188,4.876,4.876,0,0,1-.5,3.832.532.532,0,0,0,.267.718A.438.438,0,0,0,320.984,170.683Z" transform="translate(-319.401 -158.305)" fill="#ba7566"/>
                    </g>
                  </g>
                  <g id="Group_8936" data-name="Group 8936" transform="translate(0 36.391)">
                    <path id="Path_8237" data-name="Path 8237" d="M252.839,169.117c2.57,4.8,6.954,7,9.8,4.919s2.9-10.114.332-14.913-7.645-5.812-10.491-3.73S250.269,164.318,252.839,169.117Z" transform="translate(-250.612 -154.367)" fill="#e5c5b8"/>
                    <path id="Path_8238" data-name="Path 8238" d="M253.967,168.14c1.934,3.611,5.232,5.26,7.378,3.694s.608-3.482-1.326-7.083-4.173-8.5-6.319-6.936S252.032,164.538,253.967,168.14Z" transform="translate(-250.744 -154.615)" fill="#dbbaad"/>
                    <g id="Group_8935" data-name="Group 8935" transform="translate(1.077 2.717)">
                      <path id="Path_8239" data-name="Path 8239" d="M252.885,163.97a.57.57,0,0,0,.267-.064.546.546,0,0,0,.221-.737,4.492,4.492,0,0,1-.221-3.629,1.779,1.779,0,0,1,.691-.986c2.109-.884,4,2.948,4.016,2.984a.546.546,0,1,0,.986-.47c-.092-.193-2.33-4.808-5.4-3.528a2.6,2.6,0,0,0-1.317,1.612,5.606,5.606,0,0,0,.286,4.541A.528.528,0,0,0,252.885,163.97Z" transform="translate(-251.781 -157.317)" fill="#ba7566"/>
                      <path id="Path_8240" data-name="Path 8240" d="M257.75,170.2a.633.633,0,0,0,.221-.046.544.544,0,0,0,.276-.718,4.854,4.854,0,0,1-.433-3.85,2.246,2.246,0,0,1,1.216-1.151.545.545,0,0,0-.322-1.041,3.309,3.309,0,0,0-1.9,1.741c-.571,1.234-.424,2.837.433,4.744A.586.586,0,0,0,257.75,170.2Z" transform="translate(-252.151 -157.794)" fill="#ba7566"/>
                    </g>
                  </g>
                  <path id="Path_8241" data-name="Path 8241" d="M316.865,144.814c-.12,16.432-12.352,52.355-30.6,52.226-18.164-.138-29-36.255-28.877-52.669a29.735,29.735,0,0,1,59.033-4.845A28.445,28.445,0,0,1,316.865,144.814Z" transform="translate(-251.146 -114.859)" fill="#e5c5b8"/>
                  <g id="Group_8939" data-name="Group 8939" transform="translate(13.407 33.508)">
                    <path id="Path_8242" data-name="Path 8242" d="M296.184,156.914c-.47.525-.562,1.207-.212,1.52s1.013.138,1.483-.387.562-1.207.212-1.52S296.644,156.389,296.184,156.914Z" transform="translate(-267.581 -151.643)" fill="#ccaa9f"/>
                    <path id="Path_8243" data-name="Path 8243" d="M297.813,152.139l-.193,3.021a.292.292,0,0,0,.341.3c1.944-.332,10.9-.921,15.438.47.3.092.82-1.151.58-1.354-1.805-1.529-6.7-4.209-15.907-2.717A.312.312,0,0,0,297.813,152.139Z" transform="translate(-267.727 -151.253)" fill="#2b2228"/>
                    <path id="Path_8244" data-name="Path 8244" d="M284.2,156.823c.461.534.543,1.216.184,1.52s-1.022.129-1.474-.405-.543-1.216-.184-1.52S283.744,156.3,284.2,156.823Z" transform="translate(-266.535 -151.635)" fill="#ccaa9f"/>
                    <path id="Path_8245" data-name="Path 8245" d="M281.418,152.023l.147,3.03a.292.292,0,0,1-.341.3c-1.934-.359-10.887-1.087-15.438.239-.3.092-.8-1.161-.553-1.363,1.833-1.5,6.761-4.108,15.944-2.478A.277.277,0,0,1,281.418,152.023Z" transform="translate(-265.167 -151.238)" fill="#2b2228"/>
                    <g id="Group_8937" data-name="Group 8937" transform="translate(33.202 7.043)">
                      <path id="Path_8246" data-name="Path 8246" d="M301.708,161.367a.515.515,0,0,0,.414-.212h0c.074-.1,1.759-2.395,4.707-.543a.518.518,0,0,0,.7-.157.5.5,0,0,0-.157-.691,4.327,4.327,0,0,0-6.07.811.509.509,0,0,0,.12.7A.5.5,0,0,0,301.708,161.367Z" transform="translate(-301.213 -158.884)" fill="#2b2228"/>
                      <path id="Path_8247" data-name="Path 8247" d="M306.995,162.518c-.157,1.695-1.308,2.975-2.579,2.855s-2.174-1.584-2.017-3.279,1.308-2.975,2.579-2.855S307.151,160.824,306.995,162.518Z" transform="translate(-301.305 -158.911)" fill="#2b2228"/>
                    </g>
                    <g id="Group_8938" data-name="Group 8938" transform="translate(6.115 7.066)">
                      <path id="Path_8248" data-name="Path 8248" d="M277.309,161.471a.59.59,0,0,0,.276-.074.519.519,0,0,0,.166-.709,4.087,4.087,0,0,0-2.45-1.713,4.134,4.134,0,0,0-3.279.9.515.515,0,1,0,.6.838,3.177,3.177,0,0,1,2.469-.728,3.091,3.091,0,0,1,1.787,1.243A.494.494,0,0,0,277.309,161.471Z" transform="translate(-271.806 -158.909)" fill="#2b2228"/>
                      <path id="Path_8249" data-name="Path 8249" d="M272.758,162.814c.193,1.759,1.382,3.076,2.644,2.938s2.137-1.686,1.944-3.445-1.382-3.076-2.644-2.938S272.564,161.055,272.758,162.814Z" transform="translate(-271.879 -158.945)" fill="#2b2228"/>
                    </g>
                    <path id="Path_8250" data-name="Path 8250" d="M288.992,178.053a.412.412,0,0,0,.184-.037,4.25,4.25,0,0,1,1.068-.175c.24-.018.479-.037.709-.074a2.291,2.291,0,0,0,1.934-1.372,2.809,2.809,0,0,0,.083-1.078c-.129-1.722-.341-3.473-.543-5.167-.5-4.145-1-8.437-.368-12.573a.541.541,0,1,0-1.068-.166c-.663,4.283-.138,8.649.359,12.868.2,1.686.405,3.417.534,5.121a1.837,1.837,0,0,1-.028.654c-.129.368-.636.58-1.078.645-.2.037-.414.046-.626.064A5.048,5.048,0,0,0,288.8,177a.547.547,0,0,0-.332.7A.592.592,0,0,0,288.992,178.053Z" transform="translate(-267.003 -151.689)" fill="#ba7566"/>
                    <path id="Path_8251" data-name="Path 8251" d="M267.47,168.754c-.009.884,1.326,1.612,2.975,1.621s2.994-.691,2.994-1.584-1.326-1.612-2.975-1.621S267.479,167.87,267.47,168.754Z" transform="translate(-265.349 -152.495)" fill="#ccaa9f"/>
                    <path id="Path_8252" data-name="Path 8252" d="M304.85,169.314c-.009.884,1.326,1.612,2.975,1.621s2.994-.691,2.994-1.584-1.326-1.612-2.975-1.621S304.859,168.421,304.85,169.314Z" transform="translate(-268.298 -152.539)" fill="#ccaa9f"/>
                  </g>
                </g>
              </g>
              <path id="Path_8253" data-name="Path 8253" d="M289.16,191.734a26.7,26.7,0,0,1-3.169-.092,5.94,5.94,0,0,1-2.855-.718.632.632,0,0,1-.184-.866.625.625,0,0,1,.866-.184,4.914,4.914,0,0,0,2.266.525c2.579.184,4.873.239,6.687-.866a.632.632,0,0,1,.857.2.624.624,0,0,1-.2.857A8.906,8.906,0,0,1,289.16,191.734Z" transform="translate(-253.155 -120.744)" fill="#ba7566"/>
            </g>
            <path id="Path_8254" data-name="Path 8254" d="M308.316,141.959c.23,2.119.893,5.167,2.754,7.028a20.452,20.452,0,0,1,1.271,10.114c-2.717,23.479-12.011,22.4-12.011,22.4-11.928-5.14-13.642-1.99-13.642-1.99s-1.99-3.067-13.909,2.072c0,0-9.3,1.087-12.011-22.4,0,0-.064-4.32,3.6-17.234H255.74c.184,5.02.534,9.847,1.2,11.385,0,0,2.183,1.032,2.754,5.849s2.717,21.526,2.717,21.526a8.58,8.58,0,0,0,.8,2.68c1.584,3.279,6.125,11.716,12.766,16.552a17.375,17.375,0,0,0,10.455,3.27l.47-.009a17.34,17.34,0,0,0,10.427-3.592c7.231-5.628,11.772-15.769,12.684-17.961a3.605,3.605,0,0,0,.24-.857s2.736-18.275,3.187-21.7c.718-5.508,3-5.665,3-5.665s.258-5.4.424-11.477h-8.548ZM295.4,186.743c-1.059,2.376-1.9,4.513-6.052,5.324l-1.695-1.087-.811.018h-.258l-.811-.018-1.695,1.087c-4.154-.811-5.158-3.675-6.052-5.324-.792-1.455-.175-2.257-.175-2.257s4.79-.995,5.867-1.9a2.543,2.543,0,0,1,2.432-.111,1.78,1.78,0,0,0,1.216-.009,2.441,2.441,0,0,1,2.34.12c1.087.9,5.867,1.9,5.867,1.9S296.075,185.223,295.4,186.743Z" transform="translate(-238.099 -111.57)" fill="#2b2228"/>
            <path id="Path_8255" data-name="Path 8255" d="M316.8,145.259l.516-15.189L255,131.369l.682,13.393C255.682,144.771,279.474,132.741,316.8,145.259Z" transform="translate(-238.04 -110.633)" fill="#fcfdff"/>
            <path id="Path_8256" data-name="Path 8256" d="M317.325,135.611a3.565,3.565,0,0,0-1.612.709,8.087,8.087,0,0,1-4.606,1.695,12.778,12.778,0,0,0-8.815,4.044c-2.109,2.736-6.742,3.362-6.742,3.362l-3.178.562-4.08,6.392a2.485,2.485,0,0,1-3.15.074l-4.817-6.752c-7.793,1.317-17.611-7.654-17.611-7.654-1.658-.783-6.19-3.067-7.47-3.307l-.083-1.566c4.191-11.744,18.818-18.422,32.008-18.33,13.531.111,29.1,7.341,33.224,19.454C320.853,135.638,318.716,135.408,317.325,135.611Z" transform="translate(-238.053 -109.431)" opacity="0.1"/>
            <g id="Group_8943" data-name="Group 8943" transform="translate(10.572)">
              <path id="Path_8257" data-name="Path 8257" d="M329.744,139.081c-6.742-3.086-16.23-4.532-16.23-4.532a12.7,12.7,0,0,0-11.79,3.786c-2.109,2.736-6.733,3.371-6.733,3.371l-3.187.562-4.071,6.392a2.523,2.523,0,0,1-3.159.083l-4.817-6.761c-7.793,1.317-17.6-7.645-17.6-7.645-11.578-5.471-13.338,4.025-13.338,4.025a39.891,39.891,0,0,1-.691-9.672s19.721-19.352,28.656-18.735c0,0,19.85-3.473,26.546,2.607H306.3s7.571-1.98,9.92,2.109c0,0,10.3,18.606,15.382,22.328,0,0,7.442,9.3,5.333,16.128C336.956,153.127,337.021,143.4,329.744,139.081Z" transform="translate(-248.066 -108.968)" fill="#fff"/>
              <path id="Path_8258" data-name="Path 8258" d="M276.314,138.006s13.467,3.169,25.422.092a4.466,4.466,0,0,0,1.98-1.115,23.705,23.705,0,0,0,3.574-4.283,9.644,9.644,0,0,0,1.207-3.058c.387-1.805,1.409-5.508,3.39-6.162,0,0-5.048,3.574-39.147,1.9C272.74,125.377,272.74,137.794,276.314,138.006Z" transform="translate(-250.012 -110.113)" fill="#292728"/>
              <path id="Path_8259" data-name="Path 8259" d="M279.133,124.03S281.38,110.4,306.877,113.6c0,0-9.248-3.021-15.714-2.883C281.961,110.913,265.989,123.394,279.133,124.03Z" transform="translate(-250.123 -109.106)" fill="#e2e0e0"/>
              <path id="Path_8260" data-name="Path 8260" d="M311.42,113.89s8.732.986,6.66,5.757A36.125,36.125,0,0,0,311.42,113.89Z" transform="translate(-253.064 -109.356)" fill="#292728"/>
            </g>
          </g>
          <path id="Path_8261" data-name="Path 8261" d="M266.488,211.744s20.237,2.874,36.927-.074l.755,9.064s16.589,11.2,32.4,20.08c0,0-6.789,80.163-7.8,115.911,0,0,35.085,267.543,36.6,286.886a14.134,14.134,0,0,1-11.891,4.55c-7.59-.755-7.525-.645-19.352,1.142-13.448,2.026-17.381-2.119-29.715-2.358-12.048-.24-36.227,2.054-38.852,2.358-15,1.768-16.948-2.3-24.372-1.142-11.118,1.75-11.385-2.026-11.385-2.026s5.987-246.883,6.954-290.046c0,0-3.362-96.495-4.486-115.276,0,0,18.33-12.555,33.372-21.158Z" transform="translate(-228.168 -117.071)" fill="#fff"/>
          <path id="Path_8262" data-name="Path 8262" d="M239.91,681.169c.645-.074,1.336-.157,2.082-.276,4.154-.654,6.6.332,10.574,1.022l-3.823-55.275Z" transform="translate(-228.965 -149.811)" fill="#e2e0e0"/>
          <g id="Group_8945" data-name="Group 8945" transform="translate(55.342 109.547)">
            <path id="Path_8263" data-name="Path 8263" d="M288.617,309.731h0c-.286,0-.507-.157-.507-.4l.35-81.011a.452.452,0,0,1,.507-.424.483.483,0,0,1,.507.442l-.35,80.993C289.123,309.583,288.893,309.731,288.617,309.731Z" transform="translate(-288.11 -227.899)" fill="#e2e0e0"/>
          </g>
          <g id="Group_8946" data-name="Group 8946" transform="translate(55.469 148.105)">
            <path id="Path_8264" data-name="Path 8264" d="M288.747,353.414a.477.477,0,0,1-.368-.166.518.518,0,0,1,.028-.718c26.6-24.418,46.516-81.858,46.709-82.429a.507.507,0,0,1,.958.332c-.2.58-19.021,58.26-46.985,82.853A.542.542,0,0,1,288.747,353.414Z" transform="translate(-288.247 -269.759)" fill="#e2e0e0"/>
          </g>
          <g id="Group_8947" data-name="Group 8947" transform="translate(68.436 205.423)">
            <path id="Path_8265" data-name="Path 8265" d="M302.827,353.267a.489.489,0,0,1-.461-.3.5.5,0,0,1,.267-.663c15.355-6.586,24.464-19.96,24.557-20.089a.5.5,0,0,1,.838.562c-.092.138-10.16,15.06-25,20.458A.861.861,0,0,1,302.827,353.267Z" transform="translate(-302.325 -331.987)" fill="#e2e0e0"/>
          </g>
          <g id="Group_8948" data-name="Group 8948" transform="translate(36.27 258.236)">
            <path id="Path_8266" data-name="Path 8266" d="M278.573,438.139a.517.517,0,0,1-.507-.461c-1.934-23.93-10.547-47.428-10.63-47.667a.507.507,0,1,1,.949-.359c.083.24,8.741,23.866,10.694,47.934a.505.505,0,0,1-.461.543A.1.1,0,0,1,278.573,438.139Z" transform="translate(-267.404 -389.324)" fill="#e2e0e0"/>
          </g>
          <path id="Path_8267" data-name="Path 8267" d="M318.614,672.591c7.111,1.161,11.836,3.2,22.024,1.676L313.29,528.07Z" transform="translate(-234.754 -142.034)" fill="#e2e0e0"/>
          <g id="Group_8949" data-name="Group 8949" transform="translate(101.294 139.012)">
            <path id="Path_8268" data-name="Path 8268" d="M338.506,323.814h-.046a.5.5,0,0,1-.461-.543l5.315-62.92a.5.5,0,1,1,1,.083L339,323.354A.5.5,0,0,1,338.506,323.814Z" transform="translate(-337.997 -259.887)" fill="#e2e0e0"/>
          </g>
        </g>
        <g id="Group_8953" data-name="Group 8953" transform="translate(0 73.754)">
          <path id="Path_8269" data-name="Path 8269" d="M226.146,220.109a3.618,3.618,0,0,0-3.841.193s-7.111,4.725-7.921,3.961c-.746-.709.295-3.924.295-3.924a66.193,66.193,0,0,0,1.916-8.364l4.449-16.11a2.047,2.047,0,0,0-1.492-2.487,2.4,2.4,0,0,0-2.662,1.722l-4.338,14.507a.563.563,0,0,1-.672.313c-.267-.064-.626-.166-.571-.645l4.569-17.63a2.084,2.084,0,0,0-1.446-2.542,2.012,2.012,0,0,0-2.469,1.455l-5.02,18.118c-.1.543-.884.672-.912.037l3.454-16.359a1.938,1.938,0,1,0-3.758-.949l-4.606,18c-.166.792-.866.709-.8.175h0l1.879-12.859a1.652,1.652,0,0,0-1.207-2.183c-1.041-.258-1.769.59-2.026,1.63l-3.233,14.7c-5.315,15.088-2.515,22.033-2.515,22.033,5.26,12,13.936,2.892,13.936,2.892a25.082,25.082,0,0,0,8.244-4.6c1.64-1.363,6.273-5.563,9.322-7.811a19.3,19.3,0,0,1,2.2-1.382C227.509,221.583,227.187,220.827,226.146,220.109Z" transform="translate(-172.208 -189.04)" fill="#e5c5b8"/>
          <path id="Path_8270" data-name="Path 8270" d="M227.9,243.3s-8.419,6.641-19.794,22.447c-6.982,9.7-30.663,35.334-33.243,44.13-3.159,10.758,6.07,18.533,11,18.533,10.685,0,34.762-26.629,44.139-36.807C230,291.6,237.334,264.946,227.9,243.3Z" transform="translate(-170.768 -193.321)" fill="#fff"/>
          <g id="Group_8951" data-name="Group 8951" transform="translate(57.327 63.74)">
            <path id="Path_8271" data-name="Path 8271" d="M234.46,292.4c-.267,0-.5-.359-.507-.626L232.71,258.8a.546.546,0,0,1,.488-.562.491.491,0,0,1,.525.47l1.234,33.04c.009.276-.212.663-.488.663C234.469,292.4,234.469,292.4,234.46,292.4Z" transform="translate(-232.71 -258.24)" fill="#e2e0e0"/>
          </g>
          <path id="Path_8272" data-name="Path 8272" d="M188.5,235.6l-2.082,9.69c-.709,2.229-5.683,4.154-6.144,8.852a294.029,294.029,0,0,1-6.356,35.287c-4.357,18.256-6.567,34.145,5.831,37.691,16.009,4.578,17.731-14.176,20.531-34.21,1.769-12.647,2.634-22.668,7.277-33.408,1.962-4.523-1.732-6.825-1.437-8.99l2.045-10.132Z" transform="translate(-170.472 -192.714)" fill="#fff"/>
          <g id="Group_8952" data-name="Group 8952" transform="translate(25.78 80.2)">
            <path id="Path_8273" data-name="Path 8273" d="M202.992,296.162c.23-1.658.451-3.261.654-4.836.718-5.37,1.391-10.362,2.441-15.217a10.7,10.7,0,0,1-1.207.82c-.93,4.569-1.566,9.248-2.238,14.268-.212,1.566-.424,3.178-.654,4.827-.138.986-.276,1.962-.405,2.938a163.294,163.294,0,0,1-3.123,18c.332.028.663.046.986.083a159.963,159.963,0,0,0,3.132-17.943C202.715,298.124,202.854,297.148,202.992,296.162Z" transform="translate(-198.46 -276.11)" fill="#e2e0e0"/>
          </g>
        </g>
      </g>
      <g id="Group_8955" data-name="Group 8955" transform="translate(260.545 203.484)">
        <path id="Path_8274" data-name="Path 8274" d="M281.717,226.465l-13.457-6.789,1.161-8.1.5.055-1.133,7.793,12.72,6.291,5.637-12.776.534.018Z" transform="translate(-268.26 -211.58)" fill="#e2e0e0"/>
      </g>
      <g id="Group_8956" data-name="Group 8956" transform="translate(280.809 203.549)">
        <path id="Path_8275" data-name="Path 8275" d="M296.3,226.461l-6.042-13.485.534-.028,5.72,12.776,11.809-5.757-.166-8.281.488-.037.193,8.566Z" transform="translate(-290.26 -211.65)" fill="#e2e0e0"/>
      </g>
    </g>
  </g>
</svg>
