<svg xmlns="http://www.w3.org/2000/svg" width="276.046" height="317.775" viewBox="75.794 31.636 276.046 317.775"><g data-name="Group 4588"><path d="M138.023 0c76.228 0 138.023 62.815 138.023 140.3 0 77.486-61.795 140.3-138.023 140.3S0 217.786 0 140.3C0 62.815 61.795 0 138.023 0Z" fill="#a6def8" fill-rule="evenodd" style="--darkreader-inline-fill:#084b6a" transform="translate(75.794 31.636)" data-name="Path 1868"/><g data-name="Group 4545"><g data-name="Group 4542"><path d="M0 0h70.715v46.261H0V0z" fill="#efe5dc" fill-rule="evenodd" style="--darkreader-inline-fill:#3b2a1b" transform="translate(129.612 73.57)" data-name="Rectangle 204"/><path d="M0 0h32.011v57.181H0V0z" fill="#d8c4b4" fill-rule="evenodd" style="--darkreader-inline-fill:#533d2b" transform="rotate(90 56.432 137.127)" data-name="Rectangle 205"/><g data-name="Group 4541"><g data-name="Group 4536"><g data-name="Group 4535"><g data-name="Group 4533"><path d="M146.947 134.017c-.402.594-.508 2.135-.498 3.963.022 3.68.523 8.517.084 9.1-.661.872-6.816-4.758-6.816-4.758s-3.937 3.889-4.8 3.818c-.567-.046-.029-4.89.413-8.247.234-1.784.442-3.146.442-3.146 2.54-5.46 12.383-2.514 11.175-.73Z" fill="#b59985" fill-rule="evenodd" style="--darkreader-inline-fill:#c1a591" transform="translate(9.11 -36.186)" data-name="Path 1800"/></g><g data-name="Group 4534"><path d="M147.518 121.665c.199.242.348.522.432.82a2.26 2.26 0 0 1-.867 2.484 2.272 2.272 0 0 1-2.736 1.904 2.273 2.273 0 0 1-1.433 1.904c-.398.157-.816.19-1.211.122a2.27 2.27 0 0 1-3.28-.588 2.266 2.266 0 0 1-3.303-.436 2.27 2.27 0 0 1-1.902-2.734 2.273 2.273 0 0 1-2.028-2.646 2.253 2.253 0 0 1-.447-1.132 2.276 2.276 0 0 1 1.035-2.147 2.276 2.276 0 0 1-.335-2.36c.174-.394.444-.71.771-.942.056-.397.214-.784.484-1.117a2.276 2.276 0 0 1 2.252-.787 2.268 2.268 0 0 1 2.644-2.026 2.273 2.273 0 0 1 3.28.587 2.271 2.271 0 0 1 3.301.438 2.272 2.272 0 0 1 1.904 2.733 2.27 2.27 0 0 1 2.028 2.644 2.271 2.271 0 0 1-.588 3.28Z" fill="#efe5dc" fill-rule="evenodd" style="--darkreader-inline-fill:#efdecd" transform="translate(10.658 -28.3)" data-name="Path 1801"/><path d="M147.319 122.106a5.47 5.47 0 1 1-10.885 1.128 5.47 5.47 0 0 1 10.885-1.128Z" fill="#d8c4b4" fill-rule="evenodd" style="--darkreader-inline-fill:#ddc4b1" transform="translate(8.429 -30.527)" data-name="Path 1802"/></g></g></g><g data-name="Group 4540"><g data-name="Group 4539"><g data-name="Group 4537"><path d="M186.59 133.59c-.402.592-.508 2.134-.498 3.961.022 3.68.523 8.517.084 9.101-.661.87-6.816-4.759-6.816-4.759s-3.937 3.889-4.8 3.818c-.567-.045-.029-4.89.413-8.247.234-1.784.442-3.146.442-3.146 2.54-5.46 12.383-2.514 11.175-.729Z" fill="#b59985" fill-rule="evenodd" style="--darkreader-inline-fill:#c1a591" transform="translate(-6.46 -36.018)" data-name="Path 1803"/></g><g data-name="Group 4538"><path d="M187.161 121.236c.199.242.347.522.432.82a2.257 2.257 0 0 1-.867 2.484 2.27 2.27 0 0 1-2.736 1.904 2.272 2.272 0 0 1-1.433 1.904c-.398.158-.816.191-1.211.122a2.27 2.27 0 0 1-3.28-.588 2.267 2.267 0 0 1-3.303-.436 2.276 2.276 0 0 1-1.117-.484 2.27 2.27 0 0 1-.785-2.25 2.272 2.272 0 0 1-2.028-2.645 2.258 2.258 0 0 1-.447-1.133 2.275 2.275 0 0 1 1.035-2.146 2.263 2.263 0 0 1 .435-3.302c.056-.398.215-.785.485-1.118a2.274 2.274 0 0 1 2.252-.786 2.268 2.268 0 0 1 2.644-2.026 2.272 2.272 0 0 1 3.279.587c.64-.53 1.547-.69 2.36-.334.393.171.71.443.942.77a2.273 2.273 0 0 1 1.904 2.734 2.27 2.27 0 0 1 2.028 2.644c.24.32.402.707.447 1.132a2.272 2.272 0 0 1-1.036 2.147Z" fill="#efe5dc" fill-rule="evenodd" style="--darkreader-inline-fill:#efdecd" transform="translate(-4.912 -28.131)" data-name="Path 1804"/><path d="M186.962 121.677a5.472 5.472 0 1 1-10.886 1.126 5.472 5.472 0 0 1 10.886-1.126Z" fill="#d8c4b4" fill-rule="evenodd" style="--darkreader-inline-fill:#ddc4b1" transform="translate(-7.14 -30.36)" data-name="Path 1805"/></g></g></g></g></g><g data-name="Group 4543"><path d="M0 0h70.715v48.635H0V0z" fill="#efe5dc" fill-rule="evenodd" style="--darkreader-inline-fill:#3b2a1b" transform="translate(249.85 124.06)" data-name="Rectangle 206"/><path d="M0 0h25.425v51.227H0V0z" fill="#d8c4b4" fill-rule="evenodd" style="--darkreader-inline-fill:#533d2b" transform="rotate(90 87.578 223.243)" data-name="Rectangle 207"/></g><g data-name="Group 4544"><path d="M0 0h50.873v33.28H0V0z" fill="#efe5dc" fill-rule="evenodd" style="--darkreader-inline-fill:#3b2a1b" transform="translate(125.708 147.19)" data-name="Rectangle 208"/><path d="M0 0h17.398v36.853H0V0z" fill="#d8c4b4" fill-rule="evenodd" style="--darkreader-inline-fill:#533d2b" transform="rotate(90 7.22 162.351)" data-name="Rectangle 209"/></g></g><g data-name="Group 4546"><path d="M345.77 331.405c-11.512-1.361-21.379 1.408-25.866 3 5.948-3.21 11.332-6.767 16.158-10.66 1.184.508 6.105 2.108 18.35.478 14.36-1.91 33.934-21.23 33.934-21.23s-3.6 3.265-20.217 5.321c-11.485 1.423-22.554 8.18-28.297 12.22 6.673-6.011 12.115-12.753 16.3-20.211.678.437 3.093 1.284 10.484-.93 8.982-2.69 18.433-20.18 19.038-21.313-.231.398-1.94 2.787-10.99 5.684-7.611 2.437-14.582 10.756-17.42 14.502a76.406 76.406 0 0 0 2.228-4.64 78.423 78.423 0 0 0 4.489-13.515c1.14-.112 5.554-.82 11.757-5.273 7.237-5.197 6.845-12.414 6.845-12.414l-5.248 3.84c-4.563 3.338-11.508 11.35-13.246 13.389 1.764-7.676 2.363-15.286 2.233-22.47.967 1.002 4.64 4.014 9.784-1.466 6.027-6.422 4.787-15.209 4.787-15.209s-.068 2.037-5.233 6.138c-4.455 3.537-8.36 8.595-9.35 9.92-.155-6.482-.897-12.602-1.903-18.096.316-.744 1.251-2.61 4.021-7.215 4.286-7.126.69-17.629.69-17.629s-6.17 9.658-5.43 21.205c-2.048-9.597-4.738-16.834-6.032-20.02l.026.038s3.647-4.643 1.416-10.262l-2.232-5.62s-2.365 8.75-.154 14.144l-.365.17c.018.038.194.424.483 1.117-.798-.98-1.971-2.056-3.716-3.097-5.339-3.185-8.985-5.28-8.985-5.28s2.442 10.396 14.098 11.958c1.971 5.366 4.988 14.929 6.53 26.588a32.147 32.147 0 0 0-3.61-7.877c-3.686-5.817-18.577-6.465-18.577-6.465s2.873 1.48 8.316 6.79c4.779 4.663 12.423 9.381 14.219 10.465.82 7.677.95 16.138-.277 24.837a25.435 25.435 0 0 0-1.887-8.762c-3.096-7.59-16.094-16.675-16.094-16.675s1.282 6.213 5.106 13.471c3.355 6.372 10.422 14.638 12.1 16.565-1.078 5.481-2.727 11.017-5.12 16.471a75.634 75.634 0 0 1-9.285 15.688c1.627-4.158 6.92-19.827-.085-32.43l-8.15-14.666s.089 20.318 2.283 30.94c1.922 9.302 4.706 15.518 5.369 16.919-6.17 7.846-14.023 14.719-23.509 20.598 1.564-1.72 4.52-5.9 7.564-15.145 4.451-13.518-.807-36.77-.807-36.77s-3.36 20.078-7.446 33.095c-3.615 11.517-1.195 18.217-.59 19.61-8.516 5.12-18.314 9.459-29.369 12.998l.185.58c8.213-2.631 15.735-5.703 22.56-9.206 1.77.974 10.986 5.671 22.56 4.722 12.896-1.058 23.671-8.758 23.671-8.758s-2.333 1.707-18.093-.157Z" fill="#573f37" fill-rule="evenodd" style="--darkreader-inline-fill:#4a352e" transform="translate(-53.813 -62.641)" data-name="Path 1806"/><path d="M444.354 329.206c.023-.04.032-.06.032-.06l-.032.06Z" fill="#573f37" fill-rule="evenodd" style="--darkreader-inline-fill:#c4beb5" transform="translate(-112.513 -113.767)" data-name="Path 1807"/><path d="m68.668 329.206-.032-.06.032.06Z" fill="#573f37" fill-rule="evenodd" style="--darkreader-inline-fill:#c4beb5" transform="translate(35.044 -113.767)" data-name="Path 1808"/><path d="M127.753 311.616c-4.085-13.017-7.445-33.095-7.445-33.095s-5.26 23.252-.807 36.77c3.044 9.244 5.998 13.424 7.563 15.145-9.487-5.88-17.339-12.752-23.508-20.598.662-1.401 3.446-7.617 5.368-16.92 2.195-10.621 2.284-30.94 2.284-30.94l-8.15 14.666c-7.006 12.604-1.713 28.273-.085 32.431a75.582 75.582 0 0 1-9.287-15.688c-2.392-5.454-4.042-10.99-5.119-16.471 1.678-1.926 8.745-10.193 12.1-16.565 3.824-7.258 5.106-13.471 5.106-13.471s-12.998 9.086-16.094 16.675a25.427 25.427 0 0 0-1.887 8.762c-1.226-8.698-1.098-17.16-.277-24.837 1.797-1.084 9.44-5.802 14.219-10.465 5.443-5.31 8.316-6.79 8.316-6.79s-14.891.648-18.577 6.465a32.144 32.144 0 0 0-3.61 7.877c1.542-11.66 4.559-21.222 6.53-26.588 11.656-1.562 14.098-11.959 14.098-11.959s-3.646 2.096-8.985 5.281c-1.744 1.041-2.917 2.116-3.715 3.097.29-.693.465-1.079.482-1.117l-.365-.169c2.21-5.394-.154-14.145-.154-14.145l-2.232 5.62c-2.23 5.62 1.416 10.262 1.416 10.262.009-.011.016-.024.025-.036-1.294 3.185-3.983 10.42-6.03 20.017.738-11.546-5.431-21.204-5.431-21.204s-3.596 10.503.69 17.629c2.77 4.605 3.705 6.47 4.021 7.214-1.006 5.495-1.749 11.615-1.904 18.097-.99-1.325-4.894-6.383-9.349-9.92-5.165-4.101-5.232-6.138-5.232-6.138s-1.24 8.787 4.787 15.209c5.142 5.48 8.815 2.469 9.783 1.467-.13 7.183.469 14.793 2.233 22.469-1.738-2.038-8.683-10.05-13.245-13.389l-5.249-3.84s-.392 7.217 6.846 12.414c6.202 4.453 10.617 5.16 11.756 5.273a78.39 78.39 0 0 0 4.49 13.515 76.062 76.062 0 0 0 2.227 4.64c-2.837-3.746-9.809-12.065-17.42-14.502-9.05-2.897-10.759-5.286-10.99-5.684.605 1.132 10.056 18.623 19.038 21.314 7.39 2.213 9.806 1.366 10.484.929 4.185 7.458 9.627 14.2 16.301 20.212-5.743-4.04-16.812-10.798-28.298-12.22-16.617-2.057-20.217-5.322-20.217-5.322s19.574 19.32 33.934 21.23c12.246 1.63 17.166.029 18.35-.477 4.826 3.892 10.21 7.449 16.159 10.66-4.487-1.593-14.354-4.362-25.868-3-15.76 1.863-18.093.156-18.093.156s10.775 7.7 23.671 8.758c11.574.95 20.791-3.748 22.56-4.722 6.826 3.503 14.347 6.575 22.56 9.205l.186-.579c-11.056-3.54-20.854-7.879-29.37-12.998.605-1.393 3.025-8.093-.59-19.61Z" fill="#573f37" fill-rule="evenodd" style="--darkreader-inline-fill:#4a352e" transform="translate(36.765 -62.641)" data-name="Path 1809"/></g><g data-name="Group 4579"><g data-name="Group 4578" transform="translate(62 15.5)" clip-path="url(&quot;#a&quot;)"><g data-name="Group 4577"><g data-name="Group 4549"><path d="m279.678 390.694-112.684 3.303c-2.824-13.566.838-52.644 4.78-85.588.916-7.627 1.845-14.933 2.708-21.51 2.301-17.422 4.16-29.78 4.16-29.78s-8.975-18.705-8.046-28.768c.917-10.062 20.938-40.211 20.938-40.211h13.639c3.151.528 6.753 1.087 10.02 1.512 4.937.607 9.109.905 9.807.23a.65.65 0 0 0 .152-.206l12.036.93 9.497.722 4.7.365 13.197 3.018s-13.275 48.362-13.53 51.733c-.091 1.093 2.86 16.48 6.892 36.83a7023.159 7023.159 0 0 0 5.387 26.945c7.76 38.622 16.347 80.475 16.347 80.475Z" fill="#efe5dc" fill-rule="evenodd" style="--darkreader-inline-fill:#3b2a1b" transform="translate(-65.192 -73.889)" data-name="Path 1810"/><path d="m267.067 383.958-91.557-1.81c.917-7.626 1.846-14.932 2.708-21.509l83.463-3.625a7030.209 7030.209 0 0 0 5.386 26.944Z" fill="#b59985" fill-rule="evenodd" style="--darkreader-inline-fill:#6e5543" transform="translate(-68.929 -140.212)" data-name="Path 1811"/><g data-name="Group 4547"><path d="M274.938 197.903c.44-1.77.827-3.216 1.098-4.262.013-.09.04-.194.065-.284l.064-.246.13-.478.103-.374.155-.568-3.255-.284-1.395-.117-4.83-.413-4.715-.271-12.192-.724c-.698.672-4.869.375-9.803-.232a286.67 286.67 0 0 1-10.022-1.511c-.142 3.978-1.458 10.043 3.552 18.943l9.123-4.91 9.814 10.434s14.242-1.84 22.108-14.703Z" fill="#a8e0d7" fill-rule="evenodd" style="--darkreader-inline-fill:#225f57" transform="translate(-90.36 -73.889)" data-name="Path 1812"/><path d="M278.553 192.268c-.013.013-.039.026-.051.038-3.488 2.945-11.483 8.809-19.529 8.448-7.879-.362-10.9-6.756-11.96-10.126 4.934.607 9.105.904 9.803.232l12.192.723 4.714.272 4.831.413Z" fill="#f3a080" fill-rule="evenodd" style="--darkreader-inline-fill:#fea27e" transform="translate(-97.01 -74.866)" data-name="Path 1813"/></g><g data-name="Group 4548"><path d="M300.858 399.244a2.172 2.172 0 1 0 4.343 0 2.172 2.172 0 0 0-4.343 0Z" fill="#a897a5" fill-rule="evenodd" style="--darkreader-inline-fill:#b5aca2" transform="translate(-118.157 -155.944)" data-name="Path 1814"/></g></g><g data-name="Group 4563"><path d="M178.024 186.161s-17.567 8.49-19.91 12.394c-2.342 3.904-26.74 58.038-27.522 63.503-.78 5.466.781 16.396 6.247 19.52 5.465 3.123 16.005-2.733 24.203-12.103 8.198-9.368 16.982-83.314 16.982-83.314Z" fill="#e36c44" fill-rule="evenodd" style="--darkreader-inline-fill:#a53c18" transform="translate(-51.214 -73.112)" data-name="Path 1815"/><g data-name="Group 4550"><path d="m315.894 441.535-58.164 3.127-.729-10.64-8.641-125.606L291.688 282l.013.091 24.193 159.444Z" fill="#fe7f54" fill-rule="evenodd" style="--darkreader-inline-fill:#a12901" transform="translate(-97.54 -110.751)" data-name="Path 1816"/><path d="m321.483 441.594-58.164 3.127-.729-10.64 47.185-4.584-19.913-142.1 7.427-5.247 24.194 159.444Z" fill="#e36c44" fill-rule="evenodd" style="--darkreader-inline-fill:#a53c18" transform="translate(-103.128 -110.81)" data-name="Path 1817"/></g><g data-name="Group 4551"><path d="M183.501 203.357s-18.335 31.953-17.415 42.694c.92 10.742 10.487 21.484 10.487 21.484l-1.164 40.389 5.716-42.537s-11.01-17.734-11.183-21.45c-.173-3.717 13.56-40.58 13.56-40.58Z" fill="#fe7f54" fill-rule="evenodd" style="--darkreader-inline-fill:#a12901" transform="translate(-65.215 -79.865)" data-name="Path 1818"/><path d="M194.463 230.138v17.568l-5.806 139.616-.832 20.052-44.895-2.732 15.26-94.357 8.162-50.476s-9.759-17.957-6.249-27.716c3.517-9.759 19.427-43.043 19.427-43.043l14.933 41.088Z" fill="#fe7f54" fill-rule="evenodd" style="--darkreader-inline-fill:#a12901" transform="translate(-56.133 -74.246)" data-name="Path 1819"/><path d="m188.657 465.728-.832 20.052-44.895-2.733 15.26-94.357 4.646 43.22s16.876 21.63 25.821 33.818Z" fill="#fe7f54" fill-rule="evenodd" style="--darkreader-inline-fill:#a12901" transform="translate(-56.133 -152.652)" data-name="Path 1820"/></g><g data-name="Group 4562"><path d="M321.874 198.876s6.268 2.417 9.23 4.67c2.96 2.254 38.031 45.609 38.369 54.217.337 8.609-33.555 57.429-33.555 57.429l-18.357-13.69 20.532-34.944-25.867-26.954.4-25.076 9.248-15.652Z" fill="#fe7f54" fill-rule="evenodd" style="--darkreader-inline-fill:#a12901" transform="translate(-122.622 -78.105)" data-name="Path 1821"/><g data-name="Group 4561"><g data-name="Group 4560"><g data-name="Group 4559"><g data-name="Group 4555"><g data-name="Group 4554"><g data-name="Group 4553"><g data-name="Group 4552"><path d="M276.916 393.875c2.128 1.908 13.552-14.101 13.552-14.101l5.262 1.389-4.135 7.137-.355 12.021s2.094 1.03 4.724 2.154c.242.124.484.224.73.304.02.012.04.016.064.024.067.028.162.052.23.08.29.132.619.264.924.38a37.208 37.208 0 0 0 3.889 1.353c.146.036.31.088.44.14.77.193 1.469.33 2.084.392.667.073 1.215.05 1.609-.143l2.274-9.08s11.75-5.429 12.883-7.022c.455-.634.695-4.05.825-7.91.035-1.366.035-2.768.059-4.122 0 0 0-.032.008-.111-.006-.469.007-.958.016-1.442l-3.686-1.325-.92-.32-.417-.164-.409-.164-12.303-4.479c-.29.067-.585.137-.91.208-1.097.259-2.39.609-3.792 1.014-.87.272-1.81.547-2.747.854-3.435 1.11-7.017 2.566-9.524 4.3-1.06.727-1.959 1.503-2.51 2.31-3.967 5.682-9.96 14.407-7.865 16.323Z" fill="#f3a080" fill-rule="evenodd" style="--darkreader-inline-fill:#812d0d" transform="translate(-108.585 -144.866)" data-name="Path 1822"/></g></g></g></g><g data-name="Group 4557"><g data-name="Group 4556"><path d="M308.373 416.22c.329.144.667.28 1.01.422.015-.08.023-.164.032-.243.163-1.387.413-3.26.727-5.273.323-2.02.74-3.818 1.203-5.135.121-.33.226-.626.325-.887.119-.26.225-.483.306-.666.17-.376.263-.586.263-.586s-.178.145-.503.43c-.157.146-.358.322-.577.54-.2.227-.423.497-.664.797-.947 1.217-1.921 3.166-2.274 5.376-.32 2.05-.135 3.891.152 5.226Z" fill="#b54b57" fill-rule="evenodd" style="--darkreader-inline-fill:#c5626d" transform="translate(-120.983 -158.607)" data-name="Path 1823"/></g></g><g data-name="Group 4558"><path d="M317.682 418.726c.144.049.296.086.437.13.047-.388.1-.897.17-1.508.163-1.387.413-3.26.724-5.278.326-2.015.742-3.814 1.206-5.13.12-.33.231-.629.327-.895.122-.256.22-.48.31-.662.163-.373.26-.59.26-.59s-.184.149-.506.438c-.16.14-.358.322-.58.536-.198.23-.419.493-.662.8-.944 1.21-1.918 3.16-2.275 5.372a14.64 14.64 0 0 0 .224 5.533c.122.503.25.921.365 1.254Z" fill="#b54b57" fill-rule="evenodd" style="--darkreader-inline-fill:#c5626d" transform="translate(-124.468 -158.976)" data-name="Path 1824"/></g></g></g><path d="m327.588 343.41 22.091 16.796-10.623 12.95-20.148-15.25 8.68-14.496Z" fill="#e36c44" fill-rule="evenodd" style="--darkreader-inline-fill:#f07b54" transform="translate(-125.246 -134.869)" data-name="Path 1825"/></g></g></g><g data-name="Group 4572"><g data-name="Group 4571"><path d="m280.062 180.737-4.714-.272-12.192-.723a.625.625 0 0 0 .155-.207c.426-.62.607-1.872.659-3.383.064-1.615-.026-3.526-.156-5.283-.038-.439-.077-.865-.116-1.279-.206-2.311-.464-4.081-.464-4.081l12.14-2.635 2.57-.555v.013c0 .09.013.607.052 1.395v.335c.026.349.039.763.052 1.202.064 1.498.168 3.435.31 5.424.284 3.9.723 8.008 1.369 9.52.103.257.22.438.335.529Z" fill="#f3a080" fill-rule="evenodd" style="--darkreader-inline-fill:#fea27e" transform="translate(-103.35 -63.748)" data-name="Path 1826"/><path d="M278.407 170.68c-3.81 2.337-9.12 5.463-10.85 5.811-.968.194-2.26 0-3.539-.348.168-4.275-.736-10.642-.736-10.642l14.711-3.191s.116 4.056.414 8.37Z" fill="#ea7c6f" fill-rule="evenodd" style="--darkreader-inline-fill:#f68174" transform="translate(-103.4 -63.745)" data-name="Path 1827"/><g data-name="Group 4570"><path d="M262.314 77.021c-.535-.098-21 .95-25.451 7.139-4.45 6.189-13.267 30.195-10.07 42.944 3.195 12.75 11.547 12.435 14.563 12.066 3.017-.37 17.47-3.807 21.317-7.711 3.848-3.904 14.267-25.588 13.74-31.767-.529-6.18-14.099-22.67-14.099-22.67Z" fill="#f8bf92" fill-rule="evenodd" style="--darkreader-inline-fill:#773907" transform="translate(-88.8 -30.246)" data-name="Path 1828"/><path d="M264.312 74.327c-.535-.098-21 .949-25.45 7.139-4.451 6.189-13.268 30.195-10.072 42.944 3.196 12.75 11.548 12.435 14.565 12.065 3.016-.369 17.469-3.807 21.317-7.71 3.848-3.904 14.267-25.59 13.739-31.768-.528-6.179-14.099-22.67-14.099-22.67Z" fill="#f3a080" fill-rule="evenodd" style="--darkreader-inline-fill:#812d0d" transform="translate(-89.586 -29.188)" data-name="Path 1829"/><g data-name="Group 4564"><path d="M250.618 140.54c.636.002 1.308-.097 1.88.182a6.087 6.087 0 0 1-4.215 1.848.88.88 0 0 1-.358-.044c-.138-.057-.24-.172-.334-.287a7.165 7.165 0 0 1-1.318-2.472c-.055-.182-.103-.373-.08-.562.077-.625.426-.353.72-.092.339.302.716.562 1.119.773.794.418 1.688.65 2.586.654Z" fill="#ea7c6f" fill-rule="evenodd" style="--darkreader-inline-fill:#f68174" transform="translate(-96.686 -54.52)" data-name="Path 1830"/><path d="M247.882 135.366c-.235-.443-.53-.854-.777-1.294a9.554 9.554 0 0 1-.76-1.697c2.346-.599 3.048-2.56 3.776-4.808a6.858 6.858 0 0 0-.205-4.769 6.942 6.942 0 0 0-.378-.765c-.139-.24-.31-.41-.515-.598.067.174.089.356.143.53.141.455.304.89.397 1.36.093.469.146.946.158 1.424a8.359 8.359 0 0 1-.409 2.83 6.92 6.92 0 0 1-1.379 2.437c-.714.801-1.709 1.492-2.765 1.724-.01.002.729 1.962.81 2.13.209.432.459.846.75 1.228.287.375.613.814 1.077.965a.79.79 0 0 0 .452.029 1.537 1.537 0 0 1-.155-.258c-.019-.039-.036-.08-.053-.12a4.451 4.451 0 0 0-.167-.348Z" fill="#dd5b67" fill-rule="evenodd" style="--darkreader-inline-fill:#e96772" transform="translate(-96.286 -47.692)" data-name="Path 1831"/></g><path d="M289.642 145.21c.779-.226 5.21-4.391 7.283-1.063 2.071 3.328 1.956 8.237-.905 10.525-2.61 2.087-6.118 4.224-9.7 2.647l3.322-12.11Z" fill="#f3a080" fill-rule="evenodd" style="--darkreader-inline-fill:#fea27e" transform="translate(-112.448 -56.107)" data-name="Path 1832"/><path d="M297.853 149.889c.042.665-.173 1.311-.482 1.906-1.312 2.527-4.184 4.126-6.924 5.596a7.182 7.182 0 0 0 1.584-4.041c.036-.506.023-1.017.107-1.516.336-2.01 5.474-5.876 5.715-1.945Z" fill="#ea7c6f" fill-rule="evenodd" style="--darkreader-inline-fill:#f68174" transform="translate(-114.069 -58.2)" data-name="Path 1833"/><g data-name="Group 4565"><path d="m288.237 157.876.15-.057c.098-.041.251-.09.432-.178.362-.172.872-.46 1.388-.93a5.373 5.373 0 0 0 1.352-1.952c.312-.826.456-1.828.193-2.865a2.523 2.523 0 0 0-.112-.382l-.033-.094c-.008-.024-.003-.008-.005-.01v.002l-.001-.002h-.001l.01-.013.053-.07.108-.138c.073-.09.145-.18.22-.268a12.306 12.306 0 0 1 1.859-1.782c.312-.24.609-.464.894-.618.284-.157.58-.238.843-.228.262.014.494.119.642.233.15.118.221.246.244.337.026.091.014.142.014.142s.026-.047.023-.144c0-.096-.042-.249-.184-.408a1.32 1.32 0 0 0-.714-.389c-.34-.063-.726-.006-1.087.132-.365.139-.703.333-1.063.548-.357.219-.725.47-1.086.76a9.674 9.674 0 0 0-1.055.976c-.085.09-.166.183-.248.278l-.12.143-.164.205-.112.144c.013.057.036.116.055.174l.082.248c.037.109.076.219.096.332.228.898.157 1.785-.051 2.554a5.633 5.633 0 0 1-2.121 2.99c-.152.114-.286.187-.37.245l-.131.085Z" fill="#b54b57" fill-rule="evenodd" style="--darkreader-inline-fill:#c5626d" transform="translate(-113.2 -58.139)" data-name="Path 1834"/></g><path d="M236.934 107.374s4.021-2.158 6.214-1.575c2.192.583 2.524 2.738 1.58 2.998-.946.26-7.794-1.423-7.794-1.423Z" fill="#4a0e2f" fill-rule="evenodd" style="--darkreader-inline-fill:#d6d2cb" transform="translate(-93.052 -41.512)" data-name="Path 1835"/><path d="M280.136 118.24s-4.389-5.37-7.737-6.602c-3.348-1.232-4.978.575-3.812 1.599 1.165 1.024 11.549 5.003 11.549 5.003Z" fill="#4a0e2f" fill-rule="evenodd" style="--darkreader-inline-fill:#d6d2cb" transform="translate(-105.336 -43.681)" data-name="Path 1836"/><g data-name="Group 4566"><path d="M282.956 126.343c-.534.828-1.85 1.29-2.752 1.52-.32-.568-.775-.96-1.33-1.074-1.416-.292-2.944 1.316-3.412 3.59-.467 2.275.302 4.355 1.718 4.647 1.417.291 2.944-1.316 3.412-3.591.145-.704.17-1.39.095-2.01 1.277-.728 2.269-3.082 2.269-3.082Z" fill="#2c2c2c" fill-rule="evenodd" style="--darkreader-inline-fill:#d6d2cb" transform="translate(-108.13 -49.62)" data-name="Path 1837"/><path d="M279.41 133.739s1.462.894 3.179.773c1.717-.12 3.04-1.207 3.04-1.207s-1.462-.894-3.178-.774c-1.718.12-3.041 1.208-3.041 1.208Z" fill="#fff" fill-rule="evenodd" style="--darkreader-inline-fill:#f4f2ee" transform="translate(-109.734 -52.045)" data-name="Path 1838"/></g><g data-name="Group 4567"><path d="M242.129 117.613c.083.802.873 1.627 1.447 2.13.444-.297.92-.415 1.369-.293 1.142.312 1.662 2.052 1.161 3.886-.5 1.834-1.832 3.069-2.975 2.757-1.143-.312-1.662-2.052-1.161-3.886.154-.568.39-1.079.674-1.503-.663-1.005-.515-3.091-.515-3.091Z" fill="#2c2c2c" fill-rule="evenodd" style="--darkreader-inline-fill:#d6d2cb" transform="translate(-94.955 -46.19)" data-name="Path 1839"/><path d="M242.684 125.031s-1.398.112-2.608-.612c-1.21-.724-1.773-2.008-1.773-2.008s1.399-.111 2.608.612c1.21.724 1.773 2.008 1.773 2.008Z" fill="#fff" fill-rule="evenodd" style="--darkreader-inline-fill:#f4f2ee" transform="translate(-93.59 -48.073)" data-name="Path 1840"/></g><g data-name="Group 4568"><path d="M268.604 145.14c-.036 1.084 2.254 2.038 5.114 2.131 2.86.094 5.207-.707 5.243-1.79.035-1.083-2.255-2.037-5.114-2.13-2.86-.095-5.207.707-5.243 1.79Z" fill="#ea7c6f" fill-rule="evenodd" style="--darkreader-inline-fill:#f68174" transform="translate(-105.49 -56.296)" data-name="Path 1841"/><path d="M225.108 129.73c-.466.675.804 2.362 2.838 3.768 2.034 1.405 4.06 1.998 4.527 1.323.467-.675-.803-2.362-2.837-3.768-2.034-1.406-4.061-1.999-4.528-1.323Z" fill="#ea7c6f" fill-rule="evenodd" style="--darkreader-inline-fill:#f68174" transform="translate(-88.37 -50.84)" data-name="Path 1842"/></g><g data-name="Group 4569"><path d="M237.912 151.19s10.39-3.49 18.967 2.518c0 0-5.249 7.053-10.148 6.275-5.945-.945-8.819-8.794-8.819-8.794Z" fill="#7a2626" fill-rule="evenodd" style="--darkreader-inline-fill:#e38a8a" transform="translate(-93.436 -58.981)" data-name="Path 1843"/><path d="M238.777 152.254s6.968-.947 17.858 2.283c0 0-3.411 5.75-9.848 4.606-6.438-1.144-8.01-6.89-8.01-6.89Z" fill="#fff" fill-rule="evenodd" style="--darkreader-inline-fill:#f4f2ee" transform="translate(-93.776 -59.744)" data-name="Path 1844"/></g></g></g><path d="M243.37 81.998s27.394 5.55 31.132 10.94c3.738 5.391 8.681-7.293-2.611-14.3-11.292-7.006-8.396-6.575-11.292-7.006-2.896-.43 6.412-3.98-4.788-.317-11.2 3.664-13.25 4.84-13.25 4.84l.867 5.457-.058.386Z" fill="#0782b7" fill-rule="evenodd" style="--darkreader-inline-fill:#066d99" transform="translate(-95.262 -27.363)" data-name="Path 1845"/><path d="M300.494 159.465c-.74-1.47-22.607-20.29-22.607-20.29s7.341-52.607.242-60.44c-4.991-5.508-11.44-10.864-17.203-14.089-2.436-1.36-4.743-2.344-6.771-2.793-19.7-4.403-34.742 12.115-37.687 17.252-2.933 5.138-8.745 43.456-6.54 58.632 0 0-7.063-1.598-6.735 1.068 2.131 17.617 18.51 87.945 34.45 91.449 18.352 4.038 63.58-69.325 62.851-70.789Zm-42.161-44.5c-2.933 5.137-9.407 16.134-28.366 18.217-6.413.698-11.404-11.447-12.625-20.95-1.3-10.154 5.368-23.83 5.368-23.83s18.17-19.572 26.058-11.501c7.895 8.076 12.498 32.92 9.565 38.063Z" fill="#22b0ec" fill-rule="evenodd" style="--darkreader-inline-fill:#108abd" transform="translate(-79.796 -24.002)" data-name="Path 1846"/><path d="M230.571 207.429s7.287 66.886 18.999 65.064c11.712-1.822 44.764-52.311 44.244-50.75-.52 1.561-35.916 39.559-40.6 34.354-4.685-5.205-22.643-48.668-22.643-48.668Z" fill="#0782b7" fill-rule="evenodd" style="--darkreader-inline-fill:#066d99" transform="translate(-90.553 -81.464)" data-name="Path 1847"/><path d="M257.571 197.16s24.985 4.164 32.272-8.589c0 0-6.767 21.862-32.272 8.589Z" fill="#0782b7" fill-rule="evenodd" style="--darkreader-inline-fill:#066d99" transform="translate(-101.157 -74.058)" data-name="Path 1848"/><path d="M264.973 64.646C239.625 61.063 226.503 76.798 222.3 81c-5.465 5.465-8.326 56.737-8.326 56.737-2.204-15.176 3.608-53.494 6.54-58.632 2.946-5.137 17.988-21.655 37.688-17.252 2.028.45 4.336 1.433 6.77 2.793Z" fill="#603d39" fill-rule="evenodd" style="--darkreader-inline-fill:#513330" transform="translate(-83.843 -24.002)" data-name="Path 1849"/></g><g data-name="Group 4576"><g data-name="Group 4573"><path d="M0 0h114.116v9.383H0V0z" fill="#fff" fill-rule="evenodd" style="--darkreader-inline-fill:#191b1c" transform="rotate(-179.923 78.378 110.558)" data-name="Rectangle 210"/><path d="m59.526 320.95 97.248.13-16.151-66.627-97.248-.13 16.151 66.627Z" fill="#fff" fill-rule="evenodd" style="--darkreader-inline-fill:#191b1c" transform="translate(-17.035 -99.881)" data-name="Path 1850"/></g><g data-name="Group 4575"><g data-name="Group 4574"><path d="M64.503 328.442c.231.336.349.852.389 1.533.139 2.52-4.909 9.099-4.909 9.099l4.169 1.028s2.905-9.49 5.76-13.141c.732-.224 1.925-.414 2.985.099.041.02.08.033.116.054 1.746 3.075-2.322 14.764-2.462 14.89.15-.117 7.369-5.951 8.194-8.317.843-2.413 2.977-6.381 3.967-6.767a.673.673 0 0 1 .294-.044c.14.005.288.034.443.101.462.192.968.656 1.323 1.486.505 1.167.696 3.069-.011 5.894.025.033.486.561.934 1.364.08.144.161.293.23.447.43.885.77 1.995.583 3.097-.352 2.152-6.475 13.089-11.094 15.538-.623.335-1.221.51-1.775.483-4.61-.193-17.156-10.213-17.156-10.213-1.897-.388-3.015-2.85-3.654-4.693-.64-1.849 3.171-7.995 6.906-10.565 2.73-1.883 4.146-2.271 4.768-1.373Z" fill="#f3a080" fill-rule="evenodd" style="--darkreader-inline-fill:#812d0d" transform="translate(-20.72 -128.32)" data-name="Path 1851"/><path d="M100.416 339.283c-.065.123-3.97 7.754-7.794 11.369 1.513-1.386 6.14-5.782 8.73-9.997a8.832 8.832 0 0 0-.936-1.372Z" fill="#b54b57" fill-rule="evenodd" style="--darkreader-inline-fill:#c5626d" transform="translate(-36.376 -133.248)" data-name="Path 1852"/></g><path d="M75.418 355.614c-6.359-1.856-18.002-10.34-19.164-10.971-1.362-.74-2.743-1.777.083-7.518 1.84-3.739 5.7-6.44 8.168-7.87-.62-.906-2.04-.512-4.768 1.367-3.738 2.57-7.544 8.718-6.903 10.563.641 1.846 1.753 4.305 3.655 4.697 0 0 12.536 10.018 17.153 10.216.551.024 1.15-.151 1.776-.484Z" fill="#f8bf92" fill-rule="evenodd" style="--darkreader-inline-fill:#ffbf8a" transform="translate(-20.722 -129.127)" data-name="Path 1853"/><path d="M84.404 327.271c.041.02.08.033.116.054 1.746 3.075-2.322 14.764-2.462 14.89l.568-4.925c.066-.56 1.173-7.52 1.778-10.019Z" fill="#b54b57" fill-rule="evenodd" style="--darkreader-inline-fill:#c5626d" transform="translate(-32.227 -128.53)" data-name="Path 1854"/></g><path d="M134.766 296.672a4.973 4.973 0 0 1-4.973-4.973c0-1.144.402-2.186 1.051-3.026-.347-.047-.69-.106-1.051-.106a7.887 7.887 0 1 0 7.887 7.887c0-.235-.05-.455-.07-.684a4.942 4.942 0 0 1-2.844.902Z" fill="#fe7f54" fill-rule="evenodd" style="--darkreader-inline-fill:#ff8559" transform="translate(-47.877 -113.33)" data-name="Path 1855"/></g></g></g></g><g data-name="Group 4586"><g data-name="Group 4584"><g data-name="Group 4583"><g data-name="Group 4580"><path d="m385.041 92.786-14.37 26.95 23.616-15.383-9.246-11.567Z" fill="#fff" fill-rule="evenodd" style="--darkreader-inline-fill:#f4f2ee" transform="translate(-83.576 -20.94)" data-name="Path 1856"/></g><g data-name="Group 4581"><path d="m339.796 108.15 11.16 16.965-1.465-18.682-9.695 1.716Z" fill="#fff" fill-rule="evenodd" style="--darkreader-inline-fill:#f4f2ee" transform="translate(-71.45 -26.3)" data-name="Path 1857"/></g><g data-name="Group 4582"><path d="m394.536 140.68-21.037 7.816 20.483 3.051.554-10.867Z" fill="#fff" fill-rule="evenodd" style="--darkreader-inline-fill:#f4f2ee" transform="translate(-84.686 -39.75)" data-name="Path 1858"/></g></g></g><g data-name="Group 4585"><path d="m68.586 170.668-1.142-3.38-1.142 3.38a18.291 18.291 0 0 1-8.553 10.195 18.291 18.291 0 0 1 8.553 10.196l1.142 3.38 1.142-3.38a18.293 18.293 0 0 1 8.553-10.196 18.293 18.293 0 0 1-8.553-10.195Z" fill="#22b0ec" fill-rule="evenodd" style="--darkreader-inline-fill:#38c0fa" transform="translate(39.32 -50.2)" data-name="Path 1859"/><path d="m452.372 224.347-1.142-3.38-1.142 3.38a18.293 18.293 0 0 1-8.553 10.195 18.296 18.296 0 0 1 8.553 10.195l1.142 3.38 1.142-3.38a18.296 18.296 0 0 1 8.553-10.195 18.293 18.293 0 0 1-8.553-10.195Z" fill="#fff" fill-rule="evenodd" style="--darkreader-inline-fill:#f4f2ee" transform="translate(-111.406 -71.281)" data-name="Path 1860"/><path d="m452.253 295.926-.412-1.218-.411 1.218a6.597 6.597 0 0 1-3.084 3.676 6.596 6.596 0 0 1 3.084 3.675l.411 1.219.412-1.219a6.597 6.597 0 0 1 3.083-3.675 6.598 6.598 0 0 1-3.083-3.676Z" fill="#efe5dc" fill-rule="evenodd" style="--darkreader-inline-fill:#efdecd" transform="translate(-114.08 -100.242)" data-name="Path 1861"/><path d="m357.018 71.273-.623-1.844-.623 1.844a9.977 9.977 0 0 1-4.666 5.562 9.976 9.976 0 0 1 4.666 5.562l.623 1.843.623-1.843a9.977 9.977 0 0 1 4.666-5.562 9.98 9.98 0 0 1-4.666-5.562Z" fill="#22b0ec" fill-rule="evenodd" style="--darkreader-inline-fill:#38c0fa" transform="translate(-75.891 -11.767)" data-name="Path 1862"/><path d="m157.973 185.013-.536-1.584-.535 1.584a8.574 8.574 0 0 1-4.01 4.78 8.577 8.577 0 0 1 4.01 4.78l.535 1.586.536-1.585a8.578 8.578 0 0 1 4.01-4.78 8.575 8.575 0 0 1-4.01-4.78Z" fill="#efe5dc" fill-rule="evenodd" style="--darkreader-inline-fill:#efdecd" transform="translate(1.954 -56.539)" data-name="Path 1863"/><path d="m154.973 68.765-.355-1.051-.355 1.05a5.681 5.681 0 0 1-2.657 3.167 5.684 5.684 0 0 1 2.657 3.169l.355 1.05.355-1.05a5.684 5.684 0 0 1 2.658-3.169 5.681 5.681 0 0 1-2.658-3.166Z" fill="#efe5dc" fill-rule="evenodd" style="--darkreader-inline-fill:#efdecd" transform="translate(2.46 -11.094)" data-name="Path 1864"/><path d="m195.788 52.329-.862-2.552-.862 2.552a13.813 13.813 0 0 1-6.458 7.697 13.81 13.81 0 0 1 6.458 7.698l.862 2.552.862-2.552a13.81 13.81 0 0 1 6.458-7.698 13.811 13.811 0 0 1-6.458-7.697Z" fill="#fe7f54" fill-rule="evenodd" style="--darkreader-inline-fill:#ff8559" transform="translate(-11.68 -4.05)" data-name="Path 1865"/><path d="m343.254 153.128-.449-1.327-.448 1.327A7.18 7.18 0 0 1 339 157.13a7.18 7.18 0 0 1 3.358 4.002l.448 1.328.45-1.328a7.18 7.18 0 0 1 3.357-4.002 7.18 7.18 0 0 1-3.358-4.003Z" fill="#efe5dc" fill-rule="evenodd" style="--darkreader-inline-fill:#efdecd" transform="translate(-71.136 -44.117)" data-name="Path 1866"/><path d="m46.791 220.634-.697-2.063-.697 2.063a11.162 11.162 0 0 1-5.219 6.221 11.162 11.162 0 0 1 5.22 6.222l.696 2.063.697-2.063a11.162 11.162 0 0 1 5.22-6.222 11.162 11.162 0 0 1-5.22-6.221Z" fill="#efe5dc" fill-rule="evenodd" style="--darkreader-inline-fill:#efdecd" transform="translate(46.22 -70.34)" data-name="Path 1867"/></g></g></g><defs><clipPath id="a"><path d="M0 0h303.633v303.633H0V0z" data-name="SVGID"/></clipPath></defs></svg>