<svg xmlns="http://www.w3.org/2000/svg" width="17" height="18" viewBox="61 397 17 18"><g data-name="Group 1638"><g data-name="Profile"><path d="M5.653 11.307a5.633 5.633 0 0 0 5.653-5.653A5.633 5.633 0 0 0 5.653 0 5.634 5.634 0 0 0 0 5.654a5.634 5.634 0 0 0 5.653 5.653" fill="#99daf6" fill-rule="evenodd" style="--darkreader-inline-fill:#90dfff" transform="translate(66.694 397)" data-name="Fill 4"/></g><path d="M6.258 17.968c-.113 0-.193-.001-.266-.003l-.135-.005a2.158 2.158 0 0 1-.378-.042 15 15 0 0 1-2.187-.304l-.24-.049C1.6 17.256.688 16.695.263 15.853A2.555 2.555 0 0 1 0 14.727a2.503 2.503 0 0 1 .27-1.137c.437-.845 1.476-1.45 3.003-1.753.722-.15 1.46-.249 2.192-.298a24.338 24.338 0 0 1 4.069 0l.432.034c.591.057 1.182.145 1.755.263 1.62.32 2.577.881 3.014 1.766a2.527 2.527 0 0 1 0 2.253c-.435.88-1.418 1.455-3.003 1.755l-.438.087c-.583.108-1.177.182-1.763.22a24.828 24.828 0 0 1-3.273.05Zm-.687-5.13c-.681.046-1.361.138-2.022.274-1.061.21-1.833.603-2.067 1.052a1.233 1.233 0 0 0-.13.561c-.001.196.043.391.13.565.238.474.96.836 2.088 1.048l.33.067a15.11 15.11 0 0 0 1.757.224c.08.017.167.026.269.03l.369.006a23.364 23.364 0 0 0 3.133-.047 13.97 13.97 0 0 0 2.027-.283l.21-.043c.995-.217 1.635-.562 1.85-.997.178-.36.178-.774 0-1.134-.23-.464-.945-.827-2.07-1.05a15.172 15.172 0 0 0-2.018-.273l-.012-.002a22.788 22.788 0 0 0-3.844.002ZM2.523 4.802C2.523 2.154 4.758 0 7.503 0c2.747 0 4.98 2.154 4.98 4.802 0 2.648-2.233 4.801-4.98 4.801-2.745 0-4.98-2.153-4.98-4.801Zm1.352 0c0 1.93 1.627 3.498 3.629 3.498 2 0 3.628-1.569 3.628-3.498 0-1.929-1.628-3.499-3.628-3.499-2.002 0-3.629 1.57-3.629 3.499Z" fill="#22b0ec" fill-rule="evenodd" style="--darkreader-inline-fill:#38c0fa" transform="translate(61 397)" data-name="Profile"/></g></svg>