<svg xmlns="http://www.w3.org/2000/svg" width="52.8" height="52.8"><g data-name="Group 4773"><path d="m28.51 28.51-4.484 4.485-4.221-4.221 4.485-4.484a2.638 2.638 0 0 0-3.694-3.694l-4.484 4.485-1.715-1.715a2.506 2.506 0 0 0-3.693 0l-3.957 3.957a12.926 12.926 0 0 0-3.957 9.233 12.003 12.003 0 0 0 2.374 7.386L.812 48.295a2.506 2.506 0 0 0 0 3.693 2.506 2.506 0 0 0 3.693 0l4.22-4.22a13.322 13.322 0 0 0 7.783 2.505c3.5-.008 6.86-1.38 9.364-3.825l3.957-3.957c.497-.487.782-1.15.792-1.846a2.242 2.242 0 0 0-.792-1.847l-2.11-2.11 4.484-4.485a2.638 2.638 0 0 0-3.693-3.693Z" fill="#22b0ec" fill-rule="evenodd" data-name="Path 4183"/><path d="M51.988.812a2.506 2.506 0 0 0-3.693 0L43.81 5.296a13.19 13.19 0 0 0-17.146 1.187l-3.957 3.957a2.638 2.638 0 0 0-.792 1.847c-.042.706.252 1.39.792 1.846l15.432 15.432a2.506 2.506 0 0 0 3.693 0l3.957-3.825a13.058 13.058 0 0 0 3.825-9.364 13.717 13.717 0 0 0-2.11-7.255l4.484-4.616a2.506 2.506 0 0 0 0-3.693Z" fill="#22b0ec" fill-rule="evenodd" data-name="Path 4184"/></g></svg>