<?xml version="1.0" encoding="iso-8859-1"?>
<!-- Uploaded to: SVG Repo, www.svgrepo.com, Generator: SVG Repo Mixer Tools -->
<svg height="800px" width="800px" version="1.1" id="Layer_1" xmlns="http://www.w3.org/2000/svg" xmlns:xlink="http://www.w3.org/1999/xlink" 
	 viewBox="0 0 512 512" xml:space="preserve">
<g>
	<path style="fill:#ECF0F1;" d="M256,512c141.024,0,256-115.033,256-256C512,114.976,396.967,0,256,0C114.976,0,0,115.033,0,256
		C0,397.024,115.033,512,256,512z"/>
	<circle style="fill:#ECF0F1;" cx="256" cy="256" r="256"/>
</g>
<circle style="fill:#FF7069;" cx="256" cy="256" r="256"/>
<g>
	<path style="fill:#FED298;" d="M190.737,341.069c-22.303-12.996-59.304-40.86-59.304-40.86s-10.102,13.223-2.837,25.367
		c7.264,12.201,38.023,33.937,38.023,33.937s-0.17,9.477-9.931,2.384c-9.818-7.094-49.089-50.11-49.089-50.11
		s-20.771-62.822-25.14-72.924c-4.37-10.045-15.436-7.945-15.436-7.945s8.059,87.395,9.08,95.34
		c1.021,7.945,68.27,91.765,68.27,91.765l19.579,25.197l-13.336,46.024c23.097,10.442,48.067,17.593,74.229,20.771l1.532-85.239
		c9.421-33.88-13.28-70.824-35.582-83.82L190.737,341.069z"/>
	<path style="fill:#FED298;" d="M321.263,341.069c22.303-12.996,59.304-40.86,59.304-40.86s10.102,13.223,2.838,25.367
		c-7.264,12.201-38.023,33.937-38.023,33.937s0.17,9.477,9.931,2.384c9.818-7.094,49.089-50.11,49.089-50.11
		s20.771-62.822,25.14-72.924c4.37-10.045,15.436-7.945,15.436-7.945s-8.059,87.395-9.08,95.34
		c-1.022,7.945-68.27,91.765-68.27,91.765l-19.579,25.197l13.336,46.024c-23.097,10.442-48.067,17.593-74.229,20.771l-1.532-85.239
		c-9.421-33.88,13.28-70.824,35.582-83.82L321.263,341.069z"/>
</g>
<g>
	<polygon style="fill:#FEFEFE;" points="366.776,310.196 379.375,300.776 381.191,305.6 370.579,314.226 	"/>
	<polygon style="fill:#FEFEFE;" points="145.451,310.65 133.022,301.06 131.093,305.827 141.592,314.623 	"/>
</g>
<g>
	<path style="fill:#F0B97D;" d="M110.322,267.577l3.519,51.075l0,0c-3.802-4.086-6.243-6.81-6.243-6.81S101.356,292.944,95,274.217
		l-0.34-15.266c-0.114-5.675,14.812-8.172,15.663,8.569V267.577z"/>
	<path style="fill:#F0B97D;" d="M401.678,267.577l-3.518,51.075l0,0c3.802-4.086,6.243-6.81,6.243-6.81s6.242-18.898,12.599-37.625
		l0.341-15.266c0.113-5.675-14.812-8.172-15.663,8.569V267.577z"/>
</g>
<path style="fill:#E4E7ED;" d="M286.588,119.856c-3.973-29.34,25.367-56.353,26.956-91.708
	c9.307,34.107,43.811,54.083,46.365,83.536c5.335,48.238-67.987,56.353-73.321,8.115V119.856z"/>
<path style="fill:#C6CBD6;" d="M313.488,28.148c9.307,34.107,43.811,54.083,46.365,83.536c4.143,37.115-38.42,50.508-60.609,32.631
	c18.047,11.18,47.443,2.781,54.594-18.16c11.123-32.631-36.377-61.631-40.349-98.064V28.148z"/>
<path style="fill:#FEFEFE;" d="M306.508,67.533c0,0-26.219,38.987-13.45,58.68C303.784,142.67,297.03,92.503,306.508,67.533z"/>
<path style="fill:#E4E7ED;" d="M174.45,258.951c-1.476-62.709,66.568-112.819,78.145-186.822
	c11.577,74.002,79.62,124.113,78.145,186.822C330.74,361.782,174.45,361.782,174.45,258.951z"/>
<path style="fill:#C6CBD6;" d="M252.595,72.129c11.577,74.002,79.62,124.113,78.145,186.822c0,79.166-92.73,97.383-135.349,54.537
	c35.355,27.751,99.199,16.968,119.175-25.481c31.099-66.114-62.141-138.243-62.028-215.934L252.595,72.129z"/>
<path style="fill:#FEFEFE;" d="M228.646,153.396c0,0-64.411,75.988-42.052,120.481C205.265,311.104,202.825,203.847,228.646,153.396
	z"/>
<path style="fill:#E4E7ED;" d="M154.417,130.866c2.554-20.998,27.751-34.391,35.185-58.566
	c0.227,25.254,20.544,45.287,16.968,66.171C201.577,172.804,149.366,165.143,154.417,130.866z"/>
<path style="fill:#C6CBD6;" d="M189.602,72.3c0.227,25.254,20.544,45.287,16.968,66.171c-3.859,26.446-35.696,27.978-47.84,11.577
	c10.442,11.01,32.291,10.499,41.03-2.667C213.381,126.837,185.743,98.178,189.602,72.3z"/>
<path style="fill:#FEFEFE;" d="M177.685,98.291c0,0-25.197,22.246-19.919,38.193C162.192,149.82,166.618,113.898,177.685,98.291z"/>
</svg>