<svg xmlns="http://www.w3.org/2000/svg" width="18" height="19" viewBox="205 709 18 19"><g data-name="Group 3808"><path d="M205 726v-15a2 2 0 0 1 2-2 2 2 0 0 1 2 2v15a2 2 0 0 1-2 2 2 2 0 0 1-2-2z" fill-rule="evenodd" data-name="Rectangle 19"/><path d="M212 723v-8a2 2 0 0 1 2-2 2 2 0 0 1 2 2v8a2 2 0 0 1-2 2 2 2 0 0 1-2-2z" fill-rule="evenodd" data-name="Rectangle 20"/><path d="M219 723v-8a2 2 0 0 1 2-2 2 2 0 0 1 2 2v8a2 2 0 0 1-2 2 2 2 0 0 1-2-2z" fill-rule="evenodd" data-name="Rectangle 21"/></g></svg>