<svg xmlns="http://www.w3.org/2000/svg" xmlns:xlink="http://www.w3.org/1999/xlink" width="331" height="526.5" viewBox="0 0 331 526.5">
  <defs>
    <clipPath id="clip-path">
      <rect id="SVGID" width="303.633" height="303.633" fill="none"/>
    </clipPath>
  </defs>
  <g id="Group_8992" data-name="Group 8992" transform="translate(-59 -15.5)">
    <g id="Group_8896" data-name="Group 8896">
      <g id="Group_4588" data-name="Group 4588" transform="translate(65.11 19.792)">
        <path id="Path_1868" data-name="Path 1868" d="M152.629,0A152.719,152.719,0,1,1,0,152.719,152.674,152.674,0,0,1,152.629,0Z" transform="translate(-2.317 11.844)" fill="#a6def8"/>
        <g id="Group_4545" data-name="Group 4545" transform="translate(57.598 53.778)" opacity="0.36">
          <g id="Group_4542" data-name="Group 4542" transform="translate(3.904)">
            <rect id="Rectangle_204" data-name="Rectangle 204" width="70.715" height="46.261" fill="#efe5dc"/>
            <rect id="Rectangle_205" data-name="Rectangle 205" width="32.011" height="57.181" transform="translate(63.948 7.125) rotate(90)" fill="#d8c4b4"/>
            <g id="Group_4541" data-name="Group 4541" transform="translate(11.776 9.395)">
              <g id="Group_4536" data-name="Group 4536" transform="translate(0 0.261)">
                <g id="Group_4535" data-name="Group 4535">
                  <g id="Group_4533" data-name="Group 4533" transform="translate(2.394 12.195)">
                    <path id="Path_1800" data-name="Path 1800" d="M146.947,134.017c-.4.593-.508,2.135-.5,3.962.022,3.679.523,8.517.084,9.1-.661.871-6.816-4.759-6.816-4.759s-3.936,3.889-4.8,3.818c-.566-.046-.028-4.89.414-8.247.234-1.784.442-3.146.442-3.146C138.313,129.287,148.155,132.233,146.947,134.017Z" transform="translate(-134.672 -131.606)" fill="#b59985"/>
                  </g>
                  <g id="Group_4534" data-name="Group 4534">
                    <path id="Path_1801" data-name="Path 1801" d="M147.518,121.665a2.269,2.269,0,0,1-.435,3.3,2.245,2.245,0,0,1-.486,1.117,2.272,2.272,0,0,1-2.249.787,2.273,2.273,0,0,1-1.433,1.9,2.247,2.247,0,0,1-1.211.121,2.267,2.267,0,0,1-3.279-.588,2.268,2.268,0,0,1-3.3-.435,2.265,2.265,0,0,1-1.9-2.734,2.268,2.268,0,0,1-2.028-2.646,2.267,2.267,0,0,1,.588-3.279,2.262,2.262,0,0,1,.436-3.3,2.267,2.267,0,0,1,2.735-1.9,2.268,2.268,0,0,1,1.255-1.824,1.8,1.8,0,0,1,.177-.08,2.25,2.25,0,0,1,1.213-.122,2.268,2.268,0,0,1,3.279.587,2.271,2.271,0,0,1,2.36-.333,2.245,2.245,0,0,1,.942.771,2.267,2.267,0,0,1,1.9,2.733,2.271,2.271,0,0,1,2.028,2.644,2.267,2.267,0,0,1-.588,3.279Z" transform="translate(-130.731 -111.525)" fill="#efe5dc"/>
                    <path id="Path_1802" data-name="Path 1802" d="M147.319,122.106a5.471,5.471,0,1,1-6.006-4.879A5.47,5.47,0,0,1,147.319,122.106Z" transform="translate(-132.959 -113.753)" fill="#d8c4b4"/>
                  </g>
                </g>
              </g>
              <g id="Group_4540" data-name="Group 4540" transform="translate(24.074)">
                <g id="Group_4539" data-name="Group 4539">
                  <g id="Group_4537" data-name="Group 4537" transform="translate(2.394 12.195)">
                    <path id="Path_1803" data-name="Path 1803" d="M186.59,133.589c-.4.593-.508,2.135-.5,3.962.022,3.679.523,8.516.084,9.1-.661.871-6.816-4.759-6.816-4.759s-3.936,3.888-4.8,3.818c-.566-.046-.028-4.89.414-8.247.234-1.784.442-3.146.442-3.146C177.956,128.858,187.8,131.8,186.59,133.589Z" transform="translate(-174.315 -131.177)" fill="#b59985"/>
                  </g>
                  <g id="Group_4538" data-name="Group 4538">
                    <path id="Path_1804" data-name="Path 1804" d="M187.161,121.236a2.28,2.28,0,0,1,.432.82,2.263,2.263,0,0,1-.867,2.484,2.271,2.271,0,0,1-2.736,1.9,2.272,2.272,0,0,1-1.433,1.9,4.419,4.419,0,0,0-2.343.569,2.271,2.271,0,0,1-2.147-1.036,3.554,3.554,0,0,1-5.205-3.169,2.267,2.267,0,0,1-2.028-2.645,2.267,2.267,0,0,1,.588-3.279,2.264,2.264,0,0,1,.435-3.3,2.268,2.268,0,0,1,2.736-1.9,2.268,2.268,0,0,1,1.255-1.824,1.8,1.8,0,0,1,.177-.08,4.419,4.419,0,0,0,2.345-.569,2.272,2.272,0,0,1,2.146,1.034,2.271,2.271,0,0,1,2.36-.333,4.416,4.416,0,0,0,2.059,1.255,2.273,2.273,0,0,1,.787,2.249,2.271,2.271,0,0,1,2.028,2.643,2.267,2.267,0,0,1-.588,3.279Z" transform="translate(-170.374 -111.096)" fill="#efe5dc"/>
                    <path id="Path_1805" data-name="Path 1805" d="M186.962,121.677a5.471,5.471,0,1,1-6.006-4.878A5.472,5.472,0,0,1,186.962,121.677Z" transform="translate(-172.602 -113.324)" fill="#d8c4b4"/>
                  </g>
                </g>
              </g>
            </g>
          </g>
          <g id="Group_4543" data-name="Group 4543" transform="translate(124.143 50.49)">
            <rect id="Rectangle_206" data-name="Rectangle 206" width="70.715" height="48.635" fill="#efe5dc"/>
            <rect id="Rectangle_207" data-name="Rectangle 207" width="25.425" height="51.227" transform="translate(60.971 11.605) rotate(90)" fill="#d8c4b4"/>
          </g>
          <g id="Group_4544" data-name="Group 4544" transform="translate(0 73.62)">
            <rect id="Rectangle_208" data-name="Rectangle 208" width="50.873" height="33.281" transform="translate(0 0)" fill="#efe5dc"/>
            <rect id="Rectangle_209" data-name="Rectangle 209" width="17.398" height="36.853" transform="translate(43.863 7.941) rotate(90)" fill="#d8c4b4"/>
          </g>
        </g>
      </g>
    </g>
    <g id="Group_8985" data-name="Group 8985" transform="translate(-3.169 3.751)">
      <g id="XMLID_557_" transform="translate(218 88.578)">
        <g id="XMLID_1046_" transform="translate(39.963 8.833)">
          <g id="XMLID_1053_">
            <path id="XMLID_1064_" d="M290.364,204.476c-12.526-10.285-24.848-11.012-18-34.734l-22.66-3.112c-2.286,17.813-1.179,19.175-9.368,25.2-1.8,1.33-13.05,6.532-13.05,6.532C243.281,214.5,274.661,215.646,290.364,204.476Z" transform="translate(-227.29 -118.639)" fill="#fd9883"/>
            <path id="XMLID_1063_" d="M283.275,174.2c-1,4.284-1.7,7.947-1.074,12.159-8.078-6.656-20.007-3.6-21.311-14.164C270.933,177.965,279.482,176.878,283.275,174.2Z" transform="translate(-238.878 -120.56)" fill="#ee7952"/>
            <path id="XMLID_1061_" d="M249.861,109.605c-7.278,35,21.638,57.152,34.636,29.637C307.95,89.585,255.789,81.127,249.861,109.605Z" transform="translate(-234.675 -93.374)" fill="#ffc08d"/>
            <path id="XMLID_1060_" d="M263.092,138.316c-1.2-.092-1.782-4.73,1.133-4.5C265.772,133.94,265.051,138.474,263.092,138.316Z" transform="translate(-239.299 -107.319)" fill="#382823"/>
            <path id="XMLID_1059_" d="M293.582,140.716c-1.2-.092-1.782-4.73,1.133-4.5C296.268,136.34,295.548,140.867,293.582,140.716Z" transform="translate(-249.814 -108.147)" fill="#382823"/>
            <path id="XMLID_1058_" d="M263.969,125.06c1.919.269,1.71,1.808.262,2.07-1.939.354-2.286-.373-6.479.721C253.12,129.063,258.839,124.333,263.969,125.06Z" transform="translate(-237.208 -104.276)" fill="#2b2228"/>
            <path id="XMLID_1057_" d="M290.186,127.537c-1.939-.1-2.024,1.441-.655,1.978,1.834.727,2.6.183,6.217,1.965C300.046,133.6,295.4,127.826,290.186,127.537Z" transform="translate(-248.436 -105.155)" fill="#2b2228"/>
            <g id="XMLID_1054_" transform="translate(31.214 28.27)">
              <path id="Path_8006" data-name="Path 8006" d="M278.044,146.349a.254.254,0,0,1-.1-.013c-.563-.118-1.022-.177-1.4-.223-.727-.092-1.205-.157-1.467-.577-.314-.5-.1-1.14.459-2.856.4-1.219,1.009-3.066,1.736-5.791a.5.5,0,0,1,.6-.347.492.492,0,0,1,.347.6c-.734,2.745-1.35,4.612-1.756,5.844a8.132,8.132,0,0,0-.55,2.044c.052.013.426.066.753.1.387.052.871.111,1.467.236a.49.49,0,0,1,.38.583A.484.484,0,0,1,278.044,146.349Z" transform="translate(-274.936 -136.527)" fill="#eb7957"/>
            </g>
            <g id="XMLID_739_" transform="translate(26.909 44.591)">
              <path id="XMLID_830_" d="M280.672,162.324a.3.3,0,0,1,.282.445c-6.4,10.744-13.77-.793-12.428-1.146C271.343,160.863,274.572,162.73,280.672,162.324Z" transform="translate(-268.366 -161.439)" fill="#eb7957"/>
              <path id="XMLID_829_" d="M280.684,163.145c.649-1.022-.1.026-11.261-1.363-1.081-.138-1.343.688.314,1.219C270.542,163.256,279.373,165.215,280.684,163.145Z" transform="translate(-268.43 -161.552)" fill="#fff"/>
              <path id="XMLID_740_" d="M278.568,168.181c-4.252-.236-5.234-.3-3.78.328C277.323,169.61,279.754,168.247,278.568,168.181Z" transform="translate(-270.363 -163.707)" fill="#fff"/>
            </g>
          </g>
          <g id="XMLID_1051_" transform="translate(51.423 30.131)">
            <path id="XMLID_1052_" d="M310.269,139.52c-3.387-1.291-4.173,5.948-4.461,9.545C305.231,156.166,315.6,141.557,310.269,139.52Z" transform="translate(-305.784 -139.368)" fill="#fd9883"/>
          </g>
          <g id="XMLID_1049_" transform="translate(10.923 26.502)">
            <path id="XMLID_1050_" d="M245.94,133.882c3.544-.747,3.19,6.525,2.915,10.128C248.318,151.1,240.358,135.055,245.94,133.882Z" transform="translate(-243.964 -133.828)" fill="#fd9883"/>
          </g>
          <g id="XMLID_1048_" transform="translate(52.889 32.775)">
            <path id="Path_8007" data-name="Path 8007" d="M308.512,148.976a.486.486,0,0,1-.347-.144.494.494,0,0,1,0-.694,4.961,4.961,0,0,0,1.592-3.361.612.612,0,0,0-.111-.4.518.518,0,0,1-.635-.321.467.467,0,0,1,.308-.6,1,1,0,0,1,1.192.452c.577.976.046,3.236-1.657,4.926A.487.487,0,0,1,308.512,148.976Z" transform="translate(-308.022 -143.403)" fill="#ee7952"/>
          </g>
          <g id="XMLID_1047_" transform="translate(12.28 29.616)">
            <path id="Path_8008" data-name="Path 8008" d="M247.728,144.28a.493.493,0,0,1-.393-.2c-1.422-1.926-1.612-4.245-.891-5.123a1,1,0,0,1,1.245-.269.5.5,0,0,1,.236.655.493.493,0,0,1-.655.236.151.151,0,0,0-.052-.02.771.771,0,0,0-.151.373,4.939,4.939,0,0,0,1.061,3.564.487.487,0,0,1-.1.688A.556.556,0,0,1,247.728,144.28Z" transform="translate(-246.035 -138.581)" fill="#ee7952"/>
          </g>
        </g>
        <g id="XMLID_1039_" transform="translate(107.643 395.119)">
          <path id="XMLID_1045_" d="M346.5,707.475c-3.118,3.073-8.49,3.118-13.685.911L330.6,684.461l15.435-1.441Z" transform="translate(-330.6 -683.02)" fill="#fd9883"/>
          <g id="XMLID_1044_" transform="translate(0.45 21.676)">
            <path id="Path_8009" data-name="Path 8009" d="M358.413,730.571c4.625,4.448,5.962,7.377,6.931,11.17.714,2.8.387,5.116-2.561,5.68-5.9,1.12-11.491,1.815-15.421.917-2.123-.485-4.5-1.12-12.126-7.691-4.448-3.832-2.915-3.361-3.053-20.819a1.082,1.082,0,0,1,1.336-1.055c5.254,1.225,10.8-.812,13.128-1.841a1.071,1.071,0,0,1,1.467.708C349.936,724.5,348.364,720.9,358.413,730.571Z" transform="translate(-331.545 -716.359)" fill="#30323e"/>
            <path id="Path_8010" data-name="Path 8010" d="M351.336,748.983a19.949,19.949,0,0,1-4.343-.419c-2.1-.478-4.481-1.022-12.336-7.8-3.492-3.013-3.479-3.616-3.315-11.019.052-2.424.131-5.752.092-10.167a1.566,1.566,0,0,1,.583-1.232,1.582,1.582,0,0,1,1.35-.3c5.156,1.205,10.678-.865,12.814-1.808a1.565,1.565,0,0,1,2.142,1.029c.144.537.269,1.009.373,1.435.832,3.2.832,3.2,3.492,5.516,1.31,1.14,3.3,2.863,6.3,5.752,4.638,4.461,6.06,7.449,7.062,11.406.518,2.044.439,3.564-.256,4.645a3.914,3.914,0,0,1-2.693,1.638A64.734,64.734,0,0,1,351.336,748.983Zm-18.33-30a.589.589,0,0,0-.373.131.578.578,0,0,0-.216.452c.033,4.435-.039,7.763-.092,10.2-.164,7.259-.17,7.547,2.974,10.253,7.671,6.617,9.925,7.128,11.917,7.586,4.173.95,10.325.007,15.225-.917a2.871,2.871,0,0,0,2.044-1.2c.531-.832.577-2.136.131-3.878-.963-3.78-2.326-6.643-6.794-10.94-2.981-2.869-4.959-4.586-6.263-5.719-2.843-2.47-2.915-2.581-3.8-6.014-.111-.419-.229-.891-.373-1.428a.6.6,0,0,0-.314-.38.556.556,0,0,0-.478-.007c-2.227.983-7.992,3.138-13.436,1.867C333.1,718.985,333.051,718.978,333.005,718.978Z" transform="translate(-331.287 -716.107)" fill="#5c5f70"/>
          </g>
          <g id="XMLID_1043_" transform="translate(2.729 41.866)">
            <path id="Path_8011" data-name="Path 8011" d="M352.411,758.57a15.388,15.388,0,0,1-8.123-2.07,41.512,41.512,0,0,1-6.414-5.005c-.773-.694-1.631-1.461-2.673-2.358a1.259,1.259,0,1,1,1.644-1.906c1.055.911,1.926,1.69,2.706,2.391a39.343,39.343,0,0,0,6.073,4.75A13.632,13.632,0,0,0,353.793,756l.275-.02c2.7-.2,8.313-.616,10.207-1.992a1.257,1.257,0,1,1,1.481,2.031c-2.28,1.657-7.128,2.142-11.5,2.463l-.275.02C353.453,758.55,352.928,758.57,352.411,758.57Z" transform="translate(-334.766 -746.926)" fill="#fff"/>
          </g>
          <g id="XMLID_1042_" transform="translate(16.398 39.134)">
            <path id="Path_8012" data-name="Path 8012" d="M356.134,746.8a.5.5,0,0,1,0-1.009c2.5,0,7.062-1.2,8.012-2.791a.5.5,0,0,1,.865.511c-1.284,2.162-6.459,3.289-8.877,3.289Z" transform="translate(-355.63 -742.757)" fill="#fff"/>
          </g>
          <g id="XMLID_1041_" transform="translate(9.51 33.437)">
            <path id="Path_8013" data-name="Path 8013" d="M346.894,738.75c-.465,0-.911-.02-1.323-.059a.5.5,0,0,1,.1-1c3.826.38,9.6-1.1,10.9-3.374a.5.5,0,1,1,.878.5C355.961,737.414,350.668,738.75,346.894,738.75Z" transform="translate(-345.117 -734.06)" fill="#fff"/>
          </g>
          <g id="XMLID_1040_" transform="translate(6.38 28.395)">
            <path id="Path_8014" data-name="Path 8014" d="M341.925,730.023c-.557,0-.95-.013-1.107-.026a.5.5,0,0,1-.478-.524.512.512,0,0,1,.524-.478c2.922.138,8.392-.223,10.416-2.463a.5.5,0,1,1,.747.668C349.754,729.729,344.336,730.023,341.925,730.023Z" transform="translate(-340.339 -726.364)" fill="#fff"/>
          </g>
        </g>
        <g id="XMLID_1032_" transform="translate(13.891 394.745)">
          <path id="XMLID_1038_" d="M212.427,706.853c3.38,2.784,8.733,2.358,13.712-.3l.092-24.03-15.5-.072Z" transform="translate(-195.506 -682.45)" fill="#fd9883"/>
          <g id="XMLID_1037_" transform="translate(0 21.624)">
            <path id="Path_8015" data-name="Path 8015" d="M194.3,730.893c-4.212,4.841-5.287,7.874-5.916,11.74-.459,2.85.066,5.13,3.053,5.431,5.975.6,11.609.793,15.441-.445,2.07-.668,4.389-1.513,11.4-8.733,4.088-4.212,2.607-3.61,1.2-21.01a1.08,1.08,0,0,0-1.422-.93c-5.123,1.684-10.836.144-13.24-.675a1.072,1.072,0,0,0-1.4.839C202.206,724.1,203.458,720.378,194.3,730.893Z" transform="translate(-187.749 -715.719)" fill="#30323e"/>
            <path id="Path_8016" data-name="Path 8016" d="M199.106,748.759c-2.7,0-5.49-.223-7.973-.472a3.864,3.864,0,0,1-2.824-1.389c-.786-1.022-1-2.522-.662-4.606.655-4.029,1.808-7.134,6.027-11.982,2.738-3.144,4.56-5.038,5.772-6.289,2.45-2.542,2.45-2.542,2.994-5.8.072-.426.151-.911.249-1.461a1.559,1.559,0,0,1,.747-1.081,1.581,1.581,0,0,1,1.3-.138c2.214.753,7.9,2.326,12.925.675a1.6,1.6,0,0,1,1.376.183,1.563,1.563,0,0,1,.694,1.173c.354,4.4.721,7.711.989,10.122.819,7.357.884,7.96-2.332,11.268-7.232,7.442-9.552,8.2-11.6,8.857A25.658,25.658,0,0,1,199.106,748.759Zm5.116-32.317a.6.6,0,0,0-.295.079.587.587,0,0,0-.282.406c-.1.544-.177,1.029-.249,1.454-.583,3.5-.642,3.616-3.256,6.322-1.2,1.245-3.014,3.125-5.732,6.25-4.068,4.677-5.175,7.645-5.8,11.5-.288,1.775-.131,3.066.472,3.852a2.909,2.909,0,0,0,2.142,1.015c4.959.491,11.17.891,15.245-.426,1.939-.629,4.14-1.337,11.2-8.608,2.889-2.974,2.863-3.256,2.057-10.475-.269-2.417-.635-5.732-1-10.154a.572.572,0,0,0-.256-.432.594.594,0,0,0-.524-.065c-5.313,1.749-11.242.111-13.548-.675A.344.344,0,0,0,204.222,716.442Z" transform="translate(-187.492 -715.458)" fill="#5c5f70"/>
          </g>
          <g id="XMLID_1036_" transform="translate(0.895 40.694)">
            <path id="Path_8017" data-name="Path 8017" d="M199.184,757.717c-3.806,0-7.652-.223-9.715-1.461a1.256,1.256,0,1,1,1.291-2.155c2,1.205,7.632,1.12,10.338,1.088l.275-.007a13.654,13.654,0,0,0,7.992-2.345A39.286,39.286,0,0,0,215,747.57c.721-.766,1.513-1.625,2.483-2.62a1.256,1.256,0,0,1,1.8,1.749c-.956.983-1.743,1.821-2.45,2.581a41.651,41.651,0,0,1-5.955,5.555,16.058,16.058,0,0,1-9.479,2.856l-.275.006C200.494,757.711,199.839,757.717,199.184,757.717Z" transform="translate(-188.859 -744.567)" fill="#fff"/>
          </g>
          <g id="XMLID_1035_" transform="translate(8.347 39.866)">
            <path id="Path_8018" data-name="Path 8018" d="M208.512,746.623c-2.634,0-6.885-.727-8.182-2.522a.5.5,0,0,1,.812-.59c1.081,1.5,5.739,2.293,8.228,2.077a.5.5,0,1,1,.085,1C209.18,746.61,208.859,746.623,208.512,746.623Z" transform="translate(-200.234 -743.304)" fill="#fff"/>
          </g>
          <g id="XMLID_1034_" transform="translate(11.774 33.827)">
            <path id="Path_8019" data-name="Path 8019" d="M214.8,737.94c-3.551,0-7.77-.937-9.244-3.066a.5.5,0,0,1,.825-.577c1.494,2.155,7.383,3.118,11.157,2.4a.5.5,0,0,1,.19.989A15.9,15.9,0,0,1,214.8,737.94Z" transform="translate(-205.465 -734.085)" fill="#fff"/>
          </g>
          <g id="XMLID_1033_" transform="translate(15.017 28.481)">
            <path id="Path_8020" data-name="Path 8020" d="M218.266,728.837c-2.607,0-5.909-.373-7.691-2.037a.506.506,0,0,1-.026-.714.5.5,0,0,1,.708-.026c2.208,2.057,7.7,1.933,10.593,1.539a.5.5,0,1,1,.131,1A27.723,27.723,0,0,1,218.266,728.837Z" transform="translate(-210.414 -725.924)" fill="#fff"/>
          </g>
        </g>
        <g id="XMLID_1015_" transform="translate(0 142.166)">
          <path id="Path_8021" data-name="Path 8021" d="M204.992,328.214c-2.627,15.841-19.791,35.239-23.06,122.991-1.277,34.236-.819,68.938-9.276,102.132-1.815,7.121-9.047,16.791-3.642,23.807,7.095,5.346,16.66-1.238,21.062-4.651a55.818,55.818,0,0,1,55.252-6.938c17.878,7.763,17.472,10.613,37.224,4.632,17.93-5.424,37.459.911,55.953,3.9a2.358,2.358,0,0,0,2.712-2.693c-2.358-14.635-14.458-26.2-21.828-39.412-9.073-16.26-11.779-20.472-47.129-208.333-1.684-8.942-.314-16.05.445-25.635-40.028,15.546-53.962,2.221-70.431,4.645C204.015,312.531,206.767,317.47,204.992,328.214Z" transform="translate(-166.548 -297.286)"/>
          <path id="Path_8022" data-name="Path 8022" d="M174.9,579.287a10.462,10.462,0,0,1-6.446-2.136l-.092-.092c-4.1-5.32-1.264-12.047,1.245-17.983a46.9,46.9,0,0,0,2.313-6.243c7.062-27.724,7.907-56.956,8.726-85.23.157-5.51.328-11.209.531-16.8,2.457-65.839,12.7-93.2,18.828-109.542,2-5.352,3.59-9.584,4.239-13.508,1.284-7.75.19-12.382-1.192-18.245-.518-2.195-1.055-4.468-1.526-7.141l-.085-.5.5-.072c5.457-.806,10.56.085,16.47,1.114,12.041,2.09,27.023,4.691,53.85-5.726l.727-.282-.059.78c-.157,1.992-.341,3.872-.524,5.693-.675,6.866-1.251,12.794.066,19.811,35.16,186.826,38.128,192.145,46.939,207.94l.138.249a144.673,144.673,0,0,0,8.313,12.7c5.883,8.346,11.969,16.974,13.567,26.873a2.851,2.851,0,0,1-3.282,3.249c-3.99-.649-8.1-1.461-12.087-2.247-14.6-2.9-29.7-5.89-43.644-1.671-16.646,5.038-19.208,3.839-30-1.212-2.155-1.009-4.6-2.155-7.567-3.439-17.59-7.639-39.6-4.874-54.755,6.872C184.272,577.021,179.182,579.287,174.9,579.287Zm-5.8-2.883c4.867,3.616,11.733,2.044,20.413-4.684,15.435-11.962,37.839-14.773,55.75-7,2.981,1.291,5.431,2.444,7.593,3.452,10.77,5.038,13.011,6.093,29.3,1.16,14.183-4.291,29.4-1.277,44.122,1.644,3.97.786,8.078,1.6,12.048,2.247a1.876,1.876,0,0,0,2.155-2.129c-1.559-9.683-7.58-18.212-13.4-26.467a146.817,146.817,0,0,1-8.372-12.788l-.138-.249c-9.113-16.325-11.858-21.252-47.044-208.235-1.35-7.16-.76-13.155-.079-20.092.157-1.572.314-3.2.459-4.894-26.63,10.187-41.6,7.593-53.647,5.5-5.641-.983-10.541-1.834-15.657-1.173.445,2.43.943,4.54,1.422,6.577,1.408,5.968,2.522,10.685,1.205,18.631l-.485-.079.485.079c-.668,4.016-2.267,8.287-4.291,13.692-6.106,16.293-16.319,43.552-18.769,109.234-.21,5.588-.373,11.288-.531,16.8-.819,28.321-1.671,57.611-8.759,85.44a48.2,48.2,0,0,1-2.358,6.387C168,565.4,165.405,571.544,169.093,576.4Z" transform="translate(-166.289 -296.9)"/>
        </g>
        <g id="XMLID_593_" transform="translate(9.887 85.173)">
          <path id="Path_8023" data-name="Path 8023" d="M188.238,243.184c8.2-46.788,41.633-40.1,31.328.9-8.621,34.335-9.643,41.849-15.683,48.328-4.108,4.409-14.334,9.06-19.4,3.669-4.546-4.848-1.258-16.574-.635-22.2Q185.558,258.467,188.238,243.184Z" transform="translate(-181.635 -210.162)"/>
          <path id="Path_8024" data-name="Path 8024" d="M190.342,298.741a8.481,8.481,0,0,1-6.459-2.581c-3.819-4.068-2.4-12.513-1.363-18.671.242-1.448.472-2.824.6-3.918,1.133-10.246,2.607-20.584,4.389-30.725l.485.085-.485-.085c3.04-17.354,9.984-29.447,18.566-32.35a9.715,9.715,0,0,1,10.1,2.09c5.844,5.4,7.2,17.118,3.623,31.36-1.363,5.424-2.535,10.181-3.57,14.373-5.562,22.556-7.056,28.622-12.231,34.171-2.817,3.027-8.556,6.243-13.633,6.256A.024.024,0,0,0,190.342,298.741Zm19.175-87.857a9.754,9.754,0,0,0-3.138.537C200.018,213.57,191.974,223,188.469,243c-1.775,10.122-3.249,20.44-4.376,30.666-.124,1.127-.36,2.509-.6,3.97-1,5.962-2.378,14.124,1.107,17.839a7.479,7.479,0,0,0,5.765,2.273c4.8-.007,10.233-3.066,12.912-5.942,5-5.359,6.479-11.373,12-33.732,1.035-4.186,2.208-8.949,3.57-14.373,3.492-13.888,2.24-25.255-3.335-30.4A8.688,8.688,0,0,0,209.518,210.884Z" transform="translate(-181.381 -209.904)"/>
        </g>
        <g id="XMLID_590_" transform="translate(16.39 90.957)">
          <g id="XMLID_592_" transform="translate(5.223)">
            <path id="Path_8025" data-name="Path 8025" d="M199.771,238.6a.5.5,0,0,1-.491-.518c.3-6.224,3.511-12.683,9.532-19.195a.491.491,0,0,1,.721.668c-5.857,6.342-8.982,12.591-9.27,18.579A.49.49,0,0,1,199.771,238.6Z" transform="translate(-199.279 -218.732)" fill="#5c5f70"/>
          </g>
          <g id="XMLID_591_" transform="translate(0 55.236)">
            <path id="Path_8026" data-name="Path 8026" d="M201.489,315.83a.547.547,0,0,1-.144-.02,14.676,14.676,0,0,1-10.036-12.224.491.491,0,0,1,.976-.1,13.682,13.682,0,0,0,9.348,11.386.488.488,0,0,1-.144.956Z" transform="translate(-191.306 -303.046)" fill="#5c5f70"/>
          </g>
        </g>
        <g id="XMLID_589_" transform="translate(95.528 84.256)">
          <path id="Path_8027" data-name="Path 8027" d="M346.149,241.784c-8.2-46.788-41.633-40.1-31.328.9,8.621,34.335,9.643,41.849,15.683,48.328,4.108,4.409,11.058,9.06,16.122,3.669,4.546-4.848,1.258-16.574.635-22.2C346.117,262.2,347.931,251.971,346.149,241.784Z" transform="translate(-312.37 -208.762)"/>
          <path id="Path_8028" data-name="Path 8028" d="M341.052,297.341c-4.835-.007-9.427-4.376-11.176-6.256-5.169-5.549-6.663-11.609-12.231-34.164-1.035-4.186-2.208-8.949-3.57-14.373-3.577-14.242-2.221-25.969,3.623-31.36a9.718,9.718,0,0,1,10.1-2.09c8.582,2.9,15.526,15,18.566,32.35.989,5.641.878,11.373.78,16.922a108.24,108.24,0,0,0,.334,13.8c.124,1.094.354,2.47.6,3.918,1.035,6.165,2.457,14.609-1.363,18.671A7.548,7.548,0,0,1,341.052,297.341Zm-16.7-87.851a8.711,8.711,0,0,0-5.988,2.417c-5.575,5.149-6.826,16.515-3.335,30.4,1.363,5.431,2.535,10.187,3.57,14.38,5.516,22.359,7,28.373,12,33.732,1.664,1.782,6.007,5.935,10.443,5.942A6.634,6.634,0,0,0,346,294.086c3.485-3.715,2.109-11.877,1.107-17.839-.249-1.467-.478-2.85-.6-3.97a108.045,108.045,0,0,1-.341-13.934c.1-5.5.21-11.189-.76-16.732-3.5-20.007-11.55-29.434-17.911-31.583A9.784,9.784,0,0,0,324.353,209.49Z" transform="translate(-312.107 -208.504)"/>
        </g>
        <g id="XMLID_586_" transform="translate(112.6 91.418)">
          <g id="XMLID_588_" transform="translate(11.888 45.964)">
            <path id="Path_8029" data-name="Path 8029" d="M356.8,301.889a.466.466,0,0,1-.242-.065.493.493,0,0,1-.183-.668,19.281,19.281,0,0,0,2.457-11.026.493.493,0,0,1,.983-.079,20.253,20.253,0,0,1-2.581,11.6A.522.522,0,0,1,356.8,301.889Z" transform="translate(-356.314 -289.598)" fill="#5c5f70"/>
          </g>
          <g id="XMLID_587_">
            <path id="Path_8030" data-name="Path 8030" d="M345.277,234.893a.487.487,0,0,1-.485-.419,28.417,28.417,0,0,0-6.505-14.223.492.492,0,0,1,.747-.642,29.44,29.44,0,0,1,6.735,14.72.489.489,0,0,1-.413.557C345.323,234.887,345.3,234.893,345.277,234.893Z" transform="translate(-338.167 -219.437)" fill="#5c5f70"/>
          </g>
        </g>
        <g id="XMLID_1014_" transform="translate(29.797 76.53)">
          <path id="Path_8031" data-name="Path 8031" d="M266.383,198.451c5.149,1.048,11.654,3.158,23.021,7.121,5.883,33.837-4.966,61.168-1.12,85.3-24.442,9.7-45.314,13.928-67.962,4.461,3.033-18.258-15.074-66.317-4.4-88.853,7.691-3.3,14.851-6.879,24.665-8.916C248.636,210.892,254.774,208.586,266.383,198.451Z" transform="translate(-212.029 -197.003)"/>
          <path id="Path_8032" data-name="Path 8032" d="M246.249,300.873a67.219,67.219,0,0,1-26.368-5.385l-.36-.151.066-.387c1.186-7.134-.956-19.228-3.23-32.029-3.583-20.243-7.652-43.185-1.127-56.956l.079-.17.17-.072c1.225-.524,2.437-1.061,3.649-1.592,6.3-2.771,12.807-5.634,21.108-7.35l.341-.072.177.3c3.367,5.588,6.44,8.425,9.663,8.929,4.271.668,9.047-2.627,15.382-8.156l.183-.157.236.046c5.293,1.081,12.2,3.341,23.086,7.141l.275.092.052.282c3.236,18.631,1.4,35.566-.236,50.5-1.343,12.329-2.614,23.977-.884,34.806l.059.386-.367.144C273.384,296.923,259.817,300.873,246.249,300.873Zm-25.635-6.145c22.529,9.283,43.061,4.953,66.874-4.468-1.657-10.842-.393-22.425.943-34.675,1.612-14.8,3.439-31.557.288-49.939-10.534-3.669-17.288-5.883-22.451-6.957-6.459,5.621-11.4,8.949-16,8.228-3.518-.55-6.663-3.361-10.174-9.093-8.038,1.71-14.413,4.507-20.571,7.219q-1.739.766-3.485,1.52c-6.276,13.508-2.26,36.182,1.284,56.2C219.665,275.972,221.689,287.411,220.615,294.728Z" transform="translate(-211.772 -196.71)" fill="#5c5f70"/>
        </g>
        <g id="XMLID_1013_" transform="translate(51.73 78.32)">
          <path id="Path_8033" data-name="Path 8033" d="M271.469,218.5a.564.564,0,0,1-.1-.007.834.834,0,0,1-.635-.465,18.858,18.858,0,0,0-6.23-7.4.227.227,0,0,0-.269.013,15.439,15.439,0,0,0-4.861,7,.826.826,0,0,1-.59.537.8.8,0,0,1-.76-.223c-5.392-5.444-10.665-11.373-12.742-17.872a.491.491,0,0,1,.937-.295c1.992,6.23,7.075,11.989,12.31,17.288a16.366,16.366,0,0,1,5.077-7.187,1.21,1.21,0,0,1,1.461-.059,19.8,19.8,0,0,1,6.446,7.553c3.957-4.645,9.283-10.934,11.556-16.725a.49.49,0,1,1,.911.36c-2.365,6.034-7.874,12.486-11.9,17.2A.8.8,0,0,1,271.469,218.5Z" transform="translate(-245.253 -199.443)" fill="#d0a99a"/>
        </g>
        <path id="XMLID_1012_" d="M299.99,680.675c10.829-15.205,14.2-41.089,10.239-60.316-.052-.249.367-.321.485-.092,10.253,20.177,17.682,61.024,17.682,61.024C316.04,685.733,309,685.608,299.99,680.675Z" transform="translate(-212.4 -266.211)" fill="#5c5f70"/>
        <path id="XMLID_1011_" d="M364.9,690.622c.419-16.627-2.66-22.215-9.532-37.2-.046-.1.085-.2.157-.111,12.165,14.013,22.621,38.619,22.621,38.619A103.846,103.846,0,0,0,364.9,690.622Z" transform="translate(-231.495 -277.645)" fill="#5c5f70"/>
        <path id="XMLID_1010_" d="M252.927,681.464c-6.322-8.877-7.96-24.023-5.647-35.245.033-.144-.216-.19-.282-.052-5.981,11.772-10.318,36.182-10.318,36.182A57.227,57.227,0,0,1,252.927,681.464Z" transform="translate(-190.566 -275.163)" fill="#5c5f70"/>
        <g id="XMLID_1009_" transform="translate(144.099 366.083)">
          <path id="Path_8034" data-name="Path 8034" d="M403.872,672.857a.5.5,0,0,1-.373-.17,81.054,81.054,0,0,1-17.236-33.378.493.493,0,0,1,.956-.236,80.013,80.013,0,0,0,17.026,32.972.49.49,0,0,1-.052.695A.512.512,0,0,1,403.872,672.857Z" transform="translate(-386.248 -638.698)" fill="#5c5f70"/>
        </g>
        <g id="XMLID_1003_" transform="translate(35.136 143.983)">
          <g id="XMLID_1008_" transform="translate(53.409)">
            <path id="Path_8035" data-name="Path 8035" d="M301.94,315.7a.489.489,0,0,1-.124-.963,22.493,22.493,0,0,0,15.5-14.714.488.488,0,0,1,.616-.321.5.5,0,0,1,.321.616,23.5,23.5,0,0,1-16.194,15.369A.649.649,0,0,1,301.94,315.7Z" transform="translate(-301.447 -299.674)" fill="#5c5f70"/>
          </g>
          <g id="XMLID_1007_" transform="translate(1.148 2.037)">
            <path id="Path_8036" data-name="Path 8036" d="M237.879,319.336a.5.5,0,0,1-.2-.039,32.086,32.086,0,0,1-15.965-15.821.492.492,0,0,1,.242-.649.487.487,0,0,1,.649.242,31.1,31.1,0,0,0,15.467,15.33.489.489,0,0,1-.2.937Z" transform="translate(-221.674 -302.782)" fill="#5c5f70"/>
          </g>
          <g id="XMLID_1006_" transform="translate(0 57.492)">
            <path id="Path_8037" data-name="Path 8037" d="M245.719,417.048A.514.514,0,0,1,245.5,417a50.271,50.271,0,0,1-25.556-28.923.491.491,0,1,1,.93-.314,49.319,49.319,0,0,0,25.058,28.353.493.493,0,0,1,.229.655A.509.509,0,0,1,245.719,417.048Z" transform="translate(-219.922 -387.432)" fill="#5c5f70"/>
          </g>
          <g id="XMLID_1005_" transform="translate(49.287 87.643)">
            <path id="Path_8038" data-name="Path 8038" d="M295.65,466.136a.5.5,0,0,1-.393-.19.49.49,0,0,1,.092-.688,47.034,47.034,0,0,0,17.924-31.373.492.492,0,1,1,.976.125,47.969,47.969,0,0,1-18.3,32.029A.517.517,0,0,1,295.65,466.136Z" transform="translate(-295.156 -433.456)" fill="#5c5f70"/>
          </g>
          <g id="XMLID_1004_" transform="translate(25.017 162.774)">
            <path id="Path_8039" data-name="Path 8039" d="M277.016,593.356a.492.492,0,0,1-.36-.157,70.611,70.611,0,0,1-18.546-44.548.492.492,0,0,1,.983-.039,69.589,69.589,0,0,0,18.284,43.919.5.5,0,0,1-.026.694A.512.512,0,0,1,277.016,593.356Z" transform="translate(-258.109 -548.139)" fill="#5c5f70"/>
          </g>
        </g>
        <path id="XMLID_1002_" d="M285.19,101.584c-10.593-7.54-34.6.157-31.688,5.542C254.852,109.635,298.181,110.834,285.19,101.584Z" transform="translate(-196.284 -86.288)"/>
        <g id="XMLID_999_" transform="translate(25.425 0)">
          <path id="Path_8040" data-name="Path 8040" d="M299.085,171.639c-3.695-6.643-14.675-8.864-20.21-10.691-3.878-1.277,2.83-4.049-2.693-7.383-1.684-1.015-5.5-1.815-6.309-6.872a9.121,9.121,0,0,1,2.64-7.757c17.819-18.258,11.216-62.216-24.141-58.286-9.506,1.055-12.021,5.2-15.277,12.513-2.791,6.263-9.728,18.887,1.022,41.2a22.747,22.747,0,0,1,1.992,6.525c.786,5.372,1.042,8-7.056,11.576a3.344,3.344,0,0,0-1.782,2.332c-.753,2.889-17.341,5.221-21.566,18.7-1.54,4.92,17.891,2.693,24.894,3.6,9.866,1.271,32.946,19.385,62.57,1.926C299.3,175.406,301.161,175.379,299.085,171.639Zm-48.629-25a8.55,8.55,0,0,1-3.452-1.6c-7.606-5.863-9.65-11.026-10.5-16.037-4.874-28.864,12.041-42.2,28.242-31.7C283.067,109.174,270.908,150.865,250.455,146.64Z" transform="translate(-205.278 -80.067)"/>
          <path id="Path_8041" data-name="Path 8041" d="M266.654,186.766c-10.993,0-20.276-3.721-27.443-6.59-3.538-1.415-6.59-2.64-8.844-2.928A77.543,77.543,0,0,0,221.53,177c-7.115.026-14.472.059-16.09-2.136a1.735,1.735,0,0,1-.236-1.644c2.922-9.309,11.792-13.45,17.092-15.919,2.293-1.068,4.271-1.992,4.474-2.765a3.669,3.669,0,0,1,1.972-2.548c7.992-3.531,7.619-6.106,6.866-11.235a22.2,22.2,0,0,0-1.959-6.433c-10.239-21.252-4.56-33.719-1.507-40.414.17-.373.334-.727.478-1.061,3.19-7.16,5.641-11.609,15.539-12.7,18.671-2.07,26.984,8.955,30.286,15.716,6.767,13.875,4.193,32.815-5.87,43.126a8.856,8.856,0,0,0-2.548,7.481c.635,3.99,3.184,5.2,5.051,6.079a12.152,12.152,0,0,1,1.1.563c3.315,2,2.509,3.9,1.919,5.287-.242.577-.452,1.068-.3,1.408a1.61,1.61,0,0,0,1,.655c.858.282,1.861.577,2.922.891,6.027,1.782,14.288,4.219,17.472,9.951.793,1.422,1.179,2.575.518,3.59-.563.865-1.775,1.54-3.793,2.66-.8.445-1.716.956-2.758,1.566C283.524,184.8,274.64,186.766,266.654,186.766Zm-42.831-10.429a57.738,57.738,0,0,1,6.636.255c2.332.3,5.274,1.481,9,2.974,12.244,4.907,30.751,12.323,53.359-1,1.048-.616,1.972-1.133,2.771-1.579,1.86-1.035,3.092-1.716,3.564-2.444.426-.655.275-1.441-.544-2.915-3.059-5.5-11.163-7.888-17.085-9.637-1.068-.314-2.07-.609-2.935-.9a2.139,2.139,0,0,1-1.4-1,2.423,2.423,0,0,1,.295-1.939c.576-1.356,1.173-2.765-1.657-4.474-.288-.17-.635-.341-1.042-.531-1.887-.891-4.73-2.241-5.418-6.571a9.5,9.5,0,0,1,2.732-8.038c9.879-10.122,12.408-28.74,5.752-42.379-3.223-6.6-11.36-17.38-29.624-15.356-9.545,1.061-11.923,5.372-15.015,12.323-.151.334-.314.694-.485,1.068-3.007,6.6-8.608,18.88,1.5,39.857a22.843,22.843,0,0,1,2.018,6.623c.832,5.68.858,8.346-7.252,11.923a3.051,3.051,0,0,0-1.6,2.116c-.282,1.074-2.09,1.913-4.828,3.19-5.542,2.581-13.908,6.486-16.745,15.52a1.112,1.112,0,0,0,.138,1.061c1.422,1.926,9.257,1.893,15.559,1.867C222.31,176.343,223.076,176.336,223.823,176.336ZM253.192,147.1a14.374,14.374,0,0,1-2.981-.314,8.853,8.853,0,0,1-3.59-1.657c-7.96-6.132-9.807-11.432-10.619-16.24-2.588-15.317.773-27.679,8.982-33.083,5.719-3.76,12.925-3.38,19.758,1.048,10.534,6.826,11.026,23.152,6.145,35.055C267.748,139.558,261.577,147.1,253.192,147.1Zm.373-53.208a14.814,14.814,0,0,0-8.222,2.457c-7.986,5.254-11.235,17.374-8.693,32.422.793,4.678,2.594,9.84,10.377,15.834a8.28,8.28,0,0,0,3.321,1.54c9.512,1.965,16.535-6.2,19.935-14.485,4.782-11.654,4.337-27.62-5.9-34.256A20.061,20.061,0,0,0,253.565,93.89Z" transform="translate(-205.099 -79.891)" fill="#5c5f70"/>
        </g>
        <g id="XMLID_988_" transform="translate(31.758 10.578)">
          <g id="XMLID_998_" transform="translate(26.389)">
            <path id="Path_8042" data-name="Path 8042" d="M259.157,104.267a.322.322,0,0,1-.2-.066c-2.339-1.73-3.184-4.658-3.9-7.763a.327.327,0,0,1,.635-.151c.694,2.981,1.5,5.785,3.656,7.383a.325.325,0,0,1,.065.459A.3.3,0,0,1,259.157,104.267Z" transform="translate(-255.047 -96.037)" fill="#5c5f70"/>
          </g>
          <g id="XMLID_997_" transform="translate(55.515 2.496)">
            <path id="Path_8043" data-name="Path 8043" d="M299.837,106.1a.329.329,0,0,1-.1-.642,4.614,4.614,0,0,0,3-5.208.329.329,0,1,1,.642-.144,5.284,5.284,0,0,1-3.439,5.968A.185.185,0,0,1,299.837,106.1Z" transform="translate(-299.508 -99.848)" fill="#5c5f70"/>
          </g>
          <g id="XMLID_996_" transform="translate(23.906 48.144)">
            <path id="Path_8044" data-name="Path 8044" d="M259.487,180.725a.321.321,0,0,1-.183-.059,20.483,20.483,0,0,1-8.032-10.711.327.327,0,1,1,.622-.2,19.835,19.835,0,0,0,7.776,10.364.326.326,0,0,1,.092.452A.309.309,0,0,1,259.487,180.725Z" transform="translate(-251.258 -169.528)" fill="#5c5f70"/>
          </g>
          <g id="XMLID_995_" transform="translate(49.581 50.466)">
            <path id="Path_8045" data-name="Path 8045" d="M290.777,184.181a.324.324,0,0,1-.269-.138.333.333,0,0,1,.079-.459c3.249-2.273,7.449-5.9,9.034-10.3a.327.327,0,1,1,.616.223c-1.644,4.56-5.948,8.287-9.27,10.613A.341.341,0,0,1,290.777,184.181Z" transform="translate(-290.45 -173.072)" fill="#5c5f70"/>
          </g>
          <g id="XMLID_994_" transform="translate(16.189 64.293)">
            <path id="Path_8046" data-name="Path 8046" d="M257.639,205.224a.181.181,0,0,1-.059-.007c-7.029-1.291-17.727-6.342-18.1-10.685a.329.329,0,0,1,.3-.354.321.321,0,0,1,.354.3c.321,3.7,10.089,8.726,17.57,10.1a.327.327,0,0,1,.262.38A.336.336,0,0,1,257.639,205.224Z" transform="translate(-239.479 -194.177)" fill="#5c5f70"/>
          </g>
          <g id="XMLID_993_" transform="translate(52.203 69.608)">
            <path id="Path_8047" data-name="Path 8047" d="M294.778,211.337a.323.323,0,0,1-.321-.275.331.331,0,0,1,.269-.38,23.707,23.707,0,0,0,13.725-8.268.326.326,0,1,1,.511.406,24.422,24.422,0,0,1-14.131,8.5A.071.071,0,0,1,294.778,211.337Z" transform="translate(-294.452 -202.291)" fill="#5c5f70"/>
          </g>
          <g id="XMLID_992_" transform="translate(54.396 59.114)">
            <path id="Path_8048" data-name="Path 8048" d="M298.127,199.3a.328.328,0,0,1-.229-.563c.465-.452.9-.865,1.31-1.258,4.153-3.957,5.267-5.018,3.328-10.777a.324.324,0,0,1,.2-.413.319.319,0,0,1,.413.2c2.077,6.158.786,7.383-3.5,11.458-.406.387-.845.806-1.3,1.251A.273.273,0,0,1,298.127,199.3Z" transform="translate(-297.799 -186.273)" fill="#5c5f70"/>
          </g>
          <g id="XMLID_991_" transform="translate(19.135 84.603)">
            <path id="Path_8049" data-name="Path 8049" d="M269.6,231.744c-2.856,0-5.005-1.14-7.442-2.43-3.957-2.1-8.444-4.481-17.806-3.053a.328.328,0,0,1-.1-.649c9.571-1.461,14.36,1.081,18.212,3.125,2.706,1.435,5.044,2.673,8.385,2.28a.321.321,0,0,1,.36.288.325.325,0,0,1-.288.36A11.636,11.636,0,0,1,269.6,231.744Z" transform="translate(-243.975 -225.18)" fill="#5c5f70"/>
          </g>
          <g id="XMLID_990_" transform="translate(0 75.611)">
            <path id="Path_8050" data-name="Path 8050" d="M215.136,219.025a.331.331,0,0,1-.328-.282c-.347-2.666,1.448-6.079,6.211-7.278a.331.331,0,0,1,.4.236.326.326,0,0,1-.236.4c-4.376,1.1-6.034,4.173-5.719,6.558a.329.329,0,0,1-.282.367A.107.107,0,0,0,215.136,219.025Z" transform="translate(-214.766 -211.454)" fill="#5c5f70"/>
          </g>
          <g id="XMLID_989_" transform="translate(58.733 74.02)">
            <path id="Path_8051" data-name="Path 8051" d="M304.747,224.122a.332.332,0,0,1-.328-.321.324.324,0,0,1,.321-.334c16.869-.373,20.977-4.619,21.959-6.427a3.471,3.471,0,0,0-.118-3.656c-1.448-2.345-5.221-3.832-9.4-3.695a.333.333,0,0,1-.341-.314.329.329,0,0,1,.314-.341c4.474-.151,8.385,1.422,9.977,4a4.149,4.149,0,0,1,.138,4.311c-2.188,4.035-10.4,6.5-22.516,6.767Z" transform="translate(-304.42 -209.025)" fill="#5c5f70"/>
          </g>
        </g>
        <g id="XMLID_579_" transform="translate(53.491 143.831)">
          <path id="XMLID_581_" d="M317.5,305.72a12.714,12.714,0,0,1-3.9,1.029c5.5-9.866,32.671-1.225,26.218.734C336.988,308.34,326.2,302.85,317.5,305.72Z" transform="translate(-270.585 -300.362)" fill="#ecaf7e"/>
          <path id="XMLID_580_" d="M286.12,301.164c-2.9.773-5.7,1.893-8.6,2.673-9.591,2.561-19.8,1.238-29.578,2.968a42.579,42.579,0,0,0,2.588,12.7q12.814-2.486,25.353-6.2a21.586,21.586,0,0,1,5.51-1.133c4.088-.092,8.942,2.594,19.332,1.815,3.256-.242,3.715-3.02.19-3.217-6.787-.373-7.658-.092-7.553-1.592.727-10.364,19.542-3.439,22.529-6.525C319.623,298.8,295.881,298.556,286.12,301.164Z" transform="translate(-247.94 -299.442)" fill="#ffc08d"/>
        </g>
        <g id="XMLID_578_" transform="translate(9.833 146.981)">
          <path id="Path_8052" data-name="Path 8052" d="M255.28,321.819c-21.769,7.141-58.351,14.982-65.426,12.3-3.9-1.481-6.3-5.51-7.311-9.558-3.046-12.224,6.807-14.95,51.413-18.324C251.723,304.9,252.967,300.79,255.28,321.819Z" transform="translate(-181.552 -304.511)"/>
          <path id="Path_8053" data-name="Path 8053" d="M194.113,334.883a14.209,14.209,0,0,1-4.684-.57c-3.61-1.369-6.387-4.979-7.612-9.9-.917-3.669-.622-6.374.911-8.5,4.3-5.948,19.188-8.025,50.942-10.429,2.771-.21,5.116-.485,7.18-.727,5.149-.6,8.254-.963,10.351.7,2.411,1.919,3.249,6.3,4.317,16.037l.046.393-.38.125C237.331,327.88,206.947,334.883,194.113,334.883Zm52.645-29.644a54.562,54.562,0,0,0-5.8.5c-2.077.242-4.429.518-7.219.727-31.432,2.378-46.146,4.389-50.215,10.023-1.376,1.9-1.605,4.278-.76,7.691.544,2.175,2.313,7.436,7.01,9.217,6.558,2.483,41.868-4.737,64.719-12.185-1-9-1.815-13.318-3.911-14.982A5.963,5.963,0,0,0,246.758,305.239Z" transform="translate(-181.298 -304.25)"/>
        </g>
        <g id="XMLID_568_" transform="translate(14.439 128.046)">
          <path id="XMLID_577_" d="M237.6,304.561c-1.867-4.553-2.24-12.231-2.011-12.179-5.175-1.205-8.444,6.787-12.919-1.232-1.788-3.485-16.633-14.884-14.006-9.65.976,1.946,3.59,5.28,2.365,4.507-8.628-5.411-17.989-13.508-16.935-9.656.459,1.677,12.434,11.471,11.261,10.7-.275-.177-14.242-9.859-14.57-9.833-4.5.321,4.284,6.178,11.8,12.323.956.78-13.377-7.56-13.391-7.56-2.941,1.271,1.618,3.5,13.6,11.858,1.618,1.127-14.137-8.248-11.72-3.131,14.511,10.606,23.3,13.325,26.506,14.019C218.982,305.53,237.6,304.561,237.6,304.561Z" transform="translate(-188.329 -275.347)" fill="#ffc08d"/>
          <g id="XMLID_575_" transform="translate(14.616 18.337)">
            <path id="XMLID_576_" d="M211.255,303.405a23.69,23.69,0,0,0,5.8,2.568c1.12.328.183,2.051-6.224-1.88A.4.4,0,0,1,211.255,303.405Z" transform="translate(-210.639 -303.339)" fill="#ecaf7e"/>
          </g>
          <g id="XMLID_573_" transform="translate(15.424 14.392)">
            <path id="XMLID_574_" d="M212.454,297.476a24.355,24.355,0,0,0,7.187,3.544.4.4,0,0,1-.236.773C211.15,299.3,211.275,296.631,212.454,297.476Z" transform="translate(-211.872 -297.316)" fill="#ecaf7e"/>
          </g>
          <g id="XMLID_571_" transform="translate(17.836 12.012)">
            <path id="XMLID_572_" d="M216.259,293.819a8.628,8.628,0,0,0,5.4,2.686.4.4,0,0,1-.079.8,9.419,9.419,0,0,1-5.909-2.935A.4.4,0,0,1,216.259,293.819Z" transform="translate(-215.554 -293.684)" fill="#ecaf7e"/>
          </g>
          <g id="XMLID_569_" transform="translate(23.421 11.304)">
            <path id="XMLID_570_" d="M224.152,293.23a.4.4,0,0,1,.675-.439,8.67,8.67,0,0,0,5.457,3.374.4.4,0,0,1-.138.793A9.495,9.495,0,0,1,224.152,293.23Z" transform="translate(-224.08 -292.602)" fill="#ecaf7e"/>
          </g>
        </g>
        <g id="XMLID_567_" transform="translate(52.015 142.36)">
          <path id="Path_8054" data-name="Path 8054" d="M246.55,314.4a2.037,2.037,0,0,0,1.4,1.841c21.979,7.187,60.382,15.814,67.542,13.915,4.265-1.127,9.755-4.494,10.1-9.172,1.566-21.219-57.657-23.892-74.709-22.877a2.043,2.043,0,0,0-1.638,1.015C246.314,304.1,246.262,308.632,246.55,314.4Z" transform="translate(-245.945 -297.447)"/>
          <path id="Path_8055" data-name="Path 8055" d="M312.36,330.662c-11.943,0-46.028-8.058-64.824-14.2a2.547,2.547,0,0,1-1.736-2.28c-.282-5.673-.262-10.416,2.758-15.546a2.525,2.525,0,0,1,2.031-1.251c14.524-.865,58.456.871,71.519,14.124a11.642,11.642,0,0,1,3.708,9.276c-.354,4.789-5.673,8.34-10.469,9.611A13.11,13.11,0,0,1,312.36,330.662Zm-54.322-32.5c-2.9,0-5.411.072-7.383.19a1.569,1.569,0,0,0-1.245.773c-2.889,4.907-2.909,9.309-2.627,15a1.552,1.552,0,0,0,1.061,1.4c20.708,6.774,53.313,14.164,64.476,14.164a11.8,11.8,0,0,0,2.784-.255c3.728-.989,9.4-4.127,9.742-8.733a10.726,10.726,0,0,0-3.426-8.517C310.342,300.952,276.381,298.162,258.038,298.162Z" transform="translate(-245.686 -297.196)"/>
        </g>
        <g id="XMLID_564_" transform="translate(80.365 144.801)">
          <g id="XMLID_566_">
            <path id="Path_8056" data-name="Path 8056" d="M300.989,312.182a.494.494,0,0,1-.491-.511c.164-3.623-3.42-5.424-6.892-7.173a20.4,20.4,0,0,1-4.488-2.725.491.491,0,0,1,.668-.721,19.9,19.9,0,0,0,4.258,2.575c3.57,1.8,7.619,3.839,7.429,8.1A.483.483,0,0,1,300.989,312.182Z" transform="translate(-288.962 -300.922)" fill="#5c5f70"/>
          </g>
          <g id="XMLID_565_" transform="translate(20.555 23.699)">
            <path id="Path_8057" data-name="Path 8057" d="M336.043,341.213c-3.492,0-7.514-.976-11.838-2.031-1.146-.275-2.306-.563-3.485-.832a.491.491,0,0,1,.223-.956c1.179.269,2.345.557,3.492.832,8.058,1.959,15.015,3.649,19.09-.963a.492.492,0,0,1,.734.655C342.1,340.362,339.305,341.213,336.043,341.213Z" transform="translate(-320.339 -337.098)" fill="#5c5f70"/>
          </g>
        </g>
        <g id="XMLID_563_" transform="translate(17.178 158.509)">
          <path id="Path_8058" data-name="Path 8058" d="M198.334,336.117a6.044,6.044,0,0,1-5.739-5.47c-.452-2.955.819-7.029,5.876-8.772a.489.489,0,0,1,.321.924c-4.488,1.546-5.614,5.11-5.221,7.691a5.1,5.1,0,0,0,4.782,4.632.5.5,0,0,1,.478.5A.509.509,0,0,1,198.334,336.117Z" transform="translate(-192.511 -321.847)" fill="#5c5f70"/>
        </g>
      </g>
      <g id="_3" data-name="3" transform="translate(-61.793 -44.148)">
        <g id="Group_8982" data-name="Group 8982" transform="translate(149.9 128.698)">
          <g id="Group_8981" data-name="Group 8981">
            <g id="Group_8958" data-name="Group 8958" transform="translate(0 93.675)">
              <g id="Group_8957" data-name="Group 8957" transform="translate(3.061 137.989)">
                <path id="Path_8276" data-name="Path 8276" d="M155.542,555.2s-1.866,24.456,10.807,26.962c0,0,5.5,1.093,6.805.574a2.229,2.229,0,0,0-.933-2.489c-1.463-1.2-6.182-2.462-6.1-4.493s-.447-8.075.74-7.722,2.82,8.014,5.348,7.3c0,0,.679-.177.414-2.837s-2.561-12.794-3.543-14.565-2.042-7.3-2.042-7.3-6.778-4.973-10.752.05Z" transform="translate(-155.445 -548.432)" fill="#e5c5b8"/>
              </g>
              <path id="Path_8277" data-name="Path 8277" d="M175.719,298.42s-8.654,4.7-10.658,20.085c-1.661,12.755-5.917,36.93-9.157,59.945,0,0-5.7,17.231-6.005,49.238,0,0,.894,3.45,2.622,3.963-.11,2.037-.342,8.732-.375,9.747,0,0,7.5,3.891,15,.7,0,0,.679-6.678.839-8.919.933-.066,3.477-2.754,3.786-5.166,0,0,4.117-31.305,6.623-45.3,1.275-7.1,6.044-24.831,7.821-45.043C187.873,318.615,184.418,300.711,175.719,298.42Z" transform="translate(-149.9 -298.42)" fill="#fff"/>
            </g>
            <g id="Group_8976" data-name="Group 8976" transform="translate(25.819)">
              <g id="Group_8971" data-name="Group 8971" transform="translate(8.578)">
                <g id="Group_8959" data-name="Group 8959">
                  <g id="_x3F__x3F__x3F__x3F__x3F__x3F__x5F__x3F__x3F__x3F__x3F__x3F__x3F__x3F__x5F_2_x5F_">
                    <path id="Path_8278" data-name="Path 8278" d="M282.183,176.474c1.866,3.494,9.532,20.951-8.031,45a1.22,1.22,0,0,1-.911.5l-42.631,2.489a1.2,1.2,0,0,1-1.049-.5l-6.513-8.881a1.222,1.222,0,0,1-.2-.419c-.629-2.495-13.373-23.694-10.084-33.657a.405.405,0,0,0,.022-.077c.232-.905,4.178-18.17-.408-26.592a1.2,1.2,0,0,1-.083-.193c-.326-.96.315-8.152,3.367-11.193,0,0,18.622-13.787,25.229-13.533a1.07,1.07,0,0,0,.265-.017c1.418-.232,14.129-2.191,19.025,1.667a1.213,1.213,0,0,0,.756.265h1.6a1.1,1.1,0,0,0,.27-.033c.839-.193,5.575-1.154,7.148,1.579,0,0,7.4,13.373,11.166,16.287a1.136,1.136,0,0,1,.215.215c.74.966,5.144,6.982,3.847,11.557a2.233,2.233,0,0,0-.05.265c-.077,1.22-.729,10.5-2.9,14.041A1.256,1.256,0,0,0,282.183,176.474Z" transform="translate(-212.221 -128.698)" fill="#fff"/>
                    <path id="Path_8279" data-name="Path 8279" d="M298.734,212.948c-5.21,22.591-21.04,27.436-21.04,27.436l-2.815-21.614s8.941,6.822,16.928-16.376l2.169-15.415C293.982,186.974,299.386,201.22,298.734,212.948Z" transform="translate(-240.297 -154.812)" fill="#e2e0e0"/>
                  </g>
                  <path id="Path_8280" data-name="Path 8280" d="M290.761,175.17s.894-9.477-4.973-10.4c-2.776.464-12.209-3.223-12.209-3.223a9.3,9.3,0,0,0-8.643,2.776c-1.545,2.009-4.94,2.467-4.94,2.467l-3.24.309-2.776,1.236-4.322-1.739c-5.712.966-13.738-5.2-13.738-5.2-8.489-4.013-9.775,2.953-9.775,2.953-.635,2.279-4.515,17.093,4.4,28.706,2.7,3.516,7.55,18.953,10.172,20.432l.9-11.668L234.4,168.729l.05-4.73a5.558,5.558,0,0,1,5.8,2.02c2.622,3.085,28.706-1.236,28.706-1.236l5.414-.055-.524,9.8,4.073,2.638s2.594-6.943,2.616-9.14C280.572,163.729,289.552,167.863,290.761,175.17Z" transform="translate(-217.841 -142.787)" fill="#e2e0e0"/>
                  <path id="Path_8281" data-name="Path 8281" d="M330.392,176.307s.315-7.964-4.973-10.4c-2.555-1.181-12.209-3.223-12.209-3.223" transform="translate(-257.471 -143.924)" fill="#e2e0e0"/>
                </g>
                <path id="Path_8282" data-name="Path 8282" d="M278.033,257.173,259.957,266.9,239.95,256.7l5.828-9.6c2.064-.944,1.744-3,1.744-5.271V223.4h26.007v18.39c0,2.291-2.445,4.36-.353,5.293Z" transform="translate(-224.646 -171.131)" fill="#e5c5b8"/>
                <path id="Path_8283" data-name="Path 8283" d="M279.677,226.12v6.921a26.417,26.417,0,0,1-5.475,6.11,12.7,12.7,0,0,1-7.644,2.633l-.342.006a12.69,12.69,0,0,1-7.661-2.4,25,25,0,0,1-4.885-4.89v-7.418Z" transform="translate(-230.793 -172.35)" fill="#ccaa9f"/>
                <g id="Group_8969" data-name="Group 8969" transform="translate(9.465 3.98)">
                  <g id="Group_8968" data-name="Group 8968">
                    <g id="Group_8967" data-name="Group 8967">
                      <g id="Group_8961" data-name="Group 8961" transform="translate(42.106 27.025)">
                        <path id="Path_8284" data-name="Path 8284" d="M314.441,195.723c-1.937,3.488-5.177,5.056-7.241,3.5s-2.015-7.451-.083-10.939,5.668-4.178,7.733-2.622S316.373,192.234,314.441,195.723Z" transform="translate(-305.66 -184.874)" fill="#e5c5b8"/>
                        <path id="Path_8285" data-name="Path 8285" d="M315.239,196.557c-1.457,2.622-3.9,3.8-5.453,2.627s-.408-2.555,1.049-5.183,3.152-6.187,4.708-5.017S316.7,193.929,315.239,196.557Z" transform="translate(-307.175 -186.613)" fill="#dbbaad"/>
                        <g id="Group_8960" data-name="Group 8960" transform="translate(4.347 1.998)">
                          <path id="Path_8286" data-name="Path 8286" d="M318.183,193.4a.41.41,0,0,0,.353-.2,4.116,4.116,0,0,0,.259-3.323,1.911,1.911,0,0,0-.966-1.2c-2.208-.966-3.9,2.39-3.974,2.533a.4.4,0,0,0,.718.359c.017-.028,1.424-2.82,2.958-2.147a1.25,1.25,0,0,1,.519.734,3.3,3.3,0,0,1-.2,2.66.393.393,0,0,0,.337.591Z" transform="translate(-313.661 -188.494)" fill="#ba7566"/>
                          <path id="Path_8287" data-name="Path 8287" d="M314.7,200.871a.4.4,0,0,0,.364-.232,4.229,4.229,0,0,0,.364-3.477,2.432,2.432,0,0,0-1.369-1.3.4.4,0,0,0-.5.259.4.4,0,0,0,.254.5h0a1.6,1.6,0,0,1,.889.872,3.594,3.594,0,0,1-.364,2.8.4.4,0,0,0,.193.53A.688.688,0,0,0,314.7,200.871Z" transform="translate(-313.536 -191.788)" fill="#ba7566"/>
                        </g>
                      </g>
                      <g id="Group_8963" data-name="Group 8963" transform="translate(0 26.682)">
                        <path id="Path_8288" data-name="Path 8288" d="M231,195.075c1.882,3.516,5.1,5.133,7.186,3.6s2.13-7.418.243-10.939-5.608-4.261-7.694-2.738S229.122,191.553,231,195.075Z" transform="translate(-229.371 -184.253)" fill="#e5c5b8"/>
                        <path id="Path_8289" data-name="Path 8289" d="M232.647,195.9c1.413,2.644,3.836,3.858,5.409,2.71s.447-2.55-.971-5.194-3.058-6.237-4.631-5.089S231.234,193.26,232.647,195.9Z" transform="translate(-230.291 -185.982)" fill="#dbbaad"/>
                        <g id="Group_8962" data-name="Group 8962" transform="translate(0.786 1.998)">
                          <path id="Path_8290" data-name="Path 8290" d="M231.6,192.75a.4.4,0,0,0,.353-.591,3.275,3.275,0,0,1-.16-2.66,1.288,1.288,0,0,1,.508-.723c1.545-.646,2.931,2.158,2.947,2.186a.4.4,0,0,0,.718-.342c-.072-.144-1.711-3.521-3.952-2.583a1.931,1.931,0,0,0-.966,1.181,4.1,4.1,0,0,0,.21,3.328A.39.39,0,0,0,231.6,192.75Z" transform="translate(-230.796 -187.872)" fill="#ba7566"/>
                          <path id="Path_8291" data-name="Path 8291" d="M237.488,200.295a.443.443,0,0,0,.166-.033.4.4,0,0,0,.2-.524,3.579,3.579,0,0,1-.32-2.826,1.62,1.62,0,0,1,.894-.844.4.4,0,1,0-.232-.762,2.428,2.428,0,0,0-1.391,1.28,4.248,4.248,0,0,0,.315,3.483A.418.418,0,0,0,237.488,200.295Z" transform="translate(-233.379 -191.195)" fill="#ba7566"/>
                        </g>
                      </g>
                      <path id="Path_8292" data-name="Path 8292" d="M281.277,157.876c-.088,12.043-9.052,38.387-22.436,38.293-13.318-.1-21.26-26.581-21.172-38.619a21.535,21.535,0,0,1,.811-5.729A21.8,21.8,0,0,1,280.952,154,21.324,21.324,0,0,1,281.277,157.876Z" transform="translate(-233.089 -135.909)" fill="#e5c5b8"/>
                      <g id="Group_8966" data-name="Group 8966" transform="translate(9.813 24.562)">
                        <path id="Path_8293" data-name="Path 8293" d="M284.92,187.117c-.342.386-.408.883-.155,1.115s.745.1,1.087-.281.408-.883.155-1.115S285.262,186.731,284.92,187.117Z" transform="translate(-263.936 -183.238)" fill="#ccaa9f"/>
                        <path id="Path_8294" data-name="Path 8294" d="M287.037,181.189l-.138,2.219a.213.213,0,0,0,.248.226c1.424-.243,7.992-.679,11.315.342.226.072.6-.844.425-.993-1.325-1.12-4.912-3.085-11.662-1.992A.217.217,0,0,0,287.037,181.189Z" transform="translate(-264.961 -180.527)" fill="#2b2228"/>
                        <path id="Path_8295" data-name="Path 8295" d="M269.641,187c.337.392.4.889.138,1.115s-.745.094-1.082-.3-.4-.889-.138-1.115S269.3,186.607,269.641,187Z" transform="translate(-256.671 -183.179)" fill="#ccaa9f"/>
                        <path id="Path_8296" data-name="Path 8296" d="M259.078,181l.1,2.219a.213.213,0,0,1-.254.221c-1.418-.265-7.981-.8-11.32.171-.226.066-.591-.85-.408-1,1.341-1.1,4.956-3.014,11.7-1.816A.217.217,0,0,1,259.078,181Z" transform="translate(-247.151 -180.411)" fill="#2b2228"/>
                        <g id="Group_8964" data-name="Group 8964" transform="translate(24.356 5.175)">
                          <path id="Path_8297" data-name="Path 8297" d="M291.649,191.61a.376.376,0,0,0,.3-.155h0a2.426,2.426,0,0,1,3.455-.4.372.372,0,0,0,.508-.116.367.367,0,0,0-.116-.508,3.173,3.173,0,0,0-4.454.6.37.37,0,0,0,.088.513A.408.408,0,0,0,291.649,191.61Z" transform="translate(-291.279 -189.787)" fill="#2b2228"/>
                          <path id="Path_8298" data-name="Path 8298" d="M296.1,192.626c-.116,1.242-.96,2.18-1.893,2.092a2.042,2.042,0,0,1-1.479-2.4c.116-1.242.96-2.18,1.893-2.092A2.03,2.03,0,0,1,296.1,192.626Z" transform="translate(-291.924 -189.981)" fill="#2b2228"/>
                        </g>
                        <g id="Group_8965" data-name="Group 8965" transform="translate(4.493 5.195)">
                          <path id="Path_8299" data-name="Path 8299" d="M259.331,191.7a.406.406,0,0,0,.2-.055.377.377,0,0,0,.121-.519,2.961,2.961,0,0,0-1.8-1.253,3.057,3.057,0,0,0-2.406.657.38.38,0,1,0,.442.618,2.333,2.333,0,0,1,1.81-.53,2.206,2.206,0,0,1,1.308.916A.388.388,0,0,0,259.331,191.7Z" transform="translate(-255.292 -189.823)" fill="#2b2228"/>
                          <path id="Path_8300" data-name="Path 8300" d="M256.454,192.9c.143,1.292,1.01,2.257,1.937,2.153s1.562-1.236,1.424-2.528-1.01-2.257-1.937-2.153S256.31,191.61,256.454,192.9Z" transform="translate(-255.803 -190.066)" fill="#2b2228"/>
                        </g>
                        <path id="Path_8301" data-name="Path 8301" d="M276.083,202.9a.4.4,0,0,0,.138-.022,3.108,3.108,0,0,1,.789-.127c.177-.011.353-.028.524-.055a1.691,1.691,0,0,0,1.424-1.01,1.932,1.932,0,0,0,.061-.795c-.094-1.264-.248-2.55-.4-3.792a34.185,34.185,0,0,1-.27-9.217.4.4,0,1,0-.784-.121,34.813,34.813,0,0,0,.265,9.432c.149,1.231.3,2.506.392,3.753a1.3,1.3,0,0,1-.017.475c-.094.276-.469.425-.789.475-.149.022-.3.033-.458.05a3.718,3.718,0,0,0-.993.171.4.4,0,0,0-.237.508A.357.357,0,0,0,276.083,202.9Z" transform="translate(-259.945 -183.552)" fill="#ba7566"/>
                        <path id="Path_8302" data-name="Path 8302" d="M250,201.1c-.006.651.971,1.181,2.18,1.192s2.191-.508,2.2-1.159-.971-1.181-2.18-1.192S250.006,200.448,250,201.1Z" transform="translate(-248.427 -189.161)" fill="#ccaa9f"/>
                        <path id="Path_8303" data-name="Path 8303" d="M295.74,201.769c-.006.651.971,1.181,2.18,1.192s2.191-.508,2.2-1.159-.971-1.181-2.18-1.192S295.746,201.123,295.74,201.769Z" transform="translate(-268.922 -189.461)" fill="#ccaa9f"/>
                      </g>
                    </g>
                  </g>
                  <path id="Path_8304" data-name="Path 8304" d="M273.442,228.844a19.516,19.516,0,0,1-2.324-.066,4.288,4.288,0,0,1-2.1-.53.459.459,0,1,1,.5-.773,3.571,3.571,0,0,0,1.661.381c1.893.138,3.571.177,4.907-.64a.462.462,0,0,1,.629.149.457.457,0,0,1-.149.629A6.386,6.386,0,0,1,273.442,228.844Z" transform="translate(-247.044 -176.791)" fill="#ba7566"/>
                </g>
                <path id="Path_8305" data-name="Path 8305" d="M274.2,169.076a8.822,8.822,0,0,0,2.02,5.155,15.023,15.023,0,0,1,.933,7.418c-1.987,17.22-8.809,16.42-8.809,16.42-8.743-3.77-10-1.457-10-1.457s-1.457-2.252-10.2,1.518c0,0-6.816.795-8.809-16.42,0,0-.05-3.168,2.644-12.634H235.65c.138,3.681.392,7.214.878,8.345,0,0,1.6.756,2.02,4.289s1.987,15.785,1.987,15.785a6.273,6.273,0,0,0,.591,1.965c1.165,2.406,4.493,8.594,9.355,12.137a12.69,12.69,0,0,0,7.661,2.4l.342-.006a12.749,12.749,0,0,0,7.644-2.633c5.3-4.123,8.627-11.563,9.306-13.175a2.546,2.546,0,0,0,.177-.629s2-13.4,2.34-15.912c.524-4.04,2.2-4.151,2.2-4.151s.193-3.952.309-8.417H274.2Zm-9.466,32.834c-.778,1.744-1.391,3.312-4.437,3.908l-1.242-.795-.6.017h-.193l-.6-.017-1.242.795c-3.047-.6-3.781-2.7-4.437-3.908-.58-1.065-.127-1.656-.127-1.656s3.51-.734,4.305-1.391a1.866,1.866,0,0,1,1.783-.077,1.263,1.263,0,0,0,.889-.006,1.784,1.784,0,0,1,1.716.088c.795.662,4.305,1.391,4.305,1.391S265.222,200.795,264.731,201.91Z" transform="translate(-222.719 -146.787)" fill="#2b2228"/>
                <path id="Path_8306" data-name="Path 8306" d="M280.058,165.668l.381-11.138-45.689.955.5,9.824C235.247,165.309,252.688,156.489,280.058,165.668Z" transform="translate(-222.316 -140.272)" fill="#fcfdff"/>
                <path id="Path_8307" data-name="Path 8307" d="M280.514,151.136a2.575,2.575,0,0,0-1.187.519,5.952,5.952,0,0,1-3.378,1.247,9.364,9.364,0,0,0-6.463,2.964c-1.545,2-4.94,2.467-4.94,2.467l-2.329.414-2.991,4.686a1.822,1.822,0,0,1-2.307.055l-3.532-4.951c-5.712.96-12.915-5.608-12.915-5.608a46.511,46.511,0,0,0-5.481-2.423l-.061-1.148c3.074-8.61,13.8-13.506,23.468-13.44,9.924.083,21.332,5.387,24.362,14.267C283.1,151.153,281.529,150.987,280.514,151.136Z" transform="translate(-222.396 -131.933)" opacity="0.1"/>
                <g id="Group_8970" data-name="Group 8970" transform="translate(7.749 0.006)">
                  <path id="Path_8308" data-name="Path 8308" d="M286.145,150.787a54.206,54.206,0,0,0-11.894-3.328,9.3,9.3,0,0,0-8.643,2.776c-1.545,2.009-4.94,2.467-4.94,2.467l-2.34.414-2.986,4.686a1.844,1.844,0,0,1-2.313.061l-3.532-4.956c-5.712.966-12.91-5.6-12.91-5.6-8.489-4.013-9.775,2.953-9.775,2.953a29.125,29.125,0,0,1-.508-7.092s14.461-14.19,21.012-13.732c0,0,14.554-2.544,19.467,1.91h2.186s5.547-1.457,7.274,1.545c0,0,7.55,13.644,11.276,16.37,0,0,5.459,6.822,3.913,11.822C291.432,161.086,291.482,153.96,286.145,150.787Z" transform="translate(-226.261 -128.709)" fill="#fff"/>
                  <path id="Path_8309" data-name="Path 8309" d="M259.072,157.112s9.874,2.324,18.639.066a3.327,3.327,0,0,0,1.457-.817,17.43,17.43,0,0,0,2.622-3.14,6.964,6.964,0,0,0,.883-2.241c.281-1.325,1.032-4.035,2.484-4.52,0,0-3.7,2.622-28.706,1.391C256.45,147.856,256.45,156.958,259.072,157.112Z" transform="translate(-239.788 -136.663)" fill="#292728"/>
                  <path id="Path_8310" data-name="Path 8310" d="M261.83,140.615s1.645-10,20.339-7.644c0,0-6.778-2.213-11.524-2.114C263.9,131,252.188,140.146,261.83,140.615Z" transform="translate(-240.559 -129.67)" fill="#e2e0e0"/>
                  <path id="Path_8311" data-name="Path 8311" d="M303.78,134.73s6.4.729,4.885,4.222A26.735,26.735,0,0,0,303.78,134.73Z" transform="translate(-260.995 -131.407)" fill="#292728"/>
                </g>
              </g>
              <path id="Path_8312" data-name="Path 8312" d="M198.529,457.216c.889-37.106,1.656-69.284,1.932-81.642,0,0-2.831-81.355-3.781-97.178,0,0,17.32-10.586,30.008-17.833l.7-6.673a84.845,84.845,0,0,0,13.053,1.06,86.813,86.813,0,0,0,14.334-1.12l.64,7.639s15.857,9.444,29.192,16.928c0,0-5.729,67.584-6.579,97.719,0,0,4.78,36.449,10.581,81.1H198.529Z" transform="translate(-196.68 -184.766)" fill="#fff"/>
              <g id="Group_8972" data-name="Group 8972" transform="translate(43.189 86.041)">
                <path id="Path_8313" data-name="Path 8313" d="M275.355,349.2h0c-.237,0-.425-.116-.425-.337l.293-63.9a.388.388,0,0,1,.43-.381.417.417,0,0,1,.425.4l-.293,63.869C275.78,349.088,275.587,349.2,275.355,349.2Z" transform="translate(-274.93 -284.588)" fill="#e2e0e0"/>
              </g>
              <g id="Group_8973" data-name="Group 8973" transform="translate(43.28 114.216)">
                <path id="Path_8314" data-name="Path 8314" d="M275.523,406.165a.415.415,0,0,1-.315-.138.422.422,0,0,1,.028-.6c22.425-20.587,39.215-69.008,39.38-69.5a.426.426,0,0,1,.806.276c-.166.491-16.039,49.116-39.612,69.847A.415.415,0,0,1,275.523,406.165Z" transform="translate(-275.095 -335.638)" fill="#e2e0e0"/>
              </g>
              <g id="Group_8974" data-name="Group 8974" transform="translate(54.214 162.539)">
                <path id="Path_8315" data-name="Path 8315" d="M295.333,441.133a.426.426,0,0,1-.392-.259.419.419,0,0,1,.226-.557c12.943-5.547,20.626-16.823,20.7-16.939a.426.426,0,1,1,.706.475c-.077.116-8.56,12.694-21.073,17.248A.667.667,0,0,1,295.333,441.133Z" transform="translate(-294.906 -423.189)" fill="#e2e0e0"/>
              </g>
              <g id="Group_8975" data-name="Group 8975" transform="translate(27.106 207.07)">
                <path id="Path_8316" data-name="Path 8316" d="M255.207,545.023a.427.427,0,0,1-.425-.392c-1.634-20.173-8.892-39.987-8.963-40.186a.426.426,0,0,1,.8-.292c.072.2,7.374,20.118,9.013,40.412a.423.423,0,0,1-.392.458Z" transform="translate(-245.791 -503.871)" fill="#e2e0e0"/>
              </g>
            </g>
            <g id="Group_8977" data-name="Group 8977" transform="translate(26.018 106.292)">
              <path id="Path_8317" data-name="Path 8317" d="M199.965,387.8a.431.431,0,0,1-.425-.419l-2.5-65.652a.43.43,0,0,1,.408-.447.422.422,0,0,1,.442.408l2.5,65.658a.429.429,0,0,1-.408.453Z" transform="translate(-197.039 -321.279)" fill="#e2e0e0"/>
            </g>
            <g id="Group_8980" data-name="Group 8980" transform="translate(64.73 93.675)">
              <path id="Path_8318" data-name="Path 8318" d="M345.38,298.42s7.032,2.82,10.868,17.6c4.686,18.032,14.565,53.234,14.218,56.716-.982,9.736-14.532,13.219-22.5,9.526-5.845-2.716-15.035-44.706-15.035-44.706S328.143,306.854,345.38,298.42Z" transform="translate(-296.368 -298.42)" fill="#fff"/>
              <g id="Group_8978" data-name="Group 8978" transform="translate(35.517 14.996)">
                <path id="Path_8319" data-name="Path 8319" d="M334.185,325.756a6.292,6.292,0,0,1-.867-.166,47.3,47.3,0,0,0-1.43,7.617,70.918,70.918,0,0,0,.276,16.552c.077.37.552,2.506,1.3,5.663a5.562,5.562,0,0,1,.828-.182c-.508-2.147-.944-4.068-1.292-5.635C332.976,349.411,331.089,336.871,334.185,325.756Z" transform="translate(-331.53 -325.59)" fill="#e2e0e0"/>
              </g>
              <path id="Path_8320" data-name="Path 8320" d="M295.395,318.178a3.2,3.2,0,0,0-2.539,2.235s-2.3,7.142-3.284,7.054c-.905-.083-1.948-2.865-1.948-2.865a37.109,37.109,0,0,0-1.976-4.669l-2.368-5.563-4.344-7.49a1.8,1.8,0,0,0-2.384-.894,2.111,2.111,0,0,0-.889,2.644l3.9,6.866,2.015,5.023a.492.492,0,0,1-.287.58c-.221.1-.524.226-.745-.132l-6.507-14.626a1.834,1.834,0,0,0-2.384-.96,1.768,1.768,0,0,0-.9,2.351l6.458,15.211c.226.431-.243.949-.607.524l-2.081-4.156-3.063-8.963a1.7,1.7,0,1,0-3.1,1.407l2.793,9.394,2.462,5.486c.32.635-.2.96-.458.557v-.005l-2.125-3.654-1.236-6.187c-.281-.955-.64-1.264-1.567-1.131-1,.144-1.192,1.38-.96,2.522l.822,6.513,2.611,5.332c4.6,13.285,10.327,16.53,10.327,16.53,10.183,5.381,11.166-5.635,11.166-5.635s.927-5.21,1.871-9.808c.381-1.832,1.269-7.258,2.136-10.47a17.671,17.671,0,0,1,.762-2.158C297.139,318.448,296.5,318.1,295.395,318.178Z" transform="translate(-267.18 -301.471)" fill="#e5c5b8"/>
              <path id="Path_8321" data-name="Path 8321" d="M352.4,402.406c-.138-5.177-6.64-8.831-19.406-17.546-6.987-4.769-12.032-7.291-19.229-14.152,0,0-2.633-2.13-4.084-1.054l-4.879-5.365L291.89,375.732l5.652,6.215c-.364.491.144,3.51,1.065,5.05,0,0,4.785,7.2,15.62,16.657,8.864,7.733,16.69,13.445,23.087,14.085C337.319,417.739,352.884,420.62,352.4,402.406Z" transform="translate(-278.252 -327.934)" fill="#fff"/>
              <g id="Group_8979" data-name="Group 8979" transform="translate(13.042 35.71)">
                <path id="Path_8322" data-name="Path 8322" d="M314.03,412.044c-10.658-9.3-15.5-16.5-15.537-16.558a9.058,9.058,0,0,1-1.087-4.576l.21-.281-5.47-6.016a4.227,4.227,0,0,1-.7-.773l-.635.563,5.773,6.342a9.9,9.9,0,0,0,1.2,5.172c.05.072,4.94,7.341,15.7,16.723,2.053,1.794,4.195,3.6,6.358,5.3.033-.309.077-.624.138-.938C317.943,415.4,315.95,413.722,314.03,412.044Z" transform="translate(-290.81 -372.404)" fill="#e2e0e0"/>
                <path id="Path_8323" data-name="Path 8323" d="M347.87,387c-1.407-.949-2.92-1.965-4.526-3.063-1.766-1.2-3.405-2.268-4.989-3.29a84.839,84.839,0,0,1-14.212-10.84,6.578,6.578,0,0,0-3.361-1.452,2.117,2.117,0,0,0-.911.188l-4.929-5.42-.5.447a4.449,4.449,0,0,1,.453.767l4.857,5.332.326-.232a1.273,1.273,0,0,1,.767-.221,6.175,6.175,0,0,1,2.854,1.236h0c5.116,5.161,9.477,7.826,14.256,10.912,1.578,1.021,3.157,2.075,4.918,3.273,1.606,1.1,3.118,2.1,4.526,3.058,2.417,1.628,4.531,3.052,6.347,4.344.232-.177.464-.348.7-.524C352.562,390.159,350.371,388.685,347.87,387Z" transform="translate(-301.398 -363.12)" fill="#e2e0e0"/>
              </g>
            </g>
          </g>
        </g>
        <g id="Group_8983" data-name="Group 8983" transform="translate(205.689 197.878)">
          <path id="Path_8324" data-name="Path 8324" d="M259.618,268.589l-8.638-6.474.751-8.075.447.05-.729,7.777,7.975,5.983,5.067-12.628.408.2Z" transform="translate(-250.98 -254.04)" fill="#e2e0e0"/>
        </g>
        <g id="Group_8984" data-name="Group 8984" transform="translate(220.729 197.757)">
          <path id="Path_8325" data-name="Path 8325" d="M283.512,268.49l-5.282-13.164.408-.2,5.067,12.628,7.782-5.762-.585-8.13.447-.039.6,8.417Z" transform="translate(-278.23 -253.82)" fill="#e2e0e0"/>
        </g>
      </g>
    </g>
  </g>
</svg>
