<svg xmlns="http://www.w3.org/2000/svg" width="262.682" height="387.441" viewBox="71.806 30.806 262.682 387.441"><g data-name="Group 4663"><path d="M128.137 0c70.769 0 128.138 60.236 128.138 134.54 0 74.305-57.37 134.54-128.138 134.54S0 208.845 0 134.54C0 60.236 57.369 0 128.137 0Z" fill="#a6def8" fill-rule="evenodd" style="--darkreader-inline-fill:#084b6a" transform="translate(71.806 30.806)" data-name="Path 1969"/><g data-name="Group 4611"><g data-name="Group 4610" transform="translate(71.806 30.806)" clip-path="url(&quot;#a&quot;)"><g data-name="Group 4607"><path d="M0 0h194.585v230.438H0V0Z" fill="#fff" fill-rule="evenodd" style="--darkreader-inline-fill:#191b1c" transform="translate(27.543 71.1)" data-name="Path 1970"/><path d="M0 0h210.28v174.847H0V0z" fill="#d8c4b4" fill-rule="evenodd" style="--darkreader-inline-fill:#533d2b" transform="rotate(90 65.54 146.719)" data-name="Rectangle 212"/><g data-name="Group 4597"><path d="M0 0h175.274v10.044H0V0z" fill="#efe5dc" fill-rule="evenodd" style="--darkreader-inline-fill:#3b2a1b" transform="translate(37.412 136.697)" data-name="Rectangle 213"/><g data-name="Group 4592"><g data-name="Group 4589"><path d="M161.984 252.834h-41.898c-4.505 0-8.158-3.41-8.158-7.617 0-4.206 3.653-7.616 8.158-7.616h41.898v15.233Z" fill="#b59985" fill-rule="evenodd" style="--darkreader-inline-fill:#6e5543" transform="translate(-61.632 -116.454)" data-name="Path 1869"/><path d="M164.226 252.321H123.44c-3.168 0-5.736-2.397-5.736-5.354 0-2.957 2.568-5.355 5.736-5.355h40.786c.153 0 .277.116.277.26v10.19c0 .143-.124.26-.277.26Z" fill="#f7e4d9" fill-rule="evenodd" style="--darkreader-inline-fill:#44220f" transform="translate(-64.151 -118.204)" data-name="Path 1870"/></g><g data-name="Group 4590"><path d="M7.616 0h42.44v15.232H7.616A7.616 7.616 0 0 1 0 7.616 7.616 7.616 0 0 1 7.616 0z" fill="#efe5dc" fill-rule="evenodd" style="--darkreader-inline-fill:#3b2a1b" transform="translate(43.167 105.914)" data-name="Rectangle 214"/><path d="M5.354 0H46.34a.46.46 0 0 1 .46.46v9.79a.46.46 0 0 1-.46.459H5.354A5.354 5.354 0 0 1 0 5.354 5.354 5.354 0 0 1 5.354 0z" fill="#b59985" fill-rule="evenodd" style="--darkreader-inline-fill:#6e5543" transform="translate(46.424 108.176)" data-name="Rectangle 215"/></g><g data-name="Group 4591"><path d="M158.736 198.796H116.84c-4.506 0-8.159-3.41-8.159-7.617 0-4.206 3.653-7.616 8.159-7.616h41.897v15.233Z" fill="#efe5dc" fill-rule="evenodd" style="--darkreader-inline-fill:#3b2a1b" transform="translate(-60.215 -92.881)" data-name="Path 1871"/><path d="M160.979 198.284h-40.786c-3.168 0-5.736-2.397-5.736-5.355 0-2.957 2.568-5.354 5.736-5.354h40.786c.153 0 .277.116.277.259v10.191c0 .143-.124.259-.277.259Z" fill="#ccb4a3" fill-rule="evenodd" style="--darkreader-inline-fill:#5c4433" transform="translate(-62.735 -94.631)" data-name="Path 1872"/></g></g><g data-name="Group 4596"><g data-name="Group 4593"><path d="M288.744 252.834h41.897c4.506 0 8.159-3.41 8.159-7.617 0-4.206-3.653-7.616-8.159-7.616h-41.897v15.233Z" fill="#b59985" fill-rule="evenodd" style="--darkreader-inline-fill:#6e5543" transform="translate(-138.764 -116.454)" data-name="Path 1873"/><path d="M289.021 252.321h40.786c3.168 0 5.736-2.397 5.736-5.354 0-2.957-2.568-5.355-5.736-5.355h-40.786c-.153 0-.277.116-.277.26v10.19c0 .143.124.26.277.26Z" fill="#f7e4d9" fill-rule="evenodd" style="--darkreader-inline-fill:#44220f" transform="translate(-138.764 -118.204)" data-name="Path 1874"/></g><g data-name="Group 4594"><path d="M7.616 0h42.44v15.232H7.616A7.616 7.616 0 0 1 0 7.616 7.616 7.616 0 0 1 7.616 0z" fill="#efe5dc" fill-rule="evenodd" style="--darkreader-inline-fill:#3b2a1b" transform="rotate(-180 103.582 60.573)" data-name="Rectangle 216"/><path d="M5.354 0H46.34a.46.46 0 0 1 .46.46v9.79a.46.46 0 0 1-.46.459H5.354A5.354 5.354 0 0 1 0 5.354 5.354 5.354 0 0 1 5.354 0z" fill="#b59985" fill-rule="evenodd" style="--darkreader-inline-fill:#6e5543" transform="rotate(180 101.954 59.443)" data-name="Rectangle 217"/></g><g data-name="Group 4595"><path d="M291.991 198.796h41.897c4.506 0 8.16-3.41 8.16-7.617 0-4.206-3.654-7.616-8.16-7.616h-41.897v15.233Z" fill="#efe5dc" fill-rule="evenodd" style="--darkreader-inline-fill:#3b2a1b" transform="translate(-140.18 -92.881)" data-name="Path 1875"/><path d="M292.268 198.284h40.786c3.168 0 5.736-2.397 5.736-5.355 0-2.957-2.568-5.354-5.736-5.354h-40.786c-.152 0-.277.116-.277.259v10.191c0 .143.125.259.277.259Z" fill="#ccb4a3" fill-rule="evenodd" style="--darkreader-inline-fill:#5c4433" transform="translate(-140.18 -94.631)" data-name="Path 1876"/></g></g></g><g data-name="Group 4606"><path d="M0 0h175.274v10.044H0V0z" fill="#efe5dc" fill-rule="evenodd" style="--darkreader-inline-fill:#3b2a1b" transform="translate(37.412 216.428)" data-name="Rectangle 218"/><g data-name="Group 4601"><g data-name="Group 4598"><path d="M161.984 394.259h-41.898c-4.505 0-8.158-3.41-8.158-7.616 0-4.207 3.653-7.617 8.158-7.617h41.898v15.233Z" fill="#b59985" fill-rule="evenodd" style="--darkreader-inline-fill:#6e5543" transform="translate(-61.632 -178.147)" data-name="Path 1877"/><path d="M164.226 393.747H123.44c-3.168 0-5.736-2.397-5.736-5.354 0-2.958 2.568-5.355 5.736-5.355h40.786c.153 0 .277.116.277.259v10.191c0 .143-.124.259-.277.259Z" fill="#f7e4d9" fill-rule="evenodd" style="--darkreader-inline-fill:#44220f" transform="translate(-64.151 -179.898)" data-name="Path 1878"/></g><g data-name="Group 4599"><path d="M149.339 367.24h-42.44a7.616 7.616 0 0 1 0-15.233h42.44v15.233Z" fill="#efe5dc" fill-rule="evenodd" style="--darkreader-inline-fill:#3b2a1b" transform="translate(-56.116 -166.361)" data-name="Path 1879"/><path d="M151.6 366.728h-41.187a5.355 5.355 0 0 1 0-10.709H151.6a.26.26 0 0 1 .258.259v10.191a.259.259 0 0 1-.258.259Z" fill="#b59985" fill-rule="evenodd" style="--darkreader-inline-fill:#6e5543" transform="translate(-58.635 -168.111)" data-name="Path 1880"/></g><g data-name="Group 4600"><path d="M158.736 340.221H116.84c-4.506 0-8.159-3.41-8.159-7.616 0-4.206 3.653-7.616 8.159-7.616h41.897v15.232Z" fill="#efe5dc" fill-rule="evenodd" style="--darkreader-inline-fill:#3b2a1b" transform="translate(-60.215 -154.575)" data-name="Path 1881"/><path d="M160.979 339.71h-40.786c-3.168 0-5.736-2.398-5.736-5.355 0-2.957 2.568-5.354 5.736-5.354h40.786c.153 0 .277.116.277.259v10.19c0 .144-.124.26-.277.26Z" fill="#ccb4a3" fill-rule="evenodd" style="--darkreader-inline-fill:#5c4433" transform="translate(-62.735 -156.325)" data-name="Path 1882"/></g></g><g data-name="Group 4605"><g data-name="Group 4602"><path d="M288.744 394.259h41.897c4.506 0 8.159-3.41 8.159-7.616 0-4.207-3.653-7.617-8.159-7.617h-41.897v15.233Z" fill="#b59985" fill-rule="evenodd" style="--darkreader-inline-fill:#6e5543" transform="translate(-138.764 -178.147)" data-name="Path 1883"/><path d="M289.021 393.747h40.786c3.168 0 5.736-2.397 5.736-5.354 0-2.958-2.568-5.355-5.736-5.355h-40.786c-.153 0-.277.116-.277.259v10.191c0 .143.124.259.277.259Z" fill="#f7e4d9" fill-rule="evenodd" style="--darkreader-inline-fill:#44220f" transform="translate(-138.764 -179.898)" data-name="Path 1884"/></g><g data-name="Group 4603"><path d="M301.389 367.24h42.44a7.616 7.616 0 0 0 0-15.233h-42.44v15.233Z" fill="#efe5dc" fill-rule="evenodd" style="--darkreader-inline-fill:#3b2a1b" transform="translate(-144.28 -166.361)" data-name="Path 1885"/><path d="M301.648 366.728h41.186a5.355 5.355 0 0 0 0-10.709h-41.186a.26.26 0 0 0-.259.259v10.191c0 .143.116.259.259.259Z" fill="#b59985" fill-rule="evenodd" style="--darkreader-inline-fill:#6e5543" transform="translate(-144.28 -168.111)" data-name="Path 1886"/></g><g data-name="Group 4604"><path d="M291.991 340.221h41.897c4.506 0 8.16-3.41 8.16-7.616 0-4.206-3.654-7.616-8.16-7.616h-41.897v15.232Z" fill="#efe5dc" fill-rule="evenodd" style="--darkreader-inline-fill:#3b2a1b" transform="translate(-140.18 -154.575)" data-name="Path 1887"/><path d="M292.268 339.71h40.786c3.168 0 5.736-2.398 5.736-5.355 0-2.957-2.568-5.354-5.736-5.354h-40.786c-.152 0-.277.116-.277.259v10.19c0 .144.125.26.277.26Z" fill="#ccb4a3" fill-rule="evenodd" style="--darkreader-inline-fill:#5c4433" transform="translate(-140.18 -156.325)" data-name="Path 1888"/></g></g></g></g><g data-name="Group 4608"><path d="M0 0h30.564v30.564H0V0z" fill="#d8c4b4" fill-rule="evenodd" style="--darkreader-inline-fill:#ddc4b1" transform="translate(165.87 40.395)" data-name="Rectangle 219"/><path d="M0 0h19.29v19.289H0V0z" fill="#efe5dc" fill-rule="evenodd" style="--darkreader-inline-fill:#efdecd" transform="rotate(90 72.382 118.415)" data-name="Rectangle 220"/></g><g data-name="Group 4609"><path d="M0 0h30.564v21.428H0V0z" fill="#d8c4b4" fill-rule="evenodd" style="--darkreader-inline-fill:#ddc4b1" transform="translate(72.666 49.531)" data-name="Rectangle 221"/><path d="M0 0h13.523v19.289H0V0z" fill="#efe5dc" fill-rule="evenodd" style="--darkreader-inline-fill:#efdecd" transform="rotate(90 22.054 75.538)" data-name="Rectangle 222"/></g></g></g><g data-name="Group 4612"><path d="m443.927 192.127-1.06-3.138-1.06 3.138a16.983 16.983 0 0 1-7.941 9.465 16.987 16.987 0 0 1 7.94 9.465l1.06 3.138 1.06-3.138c1.365-4.04 4.2-7.419 7.941-9.465a16.98 16.98 0 0 1-7.94-9.465Z" fill="#573f37" fill-rule="evenodd" style="--darkreader-inline-fill:#c4beb5" transform="translate(-130.265 -64.442)" data-name="Path 1889"/><path d="m41.233 248.626-.578-1.709-.576 1.709a9.25 9.25 0 0 1-4.325 5.154 9.253 9.253 0 0 1 4.325 5.155l.576 1.709.578-1.71a9.25 9.25 0 0 1 4.324-5.154 9.247 9.247 0 0 1-4.324-5.154Z" fill="#573f37" fill-rule="evenodd" style="--darkreader-inline-fill:#c4beb5" transform="translate(43.403 -89.712)" data-name="Path 1890"/><path d="M135.44 88.878 134.805 87l-.634 1.878a10.166 10.166 0 0 1-4.753 5.666 10.167 10.167 0 0 1 4.753 5.666l.634 1.878.635-1.878a10.167 10.167 0 0 1 4.753-5.666 10.166 10.166 0 0 1-4.753-5.666Z" fill="#573f37" fill-rule="evenodd" style="--darkreader-inline-fill:#c4beb5" transform="translate(2.544 -19.952)" data-name="Path 1891"/><path d="m240.385 38.532-.635-1.878-.634 1.878a10.167 10.167 0 0 1-4.753 5.666 10.165 10.165 0 0 1 4.753 5.666l.634 1.878.635-1.878a10.165 10.165 0 0 1 4.753-5.666 10.167 10.167 0 0 1-4.753-5.666Z" fill="#efe5dc" fill-rule="evenodd" style="--darkreader-inline-fill:#efdecd" transform="translate(-43.236 2.01)" data-name="Path 1892"/><path d="m294.706 99.604-.634-1.878-.635 1.878a10.164 10.164 0 0 1-4.753 5.666 10.165 10.165 0 0 1 4.753 5.666l.635 1.878.634-1.878a10.167 10.167 0 0 1 4.753-5.666 10.166 10.166 0 0 1-4.753-5.666Z" fill="#efe5dc" fill-rule="evenodd" style="--darkreader-inline-fill:#efdecd" transform="translate(-66.932 -24.63)" data-name="Path 1893"/><path d="m46.563 197.895-.634-1.878-.634 1.878a10.165 10.165 0 0 1-4.754 5.666 10.166 10.166 0 0 1 4.754 5.666l.634 1.878.634-1.878a10.167 10.167 0 0 1 4.753-5.666 10.166 10.166 0 0 1-4.753-5.666Z" fill="#efe5dc" fill-rule="evenodd" style="--darkreader-inline-fill:#efdecd" transform="translate(41.315 -67.508)" data-name="Path 1894"/><path d="m188.302 67.54-.252-.747-.252.746a4.035 4.035 0 0 1-1.888 2.25 4.036 4.036 0 0 1 1.888 2.25l.252.746.252-.746a4.039 4.039 0 0 1 1.887-2.25 4.037 4.037 0 0 1-1.887-2.25Z" fill="#efe5dc" fill-rule="evenodd" style="--darkreader-inline-fill:#efdecd" transform="translate(-22.1 -11.137)" data-name="Path 1895"/><path d="m396.588 106.432-.252-.746-.252.746a4.039 4.039 0 0 1-1.888 2.25 4.04 4.04 0 0 1 1.888 2.25l.252.746.252-.746a4.036 4.036 0 0 1 1.887-2.25 4.035 4.035 0 0 1-1.887-2.25Z" fill="#efe5dc" fill-rule="evenodd" style="--darkreader-inline-fill:#efdecd" transform="translate(-112.96 -28.103)" data-name="Path 1896"/><path d="m429.822 255.266-.726-2.149-.726 2.15a11.631 11.631 0 0 1-5.439 6.482 11.631 11.631 0 0 1 5.439 6.483l.726 2.149.726-2.15a11.63 11.63 0 0 1 5.438-6.482 11.63 11.63 0 0 1-5.438-6.483Z" fill="#efe5dc" fill-rule="evenodd" style="--darkreader-inline-fill:#efdecd" transform="translate(-125.494 -92.417)" data-name="Path 1897"/></g><g data-name="Group 4613"><path d="M391.865 359.163c5.077-5.251 15.342-17.99 14.047-17.854-1.295.137-14.893 4.061-18.572 8.903-2.823 3.714-8.725 11.948-11.323 15.583 3.201-7.62 3.957-14.478 4.484-20.356 1.86-1.054 8.552-5.032 11.478-9.366 3.417-5.06 16.45-20.669 16.45-20.669s-10.86 3.534-17.736 7.869c-5.106 3.219-8.519 14.026-9.938 19.379.894-8.888 3.38-19.188 4.69-24.214 1.68-.55 7.029-2.6 10.446-7.316 4.097-5.653 11.805-12.578 11.805-12.578s-16.524 2.29-21.805 16.705l-.512-.147c-.032.113-2.335 8.199-4.05 17.358.043-3.457.165-9.319.502-12.648.499-4.93-5.416-17.644-5.416-17.644s-2.202 4.773-2.153 15.157c.043 8.899 5.18 15.69 6.65 17.453-.503 2.926-.925 5.901-1.174 8.71l-.066.758c-.265 3.003-.555 6.282-1.192 9.802.967-9.195-1.655-16.424-4.347-18.112-3.694-2.317-6.4-10.587-6.4-10.587-2.759 7.363-2.235 11.498 2.687 18.006 4.218 5.578 5.108 17.438 5.276 20.719-2.684 6.931-7.356 14.529-15.794 22.619 1.239-2.45 3.684-8.106 4.147-15.352.625-9.786-4.498-18.063-4.498-18.063s-4.065 8.636-5.857 15.635c-1.595 6.23 3.992 16.5 5.24 18.683a102.762 102.762 0 0 1-5.064 4.422l.59.721a103.062 103.062 0 0 0 5.903-5.198c14.79 4.985 21.96-2.861 24.296-5.266 2.362-2.432 10.392-8.65 10.392-8.65-14.32-.35-26.063 6.752-31.655 10.884 5.712-6.004 9.435-11.722 11.904-17.082 2.421-.693 12.14-3.687 16.565-8.264Z" fill="#573f37" fill-rule="evenodd" style="--darkreader-inline-fill:#4a352e" transform="translate(-95.167 -112.233)" data-name="Path 1898"/><path d="M117.432 344.899c-2.644-6.724-7.745-14.791-7.745-14.791s-4.06 8.846-2.23 18.48c1.356 7.135 4.483 12.445 6.014 14.722-9.374-6.984-14.95-13.946-18.47-20.493-.24-3.276-.823-15.155 2.673-21.212 4.08-7.067 4.089-11.235.441-18.2 0 0-1.663 8.54-5.042 11.296C90.61 316.71 88.9 324.21 91 333.22c-1.068-3.418-1.761-6.638-2.396-9.588l-.16-.743c-.594-2.757-1.38-5.657-2.242-8.499 1.241-1.93 5.5-9.305 4.442-18.14-1.236-10.311-4.012-14.775-4.012-14.775s-4.296 13.348-3.192 18.178c.747 3.262 1.592 9.063 2.063 12.489-2.835-8.877-6.12-16.616-6.166-16.724l-.49.209c-7.023-13.651-23.703-13.88-23.703-13.88s8.505 5.919 13.269 11.021c3.975 4.258 9.537 5.63 11.272 5.97 1.92 4.824 5.661 14.737 7.647 23.446-2.07-5.136-6.793-15.438-12.258-18-7.359-3.453-18.573-5.616-18.573-5.616s14.864 13.877 18.879 18.476c3.44 3.94 10.571 7.06 12.548 7.874 1.25 5.769 2.849 12.48 6.966 19.646-3.026-3.286-9.901-10.726-13.161-14.063-4.25-4.35-18.23-6.563-19.532-6.538-1.301.024 10.461 11.397 16.148 15.98 4.957 3.995 14.971 5.764 17.46 6.153 3.112 5.012 7.513 10.227 13.924 15.477-6.06-3.409-18.592-9.004-32.758-6.885 0 0 8.738 5.177 11.382 7.298 2.616 2.098 10.701 8.997 24.76 2.222a103.236 103.236 0 0 0 6.502 4.428l.496-.788a103.612 103.612 0 0 1-5.576-3.754c.962-2.303 5.25-13.203 2.893-19.195Z" fill="#573f37" fill-rule="evenodd" style="--darkreader-inline-fill:#4a352e" transform="translate(34.945 -104.787)" data-name="Path 1899"/></g><g data-name="Group 4657"><g data-name="Group 4656" transform="translate(59 18)" clip-path="url(&quot;#b&quot;)"><g data-name="Group 4655"><g data-name="Group 4616"><path d="M200.646 341.055c-6.1 20.634-12.488 37.332-12.488 37.332l-48.411.903-13.83.259s-28.972-95.306-4.983-114.632a39.635 39.635 0 0 1 5.294-3.569c22.821-12.955 66.294-11.867 80.557 6.444 2.554 3.27 4.172 7.093 4.572 11.484 1.432 15.662-4.493 40.761-10.711 61.779Z" fill="#9e7d66" fill-rule="evenodd" style="--darkreader-inline-fill:#816552" transform="translate(-48.608 -110.224)" data-name="Path 1900"/><g data-name="Group 4614"><path d="m299.183 597.16-14.45-110.007h-11.02L288.16 597.16h11.022Z" fill="#472e28" fill-rule="evenodd" style="--darkreader-inline-fill:#3c2722" transform="translate(-119.401 -212.51)" data-name="Path 1901"/><path d="m151.428 597.16 14.449-110.007h-11.021l-14.45 110.007h11.022Z" fill="#472e28" fill-rule="evenodd" style="--darkreader-inline-fill:#3c2722" transform="translate(-61.25 -212.51)" data-name="Path 1902"/></g><g data-name="Group 4615"><path d="M228.568 474.86v11.865c-9.832 3.095-27.12 5.158-46.815 5.158-18.304 0-34.545-1.782-44.628-4.517V474.22a89.336 89.336 0 0 1 4.846-1.157c10.066-2.063 24.181-3.361 39.782-3.361 19.695 0 36.983 2.063 46.815 5.159Z" fill="#84644e" fill-rule="evenodd" style="--darkreader-inline-fill:#6f5441" transform="translate(-59.818 -204.897)" data-name="Path 1903"/><path d="M228.568 483.636v5.69c-9.832 3.094-27.12 5.158-46.815 5.158-18.304 0-34.545-1.782-44.628-4.518V476.82a89.393 89.393 0 0 1 4.846-1.156c3.923 5.705 10.817 11.583 22.478 11.645 13.614.063 42.892-2 64.12-3.673Z" fill="#6d503c" fill-rule="evenodd" style="--darkreader-inline-fill:#5b4332" transform="translate(-59.818 -207.498)" data-name="Path 1904"/></g><path d="m211.162 267.792-6.14 73.263c-6.1 20.634-12.487 37.332-12.487 37.332l-48.411.903-1.601-3.53s-3.524-2.294-4.245-8.157c-.728-5.858 0-35.394 0-35.394s-11.603-3.32-15.95-11.332c-3.704-6.816 5.475-47.588 8.277-59.529 22.821-12.955 66.294-11.867 80.557 6.444Z" fill="#89654d" fill-rule="evenodd" style="--darkreader-inline-fill:#745541" transform="translate(-52.985 -110.224)" data-name="Path 1905"/></g><g data-name="Group 4624"><g data-name="Group 4617"><path d="m411.382 604.677-12.987 2.989-3.71.847-5.43-19.08 6.206-2.424 12.926-5.063 2.995 22.73Z" fill="#b77158" fill-rule="evenodd" style="--darkreader-inline-fill:#c6836b" transform="translate(-169.804 -253.861)" data-name="Path 1906"/><path d="m398.395 611.583-3.71.847-5.43-19.079 6.206-2.425 2.934 20.657Z" fill="#a05842" fill-rule="evenodd" style="--darkreader-inline-fill:#cc8570" transform="translate(-169.804 -257.779)" data-name="Path 1907"/></g><path d="M263.05 418.519s55.054-1.197 59.098 1.752c4.043 2.949 25.528 96.01 25.528 96.01l-31.249 3.959-12.656-60.593-57.47-20.917-11.868-20.25 28.617.039Z" fill="#6d673b" fill-rule="evenodd" style="--darkreader-inline-fill:#5b5631" transform="translate(-102.266 -182.465)" data-name="Path 1908"/><g data-name="Group 4619"><g data-name="Group 4618"><path d="m339.418 643.276-13.362-.255-3.815-.08-.473-19.94 6.636-.85 13.825-1.784-2.81 22.909Z" fill="#b77158" fill-rule="evenodd" style="--darkreader-inline-fill:#c6836b" transform="translate(-140.364 -270.622)" data-name="Path 1909"/><path d="m326.056 644.401-3.815-.079-.473-19.94 6.636-.85-2.348 20.87Z" fill="#a05842" fill-rule="evenodd" style="--darkreader-inline-fill:#cc8570" transform="translate(-140.364 -272.002)" data-name="Path 1910"/></g><path d="m274.834 534.173-15.89 1.167-10.722.785-5.328-84.169s-68.95 2.322-76.548-9.15c-5.128-7.756-2.758-38.435-2.758-38.435l4.123.812 46.315 9.119s53.528 9.09 62.299 18.931c8.783 9.832-1.491 100.94-1.491 100.94Z" fill="#8e895c" fill-rule="evenodd" style="--darkreader-inline-fill:#78744e" transform="translate(-71.123 -176.398)" data-name="Path 1911"/><path d="M334.211 463.233c.46 2.962 2.216 5.554 4.13 7.86 1.44 1.738 3.32 3.515 5.571 3.367 1.61-.105 3.03-1.245 3.79-2.668.76-1.423.942-3.09.87-4.702-.127-2.862-1.046-5.73-2.85-7.957-1.602-1.978-5.299-4.674-8.045-3.725-2.856.988-3.87 5.218-3.466 7.825Z" fill="#a09a6d" fill-rule="evenodd" style="--darkreader-inline-fill:#a49a8d" transform="translate(-145.755 -198.576)" data-name="Path 1912"/><path d="m258.944 535.34-10.722.785-5.328-84.169s-68.95 2.322-76.548-9.15c-5.128-7.756-2.758-38.435-2.758-38.435l4.123.812c.255 6.053 1.605 32.187 6.21 33.385 5.2 1.37 76.178 6.808 76.178 6.808l8.845 89.964Z" fill="#77714a" fill-rule="evenodd" style="--darkreader-inline-fill:#645f3e" transform="translate(-71.123 -176.398)" data-name="Path 1913"/></g><g data-name="Group 4621"><path d="M445.51 632.314c-.262-.901-.836-1.92-2.095-2.299-3.673-1.105-17.045-4.288-20.841-6.568-2.948-1.77-5.876-6.048-7.038-7.872l-23.652 4.071c-.634 6.231-.103 18.023.018 20.49l53.608-7.822Z" fill="#472e28" fill-rule="evenodd" style="--darkreader-inline-fill:#3c2722" transform="translate(-170.818 -268.531)" data-name="Path 1914"/><path d="m446.556 650.545-53.607 7.823-.796-5.28 53.608-7.822.795 5.28Z" fill="#fff" fill-rule="evenodd" style="--darkreader-inline-fill:#191b1c" transform="translate(-171.068 -281.483)" data-name="Path 1915"/><g data-name="Group 4620"><path d="M438.78 629.567a5.54 5.54 0 0 0-.08.199c-.193.5-.255 1.236.409 1.424.338.095.7 0 1.033-.116 1.146-.397 2.158-1.052 3.11-1.781 1.024-.785 2.113-1.63 2.68-2.811.587-1.221-.602-2.107-1.84-1.663-2.138.77-4.409 2.642-5.312 4.748Z" fill="#fff" fill-rule="evenodd" style="--darkreader-inline-fill:#f4f2ee" transform="translate(-191.316 -272.513)" data-name="Path 1916"/><path d="M446.678 633.54a6.662 6.662 0 0 0-.08.2c-.193.5-.255 1.236.409 1.424.338.096.7 0 1.033-.115 1.146-.398 2.158-1.053 3.11-1.782 1.024-.785 2.113-1.63 2.68-2.811.587-1.22-.602-2.107-1.839-1.662-2.139.769-4.41 2.642-5.313 4.747Z" fill="#fff" fill-rule="evenodd" style="--darkreader-inline-fill:#f4f2ee" transform="translate(-194.761 -274.247)" data-name="Path 1917"/><path d="M455.977 635.564a6.186 6.186 0 0 0-.08.2c-.193.5-.255 1.235.409 1.423.338.096.7 0 1.034-.115 1.145-.397 2.157-1.053 3.11-1.782 1.023-.785 2.112-1.63 2.68-2.811.586-1.22-.603-2.107-1.84-1.662-2.139.769-4.41 2.642-5.313 4.747Z" fill="#fff" fill-rule="evenodd" style="--darkreader-inline-fill:#f4f2ee" transform="translate(-198.818 -275.13)" data-name="Path 1918"/></g></g><g data-name="Group 4623"><path d="M363.332 680.541c-.026-.939-.323-2.069-1.445-2.754-3.273-1.999-15.405-8.463-18.5-11.631-2.403-2.46-4.153-7.339-4.815-9.397l-23.912-2.05c-2.192 5.868-4.663 17.41-5.17 19.828l53.842 6.004Z" fill="#472e28" fill-rule="evenodd" style="--darkreader-inline-fill:#3c2722" transform="translate(-135.008 -285.602)" data-name="Path 1919"/><path d="m362.325 701.191-53.841-6.004.567-5.308 53.842 6.004-.568 5.308Z" fill="#fff" fill-rule="evenodd" style="--darkreader-inline-fill:#191b1c" transform="translate(-134.57 -300.944)" data-name="Path 1920"/><g data-name="Group 4622"><path d="M360.938 674.235a6.043 6.043 0 0 0-.13.172c-.312.436-.558 1.131.036 1.48.304.18.679.179 1.03.151 1.208-.094 2.353-.471 3.46-.936 1.188-.5 2.456-1.042 3.304-2.04.877-1.033-.05-2.192-1.359-2.074-2.263.202-4.935 1.439-6.341 3.247Z" fill="#fff" fill-rule="evenodd" style="--darkreader-inline-fill:#f4f2ee" transform="translate(-157.252 -292.7)" data-name="Path 1921"/><path d="M367.572 680.08a5.543 5.543 0 0 0-.128.172c-.313.435-.56 1.131.035 1.48.304.18.679.178 1.03.15 1.207-.094 2.353-.471 3.459-.936 1.189-.5 2.456-1.042 3.304-2.04.878-1.032-.05-2.191-1.358-2.074-2.264.203-4.936 1.44-6.342 3.248Z" fill="#fff" fill-rule="evenodd" style="--darkreader-inline-fill:#f4f2ee" transform="translate(-160.147 -295.25)" data-name="Path 1922"/><path d="M376.057 684.391a5.261 5.261 0 0 0-.13.173c-.312.435-.558 1.131.036 1.48.304.179.679.178 1.03.15 1.208-.094 2.353-.471 3.46-.936 1.188-.5 2.456-1.042 3.304-2.04.877-1.033-.05-2.192-1.359-2.074-2.263.203-4.935 1.439-6.34 3.247Z" fill="#fff" fill-rule="evenodd" style="--darkreader-inline-fill:#f4f2ee" transform="translate(-163.848 -297.13)" data-name="Path 1923"/></g></g></g><path d="m233.233 110.94-.16 57.176s9.312-.093 17.348-7.508c8.035-7.416 9.135-12.97 9.135-12.97s.784-27.102-1.269-29.567-17.35-7.968-17.35-7.968l-7.704.837Z" fill="#1d1e1e" fill-rule="evenodd" style="--darkreader-inline-fill:#17191a" transform="translate(-101.673 -48.03)" data-name="Path 1924"/><g data-name="Group 4625"><path d="M227.186 218.498c-1.46 4.53-5.685 13.47-16.318 12.781-10.265-.663-19.105-10.559-23.255-16.023 1.363-.663 2.554-1.19 3.414-1.485a.225.225 0 0 1 .085-.025c.308-.098.602-.196.897-.294 3.082-.983 5.66-1.523 5.66-1.523l15.471.258s1.08-.147 3.167.417v.013c1.867.503 4.556 1.596 8.018 3.855.332.208.663.442 1.007.675.59.418 1.216.872 1.854 1.351Z" fill="#b77158" fill-rule="evenodd" style="--darkreader-inline-fill:#8f533e" transform="translate(-81.842 -92.45)" data-name="Path 1925"/><path d="M227.186 219.904c-1.46 4.53-5.685 13.47-16.318 12.781-10.265-.663-19.105-10.559-23.255-16.023 1.363-.663 2.554-1.19 3.414-1.485a.224.224 0 0 1 .085-.025c.872.896 1.634 1.89 2.382 2.762 2.223 2.53 4.654 4.912 7.515 6.717 4.813 3.033 11.186 4.224 16.183 1.535 3.29-1.756 5.512-4.875 7.133-8.288.332.208.663.442 1.007.675.59.418 1.216.872 1.854 1.351Z" fill="#fff" fill-rule="evenodd" style="--darkreader-inline-fill:#191b1c" transform="translate(-81.842 -93.855)" data-name="Path 1926"/><path d="m219.067 210.193-13.636-14.635c.061-2.306.27-3.17.573-8.874.328-6.343.658-12.287.658-12.287l17.792 7.376c-2.073 4.444-3.058 9.533-3.44 14.39-.8 10.239-1.947 14.03-1.947 14.03Z" fill="#b77158" fill-rule="evenodd" style="--darkreader-inline-fill:#8f533e" transform="translate(-89.615 -76.077)" data-name="Path 1927"/><path d="M224.898 181.773c-2.074 4.444-3.058 9.533-3.44 14.39-.57.227-1.125.436-1.648.608-2.09.69-8.674-5.35-13.362-10.087.328-6.343.657-12.287.657-12.287l17.793 7.376Z" fill="#89503d" fill-rule="evenodd" style="--darkreader-inline-fill:#cf9582" transform="translate(-90.058 -76.077)" data-name="Path 1928"/></g><path d="m218.596 91.364-.028-.012s-13.52-7.983-26.328-2.909c-12.804 5.074-39.55 19.98-14.095 57.347 0 0-18.75-9.759-15.007-32.704 3.743-22.935 23.932-31.645 39.21-29.717 3.901.49 10.424 3.896 16.248 7.995Z" fill="#573f37" fill-rule="evenodd" style="--darkreader-inline-fill:#4a352e" transform="translate(-70.95 -36.255)" data-name="Path 1929"/><g data-name="Group 4638"><path d="M313.923 280.408c-10.991-5.412-28.23 4.254-28.23 4.254s-10.673-30.39-12.514-33.174c-1.842-2.785-7.47-7.755-7.47-7.755l-17.614 25.846 12.896 34.498 41.978 1.338 10.954-25.007Z" fill="#b7543d" fill-rule="evenodd" style="--darkreader-inline-fill:#994633" transform="translate(-108.226 -106.323)" data-name="Path 1930"/><g data-name="Group 4626"><path d="M157.845 419.027s-5.065 18.72-.614 19.567c4.45.846 27.319-.382 34.379-3.298 7.06-2.916 32.23-11.971 33.152-16.269.92-4.297-66.917 0-66.917 0Z" fill="#fff8f3" fill-rule="evenodd" style="--darkreader-inline-fill:#3d1900" transform="translate(-67.79 -181.958)" data-name="Path 1931"/><path d="M236.53 328.377c-37.171 10.298-79.62 3.813-79.727 3.785.157-1.461 14.297-68.312 11.504-79.68-1.172-4.77-6.84-28.148-6.84-28.148s9.102-7.3 12.71-9.077c1.354-.67 2.547-1.196 3.404-1.487 3.506-1.18 6.643-1.847 6.643-1.847l15.47.255s1.08-.142 3.173.425v.013c2.358.638 6.018 2.189 10.893 5.875a68.4 68.4 0 0 1 3.453 2.798c1.39 1.208 8.672 8.568 8.672 8.568s-4.528 35.013-5.41 38.878c-.559 2.426 15.759 58.294 16.056 59.642Z" fill="#e36c44" fill-rule="evenodd" style="--darkreader-inline-fill:#a53c18" transform="translate(-68.402 -92.447)" data-name="Path 1932"/></g><g data-name="Group 4637"><g data-name="Group 4627"><path d="m296.143 239.039 1.691-10.182 32.25 14.845 18.845-3.887-1.57 9.43-20.013 7.023-31.203-17.23Z" fill="#fef1e8" fill-rule="evenodd" style="--darkreader-inline-fill:#421c03" transform="translate(-129.186 -99.834)" data-name="Path 1933"/><path d="m343.282 247.222-11.614 51.237-13.964 3.534-14.038 3.555-.885.225-8.049-5.467-18.193-12.36 8.636-50.345 20.296 6.426 12.383 4.907 1.755 1.088 7.217-.853 16.456-1.947Z" fill="#95deff" fill-rule="evenodd" style="--darkreader-inline-fill:#005379" transform="translate(-120.634 -103.648)" data-name="Path 1934"/><path d="m364.272 254.666-11.614 51.237-13.964 3.534-14.038 3.555 14.188-56.613 1.755 1.088 7.218-.853 16.455-1.948Z" fill="#95deff" fill-rule="evenodd" style="--darkreader-inline-fill:#005379" transform="translate(-141.624 -111.093)" data-name="Path 1935"/></g><g data-name="Group 4636"><g data-name="Group 4634"><g data-name="Group 4633"><g data-name="Group 4632"><g data-name="Group 4631"><path d="M322.773 268.625c1.318 1.87-12.55 9.455-12.55 9.455l.612 4.349 6.092-2.627 9.628.87s.629 1.771 1.269 3.987c.083.276.16.559.239.845.368 1.328.71 2.75.909 4.007.025.12.04.244.061.362.085.63.133 1.207.127 1.698-.01.547-.09.982-.265 1.27l-7.474.966s-5.463 8.836-6.843 9.604c-.548.302-3.29.164-6.393-.113a792.131 792.131 0 0 1-8.732-.874l-2.521-6.342 3.262-8.031c.35-.963.84-2.23 1.433-3.622l-.003-.002c.29-.685.608-1.398.944-2.122 1.222-2.62 2.724-5.348 4.34-7.187.682-.782 1.387-1.4 2.1-1.778 4.916-2.621 12.45-6.583 13.765-4.715Z" fill="#b77158" fill-rule="evenodd" style="--darkreader-inline-fill:#8f533e" transform="translate(-129.53 -116.97)" data-name="Path 1936"/><g data-name="Group 4630"><g data-name="Group 4628"><path d="M344.903 305.175c.025.12.04.245.062.362-.314 0-.725-.006-1.22-.01-1.123-.002-2.641.019-4.282.074-1.64.067-3.115.227-4.21.472l-.746.175c-.216.072-.405.13-.558.183l-.496.152s.136-.132.397-.362c.128-.114.292-.255.484-.411.203-.136.434-.287.702-.452 1.057-.638 2.706-1.23 4.506-1.303a11.77 11.77 0 0 1 4.395.709c.39.145.711.288.966.41Z" fill="#89503d" fill-rule="evenodd" style="--darkreader-inline-fill:#cf9582" transform="translate(-145.462 -132.635)" data-name="Path 1937"/></g><g data-name="Group 4629"><path d="M343.802 296.953c.082.276.16.559.239.845-.064.007-.132.004-.197.003-1.123-.002-2.64.019-4.279.076-1.643.065-3.118.225-4.213.47-.275.064-.522.12-.74.174-.22.07-.407.133-.56.18l-.493.154s.132-.128.391-.36c.132-.111.292-.255.487-.409.2-.138.437-.29.699-.454 1.062-.64 2.712-1.23 4.509-1.3 1.666-.06 3.119.264 4.157.621Z" fill="#89503d" fill-rule="evenodd" style="--darkreader-inline-fill:#cf9582" transform="translate(-145.508 -129.265)" data-name="Path 1938"/></g></g></g></g></g></g><g data-name="Group 4635"><path d="M229.167 294.406c-4.003 3.279-74.173 22.715-79.355 23.342-.638.073-1.387.011-2.197-.16-5.747-1.277-15.03-8.521-17.178-14.784-.38-1.105-.43-3.192-.233-5.967 1.031-15.274 9.393-51.151 11.48-54.613 2.456-4.09 8.128-8.276 8.128-8.276s8.251 25.882 9.062 29.763c.822 3.891-1.83 18.957-1.83 18.957l67.347-9.933 4.776 21.671Z" fill="#fe7f54" fill-rule="evenodd" style="--darkreader-inline-fill:#a12901" transform="translate(-56.75 -102.055)" data-name="Path 1939"/><path d="M246.91 302.546c-1.444-6.943-3.002-13.872-4.32-20.84-.118-.626-.843-1.143-1.466-1.116-4.375.188-8.832.546-13.319 1.062 2.328-9.536 3.44-19.14 2.621-28.991-.046-.55-.836-.561-.863 0-.482 9.911-1.624 19.672-4.127 29.273-16.417 2.096-33.147 6.43-47.84 13.36 4.546-14.09 1.421-30.525-7.373-42.256-.305-.407-.94-.065-.696.407 7.307 14.009 8.559 28.098 5.03 43.34-.658.334-1.325.657-1.974 1.002-.91.484-.288 2.018.71 1.683 13.721-4.594 27.008-9.43 41.254-12.286 7.082-1.42 14.81-3.193 22.048-3.153 4.802.026 4.221 3.51 5.144 7.701.76 3.455 1.547 6.903 2.325 10.354-22.565 9.191-45.842 16.025-69.704 20.933-1.641.337-.937 2.796.688 2.496 24.35-4.482 48.088-11.792 70.926-21.321.703-.294 1.1-.86.936-1.648Z" fill="#b7543d" fill-rule="evenodd" style="--darkreader-inline-fill:#994633" transform="translate(-73.929 -110.036)" data-name="Path 1940"/></g></g></g></g><g data-name="Group 4654"><g data-name="Group 4649"><g data-name="Group 4646"><path d="M240.527 126.603a59.142 59.142 0 0 1-1.486 5.192s.654 8.982-.32 10.975c-.98 1.998-7.218 14.426-13.543 13.547-5.279-.733-18.087-8.694-22.506-13.385-.885-.933-1.434-1.736-1.526-2.327-.558-3.569-2.42-19.3-2.598-20.616-.48-3.567-1.529-30.544 30.932-22.509 5.847 1.452 10.403 6.075 11.632 11.97.89 4.257 1.112 9.955-.585 17.153Z" fill="#b77158" fill-rule="evenodd" style="--darkreader-inline-fill:#8f533e" transform="translate(-86.55 -41.875)" data-name="Path 1941"/><g data-name="Group 4640"><path d="M269.407 138.44s-4.702-5.118-6.787-2.69c-2.085 2.427-1.023 2.552-1.023 2.552l7.81.138Z" fill="#1d1e1e" fill-rule="evenodd" style="--darkreader-inline-fill:#e0ddd6" transform="translate(-113.998 -58.933)" data-name="Path 1942"/><path d="M220.807 131.299s10.871-4.347 12.228-.116c.792 2.47-.914 2.995-.914 2.995l-11.314-2.88Z" fill="#1d1e1e" fill-rule="evenodd" style="--darkreader-inline-fill:#e0ddd6" transform="translate(-96.322 -56.418)" data-name="Path 1943"/><g data-name="Group 4639"><path d="M247.533 168.922c-.661-.254-1.32-.628-2.026-.568a6.79 6.79 0 0 0 3.634 3.62c.125.052.255.1.39.098.166-.003.32-.081.464-.163a7.988 7.988 0 0 0 2.366-2.037c.13-.168.257-.346.31-.552.172-.681-.3-.539-.71-.386a6.243 6.243 0 0 1-1.476.352 6.274 6.274 0 0 1-2.952-.364Z" fill="#c7806d" fill-rule="evenodd" style="--darkreader-inline-fill:#d48d7a" transform="translate(-107.097 -73.438)" data-name="Path 1944"/><path d="M251.695 162.53c.423-.365.897-.673 1.33-1.03.536-.44 1.036-.922 1.476-1.458-2.198-1.569-2.137-3.89-1.986-6.52a7.661 7.661 0 0 1 2.838-5.516c.242-.195.489-.301.777-.414-.14.154-.236.335-.362.493-.33.416-.676.801-.961 1.252a9.37 9.37 0 0 0-.739 1.418 9.319 9.319 0 0 0-.717 3.106c-.054 1.045.083 2.105.45 3.088.419 1.122 1.175 2.24 2.178 2.907a73.484 73.484 0 0 1-1.7 1.887 7.955 7.955 0 0 1-1.277.974c-.448.274-.965.6-1.508.569a.885.885 0 0 1-.48-.152c.094-.06.183-.128.264-.206.035-.033.07-.068.104-.103.1-.103.205-.2.313-.294Z" fill="#89503d" fill-rule="evenodd" style="--darkreader-inline-fill:#cf9582" transform="translate(-109.5 -64.384)" data-name="Path 1945"/></g><path d="M261.642 166.047c.34.957 2.393 1.101 4.585.322 2.192-.78 3.693-2.188 3.352-3.145-.34-.957-2.393-1.101-4.585-.322-2.192.78-3.693 2.188-3.352 3.145Z" fill="#c7806d" fill-rule="evenodd" style="--darkreader-inline-fill:#d48d7a" transform="translate(-114.114 -70.844)" data-name="Path 1946"/><path d="M215.415 161.487c-.395 1.428 1.936 3.32 5.208 4.226 3.271.905 6.244.481 6.64-.948.395-1.428-1.937-3.32-5.208-4.225-3.272-.906-6.245-.482-6.64.947Z" fill="#c7806d" fill-rule="evenodd" style="--darkreader-inline-fill:#d48d7a" transform="translate(-93.951 -69.824)" data-name="Path 1947"/></g><g data-name="Group 4641"><path d="M222.204 143.873c-.262 2.46 1.256 5.006 3.545 5.946 2.29.94 5.157.197 6.7-1.738-1.882.488-3.935.165-5.726-.594-1.791-.758-3.559-1.923-4.519-3.614Z" fill="#1d1e1e" fill-rule="evenodd" style="--darkreader-inline-fill:#e0ddd6" transform="translate(-96.919 -62.761)" data-name="Path 1948"/></g><g data-name="Group 4644"><g data-name="Group 4642"><path d="m247.302 177.029-.59.333c-.383.218-.959.49-1.7.76-1.473.554-3.681 1.019-6.12.783-1.893-.18-3.594-.723-4.866-1.357-1.285-.616-2.137-1.314-2.588-1.665l.07-.122.497.329-.56-.203.069-.123c1.03.491 3.924 1.723 7.485 2.012 2.273.22 4.363.065 5.867-.2a18.162 18.162 0 0 0 1.78-.379l.656-.168Z" fill="#89503d" fill-rule="evenodd" style="--darkreader-inline-fill:#cf9582" transform="translate(-100.96 -76.672)" data-name="Path 1949"/></g><g data-name="Group 4643"><path d="M243.544 184.722s-.328.343-1.011.704a5.214 5.214 0 0 1-2.953.557c-1.904-.19-3.116-1.395-3.437-1.82l.079-.122.21.202-.282-.076.078-.122c.533.199 1.9.669 3.471.811 1.015.112 1.958.101 2.67.028.707-.07 1.175-.162 1.175-.162Z" fill="#89503d" fill-rule="evenodd" style="--darkreader-inline-fill:#cf9582" transform="translate(-103.012 -80.284)" data-name="Path 1950"/></g></g><path d="M242.34 155.48s.655 8.982-.32 10.975c-.98 1.998-7.217 14.426-13.542 13.547-5.279-.733-18.087-8.694-22.506-13.385 5.444 3.914 19.968 13.913 24.298 12.486 5.366-1.768 11.592-13.476 11.496-14.647-.097-1.176-.319-8.833-.319-8.833s1.117-2.4 2.38-5.335a59.14 59.14 0 0 1-1.486 5.192Z" fill="#c7806d" fill-rule="evenodd" style="--darkreader-inline-fill:#824332" transform="translate(-89.85 -65.56)" data-name="Path 1951"/><g data-name="Group 4645"><path d="M258.854 150.634c.37 1.831 2.04 3.319 3.902 3.477 1.861.157 3.757-1.03 4.43-2.772-1.245.778-2.796 1.011-4.258.872-1.462-.14-2.999-.577-4.074-1.577Z" fill="#1d1e1e" fill-rule="evenodd" style="--darkreader-inline-fill:#e0ddd6" transform="translate(-112.92 -65.71)" data-name="Path 1952"/></g></g><g data-name="Group 4648"><path d="M197.975 160.63c-4.085-.39-7.023-2.865-8.584-4.924a9.907 9.907 0 0 1-.84-1.3c-1.134-2.138-1.349-9.49 1.687-11.149 2.128-1.16 3.634.6 4.344 1.759v.003c.303.493.462.877.462.877l2.931 14.734Z" fill="#c7806d" fill-rule="evenodd" style="--darkreader-inline-fill:#d48d7a" transform="translate(-81.915 -62.327)" data-name="Path 1953"/><path d="M198.354 161.174c-4.085-.39-7.023-2.866-8.584-4.924a8.167 8.167 0 0 1-.351-.599c-1.133-2.138-1.348-9.49 1.688-11.147 1.723-.941 3.039.034 3.854 1.055v.004c.303.493.462.876.462.876l2.931 14.735Z" fill="#b77158" fill-rule="evenodd" style="--darkreader-inline-fill:#c6836b" transform="translate(-82.294 -62.87)" data-name="Path 1954"/><path d="M190.22 152.87c-.16.586-.074 1.199.11 1.783.78 2.479 3.212 4.401 5.541 6.187a6.19 6.19 0 0 1-.763-3.875c.058-.457.165-.91.176-1.369.049-1.849-4.115-6.185-5.063-2.726Z" fill="#c7806d" fill-rule="evenodd" style="--darkreader-inline-fill:#d48d7a" transform="translate(-82.943 -66.12)" data-name="Path 1955"/><g data-name="Group 4647"><path d="m197.585 161.535-.132-.078c-.085-.053-.221-.123-.376-.233a5.331 5.331 0 0 1-1.146-1.07 4.746 4.746 0 0 1-.924-1.974c-.147-.79-.098-1.707.34-2.585.046-.112.11-.217.176-.32l.049-.08.004-.006.003-.001h.001l-.007-.013-.037-.072-.078-.141c-.053-.093-.104-.187-.16-.277a11.119 11.119 0 0 0-1.436-1.91c-.252-.268-.493-.52-.734-.707a1.658 1.658 0 0 0-.758-.35 1.21 1.21 0 0 0-.651.097.616.616 0 0 0-.293.258c-.042.077-.04.124-.044.123 0 0-.012-.045.01-.131.017-.086.084-.215.248-.332.162-.113.415-.22.749-.222.332.003.688.12 1.005.306.32.187.606.419.907.673.3.257.603.545.892.865.29.32.57.672.821 1.053.064.095.124.192.185.29l.088.15.117.21.08.148c-.022.048-.056.097-.084.145l-.123.207a1.94 1.94 0 0 0-.151.28c-.38.76-.476 1.562-.42 2.283.075.723.306 1.368.594 1.881.288.514.62.897.871 1.151.123.128.237.217.306.283l.108.099Z" fill="#89503d" fill-rule="evenodd" style="--darkreader-inline-fill:#cf9582" transform="translate(-83.485 -66.093)" data-name="Path 1956"/></g></g></g><g data-name="Group 4653"><path d="M226.906 142.287c-2.57 3.524-10.153 11.653-10.153 11.653l-3.992-.738c3.665-2.915 14.089-16.795 14.145-23.166.045-6.483 2.07-17.544-1.663-21.406-3.727-3.85-11.86-10.504-11.86-10.504s-17.236 7.178-21.837 13.492c-4.605 6.32-2.328 27.512-1.449 31.656.446 2.108 5.374 5.361 10.555 7.695l-23.335-4.307s-18.752-9.759-15.007-32.704c3.742-22.935 23.931-31.645 39.21-29.717 3.9.49 10.423 3.896 16.248 7.995 5.784 4.076 10.869 8.834 11.996 12.098 2.261 6.557-.292 34.435-2.858 37.953Z" fill="#22b0ec" fill-rule="evenodd" style="--darkreader-inline-fill:#108abd" transform="translate(-70.588 -36.635)" data-name="Path 1957"/><g data-name="Group 4652"><g data-name="Group 4651"><g data-name="Group 4650"><path d="M244.489 257.212c-1.426 15.464-2.785 54.567-4.736 60.994-1.956 6.427-25.212 5.018-25.212 5.018s2.442-15.177 4.685-32.716c1.004-7.859.953-18.751.586-28.375-.445-11.85-1.364-21.784-1.364-21.784l23.487-10.937s2.384 7.391 2.802 17.9a76.126 76.126 0 0 1-.248 9.9Z" fill="#22b0ec" fill-rule="evenodd" style="--darkreader-inline-fill:#108abd" transform="translate(-93.589 -100.076)" data-name="Path 1958"/><path d="M247.76 247.312c-7.707 4.854-19.067 11.45-24.925 14.821-.445-11.85-1.364-21.784-1.364-21.784l23.487-10.937s2.384 7.391 2.802 17.9Z" fill="#0782b7" fill-rule="evenodd" style="--darkreader-inline-fill:#066d99" transform="translate(-96.612 -100.076)" data-name="Path 1959"/></g><path d="M190.24 190.902c-2.254.355-8.396 1.403-8.572 4.038-.175 2.635 1.999 4.214 1.999 4.214s-4.631.352-5.333 3.16c-.702 2.807 8.854 31.415 26.365 26.325 17.51-5.09 26.398-15.23 25.377-17.18-1.022-1.95-5.436-5.636-5.436-5.636s2.811-2.457 1.419-4.212-35.82-10.709-35.82-10.709Z" fill="#22b0ec" fill-rule="evenodd" style="--darkreader-inline-fill:#108abd" transform="translate(-77.779 -83.277)" data-name="Path 1960"/></g><path d="M196.428 210.271s18.635 18.404 33.507 12.03c0 0-13.034 12.652-21.007 5.766-7.973-6.886-12.5-17.796-12.5-17.796Z" fill="#0782b7" fill-rule="evenodd" style="--darkreader-inline-fill:#066d99" transform="translate(-85.687 -91.726)" data-name="Path 1961"/></g></g></g></g></g></g><g data-name="Group 4662"><g data-name="Group 4659"><g data-name="Group 4658"><path d="m327.036 169.66-11.113-1.57 8.614-5.323-3.85-11.861s10.18-22.98 13.196-22.239c3.016.742 26.49 7.82 27.68 10.337 1.188 2.516 5.955 27.72 5.031 30.46-.924 2.738-24.156 13.47-26.003 11.808-1.846-1.66-13.555-11.612-13.555-11.612Z" fill="#070707" fill-rule="evenodd" style="--darkreader-inline-fill:#050606" transform="translate(-78.814 -38.12)" data-name="Path 1962"/><path d="m327.259 165.5-11.336.776 8.838-7.67-3.85-11.86s10.18-22.982 13.196-22.24c3.015.742 26.49 7.82 27.679 10.337 1.189 2.516 5.956 27.72 5.032 30.46-.924 2.738-24.156 13.47-26.003 11.809-1.847-1.66-13.556-11.613-13.556-11.613Z" fill="#fff" fill-rule="evenodd" style="--darkreader-inline-fill:#191b1c" transform="translate(-78.814 -36.306)" data-name="Path 1963"/></g><path d="M351.444 174.458s24.711-9.122 20.558-13.375c-4.153-4.253-15.01 1.117-15.01 1.117s3.707-14.117-2.113-13.27c-5.82.849-8.733 14.934-3.435 25.528Z" fill="#573f37" fill-rule="evenodd" style="--darkreader-inline-fill:#c4beb5" transform="translate(-93.098 -46.952)" data-name="Path 1964"/></g><g data-name="Group 4661"><g data-name="Group 4660"><path d="m108.47 198.284 8.505.11-5.837-4.985 4.256-8.438s-4.965-18.392-7.31-18.185c-2.345.207-20.747 2.791-21.929 4.54-1.182 1.746-7.669 20.074-7.294 22.232.375 2.159 16.535 12.885 18.11 11.855 1.576-1.03 11.498-7.13 11.498-7.13Z" fill="#070707" fill-rule="evenodd" style="--darkreader-inline-fill:#050606" transform="translate(24.605 -54.756)" data-name="Path 1965"/><path d="m108.654 195.121 8.401 1.893-5.732-6.767 4.256-8.439s-4.966-18.392-7.31-18.185c-2.346.207-20.748 2.792-21.93 4.54-1.182 1.746-7.669 20.074-7.294 22.233.375 2.158 16.535 12.885 18.11 11.855 1.576-1.031 11.499-7.13 11.499-7.13Z" fill="#fff" fill-rule="evenodd" style="--darkreader-inline-fill:#191b1c" transform="translate(24.525 -53.376)" data-name="Path 1966"/></g><path d="M103.586 206.433s-14.721-8.175-11.682-10.457c3.039-2.281 9.373 2.171 9.373 2.171s-.963-9.28 2.631-8.177c3.594 1.104 4.06 10.287-.322 16.463Z" fill="#b59985" fill-rule="evenodd" style="--darkreader-inline-fill:#c1a591" transform="translate(19.09 -64.83)" data-name="Path 1967"/><path d="M117.97 183.59s-5.542-6.841-3.623-7.354c1.92-.513 4.122 2.884 4.122 2.884s1.346-4.689 2.873-3.452c1.527 1.238-.041 5.782-3.373 7.921Z" fill="#b59985" fill-rule="evenodd" style="--darkreader-inline-fill:#c1a591" transform="translate(9.295 -58.54)" data-name="Path 1968"/></g></g></g><defs><clipPath id="a"><path d="M0 134.44a128.137 134.54 0 1 1 0 .1z" data-name="SVGID"/></clipPath><clipPath id="b"><path d="M0 0h282v282H0V0z" data-name="SVGID"/></clipPath></defs></svg>