<svg xmlns="http://www.w3.org/2000/svg" width="51.356" height="64.871" viewBox="290 575 51.356 64.871"><path d="M310.092 588.385Zm-10.964 45.86v-16.16h7.274c3.099.528 6.166 2.212 9.25 4.16h5.643c2.56.153 3.896 2.745 1.414 4.445-1.98 1.457-4.582 1.373-7.274 1.135-1.848-.09-1.927 2.386 0 2.397.67.053 1.399-.106 2.032-.106 3.331 0 6.098-.639 7.782-3.283l.834-1.975 8.446-4.144c4.224-1.383 7.196 3.01 4.097 6.071a109.923 109.923 0 0 1-18.725 11.007c-4.635 2.82-9.276 2.724-13.9 0l-6.863-3.547ZM290 616.544h6.942v19.326H290v-19.326Zm31.511-40.26c.028-.363.196-.702.47-.944.268-.237.62-.358.977-.338h.095a1.378 1.378 0 0 1 1.198 1.436v.069l-.2 2.924v.09a1.41 1.41 0 0 1-.46.866c-.27.234-.62.353-.977.332h-.095a1.357 1.357 0 0 1-.844-.438 1.373 1.373 0 0 1-.338-.976.28.28 0 0 1 0-.069l.195-2.935Zm-15.31 4.457c-.53-.537-.53-1.401 0-1.938a1.373 1.373 0 0 1 1.938 0l2.112 2.143a1.373 1.373 0 0 1 0 1.938 1.367 1.367 0 0 1-1.937-.01l-2.112-2.144Zm-4.223 14.924a1.373 1.373 0 0 1-1.335-1.389 1.362 1.362 0 0 1 1.362-1.325h2.998c.365.004.713.154.966.417.26.258.403.61.396.977v.047c-.02.338-.164.656-.406.893a1.383 1.383 0 0 1-.977.39h-.053l-2.967-.031Zm37.941-2.587h.043c.343-.008.677.115.934.343.271.242.436.582.46.945v.042c.007.344-.116.678-.344.935a1.383 1.383 0 0 1-.945.459l-2.993.185a1.372 1.372 0 1 1-.164-2.74c1.003-.064 2.006-.132 3.01-.185Zm-5.405-12.184a1.362 1.362 0 0 1 1.91-.29c.288.215.478.536.529.891.05.36-.04.725-.254 1.02l-1.774 2.417c-.45.608-1.304.74-1.916.296a1.394 1.394 0 0 1-.528-.898 1.357 1.357 0 0 1 .28-1.013l1.779-2.423Zm-9.176 35.143a6.15 6.15 0 0 1-2.333 2.143 5.839 5.839 0 0 1-2.603.676 5.28 5.28 0 0 1-2.64-.634 5.38 5.38 0 0 1-1.514-1.235l9.064-.95Zm1.056-5v.792c.02.395.014.79-.02 1.183l-.217.845-10.986 1.124-.17-.449-.353-1.763v-.528l11.778-1.204Zm-9.903-15.172c.51.198.974.5 1.362.887.315.297.612.615.887.95a36.427 36.427 0 0 1 3.077-3.906 26.084 26.084 0 0 1 3.226-3.094l.253-.084 2.761.121-.575.58a48.853 48.853 0 0 0-4.44 5.243 60.367 60.367 0 0 0-4.419 6.536 17.32 17.32 0 0 0-2.28-4.018 11.957 11.957 0 0 0-2.64-2.64l2.766-.59Zm-6.283-7.665a12.59 12.59 0 0 1 2.64-2.872 11.889 11.889 0 0 1 3.458-1.932l.105-.032a12.57 12.57 0 0 1 2.888-.633 13.198 13.198 0 0 1 3.13.063c2.03.266 3.974.988 5.686 2.112a12.802 12.802 0 0 1 2.962 2.64 11.735 11.735 0 0 1 1.91 3.383c.252.7.442 1.421.571 2.154.139.782.2 1.576.185 2.37-.011.89-.12 1.774-.322 2.64a13.62 13.62 0 0 1-.887 2.566c-.829 1.795-2.186 3.505-3.521 5.19-.655.828-1.304 1.651-1.864 2.464a1.679 1.679 0 0 1-1.584.713l-9.872 1.024a1.679 1.679 0 0 1-1.784-1.209 14.528 14.528 0 0 0-.834-2.196 8.827 8.827 0 0 0-1.003-1.647c-.475-.591-.96-1.198-1.447-1.921a14.587 14.587 0 0 1-1.377-2.534l-.032-.095a15.157 15.157 0 0 1-.845-2.809 12.923 12.923 0 0 1-.206-3.03c.056-1.054.242-2.097.555-3.104a14.781 14.781 0 0 1 1.34-3.089v-.031l.122-.185Z" fill="#22b0ec" fill-rule="evenodd" data-name="solution-icon"/></svg>