<svg xmlns="http://www.w3.org/2000/svg" width="87.498" height="87.499" viewBox="69.705 117.033 87.498 87.499"><g data-name="Group 4922"><path d="M157.204 160.782c0 24.162-19.588 43.75-43.75 43.75s-43.749-19.588-43.749-43.75c0-24.163 19.587-43.75 43.75-43.75 24.161 0 43.749 19.587 43.749 43.75Z" fill="#c8e9fd" fill-rule="evenodd" data-name="Path 4260"/><path d="M138.848 155.746c-4.086 1.2-6.87 3.473-8.219 8.29l-.119.882c-.33 2.479-.595 4.767-.822 6.854 1.105-2.465 2.592-4.73 4.645-6.554 4.621-4.109 11.023-6.031 17.083-6.605.726-.068.72 1.064 0 1.133-5.857.554-12.461 2.458-16.74 6.701-2.837 2.815-4.458 6.402-5.499 10.178.133-1.278.276-2.679.438-4.19-.478 4.45-.784 7.92-1.179 10.233 1.416-3.317 4.836-9.765 10.839-12.346 6.33-2.722 12.818-3.32 14.775-10.65.331-1.234-5.021-6.914-15.202-3.926Zm-2.031 4.22c-.51.774-1.787 1.002-2.263 3.07-.31 1.35-2.264.443-1.801-.73.403-1.023 1.36-2.27 3.355-3.115.576-.243 1.01.316.709.776Zm9.422-2.045c-.34.916-2.54.544-3.891.243-1.253-.278-2.03-.009-3.534.655-.721.32-1.211-.43-.592-.911.62-.482 2.34-1.621 5.743-1.925.743-.066 2.937.145 2.274 1.938Zm-8.858 7.713c1.502-.328 2.9-.952 4.31-1.543.675-.283.965.814.302 1.092-1.412.59-2.81 1.215-4.312 1.543-.712.155-1.014-.937-.3-1.092Zm-1.387.923c.73 0 .73 1.132 0 1.132s-.73-1.132 0-1.132Zm-1.457 2.085c.73 0 .73 1.133 0 1.133s-.73-1.133 0-1.133Zm-1.41 5.217-.046-.006c-.157-.02-.285-.05-.4-.166a.567.567 0 0 1-.166-.4c0-.28.258-.604.566-.567l.046.007c.157.018.284.05.4.166.107.105.166.25.166.399 0 .28-.258.605-.566.567Zm7.346-5.322c-2.319.937-4.412 2.32-6.606 3.502-.642.347-1.214-.63-.571-.978 2.284-1.231 4.462-2.642 6.877-3.615.677-.273.968.822.3 1.091Zm1.778-.638c-.73 0-.73-1.131 0-1.131s.73 1.13 0 1.13Zm.807-4.485c-.73 0-.73-1.132 0-1.132s.73 1.132 0 1.132Zm1.029 3.058c-.73 0-.73-1.132 0-1.132.729 0 .729 1.132 0 1.132Zm1.72-1.253c-.73 0-.73-1.131 0-1.131s.73 1.131 0 1.131Zm1.671.635c-.73 0-.73-1.131 0-1.131s.73 1.131 0 1.131Zm.215-2.805c-.773.18-1.491.483-2.201.835-.652.323-1.226-.654-.57-.979.792-.393 1.604-.746 2.47-.948.712-.164 1.013.927.301 1.092Zm1.936.755c-.731 0-.731-1.132 0-1.132.73 0 .73 1.132 0 1.132Z" fill="#00984a" fill-rule="evenodd" data-name="Path 4261"/><path d="m129.619 172.401.063-.575c-.02.193-.042.386-.063.575Z" fill="#00984a" fill-rule="evenodd" data-name="Path 4262"/><path d="M143.965 155.983c.744-.066 2.937.145 2.274 1.937-.34.917-2.54.545-3.891.244-1.253-.279-2.03-.009-3.534.655-.72.32-1.21-.43-.592-.911.62-.482 2.34-1.621 5.743-1.925Z" fill="#fff" fill-rule="evenodd" data-name="Path 4263"/><path d="M136.108 159.191c.576-.243 1.01.316.709.775-.51.774-1.787 1.002-2.263 3.07-.31 1.35-2.264.443-1.801-.73.403-1.024 1.36-2.27 3.355-3.115Z" fill="#fff" fill-rule="evenodd" data-name="Path 4264"/><path d="M133.867 172.04c2.194-1.183 4.287-2.567 6.606-3.503.668-.27.377-1.364-.3-1.091-2.415.973-4.593 2.384-6.877 3.615-.643.348-.07 1.325.571.978Z" fill="#005e2e" fill-rule="evenodd" data-name="Path 4265"/><path d="M137.681 166.726c1.503-.328 2.9-.952 4.312-1.543.663-.279.373-1.375-.301-1.092-1.412.59-2.81 1.215-4.31 1.543-.716.155-.413 1.247.3 1.092Z" fill="#005e2e" fill-rule="evenodd" data-name="Path 4266"/><path d="M144.087 166.472c.73 0 .73-1.132 0-1.132s-.73 1.132 0 1.132Z" fill="#005e2e" fill-rule="evenodd" data-name="Path 4267"/><path d="M135.994 167.689c.73 0 .73-1.132 0-1.132s-.73 1.132 0 1.132Z" fill="#005e2e" fill-rule="evenodd" data-name="Path 4268"/><path d="M134.537 169.775c.73 0 .73-1.133 0-1.133s-.73 1.133 0 1.133Z" fill="#005e2e" fill-rule="evenodd" data-name="Path 4269"/><path d="m133.127 172.727-.046-.007c-.307-.037-.566.287-.566.566 0 .15.06.296.166.401.115.116.243.147.4.166l.046.006c.308.038.566-.286.566-.567a.565.565 0 0 0-.166-.4c-.115-.116-.243-.147-.4-.165Z" fill="#005e2e" fill-rule="evenodd" data-name="Path 4270"/><path d="M145.492 163.884c.71-.353 1.428-.656 2.201-.835.712-.165.41-1.256-.3-1.092-.867.201-1.678.555-2.472.948-.655.325-.08 1.302.57.979Z" fill="#005e2e" fill-rule="evenodd" data-name="Path 4271"/><path d="M147.478 165.855c.73 0 .73-1.132 0-1.132s-.73 1.132 0 1.132Z" fill="#005e2e" fill-rule="evenodd" data-name="Path 4272"/><path d="M143.058 163.414c.73 0 .73-1.132 0-1.132s-.73 1.132 0 1.132Z" fill="#005e2e" fill-rule="evenodd" data-name="Path 4273"/><path d="M142.25 167.899c.732 0 .732-1.132 0-1.132-.728 0-.728 1.132 0 1.132Z" fill="#005e2e" fill-rule="evenodd" data-name="Path 4274"/><path d="M145.807 165.22c.73 0 .73-1.132 0-1.132s-.73 1.131 0 1.131Z" fill="#005e2e" fill-rule="evenodd" data-name="Path 4275"/><path d="M149.628 163.804c.73 0 .73-1.132 0-1.132s-.73 1.132 0 1.132Z" fill="#005e2e" fill-rule="evenodd" data-name="Path 4276"/><path d="m100.581 173.802.007.059c-1.052-2.722-2.53-5.247-4.709-7.254-4.384-4.044-10.672-5.934-16.512-6.486-.72-.068-.726-1.2 0-1.132 6.07.574 12.806 2.507 17.314 6.817 1.411 1.351 2.55 2.883 3.478 4.533l.133 1.112c-.376-3.11-.774-6.487-1.204-9.873-1.792-2.612-4.226-4.646-7.493-5.606-10.18-2.988-15.08 2.842-14.749 4.077 1.958 7.33 8.445 7.926 14.777 10.648 5.042 2.169 8.263 7.07 10.004 10.547-.345-2.008-.687-4.568-1.046-7.442Zm-5.417-13.631c1.997.845 2.954 2.092 3.357 3.115.463 1.173-1.492 2.08-1.802.73-.476-2.068-1.754-2.296-2.262-3.07-.302-.46.132-1.018.707-.775Zm-7.854-3.208c3.4.303 5.123 1.443 5.742 1.924.619.482.128 1.231-.592.912-1.504-.663-2.28-.934-3.533-.655-1.353.3-3.552.673-3.892-.244-.663-1.792 1.53-2.003 2.275-1.937Zm9.048 12.056c.731 0 .731 1.131 0 1.131-.73 0-.73-1.131 0-1.131Zm-2.247-2.086c.73 0 .73 1.132 0 1.132-.732 0-.732-1.132 0-1.132Zm-.934-.697c.713.156.41 1.248-.301 1.092-1.503-.326-2.902-.952-4.312-1.543-.664-.279-.372-1.374.3-1.092 1.412.592 2.81 1.215 4.313 1.543Zm-11.91-2.056c-.73 0-.73-1.133 0-1.133s.73 1.133 0 1.133Zm2.15 2.05c-.729 0-.729-1.131 0-1.131.731 0 .731 1.131 0 1.131Zm1.674-.634c-.73 0-.73-1.133 0-1.133s.73 1.133 0 1.133Zm.313-1.337c-.71-.351-1.426-.654-2.2-.834-.712-.164-.41-1.256.3-1.092.866.201 1.678.555 2.472.95.654.324.08 1.3-.572.976Zm1.406 2.59c-.732 0-.732-1.133 0-1.133.73 0 .73 1.132 0 1.132Zm1.368-3.814c.73 0 .73 1.133 0 1.133s-.73-1.133 0-1.133Zm.466 5.24c-.73 0-.73-1.132 0-1.132s.73 1.132 0 1.132Zm1.778.638c-.669-.27-.376-1.365.3-1.092 2.417.974 4.595 2.384 6.878 3.616.643.347.071 1.324-.571.979-2.193-1.184-4.286-2.567-6.607-3.503Zm7.793 5.15c-.115.116-.243.145-.399.166l-.047.005c-.307.04-.567-.286-.567-.566 0-.15.06-.295.167-.4.115-.116.243-.146.4-.166l.047-.007c.307-.037.565.288.565.567 0 .15-.06.296-.166.4Z" fill="#00984a" fill-rule="evenodd" data-name="Path 4277"/><path d="m100.488 173.052-.022-.172.022.172Z" fill="#00984a" fill-rule="evenodd" data-name="Path 4278"/><path d="m100.388 172.237-.025-.207.025.207Z" fill="#00984a" fill-rule="evenodd" data-name="Path 4279"/><path d="M87.31 156.963c-.745-.066-2.938.145-2.275 1.937.34.917 2.539.544 3.892.244 1.252-.279 2.029-.008 3.533.655.72.319 1.21-.43.592-.912-.62-.481-2.342-1.62-5.743-1.924Z" fill="#fff" fill-rule="evenodd" data-name="Path 4280"/><path d="M95.164 160.17c-.575-.242-1.01.316-.707.776.509.774 1.786 1.002 2.262 3.07.31 1.35 2.265.442 1.802-.73-.403-1.023-1.36-2.27-3.357-3.115Z" fill="#fff" fill-rule="evenodd" data-name="Path 4281"/><path d="M97.6 171.437c-2.283-1.232-4.461-2.642-6.878-3.616-.677-.273-.969.822-.3 1.092 2.32.936 4.414 2.319 6.607 3.503.642.345 1.214-.632.571-.979Z" fill="#005e2e" fill-rule="evenodd" data-name="Path 4282"/><path d="M93.177 166.236c-1.503-.327-2.901-.951-4.312-1.543-.673-.282-.965.813-.302 1.092 1.411.591 2.81 1.217 4.312 1.543.712.156 1.014-.936.302-1.092Z" fill="#005e2e" fill-rule="evenodd" data-name="Path 4283"/><path d="M94.11 168.065c.73 0 .73-1.132 0-1.132-.731 0-.731 1.132 0 1.132Z" fill="#005e2e" fill-rule="evenodd" data-name="Path 4284"/><path d="M96.358 170.15c.731 0 .731-1.132 0-1.132-.73 0-.73 1.132 0 1.132Z" fill="#005e2e" fill-rule="evenodd" data-name="Path 4285"/><path d="m97.768 174.234.048-.006c.155-.02.284-.05.399-.166a.565.565 0 0 0 .166-.4c0-.28-.259-.604-.565-.566l-.048.006c-.157.02-.284.05-.4.166a.566.566 0 0 0-.166.4c0 .28.26.605.566.566Z" fill="#005e2e" fill-rule="evenodd" data-name="Path 4286"/><path d="M134.83 138.874c0 1.1-8.79 1.994-19.633 1.994-10.842 0-19.631-.893-19.631-1.994 0-1.1 8.789-1.993 19.631-1.993 10.843 0 19.632.892 19.632 1.993Z" fill="#4cc5f5" fill-rule="evenodd" data-name="Path 4287"/><path d="M115.593 182.138c-4.208 0-7.908.518-10.063 1.302.056.136.11.252.164.339 1.41 2.302 18.203 2.302 19.614 0 .06-.1.124-.233.187-.397-2.174-.751-5.797-1.244-9.902-1.244Z" fill="#00b8f2" fill-rule="evenodd" data-name="Path 4288"/><path d="M113.21 179.46c.716-1.452 1.345-2.941 1.98-4.43.643-1.5 1.52-2.864 2.184-4.348.296-.66-.68-1.237-.977-.572-.666 1.484-1.54 2.85-2.184 4.348-.639 1.488-1.265 2.978-1.981 4.43-.32.653.655 1.226.979.572Z" fill="#005a9d" fill-rule="evenodd" data-name="Path 4289"/><path d="M119.085 177.38c.949-1.191 1.487-2.604 2.004-4.02.25-.688-.844-.982-1.093-.301-.443 1.217-.894 2.494-1.711 3.52-.45.566.346 1.371.8.801Z" fill="#005a9d" fill-rule="evenodd" data-name="Path 4290"/><path d="M120.525 170.063c.994-1.696 1.952-3.413 2.926-5.12.363-.636-.616-1.207-.976-.572-.975 1.707-1.933 3.424-2.927 5.12-.371.631.609 1.2.977.572Z" fill="#005a9d" fill-rule="evenodd" data-name="Path 4291"/><path d="M118.445 164.413c.441-1.165 1.127-2.216 1.63-3.354.292-.66-.682-1.238-.978-.571-.543 1.228-1.266 2.365-1.745 3.624-.259.684.836.977 1.093.3Z" fill="#005a9d" fill-rule="evenodd" data-name="Path 4292"/><path d="M122.1 180.416c.642-1.364 1.162-2.777 1.69-4.186.256-.686-.84-.979-1.092-.302-.493 1.32-.976 2.642-1.575 3.916-.308.658.667 1.232.977.572Z" fill="#005a9d" fill-rule="evenodd" data-name="Path 4293"/><path d="M110.172 175.915c.669-1.329 1.055-2.79 1.857-4.052.392-.618-.587-1.186-.978-.571-.803 1.263-1.188 2.722-1.857 4.052-.327.65.65 1.223.978.57Z" fill="#005a9d" fill-rule="evenodd" data-name="Path 4294"/><path d="M112.946 174.17c.731 0 .731-1.133 0-1.133-.73 0-.73 1.132 0 1.132Z" fill="#005a9d" fill-rule="evenodd" data-name="Path 4295"/><path d="M110.076 178.784c.73 0 .73-1.133 0-1.133s-.73 1.133 0 1.133Z" fill="#005a9d" fill-rule="evenodd" data-name="Path 4296"/><path d="M116.436 179.966c.73 0 .73-1.133 0-1.133-.732 0-.732 1.133 0 1.133Z" fill="#005a9d" fill-rule="evenodd" data-name="Path 4297"/><path d="M123.357 181.204c.729 0 .729-1.133 0-1.133-.732 0-.732 1.133 0 1.133Z" fill="#005a9d" fill-rule="evenodd" data-name="Path 4298"/><path d="M122.457 173.438c.73 0 .73-1.133 0-1.133-.731 0-.731 1.133 0 1.133Z" fill="#005a9d" fill-rule="evenodd" data-name="Path 4299"/><path d="M125.1 170.23c.731 0 .731-1.132 0-1.132-.73 0-.73 1.132 0 1.132Z" fill="#005a9d" fill-rule="evenodd" data-name="Path 4300"/><path d="M117.787 167.923c.729 0 .729-1.132 0-1.132-.732 0-.732 1.132 0 1.132Z" fill="#005a9d" fill-rule="evenodd" data-name="Path 4301"/><path d="M120.712 164.434c.73 0 .73-1.132 0-1.132s-.73 1.132 0 1.132Z" fill="#005a9d" fill-rule="evenodd" data-name="Path 4302"/><path d="M123.3 160.72c.73 0 .73-1.131 0-1.131s-.73 1.132 0 1.132Z" fill="#005a9d" fill-rule="evenodd" data-name="Path 4303"/><path d="M126.001 162.128c.73 0 .73-1.133 0-1.133s-.73 1.133 0 1.133Z" fill="#005a9d" fill-rule="evenodd" data-name="Path 4304"/><path d="M124.37 167.417c.73 0 .73-1.133 0-1.133-.731 0-.731 1.133 0 1.133Z" fill="#005a9d" fill-rule="evenodd" data-name="Path 4305"/><path d="M122.569 170.736c.73 0 .73-1.132 0-1.132s-.73 1.132 0 1.132Z" fill="#005a9d" fill-rule="evenodd" data-name="Path 4306"/><path d="M124.48 174.9c.732 0 .732-1.131 0-1.131-.73 0-.73 1.131 0 1.131Z" fill="#005a9d" fill-rule="evenodd" data-name="Path 4307"/><path d="M120.037 179.628c.73 0 .73-1.133 0-1.133s-.73 1.133 0 1.133Z" fill="#005a9d" fill-rule="evenodd" data-name="Path 4308"/><path d="M109.796 181.597c.73 0 .73-1.133 0-1.133s-.73 1.133 0 1.133Z" fill="#005a9d" fill-rule="evenodd" data-name="Path 4309"/><path d="M111.484 167.748c.732 0 .732-1.131 0-1.131-.729 0-.729 1.131 0 1.131Z" fill="#005a9d" fill-rule="evenodd" data-name="Path 4310"/><path d="M117.279 174.619c.73 0 .73-1.132 0-1.132s-.73 1.132 0 1.132Z" fill="#005a9d" fill-rule="evenodd" data-name="Path 4311"/><path d="M107.6 179.009c.73 0 .73-1.133 0-1.133s-.73 1.133 0 1.133Z" fill="#005a9d" fill-rule="evenodd" data-name="Path 4312"/><path d="M115.9 177.543c.731 0 .731-1.133 0-1.133-.729 0-.729 1.133 0 1.133Z" fill="#005a9d" fill-rule="evenodd" data-name="Path 4313"/><path d="M124.538 172.763c.73 0 .73-1.133 0-1.133s-.73 1.133 0 1.133Z" fill="#005a9d" fill-rule="evenodd" data-name="Path 4314"/><path d="M113.666 165.668c.73 0 .73-1.133 0-1.133-.731 0-.731 1.133 0 1.133Z" fill="#005a9d" fill-rule="evenodd" data-name="Path 4315"/><path d="M122.288 162.69c.73 0 .73-1.132 0-1.132s-.73 1.132 0 1.132Z" fill="#005a9d" fill-rule="evenodd" data-name="Path 4316"/><path d="M124.707 164.49c.73 0 .73-1.132 0-1.132s-.73 1.132 0 1.132Z" fill="#005a9d" fill-rule="evenodd" data-name="Path 4317"/><path d="M124.425 178.84c.731 0 .731-1.133 0-1.133-.73 0-.73 1.132 0 1.132Z" fill="#005a9d" fill-rule="evenodd" data-name="Path 4318"/><path d="M118.574 172.199c.73 0 .73-1.132 0-1.132-.731 0-.731 1.132 0 1.132Z" fill="#005a9d" fill-rule="evenodd" data-name="Path 4319"/><path d="M114.534 167.18c-.558.854-.987 1.768-1.35 2.722-.26.685.833.977 1.092.302.328-.864.732-1.68 1.237-2.454.4-.612-.58-1.179-.979-.57Z" fill="#005a9d" fill-rule="evenodd" data-name="Path 4320"/><path d="M126.114 167.304c.73 0 .73-1.132 0-1.132s-.73 1.132 0 1.132Z" fill="#005a9d" fill-rule="evenodd" data-name="Path 4321"/><path d="M113.96 180.81c.73 0 .73-1.133 0-1.133-.732 0-.732 1.132 0 1.132Z" fill="#005a9d" fill-rule="evenodd" data-name="Path 4322"/><path d="M151.417 158.613c-6.06.574-12.463 2.497-17.084 6.605-2.053 1.824-3.54 4.09-4.645 6.554-.193 1.768-.359 3.39-.51 4.853 1.04-3.776 2.66-7.363 5.499-10.178 4.278-4.243 10.882-6.147 16.74-6.701.72-.069.726-1.201 0-1.133Z" fill="#005e2e" fill-rule="evenodd" data-name="Path 4323"/><path d="M100.158 170.339c-.928-1.65-2.066-3.182-3.477-4.533-4.508-4.31-11.245-6.243-17.314-6.817-.726-.068-.72 1.064 0 1.132 5.84.552 12.128 2.442 16.512 6.486 2.179 2.007 3.657 4.532 4.709 7.254a805.1 805.1 0 0 1-.43-3.522Z" fill="#005e2e" fill-rule="evenodd" data-name="Path 4324"/><path d="M115.197 140.868c-10.534 0-19.13-.843-19.61-1.901h-.021s1.902 10.272 3.285 20.784c1.534 11.67 2.62 23.79 3.896 25.752 1.788 2.75 23.068 2.75 24.854 0 1.228-1.887 1.406-9.29 2.91-20.585 1.412-10.61 4.067-24.862 4.259-25.89-.776 1.029-9.243 1.84-19.573 1.84Zm14.242 13.267-2.045 15.149-1.903 14.098h.004l-.017.043.01-.024-.007.053h-.014c-.055.13-.108.241-.16.325-1.41 2.302-18.204 2.302-19.613 0a2.399 2.399 0 0 1-.164-.34l.006.015h-.011s-1.276-5.437-1.479-7.044c-.375-2.984-2.903-19.851-3.232-22.04a1.175 1.175 0 0 1-.036-.235s-.014-.253.093-.601a1.583 1.583 0 0 1-.329-.642c-.377-1.503-1.093-4.87-1.504-6.482-.246-.966-.892-3.147 1.034-3.852 1.925-.705 6.012.377 4.838 3.1-1.112 2.58-1.8 3.35-1.714 6.052.942-.214 2.245-.255 4.058.04 8.684 1.409 11.278.177 14.262-.393 4.423-.846 8.704 1.147 7.923 2.778Z" fill="#84d4f8" fill-rule="evenodd" data-name="Path 4325"/><path d="M121.516 151.357c-2.984.57-5.578 1.802-14.262.393-1.813-.295-3.116-.254-4.058-.04.007.154.013.312.023.478.136 2.24-1.57 2.276-2.348 1.346-.107.348-.093.6-.093.6.083 2.432 8.008 2.614 14.713 2.614 8.802 0 13.132-.909 13.948-2.613.781-1.63-3.5-3.624-7.923-2.778Z" fill="#00b8f2" fill-rule="evenodd" data-name="Path 4326"/><path d="M99.038 146.41c-.246-.966-.892-3.147 1.034-3.852 1.925-.705 6.012.376 4.838 3.1-1.174 2.725-1.88 3.43-1.691 6.53.161 2.674-2.302 2.208-2.677.704-.377-1.503-1.093-4.87-1.504-6.482Z" fill="#fff" fill-rule="evenodd" data-name="Path 4327"/><path d="M115.49 156.748c-6.48 0-14.101-.17-14.676-2.378.078.516.28 1.856.545 3.637.58-.946 2.712-.992 2.815.585.157 2.4-.11 4.4-.251 5.387-.12.843-1.201.906-1.618.377.753 5.09 1.544 10.487 1.741 12.054.203 1.608 1.478 7.044 1.478 7.044h.012l-.006-.014c2.155-.784 5.855-1.302 10.063-1.302 4.101 0 7.722.491 9.897 1.244l1.904-14.098 2.045-15.15c-.816 1.705-5.145 2.614-13.948 2.614Zm10.511 4.248c.73 0 .73 1.132 0 1.132s-.73-1.132 0-1.132Zm-1.294 2.362c.73 0 .73 1.132 0 1.132s-.73-1.132 0-1.132Zm-.337 2.926c.73 0 .73 1.133 0 1.133-.731 0-.731-1.133 0-1.133Zm-1.07-6.695c.73 0 .73 1.132 0 1.132s-.73-1.132 0-1.132Zm-.731 11.147c-.73 0-.73-1.132 0-1.132s.73 1.132 0 1.132Zm-.112 2.702c-.731 0-.731-1.133 0-1.133.729 0 .729 1.133 0 1.133Zm-1.932-3.376c-.368.63-1.348.06-.976-.57.993-1.697 1.95-3.414 2.925-5.121.361-.635 1.34-.064.977.571-.974 1.708-1.932 3.425-2.926 5.12Zm1.763-8.504c.73 0 .73 1.132 0 1.132s-.73-1.132 0-1.132Zm-1.576 1.744c.73 0 .73 1.132 0 1.132s-.73-1.132 0-1.132Zm-3.36.81c.48-1.259 1.202-2.396 1.745-3.624.296-.667 1.27-.09.978.571-.503 1.138-1.189 2.19-1.63 3.354-.257.675-1.352.383-1.093-.301Zm.435 2.679c.729 0 .729 1.132 0 1.132-.732 0-.732-1.132 0-1.132Zm-2.274.96c-.505.772-.909 1.59-1.237 2.453-.259.675-1.352.383-1.092-.302.363-.954.792-1.868 1.35-2.723.4-.608 1.38-.041.979.571Zm-1.847-3.216c.73 0 .73 1.133 0 1.133-.731 0-.731-1.133 0-1.133Zm-.72 8.502c.731 0 .731 1.132 0 1.132-.73 0-.73-1.132 0-1.132Zm-1.462-6.42c.732 0 .732 1.131 0 1.131-.729 0-.729-1.131 0-1.131Zm-3.883 12.392c-.732 0-.732-1.133 0-1.133.73 0 .73 1.133 0 1.133Zm2.194 2.588c-.73 0-.73-1.133 0-1.133s.73 1.133 0 1.133Zm.281-2.813c-.73 0-.73-1.133 0-1.133s.73 1.133 0 1.133Zm1.953-6.921c-.802 1.261-1.188 2.723-1.857 4.052-.329.652-1.305.079-.978-.572.67-1.33 1.054-2.788 1.857-4.051.39-.615 1.37-.047.978.57Zm1.93 8.946c-.73 0-.73-1.132 0-1.132.731 0 .731 1.132 0 1.132Zm-.749-1.35c-.323.655-1.299.082-.978-.57.715-1.452 1.342-2.943 1.981-4.43.644-1.498 1.518-2.864 2.184-4.349.297-.665 1.273-.088.977.572-.665 1.484-1.541 2.849-2.184 4.348-.635 1.488-1.264 2.978-1.98 4.43Zm2.691-3.049c.73 0 .73 1.133 0 1.133s-.73-1.133 0-1.133Zm.535 3.556c-.732 0-.732-1.133 0-1.133.73 0 .73 1.133 0 1.133Zm.842-5.347c-.73 0-.73-1.132 0-1.132.731 0 .731 1.132 0 1.132Zm1.296-3.552c.73 0 .73 1.132 0 1.132-.731 0-.731-1.132 0-1.132Zm-.289 5.513c.817-1.027 1.268-2.304 1.711-3.521.25-.68 1.344-.387 1.094.301-.518 1.416-1.056 2.829-2.005 4.02-.454.57-1.25-.236-.8-.8Zm1.752 3.048c-.73 0-.73-1.133 0-1.133s.73 1.133 0 1.133Zm1.086.216c.6-1.274 1.082-2.596 1.575-3.915.253-.678 1.348-.385 1.092.301-.528 1.41-1.048 2.822-1.69 4.186-.31.66-1.285.086-.977-.572Zm2.233 1.36c-.73 0-.73-1.133 0-1.133s.73 1.133 0 1.133Zm1.07-2.364c-.73 0-.73-1.133 0-1.133s.73 1.133 0 1.133Zm.055-3.94c-.73 0-.73-1.131 0-1.131s.73 1.131 0 1.131Zm.057-2.137c-.73 0-.73-1.133 0-1.133s.73 1.133 0 1.133Zm.563-2.533c-.73 0-.73-1.132 0-1.132s.73 1.132 0 1.132Zm1.013-2.926c-.73 0-.73-1.132 0-1.132s.73 1.132 0 1.132Z" fill="#4cc5f5" fill-rule="evenodd" data-name="Path 4328"/><path d="M101.232 158.718c-.283-1.566 2.818-2.036 2.942-.126.157 2.4-.11 4.4-.251 5.387-.14.985-1.596.908-1.77.062-.34-1.675-.531-3.151-.921-5.323Z" fill="#fff" fill-rule="evenodd" data-name="Path 4329"/><path d="M115.593 182.138c-4.208 0-7.908.518-10.063 1.302.056.136.11.252.164.339 1.41 2.302 18.203 2.302 19.614 0 .06-.1.124-.233.187-.397-2.174-.751-5.797-1.244-9.902-1.244Z" fill="#00b8f2" fill-rule="evenodd" data-name="Path 4330"/></g></svg>