<svg xmlns="http://www.w3.org/2000/svg" xmlns:xlink="http://www.w3.org/1999/xlink" width="358.968" height="419.498" viewBox="0 0 358.968 419.498">
  <defs>
    <clipPath id="clip-path">
      <rect id="SVGID" width="358.968" height="419.498" transform="translate(-79)" fill="none"/>
    </clipPath>
    <clipPath id="clip-path-2">
      <path id="SVGID-2" data-name="SVGID" d="M731.044,711.063a54.808,54.808,0,1,1-54.484-55.13A54.806,54.806,0,0,1,731.044,711.063Z" transform="translate(-621.429 -655.932)" fill="none"/>
    </clipPath>
  </defs>
  <g id="Group_8849" data-name="Group 8849" transform="translate(-502.391 -573.716)">
    <g id="Group_8848" data-name="Group 8848" transform="translate(581.391 573.716)" clip-path="url(#clip-path)">
      <g id="Group_8702" data-name="Group 8702" transform="translate(153.231 187.99)">
        <g id="Group_8699" data-name="Group 8699">
          <path id="Path_7516" data-name="Path 7516" d="M693.3,736.308a16.53,16.53,0,0,1,.694-2,14.331,14.331,0,0,1,.852-1.694,12.569,12.569,0,0,1,1.229-1.7,12.127,12.127,0,0,1,1.439-1.434,11.261,11.261,0,0,1,1.866-1.315,11.5,11.5,0,0,1,1.9-.8c.727-.243,1.483-.43,2.214-.609l.249-.063a24.458,24.458,0,0,0,3.075-.908,8.6,8.6,0,0,0,1.756-.965,9.233,9.233,0,0,0,1.412-1.4,11.04,11.04,0,0,0,1.157-1.969,16.823,16.823,0,0,0,.687-2.009c.338-1.218.568-2.484.792-3.707.217-1.2.441-2.431.765-3.617a18.152,18.152,0,0,1,3.93-7.158,13.589,13.589,0,0,1,2.857-2.429,8.181,8.181,0,0,1,3.1-1.206,5.859,5.859,0,0,1,3.122.349,7.042,7.042,0,0,1,2.81,2.245,13.938,13.938,0,0,1,2.043,3.939,11.809,11.809,0,0,1,.575,2.255,14.068,14.068,0,0,1,.141,2.355,33.224,33.224,0,0,1-.3,3.583l-.118.988a19.612,19.612,0,0,0-.069,4.574l-.041-.156a11.726,11.726,0,0,0,.587,2.195l.038.131-.012,0a20.547,20.547,0,0,0,2.19,3.48l.1.13a22.859,22.859,0,0,1,2.267,3.5,15.493,15.493,0,0,1,.837,2.167,15.723,15.723,0,0,1,.54,2.409,15.389,15.389,0,0,1,.158,2.1,14.868,14.868,0,0,1-.183,2.189,14.128,14.128,0,0,1-.367,1.731,22.826,22.826,0,0,1-2.79,5.992c-1.016,1.633-2.164,3.215-3.275,4.742-.6.83-1.207,1.66-1.791,2.5a35.084,35.084,0,0,0-3.38,5.8l-.013.037-.012-.006-.03.106.015-.037a21.009,21.009,0,0,0-.854,2.46l-.074.271a29.86,29.86,0,0,0-.665,3.443h0c-.115.867-.211,1.739-.3,2.612a40.246,40.246,0,0,1-1.048,6.411c-.09.324-.187.647-.3.969l-.06.142.012,0c-.084.367-.178.736-.279,1.1a33.015,33.015,0,0,1-5.37,10.684,40.591,40.591,0,0,1-6.182,6.661,34.759,34.759,0,0,1-7.217,4.851c-.591.3-1.194.566-1.809.818a.68.68,0,0,1-.472.061.636.636,0,0,1-.38-.3.68.68,0,0,1-.056-.133,42.806,42.806,0,0,1-7.414-7.428c-1.081-1.322-2.108-2.668-3.321-4.285l-.391-.516a.719.719,0,0,1-.084-.114c-.321-.433-.646-.871-.952-1.312-.439-.632-.862-1.306-1.29-2.062a20.433,20.433,0,0,1-1.673-3.8,16.564,16.564,0,0,1-.728-3.679,18.661,18.661,0,0,1,.73-6.685c.053-.192.109-.383.167-.573a39.823,39.823,0,0,1,2-5.112q.623-1.36,1.3-2.69c.139-.277.282-.556.426-.831.29-.563.584-1.125.84-1.7h0a17.507,17.507,0,0,0,.693-2.022,22.041,22.041,0,0,0,.547-2.615h0a57.389,57.389,0,0,0,.329-8.144,52.131,52.131,0,0,1,.456-8.974,18.282,18.282,0,0,1,.405-1.829" transform="translate(-685.343 -701.249)" fill="#579b4a"/>
          <path id="Path_7517" data-name="Path 7517" d="M690.43,766.006a.39.39,0,0,1,.467.274,54.83,54.83,0,0,0,2.529,7.759c-.015-.04-.029-.072-.041-.106a48.933,48.933,0,0,0,3.122,6.288c1.017,1.726,2.152,3.376,3.336,4.993q.816-3.5,1.661-6.99c.815-3.367,1.675-6.723,2.544-10.077l-.006-.006a46.521,46.521,0,0,1-2.832-5.136c-.425-.9-.809-1.81-1.184-2.727-.383-.942-.744-1.89-1.072-2.848a38.422,38.422,0,0,1-1.511-5.678,34.437,34.437,0,0,1-.556-5.921.323.323,0,0,1,.012-.084.307.307,0,0,1,.6.084,29.742,29.742,0,0,0,.246,3.433v0a38.072,38.072,0,0,0,2.442,9.07c.324.786.668,1.564,1.042,2.328.383.794.8,1.573,1.219,2.348.635,1.167,1.328,2.3,2.028,3.438q1.53-5.846,3.143-11.669l.184-.662c.629-2.276,1.288-4.543,1.94-6.815-.436-.96-.836-1.937-1.207-2.925a43.54,43.54,0,0,1-1.321-4.2,34.8,34.8,0,0,1-1.135-8.476.265.265,0,0,1,.01-.077.31.31,0,0,1,.609.078,22.556,22.556,0,0,0,.17,2.68,38.369,38.369,0,0,0,2.6,9.294l-.009-.016c.255.619.517,1.232.8,1.841.23-.8.45-1.595.681-2.391,1.134-3.878,2.266-7.758,3.445-11.62.89-2.926,1.8-5.845,2.717-8.763-.568-1.512-1.175-3.011-1.655-4.556a14.321,14.321,0,0,1-.718-5.22.25.25,0,0,1,.012-.074.294.294,0,0,1,.295-.229.3.3,0,0,1,.305.3,10.531,10.531,0,0,0,.053,1.953l0-.016a14.219,14.219,0,0,0,.391,1.807,19.745,19.745,0,0,0,.71,1.993l-.009-.024c.354.85.727,1.7,1.092,2.543q2.01-6.394,4.091-12.767l.973-2.976a.435.435,0,0,1,.834.245c-1.745,5.318-3.386,10.668-4.988,16.029.4-.28.808-.556,1.2-.848h0a26.446,26.446,0,0,0,4.718-4.626l-.013.013q.548-.708,1.058-1.448a.312.312,0,0,1,.422-.1.306.306,0,0,1,.109.419,40.087,40.087,0,0,1-3.427,4.331,25.117,25.117,0,0,1-2.115,2.059,13.608,13.608,0,0,1-2.22,1.583.585.585,0,0,1-.032.087.5.5,0,0,1-.187.178c-.535,1.8-1.086,3.6-1.608,5.41-1.125,3.884-2.2,7.773-3.272,11.669-.557,2.024-1.091,4.051-1.616,6.082.668-.4,1.336-.8,2-1.2,1.144-.682,2.249-1.415,3.32-2.208.8-.606,1.6-1.228,2.366-1.878s1.531-1.347,2.264-2.055a49.077,49.077,0,0,0,4.257-4.7l-.024.027q.951-1.2,1.815-2.462a.311.311,0,0,1,.422-.108.3.3,0,0,1,.1.422,56.426,56.426,0,0,1-3.544,4.668,53.2,53.2,0,0,1-4.238,4.412c-.7.644-1.409,1.271-2.131,1.887-.777.659-1.577,1.285-2.382,1.9s-1.6,1.229-2.428,1.8a25.565,25.565,0,0,1-2.3,1.4q-.482,1.871-.964,3.741c-1.262,4.886-2.454,9.791-3.617,14.7q.263-.133.525-.267c.7-.365,1.4-.74,2.092-1.132a37.8,37.8,0,0,0,3.9-2.588c.743-.565,1.471-1.159,2.167-1.781s1.381-1.282,2.044-1.952a50.678,50.678,0,0,0,3.837-4.294c-.016.021-.037.041-.053.06.243-.3.479-.61.714-.918a.318.318,0,0,1,.423-.108.31.31,0,0,1,.108.423q-1.636,2.158-3.4,4.2a57.917,57.917,0,0,1-4.055,4.213c-.682.643-1.38,1.274-2.1,1.87-.706.593-1.449,1.15-2.195,1.686a26.023,26.023,0,0,1-2.347,1.5q-.608.334-1.237.615c-.281.127-.566.239-.854.341-.548,2.336-1.105,4.67-1.638,7.009Q703,781.684,701.7,787.6c-.024.109-.046.22-.069.329l.789-.394c.685-.349,1.356-.722,2.021-1.107a40.363,40.363,0,0,0,3.883-2.622c1.53-1.156,2.976-2.41,4.388-3.7,1.453-1.322,2.875-2.678,4.3-4.036a.306.306,0,0,1,.427.438c-1.265,1.22-2.513,2.456-3.782,3.669-1.3,1.243-2.612,2.469-3.958,3.657-.619.542-1.247,1.08-1.879,1.6-.677.55-1.383,1.069-2.084,1.586-.733.541-1.477,1.052-2.245,1.539a17.863,17.863,0,0,1-2.254,1.234q-1.037,4.8-2.045,9.608c-.214,1.023-.426,2.042-.64,3.063a1.19,1.19,0,0,1-.578.724,1.23,1.23,0,0,1-1.664-.472,1.288,1.288,0,0,1-.108-.946c.794-3.939,1.667-7.86,2.546-11.779.2-.905.416-1.809.623-2.712-.379-.494-.744-1-1.091-1.511-.554-.811-1.06-1.654-1.546-2.507-1.02-1.791-1.912-3.644-2.753-5.526a64.838,64.838,0,0,1-3.818-11.262.407.407,0,0,1,0-.2A.383.383,0,0,1,690.43,766.006Z" transform="translate(-683.065 -699.398)" fill="#63b255"/>
        </g>
        <g id="Group_8701" data-name="Group 8701" transform="translate(6.321 16.433)">
          <path id="Path_7518" data-name="Path 7518" d="M690.067,777.9c.074-.455.158-.909.245-1.362a29.937,29.937,0,0,1,1.119-4.149,20.559,20.559,0,0,1,3.719-6.514A27.079,27.079,0,0,1,701,760.889c.831-.542,1.732-1.091,2.836-1.723.542-.308,1.07-.631,1.584-.985a15.725,15.725,0,0,0,1.459-1.173,13.1,13.1,0,0,0,1.879-2.245l.089-.112.01.009a18.044,18.044,0,0,0,1.542-3.606s.03-.069.037-.066l.027-.046c.261-.977.516-2.093.761-3.174l.08-.344c.333-1.492.644-2.7.98-3.8a20.126,20.126,0,0,1,1.624-3.837,12.993,12.993,0,0,1,2.5-3.295,10.945,10.945,0,0,1,2.933-1.953,14.565,14.565,0,0,1,3.212-1c1.036-.225,2.1-.373,3.138-.517,1.191-.167,2.425-.338,3.616-.624a12.923,12.923,0,0,0,2.852-1.072,10.067,10.067,0,0,0,1.866-1.341,15.422,15.422,0,0,0,2.283-2.874c.87-1.381,1.626-2.869,2.359-4.307.268-.531.538-1.061.815-1.589a25.653,25.653,0,0,1,3.61-5.489,10.927,10.927,0,0,1,2.381-1.978,9.409,9.409,0,0,1,3-1.157,12.417,12.417,0,0,1,3.579-.114,10.555,10.555,0,0,1,2.96.684,6.138,6.138,0,0,1,1.9,1.179,5.717,5.717,0,0,1,1.276,1.763,6.87,6.87,0,0,1,.578,2.092,11.61,11.61,0,0,1,.038,2.389q-.06.816-.192,1.623a33.924,33.924,0,0,1-.811,3.551c-.31,1.109-.649,2.205-.989,3.3-.192.619-.385,1.241-.569,1.863-.264.868-.571,1.91-.824,3-.091.392-.174.789-.239,1.188a10.611,10.611,0,0,0-.139,1.356,13.891,13.891,0,0,0,.377,3.156h0l0,.007v0H755.4l.012,0,0,.006a.6.6,0,0,1,.01.084l0,0v0a.547.547,0,0,0,0,.06,44.939,44.939,0,0,0,1.546,4.462c.458,1.187.933,2.415,1.3,3.657a15.829,15.829,0,0,1,.712,4.334,13.655,13.655,0,0,1-.177,2.378,15.065,15.065,0,0,1-.5,2.1,13.2,13.2,0,0,1-.741,1.838,12.531,12.531,0,0,1-1.063,1.759,14.471,14.471,0,0,1-2.712,2.79,22.68,22.68,0,0,1-3.449,2.233q-.911.5-1.847.946c-.377.186-.762.364-1.147.544-.343.162-.687.321-1.03.486-.391.19-.78.391-1.162.6a16.2,16.2,0,0,0-3.39,2.345,8.819,8.819,0,0,0-1.184,1.433,8.32,8.32,0,0,0-.818,1.812h0a13.1,13.1,0,0,0-.363,1.627c-.063.394-.113.79-.156,1.187-.114,1.092-.172,2.193-.233,3.292l-.01.227-.01.184c-.032.607-.063,1.213-.1,1.822-.031.5-.075.992-.155,1.481-.021.127-.043.254-.068.379a13.409,13.409,0,0,1-1.19,3.34,21.682,21.682,0,0,1-4.77,6.06,41.844,41.844,0,0,1-6.814,5.083,58.663,58.663,0,0,1-7.142,3.7,46.817,46.817,0,0,1-6.431,2.314.956.956,0,0,1-.324.031.753.753,0,0,1-.305.04,35.455,35.455,0,0,1-7.664-1.495,23.873,23.873,0,0,1-6.3-3.041,18.013,18.013,0,0,1-7.432-10.815,25.625,25.625,0,0,1-.594-7.8c.065-1.023.186-2.077.37-3.216" transform="translate(-689.632 -712.397)" fill="#99ce84"/>
          <g id="Group_8700" data-name="Group 8700" transform="translate(3.831 4.149)">
            <path id="Path_7519" data-name="Path 7519" d="M692.523,801.422c2.513-2.591,5.028-5.178,7.472-7.83.367-.4.719-.8,1.082-1.2a.76.76,0,0,1-.071-.23,68.164,68.164,0,0,1-.318-7.562c0-2.429.1-4.861.208-7.288.147-3.558.4-7.112.584-10.666l0-.024a.309.309,0,0,1,.6.131c-.019.371-.035.743-.053,1.114v-.007l0,.049v.029c-.161,3.958-.259,7.917-.2,11.876.024,2.024.109,4.052.225,6.072.1,1.675.233,3.348.358,5.022.408-.458.827-.911,1.232-1.371,1.209-1.372,2.41-2.745,3.589-4.141s2.361-2.807,3.517-4.231c.9-1.119,1.789-2.252,2.677-3.387a.519.519,0,0,1-.14-.227,24.776,24.776,0,0,1-.606-3.174c-.145-1.094-.234-2.2-.279-3.306-.046-1.128-.065-2.249-.043-3.375.019-1.175.088-2.351.171-3.526q.113-1.7.305-3.392.2-1.676.463-3.348c.025-.159.05-.32.077-.481.333-2.059.75-4.11,1.224-6.142a.31.31,0,0,1,.357-.249.313.313,0,0,1,.249.357,73.647,73.647,0,0,0-1.82,13.134c0-.018,0-.037.007-.056-.046,1.131-.05,2.266-.019,3.4s.084,2.243.19,3.365c.1,1.1.248,2.2.42,3.294.133.817.292,1.627.453,2.438q3.259-4.205,6.347-8.538c2-2.793,3.942-5.631,5.852-8.49-.083-.632-.144-1.269-.2-1.9-.08-.943-.131-1.89-.169-2.836s-.063-1.894-.065-2.843,0-1.9.043-2.845c.034-.909.084-1.818.158-2.725.078-.936.175-1.874.3-2.808.047-.355.1-.708.156-1.061a45.864,45.864,0,0,1,.97-4.49.307.307,0,0,1,.6.112,39.051,39.051,0,0,0-1.133,8.116c-.089,2.263-.028,4.522.1,6.778.071,1.185.162,2.361.259,3.542.031.413.063.828.1,1.244.948-1.437,1.907-2.867,2.832-4.319-.027.044-.059.093-.084.137q3.953-6.217,7.622-12.621a.327.327,0,0,1-.021-.074c-.06-1.1-.088-2.195-.081-3.293.01-1.119.069-2.227.156-3.345.1-1.318.264-2.63.476-3.934.161-1,.349-1.994.56-2.984a.307.307,0,1,1,.6.112,48.958,48.958,0,0,0-1.017,7.829.507.507,0,0,0,.006-.068c-.059,1.492-.027,2.982.06,4.469q4.205-7.4,8-15.028-.142-.794-.233-1.595c-.078-.694-.125-1.387-.155-2.083a28.316,28.316,0,0,1,.127-4.244v-.015a.308.308,0,0,1,.6.122c-.043.444-.078.89-.1,1.334a30.372,30.372,0,0,0,.074,3.436c.038.542.094,1.076.158,1.617.013.122.029.243.044.365,1.324-2.681,2.618-5.377,3.861-8.1a.437.437,0,1,1,.793.366q-1.9,4.161-3.914,8.271c.413-.134.827-.261,1.234-.417a29.359,29.359,0,0,0,3.749-1.829.306.306,0,1,1,.3.535,26.2,26.2,0,0,1-5.659,2.5q-2.578,5.258-5.33,10.427-1.4,2.609-2.838,5.193c.261-.046.52-.091.778-.142.637-.121,1.268-.262,1.9-.414a30.507,30.507,0,0,0,3.843-1.216q1-.4,1.974-.859c.712-.339,1.4-.718,2.074-1.12a.308.308,0,0,1,.3.539,31.237,31.237,0,0,1-2.83,1.518c-.945.447-1.91.83-2.892,1.182-1.019.365-2.059.685-3.107.963a23.121,23.121,0,0,1-2.6.538q-3.684,6.558-7.643,12.957-1.614,2.6-3.281,5.174c.92-.072,1.84-.144,2.755-.248-.044,0-.088.01-.133.012a49.764,49.764,0,0,0,6.246-1.151,51.147,51.147,0,0,0,6.051-1.959,49.555,49.555,0,0,0,7.381-3.651.309.309,0,0,1,.3.54,52.919,52.919,0,0,1-5.457,2.9,57.682,57.682,0,0,1-5.825,2.288,52.32,52.32,0,0,1-6.169,1.661q-1.532.314-3.093.522a24.974,24.974,0,0,1-2.8.224q-4.011,6.147-8.292,12.115-1.7,2.368-3.449,4.7c.78.006,1.56.016,2.339,0,1.266-.025,2.527-.118,3.781-.265-.021,0-.046.009-.069.012a41.71,41.71,0,0,0,9.915-2.509c.825-.324,1.641-.674,2.443-1.058a.306.306,0,0,1,.3.534,43.25,43.25,0,0,1-4.459,1.863,45.288,45.288,0,0,1-5.1,1.455,48.944,48.944,0,0,1-5.141.852,26.926,26.926,0,0,1-4.8.159c-.787,1.044-1.573,2.09-2.373,3.124-2.244,2.894-4.5,5.78-6.843,8.6-1.055,1.269-2.14,2.512-3.215,3.762.4.031.8.062,1.209.087.989.063,1.978.087,2.969.091a49.071,49.071,0,0,0,5.886-.333,46.154,46.154,0,0,0,11.271-2.807,38.216,38.216,0,0,0,6.134-3.087.308.308,0,0,1,.419.122.3.3,0,0,1-.119.413,45.418,45.418,0,0,1-14.275,5.737,50.984,50.984,0,0,1-7.729,1.076c-1.26.084-2.518.1-3.782.065a26.3,26.3,0,0,1-2.947-.236c-.45.522-.889,1.051-1.341,1.571-1.845,2.109-3.744,4.183-5.7,6.2a1.277,1.277,0,0,1-.82.432,1.229,1.229,0,0,1-1.344-1.107,1.28,1.28,0,0,1,.012-.317A1.108,1.108,0,0,1,692.523,801.422Z" transform="translate(-692.231 -715.212)" fill="#579b4a"/>
            <path id="Path_7520" data-name="Path 7520" d="M698.113,757.27l0,.1v.024Z" transform="translate(-689.445 -695.274)" fill="#94c174"/>
            <path id="Path_7521" data-name="Path 7521" d="M698.881,750.931a.57.57,0,0,1,0,.071v-.029A.363.363,0,0,0,698.881,750.931Z" transform="translate(-689.08 -698.279)" fill="#94c174"/>
          </g>
        </g>
      </g>
      <g id="Group_8706" data-name="Group 8706" transform="translate(2.871 187.99)">
        <g id="Group_8703" data-name="Group 8703" transform="translate(22.878)">
          <path id="Path_7522" data-name="Path 7522" d="M643.7,736.308a16.807,16.807,0,0,0-.694-2,14.322,14.322,0,0,0-.852-1.694,12.57,12.57,0,0,0-1.229-1.7,12.14,12.14,0,0,0-1.44-1.434,11.138,11.138,0,0,0-1.866-1.315,11.427,11.427,0,0,0-1.9-.8c-.727-.243-1.483-.43-2.214-.609l-.251-.063a24.508,24.508,0,0,1-3.073-.908,8.6,8.6,0,0,1-1.756-.965,9.244,9.244,0,0,1-1.412-1.4,10.946,10.946,0,0,1-1.157-1.969,16.823,16.823,0,0,1-.687-2.009c-.338-1.218-.568-2.484-.792-3.707-.217-1.2-.441-2.431-.765-3.617a18.2,18.2,0,0,0-3.93-7.158,13.567,13.567,0,0,0-2.858-2.429,8.164,8.164,0,0,0-3.1-1.206,5.855,5.855,0,0,0-3.121.349,7.033,7.033,0,0,0-2.81,2.245,13.9,13.9,0,0,0-2.043,3.939,11.809,11.809,0,0,0-.575,2.255,14.042,14.042,0,0,0-.141,2.355,33.193,33.193,0,0,0,.3,3.583l.118.988a19.612,19.612,0,0,1,.069,4.574l.041-.156a11.858,11.858,0,0,1-.587,2.195l-.038.131.012,0a20.547,20.547,0,0,1-2.19,3.48l-.1.13a22.858,22.858,0,0,0-2.267,3.5,15.48,15.48,0,0,0-.837,2.167,15.722,15.722,0,0,0-.541,2.409,15.124,15.124,0,0,0-.156,2.1,14.652,14.652,0,0,0,.183,2.189,14.151,14.151,0,0,0,.367,1.731,22.776,22.776,0,0,0,2.79,5.992c1.014,1.633,2.164,3.215,3.275,4.742.6.83,1.207,1.66,1.791,2.5a35.075,35.075,0,0,1,3.379,5.8l.015.037.012-.006.03.106-.015-.037a20.778,20.778,0,0,1,.852,2.46l.074.271a29.494,29.494,0,0,1,.666,3.443h0c.116.867.211,1.739.305,2.612a40.232,40.232,0,0,0,1.048,6.411c.09.324.187.647.295.969l.062.142-.012,0c.084.367.177.736.277,1.1a33.071,33.071,0,0,0,5.37,10.684,40.663,40.663,0,0,0,6.184,6.661,34.725,34.725,0,0,0,7.217,4.851c.591.3,1.194.566,1.809.818a.679.679,0,0,0,.472.061.636.636,0,0,0,.38-.3.784.784,0,0,0,.056-.133,42.808,42.808,0,0,0,7.415-7.428c1.079-1.322,2.108-2.668,3.319-4.285l.392-.516a.722.722,0,0,0,.084-.114c.321-.433.644-.871.952-1.312.439-.632.862-1.306,1.29-2.062a20.436,20.436,0,0,0,1.673-3.8,16.554,16.554,0,0,0,.728-3.679,18.658,18.658,0,0,0-.73-6.685c-.055-.192-.109-.383-.167-.573a40.066,40.066,0,0,0-2-5.112q-.624-1.36-1.3-2.69c-.139-.277-.281-.556-.426-.831-.29-.563-.584-1.125-.84-1.7h0a17.484,17.484,0,0,1-.693-2.022,22.005,22.005,0,0,1-.547-2.615h0a57.359,57.359,0,0,1-.327-8.144,52.137,52.137,0,0,0-.456-8.974,18.646,18.646,0,0,0-.405-1.829" transform="translate(-598.859 -701.249)" fill="#579b4a"/>
          <path id="Path_7523" data-name="Path 7523" d="M641.783,766.006a.39.39,0,0,0-.467.274,54.807,54.807,0,0,1-2.529,7.759c.015-.04.03-.072.041-.106a48.948,48.948,0,0,1-3.122,6.288c-1.017,1.726-2.152,3.376-3.336,4.993q-.816-3.5-1.661-6.99c-.817-3.367-1.675-6.723-2.546-10.077l.007-.006A46.5,46.5,0,0,0,631,763.006c.425-.9.809-1.81,1.184-2.727.383-.942.743-1.89,1.072-2.848a38.236,38.236,0,0,0,1.509-5.678,34.136,34.136,0,0,0,.556-5.921.266.266,0,0,0-.01-.084.307.307,0,0,0-.6.084,29.769,29.769,0,0,1-.246,3.433v0a38.072,38.072,0,0,1-2.443,9.07c-.326.786-.669,1.564-1.042,2.328-.383.794-.8,1.573-1.221,2.348-.634,1.167-1.327,2.3-2.027,3.438q-1.53-5.846-3.144-11.669l-.183-.662c-.629-2.276-1.288-4.543-1.94-6.815.436-.96.836-1.937,1.207-2.925a43.091,43.091,0,0,0,1.319-4.2,34.719,34.719,0,0,0,1.136-8.476.269.269,0,0,0-.01-.077.31.31,0,0,0-.609.078,22.608,22.608,0,0,1-.17,2.68,38.447,38.447,0,0,1-2.6,9.294l.007-.016c-.255.619-.516,1.232-.8,1.841-.23-.8-.45-1.595-.681-2.391-1.134-3.878-2.266-7.758-3.445-11.62-.89-2.926-1.8-5.845-2.717-8.763.568-1.512,1.175-3.011,1.654-4.556a14.3,14.3,0,0,0,.719-5.22.25.25,0,0,0-.012-.074.294.294,0,0,0-.295-.229.3.3,0,0,0-.305.3,10.66,10.66,0,0,1-.053,1.953l0-.016a14.24,14.24,0,0,1-.391,1.807,19.4,19.4,0,0,1-.712,1.993l.009-.024c-.352.85-.725,1.7-1.091,2.543q-2.01-6.394-4.091-12.767l-.973-2.976a.435.435,0,0,0-.834.245c1.745,5.318,3.386,10.668,4.988,16.029-.4-.28-.808-.556-1.2-.848h0a26.4,26.4,0,0,1-4.718-4.626l.013.013q-.548-.708-1.058-1.448a.313.313,0,0,0-.422-.1.306.306,0,0,0-.109.419,39.714,39.714,0,0,0,3.427,4.331,25.117,25.117,0,0,0,2.115,2.059,13.608,13.608,0,0,0,2.22,1.583.6.6,0,0,0,.032.087.506.506,0,0,0,.187.178c.535,1.8,1.085,3.6,1.608,5.41,1.123,3.884,2.2,7.773,3.272,11.669.557,2.024,1.091,4.051,1.615,6.082-.669-.4-1.337-.8-2-1.2-1.144-.682-2.25-1.415-3.32-2.208-.8-.606-1.6-1.228-2.367-1.878s-1.53-1.347-2.263-2.055a49.079,49.079,0,0,1-4.257-4.7l.022.027q-.948-1.2-1.813-2.462a.313.313,0,0,0-.423-.108.306.306,0,0,0-.1.422,56.48,56.48,0,0,0,3.544,4.668,52.966,52.966,0,0,0,4.238,4.412c.7.644,1.409,1.271,2.131,1.887.777.659,1.577,1.285,2.382,1.9s1.6,1.229,2.428,1.8a25.358,25.358,0,0,0,2.3,1.4q.482,1.871.964,3.741c1.262,4.886,2.453,9.791,3.617,14.7-.175-.088-.351-.177-.525-.267-.7-.365-1.4-.74-2.093-1.132a37.779,37.779,0,0,1-3.9-2.588c-.743-.565-1.471-1.159-2.167-1.781s-1.381-1.282-2.045-1.952a50.424,50.424,0,0,1-3.837-4.294c.016.021.037.041.053.06-.243-.3-.479-.61-.715-.918a.318.318,0,0,0-.423-.108.311.311,0,0,0-.106.423q1.636,2.158,3.4,4.2a58.247,58.247,0,0,0,4.057,4.213c.682.643,1.38,1.274,2.1,1.87.706.593,1.449,1.15,2.195,1.686a25.836,25.836,0,0,0,2.347,1.5q.608.334,1.237.615c.28.127.565.239.853.341.548,2.336,1.106,4.67,1.638,7.009q1.346,5.895,2.644,11.812c.025.109.047.22.071.329l-.789-.394c-.685-.349-1.356-.722-2.022-1.107a40.715,40.715,0,0,1-3.883-2.622c-1.529-1.156-2.975-2.41-4.387-3.7-1.453-1.322-2.874-2.678-4.3-4.036a.308.308,0,0,0-.433.006.305.305,0,0,0,.006.432c1.263,1.22,2.513,2.456,3.782,3.669,1.3,1.243,2.612,2.469,3.958,3.657.619.542,1.247,1.08,1.88,1.6.677.55,1.383,1.069,2.084,1.586.733.541,1.477,1.052,2.245,1.539a17.865,17.865,0,0,0,2.254,1.234q1.037,4.8,2.044,9.608c.214,1.023.426,2.042.638,3.063a1.2,1.2,0,0,0,.579.724,1.23,1.23,0,0,0,1.664-.472,1.289,1.289,0,0,0,.108-.946c-.8-3.939-1.667-7.86-2.546-11.779-.2-.905-.416-1.809-.624-2.712q.568-.741,1.091-1.511c.554-.811,1.058-1.654,1.545-2.507,1.021-1.791,1.913-3.644,2.755-5.526a64.828,64.828,0,0,0,3.818-11.262.424.424,0,0,0,0-.2A.383.383,0,0,0,641.783,766.006Z" transform="translate(-596.356 -699.398)" fill="#63b255"/>
        </g>
        <g id="Group_8705" data-name="Group 8705" transform="translate(0 16.433)">
          <path id="Path_7524" data-name="Path 7524" d="M652.253,777.9c-.074-.455-.158-.909-.246-1.362a29.736,29.736,0,0,0-1.117-4.149,20.559,20.559,0,0,0-3.719-6.514,27.1,27.1,0,0,0-5.851-4.988c-.83-.542-1.73-1.091-2.835-1.723-.542-.308-1.07-.631-1.585-.985a15.741,15.741,0,0,1-1.459-1.173,13.186,13.186,0,0,1-1.881-2.245l-.087-.112-.01.009a17.959,17.959,0,0,1-1.542-3.606s-.03-.069-.037-.066l-.026-.046c-.261-.977-.516-2.093-.762-3.174l-.078-.344c-.333-1.492-.644-2.7-.98-3.8a20.13,20.13,0,0,0-1.624-3.837,12.993,12.993,0,0,0-2.5-3.295,10.971,10.971,0,0,0-2.933-1.953,14.563,14.563,0,0,0-3.212-1c-1.036-.225-2.1-.373-3.138-.517-1.193-.167-2.426-.338-3.616-.624a12.893,12.893,0,0,1-2.852-1.072,10.017,10.017,0,0,1-1.866-1.341,15.424,15.424,0,0,1-2.283-2.874c-.87-1.381-1.626-2.869-2.359-4.307q-.4-.8-.815-1.589a25.656,25.656,0,0,0-3.61-5.489,10.921,10.921,0,0,0-2.381-1.978,9.408,9.408,0,0,0-3-1.157,12.417,12.417,0,0,0-3.579-.114,10.554,10.554,0,0,0-2.96.684,6.164,6.164,0,0,0-1.9,1.179,5.739,5.739,0,0,0-1.275,1.763,6.87,6.87,0,0,0-.578,2.092,11.61,11.61,0,0,0-.038,2.389q.057.816.192,1.623a33.908,33.908,0,0,0,.811,3.551c.31,1.109.649,2.205.989,3.3.192.619.383,1.241.569,1.863.264.868.569,1.91.824,3,.091.392.174.789.239,1.188a10.883,10.883,0,0,1,.139,1.356,13.894,13.894,0,0,1-.377,3.156h0l0,.007v0h.012l-.012,0,0,.006a.589.589,0,0,0-.01.084v0l0,0a.562.562,0,0,1,0,.06,44.939,44.939,0,0,1-1.546,4.462c-.458,1.187-.933,2.415-1.3,3.657a15.88,15.88,0,0,0-.711,4.334,13.508,13.508,0,0,0,.177,2.378,15.243,15.243,0,0,0,.5,2.1,13.011,13.011,0,0,0,.743,1.838,12.382,12.382,0,0,0,1.063,1.759,14.466,14.466,0,0,0,2.712,2.79,22.68,22.68,0,0,0,3.449,2.233q.911.5,1.847.946c.377.186.762.364,1.145.544.345.162.688.321,1.032.486.391.19.778.391,1.161.6a16.187,16.187,0,0,1,3.389,2.345,8.747,8.747,0,0,1,1.185,1.433,8.311,8.311,0,0,1,.818,1.812h0a13.074,13.074,0,0,1,.361,1.627c.065.394.115.79.158,1.187.114,1.092.172,2.193.231,3.292l.012.227.01.184c.032.607.063,1.213.1,1.822.031.5.075.992.153,1.481.021.127.044.254.069.379a13.345,13.345,0,0,0,1.19,3.34,21.683,21.683,0,0,0,4.77,6.06,41.824,41.824,0,0,0,6.813,5.083,58.792,58.792,0,0,0,7.143,3.7A46.743,46.743,0,0,0,630,804.2a.955.955,0,0,0,.324.031.753.753,0,0,0,.305.04,35.455,35.455,0,0,0,7.664-1.495,23.839,23.839,0,0,0,6.3-3.041,18,18,0,0,0,7.434-10.815,25.673,25.673,0,0,0,.594-7.8c-.065-1.023-.186-2.077-.37-3.216" transform="translate(-583.339 -712.397)" fill="#99ce84"/>
          <g id="Group_8704" data-name="Group 8704" transform="translate(4.172 4.149)">
            <path id="Path_7525" data-name="Path 7525" d="M647.221,801.422c-2.512-2.591-5.028-5.178-7.47-7.83-.367-.4-.719-.8-1.082-1.2a.757.757,0,0,0,.071-.23,68.149,68.149,0,0,0,.318-7.562c0-2.429-.1-4.861-.208-7.288-.147-3.558-.4-7.112-.584-10.666l0-.024a.309.309,0,0,0-.6.131c.019.371.034.743.053,1.114v.071c.161,3.958.259,7.917.2,11.876-.024,2.024-.109,4.052-.225,6.072-.1,1.675-.233,3.348-.358,5.022-.408-.458-.827-.911-1.232-1.371-1.21-1.372-2.41-2.745-3.591-4.141s-2.361-2.807-3.516-4.231c-.905-1.119-1.791-2.252-2.677-3.387a.519.519,0,0,0,.14-.227,24.787,24.787,0,0,0,.606-3.174c.145-1.094.233-2.2.279-3.306.046-1.128.065-2.249.043-3.375-.019-1.175-.088-2.351-.171-3.526q-.113-1.7-.305-3.392-.2-1.676-.463-3.348c-.025-.159-.052-.32-.077-.481-.333-2.059-.75-4.11-1.224-6.142a.31.31,0,0,0-.357-.249.313.313,0,0,0-.249.357,73.652,73.652,0,0,1,1.82,13.134c0-.018,0-.037-.007-.056.046,1.131.05,2.266.019,3.4s-.084,2.243-.192,3.365c-.1,1.1-.246,2.2-.42,3.294-.131.817-.29,1.627-.451,2.438q-3.259-4.205-6.347-8.538c-2-2.793-3.942-5.631-5.852-8.49.083-.632.144-1.269.2-1.9.08-.943.131-1.89.168-2.836s.065-1.894.066-2.843-.006-1.9-.043-2.845c-.035-.909-.084-1.818-.158-2.725-.078-.936-.175-1.874-.3-2.808-.047-.355-.1-.708-.156-1.061-.245-1.511-.576-3.01-.97-4.49a.307.307,0,0,0-.6.112,39.059,39.059,0,0,1,1.134,8.116c.087,2.263.028,4.522-.1,6.778-.071,1.185-.162,2.361-.259,3.542-.032.413-.063.828-.1,1.244-.948-1.437-1.907-2.867-2.832-4.319.025.044.059.093.084.137q-3.953-6.217-7.622-12.621a.32.32,0,0,0,.021-.074c.06-1.1.088-2.195.081-3.293-.01-1.119-.069-2.227-.156-3.345-.1-1.318-.264-2.63-.476-3.934q-.241-1.5-.56-2.984a.308.308,0,1,0-.606.112,48.62,48.62,0,0,1,1.017,7.829c0-.024,0-.043,0-.068.059,1.492.025,2.982-.062,4.469q-4.2-7.4-8-15.028.141-.794.231-1.595c.08-.694.127-1.387.156-2.083a28.349,28.349,0,0,0-.127-4.244l0-.015a.308.308,0,0,0-.6.122c.043.444.078.89.1,1.334a30.718,30.718,0,0,1-.074,3.436c-.038.542-.094,1.076-.158,1.617-.013.122-.03.243-.044.365-1.324-2.681-2.618-5.377-3.862-8.1a.437.437,0,1,0-.793.366q1.9,4.161,3.914,8.271c-.411-.134-.826-.261-1.232-.417a29.35,29.35,0,0,1-3.748-1.829.306.306,0,0,0-.3.535,26.211,26.211,0,0,0,5.66,2.5q2.578,5.258,5.33,10.427,1.393,2.609,2.838,5.193c-.261-.046-.52-.091-.778-.142-.638-.121-1.269-.262-1.9-.414a30.609,30.609,0,0,1-3.844-1.216q-1-.4-1.972-.859c-.712-.339-1.4-.718-2.074-1.12a.308.308,0,0,0-.3.539,31.246,31.246,0,0,0,2.83,1.518c.943.447,1.91.83,2.892,1.182,1.018.365,2.058.685,3.106.963a23.221,23.221,0,0,0,2.6.538q3.684,6.558,7.643,12.957,1.614,2.6,3.281,5.174c-.921-.072-1.84-.144-2.755-.248.044,0,.088.01.133.012a49.76,49.76,0,0,1-6.246-1.151,51.145,51.145,0,0,1-6.051-1.959,49.561,49.561,0,0,1-7.381-3.651.309.309,0,0,0-.3.54,53.1,53.1,0,0,0,5.458,2.9,57.687,57.687,0,0,0,5.825,2.288,52.323,52.323,0,0,0,6.169,1.661q1.532.314,3.093.522a24.973,24.973,0,0,0,2.8.224q4.009,6.147,8.292,12.115,1.7,2.368,3.449,4.7c-.78.006-1.56.016-2.341,0-1.265-.025-2.525-.118-3.781-.265.022,0,.047.009.071.012a41.709,41.709,0,0,1-9.914-2.509c-.825-.324-1.641-.674-2.443-1.058a.306.306,0,0,0-.3.534,42.98,42.98,0,0,0,4.459,1.863,45.292,45.292,0,0,0,5.1,1.455,48.947,48.947,0,0,0,5.142.852,26.926,26.926,0,0,0,4.8.159c.787,1.044,1.573,2.09,2.373,3.124,2.244,2.894,4.5,5.78,6.843,8.6,1.055,1.269,2.14,2.512,3.215,3.762-.4.031-.8.062-1.21.087-.988.063-1.977.087-2.967.091a49.069,49.069,0,0,1-5.886-.333,46.152,46.152,0,0,1-11.271-2.807,38.216,38.216,0,0,1-6.134-3.087.31.31,0,0,0-.42.122.306.306,0,0,0,.121.413,45.418,45.418,0,0,0,14.275,5.737,50.98,50.98,0,0,0,7.729,1.076c1.26.084,2.518.1,3.782.065a26.328,26.328,0,0,0,2.947-.236c.45.522.889,1.051,1.341,1.571,1.846,2.109,3.744,4.183,5.7,6.2a1.276,1.276,0,0,0,.82.432,1.229,1.229,0,0,0,1.344-1.107,1.28,1.28,0,0,0-.012-.317A1.1,1.1,0,0,0,647.221,801.422Z" transform="translate(-586.169 -715.212)" fill="#579b4a"/>
            <path id="Path_7526" data-name="Path 7526" d="M621.906,757.27l0,.1v.024Z" transform="translate(-569.227 -695.274)" fill="#94c174"/>
            <path id="Path_7527" data-name="Path 7527" d="M621.137,750.931a.375.375,0,0,0,0,.071v-.029C621.139,750.959,621.137,750.944,621.137,750.931Z" transform="translate(-569.592 -698.279)" fill="#94c174"/>
          </g>
        </g>
      </g>
      <g id="Group_8755" data-name="Group 8755" transform="translate(52.447 52.758)">
        <path id="Path_7528" data-name="Path 7528" d="M678.35,609.507C613.852,671.693,617,733.049,617,733.049a61.355,61.355,0,0,0,122.71,0S742.85,671.693,678.35,609.507Z" transform="translate(-616.971 -609.507)" fill="#fff"/>
        <g id="Group_8754" data-name="Group 8754" transform="translate(6.572 68.433)">
          <g id="Group_8707" data-name="Group 8707">
            <path id="Path_7529" data-name="Path 7529" d="M731.044,711.063a54.808,54.808,0,1,1-54.484-55.13A54.806,54.806,0,0,1,731.044,711.063Z" transform="translate(-621.429 -655.932)" fill="#3e91e5"/>
          </g>
          <g id="Group_8753" data-name="Group 8753">
            <g id="Group_8752" data-name="Group 8752" clip-path="url(#clip-path-2)">
              <g id="Group_8751" data-name="Group 8751" transform="translate(-13.837 -8.128)">
                <g id="Group_8708" data-name="Group 8708" transform="translate(279.202 125.656)">
                  <path id="Path_7530" data-name="Path 7530" d="M807.389,739.209l-5.932,4.216c-.111-1.228,2.065-1.515.335-2.661,2.36-1.032,2.836-2.817,2.285-5.063l.364-.038c.193.38.565.766.551,1.139-.072,2.051.444,2.474,2.4,1.834C807.39,738.828,807.389,739.018,807.389,739.209Z" transform="translate(-801.453 -735.663)" fill="#a1c58c"/>
                </g>
                <g id="Group_8709" data-name="Group 8709" transform="translate(113.975 4.915)">
                  <path id="Path_7531" data-name="Path 7531" d="M782.037,724.9c-.715.43-1.428.862-2.432,1.468-1.574-5.1-4.987-9.471-5.3-15.025-1.213,1.008-1.85.864-3.259-.855.252-.164.522-.338.784-.506-.106-.125-.149-.211-.218-.249a9.6,9.6,0,0,1-2.568-1.489c-1.2-1.347-2.59-.949-4.035-.989a31.681,31.681,0,0,1-5.221-.649c-.371-.072-.6-.867-.9-1.328-1.673,1.013-4.365.174-5.419-1.635-.445-.765-.65-1.857-1.9-1.725a7.606,7.606,0,0,0-1.333.442c.691.932,1.3,1.639,1.775,2.425a26.834,26.834,0,0,1,1.172,2.429l.687-.865a2.8,2.8,0,0,1,.3.529c.153.554.279,1.114.416,1.673a17.95,17.95,0,0,0,2.425-.908,8.749,8.749,0,0,0,1.512-1.341,3.208,3.208,0,0,0,2.338,2.675c.535.172,1.311,1.288,1.181,1.51-.386.66.171,1.93-1.157,2.03a.58.58,0,0,0-.383.37c-.48,1.958-2,2.728-3.663,3.51-1.531.721-2.88,1.819-4.369,2.641a22.818,22.818,0,0,1-4,1.828,1.187,1.187,0,0,1-1.652-1.06c-.1-1.023-.3-2.036-.492-3.047a2.222,2.222,0,0,0-.355-.905c-.961-1.272-1.986-2.5-2.917-3.785a4.252,4.252,0,0,1-.479-1.414c-.139-.536-.041-1.31-.375-1.589-1.492-1.247-2.127-3.048-3.2-4.556a1.953,1.953,0,0,0-.662-.51c-.712-.394-1.44-.762-1.846-.974,2.18,4.708,4.578,9.891,7.129,15.4.177-.467.293-.771.383-1.007q2.3,3.266,4.164,5.9l6.169-1.315a5.71,5.71,0,0,1-.034,1.627c-.453,1.5-.965,2.989-1.562,4.437a9.323,9.323,0,0,1-3.168,3.766,20.026,20.026,0,0,0-3.843,4.107,30.917,30.917,0,0,0-2.425,4.583,6.244,6.244,0,0,0,.99,5.889c.1.1.3.2.3.29a36.8,36.8,0,0,1-.2,4.369c-.069.486-.749.908-1.193,1.311-1.433,1.3-2.91,2.557-4.3,3.9-.214.206-.109.787-.078,1.188.035.469.177.927.226,1.395a2.831,2.831,0,0,1-1.891,3.322c-.618.24-.781.715-.806,1.594-.032,1.038-.034,2.6-1.6,3.206-.547.212-.858.982-1.344,1.418-1.26,1.13-2.55,2.227-3.847,3.315a1.3,1.3,0,0,1-.781.33,10.874,10.874,0,0,0-4.228.739c-1.422.523-2.186-.881-2.18-2.46,0-1.278-.824-2.55-1.232-3.84-.637-2.009-1.231-4.032-1.847-6.047a9.17,9.17,0,0,0-.774-2.37,9.1,9.1,0,0,1-.357-10.348c.119-.2.308-.442.28-.64a19.315,19.315,0,0,0-.827-4.794,56.739,56.739,0,0,0-3.4-5.949,1.49,1.49,0,0,1-.279-.9c.245-1.132.538-2.257.881-3.362a1.5,1.5,0,0,0-1.1-2.1c-.537-.177-1.16-.1-1.681-.308a8.042,8.042,0,0,1-1.49-.952c-.582-.4-1.2-1.2-1.722-1.141a37.462,37.462,0,0,0-4.486,1.073c-.461.114-1.035.336-1.4.168a3,3,0,0,0-3.353.335,1.62,1.62,0,0,1-2.149.052,15.835,15.835,0,0,1-6.592-7.4c-.256-.622-.821-1.117-1.076-1.739a3.624,3.624,0,0,1,.088-3.482,2.328,2.328,0,0,0,.131-1.4,12.108,12.108,0,0,1,2.386-9.245,6.177,6.177,0,0,1,2.647-2.353c.708-.293,1.235-1.4,1.514-2.254a5.689,5.689,0,0,1,1.986-3.28c.969-.706,1.476-2.047,2.241-3.184-.251-1.484-1.638-.918-2.357-1.083-.2-.706-.37-1.232-.5-1.77a1.581,1.581,0,0,1,.01-.665c.283-1.368.581-2.731.963-4.516,1.392-.884,3.321-.012,5.168.193.94.1,1.178-.015,1.279-.874.314-2.658.329-2.653-2.177-4.064-.147-.084-.239-.27-.479-.554.632-.116,1.265-.447,1.586-.255,1.21.721,1.153-.133,1.241-.868,1.626.4,2.4-.059,2.846-1.663v0A2.713,2.713,0,0,0,710.9,677.2c.307-.628,1.6-1,2.474-1.066,1-.074,1.1-.556.8-1.157-.8-1.614-.338-2.484,1.57-2.755a14.412,14.412,0,0,0-.193,2.7c.028.3.792.742,1.2.727.662-.025,1.266-.489,1.9.258.159.19.96-.012,1.378-.215.868-.425,1.624-.83,2.659-.273.326.175,1.05-.386,1.209-.451.249-1.094.43-1.9.613-2.7.609.2,1.218.4,1.894.62.948-.9-.379-1.394-.735-2.35l4.78-.653-.006-.476c-.853-.006-1.713-.066-2.56,0a10.372,10.372,0,0,1-1.949.36c-.626-.086-1.692-.565-1.7-.88-.007-.824-1.26-1.847.277-2.577a12.624,12.624,0,0,0,2.126-1.618c-1.542-1.044-2.154-.858-2.923.719a2.213,2.213,0,0,1-.82.73c-.4.256-.876.394-1.243.68-1.047.814-.836,1.81.653,2.947-.364,1.212-2.726,1.523-1.486,3.395l-3.311,1.241-.108-.28-.647,1.228c-.221-.532-.37-.889-.551-1.327l1.3-.659c-.473-.957-.94-1.9-1.505-3.041a10.558,10.558,0,0,0-1.337.693c-1.461,1.02-2.6.569-2.857-1.167-.308-2.047.405-2.845,2.655-3.775a10.559,10.559,0,0,0,2.726-2.205c.74-.677,1.4-1.437,2.277-2.341l-1.035.211c-.016-.122-.034-.246-.05-.369.539-.072,1.078-.153,1.617-.211.136-.015.279.049.326-.279.758-.237,1.511-.494,2.274-.709a17.091,17.091,0,0,1,2.634-.651,28.609,28.609,0,0,1,3.539-.117c.777.009,1.076.873,2.019.98a31.8,31.8,0,0,1,5.694,1.552,12.2,12.2,0,0,1,1.806.955c-2.168,1.863-4.18.374-5.989.339.4.52.818,1.129,1.307,1.676a1.366,1.366,0,0,0,.881.506c.237-.012.454-.432.685-.678l2.016.585c.055-1.365,1.28-2.081,3.007-1.608-.376-.9-.678-1.626-1-2.4l2.429.656-1.207.581c.18.128.345.33.435.3,1.719-.556,3.429-1.138,4.963-1.655.531.27,1.089.752,1.3.631,1.24-.711,2.913.035,4.447-1.308l5.037,1.21.228-.141q-1.218-1.006-2.444-2.018c.475-.909.883-1.7,1.151-2.208l2.168.643-.251.147c.874,1.34,1.748,2.68,2.805,4.3l-1.725,1.011.024.311a6.043,6.043,0,0,0,2.2-.445c.364-.234.307-1.132.42-1.737a.465.465,0,0,0-.066-.37c-.873-.736-1.76-1.455-2.72-2.241.37-.343.7-.651.792-.733l2.954,1.48.2-.5-1.884-.389-.068-.488,2.3-.4c-.116-.18-.256-.4-.544-.834l3.827-.206-1.017-.786c2.133-.612,3.874-1.633,6.047-1.026.545.153,1.315-.473,1.975-.758.442-.19,1.026-.7,1.285-.566,2.061,1.069,4.337.569,6.465,1.026a9.436,9.436,0,0,1,1.772.82l-3.193,2.156c1.011-.749,2.938.323,3.172-1.347l8.11,1.436c.086-.335.144-.569.229-.9,1.268.766,2.7-.232,3.894.716.905.719,1.921,1.3,2.874,1.956.733.507,1.148.354,1.228-.46l4.851.028-.851-1.029c1.448-.052,2.689-.376,3.874.435.227.156.622.408.744.326,1.7-1.147,3.44,0,4.687.544,1.271.55,2.093.122,3.128.075,1.537-.069,3.065-.065,4.219,1.262a1.392,1.392,0,0,0,1.023.37c1.59-.118,3.174-.4,4.766-.438a5.851,5.851,0,0,1,1.924.666,1.632,1.632,0,0,0,1.081.122l-1.3-.646c6.713-.282,12.832,2.419,19.3,3.373l-.436.553c.221.438.444.877.789,1.561l-6.388-1.642.889,1.075q-.464.575-.929,1.151-.456-.555-.91-1.111l3.386,1.8-.057.391c-1.683-.377-2.885-.009-3.281,1.8-.041.192-.621.349-.961.376-1.343.1-2.69.15-4.035.217-.088.189-.178.376-.267.565l3.672,3.337-.59,0-.239.252,1.134.687c-.214,1.972-.394,3.62-.612,5.628-.349-.856-.411-1.377-.7-1.66-1.3-1.256-2.764-2.353-3.961-3.691a4.584,4.584,0,0,1-1.287-2.808c.04-1.129.806-2.235,1.256-3.348-.352-.553-.694-1.086-1.173-1.841-.112.433-.152.618-.208.8-.118.377-.153.848-.405,1.092-.14.137-.653-.08-.985-.178-.177-.053-.317-.262-.49-.284-.709-.091-1.424-.139-2.136-.2,0,.774-.009,1.548-.015,2.465-.553.133-1.234.637-2.109-.228-.364-.358-1.378-.032-2.095-.063a12.2,12.2,0,0,1-2.475-.217,2,2,0,0,0-2.56,1.17c-.469,1.215-.932,2.431-1.436,3.746l1.745.385c-.059-.292-.112-.55-.19-.933.27.119.461.145.5.23.308.778.344,1.716,1.717,1.008.455-.234,1.44.491,2.151.843a10.18,10.18,0,0,1,1.244.859l-.027-.037a7.154,7.154,0,0,0,.672,2.167c1.778,2.451.618,4.9.08,7.323a1.124,1.124,0,0,1-1.772.772c-1.016-.476-1.343.385-1.577,1.141-.255.818-.447,1.657-.721,2.69.628.534,1.627,1.274,2.5,2.145,1.064,1.063,1.058,2.465.086,2.868-.476.2-.986.313-1.6.5-.286-.933-.519-1.893-.887-2.8-.165-.4-.64-1.011-.918-.983-1.238.127-1.256-.576-1.206-1.439a4.164,4.164,0,0,0-.177-.806,21.856,21.856,0,0,1-2.6.553c-.264.025-.634-.394-.849-.685a3.706,3.706,0,0,1-.364-.961,5.148,5.148,0,0,0-.8.492c-.573.509-1.116,1.055-1.84,1.75a3.412,3.412,0,0,0,.631.581c.256.158.77.1.865.286.6,1.182,1.12.542,1.588.01l1.993.749q-.294-.294-.591-.588l-1.755,2.638c1.271,1.268,2.484,2.367,3.544,3.6.344.4.281,1.144.464,2,.964.178.939,1.045.4,2.1-.887,1.75-.955,3.927-2.7,5.223a5.726,5.726,0,0,1-1.4.84c-1.7.609-3.5.993-4.763,2.571-.55-.852-.968-2.034-2.32-1.008-1.316,1-1.655,2.273-.828,3.552a3.676,3.676,0,0,0,1.064,1.309c2.143,1.167,2.454,3.115,2.414,5.249,0,.19.053.472-.049.554-1.282,1.06-2.589,2.09-4.152,3.337.062-.833.094-1.272.1-1.428-1.622-1.4-3.1-2.672-4.555-3.934-.66,1.08-.526,3.753-.131,4.9a5.945,5.945,0,0,0,2.326,2.922,3.787,3.787,0,0,1,1.514,3.24,6.379,6.379,0,0,0,.851,2.171c-2.645-.069-3.464-1.887-3.934-4.006-.29-1.306-.46-2.615-1.953-3.24-.287-.119-.525-.893-.436-1.288.634-2.854-.479-5.373-1.42-7.926a1.128,1.128,0,0,0-.342-.4c-.875.32-1.672.61-2.619.958.279-3.421-2.372-5.015-3.328-7.124-1.132.214-2.053.37-2.964.568a1.668,1.668,0,0,0-.876.371c-1.383,1.6-2.7,3.258-4.1,4.839a16.413,16.413,0,0,1-1.745,1.551c-.249,2.3-.479,4.382-.693,6.47a2.1,2.1,0,0,0,.1.559ZM717.2,693.168c.423-.208.511-.295.587-.283,1.1.159,2.568.33,2.74-.9.1-.691-1.3-1.6-2.037-2.394-.081-.087-.312-.029-.4-.115a20.589,20.589,0,0,1-2.466-2.434c-.6-.8-1.016-1.293-2.015-.591-.873.613-1.772,1.185-2.982.556-.264-.139-1.327.479-1.349.8-.065.933-.324,1.4-1.294,1.493a1.435,1.435,0,0,0-.9.6c-.413.609-1.221,1.016-.765,2.089.242.569-1.784,1.975-2.681,2.149s-2.126-.233-2.479,1.336c.392.178.83.57,1.2.514a16.455,16.455,0,0,0,4-.9c1.187-.506,2.174-1.3,3.588-.657.369.167.976-.248,1.484-.324,1.278-.193,2.56-.376,3.847-.481.18-.015.594.463.563.662-.144.946.767,2.039-.376,2.864-.1.074.012.441.043.961l.6-.752a20.612,20.612,0,0,1,3.25,1.6,9.966,9.966,0,0,0,3.384,1.862,6.494,6.494,0,0,1,1.366.725,7.3,7.3,0,0,0,.522-1.349,1.724,1.724,0,0,1,2.727-1.294,9.225,9.225,0,0,0,2.758,1.288c1.468.237,2.991.87,4.508.027.181-.1.585.28.855.239.721-.11,1.82-.109,2.065-.545a8.525,8.525,0,0,0,1.088-5.665,6.467,6.467,0,0,0-1.533.525,1.449,1.449,0,0,1-2.149-.137,1.2,1.2,0,0,0-1.076-.037,2.329,2.329,0,0,1-3.059-1.042c-.367-.849-.68-1.72-1.134-2.879a4.829,4.829,0,0,0,3.42-1.219c.057-.055.274.1.4.075a3.022,3.022,0,0,0,1.054-.252,3.984,3.984,0,0,1,3.768-.1,12.6,12.6,0,0,0,3.694.635c.338.021.983-.612,1-.97.021-.377-.507-.82-.856-1.172a3.217,3.217,0,0,0-.911-.6c-1.468-.7-2.681-2.375-4.676-1.167-.234.14-.921-.217-1.237-.514A25.411,25.411,0,0,1,733.5,683.2a49.224,49.224,0,0,0-2.647,4.687c-.158.358.6,1.116,1.128,2.028-1.235-.007-2.266-.022-3.3-.012a1.5,1.5,0,0,0-.666.156c-.455.239-.887.525-1.533.914l1.57,2.121c-.774-.208-1.237-.358-1.71-.454a3.31,3.31,0,0,1-2.786-2.79,2.99,2.99,0,0,0-.994-1.571c-1.539-1.234-3.162-2.363-5-3.712-.074.545-.349,1.165-.156,1.4a21.443,21.443,0,0,0,2.627,2.7,33.348,33.348,0,0,0,2.776,1.955l-.246.332-1.135-.7c.638,1.9-1.145,2.733-1.732,4.25Z" transform="translate(-689.363 -653.753)" fill="#99ce84"/>
                </g>
                <g id="Group_8710" data-name="Group 8710" transform="translate(0 7.413)">
                  <path id="Path_7532" data-name="Path 7532" d="M668.127,725.165c1.123-2.432,3.173-3.588,5.526-4.379-.055.918-.109,1.832-.165,2.758l2.179-3.031c1.729,2.969,4.512,2.142,6.673,2.044,1.138.991,2.07,1.794,2.992,2.606a6.324,6.324,0,0,1,1.356,1.288A2.728,2.728,0,0,0,689.424,728a4.442,4.442,0,0,1,4.945,2.777c.436,1,1.672,1.76,1,3.13-.035.072.23.274.33.432.329.519.647,1.044,1.035,1.67.469-.371,1.088-1.56,2.279-.635.75.582,1.448,1.234,2.221,1.9,2.456-.028,5.077-.063,7.146,2.037.1.1.2.239.326.274,1.6.445,2.1,1.511,2.033,3.116a4.48,4.48,0,0,1-1.549,3.666,4.6,4.6,0,0,0-.854,1.278c-.1.159-.078.457-.2.522-1.873.974-.79,2.729-1.12,4.107-.529,2.217-1.123,4.419-1.729,6.615a1.232,1.232,0,0,1-.593.759,37.95,37.95,0,0,1-3.933,1.378c-1.506.405-2.432,1.21-2.248,2.727.234,1.944-.167,3.561-1.677,4.683-.3.164-.784.261-.876.5-.262.708-.333,1.483-.545,2.213-.551,1.884-1.257,2.285-3.149,1.835-.455-.109-.9-.249-1.537-.427.528.634.852,1.3,1.381,1.6.777.441.946,1.026.55,1.63a3.279,3.279,0,0,1-1.536,1.234,13.2,13.2,0,0,1-2.606.382,6,6,0,0,1-.116,2.478c-.158.305-1.4.044-2.55.038.84.687,1.52,1.244,2.006,1.641-.276.724-.508,1.415-.8,2.078a3.747,3.747,0,0,1-.569.678c-.248.313-.744.777-.665.93a1.991,1.991,0,0,0,1.026.871c1.534.541,1.506.485.662,1.918a18.145,18.145,0,0,0-.961,2.44l1.33,1.453-.77,0-.1.209,4.438,2.425c-1.207,1.2-2.615.626-3.965.293a12.217,12.217,0,0,1-5.755-3.669,11.3,11.3,0,0,1-1.847-3.135c-.13-.277.256-.795.441-1.3l-1.5-1.112c1.247-1.094,1.458-3.791.333-4.879-.292-.281-.983-.147-1.789-.237a5.01,5.01,0,0,0,.276-1.287,4.821,4.821,0,0,0-.323-2.028,3.717,3.717,0,0,1-.242-2.958,7.551,7.551,0,0,0,.05-3.934c-1.069-3.713-.7-7.475-.8-11.232-.063-2.4-.1-4.981-2.905-6.1-3.38-1.353-5.142-4.03-6.383-7.282-.69-1.809-1.558-3.625-3.6-4.29.1-1.408-.759-3.02,1.15-3.837-1.226-.848-1.057-2.961.134-4.2.744-.769,1.473-1.557,2.17-2.369.59-.688.485-3.943-.009-4.683a1.725,1.725,0,0,1-.031-1.461c-.385-.246-.771-.491-1.355-.862l-1.238,2.229c-1.564-.939-3.206-1.924-4.845-2.914-.077-.046-.193-.159-.178-.208.472-1.614-1.237-2.295-1.552-3.458-.65-.164-1.293-.31-1.925-.494-.224-.065-.432-.335-.628-.316-1.539.149-2.148-.862-2.9-1.954a2.243,2.243,0,0,0-2.087-.453,2.962,2.962,0,0,1-2.795-.338,35.175,35.175,0,0,0-4.6-2.027,2.744,2.744,0,0,1-1.94-3.241,4.059,4.059,0,0,0-.441-2.363,26.825,26.825,0,0,0-3.091-4.9c-1.21-1.4-1.163-3.159-1.732-4.733l-.538-.043c-.155.489-.5,1.014-.423,1.462a12.707,12.707,0,0,0,.851,2.562c.343.831.878,1.6,1.134,2.448a6.582,6.582,0,0,1,.115,2.845c-1.038-1.644-2.076-3.287-3.216-5.1a1.032,1.032,0,0,0,.32-.417c.348-1.139-1.34-5.887-2.308-6.646-.327-.258-.846-.57-.861-.877-.1-2.09-1.017-4.248.189-6.26,1.515-2.529,3.131-5,4.6-7.325.517.031,1.072.2,1.2.044a2.407,2.407,0,0,0,.519-1.386,13.163,13.163,0,0,0-.422-1.586,5.434,5.434,0,0,1,.22-1.368c-2.824-.579-1.677-2.532-.622-4.584l-1.654.066c0-.181-.006-.414,0-.647.125-2.964.125-2.957-2.7-3.7a7.367,7.367,0,0,1-1.184-.479c-.215-.1-.405-.252-.612-.37-1.384-.778-2.569.79-3.6.514-1.274-.342-2.226-.688-3.457.1a33.949,33.949,0,0,1-10.908,4.39l-.133-.339,5.523-2.04c-.032-.122-.063-.245-.1-.367l-2-.183c.178-.531.31-.918.433-1.288-1.339-1.07-1.306-1.677.249-2.226,1.5-.528,3.094-.781,4.62-1.247a27.717,27.717,0,0,0,2.67-1.113c-.065-.2-.128-.407-.193-.61a17.066,17.066,0,0,1-2.282.206,3.856,3.856,0,0,1-1.237-.5c.377-.27.738-.74,1.135-.771,1.026-.08,2.068.06,3.1.062a2.76,2.76,0,0,0,1.318-.242c.124-.069.012-.774-.156-1.1-.4-.784-.15-1.161.644-1.322,3.166-.641,6.307-1.518,9.506-1.846,2.167-.223,4.416.3,6.624.534a19.243,19.243,0,0,1,4.219.6c1.473.507,2.839.942,4.343.305,1.8,1.731,3.125-.307,4.68-.559a8.446,8.446,0,0,1,2.28.3c2.227.289,4.455.569,7.09.9l-1.21,1.01.093.342,3.673-.433c.032.27.071.591.124,1.042,1.116-1.291,2.124-2.093,3.878-1.169a7.541,7.541,0,0,0,3.379.392c.394,0,.861-.451,1.165-.808.942-1.109,1.747-1.277,2.955-.438l-1.738,1.265.292.385a3.6,3.6,0,0,0,2.356-2.093c.8-1.989,4-4.048,6.327-3.629a11.159,11.159,0,0,0-2.771,1.275,9.225,9.225,0,0,0-1.512,2.443c.991.175,1.879.354.912,1.675l.292.234,2.908-.871c-.078-.6-.133-1.038-.189-1.471l-1.629-.408.018-.268,1.129-.246-.88-.342c-.146-.862,2.532-2.067,4.354-2-.545.429-1.105.873-1.667,1.315l.159.259a8.937,8.937,0,0,1,2.358-1.113c.578-.093,1.949-1.218,1.991.84l1.266.1.077-.3-.986-.454a1.973,1.973,0,0,1,.156-.385c.815.156,1.952-.828,2.385.839a1.493,1.493,0,0,0,1.953,1.041c.5-.149,1.31.734,1.98,1.147l-1.066,1.474,3.6,1.754c-.887.451-1.7.809-2.459,1.26-1.411.84-.935-1.361-2.124-1.063a1.159,1.159,0,0,0-.044,1.728c.305.389-.114,1.344-.209,2.083l-2.215-1.039c-.1.122-.2.245-.307.367l1.389.669c-.113.214-.228.426-.342.64l-3.191-.867c-.164-1.38-.874-2.074-2.49-1.536a4.246,4.246,0,0,1-1.548-.1l-.024-.616c.665-.049,1.33-.115,2-.145.746-.031,1.577.242,1.866-.886.061-.237.693-.336,1.069-.483,1.128-.439,1.266-1.107.414-1.99-.556-.575-1.1-1.157-1.655-1.736-.035.143-.072.287-.108.432-.473,0-.949-.031-1.421,0-.557.034-1.111.114-1.666.172.134.534.27,1.067.476,1.885-.815,1.592-2.954.828-4.73,1.453l2.273,1.767c-1.209,1.834-2.833.534-4.282.736.309-.416.62-.83.837-1.12a24.589,24.589,0,0,0-4.643,1.2,52.324,52.324,0,0,0-5.694,3.432c-1.153.733-.522,1.818-.3,2.7.084.332.868.491,1.337.719,1.027.5,2.031,1.07,3.1,1.464a11.771,11.771,0,0,0,2.3.351l-1.341,3.019c.24.41.563.957,1.109,1.881a23.44,23.44,0,0,0,1.913-3.373,2.176,2.176,0,0,1,1.489-1.486,7.958,7.958,0,0,0,2.131-1.126c.651-.5,1.167-1.154.509-2.071a.757.757,0,0,1,.121-.727c1.209-.657,1.545-1.984,2.363-2.92.317-.364,1.041-.416,1.6-.513.448-.078.949.091,1.377-.027.806-.223,1.3-.168,1.7.724.195.43.963.6,1.543.933-.674.719-1.67,1.576.065,2.6l3.623-2.251c-.159,1.512,1.458,2.662.351,4.2-.121.168.119.818.37,1,.98.7,2.033,1.3,3.059,1.941l.083.6-3.713,2.616c.089.2.136.433.2.441,1.828.175,1.352,1.672,1.527,2.745.038.239-.336.59-.591.8a.657.657,0,0,1-.573-.184c-.249-.989-1.105-.8-1.763-.912a19.522,19.522,0,0,0-2.061-.147l-.208-.392q.809-.979,1.621-1.959c-1.565-.572-2.155-.4-3.589.8-.189.159-.862.012-1.1-.215a1.281,1.281,0,0,0-1.769-.115,22.362,22.362,0,0,0-3.467,2.062c.9-.383,1.785-.795,2.7-1.135a3.3,3.3,0,0,1,1.39-.254c.408.038,1.044.262,1.12.535.1.342-.27.817-.438,1.235l-.4-.516c.06.43.119.862.137.986l1.571,1.036-.071.575,2.182-1.3c-.13.5-.124,1.044-.315,1.125-1.829.775-3.693,1.471-5.547,2.189l-.258-.38c.677-.522,1.355-1.044,2.366-1.82a7.094,7.094,0,0,0-1.959.168,40.351,40.351,0,0,0-4.654,2.3c-.445.267-.545,1.107-.9,1.891a12.766,12.766,0,0,0-2.95.7c-.905.42-1.6,1.29-2.546,1.713l-.739,1.962-.261-.06-.164-1.315-.2-.021a3.422,3.422,0,0,0-.312,1.2c.307,2.41-1.443,3.128-3.1,4.067a19.527,19.527,0,0,0-3.688,2.706c-1.047.983-.8,2.372-.52,3.644a4.5,4.5,0,0,1-1.1,4.149,26.687,26.687,0,0,1-1.018-4.151,1.651,1.651,0,0,0-1.378-1.7c-.911-.233-1.859-.326-2.773-.553-1.866-.467-2.03-.385-2.316,1.5-.256,0-.573.09-.792-.019-2.174-1.092-4.213-.445-6.15.57a3.6,3.6,0,0,0-1.568,1.717,15.646,15.646,0,0,0-1.11,4.258,13.659,13.659,0,0,0,.545,3.548,8.9,8.9,0,0,0,.346,1.131c.537.183,1,.338,1.453.5.031.01.028.1.062.121,1.107.656,4.145-1.077,4.281-2.372a1.24,1.24,0,0,1,.761-.867c1.139-.221,2.308-.3,3.448-.423-1.113,2.124-2.224,4.25-3.412,6.518.916.078,2.049.528,2.767.162,1.455-.741,2.188.108,2.966.709a35.4,35.4,0,0,0-.952,4.238,2.48,2.48,0,0,0,3.333,2.3C666.514,723.236,666.728,723.295,668.127,725.165Z" transform="translate(-612.042 -655.447)" fill="#99ce84"/>
                </g>
                <g id="Group_8711" data-name="Group 8711" transform="translate(235.444 97.986)">
                  <path id="Path_7533" data-name="Path 7533" d="M796.669,747.064c-.889,1.468-2,.485-2.863.127-.47-.2-.647-1.225-.843-1.912a14.322,14.322,0,0,1-.348-2.1c-.065-.491-.078-.988-.116-1.514l-2.249,1.792a7.392,7.392,0,0,1-.221-.927c-.186-1.993-1.017-2.916-3.038-2.578-2.479.414-5.155.394-7.24,2.217a1.451,1.451,0,0,1-1.066.268,7.081,7.081,0,0,0-4.592,1.144c-1.021.548-1.646-.031-2.221-.666a1.017,1.017,0,0,1,.046-.977c1.53-.935,1.246-2.44,1.291-3.839.013-.426-.083-.856-.083-1.284,0-1.779.057-3.56.009-5.336-.047-1.677,2.867-3.269,4.433-3.712.9-.255,1.977-.164,2.723-.63a8.776,8.776,0,0,0,2.1-2.313c.448-.6.5-1.829,1.661-.646a30.451,30.451,0,0,1,2.154-2.569c.8-.768,1.689-1.5,2.746-.18.5.628,1.226.491,1.4-.31.364-1.731,1.865-2.3,3.042-3.19.186-.141.626.046.948.094,1.053.161,2.1.329,3.448.541-.251.423-.5.9-.8,1.347-1.257,1.862-1.231,1.989.66,3.1a2.859,2.859,0,0,1,.787.607c1.3,1.61,2.211,1.051,2.827-.666.6-1.673,1.01-3.414,1.518-5.121a6.358,6.358,0,0,1,.545-.933c.2.845.369,1.353.445,1.874.147,1.005.087,1.965,1.216,2.67.486.3.492,1.562.505,2.391.022,1.374-.046,2.708,1.523,3.361.143.059.23.284.315.447.744,1.44,1.526,2.864,2.205,4.335a4.07,4.07,0,0,1,.5,2.024c-.352,2.958-1.327,5.568-3.9,7.473-1.389,1.031-2.367,2.6-3.634,3.816a14.7,14.7,0,0,1-2.469,1.711c-.354.223-.859.231-1.17.49C797.987,748.205,797.319,748.006,796.669,747.064Z" transform="translate(-771.768 -716.892)" fill="#a1c58c"/>
                </g>
                <g id="Group_8712" data-name="Group 8712" transform="translate(72.314)">
                  <path id="Path_7534" data-name="Path 7534" d="M686.022,661.6l-2.187.354c-.056-.181-.114-.361-.17-.542l2.151-1.216-1.666-.212c.284-.567.75-1.063.738-1.545-.053-2.139-.637-2.634-2.848-2.577-.793.021-1.591.246-2.376.2a7.875,7.875,0,0,1-1.8-.543l.112-.4,2.631-.339v-.252l-2.985-.018-.015-.36,5.893-.939c-.169-.31-.308-.559-.469-.85-1.65.311-3.66.348-5.342,1.108-1.545.7-3.521.429-4.715,2.053-.256.351-1.172.3-1.782.293-1.952-.025-3.9-.136-5.852-.171-.295,0-.593.215-.873.694l6.194-.237.03.718c-2.634,1.032-5.37.162-8.309.277.33-.526.522-.833.739-1.176l-2.017-.372c.01-.2.022-.392.032-.588,2.543.345,5.14,1.082,7.612-.911-1.611.037-3.377,1.1-3.99-1.234a5.287,5.287,0,0,1,5.714-.122c0-.149.01-.3.013-.447-.254-.164-.508-.326-1.026-.657,6.08-.408,11.881-1.467,18-.394-.486.193-.756.323-1.041.407a.973.973,0,0,0-.728.461,14.177,14.177,0,0,1,1.607-.339c1.362-.133,2.729-.237,4.1-.307,1.611-.08,3.239.016,4.832-.184,4.285-.542,8.557-1.253,12.88-.491a4.41,4.41,0,0,1,1.309.781c-.066.159-.131.318-.2.478l5.071.03-5.833,2.133c.615.66,1,1.075,1.389,1.489l-1.667-.009a5.136,5.136,0,0,1,.287,1.361c-.041.945-.926,1.2-1.561,1.645-.587.41-1.63.531-.9,1.722a3.2,3.2,0,0,1-1.459,1.307c-2.064.626-4.189,1.054-6.281,1.593-.485.125-.921.426-1.4.6q-2.065.732-4.146,1.42c-.933.307-1.938.451-2.429,1.5-.139.3-.479.5-.715.752a37.392,37.392,0,0,0-2.519,2.81c-.672.9-1.229,1.1-2.008.19-.153-.178-.438-.389-.632-.363-1.246.165-1.726-.641-1.912-1.6a21.88,21.88,0,0,1-.514-4.329,1.686,1.686,0,0,1,1.831-1.728c.494-.01.979-.426,1.468-.656C686.194,661.786,686.109,661.694,686.022,661.6Z" transform="translate(-661.1 -650.418)" fill="#99ce84"/>
                </g>
                <g id="Group_8713" data-name="Group 8713" transform="translate(256.548 86.79)">
                  <path id="Path_7535" data-name="Path 7535" d="M790.1,713.077c.447-.629.632-.873.8-1.128.879-1.328,1.656-1.5,3.063-.851,1.319.61,2.715,1.054,4.032,1.667a8.74,8.74,0,0,1,1.99,1.322c.718.621,1.333,1.359,2.047,2.1-.227.112-.536.267-1.023.51,1.1,1.269,2.168,2.494,3.417,3.931-1.823-.3-3.312-.473-4.141-2.189a2.739,2.739,0,0,0-1.719-1.066c-.895-.218-.778.684-1.113,1.157a2.149,2.149,0,0,1-2.081.38,2.821,2.821,0,0,0-3.281-.644c-.021-.133-.04-.267-.06-.4.422-.3.842-.606,1.263-.906-.225-2.071-.572-2.451-2.662-3.087-.74-.226-1.453-.541-2.271-.851-.016.037-.121.261-.283.613-.258-.562-.476-1.036-.724-1.573l1.81-.6a7.3,7.3,0,0,1-1.854-.283,6.146,6.146,0,0,1-1.222-1.044c.716-.479,1.437-1.4,2.463-.391a3.088,3.088,0,0,1,.706.929C789.545,711.343,789.744,712.049,790.1,713.077Z" transform="translate(-786.085 -709.297)" fill="#a1c58c"/>
                </g>
                <g id="Group_8714" data-name="Group 8714" transform="translate(235.367 78.888)">
                  <path id="Path_7536" data-name="Path 7536" d="M773.14,709.551c.887-.688,1.546-1.119,2.111-1.65,1.34-1.263,2.635-2.574,4.052-3.965l2,1.763c-1.7,1.271-1.7,2.152.059,4.721-.453,0-.855,0-1.235-.007-.579,1.677-1.142,3.308-1.748,5.065l-1.153.27c-1.058-1.685-3.134-.069-4.34-1.722a16.532,16.532,0,0,1-1.11-2.547,6.226,6.226,0,0,1,.116-2.031Z" transform="translate(-771.715 -703.936)" fill="#a1c58c"/>
                </g>
                <g id="Group_8715" data-name="Group 8715" transform="translate(170.918 99.638)">
                  <path id="Path_7537" data-name="Path 7537" d="M734.526,718.013c.24,1.173,1,2.585.6,3.463-.591,1.29-.858,2.64-1.34,3.933a39.1,39.1,0,0,0-1.675,5.158,2.212,2.212,0,0,1-2.115,1.887,2.03,2.03,0,0,1-1.608-1.154c-.318-1.4-.852-2.882.386-4.284a3.194,3.194,0,0,0,.252-2.252c-.239-1.6.144-2.426,1.688-2.886C732.632,721.3,733.124,719.5,734.526,718.013Z" transform="translate(-727.993 -718.013)" fill="#a1c58c"/>
                </g>
                <g id="Group_8716" data-name="Group 8716" transform="translate(48.14 6.598)">
                  <path id="Path_7538" data-name="Path 7538" d="M658.991,659.005a4.425,4.425,0,0,1-1.039.874,2.439,2.439,0,0,1-1.511.218,7.834,7.834,0,0,0-4.431.144,4.18,4.18,0,0,1-4.129-1.21l4.034-.2.041-.332-3.269-.435,1.515-.308-.031-.4-4.889.368c-.013-.016-.305-.346-.582-.659a19.138,19.138,0,0,1,3.735-1.946,5.821,5.821,0,0,1,5.178.965c.777.569,1.812,1.436,2.979.015.1.591.144.862.134.8l3.339-1.44c.08.146.158.292.236.436-.6.467-1.419.826-1.717,1.437C658.372,657.78,658.864,658.558,658.991,659.005Z" transform="translate(-644.7 -654.894)" fill="#a1c58c"/>
                </g>
                <g id="Group_8717" data-name="Group 8717" transform="translate(221.339 79.835)">
                  <path id="Path_7539" data-name="Path 7539" d="M771.432,717.4c-1.474-2.084-3.479-4.129-4.487-6.583-.864-2.1-2.359-3.3-3.793-4.748a9.231,9.231,0,0,1-.954-1.49l3.088.75c1.218,2.087,3.381,3.663,5.725,5.172-.1.242-.274.657-.287.69.94,1.321,2.024,2.32,2.372,3.53A1.892,1.892,0,0,1,771.432,717.4Z" transform="translate(-762.199 -704.578)" fill="#a1c58c"/>
                </g>
                <g id="Group_8718" data-name="Group 8718" transform="translate(126.681 21.767)">
                  <path id="Path_7540" data-name="Path 7540" d="M704.258,673.337c-.814.155-1.624.324-2.441.46-1.156.192-2.314.357-3.834.59l2.351-1.428-1.574-.162c.281-.536.568-1.079.936-1.778l1.4-.324-1.913-1.526c.022-.038.19-.341.539-.966l-.937.591c.069-2.238-.725-2.5,2.519-3.609l-1.019,1.411,1.719.01c-.411.545-.7.929-.936,1.24.771,1.11,1.506,2.171,2.242,3.23.526.38,2.1.2.485,1.617a7.031,7.031,0,0,0,.466.647Z" transform="translate(-697.983 -665.185)" fill="#a1c58c"/>
                </g>
                <g id="Group_8719" data-name="Group 8719" transform="translate(250.213 41.309)">
                  <path id="Path_7541" data-name="Path 7541" d="M785.726,685.456l-3.939.942c1.107-1.682,2.226-2.475,4.083-1.642q.007-1.185.012-1.958c.43-.018,1.166.053,1.2-.063a7.585,7.585,0,0,0,.329-2.4,7,7,0,0,0-.784-1.894c2.35.7,2.824,1.362,2.8,3.209a4.436,4.436,0,0,0,.413,1.955c.41.825.663,1.355-.593,1.526a12.068,12.068,0,0,0-2.168.773c-.03.066-.227.5-.582,1.288C786.163,686.449,785.963,685.994,785.726,685.456Z" transform="translate(-781.787 -678.442)" fill="#a1c58c"/>
                </g>
                <g id="Group_8720" data-name="Group 8720" transform="translate(267.832 132.057)">
                  <path id="Path_7542" data-name="Path 7542" d="M804.555,740.8a2.791,2.791,0,0,1-.675.827c-1.4.84-2.855,1.582-4.256,2.422a8,8,0,0,0-1.389,1.2c-1.353,1.325-2.555,1.49-4.5.307,1.713-.9,3.237-1.7,4.752-2.506q1.9-1.015,3.79-2.056C802.991,740.6,803.442,739.1,804.555,740.8Z" transform="translate(-793.74 -740.006)" fill="#a1c58c"/>
                </g>
                <g id="Group_8721" data-name="Group 8721" transform="translate(244.694 84.883)">
                  <path id="Path_7543" data-name="Path 7543" d="M781.976,714.128l-1.281.678c-.267-.76-.541-1.543-.825-2.357-1.132.828.69,2.667-1.3,3.269,1.229-1.452-1.389-2.4-.22-4,.823-1.128.333-3.025,1.99-3.458l3.707-.257a1.762,1.762,0,0,1-2.305,1.147,10.846,10.846,0,0,0-2.392-.046c.2.75.345,1.318.47,1.8l2.681-1.054.168.373-1.788,1.468Z" transform="translate(-778.043 -708.003)" fill="#a1c58c"/>
                </g>
                <g id="Group_8722" data-name="Group 8722" transform="translate(167.656 5.233)">
                  <path id="Path_7544" data-name="Path 7544" d="M730.746,659.86l-4.966-1.207c1.3-1.39,2.288-2.481,3.322-3.526a1.818,1.818,0,0,1,.9-.355c1.343-.284,2.686-.585,4.043-.784a6.647,6.647,0,0,1,1.626.161l.059.513a17.808,17.808,0,0,0-3.889.746,19.491,19.491,0,0,0-3.408,2.453l2.391,1.67Z" transform="translate(-725.78 -653.968)" fill="#a1c58c"/>
                </g>
                <g id="Group_8723" data-name="Group 8723" transform="translate(115.552 14.143)">
                  <path id="Path_7545" data-name="Path 7545" d="M697.959,661.711a28.008,28.008,0,0,1-4.656,1.431c-1.34.165-2.358-.78-2.87-2.329l.89-.8c.335.451.578.78.78,1.049a34.562,34.562,0,0,1,4.121-.694C696.659,660.342,697.137,661.046,697.959,661.711Z" transform="translate(-690.433 -660.013)" fill="#a1c58c"/>
                </g>
                <g id="Group_8724" data-name="Group 8724" transform="translate(231.902 92.962)">
                  <path id="Path_7546" data-name="Path 7546" d="M777.518,714.619l-1.368.3c-.063.963,2.039-.15,1.36,1.4-.806-.115-1.613-.189-2.4-.352-.758-.158-1.486-.454-2.244-.606-.71-.143-1.443-.18-2.167-.261-.047-.006-.118.019-.14,0-.4-.422-.8-.851-1.194-1.277a5.935,5.935,0,0,1,1.907-.308c.892.152,1.72.768,2.608.852a23.156,23.156,0,0,0,3.56-.172Z" transform="translate(-769.365 -713.483)" fill="#a1c58c"/>
                </g>
                <g id="Group_8725" data-name="Group 8725" transform="translate(55.472 4.124)">
                  <path id="Path_7547" data-name="Path 7547" d="M659.534,655.212c-.677.111-1.35.237-2.03.327-.651.086-1.313.106-1.962.2s-1.344.581-1.7-.515c-.069-.22-.759-.293-1.175-.339-.992-.11-1.989-.167-2.985-.243l-.013-.389,5.177-1.041.088.208-.775.618,3.051,1.2C657.821,653.968,657.821,653.968,659.534,655.212Z" transform="translate(-649.674 -653.216)" fill="#a1c58c"/>
                </g>
                <g id="Group_8726" data-name="Group 8726" transform="translate(123.045 25.505)">
                  <path id="Path_7548" data-name="Path 7548" d="M695.516,671.3l.851-.963c-.118-.385-.425-.924-.295-1.066a4.226,4.226,0,0,1,1.318-.662c-.018-.069-.072-.287-.146-.584a7.66,7.66,0,0,1,1.5-.3c.794-.006,1.288.192.671,1.161a6.61,6.61,0,0,0-.5,1.9l-3.151.958C695.68,671.593,695.6,671.446,695.516,671.3Z" transform="translate(-695.516 -667.721)" fill="#a1c58c"/>
                </g>
                <g id="Group_8727" data-name="Group 8727" transform="translate(244.908 66.101)">
                  <path id="Path_7549" data-name="Path 7549" d="M782.339,701.337l-2.954-1.047c-1.9-1.191-.827-3.228-1.2-5.029,2.2.136,2.581.852,1.57,2.773a1.315,1.315,0,0,0,.911,1.759,8.95,8.95,0,0,1,1.9,1.269Z" transform="translate(-778.188 -695.261)" fill="#a1c58c"/>
                </g>
                <g id="Group_8728" data-name="Group 8728" transform="translate(50.476 59.775)">
                  <path id="Path_7550" data-name="Path 7550" d="M646.285,692.183c.475-1.529,1.852-1.229,2.6-1.1a15.716,15.716,0,0,1,3.847,1.56c.942.444,1.835.99,2.751,1.49l-.057.361-3.14.245c.162-.32.283-.56.408-.809C650.769,692.7,648.956,691.1,646.285,692.183Z" transform="translate(-646.285 -690.97)" fill="#a1c58c"/>
                </g>
                <g id="Group_8729" data-name="Group 8729" transform="translate(253.844 36.415)">
                  <path id="Path_7551" data-name="Path 7551" d="M784.25,675.122l4.63,2.523c-.484.519-.837.9-1.3,1.4l-2.417-.59c-.034.075-.066.149-.1.224l.856.714-.6.4c-.467-.77-1.259-1.355-.254-2.341C785.294,677.225,784.6,676.067,784.25,675.122Z" transform="translate(-784.25 -675.122)" fill="#a1c58c"/>
                </g>
                <g id="Group_8730" data-name="Group 8730" transform="translate(247.711 75.721)">
                  <path id="Path_7552" data-name="Path 7552" d="M783.6,701.787c.307.948.631,1.847.855,2.77.027.113-.488.358-.983.7l.134.874c-1.605-.349-1.7-.467-1.688-2.121l-1.814.8c-.112-1.011.534-1.517,1.8-1.561C782.406,703.236,782.882,702.437,783.6,701.787Z" transform="translate(-780.09 -701.787)" fill="#a1c58c"/>
                </g>
                <g id="Group_8731" data-name="Group 8731" transform="translate(247.977 27.865)">
                  <path id="Path_7553" data-name="Path 7553" d="M780.712,670.665l-.442-1.209.181-.134q2.138,2.085,4.272,4.17c.068.066.187.183.171.215-1.1,2.047,1.487,2.03,1.744,3.293l-.783.218q-2.565-3.272-5.168-6.588Z" transform="translate(-780.27 -669.322)" fill="#a1c58c"/>
                </g>
                <g id="Group_8732" data-name="Group 8732" transform="translate(258.218 131.154)">
                  <path id="Path_7554" data-name="Path 7554" d="M791.127,739.872c-1.017.814-2.018,1.648-3.079,2.4-.077.055-.852-.513-.83-.746a12.44,12.44,0,0,1,.531-2.131l3.132.019Z" transform="translate(-787.218 -739.393)" fill="#a1c58c"/>
                </g>
                <g id="Group_8733" data-name="Group 8733" transform="translate(64.404 7.036)">
                  <path id="Path_7555" data-name="Path 7555" d="M659.808,655.321a9.378,9.378,0,0,1-.178,1.374c-.254.839-2.307,1.207-2.933.57a8.819,8.819,0,0,0-.963-.756c.022-.086.047-.172.071-.259C657.372,656.756,658.458,654.662,659.808,655.321Z" transform="translate(-655.734 -655.191)" fill="#a1c58c"/>
                </g>
                <g id="Group_8734" data-name="Group 8734" transform="translate(188.85 2.119)">
                  <path id="Path_7556" data-name="Path 7556" d="M740.158,652.455c.581-.212,1.218-.691,1.732-.584a41.086,41.086,0,0,1,4.124,1.278c-.056.195-.114.388-.17.581q-2.742-.378-5.482-.759C740.3,652.8,740.226,652.627,740.158,652.455Z" transform="translate(-740.158 -651.856)" fill="#a1c58c"/>
                </g>
                <g id="Group_8735" data-name="Group 8735" transform="translate(60.703 63.443)">
                  <path id="Path_7557" data-name="Path 7557" d="M653.223,693.5c1.688-.141,3.227.041,4.331,1.38a9.806,9.806,0,0,1-2.864.759C653.6,695.584,653.513,694.4,653.223,693.5Z" transform="translate(-653.223 -693.458)" fill="#a1c58c"/>
                </g>
                <g id="Group_8736" data-name="Group 8736" transform="translate(206.608 75.845)">
                  <path id="Path_7558" data-name="Path 7558" d="M752.205,702.127c.735-.4,1.282-.414,1.666.528.893,2.2.926,2.188-.949,3.152-.236-1.311-.454-2.515-.674-3.716Z" transform="translate(-752.205 -701.871)" fill="#a1c58c"/>
                </g>
                <g id="Group_8737" data-name="Group 8737" transform="translate(221.901 6.318)">
                  <path id="Path_7559" data-name="Path 7559" d="M762.58,654.7l5.821.491C766.617,656.325,763.655,656.053,762.58,654.7Z" transform="translate(-762.58 -654.704)" fill="#a1c58c"/>
                </g>
                <g id="Group_8738" data-name="Group 8738" transform="translate(66.523 5.221)">
                  <path id="Path_7560" data-name="Path 7560" d="M661.814,653.987c-1.129,1.256-2.755,1.349-4.643-.027Z" transform="translate(-657.171 -653.96)" fill="#a1c58c"/>
                </g>
                <g id="Group_8739" data-name="Group 8739" transform="translate(233.515 63.978)">
                  <path id="Path_7561" data-name="Path 7561" d="M772.562,694.281c-.448.6.283,1.95-1.212,1.844-.316-.024-.6-.566-.892-.87l1.658-1.434Z" transform="translate(-770.459 -693.821)" fill="#a1c58c"/>
                </g>
                <g id="Group_8740" data-name="Group 8740" transform="translate(272.887 91.49)">
                  <path id="Path_7562" data-name="Path 7562" d="M801.192,712.485c-.03,1.039-.958,1.537-1.818,1.838-.511.18-1.219-.2-2.205-.4Z" transform="translate(-797.169 -712.485)" fill="#a1c58c"/>
                </g>
                <g id="Group_8741" data-name="Group 8741" transform="translate(250.092 49.406)">
                  <path id="Path_7563" data-name="Path 7563" d="M782.669,687.178c-.14-.433-.3-.861-.414-1.3-.074-.271-.059-.566-.139-.836-.111-.376-.271-.738-.411-1.107a5.93,5.93,0,0,1,1.607,1.049c.264.329.115.986.152,1.5Z" transform="translate(-781.705 -683.935)" fill="#a1c58c"/>
                </g>
                <g id="Group_8742" data-name="Group 8742" transform="translate(243.817 58.81)">
                  <path id="Path_7564" data-name="Path 7564" d="M778.381,690.315c-.006,1.144-.012,2.2-.021,3.476C777.121,692,777.159,691,778.381,690.315Z" transform="translate(-777.448 -690.315)" fill="#a1c58c"/>
                </g>
                <g id="Group_8743" data-name="Group 8743" transform="translate(248.788 95.594)">
                  <path id="Path_7565" data-name="Path 7565" d="M784.484,715.272c-1.243.769-2.351,1.453-3.665,2.264C781.466,715.744,782.353,715.223,784.484,715.272Z" transform="translate(-780.82 -715.269)" fill="#a1c58c"/>
                </g>
                <g id="Group_8744" data-name="Group 8744" transform="translate(69.49 2.821)">
                  <path id="Path_7566" data-name="Path 7566" d="M662.229,652.761c-.281.591-.281.591-3.045.4C659.694,652.135,659.694,652.135,662.229,652.761Z" transform="translate(-659.184 -652.332)" fill="#a1c58c"/>
                </g>
                <g id="Group_8745" data-name="Group 8745" transform="translate(245.334 95.258)">
                  <path id="Path_7567" data-name="Path 7567" d="M783.173,715.041c-1.325.875-3.678,1.085-4.7.355Z" transform="translate(-778.477 -715.041)" fill="#a1c58c"/>
                </g>
                <g id="Group_8746" data-name="Group 8746" transform="translate(279.681 109.997)">
                  <path id="Path_7568" data-name="Path 7568" d="M801.778,725.04c.8.662,1.682,1.387,2.562,2.111C802.475,727.136,801.819,726.421,801.778,725.04Z" transform="translate(-801.778 -725.04)" fill="#a1c58c"/>
                </g>
                <g id="Group_8747" data-name="Group 8747" transform="translate(195.752 3.569)">
                  <path id="Path_7569" data-name="Path 7569" d="M747.729,653.619l-2.88.3C744.757,652.593,745.443,652.484,747.729,653.619Z" transform="translate(-744.841 -652.839)" fill="#a1c58c"/>
                </g>
                <g id="Group_8748" data-name="Group 8748" transform="translate(241.588 95.396)">
                  <path id="Path_7570" data-name="Path 7570" d="M775.936,715.421l2.988-.286.063.5-2.922.442C776.023,715.857,775.98,715.639,775.936,715.421Z" transform="translate(-775.936 -715.135)" fill="#a1c58c"/>
                </g>
                <g id="Group_8749" data-name="Group 8749" transform="translate(41.346 85.181)">
                  <path id="Path_7571" data-name="Path 7571" d="M641.456,709.788q-.681-.475-1.365-.949c.181-.221.478-.657.526-.632a15.121,15.121,0,0,1,1.392.909Z" transform="translate(-640.091 -708.205)" fill="#a1c58c"/>
                </g>
                <g id="Group_8750" data-name="Group 8750" transform="translate(138.294 40.7)">
                  <path id="Path_7572" data-name="Path 7572" d="M705.861,680.435c.371-.926-.737-2.2,1.125-2.406C707.053,678.98,707.757,680.06,705.861,680.435Z" transform="translate(-705.861 -678.029)" fill="#a1c58c"/>
                </g>
              </g>
            </g>
          </g>
        </g>
        <path id="Path_7573" data-name="Path 7573" d="M694.669,672.238a17.5,17.5,0,0,1,.363,6.064,6.87,6.87,0,0,1-3.169,4.978,4.338,4.338,0,0,1-5.494-.976,7.056,7.056,0,0,1-.958-2.562q-2.669-11.526-5.336-23.053c-.4-1.744-.722-3.822.523-5.109C687.437,644.511,694.124,669.38,694.669,672.238Z" transform="translate(-587.227 -590.159)" fill="#fff" style="mix-blend-mode: soft-light;isolation: isolate"/>
        <path id="Path_7574" data-name="Path 7574" d="M682.1,651.017a3.318,3.318,0,0,0,1.119-2.6c.274-4.316-2-8.336-4.205-12.058-.724-1.225-1.579-2.552-2.951-2.924-5.747-1.561-3.843,7.031-2.267,9.494C675.139,645.025,679.013,653.171,682.1,651.017Z" transform="translate(-590.797 -598.252)" fill="#fff" style="mix-blend-mode: soft-light;isolation: isolate"/>
      </g>
      <g id="Group_8826" data-name="Group 8826" transform="translate(57.882 192.152)">
        <g id="Group_8790" data-name="Group 8790" transform="translate(59.79)">
          <g id="Group_8789" data-name="Group 8789">
            <g id="Group_8788" data-name="Group 8788">
              <g id="Group_8756" data-name="Group 8756">
                <path id="Path_7575" data-name="Path 7575" d="M699.789,755.381q4.7-10.215,8.883-20.663c3.744-9.357,7-20.6,1.377-28.962a3.361,3.361,0,0,0-2.058-1.658c-1.259-.2-2.319.88-3.134,1.859q-9.99,12.024-19.981,24.045c.529-3.1-.147-7.655-3.284-7.44a5.293,5.293,0,0,0-3.165,1.977c-4.976,5.136-10.016,10.358-13.417,16.649s-5.012,13.9-2.718,20.674c.846,2.5,2.188,4.8,3.224,7.229,3.048,7.143,3.361,15.1,3.962,22.845.668,8.6,1.751,22.876,3.231,31.374h38.417c-4.279-14.63-8.56-34.97-12.84-49.6-.858-2.93-1.723-5.934-1.524-8.981C696.976,761.439,698.41,758.373,699.789,755.381Z" transform="translate(-661.22 -704.073)" fill="#eaa58a"/>
              </g>
              <g id="Group_8781" data-name="Group 8781" transform="translate(8.11 0.896)">
                <g id="Group_8758" data-name="Group 8758" transform="translate(6.434 24.109)">
                  <g id="Group_8757" data-name="Group 8757">
                    <path id="Path_7576" data-name="Path 7576" d="M679.964,721.324a53.714,53.714,0,0,1-2.454,4.858,20.479,20.479,0,0,1-1.5,2.229c-.559.712-1.228,1.319-1.8,2.014-1.142,1.38-.89,3.057-1.122,4.723a12.8,12.8,0,0,1-1.9,5.253c-.392.6.572,1.162.963.562a13.426,13.426,0,0,0,1.93-5,20.432,20.432,0,0,0,.265-2.487,3.706,3.706,0,0,1,1-2.649,32.383,32.383,0,0,0,5.593-8.942c.3-.647-.66-1.213-.963-.563Z" transform="translate(-671.087 -721.036)" fill="#e16e59"/>
                  </g>
                </g>
                <g id="Group_8760" data-name="Group 8760" transform="translate(26.925)">
                  <g id="Group_8759" data-name="Group 8759">
                    <path id="Path_7577" data-name="Path 7577" d="M698,705.053a86.576,86.576,0,0,1-12.883,22.1c-.444.554.339,1.347.789.789a88.351,88.351,0,0,0,13.168-22.588c.267-.666-.811-.955-1.073-.3Z" transform="translate(-684.988 -704.68)" fill="#e16e59"/>
                  </g>
                </g>
                <g id="Group_8762" data-name="Group 8762" transform="translate(31.811 4.778)">
                  <g id="Group_8761" data-name="Group 8761">
                    <path id="Path_7578" data-name="Path 7578" d="M699.372,708.3A85.5,85.5,0,0,1,688.4,729.271c-.417.584.548,1.141.963.562A86.55,86.55,0,0,0,700.446,708.6c.24-.677-.836-.969-1.075-.3Z" transform="translate(-688.303 -707.922)" fill="#e16e59"/>
                  </g>
                </g>
                <g id="Group_8764" data-name="Group 8764" transform="translate(34.868 19.367)">
                  <g id="Group_8763" data-name="Group 8763">
                    <path id="Path_7579" data-name="Path 7579" d="M698.076,718.1a84.281,84.281,0,0,1-7.572,12.411c-.436.559.346,1.352.787.787a85.758,85.758,0,0,0,7.748-12.636c.338-.632-.624-1.2-.963-.563Z" transform="translate(-690.376 -717.819)" fill="#e16e59"/>
                  </g>
                </g>
                <g id="Group_8766" data-name="Group 8766" transform="translate(25.973 21.76)">
                  <g id="Group_8765" data-name="Group 8765">
                    <path id="Path_7580" data-name="Path 7580" d="M684.613,720.484l3.368,2.524a.559.559,0,0,0,.762-.2.573.573,0,0,0-.2-.762q-1.683-1.263-3.367-2.522a.558.558,0,0,0-.762.2.574.574,0,0,0,.2.762Z" transform="translate(-684.342 -719.442)" fill="#e16e59"/>
                  </g>
                </g>
                <g id="Group_8768" data-name="Group 8768" transform="translate(33.811 30.436)">
                  <g id="Group_8767" data-name="Group 8767">
                    <path id="Path_7581" data-name="Path 7581" d="M689.69,726.034q.869,2.072,1.739,4.142a.576.576,0,0,0,.685.389.562.562,0,0,0,.389-.685l-1.741-4.142a.574.574,0,0,0-.684-.389.559.559,0,0,0-.389.686Z" transform="translate(-689.659 -725.328)" fill="#e16e59"/>
                  </g>
                </g>
                <g id="Group_8770" data-name="Group 8770" transform="translate(2.174 30.429)">
                  <g id="Group_8769" data-name="Group 8769">
                    <path id="Path_7582" data-name="Path 7582" d="M668.467,726.353,672,728.131a.558.558,0,0,0,.563-.963l-3.536-1.776a.557.557,0,1,0-.562.961Z" transform="translate(-668.197 -725.324)" fill="#e16e59"/>
                  </g>
                </g>
                <g id="Group_8772" data-name="Group 8772" transform="translate(29.697 13.334)">
                  <g id="Group_8771" data-name="Group 8771">
                    <path id="Path_7583" data-name="Path 7583" d="M687.138,714.756a8.034,8.034,0,0,1,1.245.764c.012.009.084.065.024.018l.038.031c.047.037.094.075.14.113.093.077.184.156.273.237.183.167.358.342.525.525a.562.562,0,0,0,.787,0,.569.569,0,0,0,0-.789,8.448,8.448,0,0,0-2.47-1.862.557.557,0,1,0-.562.963Z" transform="translate(-686.868 -713.726)" fill="#e16e59"/>
                  </g>
                </g>
                <g id="Group_8774" data-name="Group 8774" transform="translate(34.644 18.976)">
                  <g id="Group_8773" data-name="Group 8773">
                    <path id="Path_7584" data-name="Path 7584" d="M690.5,718.59l1.35.83a.558.558,0,0,0,.563-.963q-.676-.413-1.35-.83a.558.558,0,0,0-.563.963Z" transform="translate(-690.224 -717.554)" fill="#e16e59"/>
                  </g>
                </g>
                <g id="Group_8776" data-name="Group 8776" transform="translate(39.114 23.177)">
                  <g id="Group_8775" data-name="Group 8775">
                    <path id="Path_7585" data-name="Path 7585" d="M693.419,721.355l1.193.968a.605.605,0,0,0,.395.162.57.57,0,0,0,.394-.162.559.559,0,0,0,.162-.4.542.542,0,0,0-.162-.394q-.6-.484-1.193-.967a.6.6,0,0,0-.393-.164.566.566,0,0,0-.4.164.555.555,0,0,0-.162.393.542.542,0,0,0,.162.394Z" transform="translate(-693.257 -720.404)" fill="#e16e59"/>
                  </g>
                </g>
                <g id="Group_8778" data-name="Group 8778" transform="translate(11.799 17.283)">
                  <g id="Group_8777" data-name="Group 8777">
                    <path id="Path_7586" data-name="Path 7586" d="M675.13,717.49a3.231,3.231,0,0,1,.537.134l.144.054c.111.041-.085-.044.03.013.08.038.159.077.237.119s.153.089.227.137c.038.024.074.049.111.075.015.01.134.1.029.018a3.652,3.652,0,0,1,.41.374c.062.063.121.131.177.2l.043.052c-.038-.049-.044-.056-.021-.024s.062.083.091.125a3.948,3.948,0,0,1,.267.46c.019.04.037.081.056.121-.059-.122,0,.01.01.031.031.083.06.167.085.251s.046.171.063.258c.012.05.018.1.028.152s.006.03,0-.038l.01.089a.569.569,0,0,0,.557.557.563.563,0,0,0,.557-.557,4.183,4.183,0,0,0-3.351-3.675.557.557,0,0,0-.295,1.075Z" transform="translate(-674.726 -716.405)" fill="#e16e59"/>
                  </g>
                </g>
                <g id="Group_8780" data-name="Group 8780" transform="translate(0 63.648)">
                  <g id="Group_8779" data-name="Group 8779">
                    <path id="Path_7587" data-name="Path 7587" d="M667.122,749.654a10.068,10.068,0,0,0,6.389-.765.562.562,0,0,0,.2-.762.57.57,0,0,0-.762-.2,8.8,8.8,0,0,1-5.529.653c-.7-.146-1,.929-.3,1.075Z" transform="translate(-666.722 -747.86)" fill="#e16e59"/>
                  </g>
                </g>
              </g>
              <g id="Group_8782" data-name="Group 8782" transform="translate(16.397 20.435)">
                <path id="Path_7588" data-name="Path 7588" d="M672.344,721.2a11.055,11.055,0,0,1,3.539,1.835c1.31.523,3.016-3.147,1.31-4.589S673.131,718.84,672.344,721.2Z" transform="translate(-672.344 -717.936)" fill="#f7e1cc"/>
              </g>
              <g id="Group_8783" data-name="Group 8783" transform="translate(44.568 1.518)">
                <path id="Path_7589" data-name="Path 7589" d="M691.455,706.748a11.6,11.6,0,0,1,1.509.83c.454.3,1.663-1.585,1.058-2.189S692.058,705.087,691.455,706.748Z" transform="translate(-691.455 -705.102)" fill="#f7e1cc"/>
              </g>
              <g id="Group_8784" data-name="Group 8784" transform="translate(47.812 6.335)">
                <path id="Path_7590" data-name="Path 7590" d="M693.656,710.016a11.488,11.488,0,0,1,1.509.831c.454.3,1.663-1.586,1.058-2.19S694.259,708.355,693.656,710.016Z" transform="translate(-693.656 -708.37)" fill="#f7e1cc"/>
              </g>
              <g id="Group_8785" data-name="Group 8785" transform="translate(48.86 16.035)">
                <path id="Path_7591" data-name="Path 7591" d="M694.367,716.6a11.517,11.517,0,0,1,1.511.83c.452.3,1.661-1.586,1.057-2.19S694.971,714.936,694.367,716.6Z" transform="translate(-694.367 -714.951)" fill="#f7e1cc"/>
              </g>
              <g id="Group_8787" data-name="Group 8787" transform="translate(7.485 85.429)">
                <g id="Group_8786" data-name="Group 8786">
                  <path id="Path_7592" data-name="Path 7592" d="M666.337,762.563a24.053,24.053,0,0,0,.351,5.192c.251,1.8.5,9.314.75,11.116q.75,5.4,1.5,10.809c.1.706,1.17.405,1.073-.3q-.727-5.256-1.456-10.51c-.236-1.7-.472-9.113-.708-10.814a25.388,25.388,0,0,1-.4-5.5c.056-.715-1.058-.712-1.114,0Z" transform="translate(-666.297 -762.028)" fill="#e16e59"/>
                </g>
              </g>
            </g>
          </g>
        </g>
        <g id="Group_8825" data-name="Group 8825">
          <g id="Group_8824" data-name="Group 8824">
            <g id="Group_8823" data-name="Group 8823">
              <g id="Group_8791" data-name="Group 8791" transform="translate(0.246)">
                <path id="Path_7593" data-name="Path 7593" d="M634.111,755.381q-4.705-10.215-8.884-20.663c-3.744-9.357-7-20.6-1.375-28.962a3.361,3.361,0,0,1,2.058-1.658c1.259-.2,2.319.88,3.132,1.859q9.992,12.024,19.982,24.045c-.529-3.1.146-7.655,3.283-7.44a5.288,5.288,0,0,1,3.165,1.977c4.976,5.136,10.016,10.358,13.417,16.649s5.013,13.9,2.72,20.674c-.846,2.5-2.187,4.8-3.224,7.229-3.05,7.143-3.362,15.1-3.962,22.845-.668,8.6-1.753,22.876-3.233,31.374H622.772c4.281-14.63,8.561-34.97,12.842-49.6.856-2.93,1.723-5.934,1.524-8.981C636.923,761.439,635.489,758.373,634.111,755.381Z" transform="translate(-620.825 -704.073)" fill="#eaa58a"/>
              </g>
              <g id="Group_8816" data-name="Group 8816" transform="translate(0 0.897)">
                <g id="Group_8793" data-name="Group 8793" transform="translate(27.659 24.108)">
                  <g id="Group_8792" data-name="Group 8792">
                    <path id="Path_7594" data-name="Path 7594" d="M639.479,721.887a32.346,32.346,0,0,0,5.593,8.942,3.571,3.571,0,0,1,.991,2.525,21.2,21.2,0,0,0,.273,2.611,13.339,13.339,0,0,0,1.93,5c.389.6,1.355.041.961-.562a12.822,12.822,0,0,1-1.9-5.253c-.233-1.667.019-3.34-1.123-4.723-.547-.662-1.185-1.24-1.723-1.913a20.291,20.291,0,0,1-1.583-2.329,53.759,53.759,0,0,1-2.456-4.858c-.3-.65-1.262-.084-.961.563Z" transform="translate(-639.422 -721.036)" fill="#e16e59"/>
                  </g>
                </g>
                <g id="Group_8795" data-name="Group 8795" transform="translate(2.934)">
                  <g id="Group_8794" data-name="Group 8794">
                    <path id="Path_7595" data-name="Path 7595" d="M622.69,705.349a88.357,88.357,0,0,0,13.169,22.588c.448.559,1.232-.234.787-.789a86.612,86.612,0,0,1-12.882-22.1c-.262-.657-1.34-.37-1.075.3Z" transform="translate(-622.649 -704.681)" fill="#e16e59"/>
                  </g>
                </g>
                <g id="Group_8797" data-name="Group 8797" transform="translate(0 4.777)">
                  <g id="Group_8796" data-name="Group 8796">
                    <path id="Path_7596" data-name="Path 7596" d="M620.693,708.6a86.491,86.491,0,0,0,11.079,21.234c.413.579,1.38.024.963-.562A85.5,85.5,0,0,1,621.768,708.3c-.239-.671-1.316-.382-1.075.3Z" transform="translate(-620.658 -707.922)" fill="#e16e59"/>
                  </g>
                </g>
                <g id="Group_8799" data-name="Group 8799" transform="translate(0.388 19.366)">
                  <g id="Group_8798" data-name="Group 8798">
                    <path id="Path_7597" data-name="Path 7597" d="M620.993,718.659a85.759,85.759,0,0,0,7.746,12.636c.442.564,1.225-.229.789-.787a84.29,84.29,0,0,1-7.574-12.411c-.338-.632-1.3-.071-.961.563Z" transform="translate(-620.922 -717.819)" fill="#e16e59"/>
                  </g>
                </g>
                <g id="Group_8801" data-name="Group 8801" transform="translate(13.537 21.757)">
                  <g id="Group_8800" data-name="Group 8800">
                    <path id="Path_7598" data-name="Path 7598" d="M633.488,719.524l-3.368,2.522a.571.571,0,0,0-.2.762.564.564,0,0,0,.762.2q1.683-1.263,3.368-2.524a.572.572,0,0,0,.2-.762.562.562,0,0,0-.762-.2Z" transform="translate(-629.842 -719.441)" fill="#e16e59"/>
                  </g>
                </g>
                <g id="Group_8803" data-name="Group 8803" transform="translate(7.304 30.434)">
                  <g id="Group_8802" data-name="Group 8802">
                    <path id="Path_7599" data-name="Path 7599" d="M627.383,725.738q-.869,2.072-1.739,4.142a.56.56,0,0,0,.389.685.571.571,0,0,0,.685-.389q.869-2.072,1.739-4.142a.561.561,0,0,0-.389-.686.572.572,0,0,0-.685.389Z" transform="translate(-625.614 -725.328)" fill="#e16e59"/>
                  </g>
                </g>
                <g id="Group_8805" data-name="Group 8805" transform="translate(37.172 30.427)">
                  <g id="Group_8804" data-name="Group 8804">
                    <path id="Path_7600" data-name="Path 7600" d="M649.687,725.392l-3.535,1.776a.56.56,0,0,0-.2.762.571.571,0,0,0,.762.2l3.536-1.778a.561.561,0,0,0,.2-.762.572.572,0,0,0-.764-.2Z" transform="translate(-645.876 -725.323)" fill="#e16e59"/>
                  </g>
                </g>
                <g id="Group_8807" data-name="Group 8807" transform="translate(10.831 13.332)">
                  <g id="Group_8806" data-name="Group 8806">
                    <path id="Path_7601" data-name="Path 7601" d="M630.636,713.794a8.467,8.467,0,0,0-2.47,1.862.558.558,0,0,0,.789.789q.243-.268.509-.511c.09-.081.18-.161.273-.237l.155-.127a.438.438,0,0,0,.063-.05c-.043.047-.059.046,0,0a8.116,8.116,0,0,1,1.247-.764.56.56,0,0,0,.2-.762.571.571,0,0,0-.762-.2Z" transform="translate(-628.006 -713.725)" fill="#e16e59"/>
                  </g>
                </g>
                <g id="Group_8809" data-name="Group 8809" transform="translate(6.887 18.974)">
                  <g id="Group_8808" data-name="Group 8808">
                    <path id="Path_7602" data-name="Path 7602" d="M626.956,717.628l-1.35.83a.59.59,0,0,0-.256.333.572.572,0,0,0,.056.429.566.566,0,0,0,.762.2l1.35-.83a.581.581,0,0,0,.256-.333.557.557,0,0,0-.818-.629Z" transform="translate(-625.33 -717.553)" fill="#e16e59"/>
                  </g>
                </g>
                <g id="Group_8811" data-name="Group 8811" transform="translate(2.569 23.176)">
                  <g id="Group_8810" data-name="Group 8810">
                    <path id="Path_7603" data-name="Path 7603" d="M623.757,720.568l-1.192.967a.556.556,0,0,0-.164.394.566.566,0,0,0,.164.4.555.555,0,0,0,.393.162l.149-.019a.563.563,0,0,0,.245-.143l1.193-.968a.555.555,0,0,0,.164-.394.559.559,0,0,0-.557-.557l-.147.019a.549.549,0,0,0-.246.145Z" transform="translate(-622.401 -720.404)" fill="#e16e59"/>
                  </g>
                </g>
                <g id="Group_8813" data-name="Group 8813" transform="translate(28.14 17.281)">
                  <g id="Group_8812" data-name="Group 8812">
                    <path id="Path_7604" data-name="Path 7604" d="M643.1,716.416a4.18,4.18,0,0,0-3.349,3.675.558.558,0,0,0,.557.557.573.573,0,0,0,.557-.557c.006-.057.018-.124,0-.028.009-.05.016-.1.026-.152.018-.087.038-.174.063-.258a2.814,2.814,0,0,1,.091-.273c.01-.029.065-.152.01-.031.019-.041.037-.081.056-.121a3.758,3.758,0,0,1,.267-.46c.025-.037.052-.072.077-.108.074-.1-.053.06.022-.028s.124-.147.19-.217a3.8,3.8,0,0,1,.411-.374c-.077.059-.01.009.03-.018s.072-.052.109-.075c.075-.049.15-.094.229-.137s.156-.081.236-.119c.116-.056-.081.028.03-.013.043-.016.083-.032.125-.047a3.271,3.271,0,0,1,.557-.141.559.559,0,0,0,.389-.685.571.571,0,0,0-.686-.389Z" transform="translate(-639.749 -716.404)" fill="#e16e59"/>
                  </g>
                </g>
                <g id="Group_8815" data-name="Group 8815" transform="translate(36.93 63.648)">
                  <g id="Group_8814" data-name="Group 8814">
                    <path id="Path_7605" data-name="Path 7605" d="M652.074,748.579a8.8,8.8,0,0,1-5.529-.653.573.573,0,0,0-.762.2.562.562,0,0,0,.2.762,10.065,10.065,0,0,0,6.387.765c.7-.146.405-1.22-.3-1.075Z" transform="translate(-645.711 -747.86)" fill="#e16e59"/>
                  </g>
                </g>
              </g>
              <g id="Group_8817" data-name="Group 8817" transform="translate(30.136 20.435)">
                <path id="Path_7606" data-name="Path 7606" d="M646.669,721.2a11.072,11.072,0,0,0-3.541,1.835c-1.31.523-3.014-3.147-1.31-4.589S645.882,718.84,646.669,721.2Z" transform="translate(-641.102 -717.936)" fill="#f7e1cc"/>
              </g>
              <g id="Group_8818" data-name="Group 8818" transform="translate(4.798 1.518)">
                <path id="Path_7607" data-name="Path 7607" d="M626.647,706.748a11.7,11.7,0,0,0-1.511.83c-.453.3-1.661-1.585-1.057-2.189S626.043,705.087,626.647,706.748Z" transform="translate(-623.914 -705.102)" fill="#f7e1cc"/>
              </g>
              <g id="Group_8819" data-name="Group 8819" transform="translate(1.554 6.335)">
                <path id="Path_7608" data-name="Path 7608" d="M624.446,710.016a11.581,11.581,0,0,0-1.511.831c-.453.3-1.661-1.586-1.057-2.19S623.842,708.355,624.446,710.016Z" transform="translate(-621.713 -708.37)" fill="#f7e1cc"/>
              </g>
              <g id="Group_8820" data-name="Group 8820" transform="translate(0.506 16.035)">
                <path id="Path_7609" data-name="Path 7609" d="M623.735,716.6a11.415,11.415,0,0,0-1.511.83c-.453.3-1.661-1.586-1.057-2.19S623.131,714.936,623.735,716.6Z" transform="translate(-621.002 -714.951)" fill="#f7e1cc"/>
              </g>
              <g id="Group_8822" data-name="Group 8822" transform="translate(40.895 85.429)">
                <g id="Group_8821" data-name="Group 8821">
                  <path id="Path_7610" data-name="Path 7610" d="M650.968,762.563a24.73,24.73,0,0,1-.374,5.346c-.243,1.751-.485,9.213-.728,10.964q-.73,5.256-1.458,10.51c-.1.7.977,1,1.075.3l1.5-10.809c.243-1.753.485-9.214.728-10.965a24.69,24.69,0,0,0,.373-5.342c-.056-.71-1.17-.716-1.114,0Z" transform="translate(-648.402 -762.028)" fill="#e16e59"/>
                </g>
              </g>
            </g>
          </g>
        </g>
      </g>
      <path id="Path_7611" data-name="Path 7611" d="M808.85,650.773h-140.7s2.513-10.05,13.819-8.794l11.306,1.256s3.769-10.049,12.562-12.562,10.05,1.256,10.05,1.256-5.025-16.331,20.1-23.868S766.138,626.9,766.138,626.9s2.513-8.793,13.819-5.024,11.306,16.331,11.306,16.331S808.85,635.7,808.85,650.773Z" transform="translate(-540.262 -558.077)" fill="#fff"/>
      <path id="Path_7612" data-name="Path 7612" d="M676.544,618.5H558.982a10.255,10.255,0,0,1,11.546-7.348l9.447,1.049s3.148-8.4,10.5-10.5,8.4,1.05,8.4,1.05-4.2-13.645,16.794-19.944,25.192,15.744,25.192,15.744,2.1-7.347,11.546-4.2S661.849,608,661.849,608,676.544,605.9,676.544,618.5Z" transform="translate(-592.014 -569.941)" fill="#fff"/>
      <g id="Group_8847" data-name="Group 8847" transform="translate(11.539 19.941)">
        <g id="Group_8828" data-name="Group 8828" transform="translate(176.093 83.654)">
          <g id="Group_8827" data-name="Group 8827">
            <path id="Path_7614" data-name="Path 7614" d="M708.681,656.051c0-6.1,6.595-12.056,6.595-12.056s6.595,6.116,6.595,12.056a6.595,6.595,0,1,1-13.19,0Z" transform="translate(-708.681 -643.995)" fill="#dbf5fc"/>
            <path id="Path_7615" data-name="Path 7615" d="M711.778,646.722a10.155,10.155,0,0,0-1.924,5.393,5.429,5.429,0,0,0,10.843,0,10.056,10.056,0,0,0-1.865-5.249c1.558,2.224,3.038,5.077,3.038,7.892a6.595,6.595,0,1,1-13.19,0C708.681,651.831,710.2,648.94,711.778,646.722Z" transform="translate(-708.681 -642.702)" fill="#dbf5fc" style="mix-blend-mode: multiply;isolation: isolate"/>
            <path id="Path_7616" data-name="Path 7616" d="M710.683,652.053c0-1.041,1.632.315,3.644.315s3.644-1.356,3.644-.315-1.632,1.887-3.644,1.887S710.683,653.1,710.683,652.053Z" transform="translate(-707.732 -640.361)" fill="#fff" opacity="0.3"/>
          </g>
        </g>
        <g id="Group_8830" data-name="Group 8830" transform="translate(38.838 50.435)">
          <g id="Group_8829" data-name="Group 8829">
            <path id="Path_7617" data-name="Path 7617" d="M615.567,633.514c0-6.1,6.595-12.055,6.595-12.055s6.595,6.114,6.595,12.055a6.595,6.595,0,0,1-13.19,0Z" transform="translate(-615.567 -621.459)" fill="#dbf5fc"/>
            <path id="Path_7618" data-name="Path 7618" d="M618.665,624.185a10.162,10.162,0,0,0-1.925,5.395,5.429,5.429,0,0,0,10.845,0,10.053,10.053,0,0,0-1.866-5.249c1.558,2.224,3.038,5.077,3.038,7.891a6.595,6.595,0,0,1-13.19,0C615.567,629.3,617.085,626.4,618.665,624.185Z" transform="translate(-615.567 -620.167)" fill="#dbf5fc" style="mix-blend-mode: multiply;isolation: isolate"/>
            <path id="Path_7619" data-name="Path 7619" d="M617.569,629.517c0-1.041,1.632.315,3.644.315s3.644-1.356,3.644-.315-1.632,1.885-3.644,1.885S617.569,630.558,617.569,629.517Z" transform="translate(-614.618 -617.825)" fill="#fff" opacity="0.3"/>
          </g>
        </g>
        <g id="Group_8832" data-name="Group 8832" transform="translate(199.077 154.345)">
          <g id="Group_8831" data-name="Group 8831">
            <path id="Path_7620" data-name="Path 7620" d="M724.273,704.007c0-6.1,6.595-12.055,6.595-12.055s6.595,6.114,6.595,12.055a6.595,6.595,0,0,1-13.19,0Z" transform="translate(-724.273 -691.952)" fill="#dbf5fc"/>
            <path id="Path_7621" data-name="Path 7621" d="M727.371,694.678a10.167,10.167,0,0,0-1.925,5.4,5.43,5.43,0,0,0,10.845,0,10.052,10.052,0,0,0-1.866-5.249c1.558,2.224,3.038,5.077,3.038,7.891a6.595,6.595,0,0,1-13.19,0C724.273,699.789,725.791,696.9,727.371,694.678Z" transform="translate(-724.273 -690.66)" fill="#dbf5fc" style="mix-blend-mode: multiply;isolation: isolate"/>
            <path id="Path_7622" data-name="Path 7622" d="M726.275,700.01c0-1.041,1.632.315,3.644.315s3.644-1.356,3.644-.315-1.632,1.885-3.644,1.885S726.275,701.051,726.275,700.01Z" transform="translate(-723.324 -688.318)" fill="#fff" opacity="0.3"/>
          </g>
        </g>
        <g id="Group_8834" data-name="Group 8834" transform="translate(6.595)">
          <g id="Group_8833" data-name="Group 8833">
            <path id="Path_7623" data-name="Path 7623" d="M593.693,599.3c0-6.1,6.595-12.055,6.595-12.055s6.595,6.114,6.595,12.055a6.595,6.595,0,1,1-13.19,0Z" transform="translate(-593.693 -587.244)" fill="#dbf5fc"/>
            <path id="Path_7624" data-name="Path 7624" d="M596.791,589.97a10.15,10.15,0,0,0-1.925,5.4,5.429,5.429,0,0,0,10.843,0,10.052,10.052,0,0,0-1.865-5.249c1.558,2.223,3.038,5.077,3.038,7.891a6.595,6.595,0,1,1-13.19,0C593.693,595.079,595.211,592.188,596.791,589.97Z" transform="translate(-593.693 -585.952)" fill="#dbf5fc" style="mix-blend-mode: multiply;isolation: isolate"/>
            <path id="Path_7625" data-name="Path 7625" d="M595.7,595.3c0-1.042,1.632.314,3.644.314s3.644-1.356,3.644-.314-1.632,1.885-3.644,1.885S595.7,596.343,595.7,595.3Z" transform="translate(-592.744 -583.61)" fill="#fff" opacity="0.3"/>
          </g>
        </g>
        <g id="Group_8836" data-name="Group 8836" transform="translate(192.482)">
          <g id="Group_8835" data-name="Group 8835">
            <path id="Path_7626" data-name="Path 7626" d="M719.8,599.3c0-6.1,6.595-12.055,6.595-12.055s6.595,6.114,6.595,12.055a6.595,6.595,0,1,1-13.19,0Z" transform="translate(-719.799 -587.244)" fill="#dbf5fc"/>
            <path id="Path_7627" data-name="Path 7627" d="M722.9,589.97a10.149,10.149,0,0,0-1.925,5.4,5.429,5.429,0,0,0,10.843,0,10.052,10.052,0,0,0-1.865-5.249c1.558,2.223,3.038,5.077,3.038,7.891a6.595,6.595,0,1,1-13.19,0C719.8,595.079,721.317,592.188,722.9,589.97Z" transform="translate(-719.799 -585.952)" fill="#dbf5fc" style="mix-blend-mode: multiply;isolation: isolate"/>
            <path id="Path_7628" data-name="Path 7628" d="M721.8,595.3c0-1.042,1.632.314,3.644.314s3.644-1.356,3.644-.314-1.632,1.885-3.644,1.885S721.8,596.343,721.8,595.3Z" transform="translate(-718.85 -583.61)" fill="#fff" opacity="0.3"/>
          </g>
        </g>
        <g id="Group_8838" data-name="Group 8838" transform="translate(117.514 7.192)">
          <g id="Group_8837" data-name="Group 8837">
            <path id="Path_7629" data-name="Path 7629" d="M668.941,604.178c0-6.1,6.6-12.055,6.6-12.055s6.595,6.114,6.595,12.055a6.6,6.6,0,0,1-13.191,0Z" transform="translate(-668.941 -592.123)" fill="#dbf5fc"/>
            <path id="Path_7630" data-name="Path 7630" d="M672.04,594.849a10.161,10.161,0,0,0-1.925,5.4,5.43,5.43,0,0,0,10.845,0,10.054,10.054,0,0,0-1.866-5.249c1.558,2.223,3.04,5.077,3.04,7.891a6.6,6.6,0,0,1-13.191,0C668.941,599.958,670.461,597.067,672.04,594.849Z" transform="translate(-668.941 -590.831)" fill="#dbf5fc" style="mix-blend-mode: multiply;isolation: isolate"/>
            <path id="Path_7631" data-name="Path 7631" d="M670.944,600.182c0-1.042,1.63.315,3.644.315s3.642-1.358,3.642-.315-1.63,1.885-3.642,1.885S670.944,601.222,670.944,600.182Z" transform="translate(-667.991 -588.489)" fill="#fff" opacity="0.3"/>
          </g>
        </g>
        <g id="Group_8840" data-name="Group 8840" transform="translate(17.779 167.309)">
          <g id="Group_8839" data-name="Group 8839">
            <path id="Path_7632" data-name="Path 7632" d="M601.28,712.8c0-6.1,6.595-12.055,6.595-12.055s6.6,6.116,6.6,12.055a6.6,6.6,0,1,1-13.191,0Z" transform="translate(-601.28 -700.747)" fill="#dbf5fc"/>
            <path id="Path_7633" data-name="Path 7633" d="M604.378,703.473a10.166,10.166,0,0,0-1.925,5.4,5.429,5.429,0,0,0,10.845,0,10.058,10.058,0,0,0-1.866-5.249c1.558,2.224,3.039,5.077,3.039,7.891a6.6,6.6,0,1,1-13.191,0C601.28,708.583,602.8,705.692,604.378,703.473Z" transform="translate(-601.28 -699.455)" fill="#dbf5fc" style="mix-blend-mode: multiply;isolation: isolate"/>
            <path id="Path_7634" data-name="Path 7634" d="M603.283,708.805c0-1.041,1.63.315,3.642.315s3.644-1.356,3.644-.315-1.63,1.885-3.644,1.885S603.283,709.848,603.283,708.805Z" transform="translate(-600.331 -697.113)" fill="#fff" opacity="0.3"/>
          </g>
        </g>
        <g id="Group_8842" data-name="Group 8842" transform="translate(6.241 249.799)">
          <g id="Group_8841" data-name="Group 8841">
            <path id="Path_7635" data-name="Path 7635" d="M593.453,768.764c0-6.1,6.595-12.056,6.595-12.056s6.595,6.116,6.595,12.056a6.595,6.595,0,0,1-13.19,0Z" transform="translate(-593.453 -756.708)" fill="#dbf5fc"/>
            <path id="Path_7636" data-name="Path 7636" d="M596.55,759.435a10.155,10.155,0,0,0-1.924,5.394,5.429,5.429,0,0,0,10.843,0,10.056,10.056,0,0,0-1.865-5.249c1.558,2.224,3.038,5.077,3.038,7.892a6.595,6.595,0,0,1-13.19,0C593.453,764.544,594.971,761.652,596.55,759.435Z" transform="translate(-593.453 -755.415)" fill="#dbf5fc" style="mix-blend-mode: multiply;isolation: isolate"/>
            <path id="Path_7637" data-name="Path 7637" d="M595.455,764.766c0-1.041,1.632.315,3.644.315s3.644-1.356,3.644-.315-1.632,1.885-3.644,1.885S595.455,765.808,595.455,764.766Z" transform="translate(-592.504 -753.074)" fill="#fff" opacity="0.3"/>
          </g>
        </g>
        <g id="Group_8844" data-name="Group 8844" transform="translate(0 103.658)">
          <g id="Group_8843" data-name="Group 8843">
            <path id="Path_7638" data-name="Path 7638" d="M589.219,669.622c0-6.1,6.595-12.056,6.595-12.056s6.595,6.116,6.595,12.056a6.595,6.595,0,0,1-13.19,0Z" transform="translate(-589.219 -657.566)" fill="#dbf5fc"/>
            <path id="Path_7639" data-name="Path 7639" d="M592.316,660.293a10.157,10.157,0,0,0-1.925,5.394,5.429,5.429,0,0,0,10.845,0,10.056,10.056,0,0,0-1.865-5.249c1.558,2.224,3.038,5.077,3.038,7.892a6.595,6.595,0,1,1-13.19,0C589.219,665.4,590.737,662.51,592.316,660.293Z" transform="translate(-589.219 -656.273)" fill="#dbf5fc" style="mix-blend-mode: multiply;isolation: isolate"/>
            <path id="Path_7640" data-name="Path 7640" d="M591.221,665.624c0-1.041,1.632.315,3.644.315s3.644-1.356,3.644-.315-1.632,1.885-3.644,1.885S591.221,666.667,591.221,665.624Z" transform="translate(-588.27 -653.932)" fill="#fff" opacity="0.3"/>
          </g>
        </g>
        <g id="Group_8846" data-name="Group 8846" transform="translate(187.89 240.474)">
          <g id="Group_8845" data-name="Group 8845">
            <path id="Path_7641" data-name="Path 7641" d="M716.684,762.437c0-6.1,6.595-12.055,6.595-12.055s6.595,6.114,6.595,12.055a6.595,6.595,0,1,1-13.19,0Z" transform="translate(-716.684 -750.382)" fill="#dbf5fc"/>
            <path id="Path_7642" data-name="Path 7642" d="M719.781,753.108a10.166,10.166,0,0,0-1.925,5.4,5.429,5.429,0,0,0,10.845,0,10.058,10.058,0,0,0-1.866-5.249c1.558,2.224,3.04,5.077,3.04,7.891a6.595,6.595,0,1,1-13.19,0C716.684,758.219,718.2,755.326,719.781,753.108Z" transform="translate(-716.684 -749.09)" fill="#dbf5fc" style="mix-blend-mode: multiply;isolation: isolate"/>
            <path id="Path_7643" data-name="Path 7643" d="M718.686,758.44c0-1.041,1.632.315,3.644.315s3.644-1.356,3.644-.315-1.632,1.885-3.644,1.885S718.686,759.483,718.686,758.44Z" transform="translate(-715.735 -746.748)" fill="#fff" opacity="0.3"/>
          </g>
        </g>
      </g>
    </g>
  </g>
</svg>
