<svg id="XMLID_818_" xmlns="http://www.w3.org/2000/svg" width="139.718" height="271.571" viewBox="0 0 139.718 271.571">
  <g id="XMLID_1976_">
    <g id="XMLID_2276_" transform="translate(58.05 5.329)">
      <g id="XMLID_2283_">
        <path id="XMLID_2294_" d="M392.473,353.935c-7.567-6.216-15.009-6.655-10.867-20.976l-13.688-1.879c-1.381,10.762-.713,11.579-5.658,15.218-1.087.8-7.881,3.943-7.881,3.943C364.04,359.991,382.987,360.684,392.473,353.935Z" transform="translate(-354.38 -302.094)" fill="#fd9883"/>
        <path id="XMLID_2293_" d="M394.569,336.716a18.879,18.879,0,0,0-.648,7.347c-4.875-4.018-12.083-2.173-12.871-8.554C387.111,338.984,392.276,338.331,394.569,336.716Z" transform="translate(-367.756 -304.316)" fill="#ee7952"/>
        <path id="XMLID_2291_" d="M372.077,282.735c-4.4,21.135,13.07,34.519,20.916,17.9C407.154,270.642,375.656,265.533,372.077,282.735Z" transform="translate(-362.905 -272.931)" fill="#ffc08d"/>
        <path id="XMLID_2290_" d="M382.6,307.752c-.723-.055-1.077-2.856.683-2.717C384.223,305.11,383.789,307.846,382.6,307.752Z" transform="translate(-368.237 -289.029)" fill="#382823"/>
        <path id="XMLID_2289_" d="M406.813,309.652c-.723-.055-1.077-2.856.683-2.717C408.433,307.01,408,309.746,406.813,309.652Z" transform="translate(-380.379 -289.982)" fill="#382823"/>
        <path id="XMLID_2288_" d="M381.985,298.065c1.161.164,1.032,1.092.16,1.251-1.171.214-1.381-.224-3.913.439C375.43,300.487,378.884,297.631,381.985,298.065Z" transform="translate(-365.824 -285.514)"/>
        <path id="XMLID_2287_" d="M404,300.047c-1.171-.065-1.226.872-.394,1.2,1.112.439,1.57.11,3.753,1.186C409.948,303.706,407.147,300.221,404,300.047Z" transform="translate(-378.784 -286.529)"/>
        <path id="XMLID_2286_" d="M394.378,327.46a.18.18,0,0,1,.169.264c-3.808,6.4-8.2-.469-7.4-.683C388.825,326.593,390.749,327.7,394.378,327.46Z" transform="translate(-370.765 -300.015)" fill="#fff"/>
        <g id="XMLID_2284_" transform="translate(18.848 17.083)">
          <path id="Path_7777" data-name="Path 7777" d="M394.07,313.127a.242.242,0,0,1-.06-.005c-.339-.07-.618-.11-.842-.135-.439-.055-.728-.095-.887-.349-.189-.3-.065-.688.279-1.725.244-.738.608-1.854,1.052-3.494a.3.3,0,0,1,.364-.209.3.3,0,0,1,.209.364c-.444,1.66-.812,2.781-1.057,3.529a5.157,5.157,0,0,0-.334,1.236c.03.01.259.04.459.065.234.03.523.07.887.145a.3.3,0,0,1,.229.349A.31.31,0,0,1,394.07,313.127Z" transform="translate(-392.192 -307.201)" fill="#eb7957"/>
        </g>
      </g>
      <g id="XMLID_2281_" transform="translate(31.051 18.202)">
        <path id="XMLID_2282_" d="M419.383,309.538c-2.044-.778-2.522,3.589-2.7,5.767C416.342,319.587,422.6,310.764,419.383,309.538Z" transform="translate(-416.672 -309.446)" fill="#fd9883"/>
      </g>
      <g id="XMLID_2279_" transform="translate(6.593 16.008)">
        <path id="XMLID_2280_" d="M368.8,305.078c2.138-.449,1.929,3.943,1.765,6.116C370.235,315.481,365.43,305.786,368.8,305.078Z" transform="translate(-367.607 -305.046)" fill="#fd9883"/>
      </g>
      <g id="XMLID_2278_" transform="translate(31.941 19.795)">
        <path id="Path_7778" data-name="Path 7778" d="M418.753,316.006a.287.287,0,0,1-.209-.09.3.3,0,0,1,0-.419,2.975,2.975,0,0,0,.962-2.029.391.391,0,0,0-.065-.239.312.312,0,0,1-.384-.194.285.285,0,0,1,.184-.364.6.6,0,0,1,.718.274c.349.588.025,1.954-1,2.976A.312.312,0,0,1,418.753,316.006Z" transform="translate(-418.457 -312.642)" fill="#ee7952"/>
      </g>
      <g id="XMLID_2277_" transform="translate(7.415 17.889)">
        <path id="Path_7779" data-name="Path 7779" d="M370.28,312.258a.3.3,0,0,1-.239-.12c-.857-1.166-.972-2.562-.538-3.091a.606.606,0,0,1,.753-.164.3.3,0,0,1-.254.533.087.087,0,0,0-.035-.01.48.48,0,0,0-.095.224,2.97,2.97,0,0,0,.643,2.153.291.291,0,0,1-.065.414A.271.271,0,0,1,370.28,312.258Z" transform="translate(-369.256 -308.818)" fill="#ee7952"/>
      </g>
    </g>
    <g id="XMLID_2269_" transform="translate(98.925 238.627)">
      <path id="XMLID_2275_" d="M445.981,755.73c-1.884,1.854-5.129,1.884-8.265.548l-1.336-14.451,9.321-.867Z" transform="translate(-436.38 -740.96)" fill="#fd9883"/>
      <g id="XMLID_2274_" transform="translate(0.266 13.085)">
        <path id="Path_7780" data-name="Path 7780" d="M453.448,776.1c2.791,2.687,3.6,4.456,4.182,6.749.429,1.69.234,3.091-1.545,3.43-3.564.678-6.939,1.1-9.316.553-1.281-.294-2.722-.673-7.323-4.646-2.687-2.313-1.76-2.034-1.844-12.576a.649.649,0,0,1,.807-.633c3.17.743,6.525-.488,7.926-1.112a.651.651,0,0,1,.887.429C448.328,772.431,447.376,770.258,453.448,776.1Z" transform="translate(-437.215 -767.512)" fill="#30323e"/>
        <path id="Path_7781" data-name="Path 7781" d="M449.025,787.07a11.975,11.975,0,0,1-2.622-.254c-1.266-.289-2.707-.618-7.452-4.711-2.108-1.819-2.1-2.183-2-6.655.035-1.465.08-3.474.055-6.141a.935.935,0,0,1,.354-.743.961.961,0,0,1,.817-.185c3.115.728,6.45-.523,7.741-1.092a.946.946,0,0,1,1.3.618q.127.486.224.867c.5,1.934.5,1.934,2.108,3.33.793.688,1.994,1.73,3.808,3.474,2.8,2.7,3.659,4.5,4.267,6.889a3.527,3.527,0,0,1-.154,2.806,2.332,2.332,0,0,1-1.625.987A38.108,38.108,0,0,1,449.025,787.07ZM437.954,768.95a.344.344,0,0,0-.224.08.348.348,0,0,0-.13.274c.02,2.677-.025,4.691-.055,6.161-.1,4.387-.1,4.556,1.794,6.191,4.636,3.993,6,4.307,7.2,4.581,2.522.573,6.236,0,9.192-.558a1.761,1.761,0,0,0,1.236-.723,3.054,3.054,0,0,0,.08-2.343c-.578-2.283-1.406-4.013-4.1-6.6-1.8-1.735-3-2.772-3.783-3.454-1.715-1.49-1.76-1.555-2.3-3.629-.065-.254-.14-.538-.224-.862a.349.349,0,0,0-.189-.229.344.344,0,0,0-.289-.005c-1.346.593-4.825,1.894-8.115,1.127C438.014,768.955,437.984,768.95,437.954,768.95Z" transform="translate(-436.914 -767.211)" fill="#5c5f70"/>
      </g>
      <g id="XMLID_2273_" transform="translate(1.645 25.282)">
        <path id="Path_7782" data-name="Path 7782" d="M450.337,798.713a9.26,9.26,0,0,1-4.9-1.251,25.36,25.36,0,0,1-3.873-3.021c-.469-.419-.987-.882-1.615-1.426a.76.76,0,1,1,.992-1.152c.638.548,1.161,1.017,1.635,1.446a23.556,23.556,0,0,0,3.669,2.866,8.224,8.224,0,0,0,4.935.987l.169-.01c1.63-.12,5.02-.374,6.161-1.2a.76.76,0,1,1,.892,1.231c-1.376,1-4.307,1.291-6.939,1.49l-.169.015C450.97,798.7,450.651,798.713,450.337,798.713Z" transform="translate(-439.68 -791.68)" fill="#fff"/>
      </g>
      <g id="XMLID_2272_" transform="translate(9.9 23.64)">
        <path id="Path_7783" data-name="Path 7783" d="M456.544,790.825a.3.3,0,0,1,0-.608c1.51,0,4.267-.723,4.84-1.685a.307.307,0,0,1,.419-.1.3.3,0,0,1,.1.414c-.778,1.3-3.9,1.979-5.364,1.984Z" transform="translate(-456.24 -788.385)" fill="#fff"/>
      </g>
      <g id="XMLID_2271_" transform="translate(5.741 20.19)">
        <path id="Path_7784" data-name="Path 7784" d="M448.97,784.3c-.284,0-.548-.01-.8-.035a.307.307,0,0,1-.274-.334.3.3,0,0,1,.334-.274c2.308.229,5.8-.663,6.585-2.039a.3.3,0,1,1,.528.3C454.449,783.491,451.253,784.3,448.97,784.3Z" transform="translate(-447.898 -781.464)" fill="#fff"/>
      </g>
      <g id="XMLID_2270_" transform="translate(3.853 17.142)">
        <path id="Path_7785" data-name="Path 7785" d="M445.066,777.563c-.334,0-.573-.01-.668-.015a.3.3,0,0,1,.03-.608c1.765.085,5.069-.135,6.291-1.49a.3.3,0,0,1,.429-.02.306.306,0,0,1,.025.429C449.8,777.383,446.522,777.563,445.066,777.563Z" transform="translate(-444.109 -775.349)" fill="#fff"/>
      </g>
    </g>
    <g id="XMLID_2082_" transform="translate(42.303 238.403)">
      <path id="XMLID_2268_" d="M342.262,755.245c2.039,1.68,5.274,1.426,8.285-.179l.055-14.51-9.361-.045Z" transform="translate(-332.043 -740.51)" fill="#fd9883"/>
      <g id="XMLID_2267_" transform="translate(0 13.059)">
        <path id="Path_7786" data-name="Path 7786" d="M327.045,776.163c-2.542,2.921-3.2,4.755-3.574,7.088-.279,1.72.04,3.1,1.844,3.28,3.609.359,7.009.479,9.326-.269,1.251-.4,2.652-.912,6.884-5.274,2.472-2.542,1.575-2.178.723-12.691a.652.652,0,0,0-.857-.563c-3.1,1.017-6.545.09-8-.409a.645.645,0,0,0-.842.5C331.82,772.06,332.573,769.812,327.045,776.163Z" transform="translate(-323.087 -767)" fill="#30323e"/>
        <path id="Path_7787" data-name="Path 7787" d="M329.8,786.817c-1.63,0-3.315-.135-4.815-.284a2.334,2.334,0,0,1-1.7-.838,3.548,3.548,0,0,1-.4-2.781c.394-2.433,1.092-4.307,3.644-7.238,1.65-1.9,2.757-3.041,3.484-3.8,1.48-1.535,1.48-1.535,1.809-3.5.045-.259.09-.548.15-.882a.96.96,0,0,1,.449-.653.938.938,0,0,1,.783-.08c1.336.454,4.77,1.406,7.806.4a.948.948,0,0,1,1.246.818c.214,2.662.439,4.656.6,6.111.493,4.446.533,4.81-1.406,6.8-4.367,4.5-5.767,4.95-7.008,5.349A15.4,15.4,0,0,1,329.8,786.817Zm-3.056-10.946.224.194c-2.457,2.821-3.125,4.621-3.5,6.944a3.06,3.06,0,0,0,.284,2.323,1.741,1.741,0,0,0,1.3.613c3,.3,6.744.538,9.207-.259,1.171-.379,2.5-.807,6.764-5.2,1.745-1.8,1.73-1.969,1.241-6.326-.164-1.461-.384-3.459-.6-6.131a.34.34,0,0,0-.155-.264.369.369,0,0,0-.314-.04c-3.205,1.052-6.789.065-8.185-.409a.348.348,0,0,0-.289.03.36.36,0,0,0-.169.244c-.06.329-.1.618-.15.877-.354,2.113-.389,2.183-1.969,3.818-.728.753-1.819,1.889-3.464,3.773Z" transform="translate(-322.789 -766.708)" fill="#5c5f70"/>
      </g>
      <g id="XMLID_2266_" transform="translate(0.538 24.579)">
        <path id="Path_7788" data-name="Path 7788" d="M330.11,797.755c-2.3,0-4.626-.135-5.872-.882a.759.759,0,0,1,.783-1.3c1.211.728,4.611.678,6.241.653h.169a8.235,8.235,0,0,0,4.83-1.416,24.054,24.054,0,0,0,3.4-3.18c.434-.464.917-.977,1.5-1.58a.758.758,0,0,1,1.087,1.057c-.578.593-1.052,1.1-1.48,1.56a25.593,25.593,0,0,1-3.594,3.355,9.739,9.739,0,0,1-5.727,1.725h-.169C330.9,797.75,330.5,797.755,330.11,797.755Z" transform="translate(-323.869 -789.818)" fill="#fff"/>
      </g>
      <g id="XMLID_2234_" transform="translate(5.041 24.072)">
        <path id="Path_7789" data-name="Path 7789" d="M337.9,790.81c-1.59,0-4.157-.444-4.94-1.525a.3.3,0,1,1,.493-.354c.653.907,3.464,1.386,4.97,1.251a.3.3,0,1,1,.055.6C338.3,790.8,338.11,790.81,337.9,790.81Z" transform="translate(-332.902 -788.802)" fill="#fff"/>
      </g>
      <g id="XMLID_2084_" transform="translate(7.11 20.429)">
        <path id="Path_7790" data-name="Path 7790" d="M342.689,783.819c-2.143,0-4.7-.563-5.583-1.849a.3.3,0,1,1,.5-.349c.9,1.3,4.456,1.884,6.739,1.451a.3.3,0,0,1,.354.239.3.3,0,0,1-.239.354A9.131,9.131,0,0,1,342.689,783.819Z" transform="translate(-337.053 -781.493)" fill="#fff"/>
      </g>
      <g id="XMLID_2083_" transform="translate(9.07 17.2)">
        <path id="Path_7791" data-name="Path 7791" d="M345.728,776.772c-1.575,0-3.569-.224-4.646-1.231a.3.3,0,0,1,.414-.444c1.336,1.241,4.651,1.167,6.4.927a.3.3,0,1,1,.085.6A17.489,17.489,0,0,1,345.728,776.772Z" transform="translate(-340.985 -775.015)" fill="#fff"/>
      </g>
    </g>
    <g id="XMLID_2078_" transform="translate(112.454 121.94)">
      <path id="XMLID_2081_" d="M476.858,563.73c.344.668,2.418.932,3.41-3.32.209-.9.872-2.393.688-3.28C480.283,557.962,476.375,562.788,476.858,563.73Z" transform="translate(-470.19 -532.076)" fill="#ffc08d"/>
      <path id="XMLID_2080_" d="M477.121,563.638c-.364-.08-.927-.877-.09-2.393.484-.877,1.391-1.675,1.954-2.507,1.72-2.527,1.3-5.932,2.592-8.7.4.364.364.987.409,1.53.09,1.132.648,2.183.673,3.325C482.759,558.718,478.163,563.863,477.121,563.638Z" transform="translate(-470.079 -528.521)" fill="#ffc08d"/>
      <path id="XMLID_2079_" d="M467.669,521.524l-4.127-11.784a.337.337,0,0,1,.2-.429l6.784-2.423a.335.335,0,0,1,.444.244l2.692,12.262a6.059,6.059,0,0,0,.429,1.271c.04.08.075.164.11.244,6.565,14.62,3.474,16.649-.379,21.913a.657.657,0,0,1-1.027.085c-2.353-2.447,6.111-4.885.628-13.289-1.431-2.193-4.242-1.241-3.818,2.811.5,4.81-3.489.289-2.786-3,.653-3.061.548-4.082.877-5.423a7.057,7.057,0,0,0,.15-1.112A3.322,3.322,0,0,0,467.669,521.524Z" transform="translate(-463.523 -506.869)" fill="#ffc08d"/>
    </g>
    <g id="XMLID_2077_" transform="translate(93.117 51.107)">
      <path id="Path_7792" data-name="Path 7792" d="M425.616,375.736c-.444,4.865-2.771-.01,19.744,73.126a1.356,1.356,0,0,0,.977.917,10.7,10.7,0,0,0,9.88-2.318,1.359,1.359,0,0,0,.439-1.341c-12.008-51.347-9.994-57.867-13.872-68.943a20.358,20.358,0,0,0-11.789-11.714C428.119,364.516,426.135,370.049,425.616,375.736Z" transform="translate(-425.033 -365.064)" fill="#200e32"/>
      <path id="Path_7793" data-name="Path 7793" d="M448.905,450.142a12.534,12.534,0,0,1-2.946-.364,1.652,1.652,0,0,1-1.191-1.122c-20.647-67.064-20.422-68.565-19.889-72.188.05-.319.095-.653.135-1.052l.294.025-.294-.025c.349-3.823,1.535-8.8,3.738-10.239a2.243,2.243,0,0,1,2.029-.284,20.735,20.735,0,0,1,11.973,11.9c1.64,4.681,2.213,8.444,3.26,15.273,1.461,9.536,3.664,23.946,10.622,53.705a1.66,1.66,0,0,1-.538,1.635A10.92,10.92,0,0,1,448.905,450.142Zm-18.862-84.78a1.744,1.744,0,0,0-.962.309c-1.645,1.077-3.041,5.015-3.474,9.795-.04.419-.09.758-.14,1.087-.508,3.424-.738,4.99,19.869,71.924a1.065,1.065,0,0,0,.763.718,10.436,10.436,0,0,0,9.62-2.253,1.058,1.058,0,0,0,.339-1.047c-6.964-29.779-9.172-44.2-10.627-53.75-1.037-6.794-1.61-10.533-3.23-15.163a20.1,20.1,0,0,0-11.6-11.53A1.947,1.947,0,0,0,430.043,365.363Z" transform="translate(-424.729 -364.769)" fill="#5c5f70"/>
    </g>
    <g id="XMLID_2074_" transform="translate(97.967 54.588)">
      <g id="XMLID_2076_" transform="translate(0 25.004)">
        <path id="Path_7794" data-name="Path 7794" d="M452.509,477.756a.3.3,0,0,1-.284-.209c-1.316-4.282-2.009-6.5-2.707-8.708s-1.391-4.436-2.712-8.723a157.617,157.617,0,0,1-4.616-18.159,27.634,27.634,0,0,0-2.363-7.906c-.583-1.2-1.311-2.373-2.014-3.514-1.6-2.577-3.24-5.244-3.355-8.31a.3.3,0,0,1,.284-.309.286.286,0,0,1,.309.284c.11,2.911,1.645,5.393,3.265,8.02a40.651,40.651,0,0,1,2.044,3.564,27.937,27.937,0,0,1,2.413,8.05,156.6,156.6,0,0,0,4.6,18.1c1.321,4.287,2.014,6.505,2.707,8.723s1.391,4.431,2.707,8.713a.293.293,0,0,1-.194.369A.233.233,0,0,1,452.509,477.756Z" transform="translate(-434.46 -421.914)" fill="#5c5f70"/>
      </g>
      <g id="XMLID_2075_" transform="translate(3.927)">
        <path id="Path_7795" data-name="Path 7795" d="M449.124,383.047a.3.3,0,0,1-.294-.249c-.593-3.8-1.336-8.524-6.3-10.473a.3.3,0,0,1-.169-.384.3.3,0,0,1,.384-.169c5.279,2.079,6.081,7.2,6.67,10.936a.3.3,0,0,1-.249.339Z" transform="translate(-442.339 -371.753)" fill="#5c5f70"/>
      </g>
    </g>
    <g id="XMLID_2073_" transform="translate(33.914 85.851)">
      <path id="Path_7796" data-name="Path 7796" d="M329.468,454.33c-1.585,9.947-11.953,22.127-13.927,77.236-.773,21.5-.493,43.291-5.6,64.138-1.1,4.468-5.463,10.548-2.2,14.954,4.287,3.359,10.064-.778,12.721-2.918a32.645,32.645,0,0,1,33.373-4.354c10.8,4.872,10.553,6.666,22.481,2.908,10.827-3.405,22.626.575,33.791,2.452a1.454,1.454,0,0,0,1.64-1.69c-1.426-9.19-8.733-16.457-13.185-24.75-5.478-10.211-7.113-12.854-28.463-130.837-1.017-5.619-.189-10.081.269-16.1-24.176,9.76-32.59,1.394-42.534,2.918C328.88,444.482,330.545,447.587,329.468,454.33Z" transform="translate(-306.255 -434.921)" fill="#200e32"/>
      <path id="Path_7797" data-name="Path 7797" d="M311.159,611.786a6.138,6.138,0,0,1-3.893-1.342l-.055-.057c-2.477-3.343-.763-7.566.753-11.293a30.015,30.015,0,0,0,1.4-3.923c4.267-17.408,4.775-35.764,5.274-53.513.095-3.462.194-7.038.324-10.551,1.485-41.34,7.671-58.52,11.37-68.781a49.7,49.7,0,0,0,2.562-8.484l.294.052-.294-.052c.778-4.866.115-7.774-.718-11.458-.314-1.378-.638-2.8-.922-4.483l-.055-.311.3-.047c3.295-.5,6.375.052,9.944.7,7.268,1.311,16.32,2.949,32.525-3.6l.439-.176-.04.492c-.095,1.249-.209,2.431-.314,3.571-.409,4.312-.758,8.033.04,12.443,21.235,117.309,23.024,120.652,28.348,130.565l.085.155a92.761,92.761,0,0,0,5.02,7.971c3.554,5.239,7.228,10.655,8.195,16.874a1.784,1.784,0,0,1-.484,1.539,1.672,1.672,0,0,1-1.5.5c-2.413-.4-4.895-.917-7.3-1.415-8.818-1.819-17.935-3.7-26.359-1.047-10.049,3.161-11.6,2.41-18.114-.762-1.3-.632-2.776-1.353-4.571-2.161a32.532,32.532,0,0,0-33.069,4.317C316.822,610.361,313.746,611.786,311.159,611.786Zm-3.5-1.809c2.941,2.275,7.088,1.285,12.327-2.944a33.137,33.137,0,0,1,33.672-4.395c1.8.814,3.28,1.534,4.586,2.166,6.5,3.166,7.856,3.825,17.691.731,8.564-2.695,17.756-.8,26.648,1.031,2.4.492,4.875,1.005,7.278,1.41a1.1,1.1,0,0,0,.987-.332,1.166,1.166,0,0,0,.314-1.005c-.942-6.079-4.576-11.438-8.1-16.62a92.51,92.51,0,0,1-5.055-8.028l-.085-.156c-5.5-10.251-7.163-13.345-28.413-130.752-.813-4.493-.459-8.261-.05-12.619.095-.99.189-2.006.274-3.073-16.086,6.4-25.123,4.768-32.4,3.451-3.41-.617-6.365-1.15-9.456-.736.269,1.524.568,2.85.857,4.13.852,3.752,1.52,6.711.728,11.7a49.832,49.832,0,0,1-2.592,8.6c-3.684,10.23-9.855,27.348-11.335,68.589-.125,3.508-.224,7.084-.324,10.546-.493,17.786-1.007,36.173-5.289,53.648a30.542,30.542,0,0,1-1.426,4.011C306.992,603.064,305.427,606.925,307.655,609.977Z" transform="translate(-305.961 -434.47)" fill="#5c5f70"/>
    </g>
    <g id="XMLID_2300_" transform="translate(0 25.035)">
      <path id="XMLID_2306_" d="M240.293,312.741a.217.217,0,0,1,.259-.269c.862.229,1.441,1.166,1.864,2,1.122,2.208,5.359,10.468,4.691,10.568-1.979.294-2.413.942-4.78-4.945C242.107,319.54,240.662,314.127,240.293,312.741Z" transform="translate(-239.109 -312.464)" fill="#ffc08d"/>
      <path id="XMLID_2305_" d="M242.892,337.777c-1.112-1.381-7.2-6.276-4.092-9.172-1.132-1.889.439-2.418.862-1.924-.773-.832.932-3.509,3.415-.274a4.378,4.378,0,0,0,2.069,1.814c-.738-1.535-2.936-3.863-2.1-5.967a.565.565,0,0,1,.638-.359c.987.229,1.366,1.884,1.665,2.428,1.087,1.949,2.273,1.221,2.477,4.9.274,4.95-.548,6.655,9.277,25.447-.513-1.51-7.1,2.8-8.28.085C246.964,350.493,246.695,342.493,242.892,337.777Z" transform="translate(-237.924 -317.188)" fill="#ffc08d"/>
      <g id="XMLID_2304_" transform="translate(0.06 12.283)">
        <path id="Path_7798" data-name="Path 7798" d="M241.651,341.753c-.867,0-2.527-1.575-3.524-2.612a.3.3,0,0,1,.429-.409,9.475,9.475,0,0,0,3.006,2.433c-.035-.239-.309-1.117-2.3-3.574a.3.3,0,1,1,.464-.374c3.041,3.738,2.462,4.257,2.273,4.426A.555.555,0,0,1,241.651,341.753Z" transform="translate(-238.044 -337.105)" fill="#eb7957"/>
      </g>
      <g id="XMLID_2303_" transform="translate(2.06 9.692)">
        <path id="Path_7799" data-name="Path 7799" d="M244.625,337.707a1.674,1.674,0,0,1-1.092-.484.3.3,0,0,1,.424-.414c.239.249.678.369.793.269,0,0,.628-.633-2.627-4.686a.3.3,0,0,1,.045-.419.3.3,0,0,1,.419.045c2.452,3.056,3.29,4.855,2.557,5.5A.73.73,0,0,1,244.625,337.707Z" transform="translate(-242.055 -331.909)" fill="#eb7957"/>
      </g>
      <g id="XMLID_2302_" transform="translate(3.767 8.726)">
        <path id="Path_7800" data-name="Path 7800" d="M247.5,334.88a1.283,1.283,0,0,1-.9-.484.3.3,0,0,1,.429-.409c.274.284.454.319.508.3s.11-.125.11-.289c.015-.638-1.695-3.2-2.059-3.5a.3.3,0,0,1,.384-.454c.409.344,2.288,3.066,2.268,3.973a.847.847,0,0,1-.489.827A.786.786,0,0,1,247.5,334.88Z" transform="translate(-245.48 -329.97)" fill="#eb7957"/>
      </g>
      <g id="XMLID_2301_" transform="translate(4.976 6.697)">
        <path id="Path_7801" data-name="Path 7801" d="M250,331.522a.282.282,0,0,1-.09-.015.3.3,0,0,1-.194-.374c.309-.982-.254-1.9-.847-2.866a6.739,6.739,0,0,1-.952-2.009.3.3,0,0,1,.229-.354.3.3,0,0,1,.354.229,6.2,6.2,0,0,0,.877,1.819c.638,1.037,1.3,2.113.907,3.355A.3.3,0,0,1,250,331.522Z" transform="translate(-247.906 -325.899)" fill="#eb7957"/>
      </g>
    </g>
    <g id="XMLID_2299_" transform="translate(5.371 47.659)">
      <path id="Path_7802" data-name="Path 7802" d="M295.693,388.409c-19.251,11.664-28.428,17.671-33.158,13.21-2.991-2.826-11.32-31.718-13.189-38.676a1.309,1.309,0,0,1,.339-1.266,10.519,10.519,0,0,1,6.959-3.23,1.319,1.319,0,0,1,1.251.678c3.4,6.246,7.133,13.065,10.543,19.321a.975.975,0,0,0,1.331.379c12.706-7.173,21.19-13.194,27.486-16.285C310.109,356.228,324.3,371.077,295.693,388.409Z" transform="translate(-249.001 -358.148)" fill="#200e32"/>
      <path id="Path_7803" data-name="Path 7803" d="M266.131,403.082a5.685,5.685,0,0,1-4.107-1.55c-3.155-2.981-11.714-33.024-13.269-38.811a1.6,1.6,0,0,1,.414-1.55,10.764,10.764,0,0,1,7.148-3.315,1.617,1.617,0,0,1,1.535.832c1.715,3.145,3.509,6.435,5.309,9.725,1.77,3.245,3.544,6.49,5.239,9.6a.657.657,0,0,0,.4.324.673.673,0,0,0,.518-.06c6.126-3.459,11.2-6.6,15.662-9.376,4.785-2.971,8.564-5.314,11.839-6.919,5.757-2.826,12.173-1.565,14.6,2.876,2.762,5.044.04,13.872-15.876,23.513l-3.14,1.9C279.4,398.172,271.3,403.082,266.131,403.082Zm-9.7-44.638a.378.378,0,0,0-.075,0,10.231,10.231,0,0,0-6.774,3.145,1.01,1.01,0,0,0-.259.977c2.413,8.982,10.313,35.9,13.1,38.537,4.3,4.058,12.776-1.087,29.659-11.34l3.14-1.9.155.254-.155-.254c15.557-9.426,18.294-17.92,15.667-22.72-2.273-4.162-8.344-5.314-13.818-2.627-3.245,1.6-7.013,3.933-11.789,6.894-4.476,2.776-9.546,5.922-15.687,9.386a1.269,1.269,0,0,1-1.735-.493c-1.695-3.105-3.464-6.35-5.239-9.6-1.794-3.29-3.594-6.58-5.309-9.725A.992.992,0,0,0,256.436,358.444Z" transform="translate(-248.699 -357.852)" fill="#200e32"/>
    </g>
    <g id="XMLID_1975_" transform="translate(21.613 68.55)">
      <g id="XMLID_2298_" transform="translate(8.43 0.02)">
        <path id="Path_7804" data-name="Path 7804" d="M298.491,416.26a.3.3,0,0,1-.15-.553l27.68-15.866a.294.294,0,0,1,.4.11.3.3,0,0,1-.11.4l-27.68,15.866A.254.254,0,0,1,298.491,416.26Z" transform="translate(-298.194 -399.802)" fill="#5c5f70"/>
      </g>
      <g id="XMLID_2297_" transform="translate(2.242 0.807)">
        <path id="Path_7805" data-name="Path 7805" d="M286.074,409.385a.32.32,0,0,1-.12-.025.3.3,0,0,1-.15-.394,18.389,18.389,0,0,0,1.615-7.293.29.29,0,0,1,.3-.294.3.3,0,0,1,.294.3,18.945,18.945,0,0,1-1.67,7.527A.285.285,0,0,1,286.074,409.385Z" transform="translate(-285.78 -401.38)" fill="#5c5f70"/>
      </g>
      <g id="XMLID_2296_">
        <path id="Path_7806" data-name="Path 7806" d="M281.581,403.324a.3.3,0,0,1-.169-.543,10.557,10.557,0,0,0,2.816-2.886.293.293,0,0,1,.409-.085.3.3,0,0,1,.085.409,11.165,11.165,0,0,1-2.976,3.046A.248.248,0,0,1,281.581,403.324Z" transform="translate(-281.283 -399.761)" fill="#5c5f70"/>
      </g>
    </g>
    <g id="XMLID_2070_" transform="translate(51.91 46.213)">
      <path id="Path_7807" data-name="Path 7807" d="M375.187,356.168c3.11.633,7.038,1.909,13.9,4.3,3.554,20.432-3,36.942-.678,51.517-14.76,5.862-27.366,8.409-41.044,2.692,1.829-11.026-9.1-40.052-2.657-53.665,4.646-1.994,8.967-4.152,14.894-5.383C364.465,363.68,368.174,362.29,375.187,356.168Z" transform="translate(-342.359 -355.291)" fill="#200e32"/>
      <path id="Path_7808" data-name="Path 7808" d="M362.882,417.862a40.639,40.639,0,0,1-15.926-3.25l-.214-.09.04-.234c.713-4.307-.578-11.614-1.949-19.346-2.168-12.222-4.621-26.08-.683-34.4l.05-.1.1-.045q1.107-.479,2.2-.962a61.309,61.309,0,0,1,12.751-4.441l.2-.045.11.179c2.034,3.375,3.888,5.089,5.837,5.393,2.577.4,5.468-1.585,9.292-4.925l.11-.095.145.03a120.5,120.5,0,0,1,13.942,4.312l.165.06.03.169c1.954,11.25.842,21.479-.14,30.5-.812,7.447-1.575,14.481-.533,21.02l.04.234-.219.09C379.272,415.474,371.077,417.862,362.882,417.862ZM347.4,414.153c13.608,5.608,26.005,2.991,40.386-2.7-1-6.55-.239-13.543.568-20.941.972-8.938,2.079-19.061.174-30.162a121.019,121.019,0,0,0-13.558-4.2c-3.9,3.395-6.884,5.4-9.66,4.97-2.124-.334-4.028-2.029-6.141-5.493a60.985,60.985,0,0,0-12.427,4.362c-.7.309-1.4.613-2.1.917-3.793,8.16-1.366,21.853.778,33.941C346.826,402.823,348.053,409.732,347.4,414.153Z" transform="translate(-342.062 -354.95)" fill="#5c5f70"/>
    </g>
    <g id="XMLID_2069_" transform="translate(65.154 47.29)">
      <path id="Path_7809" data-name="Path 7809" d="M384.467,368.63a.286.286,0,0,1-.065,0,.5.5,0,0,1-.384-.279,11.4,11.4,0,0,0-3.763-4.471.135.135,0,0,0-.16.005,9.322,9.322,0,0,0-2.936,4.227.492.492,0,0,1-.359.324.479.479,0,0,1-.459-.135c-3.255-3.285-6.44-6.869-7.7-10.8a.3.3,0,1,1,.568-.179c1.2,3.763,4.272,7.238,7.437,10.443a9.92,9.92,0,0,1,3.066-4.342.726.726,0,0,1,.882-.035,11.946,11.946,0,0,1,3.893,4.561c2.393-2.806,5.608-6.6,6.979-10.1a.3.3,0,0,1,.553.214c-1.431,3.644-4.755,7.542-7.183,10.388A.5.5,0,0,1,384.467,368.63Z" transform="translate(-368.631 -357.111)" fill="#d0a99a"/>
    </g>
    <path id="XMLID_2063_" d="M412.08,727.608c6.54-9.187,8.579-24.814,6.186-36.428-.03-.15.219-.194.289-.055,6.191,12.188,10.682,36.852,10.682,36.852C421.775,730.659,417.518,730.589,412.08,727.608Z" transform="translate(-325.268 -470.853)" fill="#5c5f70"/>
    <path id="XMLID_2062_" d="M461.791,739.9c.254-10.044-1.61-13.414-5.757-22.466-.03-.06.05-.12.095-.07,7.347,8.459,13.658,23.323,13.658,23.323A63.173,63.173,0,0,0,461.791,739.9Z" transform="translate(-347.309 -484.044)" fill="#5c5f70"/>
    <path id="XMLID_2061_" d="M371.65,733.011c-3.818-5.359-4.805-14.505-3.41-21.285.02-.09-.13-.115-.169-.035-3.614,7.113-6.231,21.853-6.231,21.853A34.551,34.551,0,0,1,371.65,733.011Z" transform="translate(-300.071 -481.186)" fill="#5c5f70"/>
    <g id="XMLID_2060_" transform="translate(120.943 221.087)">
      <path id="Path_7810" data-name="Path 7810" d="M491.194,726.4a.291.291,0,0,1-.224-.1,48.913,48.913,0,0,1-10.408-20.158.3.3,0,0,1,.578-.14,48.343,48.343,0,0,0,10.283,19.914.3.3,0,0,1-.03.419A.314.314,0,0,1,491.194,726.4Z" transform="translate(-480.552 -705.772)" fill="#5c5f70"/>
    </g>
    <g id="XMLID_2054_" transform="translate(55.127 86.944)">
      <g id="XMLID_2059_" transform="translate(32.264)">
        <path id="Path_7811" data-name="Path 7811" d="M413.54,446.346a.3.3,0,0,1-.289-.224.3.3,0,0,1,.214-.364,13.581,13.581,0,0,0,9.361-8.888.3.3,0,0,1,.568.179,14.185,14.185,0,0,1-9.78,9.281A.135.135,0,0,1,413.54,446.346Z" transform="translate(-413.242 -436.662)" fill="#5c5f70"/>
      </g>
      <g id="XMLID_2058_" transform="translate(0.697 1.233)">
        <path id="Path_7812" data-name="Path 7812" d="M359.7,449.137a.342.342,0,0,1-.12-.025,19.37,19.37,0,0,1-9.64-9.556.3.3,0,1,1,.543-.244,18.8,18.8,0,0,0,9.341,9.262.3.3,0,0,1,.15.394A.3.3,0,0,1,359.7,449.137Z" transform="translate(-349.915 -439.135)" fill="#5c5f70"/>
      </g>
      <g id="XMLID_2057_" transform="translate(0 34.725)">
        <path id="Path_7813" data-name="Path 7813" d="M364.1,524.218a.292.292,0,0,1-.13-.03,30.372,30.372,0,0,1-15.438-17.466.3.3,0,0,1,.184-.379.291.291,0,0,1,.374.184,29.78,29.78,0,0,0,15.134,17.122.294.294,0,0,1,.14.394A.286.286,0,0,1,364.1,524.218Z" transform="translate(-348.516 -506.326)" fill="#5c5f70"/>
      </g>
      <g id="XMLID_2056_" transform="translate(29.779 52.944)">
        <path id="Path_7814" data-name="Path 7814" d="M408.553,562.612a.29.29,0,0,1-.234-.115.3.3,0,0,1,.055-.414A28.406,28.406,0,0,0,419.2,543.137a.3.3,0,0,1,.588.07,29.014,29.014,0,0,1-11.051,19.346A.309.309,0,0,1,408.553,562.612Z" transform="translate(-408.257 -542.875)" fill="#5c5f70"/>
      </g>
      <g id="XMLID_2055_" transform="translate(15.11 98.312)">
        <path id="Path_7815" data-name="Path 7815" d="M390.25,661.2a.3.3,0,0,1-.219-.095,42.64,42.64,0,0,1-11.2-26.907.3.3,0,0,1,.284-.309.29.29,0,0,1,.309.284A42.024,42.024,0,0,0,390.464,660.7a.3.3,0,0,1-.015.419A.261.261,0,0,1,390.25,661.2Z" transform="translate(-378.83 -633.889)" fill="#5c5f70"/>
      </g>
    </g>
    <path id="XMLID_2053_" d="M394.274,278.857c-6.4-4.556-20.9.095-19.141,3.345C375.95,283.717,402.115,284.44,394.274,278.857Z" transform="translate(-306.665 -269.621)" fill="#515151"/>
    <g id="XMLID_2050_" transform="translate(47.903)">
      <path id="Path_7816" data-name="Path 7816" d="M391.762,317.318c-2.7-2.612-8.374-4.935-11.719-6.036-2.343-.773,1.71-2.443-1.625-4.461-1.017-.613-3.325-1.1-3.808-4.152a5.516,5.516,0,0,1,1.6-4.686c10.762-11.026,6.774-37.575-14.58-35.2-5.742.638-7.263,3.14-9.227,7.557-1.685,3.783-5.877,11.4.618,24.884a13.637,13.637,0,0,1,1.2,3.943c.473,3.245.628,4.835-4.262,6.994a2.024,2.024,0,0,0-1.077,1.406c-.459,1.745-9.127,3.115-14.112,9.775-2.7,3.609,11.893,3.145,16.125,3.694,5.957.768,19.9,11.709,37.789,1.161C392.38,320.009,393.856,319.341,391.762,317.318Zm-28.881-14.68a5.108,5.108,0,0,1-2.089-.967c-4.6-3.539-5.827-6.66-6.341-9.685-2.946-17.431,7.268-25.487,17.058-19.146C382.575,280.012,375.233,305.19,362.881,302.638Z" transform="translate(-334.23 -262.436)" fill="#200e32"/>
      <path id="Path_7817" data-name="Path 7817" d="M372.563,326.782c-6.64,0-12.247-2.248-16.574-3.978a25.877,25.877,0,0,0-5.339-1.77c-.982-.13-2.522-.2-4.307-.284-5.064-.234-11.37-.528-12.217-2.333a1.305,1.305,0,0,1,.269-1.391c3.165-4.222,7.811-6.346,10.887-7.751,1.7-.778,3.051-1.4,3.2-1.954a2.228,2.228,0,0,1,1.191-1.54c4.825-2.133,4.6-3.689,4.147-6.784a13.35,13.35,0,0,0-1.186-3.883c-6.186-12.836-2.752-20.363-.907-24.405.1-.224.2-.439.289-.643,1.924-4.327,3.41-7.008,9.386-7.671,11.275-1.251,16.3,5.408,18.289,9.491,4.087,8.379,2.532,19.819-3.544,26.045a5.334,5.334,0,0,0-1.54,4.516,4.544,4.544,0,0,0,3.051,3.674c.244.115.479.224.668.339,2,1.211,1.515,2.358,1.161,3.2-.145.349-.274.648-.179.852a.983.983,0,0,0,.6.394c1.4.459,8.514,2.911,11.794,6.081.763.738,1.077,1.316,1.012,1.869-.115.962-1.4,1.715-3.524,2.961l-.613.359A31.04,31.04,0,0,1,372.563,326.782Zm-8.474-64.148a24.669,24.669,0,0,0-2.647.15c-5.762.638-7.2,3.245-9.067,7.442-.09.2-.189.419-.289.643-1.819,3.983-5.2,11.4.907,24.071a13.983,13.983,0,0,1,1.221,4c.5,3.434.518,5.04-4.377,7.2a1.829,1.829,0,0,0-.967,1.276c-.194.738-1.475,1.326-3.414,2.213-3.036,1.391-7.632,3.489-10.732,7.632a.956.956,0,0,0-.229.987c.748,1.585,7.447,1.9,11.879,2.109,1.794.085,3.34.155,4.337.284a25.875,25.875,0,0,1,5.438,1.795c7.4,2.961,18.573,7.442,32.226-.608l.613-.359c2.019-1.181,3.235-1.9,3.33-2.667.05-.414-.234-.9-.892-1.535-2.5-2.413-7.831-4.736-11.644-5.992a1.277,1.277,0,0,1-.842-.608,1.482,1.482,0,0,1,.174-1.171c.349-.822.708-1.67-1-2.7a6.76,6.76,0,0,0-.633-.319,4.936,4.936,0,0,1-3.27-3.968,5.743,5.743,0,0,1,1.65-4.855c5.967-6.111,7.492-17.357,3.474-25.6A16.175,16.175,0,0,0,364.089,262.634Zm.349,40.192a8.733,8.733,0,0,1-1.8-.189,5.386,5.386,0,0,1-2.168-1c-4.805-3.7-5.922-6.9-6.415-9.81-1.56-9.252.464-16.719,5.423-19.979,3.454-2.273,7.806-2.039,11.933.633,6.36,4.122,6.66,13.982,3.714,21.17C373.226,298.27,369.5,302.826,364.438,302.826Zm.219-32.136a8.917,8.917,0,0,0-4.965,1.485c-4.825,3.17-6.789,10.493-5.249,19.58.479,2.826,1.565,5.942,6.266,9.561a4.94,4.94,0,0,0,2,.927c5.747,1.186,9.989-3.744,12.043-8.748,2.886-7.038,2.622-16.684-3.559-20.686A12.146,12.146,0,0,0,364.658,270.69Z" transform="translate(-334.023 -262.241)" fill="#3b3b3b"/>
    </g>
    <g id="XMLID_2039_" transform="translate(53.095 6.385)">
      <g id="XMLID_2047_" transform="translate(14.436 29.081)">
        <path id="Path_7820" data-name="Path 7820" d="M378.37,340.149a.18.18,0,0,1-.11-.035,12.354,12.354,0,0,1-4.85-6.465.2.2,0,1,1,.379-.12,12,12,0,0,0,4.7,6.261.2.2,0,0,1,.055.274A.21.21,0,0,1,378.37,340.149Z" transform="translate(-373.4 -333.39)" fill="#3b3b3b"/>
      </g>
      <g id="XMLID_2046_" transform="translate(29.942 30.481)">
        <path id="Path_7821" data-name="Path 7821" d="M404.708,342.9a.2.2,0,0,1-.164-.085.194.194,0,0,1,.05-.274c1.959-1.371,4.5-3.564,5.453-6.216a.2.2,0,1,1,.374.135c-.992,2.751-3.594,5-5.6,6.41A.227.227,0,0,1,404.708,342.9Z" transform="translate(-404.507 -336.198)" fill="#3b3b3b"/>
      </g>
      <g id="XMLID_2045_" transform="translate(9.779 38.825)">
        <path id="Path_7822" data-name="Path 7822" d="M375.025,359.614a.085.085,0,0,1-.035-.005c-4.247-.778-10.707-3.828-10.931-6.455a.2.2,0,1,1,.394-.035c.194,2.233,6.1,5.269,10.612,6.1a.2.2,0,0,1,.159.229A.21.21,0,0,1,375.025,359.614Z" transform="translate(-364.058 -352.938)" fill="#3b3b3b"/>
      </g>
      <g id="XMLID_2044_" transform="translate(31.525 42.042)">
        <path id="Path_7823" data-name="Path 7823" d="M407.881,364.854a.2.2,0,0,1-.035-.394,14.318,14.318,0,0,0,8.29-4.995.2.2,0,0,1,.309.249,14.759,14.759,0,0,1-8.534,5.139Z" transform="translate(-407.684 -359.391)" fill="#3b3b3b"/>
      </g>
      <g id="XMLID_2043_" transform="translate(32.849 35.705)">
        <path id="Path_7824" data-name="Path 7824" d="M410.539,354.545a.208.208,0,0,1-.145-.06.2.2,0,0,1,0-.279c.279-.269.543-.523.793-.758,2.507-2.388,3.185-3.031,2.009-6.51a.2.2,0,0,1,.374-.125c1.256,3.719.474,4.461-2.108,6.924-.244.234-.508.484-.788.758A.238.238,0,0,1,410.539,354.545Z" transform="translate(-410.339 -346.679)" fill="#3b3b3b"/>
      </g>
      <g id="XMLID_2042_" transform="translate(11.553 51.091)">
        <path id="Path_7825" data-name="Path 7825" d="M383.091,381.511a9.236,9.236,0,0,1-4.5-1.471c-2.393-1.266-5.1-2.707-10.752-1.844a.2.2,0,0,1-.06-.389,15.442,15.442,0,0,1,11,1.884c1.635.867,3.046,1.615,5.064,1.376a.2.2,0,0,1,.219.174.194.194,0,0,1-.174.219A6.287,6.287,0,0,1,383.091,381.511Z" transform="translate(-367.616 -377.546)" fill="#3b3b3b"/>
      </g>
      <g id="XMLID_2041_" transform="translate(0 45.663)">
        <path id="Path_7826" data-name="Path 7826" d="M344.659,371.229a.2.2,0,0,1-.194-.174c-.209-1.61.872-3.669,3.748-4.392a.2.2,0,0,1,.239.145.2.2,0,0,1-.145.239c-2.642.668-3.644,2.517-3.454,3.958a.19.19,0,0,1-.169.219A.038.038,0,0,1,344.659,371.229Z" transform="translate(-344.439 -366.656)" fill="#3b3b3b"/>
      </g>
      <g id="XMLID_2040_" transform="translate(35.466 44.708)">
        <path id="Path_7827" data-name="Path 7827" d="M415.789,373.852a.2.2,0,0,1-.2-.194.2.2,0,0,1,.194-.2c10.189-.224,12.666-2.786,13.259-3.878a2.111,2.111,0,0,0-.07-2.208c-.877-1.416-3.16-2.318-5.678-2.228a.206.206,0,0,1-.2-.189.2.2,0,0,1,.189-.2c2.692-.085,5.065.857,6.027,2.418a2.515,2.515,0,0,1,.085,2.607c-1.321,2.433-6.276,3.918-13.6,4.082Z" transform="translate(-415.59 -364.739)" fill="#3b3b3b"/>
      </g>
    </g>
  </g>
</svg>
